<?xml version="1.0" encoding="UTF-8" standalone="no"?>
<!-- Created with Inkscape (http://www.inkscape.org/) -->

<svg
   xmlns:dc="http://purl.org/dc/elements/1.1/"
   xmlns:cc="http://creativecommons.org/ns#"
   xmlns:rdf="http://www.w3.org/1999/02/22-rdf-syntax-ns#"
   xmlns:svg="http://www.w3.org/2000/svg"
   xmlns="http://www.w3.org/2000/svg"
   xmlns:sodipodi="http://sodipodi.sourceforge.net/DTD/sodipodi-0.dtd"
   xmlns:inkscape="http://www.inkscape.org/namespaces/inkscape"
   width="210mm"
   height="297mm"
   id="svg3460"
   version="1.1"
   inkscape:version="0.91 r13725"
   sodipodi:docname="ReactorLogo.svg"
   inkscape:export-filename="/home/steve/BlockWorks/Media/ReactorLogo.png"
   inkscape:export-xdpi="90"
   inkscape:export-ydpi="90">
  <sodipodi:namedview
     inkscape:document-units="mm"
     id="base"
     pagecolor="#ffffff"
     bordercolor="#666666"
     borderopacity="1.0"
     inkscape:pageopacity="0.0"
     inkscape:pageshadow="2"
     inkscape:zoom="1.979899"
     inkscape:cx="439.24234"
     inkscape:cy="566.17005"
     inkscape:current-layer="layer1"
     showgrid="false"
     inkscape:window-width="1920"
     inkscape:window-height="1056"
     inkscape:window-x="0"
     inkscape:window-y="24"
     inkscape:window-maximized="1" />
  <defs
     id="defs3" />
  <metadata
     id="metadata4">
    <rdf:RDF>
      <cc:Work
         rdf:about="">
        <dc:format>image/svg+xml</dc:format>
        <dc:type
           rdf:resource="http://purl.org/dc/dcmitype/StillImage" />
        <dc:title></dc:title>
      </cc:Work>
    </rdf:RDF>
  </metadata>
  <g
     inkscape:label="Layer 1"
     inkscape:groupmode="layer"
     id="layer1">
    <path
       id="path4265-8"
       d="m 254.08287,493.3797 c -0.015,11.7895 9.5677,21.3723 21.3723,21.3723 l 23.9721,0 -54.7458,54.74579 c -8.3433,8.3433 -8.3509,21.87862 0,30.22954 8.3434,8.34335 21.8863,8.34331 30.2296,2e-5 l 54.7457,-54.74576 0,23.97204 c -0.015,11.7895 9.5677,21.37227 21.3723,21.3723 5.9099,10e-6 11.2454,-2.38816 15.1148,-6.25752 3.8694,-3.86936 6.2575,-9.20492 6.2575,-15.11478 l 0,-96.94623 -96.9462,0 c -11.8046,0 -21.3723,9.5676 -21.3723,21.3723 z"
       inkscape:connector-curvature="0" />
    <path
       id="path4265-0-3"
       d="m 514.17117,494.0984 c 0.015,11.7895 -9.5677,21.3722 -21.3723,21.3723 l -23.9721,0 54.7458,54.74573 c 8.3433,8.3433 8.3509,21.87862 0,30.22954 -8.3434,8.34335 -21.8863,8.34331 -30.2296,2e-5 l -54.7457,-54.74576 0,23.97204 c 0.015,11.7895 -9.5677,21.37227 -21.3723,21.3723 -5.9099,10e-6 -11.2454,-2.38816 -15.1148,-6.25752 -3.8694,-3.86936 -6.2575,-9.20492 -6.2575,-15.11478 l 0,-96.94617 96.9462,0 c 11.8046,-10e-5 21.3723,9.5676 21.3723,21.3723 z"
       inkscape:connector-curvature="0" />
    <path
       id="path4265-0-6-6"
       d="m 403.42257,346.3605 c -0.015,11.7895 9.5677,21.3722 21.3723,21.3723 l 23.9721,0 -54.7458,54.7457 c -8.3433,8.3433 -8.3509,21.8786 0,30.2296 8.3434,8.3433 21.8863,8.3433 30.2296,0 l 54.7457,-54.7458 0,23.9721 c -0.015,11.7895 9.5677,21.3722 21.3723,21.3723 5.9099,0 11.2454,-2.3882 15.1148,-6.2576 3.8694,-3.8693 6.2575,-9.2049 6.2575,-15.1147 l 0,-96.9462 -96.9462,0 c -11.8046,-1e-4 -21.3723,9.5676 -21.3723,21.3723 z"
       inkscape:connector-curvature="0" />
    <path
       id="path4265-0-9-8"
       d="m 255.58327,430.2158 c -0.015,-11.7895 9.5677,-21.3722 21.3723,-21.3723 l 23.9721,0 -54.7458,-54.7457 c -8.3433,-8.3433 -8.3509,-21.8787 0,-30.2296 8.3434,-8.3433 21.8863,-8.3433 30.2296,0 l 54.7457,54.7458 0,-23.9721 c -0.015,-11.7895 9.5677,-21.3722 21.3723,-21.3723 5.9099,0 11.2454,2.3882 15.1148,6.2575 3.8694,3.8694 6.2575,9.205 6.2575,15.1148 l 0,96.9462 -96.9462,0 c -11.8046,10e-5 -21.3723,-9.5676 -21.3723,-21.3723 z"
       inkscape:connector-curvature="0" />
    <g
       id="text3883"
       style="font-size:85px;font-style:normal;font-variant:normal;font-weight:600;font-stretch:normal;line-height:125%;letter-spacing:0px;word-spacing:0px;fill:#000000;fill-opacity:1;stroke:none;font-family:URW Gothic L;-inkscape-font-specification:URW Gothic L Semi-Bold">
      <path
         id="path3943"
         style="font-family:URW Gothic L;-inkscape-font-specification:URW Gothic L Semi-Bold"
         d="m 236.92508,664.96869 11.305,0 0,-26.18 c 0,-7.30999 3.31501,-10.965 10.115,-11.135 l 0,-10.88 -0.85,0 c -4.84499,0 -7.225,1.36 -10.2,5.695 l 0,-4.59 -10.37,0 0,47.09" />
      <path
         id="path3945"
         style="font-family:URW Gothic L;-inkscape-font-specification:URW Gothic L Semi-Bold"
         d="m 310.81665,646.43869 c 0.34,-1.615 0.425,-2.635 0.425,-4.335 0,-14.61999 -10.28502,-25.33 -24.31,-25.33 -13.85499,0 -24.82,10.96501 -24.82,24.82 0,13.76999 11.13501,24.48 25.5,24.48 7.73499,0 13.77,-2.80501 18.7,-8.5 1.78499,-2.21 2.975,-4.165 3.74,-6.545 l -12.325,0 c -2.89,3.4 -5.69501,4.675 -10.37,4.675 -6.715,0 -11.64501,-3.57001 -13.005,-9.265 l 36.465,0 m -36.805,-9.945 c 1.78499,-6.035 6.375,-9.35 13.09,-9.35 6.96999,0 11.56,3.315 13.005,9.35 l -26.095,0" />
      <path
         id="path3947"
         style="font-family:URW Gothic L;-inkscape-font-specification:URW Gothic L Semi-Bold"
         d="m 366.28977,617.87869 -10.37,0 0,6.29 c -3.91,-5.185 -8.58501,-7.395 -15.385,-7.395 -13.93999,0 -23.97,10.45501 -23.97,24.82 0,14.19498 9.94501,24.48 23.715,24.48 6.62999,0 11.13501,-2.12501 15.64,-7.225 l 0,6.12 10.37,0 0,-47.09 m -24.565,9.265 c 8.07499,0 13.855,6.03501 13.855,14.62 0,3.4 -1.36,7.31 -3.4,9.69 -2.295,2.72 -5.95,4.25 -10.285,4.25 -8.24499,0 -13.94,-5.61001 -13.94,-13.855 0,-8.58499 5.69501,-14.705 13.77,-14.705" />
      <path
         id="path3949"
         style="font-family:URW Gothic L;-inkscape-font-specification:URW Gothic L Semi-Bold"
         d="m 408.46305,649.49869 c -2.805,4.33499 -6.035,6.205 -10.71,6.205 -7.81999,0 -13.685,-6.12001 -13.685,-14.365 0,-8.24499 5.61001,-14.195 13.43,-14.195 5.1,0 8.67,2.125 10.965,6.46 l 12.75,0 c -1.615,-4.76 -3.145,-7.225 -6.375,-10.2 -4.58999,-4.25 -10.795,-6.63 -17.34,-6.63 -13.93998,0 -24.82,10.79501 -24.82,24.65 0,13.68499 11.22002,24.65 25.16,24.65 10.96499,0 19.46501,-6.03501 23.375,-16.575 l -12.75,0" />
      <path
         id="path3951"
         style="font-family:URW Gothic L;-inkscape-font-specification:URW Gothic L Semi-Bold"
         d="m 430.87118,664.96869 11.305,0 0,-36.805 6.8,0 0,-10.285 -6.8,0 0,-15.725 -11.305,0 0,15.725 -5.525,0 0,10.285 5.525,0 0,36.805" />
      <path
         id="path3953"
         style="font-family:URW Gothic L;-inkscape-font-specification:URW Gothic L Semi-Bold"
         d="m 477.60258,616.77369 c -13.68498,0 -24.905,11.13501 -24.905,24.65 0,13.59999 11.22002,24.65 24.99,24.65 13.68499,0 25.075,-11.05001 25.075,-24.31 0,-14.02499 -10.96501,-24.99 -25.16,-24.99 m 0.085,10.37 c 7.565,0 13.685,6.46001 13.685,14.28 0,7.90499 -6.12,14.28 -13.6,14.28 -7.64999,0 -13.685,-6.37501 -13.685,-14.45 0,-7.73499 6.20501,-14.11 13.6,-14.11" />
      <path
         id="path3955"
         style="font-family:URW Gothic L;-inkscape-font-specification:URW Gothic L Semi-Bold"
         d="m 509.19071,664.96869 11.305,0 0,-26.18 c 0,-7.30999 3.315,-10.965 10.115,-11.135 l 0,-10.88 -0.85,0 c -4.845,0 -7.225,1.36 -10.2,5.695 l 0,-4.59 -10.37,0 0,47.09" />
    </g>
  </g>
</svg>
