  0
SECTION
  2
HEADER
  9
$ACADVER
  1
AC1014
  9
$HANDSEED
  5
FFFF
  9
$MEASUREMENT
 70
     1
  0
ENDSEC
  0
SECTION
  2
TABLES
  0
TABLE
  2
VPORT
  5
8
330
0
100
AcDbSymbolTable
 70
     4
  0
VPORT
  5
2E
330
8
100
AcDbSymbolTableRecord
100
AcDbViewportTableRecord
  2
*ACTIVE
 70
     0
 10
0.0
 20
0.0
 11
1.0
 21
1.0
 12
210.0
 22
148.5
 13
0.0
 23
0.0
 14
10.0
 24
10.0
 15
10.0
 25
10.0
 16
0.0
 26
0.0
 36
1.0
 17
0.0
 27
0.0
 37
0.0
 40
341.0
 41
1.24
 42
50.0
 43
0.0
 44
0.0
 50
0.0
 51
0.0
 71
     0
 72
   100
 73
     1
 74
     3
 75
     0
 76
     0
 77
     0
 78
     0
  0
ENDTAB
  0
TABLE
  2
LTYPE
  5
5
330
0
100
AcDbSymbolTable
 70
     1
  0
LTYPE
  5
14
330
5
100
AcDbSymbolTableRecord
100
AcDbLinetypeTableRecord
  2
BYBLOCK
 70
     0
  3

 72
    65
 73
     0
 40
0.0
  0
LTYPE
  5
15
330
5
100
AcDbSymbolTableRecord
100
AcDbLinetypeTableRecord
  2
BYLAYER
 70
     0
  3

 72
    65
 73
     0
 40
0.0
  0
LTYPE
  5
16
330
5
100
AcDbSymbolTableRecord
100
AcDbLinetypeTableRecord
  2
CONTINUOUS
 70
     0
  3
Solid line
 72
    65
 73
     0
 40
0.0
  0
ENDTAB
  0
TABLE
  2
LAYER
  5
2
100
AcDbSymbolTable
 70
2
  0
LAYER
  5
50
100
AcDbSymbolTableRecord
100
AcDbLayerTableRecord
  2
0
 70
0
  6
CONTINUOUS
  0
LAYER
  5
51
100
AcDbSymbolTableRecord
100
AcDbLayerTableRecord
  2
Layer_1
 70
0
  6
CONTINUOUS
  0
ENDTAB
  0
TABLE
  2
STYLE
  5
3
330
0
100
AcDbSymbolTable
 70
     1
  0
STYLE
  5
11
330
3
100
AcDbSymbolTableRecord
100
AcDbTextStyleTableRecord
  2
STANDARD
 70
     0
 40
0.0
 41
1.0
 50
0.0
 71
     0
 42
2.5
  3
txt
  4

  0
ENDTAB
  0
TABLE
  2
VIEW
  5
6
330
0
100
AcDbSymbolTable
 70
     0
  0
ENDTAB
  0
TABLE
  2
UCS
  5
7
330
0
100
AcDbSymbolTable
 70
     0
  0
ENDTAB
  0
TABLE
  2
APPID
  5
9
330
0
100
AcDbSymbolTable
 70
     2
  0
APPID
  5
12
330
9
100
AcDbSymbolTableRecord
100
AcDbRegAppTableRecord
  2
ACAD
 70
     0
  0
ENDTAB
  0
TABLE
  2
DIMSTYLE
  5
A
330
0
100
AcDbSymbolTable
 70
     1
  0
DIMSTYLE
105
27
330
A
100
AcDbSymbolTableRecord
100
AcDbDimStyleTableRecord
  2
ISO-25
 70
     0
  3

  4

  5

  6

  7

 40
1.0
 41
2.5
 42
0.625
 43
3.75
 44
1.25
 45
0.0
 46
0.0
 47
0.0
 48
0.0
140
2.5
141
2.5
142
0.0
143
0.03937007874016
144
1.0
145
0.0
146
1.0
147
0.625
 71
     0
 72
     0
 73
     0
 74
     0
 75
     0
 76
     0
 77
     1
 78
     8
170
     0
171
     3
172
     1
173
     0
174
     0
175
     0
176
     0
177
     0
178
     0
270
     2
271
     2
272
     2
273
     2
274
     3
340
11
275
     0
280
     0
281
     0
282
     0
283
     0
284
     8
285
     0
286
     0
287
     3
288
     0
  0
ENDTAB
  0
TABLE
  2
BLOCK_RECORD
  5
1
330
0
100
AcDbSymbolTable
 70
     1
  0
BLOCK_RECORD
  5
1F
330
1
100
AcDbSymbolTableRecord
100
AcDbBlockTableRecord
  2
*MODEL_SPACE
  0
BLOCK_RECORD
  5
1B
330
1
100
AcDbSymbolTableRecord
100
AcDbBlockTableRecord
  2
*PAPER_SPACE
  0
ENDTAB
  0
ENDSEC
  0
SECTION
  2
BLOCKS
  0
BLOCK
  5
20
330
1F
100
AcDbEntity
  8
0
100
AcDbBlockBegin
  2
*MODEL_SPACE
 70
     0
 10
0.0
 20
0.0
 30
0.0
  3
*MODEL_SPACE
  1

  0
ENDBLK
  5
21
330
1F
100
AcDbEntity
  8
0
100
AcDbBlockEnd
  0
BLOCK
  5
1C
330
1B
100
AcDbEntity
 67
     1
  8
0
100
AcDbBlockBegin
  2
*PAPER_SPACE
  1

  0
ENDBLK
  5
1D
330
1B
100
AcDbEntity
 67
     1
  8
0
100
AcDbBlockEnd
  0
ENDSEC
  0
SECTION
  2
ENTITIES
  0
SPLINE
  5
100
100
AcDbEntity
  8
Layer_1
 62
7
100
AcDbSpline
 70
8
 71
3
 72
8
 73
4
 74
0
 40
0
 40
0
 40
0
 40
0
 40
1
 40
1
 40
1
 40
1
 10
203.266296
 20
447.186004
 30
0.0
 10
203.254296
 20
437.754404
 30
0.0
 10
210.920456
 20
430.088164
 30
0.0
 10
220.364136
 20
430.088164
 30
0.0
  0
SPLINE
  5
101
100
AcDbEntity
  8
Layer_1
 62
7
100
AcDbSpline
 70
8
 71
3
 72
8
 73
4
 74
0
 40
0
 40
0
 40
0
 40
0
 40
1
 40
1
 40
1
 40
1
 10
195.745176
 20
386.291532
 30
0.0
 10
189.070536
 20
379.616892
 30
0.0
 10
189.064456
 20
368.788636
 30
0.0
 10
195.745176
 20
362.107900
 30
0.0
  0
SPLINE
  5
102
100
AcDbEntity
  8
Layer_1
 62
7
100
AcDbSpline
 70
8
 71
3
 72
8
 73
4
 74
0
 40
0
 40
0
 40
0
 40
0
 40
1
 40
1
 40
1
 40
1
 10
195.745176
 20
362.107900
 30
0.0
 10
202.419896
 20
355.433220
 30
0.0
 10
213.254216
 20
355.433252
 30
0.0
 10
219.928856
 20
362.107884
 30
0.0
  0
LWPOLYLINE
  5
103
100
AcDbEntity
  8
Layer_1
 62
7
100
AcDbPolyline
 90
3
 70
0
 10
220.364136
 20
430.088164
 30
0.0
 10
239.541816
 20
430.088164
 30
0.0
 10
195.745176
 20
386.291532
 30
0.0
  0
SPLINE
  5
104
100
AcDbEntity
  8
Layer_1
 62
7
100
AcDbSpline
 70
8
 71
3
 72
8
 73
4
 74
0
 40
0
 40
0
 40
0
 40
0
 40
1
 40
1
 40
1
 40
1
 10
263.725416
 20
386.726860
 30
0.0
 10
263.713416
 20
377.295260
 30
0.0
 10
271.379576
 20
369.629044
 30
0.0
 10
280.823256
 20
369.629020
 30
0.0
  0
SPLINE
  5
105
100
AcDbEntity
  8
Layer_1
 62
7
100
AcDbSpline
 70
8
 71
3
 72
8
 73
4
 74
0
 40
0
 40
0
 40
0
 40
0
 40
1
 40
1
 40
1
 40
1
 10
280.823256
 20
369.629020
 30
0.0
 10
285.551176
 20
369.629012
 30
0.0
 10
289.819576
 20
371.539548
 30
0.0
 10
292.915096
 20
374.635036
 30
0.0
  0
SPLINE
  5
106
100
AcDbEntity
  8
Layer_1
 62
7
100
AcDbSpline
 70
8
 71
3
 72
8
 73
4
 74
0
 40
0
 40
0
 40
0
 40
0
 40
1
 40
1
 40
1
 40
1
 10
292.915096
 20
374.635036
 30
0.0
 10
296.010616
 20
377.730524
 30
0.0
 10
297.921096
 20
381.998972
 30
0.0
 10
297.921096
 20
386.726860
 30
0.0
  0
LWPOLYLINE
  5
107
100
AcDbEntity
  8
Layer_1
 62
7
100
AcDbPolyline
 90
3
 70
0
 10
219.928856
 20
362.107884
 30
0.0
 10
263.725416
 20
405.904492
 30
0.0
 10
263.725416
 20
386.726860
 30
0.0
  0
SPLINE
  5
108
100
AcDbEntity
  8
Layer_1
 62
7
100
AcDbSpline
 70
8
 71
3
 72
8
 73
4
 74
0
 40
0
 40
0
 40
0
 40
0
 40
1
 40
1
 40
1
 40
1
 10
220.364136
 20
464.283844
 30
0.0
 10
210.920456
 20
464.283844
 30
0.0
 10
203.266296
 20
456.629764
 30
0.0
 10
203.266296
 20
447.186004
 30
0.0
  0
LWPOLYLINE
  5
109
100
AcDbEntity
  8
Layer_1
 62
7
100
AcDbPolyline
 90
3
 70
0
 10
297.921096
 20
386.726860
 30
0.0
 10
297.921096
 20
464.283844
 30
0.0
 10
220.364136
 20
464.283844
 30
0.0
  0
SPLINE
  5
10a
100
AcDbEntity
  8
Layer_1
 62
7
100
AcDbSpline
 70
8
 71
3
 72
8
 73
4
 74
0
 40
0
 40
0
 40
0
 40
0
 40
1
 40
1
 40
1
 40
1
 10
411.336936
 20
446.611044
 30
0.0
 10
411.348936
 20
437.179444
 30
0.0
 10
403.682776
 20
429.513284
 30
0.0
 10
394.239096
 20
429.513204
 30
0.0
  0
LWPOLYLINE
  5
10b
100
AcDbEntity
  8
Layer_1
 62
7
100
AcDbPolyline
 90
2
 70
0
 10
203.266296
 20
447.186004
 30
0.0
 10
203.266296
 20
447.186004
 30
0.0
  0
SPLINE
  5
10c
100
AcDbEntity
  8
Layer_1
 62
7
100
AcDbSpline
 70
8
 71
3
 72
8
 73
4
 74
0
 40
0
 40
0
 40
0
 40
0
 40
1
 40
1
 40
1
 40
1
 10
418.858056
 20
385.716620
 30
0.0
 10
425.532696
 20
379.041980
 30
0.0
 10
425.538776
 20
368.213724
 30
0.0
 10
418.858056
 20
361.532988
 30
0.0
  0
SPLINE
  5
10d
100
AcDbEntity
  8
Layer_1
 62
7
100
AcDbSpline
 70
8
 71
3
 72
8
 73
4
 74
0
 40
0
 40
0
 40
0
 40
0
 40
1
 40
1
 40
1
 40
1
 10
418.858056
 20
361.532988
 30
0.0
 10
412.183336
 20
354.858308
 30
0.0
 10
401.349016
 20
354.858340
 30
0.0
 10
394.674376
 20
361.532972
 30
0.0
  0
LWPOLYLINE
  5
10e
100
AcDbEntity
  8
Layer_1
 62
7
100
AcDbPolyline
 90
3
 70
0
 10
394.239096
 20
429.513204
 30
0.0
 10
375.061416
 20
429.513204
 30
0.0
 10
418.858056
 20
385.716620
 30
0.0
  0
SPLINE
  5
10f
100
AcDbEntity
  8
Layer_1
 62
7
100
AcDbSpline
 70
8
 71
3
 72
8
 73
4
 74
0
 40
0
 40
0
 40
0
 40
0
 40
1
 40
1
 40
1
 40
1
 10
350.877816
 20
386.151948
 30
0.0
 10
350.889816
 20
376.720348
 30
0.0
 10
343.223656
 20
369.054132
 30
0.0
 10
333.779976
 20
369.054108
 30
0.0
  0
SPLINE
  5
110
100
AcDbEntity
  8
Layer_1
 62
7
100
AcDbSpline
 70
8
 71
3
 72
8
 73
4
 74
0
 40
0
 40
0
 40
0
 40
0
 40
1
 40
1
 40
1
 40
1
 10
333.779976
 20
369.054108
 30
0.0
 10
329.052056
 20
369.054100
 30
0.0
 10
324.783656
 20
370.964636
 30
0.0
 10
321.688136
 20
374.060124
 30
0.0
  0
SPLINE
  5
111
100
AcDbEntity
  8
Layer_1
 62
7
100
AcDbSpline
 70
8
 71
3
 72
8
 73
4
 74
0
 40
0
 40
0
 40
0
 40
0
 40
1
 40
1
 40
1
 40
1
 10
321.688136
 20
374.060124
 30
0.0
 10
318.592616
 20
377.155612
 30
0.0
 10
316.682136
 20
381.424060
 30
0.0
 10
316.682136
 20
386.151948
 30
0.0
  0
LWPOLYLINE
  5
112
100
AcDbEntity
  8
Layer_1
 62
7
100
AcDbPolyline
 90
3
 70
0
 10
394.674376
 20
361.532972
 30
0.0
 10
350.877816
 20
405.329580
 30
0.0
 10
350.877816
 20
386.151948
 30
0.0
  0
SPLINE
  5
113
100
AcDbEntity
  8
Layer_1
 62
7
100
AcDbSpline
 70
8
 71
3
 72
8
 73
4
 74
0
 40
0
 40
0
 40
0
 40
0
 40
1
 40
1
 40
1
 40
1
 10
394.239096
 20
463.708884
 30
0.0
 10
403.682776
 20
463.708964
 30
0.0
 10
411.336936
 20
456.054804
 30
0.0
 10
411.336936
 20
446.611044
 30
0.0
  0
LWPOLYLINE
  5
114
100
AcDbEntity
  8
Layer_1
 62
7
100
AcDbPolyline
 90
3
 70
0
 10
316.682136
 20
386.151948
 30
0.0
 10
316.682136
 20
463.708884
 30
0.0
 10
394.239096
 20
463.708884
 30
0.0
  0
SPLINE
  5
115
100
AcDbEntity
  8
Layer_1
 62
7
100
AcDbSpline
 70
8
 71
3
 72
8
 73
4
 74
0
 40
0
 40
0
 40
0
 40
0
 40
1
 40
1
 40
1
 40
1
 10
322.738056
 20
564.801364
 30
0.0
 10
322.726056
 20
555.369764
 30
0.0
 10
330.392216
 20
547.703604
 30
0.0
 10
339.835896
 20
547.703524
 30
0.0
  0
LWPOLYLINE
  5
116
100
AcDbEntity
  8
Layer_1
 62
7
100
AcDbPolyline
 90
2
 70
0
 10
411.336936
 20
446.611044
 30
0.0
 10
411.336936
 20
446.611044
 30
0.0
  0
SPLINE
  5
117
100
AcDbEntity
  8
Layer_1
 62
7
100
AcDbSpline
 70
8
 71
3
 72
8
 73
4
 74
0
 40
0
 40
0
 40
0
 40
0
 40
1
 40
1
 40
1
 40
1
 10
315.216936
 20
503.906964
 30
0.0
 10
308.542296
 20
497.232324
 30
0.0
 10
308.536216
 20
486.404084
 30
0.0
 10
315.216936
 20
479.723284
 30
0.0
  0
SPLINE
  5
118
100
AcDbEntity
  8
Layer_1
 62
7
100
AcDbSpline
 70
8
 71
3
 72
8
 73
4
 74
0
 40
0
 40
0
 40
0
 40
0
 40
1
 40
1
 40
1
 40
1
 10
315.216936
 20
479.723284
 30
0.0
 10
321.891656
 20
473.048644
 30
0.0
 10
332.725976
 20
473.048644
 30
0.0
 10
339.400616
 20
479.723284
 30
0.0
  0
LWPOLYLINE
  5
119
100
AcDbEntity
  8
Layer_1
 62
7
100
AcDbPolyline
 90
3
 70
0
 10
339.835896
 20
547.703524
 30
0.0
 10
359.013576
 20
547.703524
 30
0.0
 10
315.216936
 20
503.906964
 30
0.0
  0
SPLINE
  5
11a
100
AcDbEntity
  8
Layer_1
 62
7
100
AcDbSpline
 70
8
 71
3
 72
8
 73
4
 74
0
 40
0
 40
0
 40
0
 40
0
 40
1
 40
1
 40
1
 40
1
 10
383.197176
 20
504.342244
 30
0.0
 10
383.185176
 20
494.910644
 30
0.0
 10
390.851336
 20
487.244484
 30
0.0
 10
400.295016
 20
487.244404
 30
0.0
  0
SPLINE
  5
11b
100
AcDbEntity
  8
Layer_1
 62
7
100
AcDbSpline
 70
8
 71
3
 72
8
 73
4
 74
0
 40
0
 40
0
 40
0
 40
0
 40
1
 40
1
 40
1
 40
1
 10
400.295016
 20
487.244404
 30
0.0
 10
405.022936
 20
487.244404
 30
0.0
 10
409.291336
 20
489.154964
 30
0.0
 10
412.386856
 20
492.250484
 30
0.0
  0
SPLINE
  5
11c
100
AcDbEntity
  8
Layer_1
 62
7
100
AcDbSpline
 70
8
 71
3
 72
8
 73
4
 74
0
 40
0
 40
0
 40
0
 40
0
 40
1
 40
1
 40
1
 40
1
 10
412.386856
 20
492.250484
 30
0.0
 10
415.482376
 20
495.345924
 30
0.0
 10
417.392856
 20
499.614404
 30
0.0
 10
417.392856
 20
504.342244
 30
0.0
  0
LWPOLYLINE
  5
11d
100
AcDbEntity
  8
Layer_1
 62
7
100
AcDbPolyline
 90
3
 70
0
 10
339.400616
 20
479.723284
 30
0.0
 10
383.197176
 20
523.519924
 30
0.0
 10
383.197176
 20
504.342244
 30
0.0
  0
SPLINE
  5
11e
100
AcDbEntity
  8
Layer_1
 62
7
100
AcDbSpline
 70
8
 71
3
 72
8
 73
4
 74
0
 40
0
 40
0
 40
0
 40
0
 40
1
 40
1
 40
1
 40
1
 10
339.835896
 20
581.899204
 30
0.0
 10
330.392216
 20
581.899284
 30
0.0
 10
322.738056
 20
574.245124
 30
0.0
 10
322.738056
 20
564.801364
 30
0.0
  0
LWPOLYLINE
  5
11f
100
AcDbEntity
  8
Layer_1
 62
7
100
AcDbPolyline
 90
3
 70
0
 10
417.392856
 20
504.342244
 30
0.0
 10
417.392856
 20
581.899204
 30
0.0
 10
339.835896
 20
581.899204
 30
0.0
  0
SPLINE
  5
120
100
AcDbEntity
  8
Layer_1
 62
7
100
AcDbSpline
 70
8
 71
3
 72
8
 73
4
 74
0
 40
0
 40
0
 40
0
 40
0
 40
1
 40
1
 40
1
 40
1
 10
204.466616
 20
497.717124
 30
0.0
 10
204.454616
 20
507.148724
 30
0.0
 10
212.120776
 20
514.814884
 30
0.0
 10
221.564456
 20
514.814964
 30
0.0
  0
LWPOLYLINE
  5
121
100
AcDbEntity
  8
Layer_1
 62
7
100
AcDbPolyline
 90
2
 70
0
 10
322.738056
 20
564.801364
 30
0.0
 10
322.738056
 20
564.801364
 30
0.0
  0
SPLINE
  5
122
100
AcDbEntity
  8
Layer_1
 62
7
100
AcDbSpline
 70
8
 71
3
 72
8
 73
4
 74
0
 40
0
 40
0
 40
0
 40
0
 40
1
 40
1
 40
1
 40
1
 10
196.945496
 20
558.611524
 30
0.0
 10
190.270856
 20
565.286164
 30
0.0
 10
190.264776
 20
576.114484
 30
0.0
 10
196.945496
 20
582.795204
 30
0.0
  0
SPLINE
  5
123
100
AcDbEntity
  8
Layer_1
 62
7
100
AcDbSpline
 70
8
 71
3
 72
8
 73
4
 74
0
 40
0
 40
0
 40
0
 40
0
 40
1
 40
1
 40
1
 40
1
 10
196.945496
 20
582.795204
 30
0.0
 10
203.620216
 20
589.469844
 30
0.0
 10
214.454536
 20
589.469844
 30
0.0
 10
221.129176
 20
582.795204
 30
0.0
  0
LWPOLYLINE
  5
124
100
AcDbEntity
  8
Layer_1
 62
7
100
AcDbPolyline
 90
3
 70
0
 10
221.564456
 20
514.814964
 30
0.0
 10
240.742136
 20
514.814964
 30
0.0
 10
196.945496
 20
558.611524
 30
0.0
  0
SPLINE
  5
125
100
AcDbEntity
  8
Layer_1
 62
7
100
AcDbSpline
 70
8
 71
3
 72
8
 73
4
 74
0
 40
0
 40
0
 40
0
 40
0
 40
1
 40
1
 40
1
 40
1
 10
264.925736
 20
558.176244
 30
0.0
 10
264.913736
 20
567.607844
 30
0.0
 10
272.579896
 20
575.274004
 30
0.0
 10
282.023576
 20
575.274084
 30
0.0
  0
SPLINE
  5
126
100
AcDbEntity
  8
Layer_1
 62
7
100
AcDbSpline
 70
8
 71
3
 72
8
 73
4
 74
0
 40
0
 40
0
 40
0
 40
0
 40
1
 40
1
 40
1
 40
1
 10
282.023576
 20
575.274084
 30
0.0
 10
286.751496
 20
575.274084
 30
0.0
 10
291.019896
 20
573.363524
 30
0.0
 10
294.115416
 20
570.268084
 30
0.0
  0
SPLINE
  5
127
100
AcDbEntity
  8
Layer_1
 62
7
100
AcDbSpline
 70
8
 71
3
 72
8
 73
4
 74
0
 40
0
 40
0
 40
0
 40
0
 40
1
 40
1
 40
1
 40
1
 10
294.115416
 20
570.268084
 30
0.0
 10
297.210936
 20
567.172564
 30
0.0
 10
299.121416
 20
562.904084
 30
0.0
 10
299.121416
 20
558.176244
 30
0.0
  0
LWPOLYLINE
  5
128
100
AcDbEntity
  8
Layer_1
 62
7
100
AcDbPolyline
 90
3
 70
0
 10
221.129176
 20
582.795204
 30
0.0
 10
264.925736
 20
538.998564
 30
0.0
 10
264.925736
 20
558.176244
 30
0.0
  0
SPLINE
  5
129
100
AcDbEntity
  8
Layer_1
 62
7
100
AcDbSpline
 70
8
 71
3
 72
8
 73
4
 74
0
 40
0
 40
0
 40
0
 40
0
 40
1
 40
1
 40
1
 40
1
 10
221.564456
 20
480.619284
 30
0.0
 10
212.120776
 20
480.619204
 30
0.0
 10
204.466616
 20
488.273364
 30
0.0
 10
204.466616
 20
497.717124
 30
0.0
  0
LWPOLYLINE
  5
12a
100
AcDbEntity
  8
Layer_1
 62
7
100
AcDbPolyline
 90
3
 70
0
 10
299.121416
 20
558.176244
 30
0.0
 10
299.121416
 20
480.619284
 30
0.0
 10
221.564456
 20
480.619284
 30
0.0
  0
LWPOLYLINE
  5
12b
100
AcDbEntity
  8
Layer_1
 62
7
100
AcDbPolyline
 90
2
 70
0
 10
204.466616
 20
497.717124
 30
0.0
 10
204.466616
 20
497.717124
 30
0.0
  0
SPLINE
  5
12c
100
AcDbEntity
  8
Layer_1
 62
7
100
AcDbSpline
 70
8
 71
3
 72
8
 73
4
 74
0
 40
0
 40
0
 40
0
 40
0
 40
1
 40
1
 40
1
 40
1
 10
189.059720
 20
343.900844
 30
0.0
 10
189.554496
 20
342.182060
 30
0.0
 10
189.801896
 20
340.437268
 30
0.0
 10
189.801904
 20
338.666476
 30
0.0
  0
LWPOLYLINE
  5
12d
100
AcDbEntity
  8
Layer_1
 62
7
100
AcDbPolyline
 90
2
 70
0
 10
185.309720
 20
343.900844
 30
0.0
 10
189.059720
 20
343.900844
 30
0.0
  0
SPLINE
  5
12e
100
AcDbEntity
  8
Layer_1
 62
7
100
AcDbSpline
 70
8
 71
3
 72
8
 73
4
 74
0
 40
0
 40
0
 40
0
 40
0
 40
1
 40
1
 40
1
 40
1
 10
189.801904
 20
333.744596
 30
0.0
 10
190.400848
 20
335.749772
 30
0.0
 10
191.794080
 20
337.833108
 30
0.0
 10
193.981592
 20
339.994596
 30
0.0
  0
SPLINE
  5
12f
100
AcDbEntity
  8
Layer_1
 62
7
100
AcDbSpline
 70
8
 71
3
 72
8
 73
4
 74
0
 40
0
 40
0
 40
0
 40
0
 40
1
 40
1
 40
1
 40
1
 10
193.981592
 20
339.994596
 30
0.0
 10
196.169072
 20
342.156020
 30
0.0
 10
198.369592
 20
343.666436
 30
0.0
 10
200.583152
 20
344.525844
 30
0.0
  0
LWPOLYLINE
  5
130
100
AcDbEntity
  8
Layer_1
 62
7
100
AcDbPolyline
 90
2
 70
0
 10
189.801904
 20
338.666476
 30
0.0
 10
189.801904
 20
333.744596
 30
0.0
  0
SPLINE
  5
131
100
AcDbEntity
  8
Layer_1
 62
7
100
AcDbSpline
 70
8
 71
3
 72
8
 73
4
 74
0
 40
0
 40
0
 40
0
 40
0
 40
1
 40
1
 40
1
 40
1
 10
204.489408
 20
341.752412
 30
0.0
 10
202.197712
 20
341.752372
 30
0.0
 10
199.906048
 20
340.945084
 30
0.0
 10
197.614408
 20
339.330532
 30
0.0
  0
SPLINE
  5
132
100
AcDbEntity
  8
Layer_1
 62
7
100
AcDbSpline
 70
8
 71
3
 72
8
 73
4
 74
0
 40
0
 40
0
 40
0
 40
0
 40
1
 40
1
 40
1
 40
1
 10
197.614408
 20
339.330532
 30
0.0
 10
195.348760
 20
337.715916
 30
0.0
 10
193.473768
 20
335.567484
 30
0.0
 10
191.989408
 20
332.885220
 30
0.0
  0
SPLINE
  5
133
100
AcDbEntity
  8
Layer_1
 62
7
100
AcDbSpline
 70
8
 71
3
 72
8
 73
4
 74
0
 40
0
 40
0
 40
0
 40
0
 40
1
 40
1
 40
1
 40
1
 10
191.989408
 20
332.885220
 30
0.0
 10
190.531064
 20
330.228948
 30
0.0
 10
189.801896
 20
327.481556
 30
0.0
 10
189.801904
 20
324.643036
 30
0.0
  0
LWPOLYLINE
  5
134
100
AcDbEntity
  8
Layer_1
 62
7
100
AcDbPolyline
 90
2
 70
0
 10
200.583152
 20
344.525844
 30
0.0
 10
204.489408
 20
341.752412
 30
0.0
  0
SPLINE
  5
135
100
AcDbEntity
  8
Layer_1
 62
7
100
AcDbSpline
 70
8
 71
3
 72
8
 73
4
 74
0
 40
0
 40
0
 40
0
 40
0
 40
1
 40
1
 40
1
 40
1
 10
186.286280
 20
338.666476
 30
0.0
 10
186.286272
 20
340.906020
 30
0.0
 10
185.960752
 20
342.650812
 30
0.0
 10
185.309720
 20
343.900844
 30
0.0
  0
LWPOLYLINE
  5
136
100
AcDbEntity
  8
Layer_1
 62
7
100
AcDbPolyline
 90
4
 70
0
 10
189.801904
 20
324.643036
 30
0.0
 10
189.801904
 20
304.291476
 30
0.0
 10
186.286280
 20
304.291476
 30
0.0
 10
186.286280
 20
338.666476
 30
0.0
  0
SPLINE
  5
137
100
AcDbEntity
  8
Layer_1
 62
7
100
AcDbSpline
 70
8
 71
3
 72
8
 73
4
 74
0
 40
0
 40
0
 40
0
 40
0
 40
1
 40
1
 40
1
 40
1
 10
242.497216
 20
327.455532
 30
0.0
 10
241.768016
 20
331.387804
 30
0.0
 10
240.049264
 20
334.629988
 30
0.0
 10
237.340968
 20
337.182100
 30
0.0
  0
SPLINE
  5
138
100
AcDbEntity
  8
Layer_1
 62
7
100
AcDbSpline
 70
8
 71
3
 72
8
 73
4
 74
0
 40
0
 40
0
 40
0
 40
0
 40
1
 40
1
 40
1
 40
1
 10
237.340968
 20
337.182100
 30
0.0
 10
234.632600
 20
339.734148
 30
0.0
 10
231.533648
 20
341.010188
 30
0.0
 10
228.044088
 20
341.010220
 30
0.0
  0
SPLINE
  5
139
100
AcDbEntity
  8
Layer_1
 62
7
100
AcDbSpline
 70
8
 71
3
 72
8
 73
4
 74
0
 40
0
 40
0
 40
0
 40
0
 40
1
 40
1
 40
1
 40
1
 10
228.044088
 20
341.010220
 30
0.0
 10
224.580528
 20
341.010188
 30
0.0
 10
221.494600
 20
339.734148
 30
0.0
 10
218.786280
 20
337.182100
 30
0.0
  0
SPLINE
  5
13a
100
AcDbEntity
  8
Layer_1
 62
7
100
AcDbSpline
 70
8
 71
3
 72
8
 73
4
 74
0
 40
0
 40
0
 40
0
 40
0
 40
1
 40
1
 40
1
 40
1
 10
218.786280
 20
337.182100
 30
0.0
 10
216.103976
 20
334.629988
 30
0.0
 10
214.411272
 20
331.387804
 30
0.0
 10
213.708152
 20
327.455532
 30
0.0
  0
LWPOLYLINE
  5
13b
100
AcDbEntity
  8
Layer_1
 62
7
100
AcDbPolyline
 90
2
 70
0
 10
213.708152
 20
327.455532
 30
0.0
 10
242.497216
 20
327.455532
 30
0.0
  0
SPLINE
  5
13c
100
AcDbEntity
  8
Layer_1
 62
7
100
AcDbSpline
 70
8
 71
3
 72
8
 73
4
 74
0
 40
0
 40
0
 40
0
 40
0
 40
1
 40
1
 40
1
 40
1
 10
213.161280
 20
324.135220
 30
0.0
 10
213.161272
 20
319.473748
 30
0.0
 10
214.619600
 20
315.515420
 30
0.0
 10
217.536280
 20
312.260220
 30
0.0
  0
SPLINE
  5
13d
100
AcDbEntity
  8
Layer_1
 62
7
100
AcDbSpline
 70
8
 71
3
 72
8
 73
4
 74
0
 40
0
 40
0
 40
0
 40
0
 40
1
 40
1
 40
1
 40
1
 10
217.536280
 20
312.260220
 30
0.0
 10
220.452928
 20
309.005012
 30
0.0
 10
223.903448
 20
307.377404
 30
0.0
 10
227.887840
 20
307.377412
 30
0.0
  0
SPLINE
  5
13e
100
AcDbEntity
  8
Layer_1
 62
7
100
AcDbSpline
 70
8
 71
3
 72
8
 73
4
 74
0
 40
0
 40
0
 40
0
 40
0
 40
1
 40
1
 40
1
 40
1
 10
227.887840
 20
307.377412
 30
0.0
 10
230.518024
 20
307.377404
 30
0.0
 10
233.096144
 20
308.080532
 30
0.0
 10
235.622216
 20
309.486788
 30
0.0
  0
SPLINE
  5
13f
100
AcDbEntity
  8
Layer_1
 62
7
100
AcDbSpline
 70
8
 71
3
 72
8
 73
4
 74
0
 40
0
 40
0
 40
0
 40
0
 40
1
 40
1
 40
1
 40
1
 10
235.622216
 20
309.486788
 30
0.0
 10
238.148224
 20
310.893028
 30
0.0
 10
240.075304
 20
312.781044
 30
0.0
 10
241.403464
 20
315.150844
 30
0.0
  0
LWPOLYLINE
  5
140
100
AcDbEntity
  8
Layer_1
 62
7
100
AcDbPolyline
 90
2
 70
0
 10
246.325344
 20
324.135220
 30
0.0
 10
213.161280
 20
324.135220
 30
0.0
  0
SPLINE
  5
141
100
AcDbEntity
  8
Layer_1
 62
7
100
AcDbSpline
 70
8
 71
3
 72
8
 73
4
 74
0
 40
0
 40
0
 40
0
 40
0
 40
1
 40
1
 40
1
 40
1
 10
244.489408
 20
313.393036
 30
0.0
 10
242.900824
 20
310.554484
 30
0.0
 10
240.557080
 20
308.223764
 30
0.0
 10
237.458152
 20
306.400844
 30
0.0
  0
SPLINE
  5
142
100
AcDbEntity
  8
Layer_1
 62
7
100
AcDbSpline
 70
8
 71
3
 72
8
 73
4
 74
0
 40
0
 40
0
 40
0
 40
0
 40
1
 40
1
 40
1
 40
1
 10
237.458152
 20
306.400844
 30
0.0
 10
234.359168
 20
304.603972
 30
0.0
 10
231.169064
 20
303.705540
 30
0.0
 10
227.887840
 20
303.705532
 30
0.0
  0
SPLINE
  5
143
100
AcDbEntity
  8
Layer_1
 62
7
100
AcDbSpline
 70
8
 71
3
 72
8
 73
4
 74
0
 40
0
 40
0
 40
0
 40
0
 40
1
 40
1
 40
1
 40
1
 10
227.887840
 20
303.705532
 30
0.0
 10
224.580528
 20
303.705540
 30
0.0
 10
221.533656
 20
304.630012
 30
0.0
 10
218.747216
 20
306.478972
 30
0.0
  0
SPLINE
  5
144
100
AcDbEntity
  8
Layer_1
 62
7
100
AcDbSpline
 70
8
 71
3
 72
8
 73
4
 74
0
 40
0
 40
0
 40
0
 40
0
 40
1
 40
1
 40
1
 40
1
 10
218.747216
 20
306.478972
 30
0.0
 10
215.986792
 20
308.327924
 30
0.0
 10
213.812312
 20
310.814900
 30
0.0
 10
212.223776
 20
313.939908
 30
0.0
  0
SPLINE
  5
145
100
AcDbEntity
  8
Layer_1
 62
7
100
AcDbSpline
 70
8
 71
3
 72
8
 73
4
 74
0
 40
0
 40
0
 40
0
 40
0
 40
1
 40
1
 40
1
 40
1
 10
212.223776
 20
313.939908
 30
0.0
 10
210.661272
 20
317.090940
 30
0.0
 10
209.880024
 20
320.489372
 30
0.0
 10
209.880032
 20
324.135220
 30
0.0
  0
SPLINE
  5
146
100
AcDbEntity
  8
Layer_1
 62
7
100
AcDbSpline
 70
8
 71
3
 72
8
 73
4
 74
0
 40
0
 40
0
 40
0
 40
0
 40
1
 40
1
 40
1
 40
1
 10
209.880032
 20
324.135220
 30
0.0
 10
209.880024
 20
327.754988
 30
0.0
 10
210.674296
 20
331.127380
 30
0.0
 10
212.262840
 20
334.252412
 30
0.0
  0
SPLINE
  5
147
100
AcDbEntity
  8
Layer_1
 62
7
100
AcDbSpline
 70
8
 71
3
 72
8
 73
4
 74
0
 40
0
 40
0
 40
0
 40
0
 40
1
 40
1
 40
1
 40
1
 10
212.262840
 20
334.252412
 30
0.0
 10
213.877416
 20
337.377380
 30
0.0
 10
216.077936
 20
339.864356
 30
0.0
 10
218.864408
 20
341.713348
 30
0.0
  0
SPLINE
  5
148
100
AcDbEntity
  8
Layer_1
 62
7
100
AcDbSpline
 70
8
 71
3
 72
8
 73
4
 74
0
 40
0
 40
0
 40
0
 40
0
 40
1
 40
1
 40
1
 40
1
 10
218.864408
 20
341.713348
 30
0.0
 10
221.676888
 20
343.588308
 30
0.0
 10
224.736784
 20
344.525804
 30
0.0
 10
228.044088
 20
344.525844
 30
0.0
  0
SPLINE
  5
149
100
AcDbEntity
  8
Layer_1
 62
7
100
AcDbSpline
 70
8
 71
3
 72
8
 73
4
 74
0
 40
0
 40
0
 40
0
 40
0
 40
1
 40
1
 40
1
 40
1
 10
228.044088
 20
344.525844
 30
0.0
 10
231.169064
 20
344.525804
 30
0.0
 10
234.072712
 20
343.679452
 30
0.0
 10
236.755032
 20
341.986788
 30
0.0
  0
SPLINE
  5
14a
100
AcDbEntity
  8
Layer_1
 62
7
100
AcDbSpline
 70
8
 71
3
 72
8
 73
4
 74
0
 40
0
 40
0
 40
0
 40
0
 40
1
 40
1
 40
1
 40
1
 10
236.755032
 20
341.986788
 30
0.0
 10
239.463328
 20
340.320084
 30
0.0
 10
241.650824
 20
338.067484
 30
0.0
 10
243.317528
 20
335.228972
 30
0.0
  0
SPLINE
  5
14b
100
AcDbEntity
  8
Layer_1
 62
7
100
AcDbSpline
 70
8
 71
3
 72
8
 73
4
 74
0
 40
0
 40
0
 40
0
 40
0
 40
1
 40
1
 40
1
 40
1
 10
243.317528
 20
335.228972
 30
0.0
 10
244.984160
 20
332.390404
 30
0.0
 10
245.960720
 20
329.278428
 30
0.0
 10
246.247216
 20
325.893036
 30
0.0
  0
LWPOLYLINE
  5
14c
100
AcDbEntity
  8
Layer_1
 62
7
100
AcDbPolyline
 90
2
 70
0
 10
241.403464
 20
315.150844
 30
0.0
 10
244.489408
 20
313.393036
 30
0.0
  0
SPLINE
  5
14d
100
AcDbEntity
  8
Layer_1
 62
7
100
AcDbSpline
 70
8
 71
3
 72
8
 73
4
 74
0
 40
0
 40
0
 40
0
 40
0
 40
1
 40
1
 40
1
 40
1
 10
276.025000
 20
343.389764
 30
0.0
 10
277.873936
 20
342.608476
 30
0.0
 10
279.516640
 20
341.498060
 30
0.0
 10
280.975000
 20
340.039764
 30
0.0
  0
SPLINE
  5
14e
100
AcDbEntity
  8
Layer_1
 62
7
100
AcDbSpline
 70
8
 71
3
 72
8
 73
4
 74
0
 40
0
 40
0
 40
0
 40
0
 40
1
 40
1
 40
1
 40
1
 10
280.975000
 20
340.039764
 30
0.0
 10
282.433304
 20
338.607436
 30
0.0
 10
283.614544
 20
336.755356
 30
0.0
 10
284.500000
 20
334.489764
 30
0.0
  0
SPLINE
  5
14f
100
AcDbEntity
  8
Layer_1
 62
7
100
AcDbSpline
 70
8
 71
3
 72
8
 73
4
 74
0
 40
0
 40
0
 40
0
 40
0
 40
1
 40
1
 40
1
 40
1
 10
284.500000
 20
334.489764
 30
0.0
 10
285.411424
 20
332.224108
 30
0.0
 10
285.872840
 20
329.724108
 30
0.0
 10
285.925000
 20
326.989764
 30
0.0
  0
LWPOLYLINE
  5
150
100
AcDbEntity
  8
Layer_1
 62
7
100
AcDbPolyline
 90
2
 70
0
 10
246.247216
 20
325.893036
 30
0.0
 10
246.325376
 20
324.135220
 30
0.0
  0
SPLINE
  5
151
100
AcDbEntity
  8
Layer_1
 62
7
100
AcDbSpline
 70
8
 71
3
 72
8
 73
4
 74
0
 40
0
 40
0
 40
0
 40
0
 40
1
 40
1
 40
1
 40
1
 10
285.925000
 20
309.514764
 30
0.0
 10
285.924960
 20
307.249140
 30
0.0
 10
286.248920
 20
305.513716
 30
0.0
 10
286.900000
 20
304.289764
 30
0.0
  0
LWPOLYLINE
  5
152
100
AcDbEntity
  8
Layer_1
 62
7
100
AcDbPolyline
 90
2
 70
0
 10
285.925000
 20
326.989764
 30
0.0
 10
285.925000
 20
309.514764
 30
0.0
  0
SPLINE
  5
153
100
AcDbEntity
  8
Layer_1
 62
7
100
AcDbSpline
 70
8
 71
3
 72
8
 73
4
 74
0
 40
0
 40
0
 40
0
 40
0
 40
1
 40
1
 40
1
 40
1
 10
283.150000
 20
304.289764
 30
0.0
 10
282.681216
 20
305.774132
 30
0.0
 10
282.449968
 20
307.509556
 30
0.0
 10
282.450000
 20
309.514764
 30
0.0
  0
LWPOLYLINE
  5
154
100
AcDbEntity
  8
Layer_1
 62
7
100
AcDbPolyline
 90
2
 70
0
 10
286.900000
 20
304.289764
 30
0.0
 10
283.150000
 20
304.289764
 30
0.0
  0
SPLINE
  5
155
100
AcDbEntity
  8
Layer_1
 62
7
100
AcDbSpline
 70
8
 71
3
 72
8
 73
4
 74
0
 40
0
 40
0
 40
0
 40
0
 40
1
 40
1
 40
1
 40
1
 10
282.450000
 20
312.614764
 30
0.0
 10
280.574976
 20
310.010588
 30
0.0
 10
278.330176
 20
307.857468
 30
0.0
 10
275.700000
 20
306.164764
 30
0.0
  0
SPLINE
  5
156
100
AcDbEntity
  8
Layer_1
 62
7
100
AcDbSpline
 70
8
 71
3
 72
8
 73
4
 74
0
 40
0
 40
0
 40
0
 40
0
 40
1
 40
1
 40
1
 40
1
 10
275.700000
 20
306.164764
 30
0.0
 10
273.095808
 20
304.472052
 30
0.0
 10
270.341648
 20
303.639764
 30
0.0
 10
267.425000
 20
303.639764
 30
0.0
  0
SPLINE
  5
157
100
AcDbEntity
  8
Layer_1
 62
7
100
AcDbSpline
 70
8
 71
3
 72
8
 73
4
 74
0
 40
0
 40
0
 40
0
 40
0
 40
1
 40
1
 40
1
 40
1
 10
267.425000
 20
303.639764
 30
0.0
 10
265.315616
 20
303.639764
 30
0.0
 10
263.416648
 20
303.963724
 30
0.0
 10
261.750000
 20
304.614764
 30
0.0
  0
SPLINE
  5
158
100
AcDbEntity
  8
Layer_1
 62
7
100
AcDbSpline
 70
8
 71
3
 72
8
 73
4
 74
0
 40
0
 40
0
 40
0
 40
0
 40
1
 40
1
 40
1
 40
1
 10
261.750000
 20
304.614764
 30
0.0
 10
260.109360
 20
305.291844
 30
0.0
 10
258.813536
 20
306.171012
 30
0.0
 10
257.850000
 20
307.264764
 30
0.0
  0
SPLINE
  5
159
100
AcDbEntity
  8
Layer_1
 62
7
100
AcDbSpline
 70
8
 71
3
 72
8
 73
4
 74
0
 40
0
 40
0
 40
0
 40
0
 40
1
 40
1
 40
1
 40
1
 10
257.850000
 20
307.264764
 30
0.0
 10
256.886456
 20
308.358516
 30
0.0
 10
256.144784
 20
309.515796
 30
0.0
 10
255.650000
 20
310.739764
 30
0.0
  0
SPLINE
  5
15a
100
AcDbEntity
  8
Layer_1
 62
7
100
AcDbSpline
 70
8
 71
3
 72
8
 73
4
 74
0
 40
0
 40
0
 40
0
 40
0
 40
1
 40
1
 40
1
 40
1
 10
255.650000
 20
310.739764
 30
0.0
 10
255.155200
 20
311.989756
 30
0.0
 10
254.925000
 20
313.238716
 30
0.0
 10
254.925000
 20
314.514764
 30
0.0
  0
SPLINE
  5
15b
100
AcDbEntity
  8
Layer_1
 62
7
100
AcDbSpline
 70
8
 71
3
 72
8
 73
4
 74
0
 40
0
 40
0
 40
0
 40
0
 40
1
 40
1
 40
1
 40
1
 10
254.925000
 20
314.514764
 30
0.0
 10
254.925000
 20
315.842884
 30
0.0
 10
255.109368
 20
317.069956
 30
0.0
 10
255.500000
 20
318.189764
 30
0.0
  0
SPLINE
  5
15c
100
AcDbEntity
  8
Layer_1
 62
7
100
AcDbSpline
 70
8
 71
3
 72
8
 73
4
 74
0
 40
0
 40
0
 40
0
 40
0
 40
1
 40
1
 40
1
 40
1
 10
255.500000
 20
318.189764
 30
0.0
 10
255.916656
 20
319.309540
 30
0.0
 10
256.449992
 20
320.258500
 30
0.0
 10
257.075000
 20
321.039764
 30
0.0
  0
SPLINE
  5
15d
100
AcDbEntity
  8
Layer_1
 62
7
100
AcDbSpline
 70
8
 71
3
 72
8
 73
4
 74
0
 40
0
 40
0
 40
0
 40
0
 40
1
 40
1
 40
1
 40
1
 10
257.075000
 20
321.039764
 30
0.0
 10
257.726040
 20
321.847036
 30
0.0
 10
258.558328
 20
322.564748
 30
0.0
 10
259.600000
 20
323.189764
 30
0.0
  0
SPLINE
  5
15e
100
AcDbEntity
  8
Layer_1
 62
7
100
AcDbSpline
 70
8
 71
3
 72
8
 73
4
 74
0
 40
0
 40
0
 40
0
 40
0
 40
1
 40
1
 40
1
 40
1
 10
259.600000
 20
323.189764
 30
0.0
 10
260.667696
 20
323.840788
 30
0.0
 10
261.686448
 20
324.374124
 30
0.0
 10
262.650000
 20
324.764764
 30
0.0
  0
SPLINE
  5
15f
100
AcDbEntity
  8
Layer_1
 62
7
100
AcDbSpline
 70
8
 71
3
 72
8
 73
4
 74
0
 40
0
 40
0
 40
0
 40
0
 40
1
 40
1
 40
1
 40
1
 10
262.650000
 20
324.764764
 30
0.0
 10
263.639576
 20
325.181412
 30
0.0
 10
264.866648
 20
325.528284
 30
0.0
 10
266.325000
 20
325.814764
 30
0.0
  0
SPLINE
  5
160
100
AcDbEntity
  8
Layer_1
 62
7
100
AcDbSpline
 70
8
 71
3
 72
8
 73
4
 74
0
 40
0
 40
0
 40
0
 40
0
 40
1
 40
1
 40
1
 40
1
 10
266.325000
 20
325.814764
 30
0.0
 10
267.783312
 20
326.127244
 30
0.0
 10
269.057272
 20
326.359532
 30
0.0
 10
270.125000
 20
326.489764
 30
0.0
  0
SPLINE
  5
161
100
AcDbEntity
  8
Layer_1
 62
7
100
AcDbSpline
 70
8
 71
3
 72
8
 73
4
 74
0
 40
0
 40
0
 40
0
 40
0
 40
1
 40
1
 40
1
 40
1
 10
270.125000
 20
326.489764
 30
0.0
 10
271.192688
 20
326.645996
 30
0.0
 10
272.511440
 20
326.761604
 30
0.0
 10
274.100000
 20
326.839764
 30
0.0
  0
SPLINE
  5
162
100
AcDbEntity
  8
Layer_1
 62
7
100
AcDbSpline
 70
8
 71
3
 72
8
 73
4
 74
0
 40
0
 40
0
 40
0
 40
0
 40
1
 40
1
 40
1
 40
1
 10
274.100000
 20
326.839764
 30
0.0
 10
275.688520
 20
326.917844
 30
0.0
 10
276.938520
 20
326.939740
 30
0.0
 10
277.850000
 20
326.939764
 30
0.0
  0
SPLINE
  5
163
100
AcDbEntity
  8
Layer_1
 62
7
100
AcDbSpline
 70
8
 71
3
 72
8
 73
4
 74
0
 40
0
 40
0
 40
0
 40
0
 40
1
 40
1
 40
1
 40
1
 10
277.850000
 20
326.939764
 30
0.0
 10
278.787472
 20
326.965764
 30
0.0
 10
279.967680
 20
326.989764
 30
0.0
 10
281.400000
 20
326.989764
 30
0.0
  0
LWPOLYLINE
  5
164
100
AcDbEntity
  8
Layer_1
 62
7
100
AcDbPolyline
 90
2
 70
0
 10
282.450000
 20
309.514764
 30
0.0
 10
282.450000
 20
312.614764
 30
0.0
  0
SPLINE
  5
165
100
AcDbEntity
  8
Layer_1
 62
7
100
AcDbSpline
 70
8
 71
3
 72
8
 73
4
 74
0
 40
0
 40
0
 40
0
 40
0
 40
1
 40
1
 40
1
 40
1
 10
282.450000
 20
326.989764
 30
0.0
 10
282.319760
 20
331.286612
 30
0.0
 10
281.046840
 20
334.712652
 30
0.0
 10
278.625000
 20
337.264764
 30
0.0
  0
SPLINE
  5
166
100
AcDbEntity
  8
Layer_1
 62
7
100
AcDbSpline
 70
8
 71
3
 72
8
 73
4
 74
0
 40
0
 40
0
 40
0
 40
0
 40
1
 40
1
 40
1
 40
1
 10
278.625000
 20
337.264764
 30
0.0
 10
276.229136
 20
339.816812
 30
0.0
 10
273.451016
 20
341.089724
 30
0.0
 10
270.300000
 20
341.089764
 30
0.0
  0
SPLINE
  5
167
100
AcDbEntity
  8
Layer_1
 62
7
100
AcDbSpline
 70
8
 71
3
 72
8
 73
4
 74
0
 40
0
 40
0
 40
0
 40
0
 40
1
 40
1
 40
1
 40
1
 10
270.300000
 20
341.089764
 30
0.0
 10
268.451024
 20
341.089724
 30
0.0
 10
266.645816
 20
340.603268
 30
0.0
 10
264.875000
 20
339.639764
 30
0.0
  0
SPLINE
  5
168
100
AcDbEntity
  8
Layer_1
 62
7
100
AcDbSpline
 70
8
 71
3
 72
8
 73
4
 74
0
 40
0
 40
0
 40
0
 40
0
 40
1
 40
1
 40
1
 40
1
 10
264.875000
 20
339.639764
 30
0.0
 10
263.130192
 20
338.676188
 30
0.0
 10
261.602072
 20
337.263692
 30
0.0
 10
260.300000
 20
335.414764
 30
0.0
  0
LWPOLYLINE
  5
169
100
AcDbEntity
  8
Layer_1
 62
7
100
AcDbPolyline
 90
2
 70
0
 10
281.400000
 20
326.989764
 30
0.0
 10
282.450000
 20
326.989764
 30
0.0
  0
SPLINE
  5
16a
100
AcDbEntity
  8
Layer_1
 62
7
100
AcDbSpline
 70
8
 71
3
 72
8
 73
4
 74
0
 40
0
 40
0
 40
0
 40
0
 40
1
 40
1
 40
1
 40
1
 10
257.525000
 20
337.264764
 30
0.0
 10
259.113536
 20
339.712652
 30
0.0
 10
261.035408
 20
341.540764
 30
0.0
 10
263.275000
 20
342.764764
 30
0.0
  0
SPLINE
  5
16b
100
AcDbEntity
  8
Layer_1
 62
7
100
AcDbSpline
 70
8
 71
3
 72
8
 73
4
 74
0
 40
0
 40
0
 40
0
 40
0
 40
1
 40
1
 40
1
 40
1
 10
263.275000
 20
342.764764
 30
0.0
 10
265.514568
 20
343.988684
 30
0.0
 10
267.852064
 20
344.614724
 30
0.0
 10
270.300000
 20
344.614764
 30
0.0
  0
SPLINE
  5
16c
100
AcDbEntity
  8
Layer_1
 62
7
100
AcDbSpline
 70
8
 71
3
 72
8
 73
4
 74
0
 40
0
 40
0
 40
0
 40
0
 40
1
 40
1
 40
1
 40
1
 10
270.300000
 20
344.614764
 30
0.0
 10
272.279144
 20
344.614724
 30
0.0
 10
274.202064
 20
344.197012
 30
0.0
 10
276.025000
 20
343.389764
 30
0.0
  0
LWPOLYLINE
  5
16d
100
AcDbEntity
  8
Layer_1
 62
7
100
AcDbPolyline
 90
2
 70
0
 10
260.300000
 20
335.414764
 30
0.0
 10
257.525000
 20
337.264764
 30
0.0
  0
SPLINE
  5
16e
100
AcDbEntity
  8
Layer_1
 62
7
100
AcDbSpline
 70
8
 71
3
 72
8
 73
4
 74
0
 40
0
 40
0
 40
0
 40
0
 40
1
 40
1
 40
1
 40
1
 10
279.375000
 20
324.414764
 30
0.0
 10
278.567680
 20
324.388684
 30
0.0
 10
277.457264
 20
324.318908
 30
0.0
 10
276.025000
 20
324.214764
 30
0.0
  0
SPLINE
  5
16f
100
AcDbEntity
  8
Layer_1
 62
7
100
AcDbSpline
 70
8
 71
3
 72
8
 73
4
 74
0
 40
0
 40
0
 40
0
 40
0
 40
1
 40
1
 40
1
 40
1
 10
276.025000
 20
324.214764
 30
0.0
 10
274.618728
 20
324.136604
 30
0.0
 10
273.414568
 20
324.019956
 30
0.0
 10
272.425000
 20
323.889764
 30
0.0
  0
SPLINE
  5
170
100
AcDbEntity
  8
Layer_1
 62
7
100
AcDbSpline
 70
8
 71
3
 72
8
 73
4
 74
0
 40
0
 40
0
 40
0
 40
0
 40
1
 40
1
 40
1
 40
1
 10
272.425000
 20
323.889764
 30
0.0
 10
271.435400
 20
323.785580
 30
0.0
 10
270.278104
 20
323.625164
 30
0.0
 10
268.950000
 20
323.364764
 30
0.0
  0
SPLINE
  5
171
100
AcDbEntity
  8
Layer_1
 62
7
100
AcDbSpline
 70
8
 71
3
 72
8
 73
4
 74
0
 40
0
 40
0
 40
0
 40
0
 40
1
 40
1
 40
1
 40
1
 10
268.950000
 20
323.364764
 30
0.0
 10
267.647904
 20
323.104332
 30
0.0
 10
266.536440
 20
322.803292
 30
0.0
 10
265.625000
 20
322.464764
 30
0.0
  0
SPLINE
  5
172
100
AcDbEntity
  8
Layer_1
 62
7
100
AcDbSpline
 70
8
 71
3
 72
8
 73
4
 74
0
 40
0
 40
0
 40
0
 40
0
 40
1
 40
1
 40
1
 40
1
 10
265.625000
 20
322.464764
 30
0.0
 10
264.713528
 20
322.152252
 30
0.0
 10
263.764568
 20
321.735580
 30
0.0
 10
262.775000
 20
321.214764
 30
0.0
  0
SPLINE
  5
173
100
AcDbEntity
  8
Layer_1
 62
7
100
AcDbSpline
 70
8
 71
3
 72
8
 73
4
 74
0
 40
0
 40
0
 40
0
 40
0
 40
1
 40
1
 40
1
 40
1
 10
262.775000
 20
321.214764
 30
0.0
 10
261.811448
 20
320.719956
 30
0.0
 10
261.030496
 20
320.133420
 30
0.0
 10
260.425000
 20
319.514764
 30
0.0
  0
SPLINE
  5
174
100
AcDbEntity
  8
Layer_1
 62
7
100
AcDbSpline
 70
8
 71
3
 72
8
 73
4
 74
0
 40
0
 40
0
 40
0
 40
0
 40
1
 40
1
 40
1
 40
1
 10
260.425000
 20
319.514764
 30
0.0
 10
259.832504
 20
318.909388
 30
0.0
 10
259.340616
 20
318.199124
 30
0.0
 10
258.950000
 20
317.339764
 30
0.0
  0
SPLINE
  5
175
100
AcDbEntity
  8
Layer_1
 62
7
100
AcDbSpline
 70
8
 71
3
 72
8
 73
4
 74
0
 40
0
 40
0
 40
0
 40
0
 40
1
 40
1
 40
1
 40
1
 10
258.950000
 20
317.339764
 30
0.0
 10
258.585408
 20
316.480380
 30
0.0
 10
258.399992
 20
315.530380
 30
0.0
 10
258.400000
 20
314.514764
 30
0.0
  0
SPLINE
  5
176
100
AcDbEntity
  8
Layer_1
 62
7
100
AcDbSpline
 70
8
 71
3
 72
8
 73
4
 74
0
 40
0
 40
0
 40
0
 40
0
 40
1
 40
1
 40
1
 40
1
 10
258.400000
 20
314.514764
 30
0.0
 10
258.399992
 20
312.639756
 30
0.0
 10
259.187488
 20
310.951220
 30
0.0
 10
260.750000
 20
309.414764
 30
0.0
  0
SPLINE
  5
177
100
AcDbEntity
  8
Layer_1
 62
7
100
AcDbSpline
 70
8
 71
3
 72
8
 73
4
 74
0
 40
0
 40
0
 40
0
 40
0
 40
1
 40
1
 40
1
 40
1
 10
260.750000
 20
309.414764
 30
0.0
 10
262.312488
 20
307.878300
 30
0.0
 10
264.534368
 20
307.114764
 30
0.0
 10
267.425000
 20
307.114764
 30
0.0
  0
SPLINE
  5
178
100
AcDbEntity
  8
Layer_1
 62
7
100
AcDbSpline
 70
8
 71
3
 72
8
 73
4
 74
0
 40
0
 40
0
 40
0
 40
0
 40
1
 40
1
 40
1
 40
1
 10
267.425000
 20
307.114764
 30
0.0
 10
270.419776
 20
307.114764
 30
0.0
 10
273.312472
 20
308.109548
 30
0.0
 10
276.125000
 20
310.114764
 30
0.0
  0
SPLINE
  5
179
100
AcDbEntity
  8
Layer_1
 62
7
100
AcDbSpline
 70
8
 71
3
 72
8
 73
4
 74
0
 40
0
 40
0
 40
0
 40
0
 40
1
 40
1
 40
1
 40
1
 10
276.125000
 20
310.114764
 30
0.0
 10
278.937472
 20
312.119964
 30
0.0
 10
281.043720
 20
314.411628
 30
0.0
 10
282.450000
 20
316.989764
 30
0.0
  0
LWPOLYLINE
  5
17a
100
AcDbEntity
  8
Layer_1
 62
7
100
AcDbPolyline
 90
2
 70
0
 10
276.025000
 20
343.389764
 30
0.0
 10
276.025000
 20
343.389764
 30
0.0
  0
SPLINE
  5
17b
100
AcDbEntity
  8
Layer_1
 62
7
100
AcDbSpline
 70
8
 71
3
 72
8
 73
4
 74
0
 40
0
 40
0
 40
0
 40
0
 40
1
 40
1
 40
1
 40
1
 10
282.450000
 20
324.489764
 30
0.0
 10
281.226016
 20
324.463684
 30
0.0
 10
280.208304
 20
324.440884
 30
0.0
 10
279.375000
 20
324.414804
 30
0.0
  0
LWPOLYLINE
  5
17c
100
AcDbEntity
  8
Layer_1
 62
7
100
AcDbPolyline
 90
2
 70
0
 10
282.450000
 20
316.989764
 30
0.0
 10
282.450000
 20
324.489764
 30
0.0
  0
LWPOLYLINE
  5
17d
100
AcDbEntity
  8
Layer_1
 62
7
100
AcDbPolyline
 90
2
 70
0
 10
279.375000
 20
324.414804
 30
0.0
 10
279.375000
 20
324.414764
 30
0.0
  0
SPLINE
  5
17e
100
AcDbEntity
  8
Layer_1
 62
7
100
AcDbSpline
 70
8
 71
3
 72
8
 73
4
 74
0
 40
0
 40
0
 40
0
 40
0
 40
1
 40
1
 40
1
 40
1
 10
330.583152
 20
313.471164
 30
0.0
 10
328.968536
 20
310.554484
 30
0.0
 10
326.794056
 20
308.223764
 30
0.0
 10
324.059720
 20
306.478972
 30
0.0
  0
SPLINE
  5
17f
100
AcDbEntity
  8
Layer_1
 62
7
100
AcDbSpline
 70
8
 71
3
 72
8
 73
4
 74
0
 40
0
 40
0
 40
0
 40
0
 40
1
 40
1
 40
1
 40
1
 10
324.059720
 20
306.478972
 30
0.0
 10
321.351352
 20
304.734180
 30
0.0
 10
318.408648
 20
303.861788
 30
0.0
 10
315.231592
 20
303.861788
 30
0.0
  0
SPLINE
  5
180
100
AcDbEntity
  8
Layer_1
 62
7
100
AcDbSpline
 70
8
 71
3
 72
8
 73
4
 74
0
 40
0
 40
0
 40
0
 40
0
 40
1
 40
1
 40
1
 40
1
 10
315.231592
 20
303.861788
 30
0.0
 10
311.924280
 20
303.861788
 30
0.0
 10
308.877408
 20
304.773244
 30
0.0
 10
306.090968
 20
306.596164
 30
0.0
  0
SPLINE
  5
181
100
AcDbEntity
  8
Layer_1
 62
7
100
AcDbSpline
 70
8
 71
3
 72
8
 73
4
 74
0
 40
0
 40
0
 40
0
 40
0
 40
1
 40
1
 40
1
 40
1
 10
306.090968
 20
306.596164
 30
0.0
 10
303.330536
 20
308.445116
 30
0.0
 10
301.156064
 20
310.932092
 30
0.0
 10
299.567528
 20
314.057100
 30
0.0
  0
SPLINE
  5
182
100
AcDbEntity
  8
Layer_1
 62
7
100
AcDbSpline
 70
8
 71
3
 72
8
 73
4
 74
0
 40
0
 40
0
 40
0
 40
0
 40
1
 40
1
 40
1
 40
1
 10
299.567528
 20
314.057100
 30
0.0
 10
298.005024
 20
317.182084
 30
0.0
 10
297.223776
 20
320.567500
 30
0.0
 10
297.223776
 20
324.213348
 30
0.0
  0
SPLINE
  5
183
100
AcDbEntity
  8
Layer_1
 62
7
100
AcDbSpline
 70
8
 71
3
 72
8
 73
4
 74
0
 40
0
 40
0
 40
0
 40
0
 40
1
 40
1
 40
1
 40
1
 10
297.223776
 20
324.213348
 30
0.0
 10
297.223776
 20
327.885196
 30
0.0
 10
298.005024
 20
331.283636
 30
0.0
 10
299.567528
 20
334.408660
 30
0.0
  0
SPLINE
  5
184
100
AcDbEntity
  8
Layer_1
 62
7
100
AcDbSpline
 70
8
 71
3
 72
8
 73
4
 74
0
 40
0
 40
0
 40
0
 40
0
 40
1
 40
1
 40
1
 40
1
 10
299.567528
 20
334.408660
 30
0.0
 10
301.156064
 20
337.533628
 30
0.0
 10
303.330536
 20
340.007580
 30
0.0
 10
306.090968
 20
341.830532
 30
0.0
  0
SPLINE
  5
185
100
AcDbEntity
  8
Layer_1
 62
7
100
AcDbSpline
 70
8
 71
3
 72
8
 73
4
 74
0
 40
0
 40
0
 40
0
 40
0
 40
1
 40
1
 40
1
 40
1
 10
306.090968
 20
341.830532
 30
0.0
 10
308.877408
 20
343.679452
 30
0.0
 10
311.924280
 20
344.603932
 30
0.0
 10
315.231592
 20
344.603972
 30
0.0
  0
SPLINE
  5
186
100
AcDbEntity
  8
Layer_1
 62
7
100
AcDbSpline
 70
8
 71
3
 72
8
 73
4
 74
0
 40
0
 40
0
 40
0
 40
0
 40
1
 40
1
 40
1
 40
1
 10
315.231592
 20
344.603972
 30
0.0
 10
318.408648
 20
344.603932
 30
0.0
 10
321.351352
 20
343.731540
 30
0.0
 10
324.059720
 20
341.986788
 30
0.0
  0
SPLINE
  5
187
100
AcDbEntity
  8
Layer_1
 62
7
100
AcDbSpline
 70
8
 71
3
 72
8
 73
4
 74
0
 40
0
 40
0
 40
0
 40
0
 40
1
 40
1
 40
1
 40
1
 10
324.059720
 20
341.986788
 30
0.0
 10
326.794056
 20
340.241956
 30
0.0
 10
328.968536
 20
337.911228
 30
0.0
 10
330.583152
 20
334.994596
 30
0.0
  0
LWPOLYLINE
  5
188
100
AcDbEntity
  8
Layer_1
 62
7
100
AcDbPolyline
 90
2
 70
0
 10
327.614408
 20
315.228972
 30
0.0
 10
330.583152
 20
313.471164
 30
0.0
  0
SPLINE
  5
189
100
AcDbEntity
  8
Layer_1
 62
7
100
AcDbSpline
 70
8
 71
3
 72
8
 73
4
 74
0
 40
0
 40
0
 40
0
 40
0
 40
1
 40
1
 40
1
 40
1
 10
327.614408
 20
333.236788
 30
0.0
 10
326.234160
 20
335.632588
 30
0.0
 10
324.450312
 20
337.520604
 30
0.0
 10
322.262840
 20
338.900844
 30
0.0
  0
SPLINE
  5
18a
100
AcDbEntity
  8
Layer_1
 62
7
100
AcDbSpline
 70
8
 71
3
 72
8
 73
4
 74
0
 40
0
 40
0
 40
0
 40
0
 40
1
 40
1
 40
1
 40
1
 10
322.262840
 20
338.900844
 30
0.0
 10
320.101352
 20
340.307060
 30
0.0
 10
317.757608
 20
341.010188
 30
0.0
 10
315.231592
 20
341.010220
 30
0.0
  0
SPLINE
  5
18b
100
AcDbEntity
  8
Layer_1
 62
7
100
AcDbSpline
 70
8
 71
3
 72
8
 73
4
 74
0
 40
0
 40
0
 40
0
 40
0
 40
1
 40
1
 40
1
 40
1
 10
315.231592
 20
341.010220
 30
0.0
 10
311.247200
 20
341.010188
 30
0.0
 10
307.796680
 20
339.395604
 30
0.0
 10
304.880032
 20
336.166476
 30
0.0
  0
SPLINE
  5
18c
100
AcDbEntity
  8
Layer_1
 62
7
100
AcDbSpline
 70
8
 71
3
 72
8
 73
4
 74
0
 40
0
 40
0
 40
0
 40
0
 40
1
 40
1
 40
1
 40
1
 10
304.880032
 20
336.166476
 30
0.0
 10
301.963352
 20
332.937276
 30
0.0
 10
300.505024
 20
328.991972
 30
0.0
 10
300.505032
 20
324.330532
 30
0.0
  0
SPLINE
  5
18d
100
AcDbEntity
  8
Layer_1
 62
7
100
AcDbSpline
 70
8
 71
3
 72
8
 73
4
 74
0
 40
0
 40
0
 40
0
 40
0
 40
1
 40
1
 40
1
 40
1
 10
300.505032
 20
324.330532
 30
0.0
 10
300.505024
 20
319.643020
 30
0.0
 10
301.963352
 20
315.658652
 30
0.0
 10
304.880032
 20
312.377412
 30
0.0
  0
SPLINE
  5
18e
100
AcDbEntity
  8
Layer_1
 62
7
100
AcDbSpline
 70
8
 71
3
 72
8
 73
4
 74
0
 40
0
 40
0
 40
0
 40
0
 40
1
 40
1
 40
1
 40
1
 10
304.880032
 20
312.377412
 30
0.0
 10
307.796680
 20
309.096156
 30
0.0
 10
311.247200
 20
307.455532
 30
0.0
 10
315.231592
 20
307.455532
 30
0.0
  0
SPLINE
  5
18f
100
AcDbEntity
  8
Layer_1
 62
7
100
AcDbSpline
 70
8
 71
3
 72
8
 73
4
 74
0
 40
0
 40
0
 40
0
 40
0
 40
1
 40
1
 40
1
 40
1
 10
315.231592
 20
307.455532
 30
0.0
 10
317.757608
 20
307.455532
 30
0.0
 10
320.114376
 20
308.145636
 30
0.0
 10
322.301904
 20
309.525844
 30
0.0
  0
SPLINE
  5
190
100
AcDbEntity
  8
Layer_1
 62
7
100
AcDbSpline
 70
8
 71
3
 72
8
 73
4
 74
0
 40
0
 40
0
 40
0
 40
0
 40
1
 40
1
 40
1
 40
1
 10
322.301904
 20
309.525844
 30
0.0
 10
324.489376
 20
310.906052
 30
0.0
 10
326.260200
 20
312.807092
 30
0.0
 10
327.614408
 20
315.228972
 30
0.0
  0
LWPOLYLINE
  5
191
100
AcDbEntity
  8
Layer_1
 62
7
100
AcDbPolyline
 90
2
 70
0
 10
330.583152
 20
334.994596
 30
0.0
 10
327.614408
 20
333.236788
 30
0.0
  0
SPLINE
  5
192
100
AcDbEntity
  8
Layer_1
 62
7
100
AcDbSpline
 70
8
 71
3
 72
8
 73
4
 74
0
 40
0
 40
0
 40
0
 40
0
 40
1
 40
1
 40
1
 40
1
 10
382.028464
 20
344.525844
 30
0.0
 10
384.762816
 20
344.525804
 30
0.0
 10
387.380000
 20
343.991956
 30
0.0
 10
389.880032
 20
342.924284
 30
0.0
  0
SPLINE
  5
193
100
AcDbEntity
  8
Layer_1
 62
7
100
AcDbSpline
 70
8
 71
3
 72
8
 73
4
 74
0
 40
0
 40
0
 40
0
 40
0
 40
1
 40
1
 40
1
 40
1
 10
389.880032
 20
342.924284
 30
0.0
 10
392.379992
 20
341.856540
 30
0.0
 10
394.541448
 20
340.411228
 30
0.0
 10
396.364408
 20
338.588348
 30
0.0
  0
SPLINE
  5
194
100
AcDbEntity
  8
Layer_1
 62
7
100
AcDbSpline
 70
8
 71
3
 72
8
 73
4
 74
0
 40
0
 40
0
 40
0
 40
0
 40
1
 40
1
 40
1
 40
1
 10
396.364408
 20
338.588348
 30
0.0
 10
398.187280
 20
336.765396
 30
0.0
 10
399.632592
 20
334.590924
 30
0.0
 10
400.700344
 20
332.064908
 30
0.0
  0
SPLINE
  5
195
100
AcDbEntity
  8
Layer_1
 62
7
100
AcDbSpline
 70
8
 71
3
 72
8
 73
4
 74
0
 40
0
 40
0
 40
0
 40
0
 40
1
 40
1
 40
1
 40
1
 10
400.700344
 20
332.064908
 30
0.0
 10
401.768008
 20
329.538844
 30
0.0
 10
402.301856
 20
326.895620
 30
0.0
 10
402.301904
 20
324.135220
 30
0.0
  0
SPLINE
  5
196
100
AcDbEntity
  8
Layer_1
 62
7
100
AcDbSpline
 70
8
 71
3
 72
8
 73
4
 74
0
 40
0
 40
0
 40
0
 40
0
 40
1
 40
1
 40
1
 40
1
 10
402.301904
 20
324.135220
 30
0.0
 10
402.301856
 20
321.348748
 30
0.0
 10
401.768008
 20
318.692500
 30
0.0
 10
400.700344
 20
316.166476
 30
0.0
  0
SPLINE
  5
197
100
AcDbEntity
  8
Layer_1
 62
7
100
AcDbSpline
 70
8
 71
3
 72
8
 73
4
 74
0
 40
0
 40
0
 40
0
 40
0
 40
1
 40
1
 40
1
 40
1
 10
400.700344
 20
316.166476
 30
0.0
 10
399.632592
 20
313.640420
 30
0.0
 10
398.187280
 20
311.465948
 30
0.0
 10
396.364408
 20
309.643036
 30
0.0
  0
SPLINE
  5
198
100
AcDbEntity
  8
Layer_1
 62
7
100
AcDbSpline
 70
8
 71
3
 72
8
 73
4
 74
0
 40
0
 40
0
 40
0
 40
0
 40
1
 40
1
 40
1
 40
1
 10
396.364408
 20
309.643036
 30
0.0
 10
394.541448
 20
307.846156
 30
0.0
 10
392.379992
 20
306.400844
 30
0.0
 10
389.880032
 20
305.307100
 30
0.0
  0
SPLINE
  5
199
100
AcDbEntity
  8
Layer_1
 62
7
100
AcDbSpline
 70
8
 71
3
 72
8
 73
4
 74
0
 40
0
 40
0
 40
0
 40
0
 40
1
 40
1
 40
1
 40
1
 10
389.880032
 20
305.307100
 30
0.0
 10
387.380000
 20
304.239388
 30
0.0
 10
384.762816
 20
303.705540
 30
0.0
 10
382.028464
 20
303.705532
 30
0.0
  0
SPLINE
  5
19a
100
AcDbEntity
  8
Layer_1
 62
7
100
AcDbSpline
 70
8
 71
3
 72
8
 73
4
 74
0
 40
0
 40
0
 40
0
 40
0
 40
1
 40
1
 40
1
 40
1
 10
382.028464
 20
303.705532
 30
0.0
 10
376.429488
 20
303.705540
 30
0.0
 10
371.650848
 20
305.697724
 30
0.0
 10
367.692528
 20
309.682100
 30
0.0
  0
SPLINE
  5
19b
100
AcDbEntity
  8
Layer_1
 62
7
100
AcDbSpline
 70
8
 71
3
 72
8
 73
4
 74
0
 40
0
 40
0
 40
0
 40
0
 40
1
 40
1
 40
1
 40
1
 10
367.692528
 20
309.682100
 30
0.0
 10
363.734192
 20
313.666460
 30
0.0
 10
361.755024
 20
318.484164
 30
0.0
 10
361.755032
 20
324.135220
 30
0.0
  0
SPLINE
  5
19c
100
AcDbEntity
  8
Layer_1
 62
7
100
AcDbSpline
 70
8
 71
3
 72
8
 73
4
 74
0
 40
0
 40
0
 40
0
 40
0
 40
1
 40
1
 40
1
 40
1
 10
361.755032
 20
324.135220
 30
0.0
 10
361.755024
 20
327.833116
 30
0.0
 10
362.653464
 20
331.244572
 30
0.0
 10
364.450344
 20
334.369596
 30
0.0
  0
SPLINE
  5
19d
100
AcDbEntity
  8
Layer_1
 62
7
100
AcDbSpline
 70
8
 71
3
 72
8
 73
4
 74
0
 40
0
 40
0
 40
0
 40
0
 40
1
 40
1
 40
1
 40
1
 10
364.450344
 20
334.369596
 30
0.0
 10
366.273248
 20
337.520604
 30
0.0
 10
368.734184
 20
339.994564
 30
0.0
 10
371.833152
 20
341.791476
 30
0.0
  0
SPLINE
  5
19e
100
AcDbEntity
  8
Layer_1
 62
7
100
AcDbSpline
 70
8
 71
3
 72
8
 73
4
 74
0
 40
0
 40
0
 40
0
 40
0
 40
1
 40
1
 40
1
 40
1
 10
371.833152
 20
341.791476
 30
0.0
 10
374.958136
 20
343.614348
 30
0.0
 10
378.356568
 20
344.525804
 30
0.0
 10
382.028464
 20
344.525844
 30
0.0
  0
SPLINE
  5
19f
100
AcDbEntity
  8
Layer_1
 62
7
100
AcDbSpline
 70
8
 71
3
 72
8
 73
4
 74
0
 40
0
 40
0
 40
0
 40
0
 40
1
 40
1
 40
1
 40
1
 10
365.231592
 20
324.135220
 30
0.0
 10
365.231584
 20
319.473748
 30
0.0
 10
366.872208
 20
315.476356
 30
0.0
 10
370.153464
 20
312.143036
 30
0.0
  0
SPLINE
  5
1a0
100
AcDbEntity
  8
Layer_1
 62
7
100
AcDbSpline
 70
8
 71
3
 72
8
 73
4
 74
0
 40
0
 40
0
 40
0
 40
0
 40
1
 40
1
 40
1
 40
1
 10
370.153464
 20
312.143036
 30
0.0
 10
373.460744
 20
308.835740
 30
0.0
 10
377.445112
 20
307.182092
 30
0.0
 10
382.106592
 20
307.182100
 30
0.0
  0
SPLINE
  5
1a1
100
AcDbEntity
  8
Layer_1
 62
7
100
AcDbSpline
 70
8
 71
3
 72
8
 73
4
 74
0
 40
0
 40
0
 40
0
 40
0
 40
1
 40
1
 40
1
 40
1
 10
382.106592
 20
307.182100
 30
0.0
 10
386.768024
 20
307.182092
 30
0.0
 10
390.739368
 20
308.835740
 30
0.0
 10
394.020656
 20
312.143036
 30
0.0
  0
SPLINE
  5
1a2
100
AcDbEntity
  8
Layer_1
 62
7
100
AcDbSpline
 70
8
 71
3
 72
8
 73
4
 74
0
 40
0
 40
0
 40
0
 40
0
 40
1
 40
1
 40
1
 40
1
 10
394.020656
 20
312.143036
 30
0.0
 10
397.327904
 20
315.476356
 30
0.0
 10
398.981552
 20
319.473748
 30
0.0
 10
398.981592
 20
324.135220
 30
0.0
  0
SPLINE
  5
1a3
100
AcDbEntity
  8
Layer_1
 62
7
100
AcDbSpline
 70
8
 71
3
 72
8
 73
4
 74
0
 40
0
 40
0
 40
0
 40
0
 40
1
 40
1
 40
1
 40
1
 10
398.981592
 20
324.135220
 30
0.0
 10
398.981552
 20
328.770612
 30
0.0
 10
397.327904
 20
332.741964
 30
0.0
 10
394.020656
 20
336.049284
 30
0.0
  0
SPLINE
  5
1a4
100
AcDbEntity
  8
Layer_1
 62
7
100
AcDbSpline
 70
8
 71
3
 72
8
 73
4
 74
0
 40
0
 40
0
 40
0
 40
0
 40
1
 40
1
 40
1
 40
1
 10
394.020656
 20
336.049284
 30
0.0
 10
390.739368
 20
339.356540
 30
0.0
 10
386.768024
 20
341.010188
 30
0.0
 10
382.106592
 20
341.010220
 30
0.0
  0
SPLINE
  5
1a5
100
AcDbEntity
  8
Layer_1
 62
7
100
AcDbSpline
 70
8
 71
3
 72
8
 73
4
 74
0
 40
0
 40
0
 40
0
 40
0
 40
1
 40
1
 40
1
 40
1
 10
382.106592
 20
341.010220
 30
0.0
 10
377.445112
 20
341.010188
 30
0.0
 10
373.460744
 20
339.356540
 30
0.0
 10
370.153464
 20
336.049284
 30
0.0
  0
SPLINE
  5
1a6
100
AcDbEntity
  8
Layer_1
 62
7
100
AcDbSpline
 70
8
 71
3
 72
8
 73
4
 74
0
 40
0
 40
0
 40
0
 40
0
 40
1
 40
1
 40
1
 40
1
 10
370.153464
 20
336.049284
 30
0.0
 10
366.872208
 20
332.741964
 30
0.0
 10
365.231584
 20
328.770612
 30
0.0
 10
365.231592
 20
324.135220
 30
0.0
  0
LWPOLYLINE
  5
1a7
100
AcDbEntity
  8
Layer_1
 62
7
100
AcDbPolyline
 90
13
 70
0
 10
345.426904
 20
304.291476
 30
0.0
 10
341.911280
 20
304.291476
 30
0.0
 10
341.911280
 20
340.424284
 30
0.0
 10
338.434720
 20
340.424284
 30
0.0
 10
338.434720
 20
343.900844
 30
0.0
 10
341.911280
 20
343.900844
 30
0.0
 10
341.911280
 20
353.275844
 30
0.0
 10
345.426904
 20
353.275844
 30
0.0
 10
345.426904
 20
343.900844
 30
0.0
 10
356.364408
 20
343.900844
 30
0.0
 10
355.192528
 20
340.424284
 30
0.0
 10
345.426904
 20
340.424284
 30
0.0
 10
345.426904
 20
304.291476
 30
0.0
  0
SPLINE
  5
1a8
100
AcDbEntity
  8
Layer_1
 62
7
100
AcDbSpline
 70
8
 71
3
 72
8
 73
4
 74
0
 40
0
 40
0
 40
0
 40
0
 40
1
 40
1
 40
1
 40
1
 10
416.403464
 20
343.900844
 30
0.0
 10
416.898248
 20
342.182060
 30
0.0
 10
417.145648
 20
340.437268
 30
0.0
 10
417.145656
 20
338.666476
 30
0.0
  0
LWPOLYLINE
  5
1a9
100
AcDbEntity
  8
Layer_1
 62
7
100
AcDbPolyline
 90
2
 70
0
 10
412.653464
 20
343.900844
 30
0.0
 10
416.403464
 20
343.900844
 30
0.0
  0
SPLINE
  5
1aa
100
AcDbEntity
  8
Layer_1
 62
7
100
AcDbSpline
 70
8
 71
3
 72
8
 73
4
 74
0
 40
0
 40
0
 40
0
 40
0
 40
1
 40
1
 40
1
 40
1
 10
417.145656
 20
333.744596
 30
0.0
 10
417.744600
 20
335.749772
 30
0.0
 10
419.137832
 20
337.833108
 30
0.0
 10
421.325344
 20
339.994596
 30
0.0
  0
SPLINE
  5
1ab
100
AcDbEntity
  8
Layer_1
 62
7
100
AcDbSpline
 70
8
 71
3
 72
8
 73
4
 74
0
 40
0
 40
0
 40
0
 40
0
 40
1
 40
1
 40
1
 40
1
 10
421.325344
 20
339.994596
 30
0.0
 10
423.512824
 20
342.156020
 30
0.0
 10
425.713344
 20
343.666436
 30
0.0
 10
427.926904
 20
344.525844
 30
0.0
  0
LWPOLYLINE
  5
1ac
100
AcDbEntity
  8
Layer_1
 62
7
100
AcDbPolyline
 90
2
 70
0
 10
417.145656
 20
338.666476
 30
0.0
 10
417.145656
 20
333.744596
 30
0.0
  0
SPLINE
  5
1ad
100
AcDbEntity
  8
Layer_1
 62
7
100
AcDbSpline
 70
8
 71
3
 72
8
 73
4
 74
0
 40
0
 40
0
 40
0
 40
0
 40
1
 40
1
 40
1
 40
1
 10
431.833152
 20
341.752412
 30
0.0
 10
429.541464
 20
341.752372
 30
0.0
 10
427.249800
 20
340.945084
 30
0.0
 10
424.958152
 20
339.330532
 30
0.0
  0
SPLINE
  5
1ae
100
AcDbEntity
  8
Layer_1
 62
7
100
AcDbSpline
 70
8
 71
3
 72
8
 73
4
 74
0
 40
0
 40
0
 40
0
 40
0
 40
1
 40
1
 40
1
 40
1
 10
424.958152
 20
339.330532
 30
0.0
 10
422.692512
 20
337.715916
 30
0.0
 10
420.817512
 20
335.567484
 30
0.0
 10
419.333152
 20
332.885220
 30
0.0
  0
SPLINE
  5
1af
100
AcDbEntity
  8
Layer_1
 62
7
100
AcDbSpline
 70
8
 71
3
 72
8
 73
4
 74
0
 40
0
 40
0
 40
0
 40
0
 40
1
 40
1
 40
1
 40
1
 10
419.333152
 20
332.885220
 30
0.0
 10
417.874808
 20
330.228948
 30
0.0
 10
417.145648
 20
327.481556
 30
0.0
 10
417.145656
 20
324.643036
 30
0.0
  0
LWPOLYLINE
  5
1b0
100
AcDbEntity
  8
Layer_1
 62
7
100
AcDbPolyline
 90
2
 70
0
 10
427.926904
 20
344.525844
 30
0.0
 10
431.833152
 20
341.752412
 30
0.0
  0
SPLINE
  5
1b1
100
AcDbEntity
  8
Layer_1
 62
7
100
AcDbSpline
 70
8
 71
3
 72
8
 73
4
 74
0
 40
0
 40
0
 40
0
 40
0
 40
1
 40
1
 40
1
 40
1
 10
413.630032
 20
338.666476
 30
0.0
 10
413.630024
 20
340.906020
 30
0.0
 10
413.304504
 20
342.650812
 30
0.0
 10
412.653464
 20
343.900844
 30
0.0
  0
LWPOLYLINE
  5
1b2
100
AcDbEntity
  8
Layer_1
 62
7
100
AcDbPolyline
 90
4
 70
0
 10
417.145656
 20
324.643036
 30
0.0
 10
417.145656
 20
304.291476
 30
0.0
 10
413.630032
 20
304.291476
 30
0.0
 10
413.630032
 20
338.666476
 30
0.0
  0
ENDSEC
  0
SECTION
  2
OBJECTS
  0
DICTIONARY
  5
C
330
0
100
AcDbDictionary
  3
ACAD_GROUP
350
D
  3
ACAD_MLINESTYLE
350
17
  0
DICTIONARY
  5
D
330
C
100
AcDbDictionary
  0
DICTIONARY
  5
1A
330
C
100
AcDbDictionary
  0
DICTIONARY
  5
17
330
C
100
AcDbDictionary
  3
STANDARD
350
18
  0
DICTIONARY
  5
19
330
C
100
AcDbDictionary
  0
ENDSEC
  0
EOF
