G04 #@! TF.FileFunction,Other,User*
%FSLAX46Y46*%
G04 Gerber Fmt 4.6, Leading zero omitted, Abs format (unit mm)*
G04 Created by KiCad (PCBNEW 4.0.6-e0-6349~52~ubuntu16.10.1) date Tue Jun  6 22:23:42 2017*
%MOMM*%
%LPD*%
G01*
G04 APERTURE LIST*
%ADD10C,0.100000*%
%ADD11C,0.050000*%
G04 APERTURE END LIST*
D10*
D11*
X144876900Y-110901000D02*
X186516900Y-110901000D01*
X186516900Y-110901000D02*
X186516900Y-121001000D01*
X186516900Y-121001000D02*
X144876900Y-121001000D01*
X144876900Y-121001000D02*
X144876900Y-110901000D01*
X125990000Y-108870000D02*
X125990000Y-82870000D01*
X125990000Y-82870000D02*
X114190000Y-82870000D01*
X114190000Y-82870000D02*
X114190000Y-108870000D01*
X114190000Y-108870000D02*
X125990000Y-108870000D01*
X182540000Y-72370000D02*
X148940000Y-72370000D01*
X148940000Y-72370000D02*
X148940000Y-75570000D01*
X148940000Y-75570000D02*
X182540000Y-75570000D01*
X182540000Y-75570000D02*
X182540000Y-72370000D01*
X181290000Y-112570000D02*
X181290000Y-105520000D01*
X181290000Y-105520000D02*
X190190000Y-105520000D01*
X190190000Y-105520000D02*
X190190000Y-112570000D01*
X190190000Y-112570000D02*
X181290000Y-112570000D01*
X169390000Y-59770000D02*
X148490000Y-59770000D01*
X148490000Y-59770000D02*
X148490000Y-70370000D01*
X148490000Y-70370000D02*
X169390000Y-70370000D01*
X169390000Y-70370000D02*
X169390000Y-59770000D01*
X161240000Y-92120000D02*
X161240000Y-94420000D01*
X161240000Y-94420000D02*
X170790000Y-94420000D01*
X170790000Y-94420000D02*
X170790000Y-92120000D01*
X170790000Y-92120000D02*
X161240000Y-92120000D01*
X149840000Y-92120000D02*
X149840000Y-94420000D01*
X149840000Y-94420000D02*
X159390000Y-94420000D01*
X159390000Y-94420000D02*
X159390000Y-92120000D01*
X159390000Y-92120000D02*
X149840000Y-92120000D01*
X159540000Y-99020000D02*
X159540000Y-96720000D01*
X159540000Y-96720000D02*
X149990000Y-96720000D01*
X149990000Y-96720000D02*
X149990000Y-99020000D01*
X149990000Y-99020000D02*
X159540000Y-99020000D01*
X161040000Y-101720000D02*
X161040000Y-104020000D01*
X161040000Y-104020000D02*
X170590000Y-104020000D01*
X170590000Y-104020000D02*
X170590000Y-101720000D01*
X170590000Y-101720000D02*
X161040000Y-101720000D01*
X150040000Y-102120000D02*
X150040000Y-104420000D01*
X150040000Y-104420000D02*
X159590000Y-104420000D01*
X159590000Y-104420000D02*
X159590000Y-102120000D01*
X159590000Y-102120000D02*
X150040000Y-102120000D01*
X170540000Y-99020000D02*
X170540000Y-96720000D01*
X170540000Y-96720000D02*
X160990000Y-96720000D01*
X160990000Y-96720000D02*
X160990000Y-99020000D01*
X160990000Y-99020000D02*
X170540000Y-99020000D01*
X161040000Y-86720000D02*
X161040000Y-89020000D01*
X161040000Y-89020000D02*
X170590000Y-89020000D01*
X170590000Y-89020000D02*
X170590000Y-86720000D01*
X170590000Y-86720000D02*
X161040000Y-86720000D01*
X159540000Y-89020000D02*
X159540000Y-86720000D01*
X159540000Y-86720000D02*
X149990000Y-86720000D01*
X149990000Y-86720000D02*
X149990000Y-89020000D01*
X149990000Y-89020000D02*
X159540000Y-89020000D01*
X134190000Y-115064000D02*
X140190000Y-115064000D01*
X134190000Y-121664000D02*
X134190000Y-115064000D01*
X140190000Y-121664000D02*
X134190000Y-121664000D01*
X140190000Y-115064000D02*
X140190000Y-121664000D01*
X149424000Y-108418000D02*
X144424000Y-108418000D01*
X144424000Y-108418000D02*
X144424000Y-80638000D01*
X144424000Y-80638000D02*
X149424000Y-80638000D01*
X149424000Y-80638000D02*
X149424000Y-108418000D01*
X129104000Y-108418000D02*
X124104000Y-108418000D01*
X124104000Y-108418000D02*
X124104000Y-80638000D01*
X124104000Y-80638000D02*
X129104000Y-80638000D01*
X129104000Y-80638000D02*
X129104000Y-108418000D01*
M02*
