G04 #@! TF.FileFunction,Copper,L1,Top,Signal*
%FSLAX46Y46*%
G04 Gerber Fmt 4.6, Leading zero omitted, Abs format (unit mm)*
G04 Created by KiCad (PCBNEW 4.0.6-e0-6349~52~ubuntu16.10.1) date Tue Jun 20 22:54:53 2017*
%MOMM*%
%LPD*%
G01*
G04 APERTURE LIST*
%ADD10C,0.100000*%
%ADD11R,2.200000X1.000000*%
%ADD12C,1.000000*%
%ADD13R,1.800000X1.800000*%
%ADD14C,1.800000*%
%ADD15R,1.727200X1.727200*%
%ADD16O,1.727200X1.727200*%
%ADD17R,1.700000X1.700000*%
%ADD18O,1.700000X1.700000*%
%ADD19R,2.000000X2.600000*%
%ADD20O,2.000000X2.600000*%
%ADD21R,1.600000X2.400000*%
%ADD22O,1.600000X2.400000*%
%ADD23C,1.400000*%
%ADD24O,1.400000X1.400000*%
%ADD25O,1.998980X1.998980*%
%ADD26R,1.998980X1.998980*%
%ADD27R,2.600000X2.000000*%
%ADD28O,2.600000X2.000000*%
%ADD29R,1.778000X1.778000*%
%ADD30O,1.778000X1.778000*%
%ADD31C,0.600000*%
%ADD32C,0.250000*%
G04 APERTURE END LIST*
D10*
D11*
X177240000Y-71520000D03*
D12*
X172190000Y-66270000D03*
X173390000Y-67070000D03*
X172190000Y-67870000D03*
X173390000Y-68670000D03*
X172190000Y-69470000D03*
D11*
X177240000Y-64220000D03*
D13*
X149860000Y-130810000D03*
D14*
X152400000Y-130810000D03*
X157480000Y-130810000D03*
X160020000Y-130810000D03*
X162560000Y-130810000D03*
X165100000Y-130810000D03*
X167640000Y-130810000D03*
X167640000Y-123190000D03*
X165100000Y-123190000D03*
X162560000Y-123190000D03*
X160020000Y-123190000D03*
X157480000Y-123190000D03*
X154940000Y-123190000D03*
X152400000Y-123190000D03*
X149860000Y-123190000D03*
X154940000Y-130810000D03*
D15*
X150456900Y-117221000D03*
D16*
X150456900Y-114681000D03*
X152996900Y-117221000D03*
X152996900Y-114681000D03*
X155536900Y-117221000D03*
X155536900Y-114681000D03*
X158076900Y-117221000D03*
X158076900Y-114681000D03*
X160616900Y-117221000D03*
X160616900Y-114681000D03*
X163156900Y-117221000D03*
X163156900Y-114681000D03*
X165696900Y-117221000D03*
X165696900Y-114681000D03*
X168236900Y-117221000D03*
X168236900Y-114681000D03*
X170776900Y-117221000D03*
X170776900Y-114681000D03*
X173316900Y-117221000D03*
X173316900Y-114681000D03*
X175856900Y-117221000D03*
X175856900Y-114681000D03*
X178396900Y-117221000D03*
X178396900Y-114681000D03*
X180936900Y-117221000D03*
X180936900Y-114681000D03*
D17*
X124390000Y-107270000D03*
D18*
X124390000Y-104730000D03*
X124390000Y-102190000D03*
X124390000Y-99650000D03*
X124390000Y-97110000D03*
X124390000Y-94570000D03*
X124390000Y-92030000D03*
X124390000Y-89490000D03*
X124390000Y-86950000D03*
X124390000Y-84410000D03*
D17*
X180940000Y-73970000D03*
D18*
X178400000Y-73970000D03*
X175860000Y-73970000D03*
X173320000Y-73970000D03*
X170780000Y-73970000D03*
X168240000Y-73970000D03*
X165700000Y-73970000D03*
X163160000Y-73970000D03*
X160620000Y-73970000D03*
X158080000Y-73970000D03*
X155540000Y-73970000D03*
X153000000Y-73970000D03*
X150460000Y-73970000D03*
D19*
X183190000Y-109070000D03*
D20*
X185730000Y-109070000D03*
X188270000Y-109070000D03*
D21*
X167790000Y-61270000D03*
D22*
X150010000Y-68890000D03*
X165250000Y-61270000D03*
X152550000Y-68890000D03*
X162710000Y-61270000D03*
X155090000Y-68890000D03*
X160170000Y-61270000D03*
X157630000Y-68890000D03*
X157630000Y-61270000D03*
X160170000Y-68890000D03*
X155090000Y-61270000D03*
X162710000Y-68890000D03*
X152550000Y-61270000D03*
X165250000Y-68890000D03*
X150010000Y-61270000D03*
X167790000Y-68890000D03*
D23*
X162190000Y-93270000D03*
D24*
X169810000Y-93270000D03*
D23*
X150790000Y-93270000D03*
D24*
X158410000Y-93270000D03*
D23*
X158590000Y-97870000D03*
D24*
X150970000Y-97870000D03*
D14*
X165130000Y-90470000D03*
D13*
X160050000Y-90470000D03*
D14*
X162590000Y-90470000D03*
X157530000Y-90470000D03*
D13*
X152450000Y-90470000D03*
D14*
X154990000Y-90470000D03*
X164930000Y-100470000D03*
D13*
X159850000Y-100470000D03*
D14*
X162390000Y-100470000D03*
X157330000Y-100470000D03*
D13*
X152250000Y-100470000D03*
D14*
X154790000Y-100470000D03*
D23*
X161990000Y-102870000D03*
D24*
X169610000Y-102870000D03*
D23*
X150990000Y-103270000D03*
D24*
X158610000Y-103270000D03*
D23*
X169590000Y-97870000D03*
D24*
X161970000Y-97870000D03*
D23*
X161990000Y-87870000D03*
D24*
X169610000Y-87870000D03*
D23*
X158590000Y-87870000D03*
D24*
X150970000Y-87870000D03*
D13*
X174625000Y-97028000D03*
D14*
X174625000Y-94488000D03*
D25*
X143002000Y-117246400D03*
D26*
X143002000Y-119786400D03*
D27*
X147574000Y-105918000D03*
D28*
X147574000Y-103378000D03*
X147574000Y-100838000D03*
X147574000Y-98298000D03*
X147574000Y-95758000D03*
X147574000Y-93218000D03*
X147574000Y-90678000D03*
X147574000Y-88138000D03*
X147574000Y-85598000D03*
X147574000Y-83058000D03*
D29*
X127254000Y-105918000D03*
D30*
X127254000Y-103378000D03*
X127254000Y-100838000D03*
X127254000Y-98298000D03*
X127254000Y-95758000D03*
X127254000Y-93218000D03*
X127254000Y-90678000D03*
X127254000Y-88138000D03*
X127254000Y-85598000D03*
X127254000Y-83058000D03*
D31*
X163190000Y-85770000D03*
X166690000Y-82370000D03*
X166990000Y-79170000D03*
X150090000Y-82970000D03*
X135790000Y-81970000D03*
X159490000Y-109270000D03*
X170790000Y-80070000D03*
X166690000Y-108070000D03*
X161690000Y-109070000D03*
X135788400Y-115544600D03*
X138582400Y-114477800D03*
X177038000Y-121666000D03*
X158140000Y-100420000D03*
X130683000Y-101828600D03*
X132890000Y-100570000D03*
X137890000Y-87270000D03*
X138990000Y-103770000D03*
X141190000Y-101770000D03*
X141690000Y-83770000D03*
X156890000Y-111070000D03*
X129794000Y-104521000D03*
X172593000Y-109982000D03*
X168783000Y-112141000D03*
X138590000Y-94370000D03*
X143190000Y-89070000D03*
X142790000Y-102670000D03*
X141190000Y-104470000D03*
X164390000Y-112370000D03*
X143990000Y-91970000D03*
D32*
X178190000Y-122470000D02*
X178396900Y-122263100D01*
X161990000Y-87870000D02*
X161990000Y-88530000D01*
X161990000Y-88530000D02*
X160050000Y-90470000D01*
X149860000Y-123190000D02*
X149860000Y-117817900D01*
X149860000Y-117817900D02*
X150456900Y-117221000D01*
X162390000Y-100470000D02*
X162390000Y-100670000D01*
X162390000Y-100670000D02*
X160390000Y-102670000D01*
X160390000Y-102670000D02*
X160390000Y-104070000D01*
X160390000Y-104070000D02*
X159590000Y-104870000D01*
X159590000Y-104870000D02*
X156690000Y-104870000D01*
X156690000Y-104870000D02*
X154790000Y-102970000D01*
X150456900Y-117221000D02*
X149341000Y-117221000D01*
X154790000Y-102970000D02*
X154790000Y-100470000D01*
X148490000Y-109270000D02*
X154790000Y-102970000D01*
X148490000Y-116370000D02*
X148490000Y-109270000D01*
X149341000Y-117221000D02*
X148490000Y-116370000D01*
X163290000Y-89770000D02*
X162590000Y-90470000D01*
X163290000Y-85870000D02*
X163290000Y-89770000D01*
X163190000Y-85770000D02*
X163290000Y-85870000D01*
X166690000Y-79470000D02*
X166690000Y-82370000D01*
X166990000Y-79170000D02*
X166690000Y-79470000D01*
X150090000Y-82870000D02*
X150090000Y-82970000D01*
X148890000Y-81670000D02*
X150090000Y-82870000D01*
X136090000Y-81670000D02*
X148890000Y-81670000D01*
X135790000Y-81970000D02*
X136090000Y-81670000D01*
X162290000Y-106470000D02*
X159490000Y-109270000D01*
X172090000Y-106470000D02*
X162290000Y-106470000D01*
X172390000Y-106770000D02*
X172090000Y-106470000D01*
X172390000Y-80270000D02*
X172390000Y-106770000D01*
X172190000Y-80070000D02*
X172390000Y-80270000D01*
X170790000Y-80070000D02*
X172190000Y-80070000D01*
X158076900Y-114681000D02*
X158076900Y-115183100D01*
X166690000Y-108070000D02*
X166190000Y-108570000D01*
X166190000Y-108570000D02*
X162190000Y-108570000D01*
X162190000Y-108570000D02*
X161690000Y-109070000D01*
X135788400Y-115544600D02*
X138760200Y-115544600D01*
X138760200Y-115544600D02*
X143002000Y-119786400D01*
X138582400Y-114477800D02*
X140233400Y-114477800D01*
X140233400Y-114477800D02*
X143002000Y-117246400D01*
X172190000Y-66270000D02*
X172286800Y-66270000D01*
X172286800Y-66270000D02*
X173126400Y-65430400D01*
X179603400Y-72633400D02*
X180940000Y-73970000D01*
X179603400Y-71297800D02*
X179603400Y-72633400D01*
X178739800Y-70434200D02*
X179603400Y-71297800D01*
X176149000Y-70434200D02*
X178739800Y-70434200D01*
X174447200Y-68732400D02*
X176149000Y-70434200D01*
X174447200Y-66192400D02*
X174447200Y-68732400D01*
X173685200Y-65430400D02*
X174447200Y-66192400D01*
X173126400Y-65430400D02*
X173685200Y-65430400D01*
X169610000Y-102870000D02*
X169610000Y-101550000D01*
X155170000Y-66270000D02*
X152550000Y-68890000D01*
X157490000Y-66270000D02*
X155170000Y-66270000D01*
X158990000Y-67770000D02*
X157490000Y-66270000D01*
X158990000Y-70570000D02*
X158990000Y-67770000D01*
X159390000Y-70970000D02*
X158990000Y-70570000D01*
X159390000Y-76670000D02*
X159390000Y-70970000D01*
X167290000Y-84570000D02*
X159390000Y-76670000D01*
X167290000Y-93470000D02*
X167290000Y-84570000D01*
X171290000Y-97470000D02*
X167290000Y-93470000D01*
X171290000Y-99870000D02*
X171290000Y-97470000D01*
X169610000Y-101550000D02*
X171290000Y-99870000D01*
X158610000Y-103270000D02*
X157890000Y-103270000D01*
X156790000Y-69730000D02*
X157630000Y-68890000D01*
X156790000Y-75970000D02*
X156790000Y-69730000D01*
X156290000Y-76470000D02*
X156790000Y-75970000D01*
X156290000Y-91470000D02*
X156290000Y-76470000D01*
X156890000Y-92070000D02*
X156290000Y-91470000D01*
X156890000Y-95570000D02*
X156890000Y-92070000D01*
X156090000Y-96370000D02*
X156890000Y-95570000D01*
X156090000Y-101470000D02*
X156090000Y-96370000D01*
X157890000Y-103270000D02*
X156090000Y-101470000D01*
X169610000Y-87870000D02*
X169610000Y-78290000D01*
X157630000Y-64310000D02*
X157630000Y-61270000D01*
X158190000Y-64870000D02*
X157630000Y-64310000D01*
X163390000Y-64870000D02*
X158190000Y-64870000D01*
X166590000Y-68070000D02*
X163390000Y-64870000D01*
X166590000Y-70970000D02*
X166590000Y-68070000D01*
X166990000Y-71370000D02*
X166590000Y-70970000D01*
X166990000Y-75670000D02*
X166990000Y-71370000D01*
X169610000Y-78290000D02*
X166990000Y-75670000D01*
X155090000Y-68890000D02*
X155090000Y-71270000D01*
X153690000Y-95150000D02*
X150970000Y-97870000D01*
X153690000Y-88470000D02*
X153690000Y-95150000D01*
X154190000Y-87970000D02*
X153690000Y-88470000D01*
X154190000Y-72170000D02*
X154190000Y-87970000D01*
X155090000Y-71270000D02*
X154190000Y-72170000D01*
X150970000Y-87870000D02*
X150970000Y-77150000D01*
X155090000Y-64070000D02*
X155090000Y-61270000D01*
X154090000Y-65070000D02*
X155090000Y-64070000D01*
X148990000Y-65070000D02*
X154090000Y-65070000D01*
X146690000Y-67370000D02*
X148990000Y-65070000D01*
X146690000Y-72870000D02*
X146690000Y-67370000D01*
X150970000Y-77150000D02*
X146690000Y-72870000D01*
X147640000Y-103220000D02*
X144430000Y-103220000D01*
X140380000Y-107270000D02*
X124390000Y-107270000D01*
X144430000Y-103220000D02*
X140380000Y-107270000D01*
X167640000Y-130810000D02*
X167640000Y-129794000D01*
X125984000Y-108864000D02*
X124390000Y-107270000D01*
X167640000Y-129794000D02*
X165354000Y-127508000D01*
X167640000Y-130810000D02*
X167894000Y-130810000D01*
X167894000Y-130810000D02*
X177038000Y-121666000D01*
X167640000Y-130810000D02*
X168300400Y-130810000D01*
X165250000Y-61270000D02*
X165250000Y-59530000D01*
X153010000Y-58270000D02*
X150010000Y-61270000D01*
X163990000Y-58270000D02*
X153010000Y-58270000D01*
X165250000Y-59530000D02*
X163990000Y-58270000D01*
X165250000Y-61270000D02*
X162710000Y-61270000D01*
X167790000Y-61270000D02*
X165250000Y-61270000D01*
X172190000Y-69470000D02*
X170790000Y-69470000D01*
X170190000Y-63670000D02*
X167790000Y-61270000D01*
X170190000Y-68870000D02*
X170190000Y-63670000D01*
X170790000Y-69470000D02*
X170190000Y-68870000D01*
X178400000Y-73970000D02*
X178290000Y-73970000D01*
X178290000Y-73970000D02*
X176790000Y-72470000D01*
X176790000Y-72470000D02*
X173590000Y-72470000D01*
X173590000Y-72470000D02*
X172190000Y-71070000D01*
X172190000Y-71070000D02*
X172190000Y-69470000D01*
X139065000Y-127508000D02*
X125984000Y-114427000D01*
X165354000Y-127508000D02*
X139065000Y-127508000D01*
X125984000Y-114427000D02*
X125984000Y-108864000D01*
X165130000Y-90470000D02*
X164990000Y-90470000D01*
X164990000Y-90470000D02*
X162190000Y-93270000D01*
X164930000Y-100470000D02*
X166990000Y-100470000D01*
X166990000Y-100470000D02*
X169590000Y-97870000D01*
X130683000Y-101828600D02*
X128371600Y-101828600D01*
X125747060Y-102190000D02*
X124390000Y-102190000D01*
X125844300Y-102092760D02*
X125747060Y-102190000D01*
X128107440Y-102092760D02*
X125844300Y-102092760D01*
X128371600Y-101828600D02*
X128107440Y-102092760D01*
X130683000Y-101828600D02*
X130657600Y-101854000D01*
X130657600Y-101854000D02*
X130657600Y-101870000D01*
X130657600Y-101870000D02*
X130749800Y-101777800D01*
X130749800Y-101777800D02*
X130810000Y-101777800D01*
X130810000Y-101870000D02*
X130810000Y-101777800D01*
X163156900Y-117221000D02*
X163156900Y-117106700D01*
X163156900Y-117106700D02*
X162026600Y-115976400D01*
X156781500Y-115976400D02*
X155536900Y-117221000D01*
X162026600Y-115976400D02*
X156781500Y-115976400D01*
X147640000Y-98170000D02*
X139290000Y-98170000D01*
X132461000Y-101870000D02*
X130810000Y-101870000D01*
X139290000Y-98170000D02*
X135590000Y-101870000D01*
X135590000Y-101870000D02*
X132461000Y-101870000D01*
X132890000Y-100570000D02*
X131555460Y-100570000D01*
X130576320Y-99590860D02*
X124449140Y-99590860D01*
X131555460Y-100570000D02*
X130576320Y-99590860D01*
X124449140Y-99590860D02*
X124390000Y-99650000D01*
X134190000Y-99270000D02*
X132890000Y-100570000D01*
X154940000Y-123190000D02*
X154940000Y-119164100D01*
X154940000Y-119164100D02*
X152996900Y-117221000D01*
X175856900Y-114681000D02*
X175856900Y-114236900D01*
X175856900Y-114236900D02*
X171690000Y-110070000D01*
X171690000Y-110070000D02*
X155890000Y-110070000D01*
X155890000Y-110070000D02*
X154290000Y-111670000D01*
X154290000Y-111670000D02*
X154290000Y-115927900D01*
X154290000Y-115927900D02*
X152996900Y-117221000D01*
X135790000Y-99270000D02*
X134190000Y-99270000D01*
X124770000Y-99270000D02*
X124390000Y-99650000D01*
X139440000Y-95620000D02*
X135790000Y-99270000D01*
X147690000Y-95620000D02*
X139440000Y-95620000D01*
X134590000Y-89270000D02*
X128265760Y-89270000D01*
X138340000Y-85520000D02*
X134590000Y-89270000D01*
X128137920Y-89397840D02*
X124482160Y-89397840D01*
X128265760Y-89270000D02*
X128137920Y-89397840D01*
X124482160Y-89397840D02*
X124390000Y-89490000D01*
X165100000Y-123190000D02*
X165100000Y-121670000D01*
X175856900Y-117221000D02*
X175856900Y-121403100D01*
X158076900Y-121456900D02*
X158076900Y-117221000D01*
X158290000Y-121670000D02*
X158076900Y-121456900D01*
X175590000Y-121670000D02*
X165100000Y-121670000D01*
X165100000Y-121670000D02*
X158290000Y-121670000D01*
X175856900Y-121403100D02*
X175590000Y-121670000D01*
X124610000Y-89270000D02*
X124390000Y-89490000D01*
X175856900Y-117221000D02*
X175691000Y-117221000D01*
X158076900Y-117221000D02*
X158076900Y-117030500D01*
X138340000Y-86820000D02*
X138340000Y-85520000D01*
X137890000Y-87270000D02*
X138340000Y-86820000D01*
X138440000Y-85420000D02*
X138340000Y-85520000D01*
X147690000Y-85420000D02*
X138440000Y-85420000D01*
X124390000Y-86950000D02*
X125617520Y-86950000D01*
X138140000Y-82920000D02*
X141690000Y-82920000D01*
X138140000Y-82920000D02*
X134390000Y-86670000D01*
X134245340Y-86814660D02*
X134390000Y-86670000D01*
X125752860Y-86814660D02*
X134245340Y-86814660D01*
X125617520Y-86950000D02*
X125752860Y-86814660D01*
X163156900Y-114681000D02*
X163156900Y-114536900D01*
X163156900Y-114536900D02*
X159690000Y-111070000D01*
X138990000Y-103770000D02*
X140990000Y-101770000D01*
X140990000Y-101770000D02*
X141190000Y-101770000D01*
X141690000Y-83770000D02*
X141690000Y-82920000D01*
X159690000Y-111070000D02*
X156890000Y-111070000D01*
X170776900Y-114681000D02*
X170776900Y-112756900D01*
X163156900Y-111903100D02*
X163156900Y-114681000D01*
X163890000Y-111170000D02*
X163156900Y-111903100D01*
X169190000Y-111170000D02*
X163890000Y-111170000D01*
X170776900Y-112756900D02*
X169190000Y-111170000D01*
X124670000Y-86670000D02*
X124390000Y-86950000D01*
X163156900Y-114681000D02*
X163156900Y-114436900D01*
X141690000Y-82920000D02*
X141690000Y-82870000D01*
X141690000Y-82870000D02*
X141690000Y-82920000D01*
X147690000Y-82920000D02*
X141690000Y-82920000D01*
X129794000Y-104470000D02*
X124650000Y-104470000D01*
X165696900Y-117221000D02*
X165696900Y-117132100D01*
X165696900Y-117132100D02*
X167005000Y-115824000D01*
X176784000Y-109982000D02*
X180936900Y-114134900D01*
X175895000Y-109982000D02*
X176784000Y-109982000D01*
X172593000Y-109982000D02*
X175895000Y-109982000D01*
X167005000Y-113919000D02*
X168783000Y-112141000D01*
X167005000Y-115824000D02*
X167005000Y-113919000D01*
X180936900Y-114134900D02*
X180936900Y-114681000D01*
X129794000Y-104521000D02*
X129794000Y-104470000D01*
X129794000Y-104470000D02*
X129794000Y-104521000D01*
X129794000Y-104521000D02*
X129794000Y-104470000D01*
X147690000Y-100670000D02*
X139790000Y-100670000D01*
X135990000Y-104470000D02*
X131826000Y-104470000D01*
X131826000Y-104470000D02*
X130290000Y-104470000D01*
X130290000Y-104470000D02*
X129794000Y-104470000D01*
X139790000Y-100670000D02*
X135990000Y-104470000D01*
X124650000Y-104470000D02*
X124390000Y-104730000D01*
X135190000Y-96870000D02*
X128621040Y-96870000D01*
X138540000Y-93520000D02*
X135190000Y-96870000D01*
X128427480Y-97063560D02*
X124436440Y-97063560D01*
X128621040Y-96870000D02*
X128427480Y-97063560D01*
X124436440Y-97063560D02*
X124390000Y-97110000D01*
X168236900Y-117221000D02*
X168236900Y-116923100D01*
X168236900Y-116923100D02*
X169190000Y-115970000D01*
X169190000Y-115970000D02*
X177107900Y-115970000D01*
X177107900Y-115970000D02*
X178396900Y-114681000D01*
X124630000Y-96870000D02*
X124390000Y-97110000D01*
X138540000Y-94320000D02*
X138540000Y-93520000D01*
X138590000Y-94370000D02*
X138540000Y-94320000D01*
X138990000Y-93070000D02*
X138540000Y-93520000D01*
X147690000Y-93070000D02*
X138990000Y-93070000D01*
X173316900Y-117221000D02*
X173316900Y-117243100D01*
X173316900Y-117243100D02*
X171390000Y-119170000D01*
X171390000Y-119170000D02*
X165590000Y-119170000D01*
X134590000Y-91870000D02*
X124550000Y-91870000D01*
X124550000Y-91870000D02*
X124390000Y-92030000D01*
X165590000Y-119170000D02*
X164390000Y-117970000D01*
X138440000Y-88020000D02*
X134590000Y-91870000D01*
X143390000Y-88870000D02*
X143390000Y-88020000D01*
X143190000Y-89070000D02*
X143390000Y-88870000D01*
X142790000Y-102870000D02*
X142790000Y-102670000D01*
X141190000Y-104470000D02*
X142790000Y-102870000D01*
X164390000Y-117970000D02*
X164390000Y-112370000D01*
X147690000Y-88020000D02*
X143390000Y-88020000D01*
X143390000Y-88020000D02*
X138440000Y-88020000D01*
X134896190Y-94263810D02*
X128235110Y-94263810D01*
X128041400Y-94457520D02*
X124502480Y-94457520D01*
X128235110Y-94263810D02*
X128041400Y-94457520D01*
X124502480Y-94457520D02*
X124390000Y-94570000D01*
X188270000Y-109070000D02*
X188270000Y-115234600D01*
X180886100Y-119710200D02*
X178396900Y-117221000D01*
X183794400Y-119710200D02*
X180886100Y-119710200D01*
X188270000Y-115234600D02*
X183794400Y-119710200D01*
X160020000Y-123190000D02*
X160020000Y-123317000D01*
X160020000Y-123317000D02*
X162687000Y-125984000D01*
X162687000Y-125984000D02*
X171958000Y-125984000D01*
X171958000Y-125984000D02*
X176306902Y-121635098D01*
X176306902Y-121635098D02*
X176306902Y-119310998D01*
X176306902Y-119310998D02*
X178396900Y-117221000D01*
X138640000Y-90520000D02*
X134896190Y-94263810D01*
X134896190Y-94263810D02*
X134890000Y-94270000D01*
X142490000Y-90570000D02*
X142490000Y-90520000D01*
X142540000Y-90520000D02*
X142490000Y-90570000D01*
X143990000Y-91970000D02*
X142540000Y-90520000D01*
X147640000Y-90520000D02*
X142490000Y-90520000D01*
X142490000Y-90520000D02*
X138640000Y-90520000D01*
M02*
