G04 #@! TF.FileFunction,Legend,Top*
%FSLAX46Y46*%
G04 Gerber Fmt 4.6, Leading zero omitted, Abs format (unit mm)*
G04 Created by KiCad (PCBNEW 4.0.5-e0-6337~49~ubuntu16.04.1) date Sun Apr 30 10:53:11 2017*
%MOMM*%
%LPD*%
G01*
G04 APERTURE LIST*
%ADD10C,0.100000*%
%ADD11C,0.075000*%
%ADD12C,0.300000*%
%ADD13C,0.381000*%
%ADD14C,0.150000*%
%ADD15C,0.120000*%
%ADD16C,0.203200*%
%ADD17C,0.152400*%
%ADD18C,0.125000*%
G04 APERTURE END LIST*
D10*
X123463810Y-106550954D02*
X123463810Y-106860477D01*
X123273333Y-106693811D01*
X123273333Y-106765239D01*
X123249524Y-106812858D01*
X123225714Y-106836668D01*
X123178095Y-106860477D01*
X123059048Y-106860477D01*
X123011429Y-106836668D01*
X122987619Y-106812858D01*
X122963810Y-106765239D01*
X122963810Y-106622382D01*
X122987619Y-106574763D01*
X123011429Y-106550954D01*
X123463810Y-107003334D02*
X122963810Y-107170001D01*
X123463810Y-107336667D01*
X123463810Y-107455715D02*
X123463810Y-107765238D01*
X123273333Y-107598572D01*
X123273333Y-107670000D01*
X123249524Y-107717619D01*
X123225714Y-107741429D01*
X123178095Y-107765238D01*
X123059048Y-107765238D01*
X123011429Y-107741429D01*
X122987619Y-107717619D01*
X122963810Y-107670000D01*
X122963810Y-107527143D01*
X122987619Y-107479524D01*
X123011429Y-107455715D01*
X122963810Y-104250953D02*
X123463810Y-104250953D01*
X123463810Y-104370000D01*
X123440000Y-104441429D01*
X123392381Y-104489048D01*
X123344762Y-104512857D01*
X123249524Y-104536667D01*
X123178095Y-104536667D01*
X123082857Y-104512857D01*
X123035238Y-104489048D01*
X122987619Y-104441429D01*
X122963810Y-104370000D01*
X122963810Y-104250953D01*
X123463810Y-104846191D02*
X123463810Y-104893810D01*
X123440000Y-104941429D01*
X123416190Y-104965238D01*
X123368571Y-104989048D01*
X123273333Y-105012857D01*
X123154286Y-105012857D01*
X123059048Y-104989048D01*
X123011429Y-104965238D01*
X122987619Y-104941429D01*
X122963810Y-104893810D01*
X122963810Y-104846191D01*
X122987619Y-104798572D01*
X123011429Y-104774762D01*
X123059048Y-104750953D01*
X123154286Y-104727143D01*
X123273333Y-104727143D01*
X123368571Y-104750953D01*
X123416190Y-104774762D01*
X123440000Y-104798572D01*
X123463810Y-104846191D01*
X122963810Y-101800953D02*
X123463810Y-101800953D01*
X123463810Y-101920000D01*
X123440000Y-101991429D01*
X123392381Y-102039048D01*
X123344762Y-102062857D01*
X123249524Y-102086667D01*
X123178095Y-102086667D01*
X123082857Y-102062857D01*
X123035238Y-102039048D01*
X122987619Y-101991429D01*
X122963810Y-101920000D01*
X122963810Y-101800953D01*
X122963810Y-102562857D02*
X122963810Y-102277143D01*
X122963810Y-102420000D02*
X123463810Y-102420000D01*
X123392381Y-102372381D01*
X123344762Y-102324762D01*
X123320952Y-102277143D01*
X122913810Y-99200953D02*
X123413810Y-99200953D01*
X123413810Y-99320000D01*
X123390000Y-99391429D01*
X123342381Y-99439048D01*
X123294762Y-99462857D01*
X123199524Y-99486667D01*
X123128095Y-99486667D01*
X123032857Y-99462857D01*
X122985238Y-99439048D01*
X122937619Y-99391429D01*
X122913810Y-99320000D01*
X122913810Y-99200953D01*
X123366190Y-99677143D02*
X123390000Y-99700953D01*
X123413810Y-99748572D01*
X123413810Y-99867619D01*
X123390000Y-99915238D01*
X123366190Y-99939048D01*
X123318571Y-99962857D01*
X123270952Y-99962857D01*
X123199524Y-99939048D01*
X122913810Y-99653334D01*
X122913810Y-99962857D01*
X123013810Y-96700953D02*
X123513810Y-96700953D01*
X123513810Y-96820000D01*
X123490000Y-96891429D01*
X123442381Y-96939048D01*
X123394762Y-96962857D01*
X123299524Y-96986667D01*
X123228095Y-96986667D01*
X123132857Y-96962857D01*
X123085238Y-96939048D01*
X123037619Y-96891429D01*
X123013810Y-96820000D01*
X123013810Y-96700953D01*
X123513810Y-97153334D02*
X123513810Y-97462857D01*
X123323333Y-97296191D01*
X123323333Y-97367619D01*
X123299524Y-97415238D01*
X123275714Y-97439048D01*
X123228095Y-97462857D01*
X123109048Y-97462857D01*
X123061429Y-97439048D01*
X123037619Y-97415238D01*
X123013810Y-97367619D01*
X123013810Y-97224762D01*
X123037619Y-97177143D01*
X123061429Y-97153334D01*
X122963810Y-94050953D02*
X123463810Y-94050953D01*
X123463810Y-94170000D01*
X123440000Y-94241429D01*
X123392381Y-94289048D01*
X123344762Y-94312857D01*
X123249524Y-94336667D01*
X123178095Y-94336667D01*
X123082857Y-94312857D01*
X123035238Y-94289048D01*
X122987619Y-94241429D01*
X122963810Y-94170000D01*
X122963810Y-94050953D01*
X123297143Y-94765238D02*
X122963810Y-94765238D01*
X123487619Y-94646191D02*
X123130476Y-94527143D01*
X123130476Y-94836667D01*
X122963810Y-91500953D02*
X123463810Y-91500953D01*
X123463810Y-91620000D01*
X123440000Y-91691429D01*
X123392381Y-91739048D01*
X123344762Y-91762857D01*
X123249524Y-91786667D01*
X123178095Y-91786667D01*
X123082857Y-91762857D01*
X123035238Y-91739048D01*
X122987619Y-91691429D01*
X122963810Y-91620000D01*
X122963810Y-91500953D01*
X123463810Y-92239048D02*
X123463810Y-92000953D01*
X123225714Y-91977143D01*
X123249524Y-92000953D01*
X123273333Y-92048572D01*
X123273333Y-92167619D01*
X123249524Y-92215238D01*
X123225714Y-92239048D01*
X123178095Y-92262857D01*
X123059048Y-92262857D01*
X123011429Y-92239048D01*
X122987619Y-92215238D01*
X122963810Y-92167619D01*
X122963810Y-92048572D01*
X122987619Y-92000953D01*
X123011429Y-91977143D01*
X122913810Y-89050953D02*
X123413810Y-89050953D01*
X123413810Y-89170000D01*
X123390000Y-89241429D01*
X123342381Y-89289048D01*
X123294762Y-89312857D01*
X123199524Y-89336667D01*
X123128095Y-89336667D01*
X123032857Y-89312857D01*
X122985238Y-89289048D01*
X122937619Y-89241429D01*
X122913810Y-89170000D01*
X122913810Y-89050953D01*
X123413810Y-89765238D02*
X123413810Y-89670000D01*
X123390000Y-89622381D01*
X123366190Y-89598572D01*
X123294762Y-89550953D01*
X123199524Y-89527143D01*
X123009048Y-89527143D01*
X122961429Y-89550953D01*
X122937619Y-89574762D01*
X122913810Y-89622381D01*
X122913810Y-89717619D01*
X122937619Y-89765238D01*
X122961429Y-89789048D01*
X123009048Y-89812857D01*
X123128095Y-89812857D01*
X123175714Y-89789048D01*
X123199524Y-89765238D01*
X123223333Y-89717619D01*
X123223333Y-89622381D01*
X123199524Y-89574762D01*
X123175714Y-89550953D01*
X123128095Y-89527143D01*
X122913810Y-86450953D02*
X123413810Y-86450953D01*
X123413810Y-86570000D01*
X123390000Y-86641429D01*
X123342381Y-86689048D01*
X123294762Y-86712857D01*
X123199524Y-86736667D01*
X123128095Y-86736667D01*
X123032857Y-86712857D01*
X122985238Y-86689048D01*
X122937619Y-86641429D01*
X122913810Y-86570000D01*
X122913810Y-86450953D01*
X123413810Y-86903334D02*
X123413810Y-87236667D01*
X122913810Y-87022381D01*
X123390000Y-84039047D02*
X123413810Y-83991428D01*
X123413810Y-83920000D01*
X123390000Y-83848571D01*
X123342381Y-83800952D01*
X123294762Y-83777143D01*
X123199524Y-83753333D01*
X123128095Y-83753333D01*
X123032857Y-83777143D01*
X122985238Y-83800952D01*
X122937619Y-83848571D01*
X122913810Y-83920000D01*
X122913810Y-83967619D01*
X122937619Y-84039047D01*
X122961429Y-84062857D01*
X123128095Y-84062857D01*
X123128095Y-83967619D01*
X122913810Y-84277143D02*
X123413810Y-84277143D01*
X122913810Y-84562857D01*
X123413810Y-84562857D01*
X122913810Y-84800953D02*
X123413810Y-84800953D01*
X123413810Y-84920000D01*
X123390000Y-84991429D01*
X123342381Y-85039048D01*
X123294762Y-85062857D01*
X123199524Y-85086667D01*
X123128095Y-85086667D01*
X123032857Y-85062857D01*
X122985238Y-85039048D01*
X122937619Y-84991429D01*
X122913810Y-84920000D01*
X122913810Y-84800953D01*
X132744287Y-71084286D02*
X132830001Y-71108095D01*
X132858573Y-71131905D01*
X132887144Y-71179524D01*
X132887144Y-71250952D01*
X132858573Y-71298571D01*
X132830001Y-71322381D01*
X132772859Y-71346190D01*
X132544287Y-71346190D01*
X132544287Y-70846190D01*
X132744287Y-70846190D01*
X132801430Y-70870000D01*
X132830001Y-70893810D01*
X132858573Y-70941429D01*
X132858573Y-70989048D01*
X132830001Y-71036667D01*
X132801430Y-71060476D01*
X132744287Y-71084286D01*
X132544287Y-71084286D01*
X133230001Y-71346190D02*
X133172859Y-71322381D01*
X133144287Y-71274762D01*
X133144287Y-70846190D01*
X133544287Y-71346190D02*
X133487145Y-71322381D01*
X133458573Y-71298571D01*
X133430002Y-71250952D01*
X133430002Y-71108095D01*
X133458573Y-71060476D01*
X133487145Y-71036667D01*
X133544287Y-71012857D01*
X133630002Y-71012857D01*
X133687145Y-71036667D01*
X133715716Y-71060476D01*
X133744287Y-71108095D01*
X133744287Y-71250952D01*
X133715716Y-71298571D01*
X133687145Y-71322381D01*
X133630002Y-71346190D01*
X133544287Y-71346190D01*
X134258573Y-71322381D02*
X134201430Y-71346190D01*
X134087144Y-71346190D01*
X134030002Y-71322381D01*
X134001430Y-71298571D01*
X133972859Y-71250952D01*
X133972859Y-71108095D01*
X134001430Y-71060476D01*
X134030002Y-71036667D01*
X134087144Y-71012857D01*
X134201430Y-71012857D01*
X134258573Y-71036667D01*
X134515716Y-71346190D02*
X134515716Y-70846190D01*
X134572859Y-71155714D02*
X134744288Y-71346190D01*
X134744288Y-71012857D02*
X134515716Y-71203333D01*
X134944287Y-70846190D02*
X135087144Y-71346190D01*
X135201430Y-70989048D01*
X135315716Y-71346190D01*
X135458573Y-70846190D01*
X135772858Y-71346190D02*
X135715716Y-71322381D01*
X135687144Y-71298571D01*
X135658573Y-71250952D01*
X135658573Y-71108095D01*
X135687144Y-71060476D01*
X135715716Y-71036667D01*
X135772858Y-71012857D01*
X135858573Y-71012857D01*
X135915716Y-71036667D01*
X135944287Y-71060476D01*
X135972858Y-71108095D01*
X135972858Y-71250952D01*
X135944287Y-71298571D01*
X135915716Y-71322381D01*
X135858573Y-71346190D01*
X135772858Y-71346190D01*
X136230001Y-71346190D02*
X136230001Y-71012857D01*
X136230001Y-71108095D02*
X136258573Y-71060476D01*
X136287144Y-71036667D01*
X136344287Y-71012857D01*
X136401430Y-71012857D01*
X136601430Y-71346190D02*
X136601430Y-70846190D01*
X136658573Y-71155714D02*
X136830002Y-71346190D01*
X136830002Y-71012857D02*
X136601430Y-71203333D01*
X137058573Y-71322381D02*
X137115716Y-71346190D01*
X137230001Y-71346190D01*
X137287144Y-71322381D01*
X137315716Y-71274762D01*
X137315716Y-71250952D01*
X137287144Y-71203333D01*
X137230001Y-71179524D01*
X137144287Y-71179524D01*
X137087144Y-71155714D01*
X137058573Y-71108095D01*
X137058573Y-71084286D01*
X137087144Y-71036667D01*
X137144287Y-71012857D01*
X137230001Y-71012857D01*
X137287144Y-71036667D01*
X138372858Y-71298571D02*
X138344287Y-71322381D01*
X138258573Y-71346190D01*
X138201430Y-71346190D01*
X138115715Y-71322381D01*
X138058573Y-71274762D01*
X138030001Y-71227143D01*
X138001430Y-71131905D01*
X138001430Y-71060476D01*
X138030001Y-70965238D01*
X138058573Y-70917619D01*
X138115715Y-70870000D01*
X138201430Y-70846190D01*
X138258573Y-70846190D01*
X138344287Y-70870000D01*
X138372858Y-70893810D01*
X138715715Y-71346190D02*
X138658573Y-71322381D01*
X138630001Y-71298571D01*
X138601430Y-71250952D01*
X138601430Y-71108095D01*
X138630001Y-71060476D01*
X138658573Y-71036667D01*
X138715715Y-71012857D01*
X138801430Y-71012857D01*
X138858573Y-71036667D01*
X138887144Y-71060476D01*
X138915715Y-71108095D01*
X138915715Y-71250952D01*
X138887144Y-71298571D01*
X138858573Y-71322381D01*
X138801430Y-71346190D01*
X138715715Y-71346190D01*
X139172858Y-71012857D02*
X139172858Y-71346190D01*
X139172858Y-71060476D02*
X139201430Y-71036667D01*
X139258572Y-71012857D01*
X139344287Y-71012857D01*
X139401430Y-71036667D01*
X139430001Y-71084286D01*
X139430001Y-71346190D01*
X139687144Y-71322381D02*
X139744287Y-71346190D01*
X139858572Y-71346190D01*
X139915715Y-71322381D01*
X139944287Y-71274762D01*
X139944287Y-71250952D01*
X139915715Y-71203333D01*
X139858572Y-71179524D01*
X139772858Y-71179524D01*
X139715715Y-71155714D01*
X139687144Y-71108095D01*
X139687144Y-71084286D01*
X139715715Y-71036667D01*
X139772858Y-71012857D01*
X139858572Y-71012857D01*
X139915715Y-71036667D01*
X140458572Y-71012857D02*
X140458572Y-71346190D01*
X140201429Y-71012857D02*
X140201429Y-71274762D01*
X140230001Y-71322381D01*
X140287143Y-71346190D01*
X140372858Y-71346190D01*
X140430001Y-71322381D01*
X140458572Y-71298571D01*
X140830000Y-71346190D02*
X140772858Y-71322381D01*
X140744286Y-71274762D01*
X140744286Y-70846190D01*
X140972858Y-71012857D02*
X141201429Y-71012857D01*
X141058572Y-70846190D02*
X141058572Y-71274762D01*
X141087144Y-71322381D01*
X141144286Y-71346190D01*
X141201429Y-71346190D01*
X141401429Y-71346190D02*
X141401429Y-71012857D01*
X141401429Y-70846190D02*
X141372858Y-70870000D01*
X141401429Y-70893810D01*
X141430001Y-70870000D01*
X141401429Y-70846190D01*
X141401429Y-70893810D01*
X141687143Y-71012857D02*
X141687143Y-71346190D01*
X141687143Y-71060476D02*
X141715715Y-71036667D01*
X141772857Y-71012857D01*
X141858572Y-71012857D01*
X141915715Y-71036667D01*
X141944286Y-71084286D01*
X141944286Y-71346190D01*
X142487143Y-71012857D02*
X142487143Y-71417619D01*
X142458572Y-71465238D01*
X142430000Y-71489048D01*
X142372857Y-71512857D01*
X142287143Y-71512857D01*
X142230000Y-71489048D01*
X142487143Y-71322381D02*
X142430000Y-71346190D01*
X142315714Y-71346190D01*
X142258572Y-71322381D01*
X142230000Y-71298571D01*
X142201429Y-71250952D01*
X142201429Y-71108095D01*
X142230000Y-71060476D01*
X142258572Y-71036667D01*
X142315714Y-71012857D01*
X142430000Y-71012857D01*
X142487143Y-71036667D01*
X143515714Y-71346190D02*
X143230000Y-71346190D01*
X143230000Y-70846190D01*
X143630000Y-71012857D02*
X143858571Y-71012857D01*
X143715714Y-70846190D02*
X143715714Y-71274762D01*
X143744286Y-71322381D01*
X143801428Y-71346190D01*
X143858571Y-71346190D01*
X144315714Y-71346190D02*
X144315714Y-70846190D01*
X144315714Y-71322381D02*
X144258571Y-71346190D01*
X144144285Y-71346190D01*
X144087143Y-71322381D01*
X144058571Y-71298571D01*
X144030000Y-71250952D01*
X144030000Y-71108095D01*
X144058571Y-71060476D01*
X144087143Y-71036667D01*
X144144285Y-71012857D01*
X144258571Y-71012857D01*
X144315714Y-71036667D01*
D11*
X136513335Y-72806667D02*
X136489525Y-72782857D01*
X136441906Y-72711429D01*
X136418097Y-72663810D01*
X136394287Y-72592381D01*
X136370478Y-72473333D01*
X136370478Y-72378095D01*
X136394287Y-72259048D01*
X136418097Y-72187619D01*
X136441906Y-72140000D01*
X136489525Y-72068571D01*
X136513335Y-72044762D01*
X136703811Y-72616190D02*
X136703811Y-72116190D01*
X136870477Y-72473333D01*
X137037144Y-72116190D01*
X137037144Y-72616190D01*
X137489525Y-72616190D02*
X137489525Y-72354286D01*
X137465716Y-72306667D01*
X137418097Y-72282857D01*
X137322859Y-72282857D01*
X137275240Y-72306667D01*
X137489525Y-72592381D02*
X137441906Y-72616190D01*
X137322859Y-72616190D01*
X137275240Y-72592381D01*
X137251430Y-72544762D01*
X137251430Y-72497143D01*
X137275240Y-72449524D01*
X137322859Y-72425714D01*
X137441906Y-72425714D01*
X137489525Y-72401905D01*
X137680002Y-72282857D02*
X137799049Y-72616190D01*
X137918097Y-72282857D02*
X137799049Y-72616190D01*
X137751430Y-72735238D01*
X137727621Y-72759048D01*
X137680002Y-72782857D01*
X138465715Y-72163810D02*
X138489525Y-72140000D01*
X138537144Y-72116190D01*
X138656191Y-72116190D01*
X138703810Y-72140000D01*
X138727620Y-72163810D01*
X138751429Y-72211429D01*
X138751429Y-72259048D01*
X138727620Y-72330476D01*
X138441906Y-72616190D01*
X138751429Y-72616190D01*
X139060953Y-72116190D02*
X139108572Y-72116190D01*
X139156191Y-72140000D01*
X139180000Y-72163810D01*
X139203810Y-72211429D01*
X139227619Y-72306667D01*
X139227619Y-72425714D01*
X139203810Y-72520952D01*
X139180000Y-72568571D01*
X139156191Y-72592381D01*
X139108572Y-72616190D01*
X139060953Y-72616190D01*
X139013334Y-72592381D01*
X138989524Y-72568571D01*
X138965715Y-72520952D01*
X138941905Y-72425714D01*
X138941905Y-72306667D01*
X138965715Y-72211429D01*
X138989524Y-72163810D01*
X139013334Y-72140000D01*
X139060953Y-72116190D01*
X139703809Y-72616190D02*
X139418095Y-72616190D01*
X139560952Y-72616190D02*
X139560952Y-72116190D01*
X139513333Y-72187619D01*
X139465714Y-72235238D01*
X139418095Y-72259048D01*
X139870476Y-72116190D02*
X140203809Y-72116190D01*
X139989523Y-72616190D01*
X140346666Y-72806667D02*
X140370475Y-72782857D01*
X140418094Y-72711429D01*
X140441904Y-72663810D01*
X140465713Y-72592381D01*
X140489523Y-72473333D01*
X140489523Y-72378095D01*
X140465713Y-72259048D01*
X140441904Y-72187619D01*
X140418094Y-72140000D01*
X140370475Y-72068571D01*
X140346666Y-72044762D01*
D12*
X133446667Y-70438095D02*
X133013334Y-69819048D01*
X132703810Y-70438095D02*
X132703810Y-69138095D01*
X133199048Y-69138095D01*
X133322857Y-69200000D01*
X133384762Y-69261905D01*
X133446667Y-69385714D01*
X133446667Y-69571429D01*
X133384762Y-69695238D01*
X133322857Y-69757143D01*
X133199048Y-69819048D01*
X132703810Y-69819048D01*
X134499048Y-70376190D02*
X134375238Y-70438095D01*
X134127619Y-70438095D01*
X134003810Y-70376190D01*
X133941905Y-70252381D01*
X133941905Y-69757143D01*
X134003810Y-69633333D01*
X134127619Y-69571429D01*
X134375238Y-69571429D01*
X134499048Y-69633333D01*
X134560953Y-69757143D01*
X134560953Y-69880952D01*
X133941905Y-70004762D01*
X135675239Y-70438095D02*
X135675239Y-69757143D01*
X135613334Y-69633333D01*
X135489524Y-69571429D01*
X135241905Y-69571429D01*
X135118096Y-69633333D01*
X135675239Y-70376190D02*
X135551429Y-70438095D01*
X135241905Y-70438095D01*
X135118096Y-70376190D01*
X135056191Y-70252381D01*
X135056191Y-70128571D01*
X135118096Y-70004762D01*
X135241905Y-69942857D01*
X135551429Y-69942857D01*
X135675239Y-69880952D01*
X136851429Y-70376190D02*
X136727619Y-70438095D01*
X136480000Y-70438095D01*
X136356191Y-70376190D01*
X136294286Y-70314286D01*
X136232381Y-70190476D01*
X136232381Y-69819048D01*
X136294286Y-69695238D01*
X136356191Y-69633333D01*
X136480000Y-69571429D01*
X136727619Y-69571429D01*
X136851429Y-69633333D01*
X137222858Y-69571429D02*
X137718096Y-69571429D01*
X137408572Y-69138095D02*
X137408572Y-70252381D01*
X137470477Y-70376190D01*
X137594286Y-70438095D01*
X137718096Y-70438095D01*
X138337143Y-70438095D02*
X138213334Y-70376190D01*
X138151429Y-70314286D01*
X138089524Y-70190476D01*
X138089524Y-69819048D01*
X138151429Y-69695238D01*
X138213334Y-69633333D01*
X138337143Y-69571429D01*
X138522857Y-69571429D01*
X138646667Y-69633333D01*
X138708572Y-69695238D01*
X138770476Y-69819048D01*
X138770476Y-70190476D01*
X138708572Y-70314286D01*
X138646667Y-70376190D01*
X138522857Y-70438095D01*
X138337143Y-70438095D01*
X139327619Y-70438095D02*
X139327619Y-69571429D01*
X139327619Y-69819048D02*
X139389524Y-69695238D01*
X139451428Y-69633333D01*
X139575238Y-69571429D01*
X139699047Y-69571429D01*
X141370476Y-69138095D02*
X141618095Y-69138095D01*
X141741904Y-69200000D01*
X141865714Y-69323810D01*
X141927619Y-69571429D01*
X141927619Y-70004762D01*
X141865714Y-70252381D01*
X141741904Y-70376190D01*
X141618095Y-70438095D01*
X141370476Y-70438095D01*
X141246666Y-70376190D01*
X141122857Y-70252381D01*
X141060952Y-70004762D01*
X141060952Y-69571429D01*
X141122857Y-69323810D01*
X141246666Y-69200000D01*
X141370476Y-69138095D01*
X142484762Y-69571429D02*
X142484762Y-70438095D01*
X142484762Y-69695238D02*
X142546667Y-69633333D01*
X142670476Y-69571429D01*
X142856190Y-69571429D01*
X142980000Y-69633333D01*
X143041905Y-69757143D01*
X143041905Y-70438095D01*
X144156190Y-70376190D02*
X144032380Y-70438095D01*
X143784761Y-70438095D01*
X143660952Y-70376190D01*
X143599047Y-70252381D01*
X143599047Y-69757143D01*
X143660952Y-69633333D01*
X143784761Y-69571429D01*
X144032380Y-69571429D01*
X144156190Y-69633333D01*
X144218095Y-69757143D01*
X144218095Y-69880952D01*
X143599047Y-70004762D01*
D13*
X149860000Y-127000000D02*
G75*
G03X148590000Y-125730000I-1270000J0D01*
G01*
X148590000Y-128270000D02*
G75*
G03X149860000Y-127000000I0J1270000D01*
G01*
X148590000Y-121920000D02*
X148590000Y-132080000D01*
X148590000Y-132080000D02*
X168910000Y-132080000D01*
X168910000Y-132080000D02*
X168910000Y-121920000D01*
X168910000Y-121920000D02*
X148590000Y-121920000D01*
D14*
X125990000Y-76470000D02*
X148990000Y-76470000D01*
X148990000Y-76470000D02*
X148990000Y-114670000D01*
X148990000Y-114670000D02*
X125990000Y-114670000D01*
X125990000Y-114670000D02*
X125990000Y-76470000D01*
X130590000Y-79120000D02*
G75*
G03X130590000Y-79120000I-2000000J0D01*
G01*
X130640000Y-112120000D02*
G75*
G03X130640000Y-112120000I-2000000J0D01*
G01*
X148390000Y-79070000D02*
G75*
G03X148390000Y-79070000I-2000000J0D01*
G01*
X148390000Y-112120000D02*
G75*
G03X148390000Y-112120000I-2000000J0D01*
G01*
X171390000Y-64020000D02*
X180990000Y-64020000D01*
X180990000Y-64020000D02*
X180990000Y-71720000D01*
X171390000Y-71720000D02*
X180990000Y-71720000D01*
X171390000Y-71720000D02*
X171390000Y-64020000D01*
X176490000Y-71520000D02*
X177990000Y-71520000D01*
D15*
X145126900Y-111151000D02*
X186266900Y-111151000D01*
X186266900Y-111151000D02*
X186266900Y-120751000D01*
X186266900Y-120751000D02*
X145126900Y-120751000D01*
X145126900Y-120751000D02*
X145126900Y-111151000D01*
X123110000Y-108660000D02*
X123110000Y-106000000D01*
X123110000Y-106000000D02*
X120370000Y-106000000D01*
X120370000Y-106000000D02*
X120370000Y-108660000D01*
X120370000Y-108660000D02*
X123110000Y-108660000D01*
X120370000Y-107710000D02*
X120370000Y-106830000D01*
X120370000Y-106830000D02*
X114370000Y-106830000D01*
X114370000Y-106830000D02*
X114370000Y-107710000D01*
X114370000Y-107710000D02*
X120370000Y-107710000D01*
X123420000Y-107710000D02*
X123110000Y-107710000D01*
X123420000Y-106830000D02*
X123110000Y-106830000D01*
X120370000Y-107590000D02*
X114370000Y-107590000D01*
X120370000Y-107470000D02*
X114370000Y-107470000D01*
X120370000Y-107350000D02*
X114370000Y-107350000D01*
X120370000Y-107230000D02*
X114370000Y-107230000D01*
X120370000Y-107110000D02*
X114370000Y-107110000D01*
X120370000Y-106990000D02*
X114370000Y-106990000D01*
X120370000Y-106870000D02*
X114370000Y-106870000D01*
X123110000Y-106000000D02*
X123110000Y-103460000D01*
X123110000Y-103460000D02*
X120370000Y-103460000D01*
X120370000Y-103460000D02*
X120370000Y-106000000D01*
X120370000Y-106000000D02*
X123110000Y-106000000D01*
X120370000Y-105170000D02*
X120370000Y-104290000D01*
X120370000Y-104290000D02*
X114370000Y-104290000D01*
X114370000Y-104290000D02*
X114370000Y-105170000D01*
X114370000Y-105170000D02*
X120370000Y-105170000D01*
X123420000Y-105170000D02*
X123110000Y-105170000D01*
X123420000Y-104290000D02*
X123110000Y-104290000D01*
X123110000Y-103460000D02*
X123110000Y-100920000D01*
X123110000Y-100920000D02*
X120370000Y-100920000D01*
X120370000Y-100920000D02*
X120370000Y-103460000D01*
X120370000Y-103460000D02*
X123110000Y-103460000D01*
X120370000Y-102630000D02*
X120370000Y-101750000D01*
X120370000Y-101750000D02*
X114370000Y-101750000D01*
X114370000Y-101750000D02*
X114370000Y-102630000D01*
X114370000Y-102630000D02*
X120370000Y-102630000D01*
X123420000Y-102630000D02*
X123110000Y-102630000D01*
X123420000Y-101750000D02*
X123110000Y-101750000D01*
X123110000Y-100920000D02*
X123110000Y-98380000D01*
X123110000Y-98380000D02*
X120370000Y-98380000D01*
X120370000Y-98380000D02*
X120370000Y-100920000D01*
X120370000Y-100920000D02*
X123110000Y-100920000D01*
X120370000Y-100090000D02*
X120370000Y-99210000D01*
X120370000Y-99210000D02*
X114370000Y-99210000D01*
X114370000Y-99210000D02*
X114370000Y-100090000D01*
X114370000Y-100090000D02*
X120370000Y-100090000D01*
X123420000Y-100090000D02*
X123110000Y-100090000D01*
X123420000Y-99210000D02*
X123110000Y-99210000D01*
X123110000Y-98380000D02*
X123110000Y-95840000D01*
X123110000Y-95840000D02*
X120370000Y-95840000D01*
X120370000Y-95840000D02*
X120370000Y-98380000D01*
X120370000Y-98380000D02*
X123110000Y-98380000D01*
X120370000Y-97550000D02*
X120370000Y-96670000D01*
X120370000Y-96670000D02*
X114370000Y-96670000D01*
X114370000Y-96670000D02*
X114370000Y-97550000D01*
X114370000Y-97550000D02*
X120370000Y-97550000D01*
X123420000Y-97550000D02*
X123110000Y-97550000D01*
X123420000Y-96670000D02*
X123110000Y-96670000D01*
X123110000Y-95840000D02*
X123110000Y-93300000D01*
X123110000Y-93300000D02*
X120370000Y-93300000D01*
X120370000Y-93300000D02*
X120370000Y-95840000D01*
X120370000Y-95840000D02*
X123110000Y-95840000D01*
X120370000Y-95010000D02*
X120370000Y-94130000D01*
X120370000Y-94130000D02*
X114370000Y-94130000D01*
X114370000Y-94130000D02*
X114370000Y-95010000D01*
X114370000Y-95010000D02*
X120370000Y-95010000D01*
X123420000Y-95010000D02*
X123110000Y-95010000D01*
X123420000Y-94130000D02*
X123110000Y-94130000D01*
X123110000Y-93300000D02*
X123110000Y-90760000D01*
X123110000Y-90760000D02*
X120370000Y-90760000D01*
X120370000Y-90760000D02*
X120370000Y-93300000D01*
X120370000Y-93300000D02*
X123110000Y-93300000D01*
X120370000Y-92470000D02*
X120370000Y-91590000D01*
X120370000Y-91590000D02*
X114370000Y-91590000D01*
X114370000Y-91590000D02*
X114370000Y-92470000D01*
X114370000Y-92470000D02*
X120370000Y-92470000D01*
X123420000Y-92470000D02*
X123110000Y-92470000D01*
X123420000Y-91590000D02*
X123110000Y-91590000D01*
X123110000Y-90760000D02*
X123110000Y-88220000D01*
X123110000Y-88220000D02*
X120370000Y-88220000D01*
X120370000Y-88220000D02*
X120370000Y-90760000D01*
X120370000Y-90760000D02*
X123110000Y-90760000D01*
X120370000Y-89930000D02*
X120370000Y-89050000D01*
X120370000Y-89050000D02*
X114370000Y-89050000D01*
X114370000Y-89050000D02*
X114370000Y-89930000D01*
X114370000Y-89930000D02*
X120370000Y-89930000D01*
X123420000Y-89930000D02*
X123110000Y-89930000D01*
X123420000Y-89050000D02*
X123110000Y-89050000D01*
X123110000Y-88220000D02*
X123110000Y-85680000D01*
X123110000Y-85680000D02*
X120370000Y-85680000D01*
X120370000Y-85680000D02*
X120370000Y-88220000D01*
X120370000Y-88220000D02*
X123110000Y-88220000D01*
X120370000Y-87390000D02*
X120370000Y-86510000D01*
X120370000Y-86510000D02*
X114370000Y-86510000D01*
X114370000Y-86510000D02*
X114370000Y-87390000D01*
X114370000Y-87390000D02*
X120370000Y-87390000D01*
X123420000Y-87390000D02*
X123110000Y-87390000D01*
X123420000Y-86510000D02*
X123110000Y-86510000D01*
X123110000Y-85680000D02*
X123110000Y-83020000D01*
X123110000Y-83020000D02*
X120370000Y-83020000D01*
X120370000Y-83020000D02*
X120370000Y-85680000D01*
X120370000Y-85680000D02*
X123110000Y-85680000D01*
X120370000Y-84850000D02*
X120370000Y-83970000D01*
X120370000Y-83970000D02*
X114370000Y-83970000D01*
X114370000Y-83970000D02*
X114370000Y-84850000D01*
X114370000Y-84850000D02*
X120370000Y-84850000D01*
X123420000Y-84850000D02*
X123110000Y-84850000D01*
X123420000Y-83970000D02*
X123110000Y-83970000D01*
X125660000Y-107270000D02*
X125660000Y-108540000D01*
X125660000Y-108540000D02*
X124390000Y-108540000D01*
X179670000Y-72580000D02*
X149070000Y-72580000D01*
X149070000Y-72580000D02*
X149070000Y-75360000D01*
X149070000Y-75360000D02*
X179670000Y-75360000D01*
X179670000Y-75360000D02*
X179670000Y-72580000D01*
X180940000Y-72580000D02*
X182330000Y-72580000D01*
X182330000Y-72580000D02*
X182330000Y-73970000D01*
X181820000Y-106050000D02*
X181820000Y-112050000D01*
X181820000Y-112050000D02*
X189640000Y-112050000D01*
X189640000Y-112050000D02*
X189640000Y-106050000D01*
X189640000Y-106050000D02*
X181820000Y-106050000D01*
X183190000Y-112050000D02*
X183190000Y-111050000D01*
X183190000Y-111050000D02*
X188270000Y-111050000D01*
X188270000Y-111050000D02*
X188270000Y-112050000D01*
X183190000Y-111050000D02*
X183440000Y-110620000D01*
X183440000Y-110620000D02*
X188020000Y-110620000D01*
X188020000Y-110620000D02*
X188270000Y-111050000D01*
X183440000Y-112050000D02*
X183440000Y-111050000D01*
X188020000Y-112050000D02*
X188020000Y-111050000D01*
X182390000Y-106050000D02*
X182390000Y-106670000D01*
X182390000Y-106670000D02*
X183990000Y-106670000D01*
X183990000Y-106670000D02*
X183990000Y-106050000D01*
X184930000Y-106050000D02*
X184930000Y-106670000D01*
X184930000Y-106670000D02*
X186530000Y-106670000D01*
X186530000Y-106670000D02*
X186530000Y-106050000D01*
X187470000Y-106050000D02*
X187470000Y-106670000D01*
X187470000Y-106670000D02*
X189070000Y-106670000D01*
X189070000Y-106670000D02*
X189070000Y-106050000D01*
X169180000Y-66080000D02*
G75*
G02X169180000Y-64080000I0J1000000D01*
G01*
X169180000Y-64080000D02*
X169180000Y-62710000D01*
X169180000Y-62710000D02*
X148620000Y-62710000D01*
X148620000Y-62710000D02*
X148620000Y-67450000D01*
X148620000Y-67450000D02*
X169180000Y-67450000D01*
X169180000Y-67450000D02*
X169180000Y-66080000D01*
X164140000Y-92410000D02*
X164140000Y-94130000D01*
X164140000Y-94130000D02*
X167860000Y-94130000D01*
X167860000Y-94130000D02*
X167860000Y-92410000D01*
X167860000Y-92410000D02*
X164140000Y-92410000D01*
X163070000Y-93270000D02*
X164140000Y-93270000D01*
X168930000Y-93270000D02*
X167860000Y-93270000D01*
X152740000Y-92410000D02*
X152740000Y-94130000D01*
X152740000Y-94130000D02*
X156460000Y-94130000D01*
X156460000Y-94130000D02*
X156460000Y-92410000D01*
X156460000Y-92410000D02*
X152740000Y-92410000D01*
X151670000Y-93270000D02*
X152740000Y-93270000D01*
X157530000Y-93270000D02*
X156460000Y-93270000D01*
X156640000Y-98730000D02*
X156640000Y-97010000D01*
X156640000Y-97010000D02*
X152920000Y-97010000D01*
X152920000Y-97010000D02*
X152920000Y-98730000D01*
X152920000Y-98730000D02*
X156640000Y-98730000D01*
X157710000Y-97870000D02*
X156640000Y-97870000D01*
X151850000Y-97870000D02*
X152920000Y-97870000D01*
D16*
X167670000Y-91740000D02*
X157510000Y-91740000D01*
X157510000Y-89200000D02*
X167670000Y-89200000D01*
X167670000Y-89200000D02*
X167670000Y-91740000D01*
X158780000Y-90470000D02*
G75*
G03X157510000Y-89200000I-1270000J0D01*
G01*
X157510000Y-91740000D02*
G75*
G03X158780000Y-90470000I0J1270000D01*
G01*
X157510000Y-89200000D02*
X157510000Y-91740000D01*
X160070000Y-91740000D02*
X149910000Y-91740000D01*
X149910000Y-89200000D02*
X160070000Y-89200000D01*
X160070000Y-89200000D02*
X160070000Y-91740000D01*
X151180000Y-90470000D02*
G75*
G03X149910000Y-89200000I-1270000J0D01*
G01*
X149910000Y-91740000D02*
G75*
G03X151180000Y-90470000I0J1270000D01*
G01*
X149910000Y-89200000D02*
X149910000Y-91740000D01*
X167470000Y-101740000D02*
X157310000Y-101740000D01*
X157310000Y-99200000D02*
X167470000Y-99200000D01*
X167470000Y-99200000D02*
X167470000Y-101740000D01*
X158580000Y-100470000D02*
G75*
G03X157310000Y-99200000I-1270000J0D01*
G01*
X157310000Y-101740000D02*
G75*
G03X158580000Y-100470000I0J1270000D01*
G01*
X157310000Y-99200000D02*
X157310000Y-101740000D01*
X159870000Y-101740000D02*
X149710000Y-101740000D01*
X149710000Y-99200000D02*
X159870000Y-99200000D01*
X159870000Y-99200000D02*
X159870000Y-101740000D01*
X150980000Y-100470000D02*
G75*
G03X149710000Y-99200000I-1270000J0D01*
G01*
X149710000Y-101740000D02*
G75*
G03X150980000Y-100470000I0J1270000D01*
G01*
X149710000Y-99200000D02*
X149710000Y-101740000D01*
D15*
X163940000Y-102010000D02*
X163940000Y-103730000D01*
X163940000Y-103730000D02*
X167660000Y-103730000D01*
X167660000Y-103730000D02*
X167660000Y-102010000D01*
X167660000Y-102010000D02*
X163940000Y-102010000D01*
X162870000Y-102870000D02*
X163940000Y-102870000D01*
X168730000Y-102870000D02*
X167660000Y-102870000D01*
X152940000Y-102410000D02*
X152940000Y-104130000D01*
X152940000Y-104130000D02*
X156660000Y-104130000D01*
X156660000Y-104130000D02*
X156660000Y-102410000D01*
X156660000Y-102410000D02*
X152940000Y-102410000D01*
X151870000Y-103270000D02*
X152940000Y-103270000D01*
X157730000Y-103270000D02*
X156660000Y-103270000D01*
X167640000Y-98730000D02*
X167640000Y-97010000D01*
X167640000Y-97010000D02*
X163920000Y-97010000D01*
X163920000Y-97010000D02*
X163920000Y-98730000D01*
X163920000Y-98730000D02*
X167640000Y-98730000D01*
X168710000Y-97870000D02*
X167640000Y-97870000D01*
X162850000Y-97870000D02*
X163920000Y-97870000D01*
X163940000Y-87010000D02*
X163940000Y-88730000D01*
X163940000Y-88730000D02*
X167660000Y-88730000D01*
X167660000Y-88730000D02*
X167660000Y-87010000D01*
X167660000Y-87010000D02*
X163940000Y-87010000D01*
X162870000Y-87870000D02*
X163940000Y-87870000D01*
X168730000Y-87870000D02*
X167660000Y-87870000D01*
X156640000Y-88730000D02*
X156640000Y-87010000D01*
X156640000Y-87010000D02*
X152920000Y-87010000D01*
X152920000Y-87010000D02*
X152920000Y-88730000D01*
X152920000Y-88730000D02*
X156640000Y-88730000D01*
X157710000Y-87870000D02*
X156640000Y-87870000D01*
X151850000Y-87870000D02*
X152920000Y-87870000D01*
D17*
X158169429Y-120232714D02*
X158169429Y-120849571D01*
X158205714Y-120922143D01*
X158242000Y-120958429D01*
X158314571Y-120994714D01*
X158459714Y-120994714D01*
X158532286Y-120958429D01*
X158568571Y-120922143D01*
X158604857Y-120849571D01*
X158604857Y-120232714D01*
X158895143Y-120232714D02*
X159366857Y-120232714D01*
X159112857Y-120523000D01*
X159221715Y-120523000D01*
X159294286Y-120559286D01*
X159330572Y-120595571D01*
X159366857Y-120668143D01*
X159366857Y-120849571D01*
X159330572Y-120922143D01*
X159294286Y-120958429D01*
X159221715Y-120994714D01*
X159004000Y-120994714D01*
X158931429Y-120958429D01*
X158895143Y-120922143D01*
D14*
X150842381Y-87631905D02*
X151651905Y-87631905D01*
X151747143Y-87584286D01*
X151794762Y-87536667D01*
X151842381Y-87441429D01*
X151842381Y-87250952D01*
X151794762Y-87155714D01*
X151747143Y-87108095D01*
X151651905Y-87060476D01*
X150842381Y-87060476D01*
X151842381Y-86060476D02*
X151842381Y-86631905D01*
X151842381Y-86346191D02*
X150842381Y-86346191D01*
X150985238Y-86441429D01*
X151080476Y-86536667D01*
X151128095Y-86631905D01*
X169109105Y-65019981D02*
X169109105Y-64019981D01*
X169490058Y-64019981D01*
X169585296Y-64067600D01*
X169632915Y-64115219D01*
X169680534Y-64210457D01*
X169680534Y-64353314D01*
X169632915Y-64448552D01*
X169585296Y-64496171D01*
X169490058Y-64543790D01*
X169109105Y-64543790D01*
X170585296Y-64019981D02*
X170109105Y-64019981D01*
X170061486Y-64496171D01*
X170109105Y-64448552D01*
X170204343Y-64400933D01*
X170442439Y-64400933D01*
X170537677Y-64448552D01*
X170585296Y-64496171D01*
X170632915Y-64591410D01*
X170632915Y-64829505D01*
X170585296Y-64924743D01*
X170537677Y-64972362D01*
X170442439Y-65019981D01*
X170204343Y-65019981D01*
X170109105Y-64972362D01*
X170061486Y-64924743D01*
D18*
X174273334Y-69396190D02*
X174440001Y-69896190D01*
X174606667Y-69396190D01*
X174940000Y-69634286D02*
X175011429Y-69658095D01*
X175035238Y-69681905D01*
X175059048Y-69729524D01*
X175059048Y-69800952D01*
X175035238Y-69848571D01*
X175011429Y-69872381D01*
X174963810Y-69896190D01*
X174773334Y-69896190D01*
X174773334Y-69396190D01*
X174940000Y-69396190D01*
X174987619Y-69420000D01*
X175011429Y-69443810D01*
X175035238Y-69491429D01*
X175035238Y-69539048D01*
X175011429Y-69586667D01*
X174987619Y-69610476D01*
X174940000Y-69634286D01*
X174773334Y-69634286D01*
X175273334Y-69396190D02*
X175273334Y-69800952D01*
X175297143Y-69848571D01*
X175320953Y-69872381D01*
X175368572Y-69896190D01*
X175463810Y-69896190D01*
X175511429Y-69872381D01*
X175535238Y-69848571D01*
X175559048Y-69800952D01*
X175559048Y-69396190D01*
X175773334Y-69872381D02*
X175844763Y-69896190D01*
X175963810Y-69896190D01*
X176011429Y-69872381D01*
X176035239Y-69848571D01*
X176059048Y-69800952D01*
X176059048Y-69753333D01*
X176035239Y-69705714D01*
X176011429Y-69681905D01*
X175963810Y-69658095D01*
X175868572Y-69634286D01*
X175820953Y-69610476D01*
X175797144Y-69586667D01*
X175773334Y-69539048D01*
X175773334Y-69491429D01*
X175797144Y-69443810D01*
X175820953Y-69420000D01*
X175868572Y-69396190D01*
X175987620Y-69396190D01*
X176059048Y-69420000D01*
X174349524Y-68896190D02*
X174349524Y-68396190D01*
X174468571Y-68396190D01*
X174540000Y-68420000D01*
X174587619Y-68467619D01*
X174611428Y-68515238D01*
X174635238Y-68610476D01*
X174635238Y-68681905D01*
X174611428Y-68777143D01*
X174587619Y-68824762D01*
X174540000Y-68872381D01*
X174468571Y-68896190D01*
X174349524Y-68896190D01*
X174849524Y-68705714D02*
X175230476Y-68705714D01*
X174349524Y-68096190D02*
X174349524Y-67596190D01*
X174468571Y-67596190D01*
X174540000Y-67620000D01*
X174587619Y-67667619D01*
X174611428Y-67715238D01*
X174635238Y-67810476D01*
X174635238Y-67881905D01*
X174611428Y-67977143D01*
X174587619Y-68024762D01*
X174540000Y-68072381D01*
X174468571Y-68096190D01*
X174349524Y-68096190D01*
X174849524Y-67905714D02*
X175230476Y-67905714D01*
X175040000Y-68096190D02*
X175040000Y-67715238D01*
X174340001Y-67296190D02*
X174340001Y-66796190D01*
X174578096Y-67296190D02*
X174578096Y-66796190D01*
X174697143Y-66796190D01*
X174768572Y-66820000D01*
X174816191Y-66867619D01*
X174840000Y-66915238D01*
X174863810Y-67010476D01*
X174863810Y-67081905D01*
X174840000Y-67177143D01*
X174816191Y-67224762D01*
X174768572Y-67272381D01*
X174697143Y-67296190D01*
X174578096Y-67296190D01*
X174409047Y-65820000D02*
X174361428Y-65796190D01*
X174290000Y-65796190D01*
X174218571Y-65820000D01*
X174170952Y-65867619D01*
X174147143Y-65915238D01*
X174123333Y-66010476D01*
X174123333Y-66081905D01*
X174147143Y-66177143D01*
X174170952Y-66224762D01*
X174218571Y-66272381D01*
X174290000Y-66296190D01*
X174337619Y-66296190D01*
X174409047Y-66272381D01*
X174432857Y-66248571D01*
X174432857Y-66081905D01*
X174337619Y-66081905D01*
X174647143Y-66296190D02*
X174647143Y-65796190D01*
X174932857Y-66296190D01*
X174932857Y-65796190D01*
X175170953Y-66296190D02*
X175170953Y-65796190D01*
X175290000Y-65796190D01*
X175361429Y-65820000D01*
X175409048Y-65867619D01*
X175432857Y-65915238D01*
X175456667Y-66010476D01*
X175456667Y-66081905D01*
X175432857Y-66177143D01*
X175409048Y-66224762D01*
X175361429Y-66272381D01*
X175290000Y-66296190D01*
X175170953Y-66296190D01*
D14*
X164958805Y-110053381D02*
X164958805Y-109053381D01*
X165339758Y-109053381D01*
X165434996Y-109101000D01*
X165482615Y-109148619D01*
X165530234Y-109243857D01*
X165530234Y-109386714D01*
X165482615Y-109481952D01*
X165434996Y-109529571D01*
X165339758Y-109577190D01*
X164958805Y-109577190D01*
X166482615Y-110053381D02*
X165911186Y-110053381D01*
X166196900Y-110053381D02*
X166196900Y-109053381D01*
X166101662Y-109196238D01*
X166006424Y-109291476D01*
X165911186Y-109339095D01*
D15*
X150762615Y-119393381D02*
X150191186Y-119393381D01*
X150476900Y-119393381D02*
X150476900Y-118393381D01*
X150381662Y-118536238D01*
X150286424Y-118631476D01*
X150191186Y-118679095D01*
D14*
X126601905Y-108322381D02*
X126601905Y-107322381D01*
X126982858Y-107322381D01*
X127078096Y-107370000D01*
X127125715Y-107417619D01*
X127173334Y-107512857D01*
X127173334Y-107655714D01*
X127125715Y-107750952D01*
X127078096Y-107798571D01*
X126982858Y-107846190D01*
X126601905Y-107846190D01*
X127554286Y-107417619D02*
X127601905Y-107370000D01*
X127697143Y-107322381D01*
X127935239Y-107322381D01*
X128030477Y-107370000D01*
X128078096Y-107417619D01*
X128125715Y-107512857D01*
X128125715Y-107608095D01*
X128078096Y-107750952D01*
X127506667Y-108322381D01*
X128125715Y-108322381D01*
X182951905Y-74522381D02*
X182951905Y-73522381D01*
X183332858Y-73522381D01*
X183428096Y-73570000D01*
X183475715Y-73617619D01*
X183523334Y-73712857D01*
X183523334Y-73855714D01*
X183475715Y-73950952D01*
X183428096Y-73998571D01*
X183332858Y-74046190D01*
X182951905Y-74046190D01*
X183856667Y-73522381D02*
X184475715Y-73522381D01*
X184142381Y-73903333D01*
X184285239Y-73903333D01*
X184380477Y-73950952D01*
X184428096Y-73998571D01*
X184475715Y-74093810D01*
X184475715Y-74331905D01*
X184428096Y-74427143D01*
X184380477Y-74474762D01*
X184285239Y-74522381D01*
X183999524Y-74522381D01*
X183904286Y-74474762D01*
X183856667Y-74427143D01*
X183451905Y-105022381D02*
X183451905Y-104022381D01*
X183832858Y-104022381D01*
X183928096Y-104070000D01*
X183975715Y-104117619D01*
X184023334Y-104212857D01*
X184023334Y-104355714D01*
X183975715Y-104450952D01*
X183928096Y-104498571D01*
X183832858Y-104546190D01*
X183451905Y-104546190D01*
X184880477Y-104022381D02*
X184690000Y-104022381D01*
X184594762Y-104070000D01*
X184547143Y-104117619D01*
X184451905Y-104260476D01*
X184404286Y-104450952D01*
X184404286Y-104831905D01*
X184451905Y-104927143D01*
X184499524Y-104974762D01*
X184594762Y-105022381D01*
X184785239Y-105022381D01*
X184880477Y-104974762D01*
X184928096Y-104927143D01*
X184975715Y-104831905D01*
X184975715Y-104593810D01*
X184928096Y-104498571D01*
X184880477Y-104450952D01*
X184785239Y-104403333D01*
X184594762Y-104403333D01*
X184499524Y-104450952D01*
X184451905Y-104498571D01*
X184404286Y-104593810D01*
X169632381Y-65841905D02*
X170441905Y-65841905D01*
X170537143Y-65794286D01*
X170584762Y-65746667D01*
X170632381Y-65651429D01*
X170632381Y-65460952D01*
X170584762Y-65365714D01*
X170537143Y-65318095D01*
X170441905Y-65270476D01*
X169632381Y-65270476D01*
X169727619Y-64841905D02*
X169680000Y-64794286D01*
X169632381Y-64699048D01*
X169632381Y-64460952D01*
X169680000Y-64365714D01*
X169727619Y-64318095D01*
X169822857Y-64270476D01*
X169918095Y-64270476D01*
X170060952Y-64318095D01*
X170632381Y-64889524D01*
X170632381Y-64270476D01*
X165833334Y-91862381D02*
X165500000Y-91386190D01*
X165261905Y-91862381D02*
X165261905Y-90862381D01*
X165642858Y-90862381D01*
X165738096Y-90910000D01*
X165785715Y-90957619D01*
X165833334Y-91052857D01*
X165833334Y-91195714D01*
X165785715Y-91290952D01*
X165738096Y-91338571D01*
X165642858Y-91386190D01*
X165261905Y-91386190D01*
X166785715Y-91862381D02*
X166214286Y-91862381D01*
X166500000Y-91862381D02*
X166500000Y-90862381D01*
X166404762Y-91005238D01*
X166309524Y-91100476D01*
X166214286Y-91148095D01*
X154433334Y-91862381D02*
X154100000Y-91386190D01*
X153861905Y-91862381D02*
X153861905Y-90862381D01*
X154242858Y-90862381D01*
X154338096Y-90910000D01*
X154385715Y-90957619D01*
X154433334Y-91052857D01*
X154433334Y-91195714D01*
X154385715Y-91290952D01*
X154338096Y-91338571D01*
X154242858Y-91386190D01*
X153861905Y-91386190D01*
X154766667Y-90862381D02*
X155385715Y-90862381D01*
X155052381Y-91243333D01*
X155195239Y-91243333D01*
X155290477Y-91290952D01*
X155338096Y-91338571D01*
X155385715Y-91433810D01*
X155385715Y-91671905D01*
X155338096Y-91767143D01*
X155290477Y-91814762D01*
X155195239Y-91862381D01*
X154909524Y-91862381D01*
X154814286Y-91814762D01*
X154766667Y-91767143D01*
X154613334Y-100182381D02*
X154280000Y-99706190D01*
X154041905Y-100182381D02*
X154041905Y-99182381D01*
X154422858Y-99182381D01*
X154518096Y-99230000D01*
X154565715Y-99277619D01*
X154613334Y-99372857D01*
X154613334Y-99515714D01*
X154565715Y-99610952D01*
X154518096Y-99658571D01*
X154422858Y-99706190D01*
X154041905Y-99706190D01*
X154946667Y-99182381D02*
X155613334Y-99182381D01*
X155184762Y-100182381D01*
D17*
X162027572Y-93354714D02*
X162027572Y-92592714D01*
X162209000Y-92592714D01*
X162317857Y-92629000D01*
X162390429Y-92701571D01*
X162426714Y-92774143D01*
X162463000Y-92919286D01*
X162463000Y-93028143D01*
X162426714Y-93173286D01*
X162390429Y-93245857D01*
X162317857Y-93318429D01*
X162209000Y-93354714D01*
X162027572Y-93354714D01*
X163188714Y-93354714D02*
X162753286Y-93354714D01*
X162971000Y-93354714D02*
X162971000Y-92592714D01*
X162898429Y-92701571D01*
X162825857Y-92774143D01*
X162753286Y-92810429D01*
X154427572Y-93354714D02*
X154427572Y-92592714D01*
X154609000Y-92592714D01*
X154717857Y-92629000D01*
X154790429Y-92701571D01*
X154826714Y-92774143D01*
X154863000Y-92919286D01*
X154863000Y-93028143D01*
X154826714Y-93173286D01*
X154790429Y-93245857D01*
X154717857Y-93318429D01*
X154609000Y-93354714D01*
X154427572Y-93354714D01*
X155153286Y-92665286D02*
X155189572Y-92629000D01*
X155262143Y-92592714D01*
X155443572Y-92592714D01*
X155516143Y-92629000D01*
X155552429Y-92665286D01*
X155588714Y-92737857D01*
X155588714Y-92810429D01*
X155552429Y-92919286D01*
X155117000Y-93354714D01*
X155588714Y-93354714D01*
X161827572Y-103354714D02*
X161827572Y-102592714D01*
X162009000Y-102592714D01*
X162117857Y-102629000D01*
X162190429Y-102701571D01*
X162226714Y-102774143D01*
X162263000Y-102919286D01*
X162263000Y-103028143D01*
X162226714Y-103173286D01*
X162190429Y-103245857D01*
X162117857Y-103318429D01*
X162009000Y-103354714D01*
X161827572Y-103354714D01*
X162517000Y-102592714D02*
X162988714Y-102592714D01*
X162734714Y-102883000D01*
X162843572Y-102883000D01*
X162916143Y-102919286D01*
X162952429Y-102955571D01*
X162988714Y-103028143D01*
X162988714Y-103209571D01*
X162952429Y-103282143D01*
X162916143Y-103318429D01*
X162843572Y-103354714D01*
X162625857Y-103354714D01*
X162553286Y-103318429D01*
X162517000Y-103282143D01*
X154227572Y-103354714D02*
X154227572Y-102592714D01*
X154409000Y-102592714D01*
X154517857Y-102629000D01*
X154590429Y-102701571D01*
X154626714Y-102774143D01*
X154663000Y-102919286D01*
X154663000Y-103028143D01*
X154626714Y-103173286D01*
X154590429Y-103245857D01*
X154517857Y-103318429D01*
X154409000Y-103354714D01*
X154227572Y-103354714D01*
X155316143Y-102846714D02*
X155316143Y-103354714D01*
X155134714Y-102556429D02*
X154953286Y-103100714D01*
X155425000Y-103100714D01*
D14*
X165633334Y-101462381D02*
X165300000Y-100986190D01*
X165061905Y-101462381D02*
X165061905Y-100462381D01*
X165442858Y-100462381D01*
X165538096Y-100510000D01*
X165585715Y-100557619D01*
X165633334Y-100652857D01*
X165633334Y-100795714D01*
X165585715Y-100890952D01*
X165538096Y-100938571D01*
X165442858Y-100986190D01*
X165061905Y-100986190D01*
X166014286Y-100557619D02*
X166061905Y-100510000D01*
X166157143Y-100462381D01*
X166395239Y-100462381D01*
X166490477Y-100510000D01*
X166538096Y-100557619D01*
X166585715Y-100652857D01*
X166585715Y-100748095D01*
X166538096Y-100890952D01*
X165966667Y-101462381D01*
X166585715Y-101462381D01*
X154633334Y-101862381D02*
X154300000Y-101386190D01*
X154061905Y-101862381D02*
X154061905Y-100862381D01*
X154442858Y-100862381D01*
X154538096Y-100910000D01*
X154585715Y-100957619D01*
X154633334Y-101052857D01*
X154633334Y-101195714D01*
X154585715Y-101290952D01*
X154538096Y-101338571D01*
X154442858Y-101386190D01*
X154061905Y-101386190D01*
X155490477Y-101195714D02*
X155490477Y-101862381D01*
X155252381Y-100814762D02*
X155014286Y-101529048D01*
X155633334Y-101529048D01*
X165613334Y-100182381D02*
X165280000Y-99706190D01*
X165041905Y-100182381D02*
X165041905Y-99182381D01*
X165422858Y-99182381D01*
X165518096Y-99230000D01*
X165565715Y-99277619D01*
X165613334Y-99372857D01*
X165613334Y-99515714D01*
X165565715Y-99610952D01*
X165518096Y-99658571D01*
X165422858Y-99706190D01*
X165041905Y-99706190D01*
X166518096Y-99182381D02*
X166041905Y-99182381D01*
X165994286Y-99658571D01*
X166041905Y-99610952D01*
X166137143Y-99563333D01*
X166375239Y-99563333D01*
X166470477Y-99610952D01*
X166518096Y-99658571D01*
X166565715Y-99753810D01*
X166565715Y-99991905D01*
X166518096Y-100087143D01*
X166470477Y-100134762D01*
X166375239Y-100182381D01*
X166137143Y-100182381D01*
X166041905Y-100134762D01*
X165994286Y-100087143D01*
X165633334Y-86462381D02*
X165300000Y-85986190D01*
X165061905Y-86462381D02*
X165061905Y-85462381D01*
X165442858Y-85462381D01*
X165538096Y-85510000D01*
X165585715Y-85557619D01*
X165633334Y-85652857D01*
X165633334Y-85795714D01*
X165585715Y-85890952D01*
X165538096Y-85938571D01*
X165442858Y-85986190D01*
X165061905Y-85986190D01*
X166490477Y-85462381D02*
X166300000Y-85462381D01*
X166204762Y-85510000D01*
X166157143Y-85557619D01*
X166061905Y-85700476D01*
X166014286Y-85890952D01*
X166014286Y-86271905D01*
X166061905Y-86367143D01*
X166109524Y-86414762D01*
X166204762Y-86462381D01*
X166395239Y-86462381D01*
X166490477Y-86414762D01*
X166538096Y-86367143D01*
X166585715Y-86271905D01*
X166585715Y-86033810D01*
X166538096Y-85938571D01*
X166490477Y-85890952D01*
X166395239Y-85843333D01*
X166204762Y-85843333D01*
X166109524Y-85890952D01*
X166061905Y-85938571D01*
X166014286Y-86033810D01*
X154613334Y-90182381D02*
X154280000Y-89706190D01*
X154041905Y-90182381D02*
X154041905Y-89182381D01*
X154422858Y-89182381D01*
X154518096Y-89230000D01*
X154565715Y-89277619D01*
X154613334Y-89372857D01*
X154613334Y-89515714D01*
X154565715Y-89610952D01*
X154518096Y-89658571D01*
X154422858Y-89706190D01*
X154041905Y-89706190D01*
X155184762Y-89610952D02*
X155089524Y-89563333D01*
X155041905Y-89515714D01*
X154994286Y-89420476D01*
X154994286Y-89372857D01*
X155041905Y-89277619D01*
X155089524Y-89230000D01*
X155184762Y-89182381D01*
X155375239Y-89182381D01*
X155470477Y-89230000D01*
X155518096Y-89277619D01*
X155565715Y-89372857D01*
X155565715Y-89420476D01*
X155518096Y-89515714D01*
X155470477Y-89563333D01*
X155375239Y-89610952D01*
X155184762Y-89610952D01*
X155089524Y-89658571D01*
X155041905Y-89706190D01*
X154994286Y-89801429D01*
X154994286Y-89991905D01*
X155041905Y-90087143D01*
X155089524Y-90134762D01*
X155184762Y-90182381D01*
X155375239Y-90182381D01*
X155470477Y-90134762D01*
X155518096Y-90087143D01*
X155565715Y-89991905D01*
X155565715Y-89801429D01*
X155518096Y-89706190D01*
X155470477Y-89658571D01*
X155375239Y-89610952D01*
M02*
