G04 #@! TF.FileFunction,Other,Fab,Top*
%FSLAX46Y46*%
G04 Gerber Fmt 4.6, Leading zero omitted, Abs format (unit mm)*
G04 Created by KiCad (PCBNEW 4.0.5-e0-6337~49~ubuntu16.04.1) date Thu Jan 26 21:30:25 2017*
%MOMM*%
%LPD*%
G01*
G04 APERTURE LIST*
%ADD10C,0.100000*%
%ADD11C,0.150000*%
G04 APERTURE END LIST*
D10*
X145376900Y-111401000D02*
X186016900Y-111401000D01*
X145916900Y-111951000D02*
X185456900Y-111951000D01*
X145376900Y-120501000D02*
X186016900Y-120501000D01*
X145916900Y-119951000D02*
X163446900Y-119951000D01*
X167946900Y-119951000D02*
X185456900Y-119951000D01*
X163446900Y-119951000D02*
X163446900Y-120501000D01*
X167946900Y-119951000D02*
X167946900Y-120501000D01*
X145376900Y-111401000D02*
X145376900Y-120501000D01*
X145916900Y-111951000D02*
X145916900Y-119951000D01*
X186016900Y-111401000D02*
X186016900Y-120501000D01*
X185456900Y-111951000D02*
X185456900Y-119951000D01*
X145376900Y-111401000D02*
X145916900Y-111951000D01*
X186016900Y-111401000D02*
X185456900Y-111951000D01*
X145376900Y-120501000D02*
X145916900Y-119951000D01*
X186016900Y-120501000D02*
X185456900Y-119951000D01*
X157011200Y-122647200D02*
X157011200Y-124247200D01*
X157011200Y-124247200D02*
X160611200Y-124247200D01*
X160611200Y-124247200D02*
X160611200Y-122647200D01*
X160611200Y-122647200D02*
X157011200Y-122647200D01*
X155001200Y-123447200D02*
X157011200Y-123447200D01*
X162621200Y-123447200D02*
X160611200Y-123447200D01*
X157011200Y-125247200D02*
X157011200Y-126847200D01*
X157011200Y-126847200D02*
X160611200Y-126847200D01*
X160611200Y-126847200D02*
X160611200Y-125247200D01*
X160611200Y-125247200D02*
X157011200Y-125247200D01*
X155001200Y-126047200D02*
X157011200Y-126047200D01*
X162621200Y-126047200D02*
X160611200Y-126047200D01*
X157011200Y-130247200D02*
X157011200Y-131847200D01*
X157011200Y-131847200D02*
X160611200Y-131847200D01*
X160611200Y-131847200D02*
X160611200Y-130247200D01*
X160611200Y-130247200D02*
X157011200Y-130247200D01*
X155001200Y-131047200D02*
X157011200Y-131047200D01*
X162621200Y-131047200D02*
X160611200Y-131047200D01*
X157011200Y-127747200D02*
X157011200Y-129347200D01*
X157011200Y-129347200D02*
X160611200Y-129347200D01*
X160611200Y-129347200D02*
X160611200Y-127747200D01*
X160611200Y-127747200D02*
X157011200Y-127747200D01*
X155001200Y-128547200D02*
X157011200Y-128547200D01*
X162621200Y-128547200D02*
X160611200Y-128547200D01*
X152812862Y-91716139D02*
G75*
G03X152813200Y-89063350I2000338J1326139D01*
G01*
X156813200Y-90390000D02*
G75*
G03X156813200Y-90390000I-2000000J0D01*
G01*
X152813200Y-89063350D02*
X152813200Y-91716650D01*
X162812862Y-91716139D02*
G75*
G03X162813200Y-89063350I2000338J1326139D01*
G01*
X166813200Y-90390000D02*
G75*
G03X166813200Y-90390000I-2000000J0D01*
G01*
X162813200Y-89063350D02*
X162813200Y-91716650D01*
X162812862Y-101716139D02*
G75*
G03X162813200Y-99063350I2000338J1326139D01*
G01*
X166813200Y-100390000D02*
G75*
G03X166813200Y-100390000I-2000000J0D01*
G01*
X162813200Y-99063350D02*
X162813200Y-101716650D01*
X152812862Y-101716139D02*
G75*
G03X152813200Y-99063350I2000338J1326139D01*
G01*
X156813200Y-100390000D02*
G75*
G03X156813200Y-100390000I-2000000J0D01*
G01*
X152813200Y-99063350D02*
X152813200Y-101716650D01*
X124390000Y-108440000D02*
X124390000Y-105900000D01*
X124390000Y-105900000D02*
X121890000Y-105900000D01*
X121890000Y-105900000D02*
X121890000Y-108440000D01*
X121890000Y-108440000D02*
X124390000Y-108440000D01*
X125790000Y-107490000D02*
X125790000Y-106850000D01*
X125790000Y-106850000D02*
X115890000Y-106850000D01*
X115890000Y-106850000D02*
X115890000Y-107490000D01*
X115890000Y-107490000D02*
X125790000Y-107490000D01*
X124390000Y-105900000D02*
X124390000Y-103360000D01*
X124390000Y-103360000D02*
X121890000Y-103360000D01*
X121890000Y-103360000D02*
X121890000Y-105900000D01*
X121890000Y-105900000D02*
X124390000Y-105900000D01*
X125790000Y-104950000D02*
X125790000Y-104310000D01*
X125790000Y-104310000D02*
X115890000Y-104310000D01*
X115890000Y-104310000D02*
X115890000Y-104950000D01*
X115890000Y-104950000D02*
X125790000Y-104950000D01*
X124390000Y-103360000D02*
X124390000Y-100820000D01*
X124390000Y-100820000D02*
X121890000Y-100820000D01*
X121890000Y-100820000D02*
X121890000Y-103360000D01*
X121890000Y-103360000D02*
X124390000Y-103360000D01*
X125790000Y-102410000D02*
X125790000Y-101770000D01*
X125790000Y-101770000D02*
X115890000Y-101770000D01*
X115890000Y-101770000D02*
X115890000Y-102410000D01*
X115890000Y-102410000D02*
X125790000Y-102410000D01*
X124390000Y-100820000D02*
X124390000Y-98280000D01*
X124390000Y-98280000D02*
X121890000Y-98280000D01*
X121890000Y-98280000D02*
X121890000Y-100820000D01*
X121890000Y-100820000D02*
X124390000Y-100820000D01*
X125790000Y-99870000D02*
X125790000Y-99230000D01*
X125790000Y-99230000D02*
X115890000Y-99230000D01*
X115890000Y-99230000D02*
X115890000Y-99870000D01*
X115890000Y-99870000D02*
X125790000Y-99870000D01*
X124390000Y-98280000D02*
X124390000Y-95740000D01*
X124390000Y-95740000D02*
X121890000Y-95740000D01*
X121890000Y-95740000D02*
X121890000Y-98280000D01*
X121890000Y-98280000D02*
X124390000Y-98280000D01*
X125790000Y-97330000D02*
X125790000Y-96690000D01*
X125790000Y-96690000D02*
X115890000Y-96690000D01*
X115890000Y-96690000D02*
X115890000Y-97330000D01*
X115890000Y-97330000D02*
X125790000Y-97330000D01*
X124390000Y-95740000D02*
X124390000Y-93200000D01*
X124390000Y-93200000D02*
X121890000Y-93200000D01*
X121890000Y-93200000D02*
X121890000Y-95740000D01*
X121890000Y-95740000D02*
X124390000Y-95740000D01*
X125790000Y-94790000D02*
X125790000Y-94150000D01*
X125790000Y-94150000D02*
X115890000Y-94150000D01*
X115890000Y-94150000D02*
X115890000Y-94790000D01*
X115890000Y-94790000D02*
X125790000Y-94790000D01*
X124390000Y-93200000D02*
X124390000Y-90660000D01*
X124390000Y-90660000D02*
X121890000Y-90660000D01*
X121890000Y-90660000D02*
X121890000Y-93200000D01*
X121890000Y-93200000D02*
X124390000Y-93200000D01*
X125790000Y-92250000D02*
X125790000Y-91610000D01*
X125790000Y-91610000D02*
X115890000Y-91610000D01*
X115890000Y-91610000D02*
X115890000Y-92250000D01*
X115890000Y-92250000D02*
X125790000Y-92250000D01*
X124390000Y-90660000D02*
X124390000Y-88120000D01*
X124390000Y-88120000D02*
X121890000Y-88120000D01*
X121890000Y-88120000D02*
X121890000Y-90660000D01*
X121890000Y-90660000D02*
X124390000Y-90660000D01*
X125790000Y-89710000D02*
X125790000Y-89070000D01*
X125790000Y-89070000D02*
X115890000Y-89070000D01*
X115890000Y-89070000D02*
X115890000Y-89710000D01*
X115890000Y-89710000D02*
X125790000Y-89710000D01*
X124390000Y-88120000D02*
X124390000Y-85580000D01*
X124390000Y-85580000D02*
X121890000Y-85580000D01*
X121890000Y-85580000D02*
X121890000Y-88120000D01*
X121890000Y-88120000D02*
X124390000Y-88120000D01*
X125790000Y-87170000D02*
X125790000Y-86530000D01*
X125790000Y-86530000D02*
X115890000Y-86530000D01*
X115890000Y-86530000D02*
X115890000Y-87170000D01*
X115890000Y-87170000D02*
X125790000Y-87170000D01*
X124390000Y-85580000D02*
X124390000Y-83040000D01*
X124390000Y-83040000D02*
X121890000Y-83040000D01*
X121890000Y-83040000D02*
X121890000Y-85580000D01*
X121890000Y-85580000D02*
X124390000Y-85580000D01*
X125790000Y-84630000D02*
X125790000Y-83990000D01*
X125790000Y-83990000D02*
X115890000Y-83990000D01*
X115890000Y-83990000D02*
X115890000Y-84630000D01*
X115890000Y-84630000D02*
X125790000Y-84630000D01*
X182210000Y-72700000D02*
X149190000Y-72700000D01*
X149190000Y-72700000D02*
X149190000Y-75240000D01*
X149190000Y-75240000D02*
X182210000Y-75240000D01*
X182210000Y-75240000D02*
X182210000Y-72700000D01*
D11*
X189256668Y-109886667D02*
X189256668Y-110453333D01*
X189290001Y-110520000D01*
X189323334Y-110553333D01*
X189390001Y-110586667D01*
X189523334Y-110586667D01*
X189590001Y-110553333D01*
X189623334Y-110520000D01*
X189656668Y-110453333D01*
X189656668Y-109886667D01*
X189956667Y-110553333D02*
X190056667Y-110586667D01*
X190223334Y-110586667D01*
X190290001Y-110553333D01*
X190323334Y-110520000D01*
X190356667Y-110453333D01*
X190356667Y-110386667D01*
X190323334Y-110320000D01*
X190290001Y-110286667D01*
X190223334Y-110253333D01*
X190090001Y-110220000D01*
X190023334Y-110186667D01*
X189990001Y-110153333D01*
X189956667Y-110086667D01*
X189956667Y-110020000D01*
X189990001Y-109953333D01*
X190023334Y-109920000D01*
X190090001Y-109886667D01*
X190256667Y-109886667D01*
X190356667Y-109920000D01*
X190890001Y-110220000D02*
X190990001Y-110253333D01*
X191023334Y-110286667D01*
X191056668Y-110353333D01*
X191056668Y-110453333D01*
X191023334Y-110520000D01*
X190990001Y-110553333D01*
X190923334Y-110586667D01*
X190656668Y-110586667D01*
X190656668Y-109886667D01*
X190890001Y-109886667D01*
X190956668Y-109920000D01*
X190990001Y-109953333D01*
X191023334Y-110020000D01*
X191023334Y-110086667D01*
X190990001Y-110153333D01*
X190956668Y-110186667D01*
X190890001Y-110220000D01*
X190656668Y-110220000D01*
X191190001Y-110653333D02*
X191723334Y-110653333D01*
X192023334Y-109886667D02*
X192156667Y-109886667D01*
X192223334Y-109920000D01*
X192290001Y-109986667D01*
X192323334Y-110120000D01*
X192323334Y-110353333D01*
X192290001Y-110486667D01*
X192223334Y-110553333D01*
X192156667Y-110586667D01*
X192023334Y-110586667D01*
X191956667Y-110553333D01*
X191890001Y-110486667D01*
X191856667Y-110353333D01*
X191856667Y-110120000D01*
X191890001Y-109986667D01*
X191956667Y-109920000D01*
X192023334Y-109886667D01*
X192523334Y-109886667D02*
X192923334Y-109886667D01*
X192723334Y-110586667D02*
X192723334Y-109886667D01*
X193523333Y-109920000D02*
X193456667Y-109886667D01*
X193356667Y-109886667D01*
X193256667Y-109920000D01*
X193190000Y-109986667D01*
X193156667Y-110053333D01*
X193123333Y-110186667D01*
X193123333Y-110286667D01*
X193156667Y-110420000D01*
X193190000Y-110486667D01*
X193256667Y-110553333D01*
X193356667Y-110586667D01*
X193423333Y-110586667D01*
X193523333Y-110553333D01*
X193556667Y-110520000D01*
X193556667Y-110286667D01*
X193423333Y-110286667D01*
X153966191Y-110227143D02*
X153918572Y-110274762D01*
X153775715Y-110322381D01*
X153680477Y-110322381D01*
X153537619Y-110274762D01*
X153442381Y-110179524D01*
X153394762Y-110084286D01*
X153347143Y-109893810D01*
X153347143Y-109750952D01*
X153394762Y-109560476D01*
X153442381Y-109465238D01*
X153537619Y-109370000D01*
X153680477Y-109322381D01*
X153775715Y-109322381D01*
X153918572Y-109370000D01*
X153966191Y-109417619D01*
X154585238Y-109322381D02*
X154775715Y-109322381D01*
X154870953Y-109370000D01*
X154966191Y-109465238D01*
X155013810Y-109655714D01*
X155013810Y-109989048D01*
X154966191Y-110179524D01*
X154870953Y-110274762D01*
X154775715Y-110322381D01*
X154585238Y-110322381D01*
X154490000Y-110274762D01*
X154394762Y-110179524D01*
X154347143Y-109989048D01*
X154347143Y-109655714D01*
X154394762Y-109465238D01*
X154490000Y-109370000D01*
X154585238Y-109322381D01*
X155442381Y-110322381D02*
X155442381Y-109322381D01*
X156013810Y-110322381D01*
X156013810Y-109322381D01*
X156490000Y-110322381D02*
X156490000Y-109322381D01*
X157061429Y-110322381D01*
X157061429Y-109322381D01*
X157299524Y-110417619D02*
X158061429Y-110417619D01*
X158490000Y-109322381D02*
X158585239Y-109322381D01*
X158680477Y-109370000D01*
X158728096Y-109417619D01*
X158775715Y-109512857D01*
X158823334Y-109703333D01*
X158823334Y-109941429D01*
X158775715Y-110131905D01*
X158728096Y-110227143D01*
X158680477Y-110274762D01*
X158585239Y-110322381D01*
X158490000Y-110322381D01*
X158394762Y-110274762D01*
X158347143Y-110227143D01*
X158299524Y-110131905D01*
X158251905Y-109941429D01*
X158251905Y-109703333D01*
X158299524Y-109512857D01*
X158347143Y-109417619D01*
X158394762Y-109370000D01*
X158490000Y-109322381D01*
X159204286Y-109417619D02*
X159251905Y-109370000D01*
X159347143Y-109322381D01*
X159585239Y-109322381D01*
X159680477Y-109370000D01*
X159728096Y-109417619D01*
X159775715Y-109512857D01*
X159775715Y-109608095D01*
X159728096Y-109750952D01*
X159156667Y-110322381D01*
X159775715Y-110322381D01*
X160109048Y-109322381D02*
X160775715Y-110322381D01*
X160775715Y-109322381D02*
X160109048Y-110322381D01*
X161680477Y-110322381D02*
X161109048Y-110322381D01*
X161394762Y-110322381D02*
X161394762Y-109322381D01*
X161299524Y-109465238D01*
X161204286Y-109560476D01*
X161109048Y-109608095D01*
X162013810Y-109322381D02*
X162632858Y-109322381D01*
X162299524Y-109703333D01*
X162442382Y-109703333D01*
X162537620Y-109750952D01*
X162585239Y-109798571D01*
X162632858Y-109893810D01*
X162632858Y-110131905D01*
X162585239Y-110227143D01*
X162537620Y-110274762D01*
X162442382Y-110322381D01*
X162156667Y-110322381D01*
X162061429Y-110274762D01*
X162013810Y-110227143D01*
X159120724Y-125759581D02*
X158787390Y-125283390D01*
X158549295Y-125759581D02*
X158549295Y-124759581D01*
X158930248Y-124759581D01*
X159025486Y-124807200D01*
X159073105Y-124854819D01*
X159120724Y-124950057D01*
X159120724Y-125092914D01*
X159073105Y-125188152D01*
X159025486Y-125235771D01*
X158930248Y-125283390D01*
X158549295Y-125283390D01*
X159120724Y-128359581D02*
X158787390Y-127883390D01*
X158549295Y-128359581D02*
X158549295Y-127359581D01*
X158930248Y-127359581D01*
X159025486Y-127407200D01*
X159073105Y-127454819D01*
X159120724Y-127550057D01*
X159120724Y-127692914D01*
X159073105Y-127788152D01*
X159025486Y-127835771D01*
X158930248Y-127883390D01*
X158549295Y-127883390D01*
X159120724Y-133359581D02*
X158787390Y-132883390D01*
X158549295Y-133359581D02*
X158549295Y-132359581D01*
X158930248Y-132359581D01*
X159025486Y-132407200D01*
X159073105Y-132454819D01*
X159120724Y-132550057D01*
X159120724Y-132692914D01*
X159073105Y-132788152D01*
X159025486Y-132835771D01*
X158930248Y-132883390D01*
X158549295Y-132883390D01*
X159120724Y-130859581D02*
X158787390Y-130383390D01*
X158549295Y-130859581D02*
X158549295Y-129859581D01*
X158930248Y-129859581D01*
X159025486Y-129907200D01*
X159073105Y-129954819D01*
X159120724Y-130050057D01*
X159120724Y-130192914D01*
X159073105Y-130288152D01*
X159025486Y-130335771D01*
X158930248Y-130383390D01*
X158549295Y-130383390D01*
X154170343Y-94302381D02*
X153694152Y-94302381D01*
X153694152Y-93302381D01*
X154503676Y-93778571D02*
X154837010Y-93778571D01*
X154979867Y-94302381D02*
X154503676Y-94302381D01*
X154503676Y-93302381D01*
X154979867Y-93302381D01*
X155408438Y-94302381D02*
X155408438Y-93302381D01*
X155646533Y-93302381D01*
X155789391Y-93350000D01*
X155884629Y-93445238D01*
X155932248Y-93540476D01*
X155979867Y-93730952D01*
X155979867Y-93873810D01*
X155932248Y-94064286D01*
X155884629Y-94159524D01*
X155789391Y-94254762D01*
X155646533Y-94302381D01*
X155408438Y-94302381D01*
X164170343Y-94302381D02*
X163694152Y-94302381D01*
X163694152Y-93302381D01*
X164503676Y-93778571D02*
X164837010Y-93778571D01*
X164979867Y-94302381D02*
X164503676Y-94302381D01*
X164503676Y-93302381D01*
X164979867Y-93302381D01*
X165408438Y-94302381D02*
X165408438Y-93302381D01*
X165646533Y-93302381D01*
X165789391Y-93350000D01*
X165884629Y-93445238D01*
X165932248Y-93540476D01*
X165979867Y-93730952D01*
X165979867Y-93873810D01*
X165932248Y-94064286D01*
X165884629Y-94159524D01*
X165789391Y-94254762D01*
X165646533Y-94302381D01*
X165408438Y-94302381D01*
X164170343Y-104302381D02*
X163694152Y-104302381D01*
X163694152Y-103302381D01*
X164503676Y-103778571D02*
X164837010Y-103778571D01*
X164979867Y-104302381D02*
X164503676Y-104302381D01*
X164503676Y-103302381D01*
X164979867Y-103302381D01*
X165408438Y-104302381D02*
X165408438Y-103302381D01*
X165646533Y-103302381D01*
X165789391Y-103350000D01*
X165884629Y-103445238D01*
X165932248Y-103540476D01*
X165979867Y-103730952D01*
X165979867Y-103873810D01*
X165932248Y-104064286D01*
X165884629Y-104159524D01*
X165789391Y-104254762D01*
X165646533Y-104302381D01*
X165408438Y-104302381D01*
X154170343Y-104302381D02*
X153694152Y-104302381D01*
X153694152Y-103302381D01*
X154503676Y-103778571D02*
X154837010Y-103778571D01*
X154979867Y-104302381D02*
X154503676Y-104302381D01*
X154503676Y-103302381D01*
X154979867Y-103302381D01*
X155408438Y-104302381D02*
X155408438Y-103302381D01*
X155646533Y-103302381D01*
X155789391Y-103350000D01*
X155884629Y-103445238D01*
X155932248Y-103540476D01*
X155979867Y-103730952D01*
X155979867Y-103873810D01*
X155932248Y-104064286D01*
X155884629Y-104159524D01*
X155789391Y-104254762D01*
X155646533Y-104302381D01*
X155408438Y-104302381D01*
X123766191Y-82177143D02*
X123718572Y-82224762D01*
X123575715Y-82272381D01*
X123480477Y-82272381D01*
X123337619Y-82224762D01*
X123242381Y-82129524D01*
X123194762Y-82034286D01*
X123147143Y-81843810D01*
X123147143Y-81700952D01*
X123194762Y-81510476D01*
X123242381Y-81415238D01*
X123337619Y-81320000D01*
X123480477Y-81272381D01*
X123575715Y-81272381D01*
X123718572Y-81320000D01*
X123766191Y-81367619D01*
X124385238Y-81272381D02*
X124575715Y-81272381D01*
X124670953Y-81320000D01*
X124766191Y-81415238D01*
X124813810Y-81605714D01*
X124813810Y-81939048D01*
X124766191Y-82129524D01*
X124670953Y-82224762D01*
X124575715Y-82272381D01*
X124385238Y-82272381D01*
X124290000Y-82224762D01*
X124194762Y-82129524D01*
X124147143Y-81939048D01*
X124147143Y-81605714D01*
X124194762Y-81415238D01*
X124290000Y-81320000D01*
X124385238Y-81272381D01*
X125242381Y-82272381D02*
X125242381Y-81272381D01*
X125813810Y-82272381D01*
X125813810Y-81272381D01*
X126290000Y-82272381D02*
X126290000Y-81272381D01*
X126861429Y-82272381D01*
X126861429Y-81272381D01*
X127099524Y-82367619D02*
X127861429Y-82367619D01*
X128290000Y-81272381D02*
X128385239Y-81272381D01*
X128480477Y-81320000D01*
X128528096Y-81367619D01*
X128575715Y-81462857D01*
X128623334Y-81653333D01*
X128623334Y-81891429D01*
X128575715Y-82081905D01*
X128528096Y-82177143D01*
X128480477Y-82224762D01*
X128385239Y-82272381D01*
X128290000Y-82272381D01*
X128194762Y-82224762D01*
X128147143Y-82177143D01*
X128099524Y-82081905D01*
X128051905Y-81891429D01*
X128051905Y-81653333D01*
X128099524Y-81462857D01*
X128147143Y-81367619D01*
X128194762Y-81320000D01*
X128290000Y-81272381D01*
X129575715Y-82272381D02*
X129004286Y-82272381D01*
X129290000Y-82272381D02*
X129290000Y-81272381D01*
X129194762Y-81415238D01*
X129099524Y-81510476D01*
X129004286Y-81558095D01*
X129909048Y-81272381D02*
X130575715Y-82272381D01*
X130575715Y-81272381D02*
X129909048Y-82272381D01*
X131480477Y-82272381D02*
X130909048Y-82272381D01*
X131194762Y-82272381D02*
X131194762Y-81272381D01*
X131099524Y-81415238D01*
X131004286Y-81510476D01*
X130909048Y-81558095D01*
X132099524Y-81272381D02*
X132194763Y-81272381D01*
X132290001Y-81320000D01*
X132337620Y-81367619D01*
X132385239Y-81462857D01*
X132432858Y-81653333D01*
X132432858Y-81891429D01*
X132385239Y-82081905D01*
X132337620Y-82177143D01*
X132290001Y-82224762D01*
X132194763Y-82272381D01*
X132099524Y-82272381D01*
X132004286Y-82224762D01*
X131956667Y-82177143D01*
X131909048Y-82081905D01*
X131861429Y-81891429D01*
X131861429Y-81653333D01*
X131909048Y-81462857D01*
X131956667Y-81367619D01*
X132004286Y-81320000D01*
X132099524Y-81272381D01*
X159466191Y-76577143D02*
X159418572Y-76624762D01*
X159275715Y-76672381D01*
X159180477Y-76672381D01*
X159037619Y-76624762D01*
X158942381Y-76529524D01*
X158894762Y-76434286D01*
X158847143Y-76243810D01*
X158847143Y-76100952D01*
X158894762Y-75910476D01*
X158942381Y-75815238D01*
X159037619Y-75720000D01*
X159180477Y-75672381D01*
X159275715Y-75672381D01*
X159418572Y-75720000D01*
X159466191Y-75767619D01*
X160085238Y-75672381D02*
X160275715Y-75672381D01*
X160370953Y-75720000D01*
X160466191Y-75815238D01*
X160513810Y-76005714D01*
X160513810Y-76339048D01*
X160466191Y-76529524D01*
X160370953Y-76624762D01*
X160275715Y-76672381D01*
X160085238Y-76672381D01*
X159990000Y-76624762D01*
X159894762Y-76529524D01*
X159847143Y-76339048D01*
X159847143Y-76005714D01*
X159894762Y-75815238D01*
X159990000Y-75720000D01*
X160085238Y-75672381D01*
X160942381Y-76672381D02*
X160942381Y-75672381D01*
X161513810Y-76672381D01*
X161513810Y-75672381D01*
X161990000Y-76672381D02*
X161990000Y-75672381D01*
X162561429Y-76672381D01*
X162561429Y-75672381D01*
X162799524Y-76767619D02*
X163561429Y-76767619D01*
X163990000Y-75672381D02*
X164085239Y-75672381D01*
X164180477Y-75720000D01*
X164228096Y-75767619D01*
X164275715Y-75862857D01*
X164323334Y-76053333D01*
X164323334Y-76291429D01*
X164275715Y-76481905D01*
X164228096Y-76577143D01*
X164180477Y-76624762D01*
X164085239Y-76672381D01*
X163990000Y-76672381D01*
X163894762Y-76624762D01*
X163847143Y-76577143D01*
X163799524Y-76481905D01*
X163751905Y-76291429D01*
X163751905Y-76053333D01*
X163799524Y-75862857D01*
X163847143Y-75767619D01*
X163894762Y-75720000D01*
X163990000Y-75672381D01*
X165275715Y-76672381D02*
X164704286Y-76672381D01*
X164990000Y-76672381D02*
X164990000Y-75672381D01*
X164894762Y-75815238D01*
X164799524Y-75910476D01*
X164704286Y-75958095D01*
X165609048Y-75672381D02*
X166275715Y-76672381D01*
X166275715Y-75672381D02*
X165609048Y-76672381D01*
X167180477Y-76672381D02*
X166609048Y-76672381D01*
X166894762Y-76672381D02*
X166894762Y-75672381D01*
X166799524Y-75815238D01*
X166704286Y-75910476D01*
X166609048Y-75958095D01*
X167513810Y-75672381D02*
X168132858Y-75672381D01*
X167799524Y-76053333D01*
X167942382Y-76053333D01*
X168037620Y-76100952D01*
X168085239Y-76148571D01*
X168132858Y-76243810D01*
X168132858Y-76481905D01*
X168085239Y-76577143D01*
X168037620Y-76624762D01*
X167942382Y-76672381D01*
X167656667Y-76672381D01*
X167561429Y-76624762D01*
X167513810Y-76577143D01*
M02*
