G04 #@! TF.FileFunction,Soldermask,Top*
%FSLAX46Y46*%
G04 Gerber Fmt 4.6, Leading zero omitted, Abs format (unit mm)*
G04 Created by KiCad (PCBNEW 4.0.6-e0-6349~52~ubuntu16.10.1) date Tue Jun 20 22:28:44 2017*
%MOMM*%
%LPD*%
G01*
G04 APERTURE LIST*
%ADD10C,0.100000*%
%ADD11R,2.200000X1.000000*%
%ADD12C,1.000000*%
%ADD13R,1.800000X1.800000*%
%ADD14C,1.800000*%
%ADD15R,1.727200X1.727200*%
%ADD16O,1.727200X1.727200*%
%ADD17R,1.700000X1.700000*%
%ADD18O,1.700000X1.700000*%
%ADD19R,2.000000X2.600000*%
%ADD20O,2.000000X2.600000*%
%ADD21R,1.600000X2.400000*%
%ADD22O,1.600000X2.400000*%
%ADD23C,1.400000*%
%ADD24O,1.400000X1.400000*%
%ADD25O,1.998980X1.998980*%
%ADD26R,1.998980X1.998980*%
%ADD27R,2.600000X2.000000*%
%ADD28O,2.600000X2.000000*%
%ADD29C,2.200000*%
G04 APERTURE END LIST*
D10*
D11*
X177240000Y-71520000D03*
D12*
X172190000Y-66270000D03*
X173390000Y-67070000D03*
X172190000Y-67870000D03*
X173390000Y-68670000D03*
X172190000Y-69470000D03*
D11*
X177240000Y-64220000D03*
D13*
X149860000Y-130810000D03*
D14*
X152400000Y-130810000D03*
X157480000Y-130810000D03*
X160020000Y-130810000D03*
X162560000Y-130810000D03*
X165100000Y-130810000D03*
X167640000Y-130810000D03*
X167640000Y-123190000D03*
X165100000Y-123190000D03*
X162560000Y-123190000D03*
X160020000Y-123190000D03*
X157480000Y-123190000D03*
X154940000Y-123190000D03*
X152400000Y-123190000D03*
X149860000Y-123190000D03*
X154940000Y-130810000D03*
D15*
X150456900Y-117221000D03*
D16*
X150456900Y-114681000D03*
X152996900Y-117221000D03*
X152996900Y-114681000D03*
X155536900Y-117221000D03*
X155536900Y-114681000D03*
X158076900Y-117221000D03*
X158076900Y-114681000D03*
X160616900Y-117221000D03*
X160616900Y-114681000D03*
X163156900Y-117221000D03*
X163156900Y-114681000D03*
X165696900Y-117221000D03*
X165696900Y-114681000D03*
X168236900Y-117221000D03*
X168236900Y-114681000D03*
X170776900Y-117221000D03*
X170776900Y-114681000D03*
X173316900Y-117221000D03*
X173316900Y-114681000D03*
X175856900Y-117221000D03*
X175856900Y-114681000D03*
X178396900Y-117221000D03*
X178396900Y-114681000D03*
X180936900Y-117221000D03*
X180936900Y-114681000D03*
D17*
X124390000Y-107270000D03*
D18*
X124390000Y-104730000D03*
X124390000Y-102190000D03*
X124390000Y-99650000D03*
X124390000Y-97110000D03*
X124390000Y-94570000D03*
X124390000Y-92030000D03*
X124390000Y-89490000D03*
X124390000Y-86950000D03*
X124390000Y-84410000D03*
D17*
X180940000Y-73970000D03*
D18*
X178400000Y-73970000D03*
X175860000Y-73970000D03*
X173320000Y-73970000D03*
X170780000Y-73970000D03*
X168240000Y-73970000D03*
X165700000Y-73970000D03*
X163160000Y-73970000D03*
X160620000Y-73970000D03*
X158080000Y-73970000D03*
X155540000Y-73970000D03*
X153000000Y-73970000D03*
X150460000Y-73970000D03*
D19*
X183190000Y-109070000D03*
D20*
X185730000Y-109070000D03*
X188270000Y-109070000D03*
D21*
X167790000Y-61270000D03*
D22*
X150010000Y-68890000D03*
X165250000Y-61270000D03*
X152550000Y-68890000D03*
X162710000Y-61270000D03*
X155090000Y-68890000D03*
X160170000Y-61270000D03*
X157630000Y-68890000D03*
X157630000Y-61270000D03*
X160170000Y-68890000D03*
X155090000Y-61270000D03*
X162710000Y-68890000D03*
X152550000Y-61270000D03*
X165250000Y-68890000D03*
X150010000Y-61270000D03*
X167790000Y-68890000D03*
D23*
X162190000Y-93270000D03*
D24*
X169810000Y-93270000D03*
D23*
X150790000Y-93270000D03*
D24*
X158410000Y-93270000D03*
D23*
X158590000Y-97870000D03*
D24*
X150970000Y-97870000D03*
D14*
X165130000Y-90470000D03*
D13*
X160050000Y-90470000D03*
D14*
X162590000Y-90470000D03*
X157530000Y-90470000D03*
D13*
X152450000Y-90470000D03*
D14*
X154990000Y-90470000D03*
X164930000Y-100470000D03*
D13*
X159850000Y-100470000D03*
D14*
X162390000Y-100470000D03*
X157330000Y-100470000D03*
D13*
X152250000Y-100470000D03*
D14*
X154790000Y-100470000D03*
D23*
X161990000Y-102870000D03*
D24*
X169610000Y-102870000D03*
D23*
X150990000Y-103270000D03*
D24*
X158610000Y-103270000D03*
D23*
X169590000Y-97870000D03*
D24*
X161970000Y-97870000D03*
D23*
X161990000Y-87870000D03*
D24*
X169610000Y-87870000D03*
D23*
X158590000Y-87870000D03*
D24*
X150970000Y-87870000D03*
D13*
X174625000Y-97028000D03*
D14*
X174625000Y-94488000D03*
D25*
X143002000Y-117246400D03*
D26*
X143002000Y-119786400D03*
D27*
X147574000Y-105918000D03*
D28*
X147574000Y-103378000D03*
X147574000Y-100838000D03*
X147574000Y-98298000D03*
X147574000Y-95758000D03*
X147574000Y-93218000D03*
X147574000Y-90678000D03*
X147574000Y-88138000D03*
X147574000Y-85598000D03*
X147574000Y-83058000D03*
D27*
X127254000Y-105918000D03*
D28*
X127254000Y-103378000D03*
X127254000Y-100838000D03*
X127254000Y-98298000D03*
X127254000Y-95758000D03*
X127254000Y-93218000D03*
X127254000Y-90678000D03*
X127254000Y-88138000D03*
X127254000Y-85598000D03*
X127254000Y-83058000D03*
D29*
X138938000Y-67564000D03*
X178333400Y-67564000D03*
X138938000Y-122961400D03*
X178308000Y-122936000D03*
M02*
