G04 #@! TF.FileFunction,Other,Fab,Top*
%FSLAX46Y46*%
G04 Gerber Fmt 4.6, Leading zero omitted, Abs format (unit mm)*
G04 Created by KiCad (PCBNEW 4.0.5-e0-6337~49~ubuntu16.04.1) date Sat Apr 29 17:25:50 2017*
%MOMM*%
%LPD*%
G01*
G04 APERTURE LIST*
%ADD10C,0.100000*%
%ADD11C,0.150000*%
G04 APERTURE END LIST*
D10*
X145376900Y-111401000D02*
X186016900Y-111401000D01*
X145916900Y-111951000D02*
X185456900Y-111951000D01*
X145376900Y-120501000D02*
X186016900Y-120501000D01*
X145916900Y-119951000D02*
X163446900Y-119951000D01*
X167946900Y-119951000D02*
X185456900Y-119951000D01*
X163446900Y-119951000D02*
X163446900Y-120501000D01*
X167946900Y-119951000D02*
X167946900Y-120501000D01*
X145376900Y-111401000D02*
X145376900Y-120501000D01*
X145916900Y-111951000D02*
X145916900Y-119951000D01*
X186016900Y-111401000D02*
X186016900Y-120501000D01*
X185456900Y-111951000D02*
X185456900Y-119951000D01*
X145376900Y-111401000D02*
X145916900Y-111951000D01*
X186016900Y-111401000D02*
X185456900Y-111951000D01*
X145376900Y-120501000D02*
X145916900Y-119951000D01*
X186016900Y-120501000D02*
X185456900Y-119951000D01*
X122990000Y-108540000D02*
X122990000Y-106000000D01*
X122990000Y-106000000D02*
X120490000Y-106000000D01*
X120490000Y-106000000D02*
X120490000Y-108540000D01*
X120490000Y-108540000D02*
X122990000Y-108540000D01*
X124390000Y-107590000D02*
X124390000Y-106950000D01*
X124390000Y-106950000D02*
X114490000Y-106950000D01*
X114490000Y-106950000D02*
X114490000Y-107590000D01*
X114490000Y-107590000D02*
X124390000Y-107590000D01*
X122990000Y-106000000D02*
X122990000Y-103460000D01*
X122990000Y-103460000D02*
X120490000Y-103460000D01*
X120490000Y-103460000D02*
X120490000Y-106000000D01*
X120490000Y-106000000D02*
X122990000Y-106000000D01*
X124390000Y-105050000D02*
X124390000Y-104410000D01*
X124390000Y-104410000D02*
X114490000Y-104410000D01*
X114490000Y-104410000D02*
X114490000Y-105050000D01*
X114490000Y-105050000D02*
X124390000Y-105050000D01*
X122990000Y-103460000D02*
X122990000Y-100920000D01*
X122990000Y-100920000D02*
X120490000Y-100920000D01*
X120490000Y-100920000D02*
X120490000Y-103460000D01*
X120490000Y-103460000D02*
X122990000Y-103460000D01*
X124390000Y-102510000D02*
X124390000Y-101870000D01*
X124390000Y-101870000D02*
X114490000Y-101870000D01*
X114490000Y-101870000D02*
X114490000Y-102510000D01*
X114490000Y-102510000D02*
X124390000Y-102510000D01*
X122990000Y-100920000D02*
X122990000Y-98380000D01*
X122990000Y-98380000D02*
X120490000Y-98380000D01*
X120490000Y-98380000D02*
X120490000Y-100920000D01*
X120490000Y-100920000D02*
X122990000Y-100920000D01*
X124390000Y-99970000D02*
X124390000Y-99330000D01*
X124390000Y-99330000D02*
X114490000Y-99330000D01*
X114490000Y-99330000D02*
X114490000Y-99970000D01*
X114490000Y-99970000D02*
X124390000Y-99970000D01*
X122990000Y-98380000D02*
X122990000Y-95840000D01*
X122990000Y-95840000D02*
X120490000Y-95840000D01*
X120490000Y-95840000D02*
X120490000Y-98380000D01*
X120490000Y-98380000D02*
X122990000Y-98380000D01*
X124390000Y-97430000D02*
X124390000Y-96790000D01*
X124390000Y-96790000D02*
X114490000Y-96790000D01*
X114490000Y-96790000D02*
X114490000Y-97430000D01*
X114490000Y-97430000D02*
X124390000Y-97430000D01*
X122990000Y-95840000D02*
X122990000Y-93300000D01*
X122990000Y-93300000D02*
X120490000Y-93300000D01*
X120490000Y-93300000D02*
X120490000Y-95840000D01*
X120490000Y-95840000D02*
X122990000Y-95840000D01*
X124390000Y-94890000D02*
X124390000Y-94250000D01*
X124390000Y-94250000D02*
X114490000Y-94250000D01*
X114490000Y-94250000D02*
X114490000Y-94890000D01*
X114490000Y-94890000D02*
X124390000Y-94890000D01*
X122990000Y-93300000D02*
X122990000Y-90760000D01*
X122990000Y-90760000D02*
X120490000Y-90760000D01*
X120490000Y-90760000D02*
X120490000Y-93300000D01*
X120490000Y-93300000D02*
X122990000Y-93300000D01*
X124390000Y-92350000D02*
X124390000Y-91710000D01*
X124390000Y-91710000D02*
X114490000Y-91710000D01*
X114490000Y-91710000D02*
X114490000Y-92350000D01*
X114490000Y-92350000D02*
X124390000Y-92350000D01*
X122990000Y-90760000D02*
X122990000Y-88220000D01*
X122990000Y-88220000D02*
X120490000Y-88220000D01*
X120490000Y-88220000D02*
X120490000Y-90760000D01*
X120490000Y-90760000D02*
X122990000Y-90760000D01*
X124390000Y-89810000D02*
X124390000Y-89170000D01*
X124390000Y-89170000D02*
X114490000Y-89170000D01*
X114490000Y-89170000D02*
X114490000Y-89810000D01*
X114490000Y-89810000D02*
X124390000Y-89810000D01*
X122990000Y-88220000D02*
X122990000Y-85680000D01*
X122990000Y-85680000D02*
X120490000Y-85680000D01*
X120490000Y-85680000D02*
X120490000Y-88220000D01*
X120490000Y-88220000D02*
X122990000Y-88220000D01*
X124390000Y-87270000D02*
X124390000Y-86630000D01*
X124390000Y-86630000D02*
X114490000Y-86630000D01*
X114490000Y-86630000D02*
X114490000Y-87270000D01*
X114490000Y-87270000D02*
X124390000Y-87270000D01*
X122990000Y-85680000D02*
X122990000Y-83140000D01*
X122990000Y-83140000D02*
X120490000Y-83140000D01*
X120490000Y-83140000D02*
X120490000Y-85680000D01*
X120490000Y-85680000D02*
X122990000Y-85680000D01*
X124390000Y-84730000D02*
X124390000Y-84090000D01*
X124390000Y-84090000D02*
X114490000Y-84090000D01*
X114490000Y-84090000D02*
X114490000Y-84730000D01*
X114490000Y-84730000D02*
X124390000Y-84730000D01*
X182210000Y-72700000D02*
X149190000Y-72700000D01*
X149190000Y-72700000D02*
X149190000Y-75240000D01*
X149190000Y-75240000D02*
X182210000Y-75240000D01*
X182210000Y-75240000D02*
X182210000Y-72700000D01*
X169060000Y-62905000D02*
X169060000Y-68255000D01*
X169060000Y-68255000D02*
X148740000Y-68255000D01*
X148740000Y-68255000D02*
X148740000Y-61905000D01*
X148740000Y-61905000D02*
X168060000Y-61905000D01*
X168060000Y-61905000D02*
X169060000Y-62905000D01*
X164200000Y-92470000D02*
X164200000Y-94070000D01*
X164200000Y-94070000D02*
X167800000Y-94070000D01*
X167800000Y-94070000D02*
X167800000Y-92470000D01*
X167800000Y-92470000D02*
X164200000Y-92470000D01*
X162190000Y-93270000D02*
X164200000Y-93270000D01*
X169810000Y-93270000D02*
X167800000Y-93270000D01*
X152800000Y-92470000D02*
X152800000Y-94070000D01*
X152800000Y-94070000D02*
X156400000Y-94070000D01*
X156400000Y-94070000D02*
X156400000Y-92470000D01*
X156400000Y-92470000D02*
X152800000Y-92470000D01*
X150790000Y-93270000D02*
X152800000Y-93270000D01*
X158410000Y-93270000D02*
X156400000Y-93270000D01*
X156580000Y-98670000D02*
X156580000Y-97070000D01*
X156580000Y-97070000D02*
X152980000Y-97070000D01*
X152980000Y-97070000D02*
X152980000Y-98670000D01*
X152980000Y-98670000D02*
X156580000Y-98670000D01*
X158590000Y-97870000D02*
X156580000Y-97870000D01*
X150970000Y-97870000D02*
X152980000Y-97870000D01*
X164000000Y-102070000D02*
X164000000Y-103670000D01*
X164000000Y-103670000D02*
X167600000Y-103670000D01*
X167600000Y-103670000D02*
X167600000Y-102070000D01*
X167600000Y-102070000D02*
X164000000Y-102070000D01*
X161990000Y-102870000D02*
X164000000Y-102870000D01*
X169610000Y-102870000D02*
X167600000Y-102870000D01*
X153000000Y-102470000D02*
X153000000Y-104070000D01*
X153000000Y-104070000D02*
X156600000Y-104070000D01*
X156600000Y-104070000D02*
X156600000Y-102470000D01*
X156600000Y-102470000D02*
X153000000Y-102470000D01*
X150990000Y-103270000D02*
X153000000Y-103270000D01*
X158610000Y-103270000D02*
X156600000Y-103270000D01*
X167580000Y-98670000D02*
X167580000Y-97070000D01*
X167580000Y-97070000D02*
X163980000Y-97070000D01*
X163980000Y-97070000D02*
X163980000Y-98670000D01*
X163980000Y-98670000D02*
X167580000Y-98670000D01*
X169590000Y-97870000D02*
X167580000Y-97870000D01*
X161970000Y-97870000D02*
X163980000Y-97870000D01*
X164000000Y-87070000D02*
X164000000Y-88670000D01*
X164000000Y-88670000D02*
X167600000Y-88670000D01*
X167600000Y-88670000D02*
X167600000Y-87070000D01*
X167600000Y-87070000D02*
X164000000Y-87070000D01*
X161990000Y-87870000D02*
X164000000Y-87870000D01*
X169610000Y-87870000D02*
X167600000Y-87870000D01*
X156580000Y-88670000D02*
X156580000Y-87070000D01*
X156580000Y-87070000D02*
X152980000Y-87070000D01*
X152980000Y-87070000D02*
X152980000Y-88670000D01*
X152980000Y-88670000D02*
X156580000Y-88670000D01*
X158590000Y-87870000D02*
X156580000Y-87870000D01*
X150970000Y-87870000D02*
X152980000Y-87870000D01*
D11*
X145956667Y-100746191D02*
X145956667Y-100270000D01*
X146242381Y-100841429D02*
X145242381Y-100508096D01*
X146242381Y-100174762D01*
X146242381Y-99412857D02*
X145242381Y-99412857D01*
X146194762Y-99412857D02*
X146242381Y-99508095D01*
X146242381Y-99698572D01*
X146194762Y-99793810D01*
X146147143Y-99841429D01*
X146051905Y-99889048D01*
X145766190Y-99889048D01*
X145670952Y-99841429D01*
X145623333Y-99793810D01*
X145575714Y-99698572D01*
X145575714Y-99508095D01*
X145623333Y-99412857D01*
X146242381Y-98508095D02*
X145718571Y-98508095D01*
X145623333Y-98555714D01*
X145575714Y-98650952D01*
X145575714Y-98841429D01*
X145623333Y-98936667D01*
X146194762Y-98508095D02*
X146242381Y-98603333D01*
X146242381Y-98841429D01*
X146194762Y-98936667D01*
X146099524Y-98984286D01*
X146004286Y-98984286D01*
X145909048Y-98936667D01*
X145861429Y-98841429D01*
X145861429Y-98603333D01*
X145813810Y-98508095D01*
X145575714Y-98174762D02*
X145575714Y-97793810D01*
X146242381Y-98031905D02*
X145385238Y-98031905D01*
X145290000Y-97984286D01*
X145242381Y-97889048D01*
X145242381Y-97793810D01*
X146242381Y-97460476D02*
X145575714Y-97460476D01*
X145766190Y-97460476D02*
X145670952Y-97412857D01*
X145623333Y-97365238D01*
X145575714Y-97270000D01*
X145575714Y-97174761D01*
X145575714Y-96412856D02*
X146242381Y-96412856D01*
X145575714Y-96841428D02*
X146099524Y-96841428D01*
X146194762Y-96793809D01*
X146242381Y-96698571D01*
X146242381Y-96555713D01*
X146194762Y-96460475D01*
X146147143Y-96412856D01*
X146242381Y-95936666D02*
X145575714Y-95936666D01*
X145242381Y-95936666D02*
X145290000Y-95984285D01*
X145337619Y-95936666D01*
X145290000Y-95889047D01*
X145242381Y-95936666D01*
X145337619Y-95936666D01*
X145575714Y-95603333D02*
X145575714Y-95222381D01*
X145242381Y-95460476D02*
X146099524Y-95460476D01*
X146194762Y-95412857D01*
X146242381Y-95317619D01*
X146242381Y-95222381D01*
X145718571Y-94555713D02*
X145718571Y-94889047D01*
X146242381Y-94889047D02*
X145242381Y-94889047D01*
X145242381Y-94412856D01*
X145242381Y-94174761D02*
X145242381Y-93603332D01*
X146242381Y-93889047D02*
X145242381Y-93889047D01*
X145337619Y-93317618D02*
X145290000Y-93269999D01*
X145242381Y-93174761D01*
X145242381Y-92936665D01*
X145290000Y-92841427D01*
X145337619Y-92793808D01*
X145432857Y-92746189D01*
X145528095Y-92746189D01*
X145670952Y-92793808D01*
X146242381Y-93365237D01*
X146242381Y-92746189D01*
X145242381Y-92412856D02*
X145242381Y-91793808D01*
X145623333Y-92127142D01*
X145623333Y-91984284D01*
X145670952Y-91889046D01*
X145718571Y-91841427D01*
X145813810Y-91793808D01*
X146051905Y-91793808D01*
X146147143Y-91841427D01*
X146194762Y-91889046D01*
X146242381Y-91984284D01*
X146242381Y-92269999D01*
X146194762Y-92365237D01*
X146147143Y-92412856D01*
X145337619Y-91412856D02*
X145290000Y-91365237D01*
X145242381Y-91269999D01*
X145242381Y-91031903D01*
X145290000Y-90936665D01*
X145337619Y-90889046D01*
X145432857Y-90841427D01*
X145528095Y-90841427D01*
X145670952Y-90889046D01*
X146242381Y-91460475D01*
X146242381Y-90841427D01*
X146242381Y-90412856D02*
X145242381Y-90412856D01*
X145718571Y-90412856D02*
X145718571Y-89841427D01*
X146242381Y-89841427D02*
X145242381Y-89841427D01*
X176456668Y-67486667D02*
X176456668Y-68053333D01*
X176490001Y-68120000D01*
X176523334Y-68153333D01*
X176590001Y-68186667D01*
X176723334Y-68186667D01*
X176790001Y-68153333D01*
X176823334Y-68120000D01*
X176856668Y-68053333D01*
X176856668Y-67486667D01*
X177156667Y-68153333D02*
X177256667Y-68186667D01*
X177423334Y-68186667D01*
X177490001Y-68153333D01*
X177523334Y-68120000D01*
X177556667Y-68053333D01*
X177556667Y-67986667D01*
X177523334Y-67920000D01*
X177490001Y-67886667D01*
X177423334Y-67853333D01*
X177290001Y-67820000D01*
X177223334Y-67786667D01*
X177190001Y-67753333D01*
X177156667Y-67686667D01*
X177156667Y-67620000D01*
X177190001Y-67553333D01*
X177223334Y-67520000D01*
X177290001Y-67486667D01*
X177456667Y-67486667D01*
X177556667Y-67520000D01*
X178090001Y-67820000D02*
X178190001Y-67853333D01*
X178223334Y-67886667D01*
X178256668Y-67953333D01*
X178256668Y-68053333D01*
X178223334Y-68120000D01*
X178190001Y-68153333D01*
X178123334Y-68186667D01*
X177856668Y-68186667D01*
X177856668Y-67486667D01*
X178090001Y-67486667D01*
X178156668Y-67520000D01*
X178190001Y-67553333D01*
X178223334Y-67620000D01*
X178223334Y-67686667D01*
X178190001Y-67753333D01*
X178156668Y-67786667D01*
X178090001Y-67820000D01*
X177856668Y-67820000D01*
X178390001Y-68253333D02*
X178923334Y-68253333D01*
X179223334Y-67486667D02*
X179356667Y-67486667D01*
X179423334Y-67520000D01*
X179490001Y-67586667D01*
X179523334Y-67720000D01*
X179523334Y-67953333D01*
X179490001Y-68086667D01*
X179423334Y-68153333D01*
X179356667Y-68186667D01*
X179223334Y-68186667D01*
X179156667Y-68153333D01*
X179090001Y-68086667D01*
X179056667Y-67953333D01*
X179056667Y-67720000D01*
X179090001Y-67586667D01*
X179156667Y-67520000D01*
X179223334Y-67486667D01*
X179723334Y-67486667D02*
X180123334Y-67486667D01*
X179923334Y-68186667D02*
X179923334Y-67486667D01*
X180723333Y-67520000D02*
X180656667Y-67486667D01*
X180556667Y-67486667D01*
X180456667Y-67520000D01*
X180390000Y-67586667D01*
X180356667Y-67653333D01*
X180323333Y-67786667D01*
X180323333Y-67886667D01*
X180356667Y-68020000D01*
X180390000Y-68086667D01*
X180456667Y-68153333D01*
X180556667Y-68186667D01*
X180623333Y-68186667D01*
X180723333Y-68153333D01*
X180756667Y-68120000D01*
X180756667Y-67886667D01*
X180623333Y-67886667D01*
X161566191Y-120227143D02*
X161518572Y-120274762D01*
X161375715Y-120322381D01*
X161280477Y-120322381D01*
X161137619Y-120274762D01*
X161042381Y-120179524D01*
X160994762Y-120084286D01*
X160947143Y-119893810D01*
X160947143Y-119750952D01*
X160994762Y-119560476D01*
X161042381Y-119465238D01*
X161137619Y-119370000D01*
X161280477Y-119322381D01*
X161375715Y-119322381D01*
X161518572Y-119370000D01*
X161566191Y-119417619D01*
X162185238Y-119322381D02*
X162375715Y-119322381D01*
X162470953Y-119370000D01*
X162566191Y-119465238D01*
X162613810Y-119655714D01*
X162613810Y-119989048D01*
X162566191Y-120179524D01*
X162470953Y-120274762D01*
X162375715Y-120322381D01*
X162185238Y-120322381D01*
X162090000Y-120274762D01*
X161994762Y-120179524D01*
X161947143Y-119989048D01*
X161947143Y-119655714D01*
X161994762Y-119465238D01*
X162090000Y-119370000D01*
X162185238Y-119322381D01*
X163042381Y-120322381D02*
X163042381Y-119322381D01*
X163613810Y-120322381D01*
X163613810Y-119322381D01*
X164090000Y-120322381D02*
X164090000Y-119322381D01*
X164661429Y-120322381D01*
X164661429Y-119322381D01*
X164899524Y-120417619D02*
X165661429Y-120417619D01*
X166090000Y-119322381D02*
X166185239Y-119322381D01*
X166280477Y-119370000D01*
X166328096Y-119417619D01*
X166375715Y-119512857D01*
X166423334Y-119703333D01*
X166423334Y-119941429D01*
X166375715Y-120131905D01*
X166328096Y-120227143D01*
X166280477Y-120274762D01*
X166185239Y-120322381D01*
X166090000Y-120322381D01*
X165994762Y-120274762D01*
X165947143Y-120227143D01*
X165899524Y-120131905D01*
X165851905Y-119941429D01*
X165851905Y-119703333D01*
X165899524Y-119512857D01*
X165947143Y-119417619D01*
X165994762Y-119370000D01*
X166090000Y-119322381D01*
X166804286Y-119417619D02*
X166851905Y-119370000D01*
X166947143Y-119322381D01*
X167185239Y-119322381D01*
X167280477Y-119370000D01*
X167328096Y-119417619D01*
X167375715Y-119512857D01*
X167375715Y-119608095D01*
X167328096Y-119750952D01*
X166756667Y-120322381D01*
X167375715Y-120322381D01*
X167709048Y-119322381D02*
X168375715Y-120322381D01*
X168375715Y-119322381D02*
X167709048Y-120322381D01*
X169280477Y-120322381D02*
X168709048Y-120322381D01*
X168994762Y-120322381D02*
X168994762Y-119322381D01*
X168899524Y-119465238D01*
X168804286Y-119560476D01*
X168709048Y-119608095D01*
X169613810Y-119322381D02*
X170232858Y-119322381D01*
X169899524Y-119703333D01*
X170042382Y-119703333D01*
X170137620Y-119750952D01*
X170185239Y-119798571D01*
X170232858Y-119893810D01*
X170232858Y-120131905D01*
X170185239Y-120227143D01*
X170137620Y-120274762D01*
X170042382Y-120322381D01*
X169756667Y-120322381D01*
X169661429Y-120274762D01*
X169613810Y-120227143D01*
X120842381Y-99470000D02*
X121651905Y-99470000D01*
X121747143Y-99422381D01*
X121794762Y-99374762D01*
X121842381Y-99279524D01*
X121842381Y-99089047D01*
X121794762Y-98993809D01*
X121747143Y-98946190D01*
X121651905Y-98898571D01*
X120842381Y-98898571D01*
X121794762Y-98470000D02*
X121842381Y-98327143D01*
X121842381Y-98089047D01*
X121794762Y-97993809D01*
X121747143Y-97946190D01*
X121651905Y-97898571D01*
X121556667Y-97898571D01*
X121461429Y-97946190D01*
X121413810Y-97993809D01*
X121366190Y-98089047D01*
X121318571Y-98279524D01*
X121270952Y-98374762D01*
X121223333Y-98422381D01*
X121128095Y-98470000D01*
X121032857Y-98470000D01*
X120937619Y-98422381D01*
X120890000Y-98374762D01*
X120842381Y-98279524D01*
X120842381Y-98041428D01*
X120890000Y-97898571D01*
X121318571Y-97470000D02*
X121318571Y-97136666D01*
X121842381Y-96993809D02*
X121842381Y-97470000D01*
X120842381Y-97470000D01*
X120842381Y-96993809D01*
X121842381Y-95993809D02*
X121366190Y-96327143D01*
X121842381Y-96565238D02*
X120842381Y-96565238D01*
X120842381Y-96184285D01*
X120890000Y-96089047D01*
X120937619Y-96041428D01*
X121032857Y-95993809D01*
X121175714Y-95993809D01*
X121270952Y-96041428D01*
X121318571Y-96089047D01*
X121366190Y-96184285D01*
X121366190Y-96565238D01*
X121937619Y-95803333D02*
X121937619Y-95041428D01*
X121842381Y-94803333D02*
X120842381Y-94803333D01*
X120842381Y-94422380D01*
X120890000Y-94327142D01*
X120937619Y-94279523D01*
X121032857Y-94231904D01*
X121175714Y-94231904D01*
X121270952Y-94279523D01*
X121318571Y-94327142D01*
X121366190Y-94422380D01*
X121366190Y-94803333D01*
X120842381Y-93612857D02*
X120842381Y-93422380D01*
X120890000Y-93327142D01*
X120985238Y-93231904D01*
X121175714Y-93184285D01*
X121509048Y-93184285D01*
X121699524Y-93231904D01*
X121794762Y-93327142D01*
X121842381Y-93422380D01*
X121842381Y-93612857D01*
X121794762Y-93708095D01*
X121699524Y-93803333D01*
X121509048Y-93850952D01*
X121175714Y-93850952D01*
X120985238Y-93803333D01*
X120890000Y-93708095D01*
X120842381Y-93612857D01*
X121842381Y-92184285D02*
X121366190Y-92517619D01*
X121842381Y-92755714D02*
X120842381Y-92755714D01*
X120842381Y-92374761D01*
X120890000Y-92279523D01*
X120937619Y-92231904D01*
X121032857Y-92184285D01*
X121175714Y-92184285D01*
X121270952Y-92231904D01*
X121318571Y-92279523D01*
X121366190Y-92374761D01*
X121366190Y-92755714D01*
X120842381Y-91898571D02*
X120842381Y-91327142D01*
X121842381Y-91612857D02*
X120842381Y-91612857D01*
X159766191Y-72027143D02*
X159718572Y-72074762D01*
X159575715Y-72122381D01*
X159480477Y-72122381D01*
X159337619Y-72074762D01*
X159242381Y-71979524D01*
X159194762Y-71884286D01*
X159147143Y-71693810D01*
X159147143Y-71550952D01*
X159194762Y-71360476D01*
X159242381Y-71265238D01*
X159337619Y-71170000D01*
X159480477Y-71122381D01*
X159575715Y-71122381D01*
X159718572Y-71170000D01*
X159766191Y-71217619D01*
X160385238Y-71122381D02*
X160575715Y-71122381D01*
X160670953Y-71170000D01*
X160766191Y-71265238D01*
X160813810Y-71455714D01*
X160813810Y-71789048D01*
X160766191Y-71979524D01*
X160670953Y-72074762D01*
X160575715Y-72122381D01*
X160385238Y-72122381D01*
X160290000Y-72074762D01*
X160194762Y-71979524D01*
X160147143Y-71789048D01*
X160147143Y-71455714D01*
X160194762Y-71265238D01*
X160290000Y-71170000D01*
X160385238Y-71122381D01*
X161242381Y-72122381D02*
X161242381Y-71122381D01*
X161813810Y-72122381D01*
X161813810Y-71122381D01*
X162290000Y-72122381D02*
X162290000Y-71122381D01*
X162861429Y-72122381D01*
X162861429Y-71122381D01*
X163099524Y-72217619D02*
X163861429Y-72217619D01*
X164290000Y-71122381D02*
X164385239Y-71122381D01*
X164480477Y-71170000D01*
X164528096Y-71217619D01*
X164575715Y-71312857D01*
X164623334Y-71503333D01*
X164623334Y-71741429D01*
X164575715Y-71931905D01*
X164528096Y-72027143D01*
X164480477Y-72074762D01*
X164385239Y-72122381D01*
X164290000Y-72122381D01*
X164194762Y-72074762D01*
X164147143Y-72027143D01*
X164099524Y-71931905D01*
X164051905Y-71741429D01*
X164051905Y-71503333D01*
X164099524Y-71312857D01*
X164147143Y-71217619D01*
X164194762Y-71170000D01*
X164290000Y-71122381D01*
X165575715Y-72122381D02*
X165004286Y-72122381D01*
X165290000Y-72122381D02*
X165290000Y-71122381D01*
X165194762Y-71265238D01*
X165099524Y-71360476D01*
X165004286Y-71408095D01*
X165909048Y-71122381D02*
X166575715Y-72122381D01*
X166575715Y-71122381D02*
X165909048Y-72122381D01*
X167480477Y-72122381D02*
X166909048Y-72122381D01*
X167194762Y-72122381D02*
X167194762Y-71122381D01*
X167099524Y-71265238D01*
X167004286Y-71360476D01*
X166909048Y-71408095D01*
X167813810Y-71122381D02*
X168432858Y-71122381D01*
X168099524Y-71503333D01*
X168242382Y-71503333D01*
X168337620Y-71550952D01*
X168385239Y-71598571D01*
X168432858Y-71693810D01*
X168432858Y-71931905D01*
X168385239Y-72027143D01*
X168337620Y-72074762D01*
X168242382Y-72122381D01*
X167956667Y-72122381D01*
X167861429Y-72074762D01*
X167813810Y-72027143D01*
X183491905Y-114022381D02*
X183491905Y-113022381D01*
X183730000Y-113022381D01*
X183872858Y-113070000D01*
X183968096Y-113165238D01*
X184015715Y-113260476D01*
X184063334Y-113450952D01*
X184063334Y-113593810D01*
X184015715Y-113784286D01*
X183968096Y-113879524D01*
X183872858Y-113974762D01*
X183730000Y-114022381D01*
X183491905Y-114022381D01*
X184491905Y-113498571D02*
X184825239Y-113498571D01*
X184968096Y-114022381D02*
X184491905Y-114022381D01*
X184491905Y-113022381D01*
X184968096Y-113022381D01*
X185730001Y-113498571D02*
X185872858Y-113546190D01*
X185920477Y-113593810D01*
X185968096Y-113689048D01*
X185968096Y-113831905D01*
X185920477Y-113927143D01*
X185872858Y-113974762D01*
X185777620Y-114022381D01*
X185396667Y-114022381D01*
X185396667Y-113022381D01*
X185730001Y-113022381D01*
X185825239Y-113070000D01*
X185872858Y-113117619D01*
X185920477Y-113212857D01*
X185920477Y-113308095D01*
X185872858Y-113403333D01*
X185825239Y-113450952D01*
X185730001Y-113498571D01*
X185396667Y-113498571D01*
X186396667Y-113022381D02*
X186396667Y-113831905D01*
X186444286Y-113927143D01*
X186491905Y-113974762D01*
X186587143Y-114022381D01*
X186777620Y-114022381D01*
X186872858Y-113974762D01*
X186920477Y-113927143D01*
X186968096Y-113831905D01*
X186968096Y-113022381D01*
X187968096Y-113070000D02*
X187872858Y-113022381D01*
X187730001Y-113022381D01*
X187587143Y-113070000D01*
X187491905Y-113165238D01*
X187444286Y-113260476D01*
X187396667Y-113450952D01*
X187396667Y-113593810D01*
X187444286Y-113784286D01*
X187491905Y-113879524D01*
X187587143Y-113974762D01*
X187730001Y-114022381D01*
X187825239Y-114022381D01*
X187968096Y-113974762D01*
X188015715Y-113927143D01*
X188015715Y-113593810D01*
X187825239Y-113593810D01*
X148072381Y-68175238D02*
X147072381Y-68175238D01*
X147072381Y-67794285D01*
X147120000Y-67699047D01*
X147167619Y-67651428D01*
X147262857Y-67603809D01*
X147405714Y-67603809D01*
X147500952Y-67651428D01*
X147548571Y-67699047D01*
X147596190Y-67794285D01*
X147596190Y-68175238D01*
X147977143Y-66603809D02*
X148024762Y-66651428D01*
X148072381Y-66794285D01*
X148072381Y-66889523D01*
X148024762Y-67032381D01*
X147929524Y-67127619D01*
X147834286Y-67175238D01*
X147643810Y-67222857D01*
X147500952Y-67222857D01*
X147310476Y-67175238D01*
X147215238Y-67127619D01*
X147120000Y-67032381D01*
X147072381Y-66889523D01*
X147072381Y-66794285D01*
X147120000Y-66651428D01*
X147167619Y-66603809D01*
X147548571Y-65841904D02*
X147548571Y-66175238D01*
X148072381Y-66175238D02*
X147072381Y-66175238D01*
X147072381Y-65699047D01*
X147500952Y-65175238D02*
X147453333Y-65270476D01*
X147405714Y-65318095D01*
X147310476Y-65365714D01*
X147262857Y-65365714D01*
X147167619Y-65318095D01*
X147120000Y-65270476D01*
X147072381Y-65175238D01*
X147072381Y-64984761D01*
X147120000Y-64889523D01*
X147167619Y-64841904D01*
X147262857Y-64794285D01*
X147310476Y-64794285D01*
X147405714Y-64841904D01*
X147453333Y-64889523D01*
X147500952Y-64984761D01*
X147500952Y-65175238D01*
X147548571Y-65270476D01*
X147596190Y-65318095D01*
X147691429Y-65365714D01*
X147881905Y-65365714D01*
X147977143Y-65318095D01*
X148024762Y-65270476D01*
X148072381Y-65175238D01*
X148072381Y-64984761D01*
X148024762Y-64889523D01*
X147977143Y-64841904D01*
X147881905Y-64794285D01*
X147691429Y-64794285D01*
X147596190Y-64841904D01*
X147548571Y-64889523D01*
X147500952Y-64984761D01*
X147072381Y-63889523D02*
X147072381Y-64365714D01*
X147548571Y-64413333D01*
X147500952Y-64365714D01*
X147453333Y-64270476D01*
X147453333Y-64032380D01*
X147500952Y-63937142D01*
X147548571Y-63889523D01*
X147643810Y-63841904D01*
X147881905Y-63841904D01*
X147977143Y-63889523D01*
X148024762Y-63937142D01*
X148072381Y-64032380D01*
X148072381Y-64270476D01*
X148024762Y-64365714D01*
X147977143Y-64413333D01*
X147072381Y-63508571D02*
X147072381Y-62841904D01*
X148072381Y-63270476D01*
X147405714Y-62032380D02*
X148072381Y-62032380D01*
X147024762Y-62270476D02*
X147739048Y-62508571D01*
X147739048Y-61889523D01*
X166309524Y-95582381D02*
X165976190Y-95106190D01*
X165738095Y-95582381D02*
X165738095Y-94582381D01*
X166119048Y-94582381D01*
X166214286Y-94630000D01*
X166261905Y-94677619D01*
X166309524Y-94772857D01*
X166309524Y-94915714D01*
X166261905Y-95010952D01*
X166214286Y-95058571D01*
X166119048Y-95106190D01*
X165738095Y-95106190D01*
X154909524Y-95582381D02*
X154576190Y-95106190D01*
X154338095Y-95582381D02*
X154338095Y-94582381D01*
X154719048Y-94582381D01*
X154814286Y-94630000D01*
X154861905Y-94677619D01*
X154909524Y-94772857D01*
X154909524Y-94915714D01*
X154861905Y-95010952D01*
X154814286Y-95058571D01*
X154719048Y-95106190D01*
X154338095Y-95106190D01*
X155089524Y-96462381D02*
X154756190Y-95986190D01*
X154518095Y-96462381D02*
X154518095Y-95462381D01*
X154899048Y-95462381D01*
X154994286Y-95510000D01*
X155041905Y-95557619D01*
X155089524Y-95652857D01*
X155089524Y-95795714D01*
X155041905Y-95890952D01*
X154994286Y-95938571D01*
X154899048Y-95986190D01*
X154518095Y-95986190D01*
X166109524Y-105182381D02*
X165776190Y-104706190D01*
X165538095Y-105182381D02*
X165538095Y-104182381D01*
X165919048Y-104182381D01*
X166014286Y-104230000D01*
X166061905Y-104277619D01*
X166109524Y-104372857D01*
X166109524Y-104515714D01*
X166061905Y-104610952D01*
X166014286Y-104658571D01*
X165919048Y-104706190D01*
X165538095Y-104706190D01*
X155109524Y-105582381D02*
X154776190Y-105106190D01*
X154538095Y-105582381D02*
X154538095Y-104582381D01*
X154919048Y-104582381D01*
X155014286Y-104630000D01*
X155061905Y-104677619D01*
X155109524Y-104772857D01*
X155109524Y-104915714D01*
X155061905Y-105010952D01*
X155014286Y-105058571D01*
X154919048Y-105106190D01*
X154538095Y-105106190D01*
X166089524Y-96462381D02*
X165756190Y-95986190D01*
X165518095Y-96462381D02*
X165518095Y-95462381D01*
X165899048Y-95462381D01*
X165994286Y-95510000D01*
X166041905Y-95557619D01*
X166089524Y-95652857D01*
X166089524Y-95795714D01*
X166041905Y-95890952D01*
X165994286Y-95938571D01*
X165899048Y-95986190D01*
X165518095Y-95986190D01*
X166109524Y-90182381D02*
X165776190Y-89706190D01*
X165538095Y-90182381D02*
X165538095Y-89182381D01*
X165919048Y-89182381D01*
X166014286Y-89230000D01*
X166061905Y-89277619D01*
X166109524Y-89372857D01*
X166109524Y-89515714D01*
X166061905Y-89610952D01*
X166014286Y-89658571D01*
X165919048Y-89706190D01*
X165538095Y-89706190D01*
X155089524Y-86462381D02*
X154756190Y-85986190D01*
X154518095Y-86462381D02*
X154518095Y-85462381D01*
X154899048Y-85462381D01*
X154994286Y-85510000D01*
X155041905Y-85557619D01*
X155089524Y-85652857D01*
X155089524Y-85795714D01*
X155041905Y-85890952D01*
X154994286Y-85938571D01*
X154899048Y-85986190D01*
X154518095Y-85986190D01*
M02*
