M48
INCH,TZ
T1C0.016
T2C0.028
T3C0.030
T4C0.035
T5C0.039
T6C0.040
T7C0.087
%
G90
G05
T1
X56787Y-37764
X57220Y-37272
X60429Y-41760
X60783Y-47311
X60843Y-41760
X61866Y-40835
X61925Y-41701
X62260Y-39535
X62280Y-40657
X62299Y-41976
X63323Y-40776
X63736Y-43433
X64760Y-41642
X64760Y-43374
X66138Y-46937
T2
X61024Y-48601
X61024Y-49625
X61024Y-50609
X61024Y-51593
X64024Y-48601
X64024Y-49625
X64024Y-50609
X64024Y-51593
T3
X72831Y-42783
X72831Y-43413
X72831Y-44043
X73303Y-43098
X73303Y-43728
T4
X52087Y-35929
X52087Y-38929
X53087Y-35929
X53087Y-38929
X54087Y-35929
X54087Y-38929
X55087Y-35929
X55087Y-38929
X56087Y-35929
X56087Y-38929
X57087Y-35929
X57087Y-38929
X58087Y-35929
X58087Y-38929
X59087Y-35929
X59087Y-38929
X60450Y-35587
X60450Y-39524
X61450Y-35587
X61450Y-39524
X64387Y-35587
X64387Y-39524
X65387Y-35587
X65387Y-39524
T5
X49524Y-33193
X49524Y-34193
X49524Y-35193
X49524Y-36193
X49524Y-37193
X49524Y-38193
X49524Y-39193
X49524Y-40193
X49524Y-41193
X49524Y-42193
X59236Y-29122
X60236Y-29122
X61236Y-29122
X62236Y-29122
X63236Y-29122
X64236Y-29122
X65236Y-29122
X66236Y-29122
X67236Y-29122
X68236Y-29122
X69236Y-29122
X70236Y-29122
X71236Y-29122
T6
X59235Y-45150
X59235Y-46150
X60235Y-45150
X60235Y-46150
X61235Y-45150
X61235Y-46150
X62235Y-45150
X62235Y-46150
X63235Y-45150
X63235Y-46150
X64235Y-45150
X64235Y-46150
X65235Y-45150
X65235Y-46150
X66235Y-45150
X66235Y-46150
X67235Y-45150
X67235Y-46150
X68235Y-45150
X68235Y-46150
X69235Y-45150
X69235Y-46150
X70235Y-45150
X70235Y-46150
X71235Y-45150
X71235Y-46150
T7
X74799Y-41996
X74799Y-44909
T2
X74583Y-41976G85X75055Y-41976
G05
T0
M30
