%FSLAX45Y45*%
G04 Gerber Fmt 4.5, Leading zero omitted, Abs format (unit mm)*
G04 Created by KiCad (PCBNEW 4.0.6-e0-6349~52~ubuntu16.10.1) date Tue Jun 20 22:28:54 2017*
%MOMM*%
%LPD*%
G01*
G04 APERTURE LIST*
%ADD10C,0.127000*%
%ADD11C,0.200000*%
%ADD12C,0.100000*%
%ADD13C,0.300000*%
G04 APERTURE END LIST*
D10*
D11*
X17957800Y-6756400D02*
G75*
G03X17957800Y-6756400I-127000J0D01*
G01*
X17957800Y-12293600D02*
G75*
G03X17957800Y-12293600I-127000J0D01*
G01*
X14020800Y-6756400D02*
G75*
G03X14020800Y-6756400I-127000J0D01*
G01*
X14020800Y-12293600D02*
G75*
G03X14020800Y-12293600I-127000J0D01*
G01*
D12*
X15858600Y-5677860D02*
X15760000Y-5677860D01*
X15760000Y-5677860D02*
X15464200Y-5697760D01*
X15464200Y-5697760D02*
X15081290Y-5756160D01*
X15081290Y-5756160D02*
X14711540Y-5851260D01*
X14711540Y-5851260D02*
X14357280Y-5980960D01*
X14357280Y-5980960D02*
X14020060Y-6143360D01*
X14020060Y-6143360D02*
X13702140Y-6336560D01*
X13702140Y-6336560D02*
X13405170Y-6558560D01*
X13405170Y-6558560D02*
X13131240Y-6807460D01*
X13131240Y-6807460D02*
X12882350Y-7081460D01*
X12882350Y-7081460D02*
X12660350Y-7378360D01*
X12660350Y-7378360D02*
X12467130Y-7696260D01*
X12467130Y-7696260D02*
X12304680Y-8033560D01*
X12304680Y-8033560D02*
X12175000Y-8387860D01*
X12175000Y-8387860D02*
X12079920Y-8757560D01*
X12079920Y-8757560D02*
X12021500Y-9140460D01*
X12021500Y-9140460D02*
X12001640Y-9436160D01*
X12001640Y-9436160D02*
X12001640Y-9534860D01*
X12001640Y-9534860D02*
X12001640Y-9633360D01*
X12001640Y-9633360D02*
X12021500Y-9929160D01*
X12021500Y-9929160D02*
X12079920Y-10312060D01*
X12079920Y-10312060D02*
X12175000Y-10681860D01*
X12175000Y-10681860D02*
X12304680Y-11036160D01*
X12304680Y-11036160D02*
X12467130Y-11373260D01*
X12467130Y-11373260D02*
X12660350Y-11691260D01*
X12660350Y-11691260D02*
X12882350Y-11988160D01*
X12882350Y-11988160D02*
X13131240Y-12262060D01*
X13131240Y-12262060D02*
X13405170Y-12511060D01*
X13405170Y-12511060D02*
X13702140Y-12733060D01*
X13702140Y-12733060D02*
X14020060Y-12926260D01*
X14020060Y-12926260D02*
X14357280Y-13088560D01*
X14357280Y-13088560D02*
X14711540Y-13218260D01*
X14711540Y-13218260D02*
X15081290Y-13313360D01*
X15081290Y-13313360D02*
X15464200Y-13371760D01*
X15464200Y-13371760D02*
X15760000Y-13391760D01*
X15760000Y-13391760D02*
X15858600Y-13391760D01*
X15858600Y-13391760D02*
X15989700Y-13391360D01*
X15989700Y-13391360D02*
X16383200Y-13354160D01*
X16383200Y-13354160D02*
X16891100Y-13247560D01*
X16891100Y-13247560D02*
X17375900Y-13075360D01*
X17375900Y-13075360D02*
X17831700Y-12841360D01*
X17831700Y-12841360D02*
X18252400Y-12548960D01*
X18252400Y-12548960D02*
X18632200Y-12201960D01*
X18632200Y-12201960D02*
X18965000Y-11803860D01*
X18965000Y-11803860D02*
X19182800Y-11473960D01*
X19182800Y-11473960D02*
X19244700Y-11358360D01*
X19244700Y-11358360D02*
X19244700Y-10466060D01*
X19244700Y-10466060D02*
X17642900Y-10466060D01*
X17642900Y-10466060D02*
X17642900Y-7834660D01*
X17642900Y-7834660D02*
X19244700Y-7834660D01*
X19244700Y-7834660D02*
X19244700Y-7702660D01*
X19244700Y-7702660D02*
X19182500Y-7587260D01*
X19182500Y-7587260D02*
X18964200Y-7258360D01*
X18964200Y-7258360D02*
X18631000Y-6861460D01*
X18631000Y-6861460D02*
X18250900Y-6515760D01*
X18250900Y-6515760D02*
X17830100Y-6224560D01*
X17830100Y-6224560D02*
X17374300Y-5991560D01*
X17374300Y-5991560D02*
X16889900Y-5820360D01*
X16889900Y-5820360D02*
X16382600Y-5714560D01*
X16382600Y-5714560D02*
X15989500Y-5678060D01*
X15989500Y-5678060D02*
X15858600Y-5677860D01*
D11*
X17689000Y-7117000D02*
X17759000Y-7187000D01*
X17759000Y-7117000D02*
X17689000Y-7187000D01*
X17664000Y-7177000D02*
X17784000Y-7177000D01*
X17664000Y-7127000D02*
X17784000Y-7127000D01*
X17784000Y-7177000D02*
G75*
G03X17784000Y-7127000I0J25000D01*
G01*
X17664000Y-7127000D02*
G75*
G03X17664000Y-7177000I0J-25000D01*
G01*
X14003800Y-6756400D02*
G75*
G03X14003800Y-6756400I-110000J0D01*
G01*
X14003800Y-12296140D02*
G75*
G03X14003800Y-12296140I-110000J0D01*
G01*
X17940800Y-12293600D02*
G75*
G03X17940800Y-12293600I-110000J0D01*
G01*
X17943340Y-6756400D02*
G75*
G03X17943340Y-6756400I-110000J0D01*
G01*
D13*
X12268068Y-13862474D02*
X12268068Y-13562474D01*
X12339497Y-13562474D01*
X12382354Y-13576760D01*
X12410926Y-13605331D01*
X12425211Y-13633903D01*
X12439497Y-13691046D01*
X12439497Y-13733903D01*
X12425211Y-13791046D01*
X12410926Y-13819617D01*
X12382354Y-13848189D01*
X12339497Y-13862474D01*
X12268068Y-13862474D01*
X12568068Y-13862474D02*
X12568068Y-13662474D01*
X12568068Y-13719617D02*
X12582354Y-13691046D01*
X12596640Y-13676760D01*
X12625211Y-13662474D01*
X12653783Y-13662474D01*
X12753783Y-13862474D02*
X12753783Y-13662474D01*
X12753783Y-13562474D02*
X12739497Y-13576760D01*
X12753783Y-13591046D01*
X12768068Y-13576760D01*
X12753783Y-13562474D01*
X12753783Y-13591046D01*
X12939497Y-13862474D02*
X12910926Y-13848189D01*
X12896640Y-13819617D01*
X12896640Y-13562474D01*
X13096640Y-13862474D02*
X13068068Y-13848189D01*
X13053783Y-13819617D01*
X13053783Y-13562474D01*
X13439497Y-13862474D02*
X13439497Y-13562474D01*
X13539497Y-13776760D01*
X13639497Y-13562474D01*
X13639497Y-13862474D01*
X13910926Y-13862474D02*
X13910926Y-13705331D01*
X13896640Y-13676760D01*
X13868068Y-13662474D01*
X13810926Y-13662474D01*
X13782354Y-13676760D01*
X13910926Y-13848189D02*
X13882354Y-13862474D01*
X13810926Y-13862474D01*
X13782354Y-13848189D01*
X13768068Y-13819617D01*
X13768068Y-13791046D01*
X13782354Y-13762474D01*
X13810926Y-13748189D01*
X13882354Y-13748189D01*
X13910926Y-13733903D01*
X14053783Y-13662474D02*
X14053783Y-13962474D01*
X14053783Y-13676760D02*
X14082354Y-13662474D01*
X14139497Y-13662474D01*
X14168068Y-13676760D01*
X14182354Y-13691046D01*
X14196640Y-13719617D01*
X14196640Y-13805331D01*
X14182354Y-13833903D01*
X14168068Y-13848189D01*
X14139497Y-13862474D01*
X14082354Y-13862474D01*
X14053783Y-13848189D01*
X14325211Y-13833903D02*
X14339497Y-13848189D01*
X14325211Y-13862474D01*
X14310926Y-13848189D01*
X14325211Y-13833903D01*
X14325211Y-13862474D01*
X14325211Y-13676760D02*
X14339497Y-13691046D01*
X14325211Y-13705331D01*
X14310926Y-13691046D01*
X14325211Y-13676760D01*
X14325211Y-13705331D01*
X11926640Y-14321760D02*
X11996640Y-14391760D01*
X11996640Y-14321760D02*
X11926640Y-14391760D01*
X12325211Y-14192474D02*
X12353783Y-14192474D01*
X12382354Y-14206760D01*
X12396640Y-14221046D01*
X12410926Y-14249617D01*
X12425211Y-14306760D01*
X12425211Y-14378189D01*
X12410926Y-14435331D01*
X12396640Y-14463903D01*
X12382354Y-14478189D01*
X12353783Y-14492474D01*
X12325211Y-14492474D01*
X12296640Y-14478189D01*
X12282354Y-14463903D01*
X12268068Y-14435331D01*
X12253783Y-14378189D01*
X12253783Y-14306760D01*
X12268068Y-14249617D01*
X12282354Y-14221046D01*
X12296640Y-14206760D01*
X12325211Y-14192474D01*
X12553783Y-14463903D02*
X12568068Y-14478189D01*
X12553783Y-14492474D01*
X12539497Y-14478189D01*
X12553783Y-14463903D01*
X12553783Y-14492474D01*
X12668068Y-14192474D02*
X12868068Y-14192474D01*
X12739497Y-14492474D01*
X13039497Y-14192474D02*
X13068068Y-14192474D01*
X13096640Y-14206760D01*
X13110926Y-14221046D01*
X13125211Y-14249617D01*
X13139497Y-14306760D01*
X13139497Y-14378189D01*
X13125211Y-14435331D01*
X13110926Y-14463903D01*
X13096640Y-14478189D01*
X13068068Y-14492474D01*
X13039497Y-14492474D01*
X13010926Y-14478189D01*
X12996640Y-14463903D01*
X12982354Y-14435331D01*
X12968068Y-14378189D01*
X12968068Y-14306760D01*
X12982354Y-14249617D01*
X12996640Y-14221046D01*
X13010926Y-14206760D01*
X13039497Y-14192474D01*
X13268068Y-14492474D02*
X13268068Y-14292474D01*
X13268068Y-14321046D02*
X13282354Y-14306760D01*
X13310926Y-14292474D01*
X13353783Y-14292474D01*
X13382354Y-14306760D01*
X13396640Y-14335331D01*
X13396640Y-14492474D01*
X13396640Y-14335331D02*
X13410926Y-14306760D01*
X13439497Y-14292474D01*
X13482354Y-14292474D01*
X13510926Y-14306760D01*
X13525211Y-14335331D01*
X13525211Y-14492474D01*
X13668068Y-14492474D02*
X13668068Y-14292474D01*
X13668068Y-14321046D02*
X13682354Y-14306760D01*
X13710926Y-14292474D01*
X13753783Y-14292474D01*
X13782354Y-14306760D01*
X13796640Y-14335331D01*
X13796640Y-14492474D01*
X13796640Y-14335331D02*
X13810926Y-14306760D01*
X13839497Y-14292474D01*
X13882354Y-14292474D01*
X13910926Y-14306760D01*
X13925211Y-14335331D01*
X13925211Y-14492474D01*
X14510926Y-14178189D02*
X14253783Y-14563903D01*
X14896640Y-14192474D02*
X14925211Y-14192474D01*
X14953783Y-14206760D01*
X14968068Y-14221046D01*
X14982354Y-14249617D01*
X14996640Y-14306760D01*
X14996640Y-14378189D01*
X14982354Y-14435331D01*
X14968068Y-14463903D01*
X14953783Y-14478189D01*
X14925211Y-14492474D01*
X14896640Y-14492474D01*
X14868068Y-14478189D01*
X14853783Y-14463903D01*
X14839497Y-14435331D01*
X14825211Y-14378189D01*
X14825211Y-14306760D01*
X14839497Y-14249617D01*
X14853783Y-14221046D01*
X14868068Y-14206760D01*
X14896640Y-14192474D01*
X15125211Y-14463903D02*
X15139497Y-14478189D01*
X15125211Y-14492474D01*
X15110926Y-14478189D01*
X15125211Y-14463903D01*
X15125211Y-14492474D01*
X15325211Y-14192474D02*
X15353783Y-14192474D01*
X15382354Y-14206760D01*
X15396640Y-14221046D01*
X15410925Y-14249617D01*
X15425211Y-14306760D01*
X15425211Y-14378189D01*
X15410925Y-14435331D01*
X15396640Y-14463903D01*
X15382354Y-14478189D01*
X15353783Y-14492474D01*
X15325211Y-14492474D01*
X15296640Y-14478189D01*
X15282354Y-14463903D01*
X15268068Y-14435331D01*
X15253783Y-14378189D01*
X15253783Y-14306760D01*
X15268068Y-14249617D01*
X15282354Y-14221046D01*
X15296640Y-14206760D01*
X15325211Y-14192474D01*
X15539497Y-14221046D02*
X15553783Y-14206760D01*
X15582354Y-14192474D01*
X15653783Y-14192474D01*
X15682354Y-14206760D01*
X15696640Y-14221046D01*
X15710925Y-14249617D01*
X15710925Y-14278189D01*
X15696640Y-14321046D01*
X15525211Y-14492474D01*
X15710925Y-14492474D01*
X15882354Y-14321046D02*
X15853783Y-14306760D01*
X15839497Y-14292474D01*
X15825211Y-14263903D01*
X15825211Y-14249617D01*
X15839497Y-14221046D01*
X15853783Y-14206760D01*
X15882354Y-14192474D01*
X15939497Y-14192474D01*
X15968068Y-14206760D01*
X15982354Y-14221046D01*
X15996640Y-14249617D01*
X15996640Y-14263903D01*
X15982354Y-14292474D01*
X15968068Y-14306760D01*
X15939497Y-14321046D01*
X15882354Y-14321046D01*
X15853783Y-14335331D01*
X15839497Y-14349617D01*
X15825211Y-14378189D01*
X15825211Y-14435331D01*
X15839497Y-14463903D01*
X15853783Y-14478189D01*
X15882354Y-14492474D01*
X15939497Y-14492474D01*
X15968068Y-14478189D01*
X15982354Y-14463903D01*
X15996640Y-14435331D01*
X15996640Y-14378189D01*
X15982354Y-14349617D01*
X15968068Y-14335331D01*
X15939497Y-14321046D01*
X16110926Y-14192474D02*
X16110926Y-14249617D01*
X16225211Y-14192474D02*
X16225211Y-14249617D01*
X16668068Y-14606760D02*
X16653783Y-14592474D01*
X16625211Y-14549617D01*
X16610925Y-14521046D01*
X16596640Y-14478189D01*
X16582354Y-14406760D01*
X16582354Y-14349617D01*
X16596640Y-14278189D01*
X16610925Y-14235331D01*
X16625211Y-14206760D01*
X16653783Y-14163903D01*
X16668068Y-14149617D01*
X16939497Y-14492474D02*
X16768068Y-14492474D01*
X16853783Y-14492474D02*
X16853783Y-14192474D01*
X16825211Y-14235331D01*
X16796640Y-14263903D01*
X16768068Y-14278189D01*
X17282354Y-14478189D02*
X17310926Y-14492474D01*
X17368068Y-14492474D01*
X17396640Y-14478189D01*
X17410926Y-14449617D01*
X17410926Y-14435331D01*
X17396640Y-14406760D01*
X17368068Y-14392474D01*
X17325211Y-14392474D01*
X17296640Y-14378189D01*
X17282354Y-14349617D01*
X17282354Y-14335331D01*
X17296640Y-14306760D01*
X17325211Y-14292474D01*
X17368068Y-14292474D01*
X17396640Y-14306760D01*
X17582354Y-14492474D02*
X17553783Y-14478189D01*
X17539497Y-14449617D01*
X17539497Y-14192474D01*
X17739497Y-14492474D02*
X17710926Y-14478189D01*
X17696640Y-14463903D01*
X17682354Y-14435331D01*
X17682354Y-14349617D01*
X17696640Y-14321046D01*
X17710926Y-14306760D01*
X17739497Y-14292474D01*
X17782354Y-14292474D01*
X17810926Y-14306760D01*
X17825211Y-14321046D01*
X17839497Y-14349617D01*
X17839497Y-14435331D01*
X17825211Y-14463903D01*
X17810926Y-14478189D01*
X17782354Y-14492474D01*
X17739497Y-14492474D01*
X17925211Y-14292474D02*
X18039497Y-14292474D01*
X17968068Y-14192474D02*
X17968068Y-14449617D01*
X17982354Y-14478189D01*
X18010926Y-14492474D01*
X18039497Y-14492474D01*
X18110926Y-14606760D02*
X18125211Y-14592474D01*
X18153783Y-14549617D01*
X18168068Y-14521046D01*
X18182354Y-14478189D01*
X18196640Y-14406760D01*
X18196640Y-14349617D01*
X18182354Y-14278189D01*
X18168068Y-14235331D01*
X18153783Y-14206760D01*
X18125211Y-14163903D01*
X18110926Y-14149617D01*
X18653783Y-14606760D02*
X18639497Y-14592474D01*
X18610926Y-14549617D01*
X18596640Y-14521046D01*
X18582354Y-14478189D01*
X18568068Y-14406760D01*
X18568068Y-14349617D01*
X18582354Y-14278189D01*
X18596640Y-14235331D01*
X18610926Y-14206760D01*
X18639497Y-14163903D01*
X18653783Y-14149617D01*
X18768068Y-14292474D02*
X18768068Y-14492474D01*
X18768068Y-14321046D02*
X18782354Y-14306760D01*
X18810926Y-14292474D01*
X18853783Y-14292474D01*
X18882354Y-14306760D01*
X18896640Y-14335331D01*
X18896640Y-14492474D01*
X19082354Y-14492474D02*
X19053783Y-14478189D01*
X19039497Y-14463903D01*
X19025211Y-14435331D01*
X19025211Y-14349617D01*
X19039497Y-14321046D01*
X19053783Y-14306760D01*
X19082354Y-14292474D01*
X19125211Y-14292474D01*
X19153783Y-14306760D01*
X19168068Y-14321046D01*
X19182354Y-14349617D01*
X19182354Y-14435331D01*
X19168068Y-14463903D01*
X19153783Y-14478189D01*
X19125211Y-14492474D01*
X19082354Y-14492474D01*
X19268068Y-14292474D02*
X19382354Y-14292474D01*
X19310926Y-14192474D02*
X19310926Y-14449617D01*
X19325211Y-14478189D01*
X19353783Y-14492474D01*
X19382354Y-14492474D01*
X19710926Y-14292474D02*
X19710926Y-14592474D01*
X19710926Y-14306760D02*
X19739497Y-14292474D01*
X19796640Y-14292474D01*
X19825211Y-14306760D01*
X19839497Y-14321046D01*
X19853783Y-14349617D01*
X19853783Y-14435331D01*
X19839497Y-14463903D01*
X19825211Y-14478189D01*
X19796640Y-14492474D01*
X19739497Y-14492474D01*
X19710926Y-14478189D01*
X20025211Y-14492474D02*
X19996640Y-14478189D01*
X19982354Y-14449617D01*
X19982354Y-14192474D01*
X20268069Y-14492474D02*
X20268069Y-14335331D01*
X20253783Y-14306760D01*
X20225211Y-14292474D01*
X20168069Y-14292474D01*
X20139497Y-14306760D01*
X20268069Y-14478189D02*
X20239497Y-14492474D01*
X20168069Y-14492474D01*
X20139497Y-14478189D01*
X20125211Y-14449617D01*
X20125211Y-14421046D01*
X20139497Y-14392474D01*
X20168069Y-14378189D01*
X20239497Y-14378189D01*
X20268069Y-14363903D01*
X20368069Y-14292474D02*
X20482354Y-14292474D01*
X20410926Y-14192474D02*
X20410926Y-14449617D01*
X20425211Y-14478189D01*
X20453783Y-14492474D01*
X20482354Y-14492474D01*
X20696640Y-14478189D02*
X20668069Y-14492474D01*
X20610926Y-14492474D01*
X20582354Y-14478189D01*
X20568069Y-14449617D01*
X20568069Y-14335331D01*
X20582354Y-14306760D01*
X20610926Y-14292474D01*
X20668069Y-14292474D01*
X20696640Y-14306760D01*
X20710926Y-14335331D01*
X20710926Y-14363903D01*
X20568069Y-14392474D01*
X20968069Y-14492474D02*
X20968069Y-14192474D01*
X20968069Y-14478189D02*
X20939497Y-14492474D01*
X20882354Y-14492474D01*
X20853783Y-14478189D01*
X20839497Y-14463903D01*
X20825212Y-14435331D01*
X20825212Y-14349617D01*
X20839497Y-14321046D01*
X20853783Y-14306760D01*
X20882354Y-14292474D01*
X20939497Y-14292474D01*
X20968069Y-14306760D01*
X21082354Y-14606760D02*
X21096640Y-14592474D01*
X21125212Y-14549617D01*
X21139497Y-14521046D01*
X21153783Y-14478189D01*
X21168069Y-14406760D01*
X21168069Y-14349617D01*
X21153783Y-14278189D01*
X21139497Y-14235331D01*
X21125212Y-14206760D01*
X21096640Y-14163903D01*
X21082354Y-14149617D01*
X11996640Y-14752760D02*
G75*
G03X11996640Y-14752760I-110000J0D01*
G01*
X12253783Y-14617046D02*
X12268068Y-14602760D01*
X12296640Y-14588474D01*
X12368068Y-14588474D01*
X12396640Y-14602760D01*
X12410926Y-14617046D01*
X12425211Y-14645617D01*
X12425211Y-14674189D01*
X12410926Y-14717046D01*
X12239497Y-14888474D01*
X12425211Y-14888474D01*
X12553783Y-14859903D02*
X12568068Y-14874189D01*
X12553783Y-14888474D01*
X12539497Y-14874189D01*
X12553783Y-14859903D01*
X12553783Y-14888474D01*
X12682354Y-14617046D02*
X12696640Y-14602760D01*
X12725211Y-14588474D01*
X12796640Y-14588474D01*
X12825211Y-14602760D01*
X12839497Y-14617046D01*
X12853783Y-14645617D01*
X12853783Y-14674189D01*
X12839497Y-14717046D01*
X12668068Y-14888474D01*
X12853783Y-14888474D01*
X13039497Y-14588474D02*
X13068068Y-14588474D01*
X13096640Y-14602760D01*
X13110926Y-14617046D01*
X13125211Y-14645617D01*
X13139497Y-14702760D01*
X13139497Y-14774189D01*
X13125211Y-14831331D01*
X13110926Y-14859903D01*
X13096640Y-14874189D01*
X13068068Y-14888474D01*
X13039497Y-14888474D01*
X13010926Y-14874189D01*
X12996640Y-14859903D01*
X12982354Y-14831331D01*
X12968068Y-14774189D01*
X12968068Y-14702760D01*
X12982354Y-14645617D01*
X12996640Y-14617046D01*
X13010926Y-14602760D01*
X13039497Y-14588474D01*
X13268068Y-14888474D02*
X13268068Y-14688474D01*
X13268068Y-14717046D02*
X13282354Y-14702760D01*
X13310926Y-14688474D01*
X13353783Y-14688474D01*
X13382354Y-14702760D01*
X13396640Y-14731331D01*
X13396640Y-14888474D01*
X13396640Y-14731331D02*
X13410926Y-14702760D01*
X13439497Y-14688474D01*
X13482354Y-14688474D01*
X13510926Y-14702760D01*
X13525211Y-14731331D01*
X13525211Y-14888474D01*
X13668068Y-14888474D02*
X13668068Y-14688474D01*
X13668068Y-14717046D02*
X13682354Y-14702760D01*
X13710926Y-14688474D01*
X13753783Y-14688474D01*
X13782354Y-14702760D01*
X13796640Y-14731331D01*
X13796640Y-14888474D01*
X13796640Y-14731331D02*
X13810926Y-14702760D01*
X13839497Y-14688474D01*
X13882354Y-14688474D01*
X13910926Y-14702760D01*
X13925211Y-14731331D01*
X13925211Y-14888474D01*
X14510926Y-14574189D02*
X14253783Y-14959903D01*
X14896640Y-14588474D02*
X14925211Y-14588474D01*
X14953783Y-14602760D01*
X14968068Y-14617046D01*
X14982354Y-14645617D01*
X14996640Y-14702760D01*
X14996640Y-14774189D01*
X14982354Y-14831331D01*
X14968068Y-14859903D01*
X14953783Y-14874189D01*
X14925211Y-14888474D01*
X14896640Y-14888474D01*
X14868068Y-14874189D01*
X14853783Y-14859903D01*
X14839497Y-14831331D01*
X14825211Y-14774189D01*
X14825211Y-14702760D01*
X14839497Y-14645617D01*
X14853783Y-14617046D01*
X14868068Y-14602760D01*
X14896640Y-14588474D01*
X15125211Y-14859903D02*
X15139497Y-14874189D01*
X15125211Y-14888474D01*
X15110926Y-14874189D01*
X15125211Y-14859903D01*
X15125211Y-14888474D01*
X15325211Y-14588474D02*
X15353783Y-14588474D01*
X15382354Y-14602760D01*
X15396640Y-14617046D01*
X15410925Y-14645617D01*
X15425211Y-14702760D01*
X15425211Y-14774189D01*
X15410925Y-14831331D01*
X15396640Y-14859903D01*
X15382354Y-14874189D01*
X15353783Y-14888474D01*
X15325211Y-14888474D01*
X15296640Y-14874189D01*
X15282354Y-14859903D01*
X15268068Y-14831331D01*
X15253783Y-14774189D01*
X15253783Y-14702760D01*
X15268068Y-14645617D01*
X15282354Y-14617046D01*
X15296640Y-14602760D01*
X15325211Y-14588474D01*
X15596640Y-14717046D02*
X15568068Y-14702760D01*
X15553783Y-14688474D01*
X15539497Y-14659903D01*
X15539497Y-14645617D01*
X15553783Y-14617046D01*
X15568068Y-14602760D01*
X15596640Y-14588474D01*
X15653783Y-14588474D01*
X15682354Y-14602760D01*
X15696640Y-14617046D01*
X15710925Y-14645617D01*
X15710925Y-14659903D01*
X15696640Y-14688474D01*
X15682354Y-14702760D01*
X15653783Y-14717046D01*
X15596640Y-14717046D01*
X15568068Y-14731331D01*
X15553783Y-14745617D01*
X15539497Y-14774189D01*
X15539497Y-14831331D01*
X15553783Y-14859903D01*
X15568068Y-14874189D01*
X15596640Y-14888474D01*
X15653783Y-14888474D01*
X15682354Y-14874189D01*
X15696640Y-14859903D01*
X15710925Y-14831331D01*
X15710925Y-14774189D01*
X15696640Y-14745617D01*
X15682354Y-14731331D01*
X15653783Y-14717046D01*
X15810925Y-14588474D02*
X16010925Y-14588474D01*
X15882354Y-14888474D01*
X16110926Y-14588474D02*
X16110926Y-14645617D01*
X16225211Y-14588474D02*
X16225211Y-14645617D01*
X16668068Y-15002760D02*
X16653783Y-14988474D01*
X16625211Y-14945617D01*
X16610925Y-14917046D01*
X16596640Y-14874189D01*
X16582354Y-14802760D01*
X16582354Y-14745617D01*
X16596640Y-14674189D01*
X16610925Y-14631331D01*
X16625211Y-14602760D01*
X16653783Y-14559903D01*
X16668068Y-14545617D01*
X16910926Y-14688474D02*
X16910926Y-14888474D01*
X16839497Y-14574189D02*
X16768068Y-14788474D01*
X16953783Y-14788474D01*
X17296640Y-14888474D02*
X17296640Y-14588474D01*
X17425211Y-14888474D02*
X17425211Y-14731331D01*
X17410926Y-14702760D01*
X17382354Y-14688474D01*
X17339497Y-14688474D01*
X17310926Y-14702760D01*
X17296640Y-14717046D01*
X17610926Y-14888474D02*
X17582354Y-14874189D01*
X17568068Y-14859903D01*
X17553783Y-14831331D01*
X17553783Y-14745617D01*
X17568068Y-14717046D01*
X17582354Y-14702760D01*
X17610926Y-14688474D01*
X17653783Y-14688474D01*
X17682354Y-14702760D01*
X17696640Y-14717046D01*
X17710926Y-14745617D01*
X17710926Y-14831331D01*
X17696640Y-14859903D01*
X17682354Y-14874189D01*
X17653783Y-14888474D01*
X17610926Y-14888474D01*
X17882354Y-14888474D02*
X17853783Y-14874189D01*
X17839497Y-14845617D01*
X17839497Y-14588474D01*
X18110926Y-14874189D02*
X18082354Y-14888474D01*
X18025211Y-14888474D01*
X17996640Y-14874189D01*
X17982354Y-14845617D01*
X17982354Y-14731331D01*
X17996640Y-14702760D01*
X18025211Y-14688474D01*
X18082354Y-14688474D01*
X18110926Y-14702760D01*
X18125211Y-14731331D01*
X18125211Y-14759903D01*
X17982354Y-14788474D01*
X18239497Y-14874189D02*
X18268069Y-14888474D01*
X18325211Y-14888474D01*
X18353783Y-14874189D01*
X18368069Y-14845617D01*
X18368069Y-14831331D01*
X18353783Y-14802760D01*
X18325211Y-14788474D01*
X18282354Y-14788474D01*
X18253783Y-14774189D01*
X18239497Y-14745617D01*
X18239497Y-14731331D01*
X18253783Y-14702760D01*
X18282354Y-14688474D01*
X18325211Y-14688474D01*
X18353783Y-14702760D01*
X18468068Y-15002760D02*
X18482354Y-14988474D01*
X18510926Y-14945617D01*
X18525211Y-14917046D01*
X18539497Y-14874189D01*
X18553783Y-14802760D01*
X18553783Y-14745617D01*
X18539497Y-14674189D01*
X18525211Y-14631331D01*
X18510926Y-14602760D01*
X18482354Y-14559903D01*
X18468068Y-14545617D01*
X19010926Y-15002760D02*
X18996640Y-14988474D01*
X18968068Y-14945617D01*
X18953783Y-14917046D01*
X18939497Y-14874189D01*
X18925211Y-14802760D01*
X18925211Y-14745617D01*
X18939497Y-14674189D01*
X18953783Y-14631331D01*
X18968068Y-14602760D01*
X18996640Y-14559903D01*
X19010926Y-14545617D01*
X19125211Y-14688474D02*
X19125211Y-14888474D01*
X19125211Y-14717046D02*
X19139497Y-14702760D01*
X19168068Y-14688474D01*
X19210926Y-14688474D01*
X19239497Y-14702760D01*
X19253783Y-14731331D01*
X19253783Y-14888474D01*
X19439497Y-14888474D02*
X19410926Y-14874189D01*
X19396640Y-14859903D01*
X19382354Y-14831331D01*
X19382354Y-14745617D01*
X19396640Y-14717046D01*
X19410926Y-14702760D01*
X19439497Y-14688474D01*
X19482354Y-14688474D01*
X19510926Y-14702760D01*
X19525211Y-14717046D01*
X19539497Y-14745617D01*
X19539497Y-14831331D01*
X19525211Y-14859903D01*
X19510926Y-14874189D01*
X19482354Y-14888474D01*
X19439497Y-14888474D01*
X19625211Y-14688474D02*
X19739497Y-14688474D01*
X19668069Y-14588474D02*
X19668069Y-14845617D01*
X19682354Y-14874189D01*
X19710926Y-14888474D01*
X19739497Y-14888474D01*
X20068069Y-14688474D02*
X20068069Y-14988474D01*
X20068069Y-14702760D02*
X20096640Y-14688474D01*
X20153783Y-14688474D01*
X20182354Y-14702760D01*
X20196640Y-14717046D01*
X20210926Y-14745617D01*
X20210926Y-14831331D01*
X20196640Y-14859903D01*
X20182354Y-14874189D01*
X20153783Y-14888474D01*
X20096640Y-14888474D01*
X20068069Y-14874189D01*
X20382354Y-14888474D02*
X20353783Y-14874189D01*
X20339497Y-14845617D01*
X20339497Y-14588474D01*
X20625211Y-14888474D02*
X20625211Y-14731331D01*
X20610926Y-14702760D01*
X20582354Y-14688474D01*
X20525211Y-14688474D01*
X20496640Y-14702760D01*
X20625211Y-14874189D02*
X20596640Y-14888474D01*
X20525211Y-14888474D01*
X20496640Y-14874189D01*
X20482354Y-14845617D01*
X20482354Y-14817046D01*
X20496640Y-14788474D01*
X20525211Y-14774189D01*
X20596640Y-14774189D01*
X20625211Y-14759903D01*
X20725211Y-14688474D02*
X20839497Y-14688474D01*
X20768069Y-14588474D02*
X20768069Y-14845617D01*
X20782354Y-14874189D01*
X20810926Y-14888474D01*
X20839497Y-14888474D01*
X21053783Y-14874189D02*
X21025212Y-14888474D01*
X20968069Y-14888474D01*
X20939497Y-14874189D01*
X20925212Y-14845617D01*
X20925212Y-14731331D01*
X20939497Y-14702760D01*
X20968069Y-14688474D01*
X21025212Y-14688474D01*
X21053783Y-14702760D01*
X21068069Y-14731331D01*
X21068069Y-14759903D01*
X20925212Y-14788474D01*
X21325212Y-14888474D02*
X21325212Y-14588474D01*
X21325212Y-14874189D02*
X21296640Y-14888474D01*
X21239497Y-14888474D01*
X21210926Y-14874189D01*
X21196640Y-14859903D01*
X21182354Y-14831331D01*
X21182354Y-14745617D01*
X21196640Y-14717046D01*
X21210926Y-14702760D01*
X21239497Y-14688474D01*
X21296640Y-14688474D01*
X21325212Y-14702760D01*
X21439497Y-15002760D02*
X21453783Y-14988474D01*
X21482354Y-14945617D01*
X21496640Y-14917046D01*
X21510926Y-14874189D01*
X21525212Y-14802760D01*
X21525212Y-14745617D01*
X21510926Y-14674189D01*
X21496640Y-14631331D01*
X21482354Y-14602760D01*
X21453783Y-14559903D01*
X21439497Y-14545617D01*
M02*
