G04 #@! TF.FileFunction,Copper,L2,Bot,Signal*
%FSLAX46Y46*%
G04 Gerber Fmt 4.6, Leading zero omitted, Abs format (unit mm)*
G04 Created by KiCad (PCBNEW 4.0.6-e0-6349~52~ubuntu16.10.1) date Tue Jun 20 22:28:44 2017*
%MOMM*%
%LPD*%
G01*
G04 APERTURE LIST*
%ADD10C,0.100000*%
%ADD11R,2.200000X1.000000*%
%ADD12C,1.000000*%
%ADD13R,1.800000X1.800000*%
%ADD14C,1.800000*%
%ADD15R,1.727200X1.727200*%
%ADD16O,1.727200X1.727200*%
%ADD17R,1.700000X1.700000*%
%ADD18O,1.700000X1.700000*%
%ADD19R,2.000000X2.600000*%
%ADD20O,2.000000X2.600000*%
%ADD21R,1.600000X2.400000*%
%ADD22O,1.600000X2.400000*%
%ADD23C,1.400000*%
%ADD24O,1.400000X1.400000*%
%ADD25O,1.998980X1.998980*%
%ADD26R,1.998980X1.998980*%
%ADD27R,2.600000X2.000000*%
%ADD28O,2.600000X2.000000*%
%ADD29C,0.600000*%
%ADD30C,0.250000*%
G04 APERTURE END LIST*
D10*
D11*
X177240000Y-71520000D03*
D12*
X172190000Y-66270000D03*
X173390000Y-67070000D03*
X172190000Y-67870000D03*
X173390000Y-68670000D03*
X172190000Y-69470000D03*
D11*
X177240000Y-64220000D03*
D13*
X149860000Y-130810000D03*
D14*
X152400000Y-130810000D03*
X157480000Y-130810000D03*
X160020000Y-130810000D03*
X162560000Y-130810000D03*
X165100000Y-130810000D03*
X167640000Y-130810000D03*
X167640000Y-123190000D03*
X165100000Y-123190000D03*
X162560000Y-123190000D03*
X160020000Y-123190000D03*
X157480000Y-123190000D03*
X154940000Y-123190000D03*
X152400000Y-123190000D03*
X149860000Y-123190000D03*
X154940000Y-130810000D03*
D15*
X150456900Y-117221000D03*
D16*
X150456900Y-114681000D03*
X152996900Y-117221000D03*
X152996900Y-114681000D03*
X155536900Y-117221000D03*
X155536900Y-114681000D03*
X158076900Y-117221000D03*
X158076900Y-114681000D03*
X160616900Y-117221000D03*
X160616900Y-114681000D03*
X163156900Y-117221000D03*
X163156900Y-114681000D03*
X165696900Y-117221000D03*
X165696900Y-114681000D03*
X168236900Y-117221000D03*
X168236900Y-114681000D03*
X170776900Y-117221000D03*
X170776900Y-114681000D03*
X173316900Y-117221000D03*
X173316900Y-114681000D03*
X175856900Y-117221000D03*
X175856900Y-114681000D03*
X178396900Y-117221000D03*
X178396900Y-114681000D03*
X180936900Y-117221000D03*
X180936900Y-114681000D03*
D17*
X124390000Y-107270000D03*
D18*
X124390000Y-104730000D03*
X124390000Y-102190000D03*
X124390000Y-99650000D03*
X124390000Y-97110000D03*
X124390000Y-94570000D03*
X124390000Y-92030000D03*
X124390000Y-89490000D03*
X124390000Y-86950000D03*
X124390000Y-84410000D03*
D17*
X180940000Y-73970000D03*
D18*
X178400000Y-73970000D03*
X175860000Y-73970000D03*
X173320000Y-73970000D03*
X170780000Y-73970000D03*
X168240000Y-73970000D03*
X165700000Y-73970000D03*
X163160000Y-73970000D03*
X160620000Y-73970000D03*
X158080000Y-73970000D03*
X155540000Y-73970000D03*
X153000000Y-73970000D03*
X150460000Y-73970000D03*
D19*
X183190000Y-109070000D03*
D20*
X185730000Y-109070000D03*
X188270000Y-109070000D03*
D21*
X167790000Y-61270000D03*
D22*
X150010000Y-68890000D03*
X165250000Y-61270000D03*
X152550000Y-68890000D03*
X162710000Y-61270000D03*
X155090000Y-68890000D03*
X160170000Y-61270000D03*
X157630000Y-68890000D03*
X157630000Y-61270000D03*
X160170000Y-68890000D03*
X155090000Y-61270000D03*
X162710000Y-68890000D03*
X152550000Y-61270000D03*
X165250000Y-68890000D03*
X150010000Y-61270000D03*
X167790000Y-68890000D03*
D23*
X162190000Y-93270000D03*
D24*
X169810000Y-93270000D03*
D23*
X150790000Y-93270000D03*
D24*
X158410000Y-93270000D03*
D23*
X158590000Y-97870000D03*
D24*
X150970000Y-97870000D03*
D14*
X165130000Y-90470000D03*
D13*
X160050000Y-90470000D03*
D14*
X162590000Y-90470000D03*
X157530000Y-90470000D03*
D13*
X152450000Y-90470000D03*
D14*
X154990000Y-90470000D03*
X164930000Y-100470000D03*
D13*
X159850000Y-100470000D03*
D14*
X162390000Y-100470000D03*
X157330000Y-100470000D03*
D13*
X152250000Y-100470000D03*
D14*
X154790000Y-100470000D03*
D23*
X161990000Y-102870000D03*
D24*
X169610000Y-102870000D03*
D23*
X150990000Y-103270000D03*
D24*
X158610000Y-103270000D03*
D23*
X169590000Y-97870000D03*
D24*
X161970000Y-97870000D03*
D23*
X161990000Y-87870000D03*
D24*
X169610000Y-87870000D03*
D23*
X158590000Y-87870000D03*
D24*
X150970000Y-87870000D03*
D13*
X174625000Y-97028000D03*
D14*
X174625000Y-94488000D03*
D25*
X143002000Y-117246400D03*
D26*
X143002000Y-119786400D03*
D27*
X147574000Y-105918000D03*
D28*
X147574000Y-103378000D03*
X147574000Y-100838000D03*
X147574000Y-98298000D03*
X147574000Y-95758000D03*
X147574000Y-93218000D03*
X147574000Y-90678000D03*
X147574000Y-88138000D03*
X147574000Y-85598000D03*
X147574000Y-83058000D03*
D27*
X127254000Y-105918000D03*
D28*
X127254000Y-103378000D03*
X127254000Y-100838000D03*
X127254000Y-98298000D03*
X127254000Y-95758000D03*
X127254000Y-93218000D03*
X127254000Y-90678000D03*
X127254000Y-88138000D03*
X127254000Y-85598000D03*
X127254000Y-83058000D03*
D29*
X163190000Y-85770000D03*
X166690000Y-82370000D03*
X166990000Y-79170000D03*
X150090000Y-82970000D03*
X135790000Y-81970000D03*
X159490000Y-109270000D03*
X170790000Y-80070000D03*
X166690000Y-108070000D03*
X161690000Y-109070000D03*
X135788400Y-115544600D03*
X138582400Y-114477800D03*
X177038000Y-121666000D03*
X158140000Y-100420000D03*
X130683000Y-101828600D03*
X132890000Y-100570000D03*
X137890000Y-87270000D03*
X156890000Y-111070000D03*
X141690000Y-83770000D03*
X141190000Y-101770000D03*
X138990000Y-103770000D03*
X129794000Y-104521000D03*
X172593000Y-109982000D03*
X168783000Y-112141000D03*
X138590000Y-94370000D03*
X143190000Y-89070000D03*
X142790000Y-102670000D03*
X141190000Y-104470000D03*
X164390000Y-112370000D03*
X143990000Y-91970000D03*
D30*
X152450000Y-90470000D02*
X152450000Y-91610000D01*
X152450000Y-91610000D02*
X150790000Y-93270000D01*
X161990000Y-102870000D02*
X161990000Y-102610000D01*
X161990000Y-102610000D02*
X159850000Y-100470000D01*
X150990000Y-103270000D02*
X150990000Y-101730000D01*
X150990000Y-101730000D02*
X152250000Y-100470000D01*
X162390000Y-100470000D02*
X162369800Y-100470000D01*
X162369800Y-100470000D02*
X160096200Y-98196400D01*
X160096200Y-98196400D02*
X160096200Y-94570000D01*
X154790000Y-100470000D02*
X154790000Y-95970000D01*
X154790000Y-95970000D02*
X156090000Y-94670000D01*
X167790000Y-68890000D02*
X167790000Y-71070000D01*
X163290000Y-85770000D02*
X163190000Y-85770000D01*
X166690000Y-82370000D02*
X163290000Y-85770000D01*
X166990000Y-71870000D02*
X166990000Y-79170000D01*
X167790000Y-71070000D02*
X166990000Y-71870000D01*
X124390000Y-84410000D02*
X124390000Y-81070000D01*
X154990000Y-87870000D02*
X154990000Y-90470000D01*
X150090000Y-82970000D02*
X154990000Y-87870000D01*
X128490000Y-81970000D02*
X135790000Y-81970000D01*
X127790000Y-81270000D02*
X128490000Y-81970000D01*
X124590000Y-81270000D02*
X127790000Y-81270000D01*
X124390000Y-81070000D02*
X124590000Y-81270000D01*
X162590000Y-90470000D02*
X160890000Y-92170000D01*
X154990000Y-93370000D02*
X154990000Y-90470000D01*
X156190000Y-94570000D02*
X154990000Y-93370000D01*
X160190000Y-94570000D02*
X160096200Y-94570000D01*
X160096200Y-94570000D02*
X156190000Y-94570000D01*
X160890000Y-93870000D02*
X160190000Y-94570000D01*
X160890000Y-92170000D02*
X160890000Y-93870000D01*
X150456900Y-117221000D02*
X150291800Y-117221000D01*
X165250000Y-68890000D02*
X165250000Y-70910000D01*
X158076900Y-110683100D02*
X158076900Y-114681000D01*
X159490000Y-109270000D02*
X158076900Y-110683100D01*
X170639998Y-80070000D02*
X170790000Y-80070000D01*
X170539998Y-80170000D02*
X170639998Y-80070000D01*
X166190000Y-80170000D02*
X170539998Y-80170000D01*
X164490000Y-78470000D02*
X166190000Y-80170000D01*
X164490000Y-71670000D02*
X164490000Y-78470000D01*
X165250000Y-70910000D02*
X164490000Y-71670000D01*
X157416500Y-114528600D02*
X157331400Y-114528600D01*
X162710000Y-68890000D02*
X162710000Y-70050000D01*
X162710000Y-70050000D02*
X161890000Y-70870000D01*
X161890000Y-70870000D02*
X161890000Y-76870000D01*
X161890000Y-76870000D02*
X165690000Y-80670000D01*
X165690000Y-80670000D02*
X170290000Y-80670000D01*
X170290000Y-80670000D02*
X170890000Y-81270000D01*
X170890000Y-81270000D02*
X170890000Y-89770000D01*
X170890000Y-89770000D02*
X168490000Y-92170000D01*
X168490000Y-92170000D02*
X168490000Y-94070000D01*
X168490000Y-94070000D02*
X171590000Y-97170000D01*
X171590000Y-97170000D02*
X171590000Y-105970000D01*
X171590000Y-105970000D02*
X169490000Y-108070000D01*
X169490000Y-108070000D02*
X166690000Y-108070000D01*
X161690000Y-109070000D02*
X160616900Y-110143100D01*
X160616900Y-110143100D02*
X160616900Y-114681000D01*
X160616900Y-114681000D02*
X160616900Y-115143100D01*
X136639998Y-113538000D02*
X136590000Y-113538000D01*
X136590000Y-113587998D02*
X136639998Y-113538000D01*
X136590000Y-114743000D02*
X136590000Y-113587998D01*
X135788400Y-115544600D02*
X136590000Y-114743000D01*
X175290000Y-63170000D02*
X175290000Y-73400000D01*
X173590000Y-61470000D02*
X175290000Y-63170000D01*
X171890000Y-61470000D02*
X173590000Y-61470000D01*
X169390000Y-58970000D02*
X171890000Y-61470000D01*
X168190000Y-58970000D02*
X169390000Y-58970000D01*
X167790000Y-58570000D02*
X168190000Y-58970000D01*
X148690000Y-58570000D02*
X167790000Y-58570000D01*
X146190000Y-61070000D02*
X148690000Y-58570000D01*
X142490000Y-61070000D02*
X146190000Y-61070000D01*
X175290000Y-73400000D02*
X175860000Y-73970000D01*
X136590000Y-66970000D02*
X142490000Y-61070000D01*
X136590000Y-113538000D02*
X136590000Y-66970000D01*
X138582400Y-114477800D02*
X137160000Y-113055400D01*
X137160000Y-113055400D02*
X137160000Y-73634600D01*
X137160000Y-73634600D02*
X141935200Y-68859400D01*
X141935200Y-68859400D02*
X141935200Y-66116200D01*
X141935200Y-66116200D02*
X149021800Y-59029600D01*
X149021800Y-59029600D02*
X167309800Y-59029600D01*
X167309800Y-59029600D02*
X167817800Y-59537600D01*
X167817800Y-59537600D02*
X168986200Y-59537600D01*
X168986200Y-59537600D02*
X171577000Y-62128400D01*
X171577000Y-62128400D02*
X172974000Y-62128400D01*
X172974000Y-62128400D02*
X174828200Y-63982600D01*
X174828200Y-63982600D02*
X174828200Y-72461800D01*
X174828200Y-72461800D02*
X173320000Y-73970000D01*
X173320000Y-73970000D02*
X173590000Y-73970000D01*
X174625000Y-94488000D02*
X174625000Y-92964000D01*
X179091000Y-75819000D02*
X180940000Y-73970000D01*
X178181000Y-75819000D02*
X179091000Y-75819000D01*
X175641000Y-78359000D02*
X178181000Y-75819000D01*
X175641000Y-91948000D02*
X175641000Y-78359000D01*
X174625000Y-92964000D02*
X175641000Y-91948000D01*
X169928000Y-64008000D02*
X172190000Y-66270000D01*
X163068000Y-64008000D02*
X169928000Y-64008000D01*
X161544000Y-62484000D02*
X163068000Y-64008000D01*
X161544000Y-60325000D02*
X161544000Y-62484000D01*
X160782000Y-59563000D02*
X161544000Y-60325000D01*
X149352000Y-59563000D02*
X160782000Y-59563000D01*
X142494000Y-66421000D02*
X149352000Y-59563000D01*
X142494000Y-84709000D02*
X142494000Y-66421000D01*
X142240000Y-84963000D02*
X142494000Y-84709000D01*
X142240000Y-101727000D02*
X142240000Y-84963000D01*
X141986000Y-101981000D02*
X142240000Y-101727000D01*
X141986000Y-102870000D02*
X141986000Y-101981000D01*
X142748000Y-103632000D02*
X141986000Y-102870000D01*
X144145000Y-103632000D02*
X142748000Y-103632000D01*
X172190000Y-66270000D02*
X172190000Y-66316000D01*
X147690000Y-105770000D02*
X146283000Y-105770000D01*
X146283000Y-105770000D02*
X144145000Y-103632000D01*
X160170000Y-61270000D02*
X160170000Y-62650000D01*
X171690000Y-91390000D02*
X169810000Y-93270000D01*
X171690000Y-78470000D02*
X171690000Y-91390000D01*
X169590000Y-76370000D02*
X171690000Y-78470000D01*
X169590000Y-67270000D02*
X169590000Y-76370000D01*
X167990000Y-65670000D02*
X169590000Y-67270000D01*
X163190000Y-65670000D02*
X167990000Y-65670000D01*
X160170000Y-62650000D02*
X163190000Y-65670000D01*
X152550000Y-61270000D02*
X152550000Y-64510000D01*
X156290000Y-91150000D02*
X158410000Y-93270000D01*
X156290000Y-84370000D02*
X156290000Y-91150000D01*
X146290000Y-74370000D02*
X156290000Y-84370000D01*
X146290000Y-66670000D02*
X146290000Y-74370000D01*
X146690000Y-66270000D02*
X146290000Y-66670000D01*
X150790000Y-66270000D02*
X146690000Y-66270000D01*
X152550000Y-64510000D02*
X150790000Y-66270000D01*
X150010000Y-68890000D02*
X150010000Y-71090000D01*
X163890000Y-95950000D02*
X161970000Y-97870000D01*
X163890000Y-89570000D02*
X163890000Y-95950000D01*
X163490000Y-89170000D02*
X163890000Y-89570000D01*
X161190000Y-89170000D02*
X163490000Y-89170000D01*
X160490000Y-88470000D02*
X161190000Y-89170000D01*
X160490000Y-87370000D02*
X160490000Y-88470000D01*
X151790000Y-78670000D02*
X160490000Y-87370000D01*
X151790000Y-72870000D02*
X151790000Y-78670000D01*
X150010000Y-71090000D02*
X151790000Y-72870000D01*
X174890000Y-97293000D02*
X174890000Y-106470000D01*
X182439000Y-117221000D02*
X182890000Y-116770000D01*
X182890000Y-116770000D02*
X182890000Y-114470000D01*
X182890000Y-114470000D02*
X174890000Y-106470000D01*
X182439000Y-117221000D02*
X180936900Y-117221000D01*
X174890000Y-97293000D02*
X174625000Y-97028000D01*
X174890000Y-78170000D02*
X174890000Y-91683000D01*
X178400000Y-74660000D02*
X174890000Y-78170000D01*
X173101000Y-95504000D02*
X174625000Y-97028000D01*
X173101000Y-93472000D02*
X173101000Y-95504000D01*
X174890000Y-91683000D02*
X173101000Y-93472000D01*
X177038000Y-121666000D02*
X180936900Y-117767100D01*
X180936900Y-117767100D02*
X180936900Y-117221000D01*
X178400000Y-74660000D02*
X178400000Y-73970000D01*
X180936900Y-117221000D02*
X180936900Y-116923100D01*
X178396900Y-74053700D02*
X178396900Y-74434700D01*
X157330000Y-100470000D02*
X157330000Y-99130000D01*
X157330000Y-99130000D02*
X158590000Y-97870000D01*
X158590000Y-87870000D02*
X158590000Y-89410000D01*
X158590000Y-89410000D02*
X157530000Y-90470000D01*
X167576500Y-114528600D02*
X167576500Y-114773700D01*
X145897600Y-125425200D02*
X145262600Y-125425200D01*
X152400000Y-124282200D02*
X151257000Y-125425200D01*
X151257000Y-125425200D02*
X145897600Y-125425200D01*
X134467600Y-120142000D02*
X132334000Y-118008400D01*
X132334000Y-118008400D02*
X132334000Y-103479600D01*
X132334000Y-103479600D02*
X130683000Y-101828600D01*
X152400000Y-124282200D02*
X152400000Y-123190000D01*
X139979400Y-120142000D02*
X134467600Y-120142000D01*
X145262600Y-125425200D02*
X139979400Y-120142000D01*
X163156900Y-117221000D02*
X163156900Y-117944900D01*
X163156900Y-117944900D02*
X162483800Y-118618000D01*
X162483800Y-118618000D02*
X159473900Y-118618000D01*
X155536900Y-117221000D02*
X155536900Y-120053100D01*
X155536900Y-120053100D02*
X152400000Y-123190000D01*
X155536900Y-117221000D02*
X155536900Y-117473100D01*
X143690000Y-121370000D02*
X141969400Y-121370000D01*
X132890000Y-116070000D02*
X132890000Y-100570000D01*
X133583800Y-116763800D02*
X132890000Y-116070000D01*
X151190000Y-121370000D02*
X143690000Y-121370000D01*
X152996900Y-119563100D02*
X151190000Y-121370000D01*
X152996900Y-119563100D02*
X152996900Y-117221000D01*
X137363200Y-116763800D02*
X133583800Y-116763800D01*
X141969400Y-121370000D02*
X137363200Y-116763800D01*
X159473900Y-118618000D02*
X158076900Y-117221000D01*
X158076900Y-117221000D02*
X157741000Y-117221000D01*
X157741000Y-117221000D02*
X156790000Y-116270000D01*
X155190000Y-111670000D02*
X143890000Y-111670000D01*
X156790000Y-113270000D02*
X155190000Y-111670000D01*
X156790000Y-116270000D02*
X156790000Y-113270000D01*
X158076900Y-117221000D02*
X158076900Y-117156900D01*
X137690000Y-87470000D02*
X137890000Y-87270000D01*
X137690000Y-105470000D02*
X137690000Y-87470000D01*
X143890000Y-111670000D02*
X137690000Y-105470000D01*
X170776900Y-114973100D02*
X169545000Y-116205000D01*
X169545000Y-116205000D02*
X169545000Y-121285000D01*
X169545000Y-121285000D02*
X167640000Y-123190000D01*
X170776900Y-114681000D02*
X170776900Y-114973100D01*
X141690000Y-101270000D02*
X141690000Y-83770000D01*
X141190000Y-101770000D02*
X141690000Y-101270000D01*
X144290000Y-109070000D02*
X138990000Y-103770000D01*
X154890000Y-109070000D02*
X144290000Y-109070000D01*
X156890000Y-111070000D02*
X154890000Y-109070000D01*
X142748000Y-129438400D02*
X141630400Y-129438400D01*
X142748000Y-129438400D02*
X143941800Y-129438400D01*
X145313400Y-130810000D02*
X143941800Y-129438400D01*
X131826000Y-117348000D02*
X131826000Y-106553000D01*
X131826000Y-106553000D02*
X129794000Y-104521000D01*
X131826000Y-117348000D02*
X131826000Y-118516400D01*
X131826000Y-119634000D02*
X131826000Y-118516400D01*
X141630400Y-129438400D02*
X131826000Y-119634000D01*
X149860000Y-130810000D02*
X145313400Y-130810000D01*
X145313400Y-130810000D02*
X145288000Y-130810000D01*
X170942000Y-109982000D02*
X172593000Y-109982000D01*
X168783000Y-112141000D02*
X170942000Y-109982000D01*
X165696900Y-117221000D02*
X165696900Y-117640100D01*
X165696900Y-117640100D02*
X163957000Y-119380000D01*
X156210000Y-124460000D02*
X149860000Y-130810000D01*
X156210000Y-120650000D02*
X156210000Y-124460000D01*
X157480000Y-119380000D02*
X156210000Y-120650000D01*
X163957000Y-119380000D02*
X157480000Y-119380000D01*
X165696900Y-117221000D02*
X165696900Y-117663100D01*
X168236900Y-117221000D02*
X168236900Y-119545100D01*
X168236900Y-119545100D02*
X166751000Y-121031000D01*
X166751000Y-121031000D02*
X159639000Y-121031000D01*
X159639000Y-121031000D02*
X157480000Y-123190000D01*
X168236900Y-117221000D02*
X168236900Y-117016900D01*
X168236900Y-117016900D02*
X166890000Y-115670000D01*
X166890000Y-115670000D02*
X166890000Y-110370000D01*
X138590000Y-100570000D02*
X138590000Y-94370000D01*
X163690000Y-107170000D02*
X145190000Y-107170000D01*
X166890000Y-110370000D02*
X163690000Y-107170000D01*
X145190000Y-107170000D02*
X138590000Y-100570000D01*
X173342300Y-123101100D02*
X173342300Y-117246400D01*
X173342300Y-117246400D02*
X173316900Y-117221000D01*
X185730000Y-109070000D02*
X185730000Y-119755800D01*
X176657000Y-126415800D02*
X173342300Y-123101100D01*
X173342300Y-123101100D02*
X173311200Y-123070000D01*
X179070000Y-126415800D02*
X176657000Y-126415800D01*
X185730000Y-119755800D02*
X179070000Y-126415800D01*
X173311200Y-123070000D02*
X173221000Y-123070000D01*
X164338000Y-124968000D02*
X162560000Y-123190000D01*
X171323000Y-124968000D02*
X164338000Y-124968000D01*
X173221000Y-123070000D02*
X171323000Y-124968000D01*
X143190000Y-102270000D02*
X143190000Y-89070000D01*
X142790000Y-102670000D02*
X143190000Y-102270000D01*
X141190000Y-104519998D02*
X141190000Y-104470000D01*
X144940002Y-108270000D02*
X141190000Y-104519998D01*
X162390000Y-108270000D02*
X144940002Y-108270000D01*
X162790000Y-108670000D02*
X162390000Y-108270000D01*
X162790000Y-110770000D02*
X162790000Y-108670000D01*
X164390000Y-112370000D02*
X162790000Y-110770000D01*
X178396900Y-117221000D02*
X178396900Y-116876900D01*
X178396900Y-116876900D02*
X177190000Y-115670000D01*
X177190000Y-115670000D02*
X177190000Y-113670000D01*
X177190000Y-113670000D02*
X172790000Y-109270000D01*
X143990000Y-102570000D02*
X143990000Y-91970000D01*
X172790000Y-109270000D02*
X166990000Y-109270000D01*
X166990000Y-109270000D02*
X163290000Y-105570000D01*
X145890000Y-104470000D02*
X143990000Y-102570000D01*
X148890000Y-104470000D02*
X145890000Y-104470000D01*
X149990000Y-105570000D02*
X148890000Y-104470000D01*
X163290000Y-105570000D02*
X149990000Y-105570000D01*
M02*
