G04 #@! TF.FileFunction,Drawing*
%FSLAX46Y46*%
G04 Gerber Fmt 4.6, Leading zero omitted, Abs format (unit mm)*
G04 Created by KiCad (PCBNEW 4.0.5-e0-6337~49~ubuntu16.04.1) date Wed Jan 25 22:29:53 2017*
%MOMM*%
%LPD*%
G01*
G04 APERTURE LIST*
%ADD10C,0.100000*%
G04 APERTURE END LIST*
D10*
X162762815Y-81357963D02*
X148762437Y-81357989D01*
X162762764Y-95358443D02*
X162762815Y-81357963D01*
X148762335Y-95358418D02*
X162762764Y-95358443D01*
X148762437Y-81357989D02*
X148762335Y-95358418D01*
X162361470Y-81357963D02*
X162762815Y-81759309D01*
X162562181Y-81358116D02*
X162762764Y-81558700D01*
X162136426Y-81008231D02*
G75*
G02X162388800Y-81008231I126187J4D01*
G01*
X162388800Y-81008231D02*
G75*
G02X162136426Y-81008231I-126187J4D01*
G01*
X162402161Y-94858140D02*
G75*
G03X162402161Y-94858140I-139700J0D01*
G01*
X161101655Y-94858140D02*
G75*
G03X161101655Y-94858140I-139700J0D01*
G01*
X161751844Y-94858140D02*
G75*
G03X161751844Y-94858140I-139700J0D01*
G01*
X159153450Y-94858140D02*
G75*
G03X159153450Y-94858140I-139700J0D01*
G01*
X159801150Y-94858140D02*
G75*
G03X159801150Y-94858140I-139700J0D01*
G01*
X157852944Y-94858140D02*
G75*
G03X157852944Y-94858140I-139700J0D01*
G01*
X155902250Y-94858140D02*
G75*
G03X155902250Y-94858140I-139700J0D01*
G01*
X157202755Y-94858140D02*
G75*
G03X157202755Y-94858140I-139700J0D01*
G01*
X155252061Y-94858140D02*
G75*
G03X155252061Y-94858140I-139700J0D01*
G01*
X153301239Y-94858140D02*
G75*
G03X153301239Y-94858140I-139700J0D01*
G01*
X153951555Y-94858140D02*
G75*
G03X153951555Y-94858140I-139700J0D01*
G01*
X151353161Y-94858140D02*
G75*
G03X151353161Y-94858140I-139700J0D01*
G01*
X152003350Y-94858140D02*
G75*
G03X152003350Y-94858140I-139700J0D01*
G01*
X150052655Y-94858140D02*
G75*
G03X150052655Y-94858140I-139700J0D01*
G01*
X150702844Y-94858140D02*
G75*
G03X150702844Y-94858140I-139700J0D01*
G01*
X149402339Y-94858140D02*
G75*
G03X149402339Y-94858140I-139700J0D01*
G01*
X162402161Y-94207823D02*
G75*
G03X162402161Y-94207823I-139700J0D01*
G01*
X162402161Y-93557634D02*
G75*
G03X162402161Y-93557634I-139700J0D01*
G01*
X160451339Y-94207823D02*
G75*
G03X160451339Y-94207823I-139700J0D01*
G01*
X160451339Y-93557634D02*
G75*
G03X160451339Y-93557634I-139700J0D01*
G01*
X161101655Y-94207823D02*
G75*
G03X161101655Y-94207823I-139700J0D01*
G01*
X161101655Y-93557634D02*
G75*
G03X161101655Y-93557634I-139700J0D01*
G01*
X161751844Y-94207823D02*
G75*
G03X161751844Y-94207823I-139700J0D01*
G01*
X161751844Y-93557634D02*
G75*
G03X161751844Y-93557634I-139700J0D01*
G01*
X159153450Y-94207823D02*
G75*
G03X159153450Y-94207823I-139700J0D01*
G01*
X159153450Y-93557634D02*
G75*
G03X159153450Y-93557634I-139700J0D01*
G01*
X159801150Y-94207823D02*
G75*
G03X159801150Y-94207823I-139700J0D01*
G01*
X159801150Y-93557634D02*
G75*
G03X159801150Y-93557634I-139700J0D01*
G01*
X157852944Y-94207823D02*
G75*
G03X157852944Y-94207823I-139700J0D01*
G01*
X157852944Y-93557634D02*
G75*
G03X157852944Y-93557634I-139700J0D01*
G01*
X158503261Y-94207823D02*
G75*
G03X158503261Y-94207823I-139700J0D01*
G01*
X155902250Y-94207823D02*
G75*
G03X155902250Y-94207823I-139700J0D01*
G01*
X155902250Y-93557634D02*
G75*
G03X155902250Y-93557634I-139700J0D01*
G01*
X156552439Y-94207823D02*
G75*
G03X156552439Y-94207823I-139700J0D01*
G01*
X157202755Y-94207823D02*
G75*
G03X157202755Y-94207823I-139700J0D01*
G01*
X157202755Y-93557634D02*
G75*
G03X157202755Y-93557634I-139700J0D01*
G01*
X154601744Y-94207823D02*
G75*
G03X154601744Y-94207823I-139700J0D01*
G01*
X154601744Y-93557634D02*
G75*
G03X154601744Y-93557634I-139700J0D01*
G01*
X155252061Y-94207823D02*
G75*
G03X155252061Y-94207823I-139700J0D01*
G01*
X155252061Y-93557634D02*
G75*
G03X155252061Y-93557634I-139700J0D01*
G01*
X153301239Y-94207823D02*
G75*
G03X153301239Y-94207823I-139700J0D01*
G01*
X153301239Y-93557634D02*
G75*
G03X153301239Y-93557634I-139700J0D01*
G01*
X153951555Y-94207823D02*
G75*
G03X153951555Y-94207823I-139700J0D01*
G01*
X153951555Y-93557634D02*
G75*
G03X153951555Y-93557634I-139700J0D01*
G01*
X151353161Y-94207823D02*
G75*
G03X151353161Y-94207823I-139700J0D01*
G01*
X151353161Y-93557634D02*
G75*
G03X151353161Y-93557634I-139700J0D01*
G01*
X152003350Y-94207823D02*
G75*
G03X152003350Y-94207823I-139700J0D01*
G01*
X152003350Y-93557634D02*
G75*
G03X152003350Y-93557634I-139700J0D01*
G01*
X152651050Y-94207823D02*
G75*
G03X152651050Y-94207823I-139700J0D01*
G01*
X150052655Y-94207823D02*
G75*
G03X150052655Y-94207823I-139700J0D01*
G01*
X150052655Y-93557634D02*
G75*
G03X150052655Y-93557634I-139700J0D01*
G01*
X150702844Y-94207823D02*
G75*
G03X150702844Y-94207823I-139700J0D01*
G01*
X149402339Y-94207823D02*
G75*
G03X149402339Y-94207823I-139700J0D01*
G01*
X149402339Y-93557634D02*
G75*
G03X149402339Y-93557634I-139700J0D01*
G01*
X162402161Y-92257129D02*
G75*
G03X162402161Y-92257129I-139700J0D01*
G01*
X162402161Y-91609429D02*
G75*
G03X162402161Y-91609429I-139700J0D01*
G01*
X160451339Y-92257129D02*
G75*
G03X160451339Y-92257129I-139700J0D01*
G01*
X161101655Y-92907318D02*
G75*
G03X161101655Y-92907318I-139700J0D01*
G01*
X161101655Y-92257129D02*
G75*
G03X161101655Y-92257129I-139700J0D01*
G01*
X161101655Y-91609429D02*
G75*
G03X161101655Y-91609429I-139700J0D01*
G01*
X161751844Y-92907318D02*
G75*
G03X161751844Y-92907318I-139700J0D01*
G01*
X161751844Y-92257129D02*
G75*
G03X161751844Y-92257129I-139700J0D01*
G01*
X161751844Y-91609429D02*
G75*
G03X161751844Y-91609429I-139700J0D01*
G01*
X159153450Y-92907318D02*
G75*
G03X159153450Y-92907318I-139700J0D01*
G01*
X159153450Y-92257129D02*
G75*
G03X159153450Y-92257129I-139700J0D01*
G01*
X159153450Y-91609429D02*
G75*
G03X159153450Y-91609429I-139700J0D01*
G01*
X159801150Y-92907318D02*
G75*
G03X159801150Y-92907318I-139700J0D01*
G01*
X159801150Y-91609429D02*
G75*
G03X159801150Y-91609429I-139700J0D01*
G01*
X157852944Y-92907318D02*
G75*
G03X157852944Y-92907318I-139700J0D01*
G01*
X157852944Y-92257129D02*
G75*
G03X157852944Y-92257129I-139700J0D01*
G01*
X157852944Y-91609429D02*
G75*
G03X157852944Y-91609429I-139700J0D01*
G01*
X158503261Y-92907318D02*
G75*
G03X158503261Y-92907318I-139700J0D01*
G01*
X155902250Y-92907318D02*
G75*
G03X155902250Y-92907318I-139700J0D01*
G01*
X155902250Y-92257129D02*
G75*
G03X155902250Y-92257129I-139700J0D01*
G01*
X155902250Y-91609429D02*
G75*
G03X155902250Y-91609429I-139700J0D01*
G01*
X156552439Y-92907318D02*
G75*
G03X156552439Y-92907318I-139700J0D01*
G01*
X156552439Y-92257129D02*
G75*
G03X156552439Y-92257129I-139700J0D01*
G01*
X156552439Y-91609429D02*
G75*
G03X156552439Y-91609429I-139700J0D01*
G01*
X157202755Y-91609429D02*
G75*
G03X157202755Y-91609429I-139700J0D01*
G01*
X154601744Y-92257129D02*
G75*
G03X154601744Y-92257129I-139700J0D01*
G01*
X154601744Y-91609429D02*
G75*
G03X154601744Y-91609429I-139700J0D01*
G01*
X155252061Y-91609429D02*
G75*
G03X155252061Y-91609429I-139700J0D01*
G01*
X153301239Y-92907318D02*
G75*
G03X153301239Y-92907318I-139700J0D01*
G01*
X153301239Y-92257129D02*
G75*
G03X153301239Y-92257129I-139700J0D01*
G01*
X153301239Y-91609429D02*
G75*
G03X153301239Y-91609429I-139700J0D01*
G01*
X153951555Y-92257129D02*
G75*
G03X153951555Y-92257129I-139700J0D01*
G01*
X153951555Y-91609429D02*
G75*
G03X153951555Y-91609429I-139700J0D01*
G01*
X151353161Y-92257129D02*
G75*
G03X151353161Y-92257129I-139700J0D01*
G01*
X152003350Y-92907318D02*
G75*
G03X152003350Y-92907318I-139700J0D01*
G01*
X152003350Y-91609429D02*
G75*
G03X152003350Y-91609429I-139700J0D01*
G01*
X152651050Y-92907318D02*
G75*
G03X152651050Y-92907318I-139700J0D01*
G01*
X152651050Y-92257129D02*
G75*
G03X152651050Y-92257129I-139700J0D01*
G01*
X152651050Y-91609429D02*
G75*
G03X152651050Y-91609429I-139700J0D01*
G01*
X150052655Y-92907318D02*
G75*
G03X150052655Y-92907318I-139700J0D01*
G01*
X150052655Y-92257129D02*
G75*
G03X150052655Y-92257129I-139700J0D01*
G01*
X150052655Y-91609429D02*
G75*
G03X150052655Y-91609429I-139700J0D01*
G01*
X150702844Y-92907318D02*
G75*
G03X150702844Y-92907318I-139700J0D01*
G01*
X150702844Y-92257129D02*
G75*
G03X150702844Y-92257129I-139700J0D01*
G01*
X149402339Y-92907318D02*
G75*
G03X149402339Y-92907318I-139700J0D01*
G01*
X149402339Y-92257129D02*
G75*
G03X149402339Y-92257129I-139700J0D01*
G01*
X162402161Y-90308923D02*
G75*
G03X162402161Y-90308923I-139700J0D01*
G01*
X160451339Y-90959240D02*
G75*
G03X160451339Y-90959240I-139700J0D01*
G01*
X161101655Y-90959240D02*
G75*
G03X161101655Y-90959240I-139700J0D01*
G01*
X161101655Y-90308923D02*
G75*
G03X161101655Y-90308923I-139700J0D01*
G01*
X161751844Y-90959240D02*
G75*
G03X161751844Y-90959240I-139700J0D01*
G01*
X161751844Y-90308923D02*
G75*
G03X161751844Y-90308923I-139700J0D01*
G01*
X159153450Y-90308923D02*
G75*
G03X159153450Y-90308923I-139700J0D01*
G01*
X159801150Y-90959240D02*
G75*
G03X159801150Y-90959240I-139700J0D01*
G01*
X159801150Y-90308923D02*
G75*
G03X159801150Y-90308923I-139700J0D01*
G01*
X157852944Y-90959240D02*
G75*
G03X157852944Y-90959240I-139700J0D01*
G01*
X157852944Y-90308923D02*
G75*
G03X157852944Y-90308923I-139700J0D01*
G01*
X158503261Y-90959240D02*
G75*
G03X158503261Y-90959240I-139700J0D01*
G01*
X158503261Y-90308923D02*
G75*
G03X158503261Y-90308923I-139700J0D01*
G01*
X155902250Y-90959240D02*
G75*
G03X155902250Y-90959240I-139700J0D01*
G01*
X155902250Y-90308923D02*
G75*
G03X155902250Y-90308923I-139700J0D01*
G01*
X156552439Y-90959240D02*
G75*
G03X156552439Y-90959240I-139700J0D01*
G01*
X156552439Y-90308923D02*
G75*
G03X156552439Y-90308923I-139700J0D01*
G01*
X157202755Y-90959240D02*
G75*
G03X157202755Y-90959240I-139700J0D01*
G01*
X157202755Y-90308923D02*
G75*
G03X157202755Y-90308923I-139700J0D01*
G01*
X154601744Y-90959240D02*
G75*
G03X154601744Y-90959240I-139700J0D01*
G01*
X154601744Y-90308923D02*
G75*
G03X154601744Y-90308923I-139700J0D01*
G01*
X155252061Y-90959240D02*
G75*
G03X155252061Y-90959240I-139700J0D01*
G01*
X155252061Y-90308923D02*
G75*
G03X155252061Y-90308923I-139700J0D01*
G01*
X153301239Y-90308923D02*
G75*
G03X153301239Y-90308923I-139700J0D01*
G01*
X153951555Y-90959240D02*
G75*
G03X153951555Y-90959240I-139700J0D01*
G01*
X153951555Y-90308923D02*
G75*
G03X153951555Y-90308923I-139700J0D01*
G01*
X151353161Y-90959240D02*
G75*
G03X151353161Y-90959240I-139700J0D01*
G01*
X152003350Y-90959240D02*
G75*
G03X152003350Y-90959240I-139700J0D01*
G01*
X152651050Y-90959240D02*
G75*
G03X152651050Y-90959240I-139700J0D01*
G01*
X152651050Y-90308923D02*
G75*
G03X152651050Y-90308923I-139700J0D01*
G01*
X150052655Y-90959240D02*
G75*
G03X150052655Y-90959240I-139700J0D01*
G01*
X150052655Y-90308923D02*
G75*
G03X150052655Y-90308923I-139700J0D01*
G01*
X150702844Y-90959240D02*
G75*
G03X150702844Y-90959240I-139700J0D01*
G01*
X149402339Y-90959240D02*
G75*
G03X149402339Y-90959240I-139700J0D01*
G01*
X149402339Y-90308923D02*
G75*
G03X149402339Y-90308923I-139700J0D01*
G01*
X162402161Y-89658734D02*
G75*
G03X162402161Y-89658734I-139700J0D01*
G01*
X160451339Y-89658734D02*
G75*
G03X160451339Y-89658734I-139700J0D01*
G01*
X161101655Y-89658734D02*
G75*
G03X161101655Y-89658734I-139700J0D01*
G01*
X161101655Y-89008418D02*
G75*
G03X161101655Y-89008418I-139700J0D01*
G01*
X161751844Y-89658734D02*
G75*
G03X161751844Y-89658734I-139700J0D01*
G01*
X161751844Y-89008418D02*
G75*
G03X161751844Y-89008418I-139700J0D01*
G01*
X159153450Y-89658734D02*
G75*
G03X159153450Y-89658734I-139700J0D01*
G01*
X159801150Y-89658734D02*
G75*
G03X159801150Y-89658734I-139700J0D01*
G01*
X157852944Y-89658734D02*
G75*
G03X157852944Y-89658734I-139700J0D01*
G01*
X157852944Y-89008418D02*
G75*
G03X157852944Y-89008418I-139700J0D01*
G01*
X158503261Y-89658734D02*
G75*
G03X158503261Y-89658734I-139700J0D01*
G01*
X158503261Y-89008418D02*
G75*
G03X158503261Y-89008418I-139700J0D01*
G01*
X155902250Y-89658734D02*
G75*
G03X155902250Y-89658734I-139700J0D01*
G01*
X155902250Y-89008418D02*
G75*
G03X155902250Y-89008418I-139700J0D01*
G01*
X156552439Y-89658734D02*
G75*
G03X156552439Y-89658734I-139700J0D01*
G01*
X156552439Y-89008418D02*
G75*
G03X156552439Y-89008418I-139700J0D01*
G01*
X157202755Y-89658734D02*
G75*
G03X157202755Y-89658734I-139700J0D01*
G01*
X157202755Y-89008418D02*
G75*
G03X157202755Y-89008418I-139700J0D01*
G01*
X154601744Y-89658734D02*
G75*
G03X154601744Y-89658734I-139700J0D01*
G01*
X154601744Y-89008418D02*
G75*
G03X154601744Y-89008418I-139700J0D01*
G01*
X155252061Y-89658734D02*
G75*
G03X155252061Y-89658734I-139700J0D01*
G01*
X155252061Y-89008418D02*
G75*
G03X155252061Y-89008418I-139700J0D01*
G01*
X153301239Y-89658734D02*
G75*
G03X153301239Y-89658734I-139700J0D01*
G01*
X153301239Y-89008418D02*
G75*
G03X153301239Y-89008418I-139700J0D01*
G01*
X153951555Y-89658734D02*
G75*
G03X153951555Y-89658734I-139700J0D01*
G01*
X153951555Y-89008418D02*
G75*
G03X153951555Y-89008418I-139700J0D01*
G01*
X151353161Y-89658734D02*
G75*
G03X151353161Y-89658734I-139700J0D01*
G01*
X151353161Y-89008418D02*
G75*
G03X151353161Y-89008418I-139700J0D01*
G01*
X152651050Y-89658734D02*
G75*
G03X152651050Y-89658734I-139700J0D01*
G01*
X152651050Y-89008418D02*
G75*
G03X152651050Y-89008418I-139700J0D01*
G01*
X150052655Y-89658734D02*
G75*
G03X150052655Y-89658734I-139700J0D01*
G01*
X150052655Y-89008418D02*
G75*
G03X150052655Y-89008418I-139700J0D01*
G01*
X150702844Y-89658734D02*
G75*
G03X150702844Y-89658734I-139700J0D01*
G01*
X150702844Y-89008418D02*
G75*
G03X150702844Y-89008418I-139700J0D01*
G01*
X149402339Y-89008418D02*
G75*
G03X149402339Y-89008418I-139700J0D01*
G01*
X162402161Y-88358229D02*
G75*
G03X162402161Y-88358229I-139700J0D01*
G01*
X162402161Y-87708040D02*
G75*
G03X162402161Y-87708040I-139700J0D01*
G01*
X160451339Y-88358229D02*
G75*
G03X160451339Y-88358229I-139700J0D01*
G01*
X160451339Y-87708040D02*
G75*
G03X160451339Y-87708040I-139700J0D01*
G01*
X161101655Y-88358229D02*
G75*
G03X161101655Y-88358229I-139700J0D01*
G01*
X161101655Y-87708040D02*
G75*
G03X161101655Y-87708040I-139700J0D01*
G01*
X161101655Y-87057723D02*
G75*
G03X161101655Y-87057723I-139700J0D01*
G01*
X161751844Y-88358229D02*
G75*
G03X161751844Y-88358229I-139700J0D01*
G01*
X161751844Y-87708040D02*
G75*
G03X161751844Y-87708040I-139700J0D01*
G01*
X161751844Y-87057723D02*
G75*
G03X161751844Y-87057723I-139700J0D01*
G01*
X159153450Y-88358229D02*
G75*
G03X159153450Y-88358229I-139700J0D01*
G01*
X159153450Y-87708040D02*
G75*
G03X159153450Y-87708040I-139700J0D01*
G01*
X159801150Y-88358229D02*
G75*
G03X159801150Y-88358229I-139700J0D01*
G01*
X159801150Y-87708040D02*
G75*
G03X159801150Y-87708040I-139700J0D01*
G01*
X157852944Y-88358229D02*
G75*
G03X157852944Y-88358229I-139700J0D01*
G01*
X157852944Y-87708040D02*
G75*
G03X157852944Y-87708040I-139700J0D01*
G01*
X158503261Y-88358229D02*
G75*
G03X158503261Y-88358229I-139700J0D01*
G01*
X158503261Y-87708040D02*
G75*
G03X158503261Y-87708040I-139700J0D01*
G01*
X158503261Y-87057723D02*
G75*
G03X158503261Y-87057723I-139700J0D01*
G01*
X155902250Y-88358229D02*
G75*
G03X155902250Y-88358229I-139700J0D01*
G01*
X155902250Y-87708040D02*
G75*
G03X155902250Y-87708040I-139700J0D01*
G01*
X155902250Y-87057723D02*
G75*
G03X155902250Y-87057723I-139700J0D01*
G01*
X156552439Y-88358229D02*
G75*
G03X156552439Y-88358229I-139700J0D01*
G01*
X156552439Y-87708040D02*
G75*
G03X156552439Y-87708040I-139700J0D01*
G01*
X156552439Y-87057723D02*
G75*
G03X156552439Y-87057723I-139700J0D01*
G01*
X157202755Y-88358229D02*
G75*
G03X157202755Y-88358229I-139700J0D01*
G01*
X157202755Y-87708040D02*
G75*
G03X157202755Y-87708040I-139700J0D01*
G01*
X157202755Y-87057723D02*
G75*
G03X157202755Y-87057723I-139700J0D01*
G01*
X154601744Y-88358229D02*
G75*
G03X154601744Y-88358229I-139700J0D01*
G01*
X154601744Y-87708040D02*
G75*
G03X154601744Y-87708040I-139700J0D01*
G01*
X154601744Y-87057723D02*
G75*
G03X154601744Y-87057723I-139700J0D01*
G01*
X155252061Y-88358229D02*
G75*
G03X155252061Y-88358229I-139700J0D01*
G01*
X155252061Y-87708040D02*
G75*
G03X155252061Y-87708040I-139700J0D01*
G01*
X155252061Y-87057723D02*
G75*
G03X155252061Y-87057723I-139700J0D01*
G01*
X153301239Y-88358229D02*
G75*
G03X153301239Y-88358229I-139700J0D01*
G01*
X153301239Y-87708040D02*
G75*
G03X153301239Y-87708040I-139700J0D01*
G01*
X153301239Y-87057723D02*
G75*
G03X153301239Y-87057723I-139700J0D01*
G01*
X153951555Y-88358229D02*
G75*
G03X153951555Y-88358229I-139700J0D01*
G01*
X153951555Y-87708040D02*
G75*
G03X153951555Y-87708040I-139700J0D01*
G01*
X153951555Y-87057723D02*
G75*
G03X153951555Y-87057723I-139700J0D01*
G01*
X151353161Y-88358229D02*
G75*
G03X151353161Y-88358229I-139700J0D01*
G01*
X151353161Y-87708040D02*
G75*
G03X151353161Y-87708040I-139700J0D01*
G01*
X152003350Y-88358229D02*
G75*
G03X152003350Y-88358229I-139700J0D01*
G01*
X152003350Y-87057723D02*
G75*
G03X152003350Y-87057723I-139700J0D01*
G01*
X152651050Y-88358229D02*
G75*
G03X152651050Y-88358229I-139700J0D01*
G01*
X152651050Y-87708040D02*
G75*
G03X152651050Y-87708040I-139700J0D01*
G01*
X152651050Y-87057723D02*
G75*
G03X152651050Y-87057723I-139700J0D01*
G01*
X150052655Y-88358229D02*
G75*
G03X150052655Y-88358229I-139700J0D01*
G01*
X150052655Y-87708040D02*
G75*
G03X150052655Y-87708040I-139700J0D01*
G01*
X150052655Y-87057723D02*
G75*
G03X150052655Y-87057723I-139700J0D01*
G01*
X150702844Y-88358229D02*
G75*
G03X150702844Y-88358229I-139700J0D01*
G01*
X150702844Y-87057723D02*
G75*
G03X150702844Y-87057723I-139700J0D01*
G01*
X149402339Y-88358229D02*
G75*
G03X149402339Y-88358229I-139700J0D01*
G01*
X149402339Y-87057723D02*
G75*
G03X149402339Y-87057723I-139700J0D01*
G01*
X162402161Y-86407534D02*
G75*
G03X162402161Y-86407534I-139700J0D01*
G01*
X162402161Y-85757218D02*
G75*
G03X162402161Y-85757218I-139700J0D01*
G01*
X160451339Y-86407534D02*
G75*
G03X160451339Y-86407534I-139700J0D01*
G01*
X161101655Y-86407534D02*
G75*
G03X161101655Y-86407534I-139700J0D01*
G01*
X161101655Y-85757218D02*
G75*
G03X161101655Y-85757218I-139700J0D01*
G01*
X161751844Y-86407534D02*
G75*
G03X161751844Y-86407534I-139700J0D01*
G01*
X161751844Y-85757218D02*
G75*
G03X161751844Y-85757218I-139700J0D01*
G01*
X159153450Y-86407534D02*
G75*
G03X159153450Y-86407534I-139700J0D01*
G01*
X159153450Y-85757218D02*
G75*
G03X159153450Y-85757218I-139700J0D01*
G01*
X159801150Y-86407534D02*
G75*
G03X159801150Y-86407534I-139700J0D01*
G01*
X157852944Y-86407534D02*
G75*
G03X157852944Y-86407534I-139700J0D01*
G01*
X157852944Y-85757218D02*
G75*
G03X157852944Y-85757218I-139700J0D01*
G01*
X158503261Y-86407534D02*
G75*
G03X158503261Y-86407534I-139700J0D01*
G01*
X158503261Y-85757218D02*
G75*
G03X158503261Y-85757218I-139700J0D01*
G01*
X155902250Y-86407534D02*
G75*
G03X155902250Y-86407534I-139700J0D01*
G01*
X156552439Y-86407534D02*
G75*
G03X156552439Y-86407534I-139700J0D01*
G01*
X156552439Y-85757218D02*
G75*
G03X156552439Y-85757218I-139700J0D01*
G01*
X157202755Y-86407534D02*
G75*
G03X157202755Y-86407534I-139700J0D01*
G01*
X157202755Y-85757218D02*
G75*
G03X157202755Y-85757218I-139700J0D01*
G01*
X154601744Y-86407534D02*
G75*
G03X154601744Y-86407534I-139700J0D01*
G01*
X154601744Y-85757218D02*
G75*
G03X154601744Y-85757218I-139700J0D01*
G01*
X155252061Y-86407534D02*
G75*
G03X155252061Y-86407534I-139700J0D01*
G01*
X155252061Y-85757218D02*
G75*
G03X155252061Y-85757218I-139700J0D01*
G01*
X153301239Y-86407534D02*
G75*
G03X153301239Y-86407534I-139700J0D01*
G01*
X153301239Y-85757218D02*
G75*
G03X153301239Y-85757218I-139700J0D01*
G01*
X153951555Y-86407534D02*
G75*
G03X153951555Y-86407534I-139700J0D01*
G01*
X153951555Y-85757218D02*
G75*
G03X153951555Y-85757218I-139700J0D01*
G01*
X152651050Y-86407534D02*
G75*
G03X152651050Y-86407534I-139700J0D01*
G01*
X152651050Y-85757218D02*
G75*
G03X152651050Y-85757218I-139700J0D01*
G01*
X150052655Y-86407534D02*
G75*
G03X150052655Y-86407534I-139700J0D01*
G01*
X150052655Y-85757218D02*
G75*
G03X150052655Y-85757218I-139700J0D01*
G01*
X149402339Y-86407534D02*
G75*
G03X149402339Y-86407534I-139700J0D01*
G01*
X162402161Y-84459329D02*
G75*
G03X162402161Y-84459329I-139700J0D01*
G01*
X162402161Y-83809140D02*
G75*
G03X162402161Y-83809140I-139700J0D01*
G01*
X160451339Y-85107029D02*
G75*
G03X160451339Y-85107029I-139700J0D01*
G01*
X160451339Y-84459329D02*
G75*
G03X160451339Y-84459329I-139700J0D01*
G01*
X161101655Y-85107029D02*
G75*
G03X161101655Y-85107029I-139700J0D01*
G01*
X161101655Y-84459329D02*
G75*
G03X161101655Y-84459329I-139700J0D01*
G01*
X161751844Y-85107029D02*
G75*
G03X161751844Y-85107029I-139700J0D01*
G01*
X161751844Y-84459329D02*
G75*
G03X161751844Y-84459329I-139700J0D01*
G01*
X161751844Y-83809140D02*
G75*
G03X161751844Y-83809140I-139700J0D01*
G01*
X159153450Y-85107029D02*
G75*
G03X159153450Y-85107029I-139700J0D01*
G01*
X159153450Y-84459329D02*
G75*
G03X159153450Y-84459329I-139700J0D01*
G01*
X157852944Y-85107029D02*
G75*
G03X157852944Y-85107029I-139700J0D01*
G01*
X157852944Y-83809140D02*
G75*
G03X157852944Y-83809140I-139700J0D01*
G01*
X158503261Y-84459329D02*
G75*
G03X158503261Y-84459329I-139700J0D01*
G01*
X158503261Y-83809140D02*
G75*
G03X158503261Y-83809140I-139700J0D01*
G01*
X155902250Y-84459329D02*
G75*
G03X155902250Y-84459329I-139700J0D01*
G01*
X156552439Y-85107029D02*
G75*
G03X156552439Y-85107029I-139700J0D01*
G01*
X156552439Y-83809140D02*
G75*
G03X156552439Y-83809140I-139700J0D01*
G01*
X157202755Y-85107029D02*
G75*
G03X157202755Y-85107029I-139700J0D01*
G01*
X151353161Y-83158823D02*
G75*
G03X151353161Y-83158823I-139700J0D01*
G01*
X155252061Y-85107029D02*
G75*
G03X155252061Y-85107029I-139700J0D01*
G01*
X155252061Y-84459329D02*
G75*
G03X155252061Y-84459329I-139700J0D01*
G01*
X155252061Y-83809140D02*
G75*
G03X155252061Y-83809140I-139700J0D01*
G01*
X153301239Y-85107029D02*
G75*
G03X153301239Y-85107029I-139700J0D01*
G01*
X153951555Y-85107029D02*
G75*
G03X153951555Y-85107029I-139700J0D01*
G01*
X151353161Y-85107029D02*
G75*
G03X151353161Y-85107029I-139700J0D01*
G01*
X151353161Y-84459329D02*
G75*
G03X151353161Y-84459329I-139700J0D01*
G01*
X151353161Y-83809140D02*
G75*
G03X151353161Y-83809140I-139700J0D01*
G01*
X152003350Y-85107029D02*
G75*
G03X152003350Y-85107029I-139700J0D01*
G01*
X152003350Y-83809140D02*
G75*
G03X152003350Y-83809140I-139700J0D01*
G01*
X152651050Y-85107029D02*
G75*
G03X152651050Y-85107029I-139700J0D01*
G01*
X152651050Y-84459329D02*
G75*
G03X152651050Y-84459329I-139700J0D01*
G01*
X152651050Y-83809140D02*
G75*
G03X152651050Y-83809140I-139700J0D01*
G01*
X150052655Y-83809140D02*
G75*
G03X150052655Y-83809140I-139700J0D01*
G01*
X150702844Y-85107029D02*
G75*
G03X150702844Y-85107029I-139700J0D01*
G01*
X150702844Y-84459329D02*
G75*
G03X150702844Y-84459329I-139700J0D01*
G01*
X149402339Y-85107029D02*
G75*
G03X149402339Y-85107029I-139700J0D01*
G01*
X149402339Y-84459329D02*
G75*
G03X149402339Y-84459329I-139700J0D01*
G01*
X162402161Y-83158823D02*
G75*
G03X162402161Y-83158823I-139700J0D01*
G01*
X162402161Y-82508634D02*
G75*
G03X162402161Y-82508634I-139700J0D01*
G01*
X160451339Y-83158823D02*
G75*
G03X160451339Y-83158823I-139700J0D01*
G01*
X160451339Y-82508634D02*
G75*
G03X160451339Y-82508634I-139700J0D01*
G01*
X161101655Y-83158823D02*
G75*
G03X161101655Y-83158823I-139700J0D01*
G01*
X161101655Y-82508634D02*
G75*
G03X161101655Y-82508634I-139700J0D01*
G01*
X161751844Y-83158823D02*
G75*
G03X161751844Y-83158823I-139700J0D01*
G01*
X161751844Y-82508634D02*
G75*
G03X161751844Y-82508634I-139700J0D01*
G01*
X159153450Y-83158823D02*
G75*
G03X159153450Y-83158823I-139700J0D01*
G01*
X159153450Y-82508634D02*
G75*
G03X159153450Y-82508634I-139700J0D01*
G01*
X159801150Y-83158823D02*
G75*
G03X159801150Y-83158823I-139700J0D01*
G01*
X159801150Y-82508634D02*
G75*
G03X159801150Y-82508634I-139700J0D01*
G01*
X157852944Y-83158823D02*
G75*
G03X157852944Y-83158823I-139700J0D01*
G01*
X157852944Y-82508634D02*
G75*
G03X157852944Y-82508634I-139700J0D01*
G01*
X158503261Y-82508634D02*
G75*
G03X158503261Y-82508634I-139700J0D01*
G01*
X155902250Y-82508634D02*
G75*
G03X155902250Y-82508634I-139700J0D01*
G01*
X156552439Y-83158823D02*
G75*
G03X156552439Y-83158823I-139700J0D01*
G01*
X156552439Y-82508634D02*
G75*
G03X156552439Y-82508634I-139700J0D01*
G01*
X157202755Y-83158823D02*
G75*
G03X157202755Y-83158823I-139700J0D01*
G01*
X157202755Y-82508634D02*
G75*
G03X157202755Y-82508634I-139700J0D01*
G01*
X154601744Y-83158823D02*
G75*
G03X154601744Y-83158823I-139700J0D01*
G01*
X154601744Y-82508634D02*
G75*
G03X154601744Y-82508634I-139700J0D01*
G01*
X155252061Y-83158823D02*
G75*
G03X155252061Y-83158823I-139700J0D01*
G01*
X155252061Y-82508634D02*
G75*
G03X155252061Y-82508634I-139700J0D01*
G01*
X153301239Y-82508634D02*
G75*
G03X153301239Y-82508634I-139700J0D01*
G01*
X153951555Y-83158823D02*
G75*
G03X153951555Y-83158823I-139700J0D01*
G01*
X153951555Y-82508634D02*
G75*
G03X153951555Y-82508634I-139700J0D01*
G01*
X151353161Y-82508634D02*
G75*
G03X151353161Y-82508634I-139700J0D01*
G01*
X152003350Y-83158823D02*
G75*
G03X152003350Y-83158823I-139700J0D01*
G01*
X152003350Y-82508634D02*
G75*
G03X152003350Y-82508634I-139700J0D01*
G01*
X152651050Y-83158823D02*
G75*
G03X152651050Y-83158823I-139700J0D01*
G01*
X152651050Y-82508634D02*
G75*
G03X152651050Y-82508634I-139700J0D01*
G01*
X150052655Y-83158823D02*
G75*
G03X150052655Y-83158823I-139700J0D01*
G01*
X150052655Y-82508634D02*
G75*
G03X150052655Y-82508634I-139700J0D01*
G01*
X150702844Y-83158823D02*
G75*
G03X150702844Y-83158823I-139700J0D01*
G01*
X150702844Y-82508634D02*
G75*
G03X150702844Y-82508634I-139700J0D01*
G01*
X149402339Y-83158823D02*
G75*
G03X149402339Y-83158823I-139700J0D01*
G01*
X149402339Y-82508634D02*
G75*
G03X149402339Y-82508634I-139700J0D01*
G01*
X162402161Y-81858318D02*
G75*
G03X162402161Y-81858318I-139700J0D01*
G01*
X160451339Y-81858318D02*
G75*
G03X160451339Y-81858318I-139700J0D01*
G01*
X161101655Y-81858318D02*
G75*
G03X161101655Y-81858318I-139700J0D01*
G01*
X161751844Y-81858318D02*
G75*
G03X161751844Y-81858318I-139700J0D01*
G01*
X159153450Y-81858318D02*
G75*
G03X159153450Y-81858318I-139700J0D01*
G01*
X158503261Y-81858318D02*
G75*
G03X158503261Y-81858318I-139700J0D01*
G01*
X156552439Y-81858318D02*
G75*
G03X156552439Y-81858318I-139700J0D01*
G01*
X157202755Y-81858318D02*
G75*
G03X157202755Y-81858318I-139700J0D01*
G01*
X154601744Y-81858318D02*
G75*
G03X154601744Y-81858318I-139700J0D01*
G01*
X155252061Y-81858318D02*
G75*
G03X155252061Y-81858318I-139700J0D01*
G01*
X153301239Y-81858318D02*
G75*
G03X153301239Y-81858318I-139700J0D01*
G01*
X151353161Y-81858318D02*
G75*
G03X151353161Y-81858318I-139700J0D01*
G01*
X150052655Y-81858318D02*
G75*
G03X150052655Y-81858318I-139700J0D01*
G01*
X150702844Y-81858318D02*
G75*
G03X150702844Y-81858318I-139700J0D01*
G01*
X149402339Y-81858318D02*
G75*
G03X149402339Y-81858318I-139700J0D01*
G01*
X147533001Y-107520268D02*
X147533001Y-98520261D01*
X160832999Y-107520268D02*
X147533001Y-107520268D01*
X160832999Y-98520261D02*
X160832999Y-107520268D01*
X147533001Y-98520261D02*
X160832999Y-98520261D01*
X147533001Y-98016477D02*
X147533001Y-98520261D01*
X160832999Y-98016477D02*
X147533001Y-98016477D01*
X160832999Y-98520261D02*
X160832999Y-98016477D01*
X147533001Y-108024077D02*
X147533001Y-107520268D01*
X160832999Y-108024077D02*
X147533001Y-108024077D01*
X160832999Y-107520268D02*
X160832999Y-108024077D01*
X161432592Y-98176674D02*
G75*
G02X161682502Y-98176650I124955J15D01*
G01*
X161682502Y-98176649D02*
G75*
G02X161432592Y-98176675I-124955J-10D01*
G01*
X160633000Y-98520261D02*
X160832999Y-98720260D01*
X160433000Y-98520261D02*
X160832999Y-98920260D01*
X148383012Y-106220271D02*
G75*
G03X148383012Y-106220271I-200000J0D01*
G01*
X148383012Y-105420272D02*
G75*
G03X148383012Y-105420272I-200000J0D01*
G01*
X148383012Y-104620274D02*
G75*
G03X148383012Y-104620274I-200000J0D01*
G01*
X148383012Y-101420280D02*
G75*
G03X148383012Y-101420280I-200000J0D01*
G01*
X148383012Y-100620282D02*
G75*
G03X148383012Y-100620282I-200000J0D01*
G01*
X148383012Y-99820284D02*
G75*
G03X148383012Y-99820284I-200000J0D01*
G01*
X149183010Y-106220271D02*
G75*
G03X149183010Y-106220271I-200000J0D01*
G01*
X149183010Y-105420272D02*
G75*
G03X149183010Y-105420272I-200000J0D01*
G01*
X149183010Y-104620274D02*
G75*
G03X149183010Y-104620274I-200000J0D01*
G01*
X149183010Y-101420280D02*
G75*
G03X149183010Y-101420280I-200000J0D01*
G01*
X149183010Y-100620282D02*
G75*
G03X149183010Y-100620282I-200000J0D01*
G01*
X149183010Y-99820284D02*
G75*
G03X149183010Y-99820284I-200000J0D01*
G01*
X149983008Y-106220271D02*
G75*
G03X149983008Y-106220271I-199999J0D01*
G01*
X149983008Y-105420272D02*
G75*
G03X149983008Y-105420272I-199999J0D01*
G01*
X149983008Y-104620274D02*
G75*
G03X149983008Y-104620274I-199999J0D01*
G01*
X149983008Y-101420280D02*
G75*
G03X149983008Y-101420280I-199999J0D01*
G01*
X149983008Y-100620282D02*
G75*
G03X149983008Y-100620282I-199999J0D01*
G01*
X149983008Y-99820284D02*
G75*
G03X149983008Y-99820284I-199999J0D01*
G01*
X150783007Y-106220271D02*
G75*
G03X150783007Y-106220271I-200000J0D01*
G01*
X150783007Y-105420272D02*
G75*
G03X150783007Y-105420272I-200000J0D01*
G01*
X150783007Y-104620274D02*
G75*
G03X150783007Y-104620274I-200000J0D01*
G01*
X150783007Y-101420280D02*
G75*
G03X150783007Y-101420280I-200000J0D01*
G01*
X150783007Y-100620282D02*
G75*
G03X150783007Y-100620282I-200000J0D01*
G01*
X150783007Y-99820284D02*
G75*
G03X150783007Y-99820284I-200000J0D01*
G01*
X151583005Y-106220271D02*
G75*
G03X151583005Y-106220271I-199999J0D01*
G01*
X151583005Y-105420272D02*
G75*
G03X151583005Y-105420272I-199999J0D01*
G01*
X151583005Y-104620274D02*
G75*
G03X151583005Y-104620274I-199999J0D01*
G01*
X151583005Y-101420280D02*
G75*
G03X151583005Y-101420280I-199999J0D01*
G01*
X151583005Y-100620282D02*
G75*
G03X151583005Y-100620282I-199999J0D01*
G01*
X151583005Y-99820284D02*
G75*
G03X151583005Y-99820284I-199999J0D01*
G01*
X152383004Y-106220271D02*
G75*
G03X152383004Y-106220271I-200000J0D01*
G01*
X152383004Y-105420272D02*
G75*
G03X152383004Y-105420272I-200000J0D01*
G01*
X152383004Y-104620274D02*
G75*
G03X152383004Y-104620274I-200000J0D01*
G01*
X152383004Y-101420280D02*
G75*
G03X152383004Y-101420280I-200000J0D01*
G01*
X152383004Y-100620282D02*
G75*
G03X152383004Y-100620282I-200000J0D01*
G01*
X152383004Y-99820284D02*
G75*
G03X152383004Y-99820284I-200000J0D01*
G01*
X153183002Y-106220271D02*
G75*
G03X153183002Y-106220271I-200000J0D01*
G01*
X153183002Y-105420272D02*
G75*
G03X153183002Y-105420272I-200000J0D01*
G01*
X153183002Y-104620274D02*
G75*
G03X153183002Y-104620274I-200000J0D01*
G01*
X153183002Y-101420280D02*
G75*
G03X153183002Y-101420280I-200000J0D01*
G01*
X153183002Y-100620282D02*
G75*
G03X153183002Y-100620282I-200000J0D01*
G01*
X153183002Y-99820284D02*
G75*
G03X153183002Y-99820284I-200000J0D01*
G01*
X153983000Y-106220271D02*
G75*
G03X153983000Y-106220271I-199999J0D01*
G01*
X153983000Y-105420272D02*
G75*
G03X153983000Y-105420272I-199999J0D01*
G01*
X153983000Y-104620274D02*
G75*
G03X153983000Y-104620274I-199999J0D01*
G01*
X153983000Y-101420280D02*
G75*
G03X153983000Y-101420280I-199999J0D01*
G01*
X153983000Y-100620282D02*
G75*
G03X153983000Y-100620282I-199999J0D01*
G01*
X153983000Y-99820284D02*
G75*
G03X153983000Y-99820284I-199999J0D01*
G01*
X154782999Y-106220271D02*
G75*
G03X154782999Y-106220271I-200000J0D01*
G01*
X154782999Y-105420272D02*
G75*
G03X154782999Y-105420272I-200000J0D01*
G01*
X154782999Y-104620274D02*
G75*
G03X154782999Y-104620274I-200000J0D01*
G01*
X154782999Y-101420280D02*
G75*
G03X154782999Y-101420280I-200000J0D01*
G01*
X154782999Y-100620282D02*
G75*
G03X154782999Y-100620282I-200000J0D01*
G01*
X154782999Y-99820284D02*
G75*
G03X154782999Y-99820284I-200000J0D01*
G01*
X155582997Y-106220271D02*
G75*
G03X155582997Y-106220271I-199999J0D01*
G01*
X155582997Y-105420272D02*
G75*
G03X155582997Y-105420272I-199999J0D01*
G01*
X155582997Y-104620274D02*
G75*
G03X155582997Y-104620274I-199999J0D01*
G01*
X155582997Y-101420280D02*
G75*
G03X155582997Y-101420280I-199999J0D01*
G01*
X155582997Y-100620282D02*
G75*
G03X155582997Y-100620282I-199999J0D01*
G01*
X155582997Y-99820284D02*
G75*
G03X155582997Y-99820284I-199999J0D01*
G01*
X156382996Y-106220271D02*
G75*
G03X156382996Y-106220271I-200000J0D01*
G01*
X156382996Y-105420272D02*
G75*
G03X156382996Y-105420272I-200000J0D01*
G01*
X156382996Y-104620274D02*
G75*
G03X156382996Y-104620274I-200000J0D01*
G01*
X156382996Y-101420280D02*
G75*
G03X156382996Y-101420280I-200000J0D01*
G01*
X156382996Y-100620282D02*
G75*
G03X156382996Y-100620282I-200000J0D01*
G01*
X156382996Y-99820284D02*
G75*
G03X156382996Y-99820284I-200000J0D01*
G01*
X157182994Y-106220271D02*
G75*
G03X157182994Y-106220271I-200000J0D01*
G01*
X157182994Y-105420272D02*
G75*
G03X157182994Y-105420272I-200000J0D01*
G01*
X157182994Y-104620274D02*
G75*
G03X157182994Y-104620274I-200000J0D01*
G01*
X157182994Y-101420280D02*
G75*
G03X157182994Y-101420280I-200000J0D01*
G01*
X157182994Y-100620282D02*
G75*
G03X157182994Y-100620282I-200000J0D01*
G01*
X157182994Y-99820284D02*
G75*
G03X157182994Y-99820284I-200000J0D01*
G01*
X157982992Y-106220271D02*
G75*
G03X157982992Y-106220271I-199999J0D01*
G01*
X157982992Y-105420272D02*
G75*
G03X157982992Y-105420272I-199999J0D01*
G01*
X157982992Y-104620274D02*
G75*
G03X157982992Y-104620274I-199999J0D01*
G01*
X157982992Y-101420280D02*
G75*
G03X157982992Y-101420280I-199999J0D01*
G01*
X157982992Y-100620282D02*
G75*
G03X157982992Y-100620282I-199999J0D01*
G01*
X157982992Y-99820284D02*
G75*
G03X157982992Y-99820284I-199999J0D01*
G01*
X158782991Y-106220271D02*
G75*
G03X158782991Y-106220271I-200000J0D01*
G01*
X158782991Y-105420272D02*
G75*
G03X158782991Y-105420272I-200000J0D01*
G01*
X158782991Y-104620274D02*
G75*
G03X158782991Y-104620274I-200000J0D01*
G01*
X158782991Y-101420280D02*
G75*
G03X158782991Y-101420280I-200000J0D01*
G01*
X158782991Y-100620282D02*
G75*
G03X158782991Y-100620282I-200000J0D01*
G01*
X158782991Y-99820284D02*
G75*
G03X158782991Y-99820284I-200000J0D01*
G01*
X159582989Y-106220271D02*
G75*
G03X159582989Y-106220271I-199999J0D01*
G01*
X159582989Y-105420272D02*
G75*
G03X159582989Y-105420272I-199999J0D01*
G01*
X159582989Y-104620274D02*
G75*
G03X159582989Y-104620274I-199999J0D01*
G01*
X159582989Y-101420280D02*
G75*
G03X159582989Y-101420280I-199999J0D01*
G01*
X159582989Y-100620282D02*
G75*
G03X159582989Y-100620282I-199999J0D01*
G01*
X159582989Y-99820284D02*
G75*
G03X159582989Y-99820284I-199999J0D01*
G01*
X160382988Y-106220271D02*
G75*
G03X160382988Y-106220271I-200000J0D01*
G01*
X160382988Y-105420272D02*
G75*
G03X160382988Y-105420272I-200000J0D01*
G01*
X160382988Y-104620274D02*
G75*
G03X160382988Y-104620274I-200000J0D01*
G01*
X160382988Y-101420280D02*
G75*
G03X160382988Y-101420280I-200000J0D01*
G01*
X160382988Y-100620282D02*
G75*
G03X160382988Y-100620282I-200000J0D01*
G01*
X160382988Y-99820284D02*
G75*
G03X160382988Y-99820284I-200000J0D01*
G01*
X146189315Y-96271218D02*
G75*
G03X146189315Y-96271218I-508000J0D01*
G01*
X146189315Y-104272218D02*
G75*
G03X146189315Y-104272218I-508000J0D01*
G01*
X148093528Y-81516383D02*
X147743516Y-81166371D01*
X148093528Y-80816385D02*
X148093528Y-81516383D01*
X147743516Y-81166371D02*
X148093528Y-80816385D01*
X141693515Y-78666376D02*
X141693515Y-86266361D01*
X140893517Y-86266361D02*
X141693515Y-86266361D01*
X140893517Y-78666376D02*
X140893517Y-86266361D01*
X146893530Y-78666376D02*
X140893517Y-78666376D01*
X146893530Y-86266361D02*
X146893530Y-78666376D01*
X141693515Y-86266361D02*
X146893530Y-86266361D01*
X145843507Y-83966366D02*
X145843507Y-83566366D01*
X147543504Y-83966366D02*
X145843507Y-83966366D01*
X147543504Y-83566366D02*
X147543504Y-83966366D01*
X145843507Y-83566366D02*
X147543504Y-83566366D01*
X145843507Y-83316380D02*
X145843507Y-82916380D01*
X147543504Y-83316380D02*
X145843507Y-83316380D01*
X147543504Y-82916380D02*
X147543504Y-83316380D01*
X145843507Y-82916380D02*
X147543504Y-82916380D01*
X145843507Y-82666368D02*
X145843507Y-82266369D01*
X147543504Y-82666368D02*
X145843507Y-82666368D01*
X147543504Y-82266369D02*
X147543504Y-82666368D01*
X145843507Y-82266369D02*
X147543504Y-82266369D01*
X145843507Y-82016357D02*
X145843507Y-81616358D01*
X147543504Y-82016357D02*
X145843507Y-82016357D01*
X147543504Y-81616358D02*
X147543504Y-82016357D01*
X145843507Y-81616358D02*
X147543504Y-81616358D01*
X145843507Y-81366371D02*
X145843507Y-80966372D01*
X147543504Y-81366371D02*
X145843507Y-81366371D01*
X147543504Y-80966372D02*
X147543504Y-81366371D01*
X145843507Y-80966372D02*
X147543504Y-80966372D01*
X142793513Y-83466367D02*
X142793513Y-81466371D01*
X144793509Y-83466367D02*
X142793513Y-83466367D01*
X144793509Y-81466371D02*
X144793509Y-83466367D01*
X142793513Y-81466371D02*
X144793509Y-81466371D01*
X147123502Y-84891357D02*
G75*
G03X147123502Y-84891357I-599999J0D01*
G01*
X147123502Y-80041380D02*
G75*
G03X147123502Y-80041380I-599999J0D01*
G01*
X144093510Y-85466362D02*
G75*
G02X144093510Y-86666360I0J-599999D01*
G01*
X143493512Y-85466363D02*
X144093510Y-85466363D01*
X143493512Y-86666359D02*
G75*
G02X143493512Y-85466363I0J599998D01*
G01*
X144093510Y-86666360D02*
X143493512Y-86666360D01*
X144093510Y-78266377D02*
G75*
G02X144093510Y-79466375I0J-599999D01*
G01*
X143493512Y-78266377D02*
X144093510Y-78266377D01*
X143493512Y-79466375D02*
G75*
G02X143493512Y-78266377I0J599999D01*
G01*
X144093510Y-79466375D02*
X143493512Y-79466375D01*
X160799700Y-110596005D02*
X163822300Y-110596005D01*
X160799700Y-111688205D02*
X160799700Y-110596005D01*
X163822300Y-111688205D02*
X160799700Y-111688205D01*
X163822300Y-110596005D02*
X163822300Y-111688205D01*
X162943511Y-112950102D02*
X162943511Y-111934102D01*
X163578511Y-112950102D02*
X162943511Y-112950102D01*
X163578511Y-111934102D02*
X163578511Y-112950102D01*
X162943511Y-111934102D02*
X163578511Y-111934102D01*
X161043489Y-112950102D02*
X161043489Y-111934102D01*
X161678489Y-112950102D02*
X161043489Y-112950102D01*
X161678489Y-111934102D02*
X161678489Y-112950102D01*
X161043489Y-111934102D02*
X161678489Y-111934102D01*
X161043489Y-110350108D02*
X161043489Y-109334108D01*
X161678489Y-110350108D02*
X161043489Y-110350108D01*
X161678489Y-109334108D02*
X161678489Y-110350108D01*
X161043489Y-109334108D02*
X161678489Y-109334108D01*
X161993500Y-110350108D02*
X161993500Y-109334108D01*
X162628500Y-110350108D02*
X161993500Y-110350108D01*
X162628500Y-109334108D02*
X162628500Y-110350108D01*
X161993500Y-109334108D02*
X162628500Y-109334108D01*
X162943511Y-110350108D02*
X162943511Y-109334108D01*
X163578511Y-110350108D02*
X162943511Y-110350108D01*
X163578511Y-109334108D02*
X163578511Y-110350108D01*
X162943511Y-109334108D02*
X163578511Y-109334108D01*
X151858900Y-77347405D02*
X151858900Y-80370005D01*
X150766700Y-77347405D02*
X151858900Y-77347405D01*
X150766700Y-80370005D02*
X150766700Y-77347405D01*
X151858900Y-80370005D02*
X150766700Y-80370005D01*
X149504803Y-79491216D02*
X150520803Y-79491216D01*
X149504803Y-80126216D02*
X149504803Y-79491216D01*
X150520803Y-80126216D02*
X149504803Y-80126216D01*
X150520803Y-79491216D02*
X150520803Y-80126216D01*
X149504803Y-77591194D02*
X150520803Y-77591194D01*
X149504803Y-78226194D02*
X149504803Y-77591194D01*
X150520803Y-78226194D02*
X149504803Y-78226194D01*
X150520803Y-77591194D02*
X150520803Y-78226194D01*
X152104797Y-77591194D02*
X153120797Y-77591194D01*
X152104797Y-78226194D02*
X152104797Y-77591194D01*
X153120797Y-78226194D02*
X152104797Y-78226194D01*
X153120797Y-77591194D02*
X153120797Y-78226194D01*
X152104797Y-78541205D02*
X153120797Y-78541205D01*
X152104797Y-79176205D02*
X152104797Y-78541205D01*
X153120797Y-79176205D02*
X152104797Y-79176205D01*
X153120797Y-78541205D02*
X153120797Y-79176205D01*
X152104797Y-79491216D02*
X153120797Y-79491216D01*
X152104797Y-80126216D02*
X152104797Y-79491216D01*
X153120797Y-80126216D02*
X152104797Y-80126216D01*
X153120797Y-79491216D02*
X153120797Y-80126216D01*
X150461900Y-109808605D02*
X150461900Y-112831205D01*
X149369700Y-109808605D02*
X150461900Y-109808605D01*
X149369700Y-112831205D02*
X149369700Y-109808605D01*
X150461900Y-112831205D02*
X149369700Y-112831205D01*
X148107803Y-111952416D02*
X149123803Y-111952416D01*
X148107803Y-112587416D02*
X148107803Y-111952416D01*
X149123803Y-112587416D02*
X148107803Y-112587416D01*
X149123803Y-111952416D02*
X149123803Y-112587416D01*
X148107803Y-110052394D02*
X149123803Y-110052394D01*
X148107803Y-110687394D02*
X148107803Y-110052394D01*
X149123803Y-110687394D02*
X148107803Y-110687394D01*
X149123803Y-110052394D02*
X149123803Y-110687394D01*
X150707797Y-110052394D02*
X151723797Y-110052394D01*
X150707797Y-110687394D02*
X150707797Y-110052394D01*
X151723797Y-110687394D02*
X150707797Y-110687394D01*
X151723797Y-110052394D02*
X151723797Y-110687394D01*
X150707797Y-111002405D02*
X151723797Y-111002405D01*
X150707797Y-111637405D02*
X150707797Y-111002405D01*
X151723797Y-111637405D02*
X150707797Y-111637405D01*
X151723797Y-111002405D02*
X151723797Y-111637405D01*
X150707797Y-111952416D02*
X151723797Y-111952416D01*
X150707797Y-112587416D02*
X150707797Y-111952416D01*
X151723797Y-112587416D02*
X150707797Y-112587416D01*
X151723797Y-111952416D02*
X151723797Y-112587416D01*
X166673298Y-109856205D02*
X166673298Y-112878805D01*
X165581098Y-109856205D02*
X166673298Y-109856205D01*
X165581098Y-112878805D02*
X165581098Y-109856205D01*
X166673298Y-112878805D02*
X165581098Y-112878805D01*
X164319200Y-112000015D02*
X165335200Y-112000015D01*
X164319200Y-112635015D02*
X164319200Y-112000015D01*
X165335200Y-112635015D02*
X164319200Y-112635015D01*
X165335200Y-112000015D02*
X165335200Y-112635015D01*
X164319200Y-110099994D02*
X165335200Y-110099994D01*
X164319200Y-110734994D02*
X164319200Y-110099994D01*
X165335200Y-110734994D02*
X164319200Y-110734994D01*
X165335200Y-110099994D02*
X165335200Y-110734994D01*
X166919195Y-110099994D02*
X167935195Y-110099994D01*
X166919195Y-110734994D02*
X166919195Y-110099994D01*
X167935195Y-110734994D02*
X166919195Y-110734994D01*
X167935195Y-110099994D02*
X167935195Y-110734994D01*
X166919195Y-111050005D02*
X167935195Y-111050005D01*
X166919195Y-111685005D02*
X166919195Y-111050005D01*
X167935195Y-111685005D02*
X166919195Y-111685005D01*
X167935195Y-111050005D02*
X167935195Y-111685005D01*
X166919195Y-112000015D02*
X167935195Y-112000015D01*
X166919195Y-112635015D02*
X166919195Y-112000015D01*
X167935195Y-112635015D02*
X166919195Y-112635015D01*
X167935195Y-112000015D02*
X167935195Y-112635015D01*
X168004994Y-75572301D02*
X168004994Y-78594901D01*
X166912794Y-75572301D02*
X168004994Y-75572301D01*
X166912794Y-78594901D02*
X166912794Y-75572301D01*
X168004994Y-78594901D02*
X166912794Y-78594901D01*
X165650897Y-77716111D02*
X166666897Y-77716111D01*
X165650897Y-78351111D02*
X165650897Y-77716111D01*
X166666897Y-78351111D02*
X165650897Y-78351111D01*
X166666897Y-77716111D02*
X166666897Y-78351111D01*
X165650897Y-75816090D02*
X166666897Y-75816090D01*
X165650897Y-76451090D02*
X165650897Y-75816090D01*
X166666897Y-76451090D02*
X165650897Y-76451090D01*
X166666897Y-75816090D02*
X166666897Y-76451090D01*
X168250892Y-75816090D02*
X169266892Y-75816090D01*
X168250892Y-76451090D02*
X168250892Y-75816090D01*
X169266892Y-76451090D02*
X168250892Y-76451090D01*
X169266892Y-75816090D02*
X169266892Y-76451090D01*
X168250892Y-76766101D02*
X169266892Y-76766101D01*
X168250892Y-77401101D02*
X168250892Y-76766101D01*
X169266892Y-77401101D02*
X168250892Y-77401101D01*
X169266892Y-76766101D02*
X169266892Y-77401101D01*
X168250892Y-77716111D02*
X169266892Y-77716111D01*
X168250892Y-78351111D02*
X168250892Y-77716111D01*
X169266892Y-78351111D02*
X168250892Y-78351111D01*
X169266892Y-77716111D02*
X169266892Y-78351111D01*
X163802564Y-78488525D02*
X164310564Y-77980525D01*
X163294564Y-77980525D02*
X163802564Y-78488525D01*
X164310564Y-77980525D02*
X163294564Y-77980525D01*
X164290473Y-76407529D02*
G75*
G02X164390574Y-76507630I31J-100070D01*
G01*
X164390574Y-79707421D02*
X164390574Y-76507630D01*
X164390574Y-79707421D02*
G75*
G02X164290473Y-79807522I-100066J-35D01*
G01*
X161790656Y-79807522D02*
X164290473Y-79807522D01*
X161790656Y-79807522D02*
G75*
G02X161690529Y-79707421I-54J100073D01*
G01*
X161690554Y-76507630D02*
X161690529Y-79707421D01*
X161690555Y-76507630D02*
G75*
G02X161790656Y-76407529I100068J33D01*
G01*
X164290473Y-76407529D02*
X161790656Y-76407529D01*
X161450550Y-78672421D02*
X162600560Y-78672421D01*
X161450550Y-80072419D02*
X161450550Y-78672421D01*
X162600560Y-80072419D02*
X161450550Y-80072419D01*
X162600560Y-78672421D02*
X162600560Y-80072419D01*
X163480568Y-76142632D02*
X164630579Y-76142632D01*
X163480568Y-77542629D02*
X163480568Y-76142632D01*
X164630579Y-77542629D02*
X163480568Y-77542629D01*
X164630579Y-76142632D02*
X164630579Y-77542629D01*
X161450550Y-76142632D02*
X162600560Y-76142632D01*
X161450550Y-77542629D02*
X161450550Y-76142632D01*
X162600560Y-77542629D02*
X161450550Y-77542629D01*
X162600560Y-76142632D02*
X162600560Y-77542629D01*
X163480568Y-78672421D02*
X164630579Y-78672421D01*
X163480568Y-80072419D02*
X163480568Y-78672421D01*
X164630579Y-80072419D02*
X163480568Y-80072419D01*
X164630579Y-78672421D02*
X164630579Y-80072419D01*
X178149399Y-109818816D02*
X178149399Y-109620594D01*
X177497889Y-111219804D02*
X176749401Y-111219804D01*
X176749401Y-108219606D02*
X177497889Y-108219606D01*
X176749401Y-111219804D02*
X176749401Y-110570605D01*
X176749401Y-108868805D02*
X176749401Y-108219606D01*
X178271598Y-111319600D02*
X177871497Y-111719701D01*
X178671597Y-111719701D02*
X178271598Y-111319600D01*
X177871497Y-111719701D02*
X178671597Y-111719701D01*
X179260699Y-110161716D02*
X179260699Y-111177716D01*
X177838299Y-110161716D02*
X179260699Y-110161716D01*
X177838299Y-111177716D02*
X177838299Y-110161716D01*
X179260699Y-111177716D02*
X177838299Y-111177716D01*
X179260699Y-108261694D02*
X179260699Y-109277694D01*
X177838299Y-108261694D02*
X179260699Y-108261694D01*
X177838299Y-109277694D02*
X177838299Y-108261694D01*
X179260699Y-109277694D02*
X177838299Y-109277694D01*
X177060501Y-109211705D02*
X177060501Y-110227705D01*
X175638101Y-109211705D02*
X177060501Y-109211705D01*
X175638101Y-110227705D02*
X175638101Y-109211705D01*
X177060501Y-110227705D02*
X175638101Y-110227705D01*
X170021373Y-105866703D02*
X169823152Y-105866703D01*
X171422361Y-106518213D02*
X171422361Y-107266700D01*
X168422164Y-107266700D02*
X168422164Y-106518213D01*
X171422361Y-107266700D02*
X170773162Y-107266700D01*
X169071362Y-107266700D02*
X168422164Y-107266700D01*
X170908798Y-104547147D02*
X171308899Y-104147047D01*
X170508799Y-104147047D02*
X170908798Y-104547147D01*
X171308899Y-104147047D02*
X170508799Y-104147047D01*
X170364273Y-104755402D02*
X171380273Y-104755402D01*
X170364273Y-106177802D02*
X170364273Y-104755402D01*
X171380273Y-106177802D02*
X170364273Y-106177802D01*
X171380273Y-104755402D02*
X171380273Y-106177802D01*
X168464252Y-104755402D02*
X169480252Y-104755402D01*
X168464252Y-106177802D02*
X168464252Y-104755402D01*
X169480252Y-106177802D02*
X168464252Y-106177802D01*
X169480252Y-104755402D02*
X169480252Y-106177802D01*
X169414262Y-106955601D02*
X170430262Y-106955601D01*
X169414262Y-108378001D02*
X169414262Y-106955601D01*
X170430262Y-108378001D02*
X169414262Y-108378001D01*
X170430262Y-106955601D02*
X170430262Y-108378001D01*
X143870600Y-106138305D02*
X143870600Y-106646305D01*
X144150000Y-106392305D02*
X143642000Y-106392305D01*
X143388000Y-108094105D02*
X142118000Y-108094105D01*
X142753000Y-108475105D02*
X142372000Y-108094105D01*
X143134000Y-108094105D02*
X142753000Y-108475105D01*
X143134000Y-108475105D02*
X143134000Y-108094105D01*
X142372000Y-108475105D02*
X143134000Y-108475105D01*
X142372000Y-108094105D02*
X142372000Y-108475105D01*
X141991000Y-106570105D02*
X143515000Y-106570105D01*
X141991000Y-109618105D02*
X141991000Y-106570105D01*
X143515000Y-109618105D02*
X141991000Y-109618105D01*
X143515000Y-106570105D02*
X143515000Y-109618105D01*
X142118000Y-109461616D02*
X142118000Y-108826616D01*
X143388000Y-109461616D02*
X142118000Y-109461616D01*
X143388000Y-108826616D02*
X143388000Y-109461616D01*
X142118000Y-108826616D02*
X143388000Y-108826616D01*
X142118000Y-107361594D02*
X142118000Y-106726594D01*
X143388000Y-107361594D02*
X142118000Y-107361594D01*
X143388000Y-106726594D02*
X143388000Y-107361594D01*
X142118000Y-106726594D02*
X143388000Y-106726594D01*
X141635400Y-106265305D02*
X141635400Y-105757305D01*
X141381400Y-106011305D02*
X141889400Y-106011305D01*
X142143400Y-104868305D02*
X143413400Y-104868305D01*
X142778400Y-104487305D02*
X143159400Y-104868305D01*
X142397400Y-104868305D02*
X142778400Y-104487305D01*
X142397400Y-104487305D02*
X142397400Y-104868305D01*
X143159400Y-104487305D02*
X142397400Y-104487305D01*
X143159400Y-104868305D02*
X143159400Y-104487305D01*
X143540400Y-106392305D02*
X142016400Y-106392305D01*
X143540400Y-103344305D02*
X143540400Y-106392305D01*
X142016400Y-103344305D02*
X143540400Y-103344305D01*
X142016400Y-106392305D02*
X142016400Y-103344305D01*
X143413400Y-103500794D02*
X143413400Y-104135794D01*
X142143400Y-103500794D02*
X143413400Y-103500794D01*
X142143400Y-104135794D02*
X142143400Y-103500794D01*
X143413400Y-104135794D02*
X142143400Y-104135794D01*
X143413400Y-105600816D02*
X143413400Y-106235816D01*
X142143400Y-105600816D02*
X143413400Y-105600816D01*
X142143400Y-106235816D02*
X142143400Y-105600816D01*
X143413400Y-106235816D02*
X142143400Y-106235816D01*
X183316800Y-112691505D02*
X183316800Y-110659505D01*
X187825300Y-110659505D02*
X187825300Y-111104005D01*
X183126300Y-110659505D02*
X187825300Y-110659505D01*
X183126300Y-112691505D02*
X183126300Y-110659505D01*
X187825300Y-112691505D02*
X183126300Y-112691505D01*
X187825300Y-112183505D02*
X187825300Y-112691505D01*
X188650800Y-110888105D02*
X188142800Y-110888105D01*
X188396800Y-111142105D02*
X188396800Y-110634105D01*
X188650800Y-110888105D02*
X188142800Y-110888105D01*
X188396800Y-111142105D02*
X188396800Y-110634105D01*
X185602800Y-112183505D02*
X185602800Y-111294505D01*
X185983800Y-111294505D02*
X185602800Y-111675505D01*
X185983800Y-112056505D02*
X185983800Y-111294505D01*
X185602800Y-111675505D02*
X185983800Y-112056505D01*
X185602800Y-111675505D02*
X185221800Y-111675505D01*
X185983800Y-111675505D02*
X186364800Y-111675505D01*
X187114100Y-112120005D02*
X187114100Y-111231005D01*
X188003100Y-112120005D02*
X187114100Y-112120005D01*
X188003100Y-111231005D02*
X188003100Y-112120005D01*
X187114100Y-111231005D02*
X188003100Y-111231005D01*
X183456500Y-112120005D02*
X183456500Y-111231005D01*
X184345500Y-112120005D02*
X183456500Y-112120005D01*
X184345500Y-111231005D02*
X184345500Y-112120005D01*
X183456500Y-111231005D02*
X184345500Y-111231005D01*
X178197989Y-82335305D02*
X178297989Y-82235305D01*
X177497965Y-82335305D02*
X178197989Y-82335305D01*
X177397965Y-82235305D02*
X177497965Y-82335305D01*
X177397965Y-80035309D02*
X177397965Y-82235305D01*
X178297989Y-80035309D02*
X177397965Y-80035309D01*
X178297989Y-82235305D02*
X178297989Y-80035309D01*
X177397965Y-82235305D02*
X178297989Y-82235305D01*
X177530477Y-82087807D02*
X177530477Y-81452807D01*
X178165477Y-82087807D02*
X177530477Y-82087807D01*
X178165477Y-81452807D02*
X178165477Y-82087807D01*
X178006981Y-81452807D02*
X178165477Y-81452807D01*
X178006981Y-81452197D02*
X178006981Y-81452807D01*
X177847977Y-81293193D02*
X178006981Y-81452197D01*
X177688973Y-81452197D02*
X177847977Y-81293193D01*
X177688973Y-81452807D02*
X177688973Y-81452197D01*
X177530477Y-81452807D02*
X177688973Y-81452807D01*
X178165477Y-80182807D02*
X178165477Y-80817807D01*
X177530477Y-80182807D02*
X178165477Y-80182807D01*
X177530477Y-80817807D02*
X177530477Y-80182807D01*
X177688973Y-80817807D02*
X177530477Y-80817807D01*
X177688973Y-80818417D02*
X177688973Y-80817807D01*
X177847977Y-80977421D02*
X177688973Y-80818417D01*
X178006981Y-80818417D02*
X177847977Y-80977421D01*
X178006981Y-80817807D02*
X178006981Y-80818417D01*
X178165477Y-80817807D02*
X178006981Y-80817807D01*
X177497965Y-82443305D02*
X177397965Y-82543305D01*
X178197989Y-82443305D02*
X177497965Y-82443305D01*
X178297989Y-82543305D02*
X178197989Y-82443305D01*
X178297989Y-84743301D02*
X178297989Y-82543305D01*
X177397965Y-84743301D02*
X178297989Y-84743301D01*
X177397965Y-82543305D02*
X177397965Y-84743301D01*
X178297989Y-82543305D02*
X177397965Y-82543305D01*
X178165477Y-82690803D02*
X178165477Y-83325803D01*
X177530477Y-82690803D02*
X178165477Y-82690803D01*
X177530477Y-83325803D02*
X177530477Y-82690803D01*
X177688973Y-83325803D02*
X177530477Y-83325803D01*
X177688973Y-83326413D02*
X177688973Y-83325803D01*
X177847977Y-83485417D02*
X177688973Y-83326413D01*
X178006981Y-83326413D02*
X177847977Y-83485417D01*
X178006981Y-83325803D02*
X178006981Y-83326413D01*
X178165477Y-83325803D02*
X178006981Y-83325803D01*
X177530477Y-84595803D02*
X177530477Y-83960803D01*
X178165477Y-84595803D02*
X177530477Y-84595803D01*
X178165477Y-83960803D02*
X178165477Y-84595803D01*
X178006981Y-83960803D02*
X178165477Y-83960803D01*
X178006981Y-83960193D02*
X178006981Y-83960803D01*
X177847977Y-83801189D02*
X178006981Y-83960193D01*
X177688973Y-83960193D02*
X177847977Y-83801189D01*
X177688973Y-83960803D02*
X177688973Y-83960193D01*
X177530477Y-83960803D02*
X177688973Y-83960803D01*
X178299233Y-79017303D02*
X178399233Y-78917303D01*
X177599209Y-79017303D02*
X178299233Y-79017303D01*
X177499209Y-78917303D02*
X177599209Y-79017303D01*
X177499209Y-76717307D02*
X177499209Y-78917303D01*
X178399233Y-76717307D02*
X177499209Y-76717307D01*
X178399233Y-78917303D02*
X178399233Y-76717307D01*
X177499209Y-78917303D02*
X178399233Y-78917303D01*
X177631721Y-78769805D02*
X177631721Y-78134805D01*
X178266721Y-78769805D02*
X177631721Y-78769805D01*
X178266721Y-78134805D02*
X178266721Y-78769805D01*
X178108225Y-78134805D02*
X178266721Y-78134805D01*
X178108225Y-78134195D02*
X178108225Y-78134805D01*
X177949221Y-77975191D02*
X178108225Y-78134195D01*
X177790217Y-78134195D02*
X177949221Y-77975191D01*
X177790217Y-78134805D02*
X177790217Y-78134195D01*
X177631721Y-78134805D02*
X177790217Y-78134805D01*
X178266721Y-76864805D02*
X178266721Y-77499805D01*
X177631721Y-76864805D02*
X178266721Y-76864805D01*
X177631721Y-77499805D02*
X177631721Y-76864805D01*
X177790217Y-77499805D02*
X177631721Y-77499805D01*
X177790217Y-77500415D02*
X177790217Y-77499805D01*
X177949221Y-77659419D02*
X177790217Y-77500415D01*
X178108225Y-77500415D02*
X177949221Y-77659419D01*
X178108225Y-77499805D02*
X178108225Y-77500415D01*
X178266721Y-77499805D02*
X178108225Y-77499805D01*
X176503402Y-112787517D02*
X176603402Y-112887517D01*
X176503402Y-112087493D02*
X176503402Y-112787517D01*
X176603402Y-111987493D02*
X176503402Y-112087493D01*
X178803398Y-111987493D02*
X176603402Y-111987493D01*
X178803398Y-112887517D02*
X178803398Y-111987493D01*
X176603402Y-112887517D02*
X178803398Y-112887517D01*
X176603402Y-111987493D02*
X176603402Y-112887517D01*
X176750900Y-112120005D02*
X177385900Y-112120005D01*
X176750900Y-112755005D02*
X176750900Y-112120005D01*
X177385900Y-112755005D02*
X176750900Y-112755005D01*
X177385900Y-112596509D02*
X177385900Y-112755005D01*
X177386510Y-112596509D02*
X177385900Y-112596509D01*
X177545514Y-112437505D02*
X177386510Y-112596509D01*
X177386510Y-112278501D02*
X177545514Y-112437505D01*
X177385900Y-112278501D02*
X177386510Y-112278501D01*
X177385900Y-112120005D02*
X177385900Y-112278501D01*
X178655900Y-112755005D02*
X178020900Y-112755005D01*
X178655900Y-112120005D02*
X178655900Y-112755005D01*
X178020900Y-112120005D02*
X178655900Y-112120005D01*
X178020900Y-112278501D02*
X178020900Y-112120005D01*
X178020290Y-112278501D02*
X178020900Y-112278501D01*
X177861286Y-112437505D02*
X178020290Y-112278501D01*
X178020290Y-112596509D02*
X177861286Y-112437505D01*
X178020900Y-112596509D02*
X178020290Y-112596509D01*
X178020900Y-112755005D02*
X178020900Y-112596509D01*
X162343918Y-108892986D02*
X162343918Y-104193021D01*
X167043909Y-108893011D02*
X162343918Y-108892986D01*
X167043909Y-104192995D02*
X167043909Y-108893011D01*
X162343918Y-104193021D02*
X167043909Y-104192995D01*
X166943858Y-108792986D02*
X165243862Y-108792986D01*
X166943858Y-104292995D02*
X166943858Y-108792986D01*
X165243862Y-104292995D02*
X166943858Y-104292995D01*
X165243862Y-108792986D02*
X165243862Y-104292995D01*
X164143864Y-108792986D02*
X162443867Y-108792986D01*
X164143864Y-104292995D02*
X164143864Y-108792986D01*
X162443867Y-104292995D02*
X164143864Y-104292995D01*
X162443867Y-108792986D02*
X162443867Y-104292995D01*
X142079392Y-90478697D02*
X146779408Y-90478697D01*
X142079392Y-95178713D02*
X142079392Y-90478697D01*
X146779408Y-95178713D02*
X142079392Y-95178713D01*
X146779408Y-90478697D02*
X146779408Y-95178713D01*
X142179405Y-95078701D02*
X142179405Y-93378704D01*
X146679396Y-95078701D02*
X142179405Y-95078701D01*
X146679396Y-93378704D02*
X146679396Y-95078701D01*
X142179405Y-93378704D02*
X146679396Y-93378704D01*
X142179405Y-92278706D02*
X142179405Y-90578710D01*
X146679396Y-92278706D02*
X142179405Y-92278706D01*
X146679396Y-90578710D02*
X146679396Y-92278706D01*
X142179405Y-90578710D02*
X146679396Y-90578710D01*
X175412371Y-104500335D02*
X175412371Y-107150317D01*
X174312348Y-104500335D02*
X175412371Y-104500335D01*
X174312348Y-107150317D02*
X174312348Y-104500335D01*
X175412371Y-107150317D02*
X174312348Y-107150317D01*
X174387354Y-107075336D02*
X174387354Y-106275338D01*
X175337365Y-107075336D02*
X174387354Y-107075336D01*
X175337365Y-106275338D02*
X175337365Y-107075336D01*
X174387354Y-106275338D02*
X175337365Y-106275338D01*
X174387354Y-105375314D02*
X174387354Y-104575316D01*
X175337365Y-105375314D02*
X174387354Y-105375314D01*
X175337365Y-104575316D02*
X175337365Y-105375314D01*
X174387354Y-104575316D02*
X175337365Y-104575316D01*
X176606171Y-104481539D02*
X176606171Y-107131521D01*
X175506148Y-104481539D02*
X176606171Y-104481539D01*
X175506148Y-107131521D02*
X175506148Y-104481539D01*
X176606171Y-107131521D02*
X175506148Y-107131521D01*
X175581154Y-107056540D02*
X175581154Y-106256542D01*
X176531165Y-107056540D02*
X175581154Y-107056540D01*
X176531165Y-106256542D02*
X176531165Y-107056540D01*
X175581154Y-106256542D02*
X176531165Y-106256542D01*
X175581154Y-105356518D02*
X175581154Y-104556520D01*
X176531165Y-105356518D02*
X175581154Y-105356518D01*
X176531165Y-104556520D02*
X176531165Y-105356518D01*
X175581154Y-104556520D02*
X176531165Y-104556520D01*
X179488563Y-104494747D02*
X179488563Y-107144729D01*
X178388540Y-104494747D02*
X179488563Y-104494747D01*
X178388540Y-107144729D02*
X178388540Y-104494747D01*
X179488563Y-107144729D02*
X178388540Y-107144729D01*
X178463546Y-107069748D02*
X178463546Y-106269750D01*
X179413557Y-107069748D02*
X178463546Y-107069748D01*
X179413557Y-106269750D02*
X179413557Y-107069748D01*
X178463546Y-106269750D02*
X179413557Y-106269750D01*
X178463546Y-105369726D02*
X178463546Y-104569728D01*
X179413557Y-105369726D02*
X178463546Y-105369726D01*
X179413557Y-104569728D02*
X179413557Y-105369726D01*
X178463546Y-104569728D02*
X179413557Y-104569728D01*
X178307971Y-104488143D02*
X178307971Y-107138125D01*
X177207948Y-104488143D02*
X178307971Y-104488143D01*
X177207948Y-107138125D02*
X177207948Y-104488143D01*
X178307971Y-107138125D02*
X177207948Y-107138125D01*
X177282954Y-107063144D02*
X177282954Y-106263146D01*
X178232965Y-107063144D02*
X177282954Y-107063144D01*
X178232965Y-106263146D02*
X178232965Y-107063144D01*
X177282954Y-106263146D02*
X178232965Y-106263146D01*
X177282954Y-105363122D02*
X177282954Y-104563124D01*
X178232965Y-105363122D02*
X177282954Y-105363122D01*
X178232965Y-104563124D02*
X178232965Y-105363122D01*
X177282954Y-104563124D02*
X178232965Y-104563124D01*
X155249800Y-108195705D02*
G75*
G02X155707000Y-108652905I-3J-457203D01*
G01*
X154792600Y-108652904D02*
G75*
G02X155249800Y-108195705I457200J-1D01*
G01*
X155249799Y-109110105D02*
G75*
G02X154792600Y-108652905I-2J457197D01*
G01*
X155707000Y-108652905D02*
G75*
G02X155249800Y-109110105I-457199J-1D01*
G01*
X155630800Y-108652905D02*
G75*
G03X155630800Y-108652905I-381000J0D01*
G01*
X168153000Y-106671705D02*
G75*
G02X167695800Y-107128905I-457201J1D01*
G01*
X167695800Y-106214505D02*
G75*
G02X168153000Y-106671705I2J-457198D01*
G01*
X167238600Y-106671705D02*
G75*
G02X167695800Y-106214505I457198J2D01*
G01*
X167695800Y-107128905D02*
G75*
G02X167238600Y-106671705I2J457202D01*
G01*
X168076800Y-106671705D02*
G75*
G03X168076800Y-106671705I-381000J0D01*
G01*
X146994800Y-92981106D02*
G75*
G02X147452000Y-92523905I457200J1D01*
G01*
X147452001Y-93438305D02*
G75*
G02X146994800Y-92981105I-1J457200D01*
G01*
X147909200Y-92981104D02*
G75*
G02X147452000Y-93438305I-457200J-1D01*
G01*
X147451999Y-92523905D02*
G75*
G02X147909200Y-92981105I1J-457200D01*
G01*
X147833000Y-92981105D02*
G75*
G03X147833000Y-92981105I-381000J0D01*
G01*
X168153000Y-108500506D02*
G75*
G02X168610200Y-108043305I457200J1D01*
G01*
X168610201Y-108957705D02*
G75*
G02X168153000Y-108500505I-1J457200D01*
G01*
X169067400Y-108500504D02*
G75*
G02X168610200Y-108957705I-457200J-1D01*
G01*
X168610199Y-108043305D02*
G75*
G02X169067400Y-108500505I1J-457200D01*
G01*
X168991200Y-108500505D02*
G75*
G03X168991200Y-108500505I-381000J0D01*
G01*
X147130690Y-75402400D02*
G75*
G03X147130690Y-75402400I-2499995J0D01*
G01*
X147130690Y-115513318D02*
G75*
G03X147130690Y-115513318I-2499995J0D01*
G01*
X189241604Y-115513318D02*
G75*
G03X189241604Y-115513318I-2499995J0D01*
G01*
X189241604Y-75402400D02*
G75*
G03X189241604Y-75402400I-2499995J0D01*
G01*
X182927799Y-76293305D02*
G75*
G03X182927799Y-76293305I-499999J0D01*
G01*
X144218199Y-111218305D02*
G75*
G03X144218199Y-111218305I-499999J0D01*
G01*
X147688728Y-113494907D02*
X147688728Y-115494903D01*
X148688472Y-113494907D02*
X147688728Y-113494907D01*
X148688472Y-115494903D02*
X148688472Y-113494907D01*
X147688728Y-115494903D02*
X148688472Y-115494903D01*
X148438599Y-114744778D02*
X148438599Y-115244777D01*
X147938601Y-114744778D02*
X148438599Y-114744778D01*
X147938601Y-115244777D02*
X147938601Y-114744778D01*
X148438599Y-115244777D02*
X147938601Y-115244777D01*
X148438599Y-113745034D02*
X148438599Y-114245033D01*
X147938601Y-113745034D02*
X148438599Y-113745034D01*
X147938601Y-114245033D02*
X147938601Y-113745034D01*
X148438599Y-114245033D02*
X147938601Y-114245033D01*
X148688472Y-117628503D02*
X148688472Y-115628507D01*
X147688728Y-117628503D02*
X148688472Y-117628503D01*
X147688728Y-115628507D02*
X147688728Y-117628503D01*
X148688472Y-115628507D02*
X147688728Y-115628507D01*
X147938601Y-116378633D02*
X147938601Y-115878634D01*
X148438599Y-116378633D02*
X147938601Y-116378633D01*
X148438599Y-115878634D02*
X148438599Y-116378633D01*
X147938601Y-115878634D02*
X148438599Y-115878634D01*
X147938601Y-117378377D02*
X147938601Y-116878378D01*
X148438599Y-117378377D02*
X147938601Y-117378377D01*
X148438599Y-116878378D02*
X148438599Y-117378377D01*
X147938601Y-116878378D02*
X148438599Y-116878378D01*
X145713370Y-99952237D02*
X143713374Y-99952211D01*
X145713370Y-100951955D02*
X145713370Y-99952237D01*
X143713374Y-100951981D02*
X145713370Y-100951955D01*
X143713374Y-99952211D02*
X143713374Y-100951981D01*
X144463512Y-100702095D02*
X143963513Y-100702095D01*
X144463512Y-100202096D02*
X144463512Y-100702095D01*
X143963513Y-100202096D02*
X144463512Y-100202096D01*
X143963513Y-100702095D02*
X143963513Y-100202096D01*
X145463256Y-100702095D02*
X144963257Y-100702095D01*
X145463256Y-100202096D02*
X145463256Y-100702095D01*
X144963257Y-100202096D02*
X145463256Y-100202096D01*
X144963257Y-100702095D02*
X144963257Y-100202096D01*
X142154043Y-99186731D02*
X142154093Y-101186753D01*
X143153837Y-99186731D02*
X142154043Y-99186731D01*
X143153837Y-101186727D02*
X143153837Y-99186731D01*
X142154093Y-101186753D02*
X143153837Y-101186727D01*
X142903939Y-100436627D02*
X142903939Y-100936626D01*
X142403941Y-100436627D02*
X142903939Y-100436627D01*
X142403941Y-100936626D02*
X142403941Y-100436627D01*
X142903939Y-100936626D02*
X142403941Y-100936626D01*
X142903939Y-99436883D02*
X142903939Y-99936882D01*
X142403941Y-99436883D02*
X142903939Y-99436883D01*
X142403941Y-99936882D02*
X142403941Y-99436883D01*
X142903939Y-99936882D02*
X142403941Y-99936882D01*
X144712458Y-106042268D02*
X144712483Y-104042272D01*
X143712739Y-106042268D02*
X144712458Y-106042268D01*
X143712739Y-104042272D02*
X143712739Y-106042268D01*
X144712483Y-104042272D02*
X143712739Y-104042272D01*
X143962586Y-104792397D02*
X143962586Y-104292398D01*
X144462585Y-104792397D02*
X143962586Y-104792397D01*
X144462585Y-104292398D02*
X144462585Y-104792397D01*
X143962586Y-104292398D02*
X144462585Y-104292398D01*
X143962586Y-105792141D02*
X143962586Y-105292142D01*
X144462585Y-105792141D02*
X143962586Y-105792141D01*
X144462585Y-105292142D02*
X144462585Y-105792141D01*
X143962586Y-105292142D02*
X144462585Y-105292142D01*
X143698388Y-106768250D02*
X143698363Y-108768246D01*
X144698107Y-106768250D02*
X143698388Y-106768250D01*
X144698107Y-108768297D02*
X144698107Y-106768250D01*
X143698363Y-108768246D02*
X144698107Y-108768297D01*
X144448234Y-108018121D02*
X144448234Y-108518120D01*
X143948235Y-108018121D02*
X144448234Y-108018121D01*
X143948235Y-108518120D02*
X143948235Y-108018121D01*
X144448234Y-108518120D02*
X143948235Y-108518120D01*
X144448234Y-107018377D02*
X144448234Y-107518376D01*
X143948235Y-107018377D02*
X144448234Y-107018377D01*
X143948235Y-107518376D02*
X143948235Y-107018377D01*
X144448234Y-107518376D02*
X143948235Y-107518376D01*
X145464958Y-110198825D02*
X145464933Y-112198821D01*
X146464702Y-110198825D02*
X145464958Y-110198825D01*
X146464702Y-112198821D02*
X146464702Y-110198825D01*
X145464933Y-112198821D02*
X146464702Y-112198821D01*
X146214804Y-111448696D02*
X146214804Y-111948695D01*
X145714805Y-111448696D02*
X146214804Y-111448696D01*
X145714805Y-111948695D02*
X145714805Y-111448696D01*
X146214804Y-111948695D02*
X145714805Y-111948695D01*
X146214804Y-110448952D02*
X146214804Y-110948951D01*
X145714805Y-110448952D02*
X146214804Y-110448952D01*
X145714805Y-110948951D02*
X145714805Y-110448952D01*
X146214804Y-110948951D02*
X145714805Y-110948951D01*
X147583953Y-113397219D02*
X147583928Y-111397223D01*
X146584209Y-113397219D02*
X147583953Y-113397219D01*
X146584209Y-111397223D02*
X146584209Y-113397219D01*
X147583928Y-111397223D02*
X146584209Y-111397223D01*
X146834082Y-112147348D02*
X146834082Y-111647349D01*
X147334081Y-112147348D02*
X146834082Y-112147348D01*
X147334081Y-111647349D02*
X147334081Y-112147348D01*
X146834082Y-111647349D02*
X147334081Y-111647349D01*
X146834082Y-113147092D02*
X146834082Y-112647093D01*
X147334081Y-113147092D02*
X146834082Y-113147092D01*
X147334081Y-112647093D02*
X147334081Y-113147092D01*
X146834082Y-112647093D02*
X147334081Y-112647093D01*
X142149115Y-101240042D02*
X142149140Y-103240038D01*
X143148859Y-101240042D02*
X142149115Y-101240042D01*
X143148884Y-103240038D02*
X143148859Y-101240042D01*
X142149140Y-103240038D02*
X143148884Y-103240038D01*
X142899012Y-102489887D02*
X142899012Y-102989886D01*
X142399013Y-102489887D02*
X142899012Y-102489887D01*
X142399013Y-102989886D02*
X142399013Y-102489887D01*
X142899012Y-102989886D02*
X142399013Y-102989886D01*
X142899012Y-101490143D02*
X142899012Y-101990142D01*
X142399013Y-101490143D02*
X142899012Y-101490143D01*
X142399013Y-101990142D02*
X142399013Y-101490143D01*
X142899012Y-101990142D02*
X142399013Y-101990142D01*
X147722002Y-97163977D02*
X149721998Y-97163977D01*
X147722002Y-96164233D02*
X147722002Y-97163977D01*
X149721998Y-96164233D02*
X147722002Y-96164233D01*
X149721998Y-97163977D02*
X149721998Y-96164233D01*
X148971872Y-96414105D02*
X149471872Y-96414105D01*
X148971872Y-96914104D02*
X148971872Y-96414105D01*
X149471872Y-96914104D02*
X148971872Y-96914104D01*
X149471872Y-96414105D02*
X149471872Y-96914104D01*
X147972129Y-96414105D02*
X148472127Y-96414105D01*
X147972129Y-96914104D02*
X147972129Y-96414105D01*
X148472127Y-96914104D02*
X147972129Y-96914104D01*
X148472127Y-96414105D02*
X148472127Y-96914104D01*
X145707299Y-103017128D02*
X145707325Y-101017132D01*
X144707530Y-103017128D02*
X145707299Y-103017128D01*
X144707555Y-101017132D02*
X144707530Y-103017128D01*
X145707325Y-101017132D02*
X144707555Y-101017132D01*
X144957428Y-101767257D02*
X144957428Y-101267258D01*
X145457427Y-101767257D02*
X144957428Y-101767257D01*
X145457427Y-101267258D02*
X145457427Y-101767257D01*
X144957428Y-101267258D02*
X145457427Y-101267258D01*
X144957428Y-102767001D02*
X144957428Y-102267002D01*
X145457427Y-102767001D02*
X144957428Y-102767001D01*
X145457427Y-102267002D02*
X145457427Y-102767001D01*
X144957428Y-102267002D02*
X145457427Y-102267002D01*
X182970598Y-110642233D02*
X180970602Y-110642233D01*
X182970598Y-111641977D02*
X182970598Y-110642233D01*
X180970602Y-111641977D02*
X182970598Y-111641977D01*
X180970602Y-110642233D02*
X180970602Y-111641977D01*
X181720715Y-111392117D02*
X181220716Y-111392117D01*
X181720715Y-110892118D02*
X181720715Y-111392117D01*
X181220716Y-110892118D02*
X181720715Y-110892118D01*
X181220716Y-111392117D02*
X181220716Y-110892118D01*
X182720459Y-111392117D02*
X182220460Y-111392117D01*
X182720459Y-110892118D02*
X182720459Y-111392117D01*
X182220460Y-110892118D02*
X182720459Y-110892118D01*
X182220460Y-111392117D02*
X182220460Y-110892118D01*
X182995998Y-111734433D02*
X180996002Y-111734433D01*
X182995998Y-112734177D02*
X182995998Y-111734433D01*
X180996002Y-112734177D02*
X182995998Y-112734177D01*
X180996002Y-111734433D02*
X180996002Y-112734177D01*
X181746115Y-112484317D02*
X181246116Y-112484317D01*
X181746115Y-111984318D02*
X181746115Y-112484317D01*
X181246116Y-111984318D02*
X181746115Y-111984318D01*
X181246116Y-112484317D02*
X181246116Y-111984318D01*
X182745859Y-112484317D02*
X182245860Y-112484317D01*
X182745859Y-111984318D02*
X182745859Y-112484317D01*
X182245860Y-111984318D02*
X182745859Y-111984318D01*
X182245860Y-112484317D02*
X182245860Y-111984318D01*
X180887798Y-111937633D02*
X178887802Y-111937633D01*
X180887798Y-112937377D02*
X180887798Y-111937633D01*
X178887802Y-112937377D02*
X180887798Y-112937377D01*
X178887802Y-111937633D02*
X178887802Y-112937377D01*
X179637915Y-112687517D02*
X179137916Y-112687517D01*
X179637915Y-112187518D02*
X179637915Y-112687517D01*
X179137916Y-112187518D02*
X179637915Y-112187518D01*
X179137916Y-112687517D02*
X179137916Y-112187518D01*
X180637659Y-112687517D02*
X180137660Y-112687517D01*
X180637659Y-112187518D02*
X180637659Y-112687517D01*
X180137660Y-112187518D02*
X180637659Y-112187518D01*
X180137660Y-112687517D02*
X180137660Y-112187518D01*
X178360650Y-86833137D02*
X178360650Y-84833141D01*
X177360906Y-86833137D02*
X178360650Y-86833137D01*
X177360906Y-84833141D02*
X177360906Y-86833137D01*
X178360650Y-84833141D02*
X177360906Y-84833141D01*
X177610779Y-85583266D02*
X177610779Y-85083267D01*
X178110778Y-85583266D02*
X177610779Y-85583266D01*
X178110778Y-85083267D02*
X178110778Y-85583266D01*
X177610779Y-85083267D02*
X178110778Y-85083267D01*
X177610779Y-86583010D02*
X177610779Y-86083011D01*
X178110778Y-86583010D02*
X177610779Y-86583010D01*
X178110778Y-86083011D02*
X178110778Y-86583010D01*
X177610779Y-86083011D02*
X178110778Y-86083011D01*
X158943341Y-77637981D02*
X158943341Y-75637985D01*
X157943597Y-77637981D02*
X158943341Y-77637981D01*
X157943597Y-75637985D02*
X157943597Y-77637981D01*
X158943341Y-75637985D02*
X157943597Y-75637985D01*
X158193469Y-76388110D02*
X158193469Y-75888111D01*
X158693469Y-76388110D02*
X158193469Y-76388110D01*
X158693469Y-75888111D02*
X158693469Y-76388110D01*
X158193469Y-75888111D02*
X158693469Y-75888111D01*
X158193469Y-77387854D02*
X158193469Y-76887855D01*
X158693469Y-77387854D02*
X158193469Y-77387854D01*
X158693469Y-76887855D02*
X158693469Y-77387854D01*
X158193469Y-76887855D02*
X158693469Y-76887855D01*
X158026528Y-79834446D02*
X160026524Y-79834446D01*
X158026528Y-78834702D02*
X158026528Y-79834446D01*
X160026524Y-78834702D02*
X158026528Y-78834702D01*
X160026524Y-79834446D02*
X160026524Y-78834702D01*
X159276399Y-79084574D02*
X159776398Y-79084574D01*
X159276399Y-79584573D02*
X159276399Y-79084574D01*
X159776398Y-79584573D02*
X159276399Y-79584573D01*
X159776398Y-79084574D02*
X159776398Y-79584573D01*
X158276654Y-79084574D02*
X158776654Y-79084574D01*
X158276654Y-79584573D02*
X158276654Y-79084574D01*
X158776654Y-79584573D02*
X158276654Y-79584573D01*
X158776654Y-79084574D02*
X158776654Y-79584573D01*
X172443060Y-89008164D02*
X170443064Y-89008164D01*
X172443060Y-90007908D02*
X172443060Y-89008164D01*
X170443064Y-90007908D02*
X172443060Y-90007908D01*
X170443064Y-89008164D02*
X170443064Y-90007908D01*
X171193177Y-89758048D02*
X170693178Y-89758048D01*
X171193177Y-89258049D02*
X171193177Y-89758048D01*
X170693178Y-89258049D02*
X171193177Y-89258049D01*
X170693178Y-89758048D02*
X170693178Y-89258049D01*
X172192921Y-89758048D02*
X171692922Y-89758048D01*
X172192921Y-89258049D02*
X172192921Y-89758048D01*
X171692922Y-89258049D02*
X172192921Y-89258049D01*
X171692922Y-89758048D02*
X171692922Y-89258049D01*
X172522308Y-90003590D02*
X174522304Y-90003590D01*
X172522308Y-89003846D02*
X172522308Y-90003590D01*
X174522304Y-89003846D02*
X172522308Y-89003846D01*
X174522304Y-90003590D02*
X174522304Y-89003846D01*
X173772179Y-89253719D02*
X174272177Y-89253719D01*
X173772179Y-89753718D02*
X173772179Y-89253719D01*
X174272177Y-89753718D02*
X173772179Y-89753718D01*
X174272177Y-89253719D02*
X174272177Y-89753718D01*
X172772435Y-89253719D02*
X173272434Y-89253719D01*
X172772435Y-89753718D02*
X172772435Y-89253719D01*
X173272434Y-89753718D02*
X172772435Y-89753718D01*
X173272434Y-89253719D02*
X173272434Y-89753718D01*
X159040115Y-75640017D02*
X159040115Y-77640013D01*
X160039859Y-75640017D02*
X159040115Y-75640017D01*
X160039859Y-77640013D02*
X160039859Y-75640017D01*
X159040115Y-77640013D02*
X160039859Y-77640013D01*
X159789986Y-76889888D02*
X159789986Y-77389887D01*
X159289988Y-76889888D02*
X159789986Y-76889888D01*
X159289988Y-77389887D02*
X159289988Y-76889888D01*
X159789986Y-77389887D02*
X159289988Y-77389887D01*
X159789986Y-75890143D02*
X159789986Y-76390142D01*
X159289988Y-75890143D02*
X159789986Y-75890143D01*
X159289988Y-76390142D02*
X159289988Y-75890143D01*
X159789986Y-76390142D02*
X159289988Y-76390142D01*
X158032116Y-78751390D02*
X160032112Y-78751390D01*
X158032116Y-77751646D02*
X158032116Y-78751390D01*
X160032112Y-77751646D02*
X158032116Y-77751646D01*
X160032112Y-78751390D02*
X160032112Y-77751646D01*
X159281987Y-78001519D02*
X159781985Y-78001519D01*
X159281987Y-78501518D02*
X159281987Y-78001519D01*
X159781985Y-78501518D02*
X159281987Y-78501518D01*
X159781985Y-78001519D02*
X159781985Y-78501518D01*
X158282242Y-78001519D02*
X158782242Y-78001519D01*
X158282242Y-78501518D02*
X158282242Y-78001519D01*
X158782242Y-78501518D02*
X158282242Y-78501518D01*
X158782242Y-78001519D02*
X158782242Y-78501518D01*
X181631002Y-108295273D02*
X179631006Y-108295273D01*
X181631002Y-109295017D02*
X181631002Y-108295273D01*
X179631006Y-109295017D02*
X181631002Y-109295017D01*
X179631006Y-108295273D02*
X179631006Y-109295017D01*
X180381119Y-109045157D02*
X179881120Y-109045157D01*
X180381119Y-108545158D02*
X180381119Y-109045157D01*
X179881120Y-108545158D02*
X180381119Y-108545158D01*
X179881120Y-109045157D02*
X179881120Y-108545158D01*
X181380863Y-109045157D02*
X180880864Y-109045157D01*
X181380863Y-108545158D02*
X181380863Y-109045157D01*
X180880864Y-108545158D02*
X181380863Y-108545158D01*
X180880864Y-109045157D02*
X180880864Y-108545158D01*
X181624398Y-109362073D02*
X179624402Y-109362073D01*
X181624398Y-110361817D02*
X181624398Y-109362073D01*
X179624402Y-110361817D02*
X181624398Y-110361817D01*
X179624402Y-109362073D02*
X179624402Y-110361817D01*
X180374515Y-110111957D02*
X179874516Y-110111957D01*
X180374515Y-109611958D02*
X180374515Y-110111957D01*
X179874516Y-109611958D02*
X180374515Y-109611958D01*
X179874516Y-110111957D02*
X179874516Y-109611958D01*
X181374259Y-110111957D02*
X180874260Y-110111957D01*
X181374259Y-109611958D02*
X181374259Y-110111957D01*
X180874260Y-109611958D02*
X181374259Y-109611958D01*
X180874260Y-110111957D02*
X180874260Y-109611958D01*
X175415444Y-110946957D02*
X175415444Y-109446833D01*
X174415676Y-109446833D02*
G75*
G02X175415444Y-109446833I499884J-368756D01*
G01*
X174415675Y-109446833D02*
X174415675Y-110946957D01*
X175415445Y-110946957D02*
G75*
G02X174415675Y-110946957I-499885J370060D01*
G01*
X175165572Y-110446767D02*
X175165572Y-110946766D01*
X174665573Y-110446767D02*
X175165572Y-110446767D01*
X174665573Y-110946766D02*
X174665573Y-110446767D01*
X175165572Y-110946766D02*
X174665573Y-110946766D01*
X175165572Y-109447023D02*
X175165572Y-109947022D01*
X174665573Y-109447023D02*
X175165572Y-109447023D01*
X174665573Y-109947022D02*
X174665573Y-109447023D01*
X175165572Y-109947022D02*
X174665573Y-109947022D01*
X160321672Y-111993767D02*
X160321672Y-110493643D01*
X159321928Y-110493644D02*
G75*
G02X160321672Y-110493643I499872J-368761D01*
G01*
X159321928Y-110493643D02*
X159321928Y-111993767D01*
X160321672Y-111993767D02*
G75*
G02X159321928Y-111993767I-499872J370062D01*
G01*
X160071799Y-111493577D02*
X160071799Y-111993576D01*
X159571801Y-111493577D02*
X160071799Y-111493577D01*
X159571801Y-111993576D02*
X159571801Y-111493577D01*
X160071799Y-111993576D02*
X159571801Y-111993576D01*
X160071799Y-110493834D02*
X160071799Y-110993833D01*
X159571801Y-110493834D02*
X160071799Y-110493834D01*
X159571801Y-110993833D02*
X159571801Y-110493834D01*
X160071799Y-110993833D02*
X159571801Y-110993833D01*
X150259462Y-75895033D02*
X148759338Y-75895033D01*
X148759339Y-76894777D02*
G75*
G02X148759338Y-75895033I368761J499872D01*
G01*
X148759338Y-76894777D02*
X150259462Y-76894777D01*
X150259462Y-75895033D02*
G75*
G02X150259462Y-76894777I-370062J-499872D01*
G01*
X149759272Y-76144906D02*
X150259272Y-76144906D01*
X149759272Y-76644905D02*
X149759272Y-76144906D01*
X150259272Y-76644905D02*
X149759272Y-76644905D01*
X150259272Y-76144906D02*
X150259272Y-76644905D01*
X148759528Y-76144906D02*
X149259528Y-76144906D01*
X148759528Y-76644905D02*
X148759528Y-76144906D01*
X149259528Y-76644905D02*
X148759528Y-76644905D01*
X149259528Y-76144906D02*
X149259528Y-76644905D01*
X157045072Y-112603367D02*
X157045072Y-111103243D01*
X156045328Y-111103244D02*
G75*
G02X157045072Y-111103243I499872J-368761D01*
G01*
X156045328Y-111103243D02*
X156045328Y-112603367D01*
X157045072Y-112603367D02*
G75*
G02X156045328Y-112603367I-499872J370062D01*
G01*
X156795200Y-112103177D02*
X156795200Y-112603176D01*
X156295200Y-112103177D02*
X156795200Y-112103177D01*
X156295200Y-112603176D02*
X156295200Y-112103177D01*
X156795200Y-112603176D02*
X156295200Y-112603176D01*
X156795200Y-111103434D02*
X156795200Y-111603433D01*
X156295200Y-111103434D02*
X156795200Y-111103434D01*
X156295200Y-111603433D02*
X156295200Y-111103434D01*
X156795200Y-111603433D02*
X156295200Y-111603433D01*
X146300872Y-107091567D02*
X146300872Y-105591443D01*
X145301128Y-105591444D02*
G75*
G02X146300872Y-105591443I499872J-368761D01*
G01*
X145301128Y-105591443D02*
X145301128Y-107091567D01*
X146300872Y-107091567D02*
G75*
G02X145301128Y-107091567I-499872J370062D01*
G01*
X146050999Y-106591377D02*
X146050999Y-107091376D01*
X145551001Y-106591377D02*
X146050999Y-106591377D01*
X145551001Y-107091376D02*
X145551001Y-106591377D01*
X146050999Y-107091376D02*
X145551001Y-107091376D01*
X146050999Y-105591634D02*
X146050999Y-106091633D01*
X145551001Y-105591634D02*
X146050999Y-105591634D01*
X145551001Y-106091633D02*
X145551001Y-105591634D01*
X146050999Y-106091633D02*
X145551001Y-106091633D01*
X160127819Y-76307046D02*
X160127819Y-77807170D01*
X161127563Y-77807171D02*
G75*
G02X160127819Y-77807170I-499872J368757D01*
G01*
X161127563Y-77807170D02*
X161127538Y-76307072D01*
X160127819Y-76307046D02*
G75*
G02X161127538Y-76307072I499850J-370078D01*
G01*
X160377692Y-76807236D02*
X160377692Y-76307237D01*
X160877691Y-76807236D02*
X160377692Y-76807236D01*
X160877691Y-76307237D02*
X160877691Y-76807236D01*
X160377692Y-76307237D02*
X160877691Y-76307237D01*
X160377692Y-77806980D02*
X160377692Y-77306981D01*
X160877691Y-77806980D02*
X160377692Y-77806980D01*
X160877691Y-77306981D02*
X160877691Y-77806980D01*
X160377692Y-77306981D02*
X160877691Y-77306981D01*
X161127563Y-79911637D02*
X161127563Y-78411513D01*
X160127819Y-78411512D02*
G75*
G02X161127563Y-78411513I499872J-368762D01*
G01*
X160127819Y-78411513D02*
X160127819Y-79911637D01*
X161127563Y-79911637D02*
G75*
G02X160127819Y-79911637I-499872J370063D01*
G01*
X160877691Y-79411447D02*
X160877691Y-79911446D01*
X160377692Y-79411447D02*
X160877691Y-79411447D01*
X160377692Y-79911446D02*
X160377692Y-79411447D01*
X160877691Y-79911446D02*
X160377692Y-79911446D01*
X160877691Y-78411703D02*
X160877691Y-78911702D01*
X160377692Y-78411703D02*
X160877691Y-78411703D01*
X160377692Y-78911702D02*
X160377692Y-78411703D01*
X160877691Y-78911702D02*
X160377692Y-78911702D01*
X146754237Y-102280985D02*
X146754237Y-100780861D01*
X145754494Y-100780860D02*
G75*
G02X146754237Y-100780861I499871J-368756D01*
G01*
X145754493Y-100780861D02*
X145754493Y-102280959D01*
X146754236Y-102280985D02*
G75*
G02X145754493Y-102280959I-499862J370073D01*
G01*
X146504364Y-101780795D02*
X146504364Y-102280794D01*
X146004365Y-101780795D02*
X146504364Y-101780795D01*
X146004365Y-102280794D02*
X146004365Y-101780795D01*
X146504364Y-102280794D02*
X146004365Y-102280794D01*
X146504364Y-100781051D02*
X146504364Y-101281050D01*
X146004365Y-100781051D02*
X146504364Y-100781051D01*
X146004365Y-101281050D02*
X146004365Y-100781051D01*
X146504364Y-101281050D02*
X146004365Y-101281050D01*
X152188338Y-97163977D02*
X153688462Y-97163977D01*
X153688461Y-96164233D02*
G75*
G02X153688462Y-97163977I-368761J-499872D01*
G01*
X153688462Y-96164233D02*
X152188338Y-96164233D01*
X152188338Y-97163977D02*
G75*
G02X152188338Y-96164233I370062J499872D01*
G01*
X152688515Y-96914117D02*
X152188516Y-96914117D01*
X152688515Y-96414118D02*
X152688515Y-96914117D01*
X152188516Y-96414118D02*
X152688515Y-96414118D01*
X152188516Y-96914117D02*
X152188516Y-96414118D01*
X153688259Y-96914117D02*
X153188260Y-96914117D01*
X153688259Y-96414118D02*
X153688259Y-96914117D01*
X153188260Y-96414118D02*
X153688259Y-96414118D01*
X153188260Y-96914117D02*
X153188260Y-96414118D01*
X143651576Y-101243471D02*
X143651576Y-102743595D01*
X144651320Y-102743595D02*
G75*
G02X143651576Y-102743595I-499872J368765D01*
G01*
X144651320Y-102743595D02*
X144651345Y-101243471D01*
X143651576Y-101243472D02*
G75*
G02X144651345Y-101243471I499885J-370052D01*
G01*
X143901448Y-101743660D02*
X143901448Y-101243661D01*
X144401447Y-101743660D02*
X143901448Y-101743660D01*
X144401447Y-101243661D02*
X144401447Y-101743660D01*
X143901448Y-101243661D02*
X144401447Y-101243661D01*
X143901448Y-102743404D02*
X143901448Y-102243405D01*
X144401447Y-102743404D02*
X143901448Y-102743404D01*
X144401447Y-102243405D02*
X144401447Y-102743404D01*
X143901448Y-102243405D02*
X144401447Y-102243405D01*
X174641938Y-112937377D02*
X176142062Y-112937377D01*
X176142061Y-111937633D02*
G75*
G02X176142062Y-112937377I-368761J-499872D01*
G01*
X176142062Y-111937633D02*
X174641938Y-111937633D01*
X174641938Y-112937377D02*
G75*
G02X174641938Y-111937633I370062J499872D01*
G01*
X175142115Y-112687517D02*
X174642116Y-112687517D01*
X175142115Y-112187518D02*
X175142115Y-112687517D01*
X174642116Y-112187518D02*
X175142115Y-112187518D01*
X174642116Y-112687517D02*
X174642116Y-112187518D01*
X176141859Y-112687517D02*
X175641860Y-112687517D01*
X176141859Y-112187518D02*
X176141859Y-112687517D01*
X175641860Y-112187518D02*
X176141859Y-112187518D01*
X175641860Y-112687517D02*
X175641860Y-112187518D01*
X176375996Y-76760411D02*
X176375996Y-78260535D01*
X177375740Y-78260534D02*
G75*
G02X176375996Y-78260535I-499872J368761D01*
G01*
X177375740Y-78260535D02*
X177375740Y-76760411D01*
X176375996Y-76760411D02*
G75*
G02X177375740Y-76760411I499872J-370062D01*
G01*
X176625869Y-77260600D02*
X176625869Y-76760601D01*
X177125868Y-77260600D02*
X176625869Y-77260600D01*
X177125868Y-76760601D02*
X177125868Y-77260600D01*
X176625869Y-76760601D02*
X177125868Y-76760601D01*
X176625869Y-78260345D02*
X176625869Y-77760346D01*
X177125868Y-78260345D02*
X176625869Y-78260345D01*
X177125868Y-77760346D02*
X177125868Y-78260345D01*
X176625869Y-77760346D02*
X177125868Y-77760346D01*
X147865004Y-95866799D02*
X147865004Y-94366675D01*
X146865260Y-94366676D02*
G75*
G02X147865004Y-94366675I499872J-368761D01*
G01*
X146865260Y-94366675D02*
X146865260Y-95866799D01*
X147865004Y-95866799D02*
G75*
G02X146865260Y-95866799I-499872J370062D01*
G01*
X147615131Y-95366610D02*
X147615131Y-95866609D01*
X147115133Y-95366610D02*
X147615131Y-95366610D01*
X147115133Y-95866609D02*
X147115133Y-95366610D01*
X147615131Y-95866609D02*
X147115133Y-95866609D01*
X147615131Y-94366865D02*
X147615131Y-94866864D01*
X147115133Y-94366865D02*
X147615131Y-94366865D01*
X147115133Y-94866864D02*
X147115133Y-94366865D01*
X147615131Y-94866864D02*
X147115133Y-94866864D01*
X147890404Y-90812199D02*
X147890404Y-89312075D01*
X146890660Y-89312076D02*
G75*
G02X147890404Y-89312075I499872J-368761D01*
G01*
X146890660Y-89312075D02*
X146890660Y-90812199D01*
X147890404Y-90812199D02*
G75*
G02X146890660Y-90812199I-499872J370062D01*
G01*
X147640531Y-90312010D02*
X147640531Y-90812009D01*
X147140533Y-90312010D02*
X147640531Y-90312010D01*
X147140533Y-90812009D02*
X147140533Y-90312010D01*
X147640531Y-90812009D02*
X147140533Y-90812009D01*
X147640531Y-89312266D02*
X147640531Y-89812265D01*
X147140533Y-89312266D02*
X147640531Y-89312266D01*
X147140533Y-89812265D02*
X147140533Y-89312266D01*
X147640531Y-89812265D02*
X147140533Y-89812265D01*
X170135343Y-80056213D02*
X168635219Y-80056188D01*
X168635218Y-81055958D02*
G75*
G02X168635219Y-80056188I368761J499885D01*
G01*
X168635219Y-81055957D02*
X170135368Y-81055957D01*
X170135342Y-80056214D02*
G75*
G02X170135368Y-81055957I-370053J-499881D01*
G01*
X169635179Y-80306061D02*
X170135178Y-80306061D01*
X169635179Y-80806060D02*
X169635179Y-80306061D01*
X170135178Y-80806060D02*
X169635179Y-80806060D01*
X170135178Y-80306061D02*
X170135178Y-80806060D01*
X168635435Y-80306061D02*
X169135434Y-80306061D01*
X168635435Y-80806060D02*
X168635435Y-80306061D01*
X169135434Y-80806060D02*
X168635435Y-80806060D01*
X169135434Y-80306061D02*
X169135434Y-80806060D01*
X167618457Y-79998022D02*
X169118556Y-79997997D01*
X169118581Y-78998251D02*
G75*
G02X169118556Y-79997997I-368771J-499864D01*
G01*
X169118581Y-78998253D02*
X167618457Y-78998253D01*
X167618458Y-79998022D02*
G75*
G02X167618457Y-78998253I370052J499885D01*
G01*
X168118634Y-79748162D02*
X167618635Y-79748162D01*
X168118634Y-79248163D02*
X168118634Y-79748162D01*
X167618635Y-79248163D02*
X168118634Y-79248163D01*
X167618635Y-79748162D02*
X167618635Y-79248163D01*
X169118378Y-79748162D02*
X168618379Y-79748162D01*
X169118378Y-79248163D02*
X169118378Y-79748162D01*
X168618379Y-79248163D02*
X169118378Y-79248163D01*
X168618379Y-79748162D02*
X168618379Y-79248163D01*
X174120730Y-82106730D02*
X172620606Y-82106730D01*
X172620607Y-83106474D02*
G75*
G02X172620606Y-82106730I368761J499872D01*
G01*
X172620606Y-83106474D02*
X174120730Y-83106474D01*
X174120730Y-82106730D02*
G75*
G02X174120730Y-83106474I-370062J-499872D01*
G01*
X173620541Y-82356602D02*
X174120539Y-82356602D01*
X173620541Y-82856601D02*
X173620541Y-82356602D01*
X174120539Y-82856601D02*
X173620541Y-82856601D01*
X174120539Y-82356602D02*
X174120539Y-82856601D01*
X172620797Y-82356602D02*
X173120795Y-82356602D01*
X172620797Y-82856601D02*
X172620797Y-82356602D01*
X173120795Y-82856601D02*
X172620797Y-82856601D01*
X173120795Y-82356602D02*
X173120795Y-82856601D01*
X168026025Y-80056188D02*
X166525876Y-80056188D01*
X166525875Y-81055958D02*
G75*
G02X166525876Y-80056188I368761J499885D01*
G01*
X166525876Y-81055957D02*
X168026000Y-81055932D01*
X168026025Y-80056189D02*
G75*
G02X168026000Y-81055932I-370079J-499862D01*
G01*
X167525836Y-80306086D02*
X168025835Y-80306086D01*
X167525836Y-80806085D02*
X167525836Y-80306086D01*
X168025835Y-80806085D02*
X167525836Y-80806085D01*
X168025835Y-80306086D02*
X168025835Y-80806085D01*
X166526092Y-80306086D02*
X167026091Y-80306086D01*
X166526092Y-80806085D02*
X166526092Y-80306086D01*
X167026091Y-80806085D02*
X166526092Y-80806085D01*
X167026091Y-80306086D02*
X167026091Y-80806085D01*
X175894031Y-84164003D02*
X175894031Y-82663879D01*
X174894287Y-82663880D02*
G75*
G02X175894031Y-82663879I499872J-368761D01*
G01*
X174894287Y-82663879D02*
X174894287Y-84164003D01*
X175894031Y-84164003D02*
G75*
G02X174894287Y-84164003I-499872J370062D01*
G01*
X175644158Y-83663814D02*
X175644158Y-84163813D01*
X175144160Y-83663814D02*
X175644158Y-83663814D01*
X175144160Y-84163813D02*
X175144160Y-83663814D01*
X175644158Y-84163813D02*
X175144160Y-84163813D01*
X175644158Y-82664070D02*
X175644158Y-83164069D01*
X175144160Y-82664070D02*
X175644158Y-82664070D01*
X175144160Y-83164069D02*
X175144160Y-82664070D01*
X175644158Y-83164069D02*
X175144160Y-83164069D01*
X173661498Y-83487474D02*
X172161374Y-83487474D01*
X172161375Y-84487218D02*
G75*
G02X172161374Y-83487474I368761J499872D01*
G01*
X172161374Y-84487218D02*
X173661498Y-84487218D01*
X173661498Y-83487474D02*
G75*
G02X173661498Y-84487218I-370062J-499872D01*
G01*
X173161309Y-83737347D02*
X173661308Y-83737347D01*
X173161309Y-84237346D02*
X173161309Y-83737347D01*
X173661308Y-84237346D02*
X173161309Y-84237346D01*
X173661308Y-83737347D02*
X173661308Y-84237346D01*
X172161564Y-83737347D02*
X172661564Y-83737347D01*
X172161564Y-84237346D02*
X172161564Y-83737347D01*
X172661564Y-84237346D02*
X172161564Y-84237346D01*
X172661564Y-83737347D02*
X172661564Y-84237346D01*
X162821159Y-98557091D02*
X162821184Y-99649291D01*
X161525784Y-98557091D02*
X162821159Y-98557091D01*
X161525759Y-99649291D02*
X161525784Y-98557091D01*
X162821159Y-101351091D02*
X162821184Y-100258891D01*
X161525784Y-101351091D02*
X162821159Y-101351091D01*
X161525759Y-100258891D02*
X161525784Y-101351091D01*
X161716284Y-100258891D02*
X162630684Y-100258891D01*
X161716284Y-101173291D02*
X161716284Y-100258891D01*
X162630684Y-101173291D02*
X161716284Y-101173291D01*
X162630684Y-100258891D02*
X162630684Y-101173291D01*
X161716284Y-98734891D02*
X162630684Y-98734891D01*
X161716284Y-99649291D02*
X161716284Y-98734891D01*
X162630684Y-99649291D02*
X161716284Y-99649291D01*
X162630684Y-98734891D02*
X162630684Y-99649291D01*
X145500188Y-99870652D02*
X145500188Y-98778477D01*
X146795588Y-99870652D02*
X145500188Y-99870652D01*
X146795588Y-98778477D02*
X146795588Y-99870652D01*
X145500188Y-97076677D02*
X145500188Y-98168877D01*
X146795588Y-97076677D02*
X145500188Y-97076677D01*
X146795588Y-98168877D02*
X146795588Y-97076677D01*
X146605088Y-98168877D02*
X145690688Y-98168877D01*
X146605088Y-97254477D02*
X146605088Y-98168877D01*
X145690688Y-97254477D02*
X146605088Y-97254477D01*
X145690688Y-98168877D02*
X145690688Y-97254477D01*
X146605088Y-99692877D02*
X145690688Y-99692877D01*
X146605088Y-98778477D02*
X146605088Y-99692877D01*
X145690688Y-98778477D02*
X146605088Y-98778477D01*
X145690688Y-99692877D02*
X145690688Y-98778477D01*
X153344800Y-76941005D02*
X152252600Y-76941005D01*
X153344800Y-75645605D02*
X153344800Y-76941005D01*
X152252600Y-75645605D02*
X153344800Y-75645605D01*
X150550800Y-76941005D02*
X151643000Y-76941005D01*
X150550800Y-75645605D02*
X150550800Y-76941005D01*
X151643000Y-75645605D02*
X150550800Y-75645605D01*
X151643000Y-75836105D02*
X151643000Y-76750505D01*
X150728600Y-75836105D02*
X151643000Y-75836105D01*
X150728600Y-76750505D02*
X150728600Y-75836105D01*
X151643000Y-76750505D02*
X150728600Y-76750505D01*
X153167000Y-75836105D02*
X153167000Y-76750505D01*
X152252600Y-75836105D02*
X153167000Y-75836105D01*
X152252600Y-76750505D02*
X152252600Y-75836105D01*
X153167000Y-76750505D02*
X152252600Y-76750505D01*
X144937400Y-108843405D02*
X146029600Y-108843405D01*
X144937400Y-110138805D02*
X144937400Y-108843405D01*
X146029600Y-110138805D02*
X144937400Y-110138805D01*
X147731400Y-108843405D02*
X146639200Y-108843405D01*
X147731400Y-110138805D02*
X147731400Y-108843405D01*
X146639200Y-110138805D02*
X147731400Y-110138805D01*
X146639200Y-109948305D02*
X146639200Y-109033905D01*
X147553600Y-109948305D02*
X146639200Y-109948305D01*
X147553600Y-109033905D02*
X147553600Y-109948305D01*
X146639200Y-109033905D02*
X147553600Y-109033905D01*
X145115200Y-109948305D02*
X145115200Y-109033905D01*
X146029600Y-109948305D02*
X145115200Y-109948305D01*
X146029600Y-109033905D02*
X146029600Y-109948305D01*
X145115200Y-109033905D02*
X146029600Y-109033905D01*
X182542100Y-115739505D02*
X182542100Y-114647305D01*
X183837500Y-115739505D02*
X182542100Y-115739505D01*
X183837500Y-114647305D02*
X183837500Y-115739505D01*
X182542100Y-112945505D02*
X182542100Y-114037705D01*
X183837500Y-112945505D02*
X182542100Y-112945505D01*
X183837500Y-114037705D02*
X183837500Y-112945505D01*
X183647000Y-114037705D02*
X182732600Y-114037705D01*
X183647000Y-113123305D02*
X183647000Y-114037705D01*
X182732600Y-113123305D02*
X183647000Y-113123305D01*
X182732600Y-114037705D02*
X182732600Y-113123305D01*
X183647000Y-115561705D02*
X182732600Y-115561705D01*
X183647000Y-114647305D02*
X183647000Y-115561705D01*
X182732600Y-114647305D02*
X183647000Y-114647305D01*
X182732600Y-115561705D02*
X182732600Y-114647305D01*
X145418781Y-97055773D02*
X145418781Y-98147973D01*
X144123381Y-97055773D02*
X145418781Y-97055773D01*
X144123381Y-98147973D02*
X144123381Y-97055773D01*
X145418781Y-99849773D02*
X145418781Y-98757573D01*
X144123381Y-99849773D02*
X145418781Y-99849773D01*
X144123381Y-98757573D02*
X144123381Y-99849773D01*
X144313881Y-98757573D02*
X145228281Y-98757573D01*
X144313881Y-99671973D02*
X144313881Y-98757573D01*
X145228281Y-99671973D02*
X144313881Y-99671973D01*
X145228281Y-98757573D02*
X145228281Y-99671973D01*
X144313881Y-97233573D02*
X145228281Y-97233573D01*
X144313881Y-98147973D02*
X144313881Y-97233573D01*
X145228281Y-98147973D02*
X144313881Y-98147973D01*
X145228281Y-97233573D02*
X145228281Y-98147973D01*
X174946992Y-87369864D02*
X174946992Y-86277664D01*
X176242392Y-87369864D02*
X174946992Y-87369864D01*
X176242392Y-86277664D02*
X176242392Y-87369864D01*
X174946992Y-84575864D02*
X174946992Y-85668064D01*
X176242392Y-84575864D02*
X174946992Y-84575864D01*
X176242392Y-85668064D02*
X176242392Y-84575864D01*
X176051892Y-85668064D02*
X175137492Y-85668064D01*
X176051892Y-84753664D02*
X176051892Y-85668064D01*
X175137492Y-84753664D02*
X176051892Y-84753664D01*
X175137492Y-85668064D02*
X175137492Y-84753664D01*
X176051892Y-87192064D02*
X175137492Y-87192064D01*
X176051892Y-86277664D02*
X176051892Y-87192064D01*
X175137492Y-86277664D02*
X176051892Y-86277664D01*
X175137492Y-87192064D02*
X175137492Y-86277664D01*
X157120764Y-109038985D02*
X157120764Y-110488817D01*
X159170798Y-109038985D02*
X157120764Y-109038985D01*
X159220836Y-109088769D02*
X159170798Y-109038985D01*
X159220836Y-110488817D02*
X159220836Y-109088769D01*
X157120764Y-112789041D02*
X157120764Y-111388993D01*
X159220836Y-112789041D02*
X157120764Y-112789041D01*
X159220836Y-111388993D02*
X159220836Y-112789041D01*
X157472300Y-111332605D02*
X158869300Y-111332605D01*
X157472300Y-112475605D02*
X157472300Y-111332605D01*
X158869300Y-112475605D02*
X157472300Y-112475605D01*
X158869300Y-111332605D02*
X158869300Y-112475605D01*
X157472300Y-109402205D02*
X158869300Y-109402205D01*
X157472300Y-110545205D02*
X157472300Y-109402205D01*
X158869300Y-110545205D02*
X157472300Y-110545205D01*
X158869300Y-109402205D02*
X158869300Y-110545205D01*
X141968445Y-95295553D02*
X141968445Y-96745385D01*
X144018479Y-95295553D02*
X141968445Y-95295553D01*
X144068517Y-95345337D02*
X144018479Y-95295553D01*
X144068517Y-96745385D02*
X144068517Y-95345337D01*
X141968445Y-99045609D02*
X141968445Y-97645561D01*
X144068517Y-99045609D02*
X141968445Y-99045609D01*
X144068517Y-97645561D02*
X144068517Y-99045609D01*
X142319981Y-97589173D02*
X143716981Y-97589173D01*
X142319981Y-98732173D02*
X142319981Y-97589173D01*
X143716981Y-98732173D02*
X142319981Y-98732173D01*
X143716981Y-97589173D02*
X143716981Y-98732173D01*
X142319981Y-95658773D02*
X143716981Y-95658773D01*
X142319981Y-96801773D02*
X142319981Y-95658773D01*
X143716981Y-96801773D02*
X142319981Y-96801773D01*
X143716981Y-95658773D02*
X143716981Y-96801773D01*
X177247394Y-82329336D02*
X177247394Y-80879504D01*
X175197360Y-82329336D02*
X177247394Y-82329336D01*
X175147322Y-82279552D02*
X175197360Y-82329336D01*
X175147322Y-80879504D02*
X175147322Y-82279552D01*
X177247394Y-78579280D02*
X177247394Y-79979328D01*
X175147322Y-78579280D02*
X177247394Y-78579280D01*
X175147322Y-79979328D02*
X175147322Y-78579280D01*
X176895858Y-80035716D02*
X175498858Y-80035716D01*
X176895858Y-78892716D02*
X176895858Y-80035716D01*
X175498858Y-78892716D02*
X176895858Y-78892716D01*
X175498858Y-80035716D02*
X175498858Y-78892716D01*
X176895858Y-81966116D02*
X175498858Y-81966116D01*
X176895858Y-80823116D02*
X176895858Y-81966116D01*
X175498858Y-80823116D02*
X176895858Y-80823116D01*
X175498858Y-81966116D02*
X175498858Y-80823116D01*
X174326064Y-112939028D02*
X174326064Y-111489196D01*
X172276030Y-112939028D02*
X174326064Y-112939028D01*
X172225992Y-112889244D02*
X172276030Y-112939028D01*
X172225992Y-111489196D02*
X172225992Y-112889244D01*
X174326064Y-109188972D02*
X174326064Y-110589020D01*
X172225992Y-109188972D02*
X174326064Y-109188972D01*
X172225992Y-110589020D02*
X172225992Y-109188972D01*
X173974528Y-110645408D02*
X172577528Y-110645408D01*
X173974528Y-109502408D02*
X173974528Y-110645408D01*
X172577528Y-109502408D02*
X173974528Y-109502408D01*
X172577528Y-110645408D02*
X172577528Y-109502408D01*
X173974528Y-112575808D02*
X172577528Y-112575808D01*
X173974528Y-111432808D02*
X173974528Y-112575808D01*
X172577528Y-111432808D02*
X173974528Y-111432808D01*
X172577528Y-112575808D02*
X172577528Y-111432808D01*
X146715400Y-90161705D02*
X146461400Y-89907705D01*
X146207400Y-90161705D02*
X146715400Y-90161705D01*
X146461400Y-89907705D02*
X146207400Y-90161705D01*
X144683400Y-90110905D02*
X143667400Y-90110905D01*
X144937400Y-89856905D02*
X144683400Y-90110905D01*
X144937400Y-87062905D02*
X144937400Y-89856905D01*
X143667400Y-87062905D02*
X144937400Y-87062905D01*
X143667400Y-90110905D02*
X143667400Y-87062905D01*
X143515000Y-89196505D02*
X143515000Y-89856905D01*
X142118000Y-89196505D02*
X143515000Y-89196505D01*
X142118000Y-89856905D02*
X142118000Y-89196505D01*
X143515000Y-89856905D02*
X142118000Y-89856905D01*
X143515000Y-87296610D02*
X143515000Y-87957010D01*
X142118000Y-87296610D02*
X143515000Y-87296610D01*
X142118000Y-87957010D02*
X142118000Y-87296610D01*
X143515000Y-87957010D02*
X142118000Y-87957010D01*
X146486800Y-87296610D02*
X146486800Y-87957010D01*
X145089800Y-87296610D02*
X146486800Y-87296610D01*
X145089800Y-87957010D02*
X145089800Y-87296610D01*
X146486800Y-87957010D02*
X145089800Y-87957010D01*
X146486800Y-88246494D02*
X146486800Y-88906894D01*
X145089800Y-88246494D02*
X146486800Y-88246494D01*
X145089800Y-88906894D02*
X145089800Y-88246494D01*
X146486800Y-88906894D02*
X145089800Y-88906894D01*
X146486800Y-89196505D02*
X146486800Y-89856905D01*
X145089800Y-89196505D02*
X146486800Y-89196505D01*
X145089800Y-89856905D02*
X145089800Y-89196505D01*
X146486800Y-89856905D02*
X145089800Y-89856905D01*
X143515000Y-88246494D02*
X143515000Y-88906894D01*
X142118000Y-88246494D02*
X143515000Y-88246494D01*
X142118000Y-88906894D02*
X142118000Y-88246494D01*
X143515000Y-88906894D02*
X142118000Y-88906894D01*
X167478097Y-91836555D02*
G75*
G02X166478081Y-91836533I-500008J11D01*
G01*
X166478081Y-91836532D02*
G75*
G02X167478097Y-91836556I500008J-12D01*
G01*
X170378091Y-91986543D02*
X170378091Y-91036532D01*
X172378087Y-91986543D02*
X170378091Y-91986543D01*
X172378087Y-91036532D02*
X172378087Y-91986543D01*
X167878096Y-91036532D02*
X167878096Y-103836557D01*
X174878082Y-91036532D02*
X167878096Y-91036532D01*
X174878082Y-103836557D02*
X174878082Y-91036532D01*
X167878096Y-103836557D02*
X174878082Y-103836557D01*
X174813096Y-93316550D02*
X174813096Y-92666539D01*
X176713092Y-93316550D02*
X174813096Y-93316550D01*
X176713092Y-92666539D02*
X176713092Y-93316550D01*
X174813096Y-92666539D02*
X176713092Y-92666539D01*
X174813096Y-94586550D02*
X174813096Y-93936539D01*
X176713092Y-94586550D02*
X174813096Y-94586550D01*
X176713092Y-93936539D02*
X176713092Y-94586550D01*
X174813096Y-93936539D02*
X176713092Y-93936539D01*
X174813096Y-95856550D02*
X174813096Y-95206539D01*
X176713092Y-95856550D02*
X174813096Y-95856550D01*
X176713092Y-95206539D02*
X176713092Y-95856550D01*
X174813096Y-95206539D02*
X176713092Y-95206539D01*
X174813096Y-97126550D02*
X174813096Y-96476539D01*
X176713092Y-97126550D02*
X174813096Y-97126550D01*
X176713092Y-96476539D02*
X176713092Y-97126550D01*
X174813096Y-96476539D02*
X176713092Y-96476539D01*
X174813096Y-98396550D02*
X174813096Y-97746539D01*
X176713092Y-98396550D02*
X174813096Y-98396550D01*
X176713092Y-97746539D02*
X176713092Y-98396550D01*
X174813096Y-97746539D02*
X176713092Y-97746539D01*
X174813096Y-99666550D02*
X174813096Y-99016539D01*
X176713092Y-99666550D02*
X174813096Y-99666550D01*
X176713092Y-99016539D02*
X176713092Y-99666550D01*
X174813096Y-99016539D02*
X176713092Y-99016539D01*
X174813096Y-100936550D02*
X174813096Y-100286539D01*
X176713092Y-100936550D02*
X174813096Y-100936550D01*
X176713092Y-100286539D02*
X176713092Y-100936550D01*
X174813096Y-100286539D02*
X176713092Y-100286539D01*
X174813096Y-102206550D02*
X174813096Y-101556539D01*
X176713092Y-102206550D02*
X174813096Y-102206550D01*
X176713092Y-101556539D02*
X176713092Y-102206550D01*
X174813096Y-101556539D02*
X176713092Y-101556539D01*
X166043085Y-102206550D02*
X166043085Y-101556539D01*
X167943082Y-102206550D02*
X166043085Y-102206550D01*
X167943082Y-101556539D02*
X167943082Y-102206550D01*
X166043085Y-101556539D02*
X167943082Y-101556539D01*
X166043085Y-100936550D02*
X166043085Y-100286539D01*
X167943082Y-100936550D02*
X166043085Y-100936550D01*
X167943082Y-100286539D02*
X167943082Y-100936550D01*
X166043085Y-100286539D02*
X167943082Y-100286539D01*
X166043085Y-99666550D02*
X166043085Y-99016539D01*
X167943082Y-99666550D02*
X166043085Y-99666550D01*
X167943082Y-99016539D02*
X167943082Y-99666550D01*
X166043085Y-99016539D02*
X167943082Y-99016539D01*
X166043085Y-98396550D02*
X166043085Y-97746539D01*
X167943082Y-98396550D02*
X166043085Y-98396550D01*
X167943082Y-97746539D02*
X167943082Y-98396550D01*
X166043085Y-97746539D02*
X167943082Y-97746539D01*
X166043085Y-97126550D02*
X166043085Y-96476539D01*
X167943082Y-97126550D02*
X166043085Y-97126550D01*
X167943082Y-96476539D02*
X167943082Y-97126550D01*
X166043085Y-96476539D02*
X167943082Y-96476539D01*
X166043085Y-95856550D02*
X166043085Y-95206539D01*
X167943082Y-95856550D02*
X166043085Y-95856550D01*
X167943082Y-95206539D02*
X167943082Y-95856550D01*
X166043085Y-95206539D02*
X167943082Y-95206539D01*
X166043085Y-94586550D02*
X166043085Y-93936539D01*
X167943082Y-94586550D02*
X166043085Y-94586550D01*
X167943082Y-93936539D02*
X167943082Y-94586550D01*
X166043085Y-93936539D02*
X167943082Y-93936539D01*
X166043085Y-93316550D02*
X166043085Y-92666539D01*
X167943082Y-93316550D02*
X166043085Y-93316550D01*
X167943082Y-92666539D02*
X167943082Y-93316550D01*
X166043085Y-92666539D02*
X167943082Y-92666539D01*
X192893413Y-103983166D02*
X177145413Y-103983166D01*
X192893413Y-87473166D02*
X192893413Y-103983166D01*
X177145413Y-87473166D02*
X192893413Y-87473166D01*
X177145413Y-103983166D02*
X177145413Y-87473166D01*
X180193413Y-103348166D02*
X180193413Y-102078166D01*
X179685413Y-102713166D02*
X180828413Y-102713166D01*
X180193413Y-91791166D02*
X180193413Y-90521166D01*
X179685413Y-91156166D02*
X180828413Y-91156166D01*
X185781413Y-92172166D02*
G75*
G03X185781413Y-92172166I-762000J0D01*
G01*
X184001406Y-93192154D02*
G75*
G03X184001406Y-93192154I-762000J0D01*
G01*
X185781413Y-94212167D02*
G75*
G03X185781413Y-94212167I-762000J0D01*
G01*
X184001406Y-95232155D02*
G75*
G03X184001406Y-95232155I-762000J0D01*
G01*
X185781413Y-96252168D02*
G75*
G03X185781413Y-96252168I-762000J0D01*
G01*
X184001406Y-97272156D02*
G75*
G03X184001406Y-97272156I-762000J0D01*
G01*
X185781413Y-98292143D02*
G75*
G03X185781413Y-98292143I-762000J0D01*
G01*
X184001406Y-99312157D02*
G75*
G03X184001406Y-99312157I-762000J0D01*
G01*
X179177413Y-88870166D02*
G75*
G03X179177413Y-88870166I-762000J0D01*
G01*
X179177413Y-91156166D02*
G75*
G03X179177413Y-91156166I-762000J0D01*
G01*
X179177413Y-100300166D02*
G75*
G03X179177413Y-100300166I-762000J0D01*
G01*
X179177413Y-102586166D02*
G75*
G03X179177413Y-102586166I-762000J0D01*
G01*
X185286113Y-103856166D02*
G75*
G03X185286113Y-103856166I-1155700J0D01*
G01*
X185286113Y-87600166D02*
G75*
G03X185286113Y-87600166I-1155700J0D01*
G01*
X189210413Y-89378166D02*
G75*
G03X189210413Y-89378166I-1651000J0D01*
G01*
X189210413Y-102078166D02*
G75*
G03X189210413Y-102078166I-1651000J0D01*
G01*
X184106232Y-105325200D02*
X185831222Y-105325200D01*
X184106232Y-107275209D02*
X184106232Y-105325200D01*
X185831222Y-107275209D02*
X184106232Y-107275209D01*
X188356211Y-107275209D02*
X186631221Y-107275209D01*
X188356211Y-105325200D02*
X188356211Y-107275209D01*
X186631221Y-105325200D02*
X188356211Y-105325200D01*
X185256217Y-107175209D02*
X184206206Y-107175209D01*
X185256217Y-105425200D02*
X185256217Y-107175209D01*
X184206206Y-105425200D02*
X185256217Y-105425200D01*
X184206206Y-107175209D02*
X184206206Y-105425200D01*
X188256211Y-107175209D02*
X187206200Y-107175209D01*
X188256211Y-105425200D02*
X188256211Y-107175209D01*
X187206200Y-105425200D02*
X188256211Y-105425200D01*
X187206200Y-107175209D02*
X187206200Y-105425200D01*
X183939964Y-107307010D02*
X182214973Y-107307010D01*
X183939964Y-105357001D02*
X183939964Y-107307010D01*
X182214973Y-105357001D02*
X183939964Y-105357001D01*
X179689985Y-105357001D02*
X181414975Y-105357001D01*
X179689985Y-107307010D02*
X179689985Y-105357001D01*
X181414975Y-107307010D02*
X179689985Y-107307010D01*
X182789966Y-105457001D02*
X183839977Y-105457001D01*
X182789966Y-107207010D02*
X182789966Y-105457001D01*
X183839977Y-107207010D02*
X182789966Y-107207010D01*
X183839977Y-105457001D02*
X183839977Y-107207010D01*
X179789972Y-105457001D02*
X180839983Y-105457001D01*
X179789972Y-107207010D02*
X179789972Y-105457001D01*
X180839983Y-107207010D02*
X179789972Y-107207010D01*
X180839983Y-105457001D02*
X180839983Y-107207010D01*
X146659088Y-118438255D02*
X147659086Y-117438257D01*
X146659088Y-116438259D02*
X146659088Y-118438255D01*
X147659086Y-117438257D02*
X146659088Y-116438259D01*
X149176152Y-118477422D02*
X149176152Y-113397422D01*
X182196152Y-118477422D02*
X149176152Y-118477422D01*
X182196152Y-113397422D02*
X182196152Y-118477422D01*
X149176152Y-113397422D02*
X182196152Y-113397422D01*
X151146151Y-114667422D02*
G75*
G03X151146151Y-114667422I-699999J0D01*
G01*
X151146151Y-117907420D02*
X149746153Y-117907420D01*
X151146151Y-116507423D02*
X151146151Y-117907420D01*
X149746153Y-116507423D02*
X151146151Y-116507423D01*
X149746153Y-117907420D02*
X149746153Y-116507423D01*
X153686151Y-117207422D02*
G75*
G03X153686151Y-117207422I-699999J0D01*
G01*
X153686151Y-114667422D02*
G75*
G03X153686151Y-114667422I-699999J0D01*
G01*
X156226151Y-117207422D02*
G75*
G03X156226151Y-117207422I-699999J0D01*
G01*
X156226151Y-114667422D02*
G75*
G03X156226151Y-114667422I-699999J0D01*
G01*
X158766151Y-117207422D02*
G75*
G03X158766151Y-117207422I-699999J0D01*
G01*
X158766151Y-114667422D02*
G75*
G03X158766151Y-114667422I-699999J0D01*
G01*
X161306151Y-117207422D02*
G75*
G03X161306151Y-117207422I-699999J0D01*
G01*
X161306151Y-114667422D02*
G75*
G03X161306151Y-114667422I-699999J0D01*
G01*
X163846151Y-117207422D02*
G75*
G03X163846151Y-117207422I-699999J0D01*
G01*
X163846151Y-114667422D02*
G75*
G03X163846151Y-114667422I-699999J0D01*
G01*
X166386151Y-117207422D02*
G75*
G03X166386151Y-117207422I-699999J0D01*
G01*
X166386151Y-114667422D02*
G75*
G03X166386151Y-114667422I-699999J0D01*
G01*
X168926151Y-117207422D02*
G75*
G03X168926151Y-117207422I-699999J0D01*
G01*
X168926151Y-114667422D02*
G75*
G03X168926151Y-114667422I-699999J0D01*
G01*
X171466151Y-117207422D02*
G75*
G03X171466151Y-117207422I-699999J0D01*
G01*
X171466151Y-114667422D02*
G75*
G03X171466151Y-114667422I-699999J0D01*
G01*
X174006151Y-117207422D02*
G75*
G03X174006151Y-117207422I-699999J0D01*
G01*
X174006151Y-114667422D02*
G75*
G03X174006151Y-114667422I-699999J0D01*
G01*
X176546151Y-117207422D02*
G75*
G03X176546151Y-117207422I-699999J0D01*
G01*
X176546151Y-114667422D02*
G75*
G03X176546151Y-114667422I-699999J0D01*
G01*
X179086151Y-117207422D02*
G75*
G03X179086151Y-117207422I-699999J0D01*
G01*
X179086151Y-114667422D02*
G75*
G03X179086151Y-114667422I-699999J0D01*
G01*
X181626151Y-117207422D02*
G75*
G03X181626151Y-117207422I-699999J0D01*
G01*
X181626151Y-114667422D02*
G75*
G03X181626151Y-114667422I-699999J0D01*
G01*
X183549286Y-73690059D02*
X182549288Y-74690057D01*
X183549286Y-75690055D02*
X183549286Y-73690059D01*
X182549288Y-74690057D02*
X183549286Y-75690055D01*
X149176152Y-75258814D02*
X149176152Y-72718814D01*
X182196152Y-75258814D02*
X149176152Y-75258814D01*
X182196152Y-72718814D02*
X182196152Y-75258814D01*
X149176152Y-72718814D02*
X182196152Y-72718814D01*
X180226153Y-73288815D02*
X181626151Y-73288815D01*
X180226153Y-74688812D02*
X180226153Y-73288815D01*
X181626151Y-74688812D02*
X180226153Y-74688812D01*
X181626151Y-73288815D02*
X181626151Y-74688812D01*
X179086151Y-73988814D02*
G75*
G03X179086151Y-73988814I-699999J0D01*
G01*
X176546151Y-73988814D02*
G75*
G03X176546151Y-73988814I-699999J0D01*
G01*
X174006151Y-73988814D02*
G75*
G03X174006151Y-73988814I-699999J0D01*
G01*
X171466151Y-73988814D02*
G75*
G03X171466151Y-73988814I-699999J0D01*
G01*
X168926151Y-73988814D02*
G75*
G03X168926151Y-73988814I-699999J0D01*
G01*
X166386151Y-73988814D02*
G75*
G03X166386151Y-73988814I-699999J0D01*
G01*
X163846151Y-73988814D02*
G75*
G03X163846151Y-73988814I-699999J0D01*
G01*
X161306151Y-73988814D02*
G75*
G03X161306151Y-73988814I-699999J0D01*
G01*
X158766151Y-73988814D02*
G75*
G03X158766151Y-73988814I-699999J0D01*
G01*
X156226151Y-73988814D02*
G75*
G03X156226151Y-73988814I-699999J0D01*
G01*
X153686151Y-73988814D02*
G75*
G03X153686151Y-73988814I-699999J0D01*
G01*
X151146151Y-73988814D02*
G75*
G03X151146151Y-73988814I-699999J0D01*
G01*
X168639334Y-112902223D02*
X168639334Y-112800623D01*
X171641512Y-112902223D02*
X168639334Y-112902223D01*
X171641512Y-112800623D02*
X171641512Y-112902223D01*
X171641512Y-109300402D02*
X171641512Y-109402002D01*
X168639334Y-109300402D02*
X171641512Y-109300402D01*
X168639334Y-109402002D02*
X168639334Y-109300402D01*
X170341134Y-111802302D02*
X170239534Y-110600907D01*
X170239534Y-110400323D02*
X170341134Y-111802302D01*
X170041312Y-111802302D02*
X170239534Y-110400323D01*
X169939712Y-110400323D02*
X170041312Y-111802302D01*
X170489673Y-109501113D02*
X171889162Y-109501113D01*
X170489673Y-112701513D02*
X170489673Y-109501113D01*
X171889162Y-112701513D02*
X170489673Y-112701513D01*
X171889162Y-109501113D02*
X171889162Y-112701513D01*
X168391684Y-109501113D02*
X169791173Y-109501113D01*
X168391684Y-112701513D02*
X168391684Y-109501113D01*
X169791173Y-112701513D02*
X168391684Y-112701513D01*
X169791173Y-109501113D02*
X169791173Y-112701513D01*
X154002711Y-79694416D02*
X154002711Y-79592816D01*
X157004889Y-79694416D02*
X154002711Y-79694416D01*
X157004889Y-79592816D02*
X157004889Y-79694416D01*
X157004889Y-76092594D02*
X157004889Y-76194194D01*
X154002711Y-76092594D02*
X157004889Y-76092594D01*
X154002711Y-76194194D02*
X154002711Y-76092594D01*
X155704511Y-78594494D02*
X155602911Y-77393100D01*
X155602911Y-77192516D02*
X155704511Y-78594494D01*
X155404689Y-78594494D02*
X155602911Y-77192516D01*
X155303089Y-77192516D02*
X155404689Y-78594494D01*
X155853050Y-76293305D02*
X157252539Y-76293305D01*
X155853050Y-79493705D02*
X155853050Y-76293305D01*
X157252539Y-79493705D02*
X155853050Y-79493705D01*
X157252539Y-76293305D02*
X157252539Y-79493705D01*
X153755061Y-76293305D02*
X155154550Y-76293305D01*
X153755061Y-79493705D02*
X153755061Y-76293305D01*
X155154550Y-79493705D02*
X153755061Y-79493705D01*
X155154550Y-76293305D02*
X155154550Y-79493705D01*
X152580311Y-112917616D02*
X152580311Y-112816016D01*
X155582489Y-112917616D02*
X152580311Y-112917616D01*
X155582489Y-112816016D02*
X155582489Y-112917616D01*
X155582489Y-109315794D02*
X155582489Y-109417394D01*
X152580311Y-109315794D02*
X155582489Y-109315794D01*
X152580311Y-109417394D02*
X152580311Y-109315794D01*
X154282111Y-111817694D02*
X154180511Y-110616300D01*
X154180511Y-110415716D02*
X154282111Y-111817694D01*
X153982289Y-111817694D02*
X154180511Y-110415716D01*
X153880689Y-110415716D02*
X153982289Y-111817694D01*
X154430650Y-109516505D02*
X155830139Y-109516505D01*
X154430650Y-112716905D02*
X154430650Y-109516505D01*
X155830139Y-112716905D02*
X154430650Y-112716905D01*
X155830139Y-109516505D02*
X155830139Y-112716905D01*
X152332661Y-109516505D02*
X153732150Y-109516505D01*
X152332661Y-112716905D02*
X152332661Y-109516505D01*
X153732150Y-112716905D02*
X152332661Y-112716905D01*
X153732150Y-109516505D02*
X153732150Y-112716905D01*
X172321813Y-79896828D02*
X172321813Y-78896830D01*
X173371824Y-79896828D02*
X172321813Y-79896828D01*
X173371824Y-78896830D02*
X173371824Y-79896828D01*
X172321813Y-78896830D02*
X173371824Y-78896830D01*
X173821823Y-78769729D02*
X173821823Y-76769733D01*
X174821821Y-78769729D02*
X173821823Y-78769729D01*
X174821821Y-76769733D02*
X174821821Y-78769729D01*
X173821823Y-76769733D02*
X174821821Y-76769733D01*
X170871816Y-78769729D02*
X170871816Y-76769733D01*
X171871814Y-78769729D02*
X170871816Y-78769729D01*
X171871814Y-76769733D02*
X171871814Y-78769729D01*
X170871816Y-76769733D02*
X171871814Y-76769733D01*
X173565791Y-84622041D02*
X174865814Y-84622041D01*
X173565791Y-87472023D02*
X173565791Y-84622041D01*
X174865814Y-87472023D02*
X173565791Y-87472023D01*
X174865814Y-84622041D02*
X174865814Y-87472023D01*
X173740797Y-85597020D02*
X173740797Y-84797022D01*
X174690808Y-85597020D02*
X173740797Y-85597020D01*
X174690808Y-84797022D02*
X174690808Y-85597020D01*
X173740797Y-84797022D02*
X174690808Y-84797022D01*
X173740797Y-87297042D02*
X173740797Y-86497044D01*
X174690808Y-87297042D02*
X173740797Y-87297042D01*
X174690808Y-86497044D02*
X174690808Y-87297042D01*
X173740797Y-86497044D02*
X174690808Y-86497044D01*
X173382809Y-87464149D02*
X172082786Y-87464149D01*
X173382809Y-84614167D02*
X173382809Y-87464149D01*
X172082786Y-84614167D02*
X173382809Y-84614167D01*
X172082786Y-87464149D02*
X172082786Y-84614167D01*
X173207803Y-86489170D02*
X173207803Y-87289168D01*
X172257792Y-86489170D02*
X173207803Y-86489170D01*
X172257792Y-87289168D02*
X172257792Y-86489170D01*
X173207803Y-87289168D02*
X172257792Y-87289168D01*
X173207803Y-84789148D02*
X173207803Y-85589146D01*
X172257792Y-84789148D02*
X173207803Y-84789148D01*
X172257792Y-85589146D02*
X172257792Y-84789148D01*
X173207803Y-85589146D02*
X172257792Y-85589146D01*
X174322203Y-82020548D02*
X173422179Y-82020548D01*
X174322203Y-80220551D02*
X174322203Y-82020548D01*
X173422179Y-80220551D02*
X174322203Y-80220551D01*
X173422179Y-82020548D02*
X173422179Y-80220551D01*
X174192193Y-81315558D02*
X174192193Y-81885559D01*
X173552189Y-81315558D02*
X174192193Y-81315558D01*
X173552189Y-81885559D02*
X173552189Y-81315558D01*
X174192193Y-81885559D02*
X173552189Y-81885559D01*
X174192193Y-80355540D02*
X174192193Y-80925541D01*
X173552189Y-80355540D02*
X174192193Y-80355540D01*
X173552189Y-80925541D02*
X173552189Y-80355540D01*
X174192193Y-80925541D02*
X173552189Y-80925541D01*
X170989290Y-81093371D02*
G75*
G02X170288136Y-81093385I-350577J-7D01*
G01*
X170288135Y-81093384D02*
G75*
G02X170989291Y-81093372I350578J6D01*
G01*
X165592909Y-87253329D02*
X165592909Y-86753330D01*
X166092908Y-87253329D02*
X165592909Y-87253329D01*
X171010932Y-81532182D02*
X170760920Y-81532182D01*
X171260893Y-81782169D02*
X171010932Y-81532182D01*
X171260919Y-82032206D02*
X171260893Y-81782169D01*
X170106946Y-81489027D02*
X170306844Y-81489027D01*
X170106946Y-82394537D02*
X170106946Y-81489027D01*
X170306844Y-82394537D02*
X170106946Y-82394537D01*
X170306844Y-81489027D02*
X170306844Y-82394537D01*
X169706947Y-81489027D02*
X169906845Y-81489027D01*
X169706947Y-82394537D02*
X169706947Y-81489027D01*
X169906845Y-82394537D02*
X169706947Y-82394537D01*
X169906845Y-81489027D02*
X169906845Y-82394537D01*
X169306947Y-81489027D02*
X169506845Y-81489027D01*
X169306947Y-82394537D02*
X169306947Y-81489027D01*
X169506845Y-82394537D02*
X169306947Y-82394537D01*
X169506845Y-81489027D02*
X169506845Y-82394537D01*
X168906948Y-81489027D02*
X169106846Y-81489027D01*
X168906948Y-82394537D02*
X168906948Y-81489027D01*
X169106846Y-82394537D02*
X168906948Y-82394537D01*
X169106846Y-81489027D02*
X169106846Y-82394537D01*
X168506949Y-81489027D02*
X168706847Y-81489027D01*
X168506949Y-82394537D02*
X168506949Y-81489027D01*
X168706847Y-82394537D02*
X168506949Y-82394537D01*
X168706847Y-81489027D02*
X168706847Y-82394537D01*
X168106950Y-81489027D02*
X168306848Y-81489027D01*
X168106950Y-82394537D02*
X168106950Y-81489027D01*
X168306848Y-82394537D02*
X168106950Y-82394537D01*
X168306848Y-81489027D02*
X168306848Y-82394537D01*
X167706951Y-81489027D02*
X167906849Y-81489027D01*
X167706951Y-82394537D02*
X167706951Y-81489027D01*
X167906849Y-82394537D02*
X167706951Y-82394537D01*
X167906849Y-81489027D02*
X167906849Y-82394537D01*
X167306951Y-81489027D02*
X167506849Y-81489027D01*
X167306951Y-82394537D02*
X167306951Y-81489027D01*
X167506849Y-82394537D02*
X167306951Y-82394537D01*
X167506849Y-81489027D02*
X167506849Y-82394537D01*
X166906952Y-81489027D02*
X167106850Y-81489027D01*
X166906952Y-82394537D02*
X166906952Y-81489027D01*
X167106850Y-82394537D02*
X166906952Y-82394537D01*
X167106850Y-81489027D02*
X167106850Y-82394537D01*
X166506953Y-81489027D02*
X166706851Y-81489027D01*
X166506953Y-82394537D02*
X166506953Y-81489027D01*
X166706851Y-82394537D02*
X166506953Y-82394537D01*
X166706851Y-81489027D02*
X166706851Y-82394537D01*
X165476272Y-82719657D02*
X165476272Y-82519759D01*
X166381782Y-82719657D02*
X165476272Y-82719657D01*
X166381782Y-82519759D02*
X166381782Y-82719657D01*
X165476272Y-82519759D02*
X166381782Y-82519759D01*
X165476272Y-83119453D02*
X165476272Y-82919555D01*
X166381782Y-83119453D02*
X165476272Y-83119453D01*
X166381782Y-82919555D02*
X166381782Y-83119453D01*
X165476272Y-82919555D02*
X166381782Y-82919555D01*
X165476272Y-83519503D02*
X165476272Y-83319605D01*
X166381782Y-83519503D02*
X165476272Y-83519503D01*
X166381782Y-83319605D02*
X166381782Y-83519503D01*
X165476272Y-83319605D02*
X166381782Y-83319605D01*
X165476272Y-83919553D02*
X165476272Y-83719655D01*
X166381782Y-83919553D02*
X165476272Y-83919553D01*
X166381782Y-83719655D02*
X166381782Y-83919553D01*
X165476272Y-83719655D02*
X166381782Y-83719655D01*
X165476272Y-84319603D02*
X165476272Y-84119705D01*
X166381782Y-84319603D02*
X165476272Y-84319603D01*
X166381782Y-84119705D02*
X166381782Y-84319603D01*
X165476272Y-84119705D02*
X166381782Y-84119705D01*
X165476272Y-84719653D02*
X165476272Y-84519755D01*
X166381782Y-84719653D02*
X165476272Y-84719653D01*
X166381782Y-84519755D02*
X166381782Y-84719653D01*
X165476272Y-84519755D02*
X166381782Y-84519755D01*
X165476272Y-85119449D02*
X165476272Y-84919551D01*
X166381782Y-85119449D02*
X165476272Y-85119449D01*
X166381782Y-84919551D02*
X166381782Y-85119449D01*
X165476272Y-84919551D02*
X166381782Y-84919551D01*
X165476272Y-85519499D02*
X165476272Y-85319601D01*
X166381782Y-85519499D02*
X165476272Y-85519499D01*
X166381782Y-85319601D02*
X166381782Y-85519499D01*
X165476272Y-85319601D02*
X166381782Y-85319601D01*
X165476272Y-85919549D02*
X165476272Y-85719651D01*
X166381782Y-85919549D02*
X165476272Y-85919549D01*
X166381782Y-85719651D02*
X166381782Y-85919549D01*
X165476272Y-85719651D02*
X166381782Y-85719651D01*
X165476272Y-86319599D02*
X165476272Y-86119701D01*
X166381782Y-86319599D02*
X165476272Y-86319599D01*
X166381782Y-86119701D02*
X166381782Y-86319599D01*
X165476272Y-86119701D02*
X166381782Y-86119701D01*
X166706902Y-87350077D02*
X166507004Y-87350077D01*
X166706902Y-86444567D02*
X166706902Y-87350077D01*
X166507004Y-86444567D02*
X166706902Y-86444567D01*
X166507004Y-87350077D02*
X166507004Y-86444567D01*
X167106952Y-87350077D02*
X166907054Y-87350077D01*
X167106952Y-86444567D02*
X167106952Y-87350077D01*
X166907054Y-86444567D02*
X167106952Y-86444567D01*
X166907054Y-87350077D02*
X166907054Y-86444567D01*
X167506748Y-87350077D02*
X167306850Y-87350077D01*
X167506748Y-86444567D02*
X167506748Y-87350077D01*
X167306850Y-86444567D02*
X167506748Y-86444567D01*
X167306850Y-87350077D02*
X167306850Y-86444567D01*
X167906798Y-87350077D02*
X167706900Y-87350077D01*
X167906798Y-86444567D02*
X167906798Y-87350077D01*
X167706900Y-86444567D02*
X167906798Y-86444567D01*
X167706900Y-87350077D02*
X167706900Y-86444567D01*
X168306848Y-87350077D02*
X168106950Y-87350077D01*
X168306848Y-86444567D02*
X168306848Y-87350077D01*
X168106950Y-86444567D02*
X168306848Y-86444567D01*
X168106950Y-87350077D02*
X168106950Y-86444567D01*
X168706898Y-87350077D02*
X168507000Y-87350077D01*
X168706898Y-86444567D02*
X168706898Y-87350077D01*
X168507000Y-86444567D02*
X168706898Y-86444567D01*
X168507000Y-87350077D02*
X168507000Y-86444567D01*
X169106948Y-87350077D02*
X168907050Y-87350077D01*
X169106948Y-86444567D02*
X169106948Y-87350077D01*
X168907050Y-86444567D02*
X169106948Y-86444567D01*
X168907050Y-87350077D02*
X168907050Y-86444567D01*
X169506744Y-87350077D02*
X169306846Y-87350077D01*
X169506744Y-86444567D02*
X169506744Y-87350077D01*
X169306846Y-86444567D02*
X169506744Y-86444567D01*
X169306846Y-87350077D02*
X169306846Y-86444567D01*
X169906794Y-87350077D02*
X169706896Y-87350077D01*
X169906794Y-86444567D02*
X169906794Y-87350077D01*
X169706896Y-86444567D02*
X169906794Y-86444567D01*
X169706896Y-87350077D02*
X169706896Y-86444567D01*
X170306844Y-87350077D02*
X170106946Y-87350077D01*
X170306844Y-86444567D02*
X170306844Y-87350077D01*
X170106946Y-86444567D02*
X170306844Y-86444567D01*
X170106946Y-87350077D02*
X170106946Y-86444567D01*
X171337576Y-86119701D02*
X171337576Y-86319599D01*
X170432066Y-86119701D02*
X171337576Y-86119701D01*
X170432066Y-86319599D02*
X170432066Y-86119701D01*
X171337576Y-86319599D02*
X170432066Y-86319599D01*
X171337576Y-85719651D02*
X171337576Y-85919549D01*
X170432066Y-85719651D02*
X171337576Y-85719651D01*
X170432066Y-85919549D02*
X170432066Y-85719651D01*
X171337576Y-85919549D02*
X170432066Y-85919549D01*
X171337576Y-85319601D02*
X171337576Y-85519499D01*
X170432066Y-85319601D02*
X171337576Y-85319601D01*
X170432066Y-85519499D02*
X170432066Y-85319601D01*
X171337576Y-85519499D02*
X170432066Y-85519499D01*
X171337576Y-84919551D02*
X171337576Y-85119449D01*
X170432066Y-84919551D02*
X171337576Y-84919551D01*
X170432066Y-85119449D02*
X170432066Y-84919551D01*
X171337576Y-85119449D02*
X170432066Y-85119449D01*
X171337576Y-84519755D02*
X171337576Y-84719653D01*
X170432066Y-84519755D02*
X171337576Y-84519755D01*
X170432066Y-84719653D02*
X170432066Y-84519755D01*
X171337576Y-84719653D02*
X170432066Y-84719653D01*
X171337576Y-84119705D02*
X171337576Y-84319603D01*
X170432066Y-84119705D02*
X171337576Y-84119705D01*
X170432066Y-84319603D02*
X170432066Y-84119705D01*
X171337576Y-84319603D02*
X170432066Y-84319603D01*
X171337576Y-83719655D02*
X171337576Y-83919553D01*
X170432066Y-83719655D02*
X171337576Y-83719655D01*
X170432066Y-83919553D02*
X170432066Y-83719655D01*
X171337576Y-83919553D02*
X170432066Y-83919553D01*
X171337576Y-83319605D02*
X171337576Y-83519503D01*
X170432066Y-83319605D02*
X171337576Y-83319605D01*
X170432066Y-83519503D02*
X170432066Y-83319605D01*
X171337576Y-83519503D02*
X170432066Y-83519503D01*
X171337576Y-82919555D02*
X171337576Y-83119453D01*
X170432066Y-82919555D02*
X171337576Y-82919555D01*
X170432066Y-83119453D02*
X170432066Y-82919555D01*
X171337576Y-83119453D02*
X170432066Y-83119453D01*
X171337576Y-82519759D02*
X171337576Y-82719657D01*
X170432066Y-82519759D02*
X171337576Y-82519759D01*
X170432066Y-82719657D02*
X170432066Y-82519759D01*
X171337576Y-82719657D02*
X170432066Y-82719657D01*
X166756813Y-82769568D02*
X170056781Y-82769568D01*
X166756813Y-86069536D02*
X166756813Y-82769568D01*
X170056781Y-86069536D02*
X166756813Y-86069536D01*
X170056781Y-82769568D02*
X170056781Y-86069536D01*
X178893441Y-84875711D02*
X178893441Y-79005720D01*
X192893413Y-84875711D02*
X178893441Y-84875711D01*
X192893413Y-79005720D02*
X192893413Y-84875711D01*
X178893441Y-79005720D02*
X192893413Y-79005720D01*
X186743426Y-81440717D02*
G75*
G02X189243420Y-81440717I1249997J0D01*
G01*
X186743425Y-82440715D02*
X186743425Y-81440717D01*
X189243421Y-82440715D02*
G75*
G02X186743425Y-82440715I-1249998J0D01*
G01*
X189243420Y-81440717D02*
X189243420Y-82440715D01*
X182527444Y-78174708D02*
G75*
G02X182527444Y-80206708I0J-1016000D01*
G01*
X182159449Y-78174708D02*
X182527444Y-78174708D01*
X182159449Y-80206708D02*
G75*
G02X182159449Y-78174708I0J1016000D01*
G01*
X182527444Y-80206708D02*
X182159449Y-80206708D01*
X182527444Y-83674723D02*
G75*
G02X182527444Y-85706723I0J-1016000D01*
G01*
X182159449Y-83674723D02*
X182527444Y-83674723D01*
X182159449Y-85706723D02*
G75*
G02X182159449Y-83674723I0J1016000D01*
G01*
X182527444Y-85706723D02*
X182159449Y-85706723D01*
X180927651Y-79840720D02*
G75*
G03X180927651Y-79840720I-584200J0D01*
G01*
X180927651Y-81240717D02*
G75*
G03X180927651Y-81240717I-584200J0D01*
G01*
X180927651Y-82640714D02*
G75*
G03X180927651Y-82640714I-584200J0D01*
G01*
X180927651Y-84040711D02*
G75*
G03X180927651Y-84040711I-584200J0D01*
G01*
X189660196Y-107789305D02*
X189660196Y-110329305D01*
X182040196Y-107789305D02*
X189660196Y-107789305D01*
X182040196Y-110329305D02*
X182040196Y-107789305D01*
X189660196Y-110329305D02*
X182040196Y-110329305D01*
X187690197Y-108359306D02*
X189090195Y-108359306D01*
X187690197Y-109759304D02*
X187690197Y-108359306D01*
X189090195Y-109759304D02*
X187690197Y-109759304D01*
X189090195Y-108359306D02*
X189090195Y-109759304D01*
X186550195Y-109059305D02*
G75*
G03X186550195Y-109059305I-699999J0D01*
G01*
X184010195Y-109059305D02*
G75*
G03X184010195Y-109059305I-699999J0D01*
G01*
X174510700Y-95902400D02*
X174010700Y-95402400D01*
X175010700Y-95402400D02*
X174510700Y-95902400D01*
X174510700Y-94902400D02*
X175010700Y-95402400D01*
X174010700Y-95402400D02*
X174510700Y-94902400D01*
X174510700Y-94902400D02*
X174510700Y-95902400D01*
X174010700Y-95402400D02*
X175010700Y-95402400D01*
X175010700Y-95902400D02*
X174010700Y-95902400D01*
X174510700Y-94902400D02*
X175010700Y-95902400D01*
X174010700Y-95902400D02*
X174510700Y-94902400D01*
X174094700Y-95777400D02*
X174010700Y-95527400D01*
X174260700Y-95902400D02*
X174094700Y-95777400D01*
X174760700Y-95902400D02*
X174260700Y-95902400D01*
X174926700Y-95777400D02*
X174760700Y-95902400D01*
X175010700Y-95527400D02*
X174926700Y-95777400D01*
X175010700Y-95277400D02*
X175010700Y-95527400D01*
X174926700Y-95027400D02*
X175010700Y-95277400D01*
X174760700Y-94902400D02*
X174926700Y-95027400D01*
X174260700Y-94902400D02*
X174760700Y-94902400D01*
X174094700Y-95027400D02*
X174260700Y-94902400D01*
X174010700Y-95277400D02*
X174094700Y-95027400D01*
X174010700Y-95527400D02*
X174010700Y-95277400D01*
X174303600Y-95902400D02*
X174010700Y-95609500D01*
X174717800Y-95902400D02*
X174303600Y-95902400D01*
X175010700Y-95609500D02*
X174717800Y-95902400D01*
X175010700Y-95195300D02*
X175010700Y-95609500D01*
X174717800Y-94902400D02*
X175010700Y-95195300D01*
X174303600Y-94902400D02*
X174717800Y-94902400D01*
X174010700Y-95195300D02*
X174303600Y-94902400D01*
X174010700Y-95609500D02*
X174010700Y-95195300D01*
X174260700Y-95902400D02*
X174010700Y-95402400D01*
X174760700Y-95902400D02*
X174260700Y-95902400D01*
X175010700Y-95402400D02*
X174760700Y-95902400D01*
X174760700Y-94902400D02*
X175010700Y-95402400D01*
X174260700Y-94902400D02*
X174760700Y-94902400D01*
X174010700Y-95402400D02*
X174260700Y-94902400D01*
X175010700Y-95902400D02*
X174010700Y-95902400D01*
X175010700Y-94902400D02*
X175010700Y-95902400D01*
X174010700Y-94902400D02*
X175010700Y-94902400D01*
X174010700Y-95902400D02*
X174010700Y-94902400D01*
X175010700Y-95402400D02*
G75*
G03X175010700Y-95402400I-500000J0D01*
G01*
X186741609Y-74777400D02*
X186741609Y-64152400D01*
X144630695Y-74777400D02*
X144630695Y-64152400D01*
X160829009Y-62991686D02*
X160829009Y-64658352D01*
X160352819Y-62039305D02*
X159876628Y-63825019D01*
X161114724Y-63825019D01*
X161781390Y-62396448D02*
X161876628Y-62277400D01*
X162067105Y-62158352D01*
X162543295Y-62158352D01*
X162733771Y-62277400D01*
X162829009Y-62396448D01*
X162924248Y-62634543D01*
X162924248Y-62872638D01*
X162829009Y-63229781D01*
X161686152Y-64658352D01*
X162924248Y-64658352D01*
X163781390Y-64420257D02*
X163876629Y-64539305D01*
X163781390Y-64658352D01*
X163686152Y-64539305D01*
X163781390Y-64420257D01*
X163781390Y-64658352D01*
X165781391Y-64658352D02*
X164638533Y-64658352D01*
X165209962Y-64658352D02*
X165209962Y-62158352D01*
X165019486Y-62515495D01*
X164829010Y-62753590D01*
X164638533Y-62872638D01*
X167686153Y-64658352D02*
X166543295Y-64658352D01*
X167114724Y-64658352D02*
X167114724Y-62158352D01*
X166924248Y-62515495D01*
X166733772Y-62753590D01*
X166543295Y-62872638D01*
X168924248Y-62158352D02*
X169114724Y-62158352D01*
X169305200Y-62277400D01*
X169400438Y-62396448D01*
X169495676Y-62634543D01*
X169590915Y-63110733D01*
X169590915Y-63705971D01*
X169495676Y-64182162D01*
X169400438Y-64420257D01*
X169305200Y-64539305D01*
X169114724Y-64658352D01*
X168924248Y-64658352D01*
X168733772Y-64539305D01*
X168638534Y-64420257D01*
X168543295Y-64182162D01*
X168448057Y-63705971D01*
X168448057Y-63110733D01*
X168543295Y-62634543D01*
X168638534Y-62396448D01*
X168733772Y-62277400D01*
X168924248Y-62158352D01*
X170543296Y-64658352D02*
X170924248Y-64658352D01*
X171114724Y-64539305D01*
X171209962Y-64420257D01*
X171400438Y-64063114D01*
X171495677Y-63586924D01*
X171495677Y-62634543D01*
X171400438Y-62396448D01*
X171305200Y-62277400D01*
X171114724Y-62158352D01*
X170733772Y-62158352D01*
X170543296Y-62277400D01*
X170448057Y-62396448D01*
X170352819Y-62634543D01*
X170352819Y-63229781D01*
X170448057Y-63467876D01*
X170543296Y-63586924D01*
X170733772Y-63705971D01*
X171114724Y-63705971D01*
X171305200Y-63586924D01*
X171400438Y-63467876D01*
X171495677Y-63229781D01*
X144630695Y-65402400D02*
X186741609Y-65402400D01*
X144005695Y-115513318D02*
X133260700Y-115513318D01*
X143885700Y-75402400D02*
X133260700Y-75402400D01*
X132099986Y-100315002D02*
X133766652Y-100315002D01*
X131147605Y-100791192D02*
X132933319Y-101267383D01*
X132933319Y-100029287D01*
X131266652Y-98886430D02*
X131266652Y-98695954D01*
X131385700Y-98505478D01*
X131504748Y-98410240D01*
X131742843Y-98315002D01*
X132219033Y-98219763D01*
X132814271Y-98219763D01*
X133290462Y-98315002D01*
X133528557Y-98410240D01*
X133647605Y-98505478D01*
X133766652Y-98695954D01*
X133766652Y-98886430D01*
X133647605Y-99076906D01*
X133528557Y-99172144D01*
X133290462Y-99267383D01*
X132814271Y-99362621D01*
X132219033Y-99362621D01*
X131742843Y-99267383D01*
X131504748Y-99172144D01*
X131385700Y-99076906D01*
X131266652Y-98886430D01*
X133528557Y-97362621D02*
X133647605Y-97267382D01*
X133766652Y-97362621D01*
X133647605Y-97457859D01*
X133528557Y-97362621D01*
X133766652Y-97362621D01*
X133766652Y-95362620D02*
X133766652Y-96505478D01*
X133766652Y-95934049D02*
X131266652Y-95934049D01*
X131623795Y-96124525D01*
X131861890Y-96315001D01*
X131980938Y-96505478D01*
X133766652Y-93457858D02*
X133766652Y-94600716D01*
X133766652Y-94029287D02*
X131266652Y-94029287D01*
X131623795Y-94219763D01*
X131861890Y-94410239D01*
X131980938Y-94600716D01*
X131266652Y-92219763D02*
X131266652Y-92029287D01*
X131385700Y-91838811D01*
X131504748Y-91743573D01*
X131742843Y-91648335D01*
X132219033Y-91553096D01*
X132814271Y-91553096D01*
X133290462Y-91648335D01*
X133528557Y-91743573D01*
X133647605Y-91838811D01*
X133766652Y-92029287D01*
X133766652Y-92219763D01*
X133647605Y-92410239D01*
X133528557Y-92505477D01*
X133290462Y-92600716D01*
X132814271Y-92695954D01*
X132219033Y-92695954D01*
X131742843Y-92600716D01*
X131504748Y-92505477D01*
X131385700Y-92410239D01*
X131266652Y-92219763D01*
X133766652Y-90600715D02*
X133766652Y-90219763D01*
X133647605Y-90029287D01*
X133528557Y-89934049D01*
X133171414Y-89743573D01*
X132695224Y-89648334D01*
X131742843Y-89648334D01*
X131504748Y-89743573D01*
X131385700Y-89838811D01*
X131266652Y-90029287D01*
X131266652Y-90410239D01*
X131385700Y-90600715D01*
X131504748Y-90695954D01*
X131742843Y-90791192D01*
X132338081Y-90791192D01*
X132576176Y-90695954D01*
X132695224Y-90600715D01*
X132814271Y-90410239D01*
X132814271Y-90029287D01*
X132695224Y-89838811D01*
X132576176Y-89743573D01*
X132338081Y-89648334D01*
X134510700Y-75402400D02*
X134510700Y-115513318D01*
M02*
