G04 #@! TF.FileFunction,Copper,L2,Bot,Signal*
%FSLAX46Y46*%
G04 Gerber Fmt 4.6, Leading zero omitted, Abs format (unit mm)*
G04 Created by KiCad (PCBNEW 4.0.5-e0-6337~49~ubuntu16.04.1) date Thu Jan 26 21:30:25 2017*
%MOMM*%
%LPD*%
G01*
G04 APERTURE LIST*
%ADD10C,0.100000*%
%ADD11R,2.200000X1.000000*%
%ADD12C,1.000000*%
%ADD13R,1.727200X1.727200*%
%ADD14O,1.727200X1.727200*%
%ADD15R,1.800000X1.800000*%
%ADD16C,1.800000*%
%ADD17C,1.400000*%
%ADD18O,1.400000X1.400000*%
%ADD19R,1.700000X1.700000*%
%ADD20O,1.700000X1.700000*%
%ADD21C,3.800000*%
%ADD22C,0.600000*%
%ADD23C,0.250000*%
G04 APERTURE END LIST*
D10*
D11*
X190040000Y-113920000D03*
D12*
X184990000Y-108670000D03*
X186190000Y-109470000D03*
X184990000Y-110270000D03*
X186190000Y-111070000D03*
X184990000Y-111870000D03*
D11*
X190040000Y-106620000D03*
D13*
X150456900Y-117221000D03*
D14*
X150456900Y-114681000D03*
X152996900Y-117221000D03*
X152996900Y-114681000D03*
X155536900Y-117221000D03*
X155536900Y-114681000D03*
X158076900Y-117221000D03*
X158076900Y-114681000D03*
X160616900Y-117221000D03*
X160616900Y-114681000D03*
X163156900Y-117221000D03*
X163156900Y-114681000D03*
X165696900Y-117221000D03*
X165696900Y-114681000D03*
X168236900Y-117221000D03*
X168236900Y-114681000D03*
X170776900Y-117221000D03*
X170776900Y-114681000D03*
X173316900Y-117221000D03*
X173316900Y-114681000D03*
X175856900Y-117221000D03*
X175856900Y-114681000D03*
X178396900Y-117221000D03*
X178396900Y-114681000D03*
X180936900Y-117221000D03*
X180936900Y-114681000D03*
D15*
X132300000Y-98880000D03*
D16*
X134840000Y-98880000D03*
X139920000Y-98880000D03*
X142460000Y-98880000D03*
X145000000Y-98880000D03*
X147540000Y-98880000D03*
X150080000Y-98880000D03*
X150080000Y-91260000D03*
X147540000Y-91260000D03*
X145000000Y-91260000D03*
X142460000Y-91260000D03*
X139920000Y-91260000D03*
X137380000Y-91260000D03*
X134840000Y-91260000D03*
X132300000Y-91260000D03*
X137380000Y-98880000D03*
D17*
X155001200Y-123447200D03*
D18*
X162621200Y-123447200D03*
D17*
X155001200Y-126047200D03*
D18*
X162621200Y-126047200D03*
D17*
X155001200Y-131047200D03*
D18*
X162621200Y-131047200D03*
D17*
X155001200Y-128547200D03*
D18*
X162621200Y-128547200D03*
D15*
X153543200Y-90390000D03*
D16*
X156083200Y-90390000D03*
D15*
X163543200Y-90390000D03*
D16*
X166083200Y-90390000D03*
D15*
X163543200Y-100390000D03*
D16*
X166083200Y-100390000D03*
D15*
X153543200Y-100390000D03*
D16*
X156083200Y-100390000D03*
D19*
X125790000Y-107170000D03*
D20*
X125790000Y-104630000D03*
X125790000Y-102090000D03*
X125790000Y-99550000D03*
X125790000Y-97010000D03*
X125790000Y-94470000D03*
X125790000Y-91930000D03*
X125790000Y-89390000D03*
X125790000Y-86850000D03*
X125790000Y-84310000D03*
D19*
X180940000Y-73970000D03*
D20*
X178400000Y-73970000D03*
X175860000Y-73970000D03*
X173320000Y-73970000D03*
X170780000Y-73970000D03*
X168240000Y-73970000D03*
X165700000Y-73970000D03*
X163160000Y-73970000D03*
X160620000Y-73970000D03*
X158080000Y-73970000D03*
X155540000Y-73970000D03*
X153000000Y-73970000D03*
X150460000Y-73970000D03*
D21*
X189990000Y-114070000D03*
X189990000Y-106670000D03*
D22*
X167990000Y-119220000D03*
X153490000Y-106070000D03*
X144240000Y-95920000D03*
X145340000Y-94670000D03*
X154540000Y-106070000D03*
X164490000Y-105770000D03*
X160840000Y-103570000D03*
X154390000Y-120170000D03*
X161890000Y-110320000D03*
X158240000Y-106620000D03*
X158190000Y-103270000D03*
X158140000Y-100420000D03*
X164490000Y-110170000D03*
X157290000Y-105920000D03*
X157140000Y-103720000D03*
D23*
X180936900Y-117221000D02*
X180936900Y-116923100D01*
X180936900Y-116923100D02*
X184190000Y-113670000D01*
X184190000Y-113670000D02*
X184190000Y-111870000D01*
X179740000Y-110920000D02*
X183240000Y-110920000D01*
X184190000Y-111870000D02*
X184990000Y-111870000D01*
X183240000Y-110920000D02*
X184190000Y-111870000D01*
X179792400Y-110972400D02*
X179740000Y-110920000D01*
X179740000Y-110920000D02*
X171290000Y-102470000D01*
X171290000Y-102470000D02*
X161590000Y-102470000D01*
X153543200Y-100390000D02*
X151590000Y-100390000D01*
X151590000Y-100390000D02*
X150080000Y-98880000D01*
X163543200Y-100390000D02*
X163543200Y-100516800D01*
X163543200Y-100516800D02*
X161590000Y-102470000D01*
X155623200Y-102470000D02*
X153543200Y-100390000D01*
X161590000Y-102470000D02*
X155623200Y-102470000D01*
X153543200Y-90390000D02*
X153543200Y-89716800D01*
X153543200Y-89716800D02*
X154990000Y-88270000D01*
X161423200Y-88270000D02*
X163543200Y-90390000D01*
X154990000Y-88270000D02*
X161423200Y-88270000D01*
X147540000Y-91260000D02*
X147540000Y-86920000D01*
X147540000Y-86920000D02*
X146990000Y-86370000D01*
X134840000Y-91260000D02*
X134840000Y-87920000D01*
X149523200Y-86370000D02*
X153543200Y-90390000D01*
X136390000Y-86370000D02*
X146990000Y-86370000D01*
X146990000Y-86370000D02*
X149523200Y-86370000D01*
X134840000Y-87920000D02*
X136390000Y-86370000D01*
X127755600Y-84175600D02*
X134840000Y-91260000D01*
X126288800Y-84175600D02*
X127755600Y-84175600D01*
X155752800Y-84175600D02*
X126288800Y-84175600D01*
X162763200Y-77165200D02*
X155752800Y-84175600D01*
X175666400Y-77165200D02*
X162763200Y-77165200D01*
X178396900Y-74053700D02*
X178396900Y-74434700D01*
X178396900Y-74434700D02*
X175666400Y-77165200D01*
X126288800Y-107668800D02*
X126288800Y-108204000D01*
X126288800Y-108204000D02*
X135305800Y-117221000D01*
X135305800Y-117221000D02*
X150456900Y-117221000D01*
X126288800Y-107668800D02*
X125790000Y-107170000D01*
X150456900Y-117221000D02*
X150291800Y-117221000D01*
X158076900Y-117221000D02*
X158076900Y-117156900D01*
X158076900Y-117156900D02*
X156790000Y-115870000D01*
X129270000Y-99550000D02*
X125790000Y-99550000D01*
X138540000Y-108820000D02*
X129270000Y-99550000D01*
X151739998Y-108820000D02*
X138540000Y-108820000D01*
X156790000Y-113870002D02*
X151739998Y-108820000D01*
X156790000Y-115870000D02*
X156790000Y-113870002D01*
X171217900Y-119320000D02*
X173316900Y-117221000D01*
X168090000Y-119320000D02*
X171217900Y-119320000D01*
X167990000Y-119220000D02*
X168090000Y-119320000D01*
X153490000Y-106070000D02*
X147740000Y-100320000D01*
X147740000Y-100320000D02*
X147090000Y-100320000D01*
X147090000Y-100320000D02*
X146240000Y-99470000D01*
X146240000Y-99470000D02*
X146240000Y-97820000D01*
X146240000Y-97820000D02*
X144340000Y-95920000D01*
X144340000Y-95920000D02*
X144240000Y-95920000D01*
X145340000Y-94670000D02*
X142460000Y-91790000D01*
X142460000Y-91790000D02*
X142460000Y-91260000D01*
X137380000Y-91260000D02*
X137380000Y-91710000D01*
X137380000Y-91710000D02*
X138940000Y-93270000D01*
X148840000Y-100370000D02*
X154540000Y-106070000D01*
X148840000Y-98320000D02*
X148840000Y-100370000D01*
X147640000Y-97120000D02*
X148840000Y-98320000D01*
X146440000Y-97120000D02*
X147640000Y-97120000D01*
X142590000Y-93270000D02*
X146440000Y-97120000D01*
X138940000Y-93270000D02*
X142590000Y-93270000D01*
X126288800Y-86715600D02*
X127335600Y-86715600D01*
X127335600Y-86715600D02*
X130890000Y-90270000D01*
X130890000Y-90270000D02*
X130890000Y-91670000D01*
X130890000Y-91670000D02*
X132990000Y-93770000D01*
X132990000Y-93770000D02*
X139890000Y-93770000D01*
X139890000Y-93770000D02*
X145000000Y-98880000D01*
X126288800Y-89255600D02*
X129125598Y-89255600D01*
X129125598Y-89255600D02*
X130390000Y-90520002D01*
X130390000Y-90520002D02*
X130390000Y-91870000D01*
X130390000Y-91870000D02*
X132990000Y-94470000D01*
X132990000Y-94470000D02*
X138050000Y-94470000D01*
X138050000Y-94470000D02*
X142460000Y-98880000D01*
X126288800Y-91795600D02*
X129515600Y-91795600D01*
X129515600Y-91795600D02*
X132890000Y-95170000D01*
X132890000Y-95170000D02*
X136210000Y-95170000D01*
X136210000Y-95170000D02*
X139920000Y-98880000D01*
X126288800Y-94335600D02*
X131055600Y-94335600D01*
X131055600Y-94335600D02*
X132690000Y-95970000D01*
X132690000Y-95970000D02*
X134470000Y-95970000D01*
X137380000Y-98880000D02*
X137380000Y-103060000D01*
X180936900Y-113416900D02*
X180936900Y-114681000D01*
X174790000Y-107270000D02*
X180936900Y-113416900D01*
X141590000Y-107270000D02*
X174790000Y-107270000D01*
X137380000Y-103060000D02*
X141590000Y-107270000D01*
X134470000Y-95970000D02*
X137380000Y-98880000D01*
X164490000Y-105770000D02*
X164440000Y-105720000D01*
X164440000Y-105720000D02*
X162990000Y-105720000D01*
X162990000Y-105720000D02*
X160840000Y-103570000D01*
X134840000Y-98880000D02*
X134840000Y-101420000D01*
X179690000Y-115927900D02*
X178396900Y-117221000D01*
X179690000Y-113770000D02*
X179690000Y-115927900D01*
X173690000Y-107770000D02*
X179690000Y-113770000D01*
X141190000Y-107770000D02*
X173690000Y-107770000D01*
X134840000Y-101420000D02*
X141190000Y-107770000D01*
X132300000Y-98880000D02*
X132300000Y-99680000D01*
X132300000Y-99680000D02*
X140890000Y-108270000D01*
X140890000Y-108270000D02*
X171985900Y-108270000D01*
X171985900Y-108270000D02*
X178396900Y-114681000D01*
X184990000Y-108670000D02*
X184092400Y-107772400D01*
X178920600Y-76070000D02*
X180936900Y-74053700D01*
X177890000Y-76070000D02*
X178920600Y-76070000D01*
X176090000Y-77870000D02*
X177890000Y-76070000D01*
X176090000Y-104970000D02*
X176090000Y-77870000D01*
X176190000Y-105070000D02*
X176090000Y-104970000D01*
X181390000Y-105070000D02*
X176190000Y-105070000D01*
X184092400Y-107772400D02*
X181390000Y-105070000D01*
X153590000Y-119420000D02*
X153590000Y-119420002D01*
X155001200Y-128547200D02*
X152040002Y-125586002D01*
X153590000Y-119420000D02*
X155536900Y-117473100D01*
X152040002Y-120970000D02*
X152040002Y-125586002D01*
X153590000Y-119420002D02*
X152040002Y-120970000D01*
X155536900Y-117221000D02*
X155536900Y-117473100D01*
X154390000Y-120170000D02*
X152740000Y-121820000D01*
X152740000Y-121820000D02*
X152740000Y-123786000D01*
X152740000Y-123786000D02*
X155001200Y-126047200D01*
X157416500Y-114528600D02*
X157331400Y-114528600D01*
X152996900Y-129042900D02*
X152996900Y-129026900D01*
X155001200Y-131047200D02*
X152996900Y-129042900D01*
X151590000Y-118627900D02*
X152996900Y-117221000D01*
X151590000Y-127620000D02*
X151590000Y-118627900D01*
X152996900Y-129026900D02*
X151590000Y-127620000D01*
X160616900Y-114681000D02*
X160616900Y-115143100D01*
X160616900Y-115143100D02*
X159340000Y-116420000D01*
X159340000Y-116420000D02*
X159340000Y-119108400D01*
X159340000Y-119108400D02*
X155001200Y-123447200D01*
X167576500Y-114528600D02*
X167576500Y-114773700D01*
X162621200Y-128547200D02*
X162267200Y-128547200D01*
X162267200Y-128547200D02*
X161040000Y-127320000D01*
X161040000Y-127320000D02*
X161040000Y-119870000D01*
X161040000Y-119870000D02*
X161890000Y-119020000D01*
X161890000Y-119020000D02*
X161890000Y-110320000D01*
X158240000Y-106620000D02*
X158190000Y-106570000D01*
X158190000Y-106570000D02*
X158190000Y-103270000D01*
X158140000Y-100420000D02*
X159990000Y-98570000D01*
X159990000Y-98570000D02*
X164263200Y-98570000D01*
X164263200Y-98570000D02*
X166083200Y-100390000D01*
X162621200Y-131047200D02*
X162912800Y-131047200D01*
X162912800Y-131047200D02*
X164490000Y-129470000D01*
X164490000Y-129470000D02*
X164490000Y-110170000D01*
X157290000Y-105920000D02*
X157140000Y-105770000D01*
X157140000Y-105770000D02*
X157140000Y-103720000D01*
M02*
