%FSLAX45Y45*%
G04 Gerber Fmt 4.5, Leading zero omitted, Abs format (unit mm)*
G04 Created by KiCad (PCBNEW 4.0.5-e0-6337~49~ubuntu16.04.1) date Sun Apr 30 10:53:18 2017*
%MOMM*%
%LPD*%
G01*
G04 APERTURE LIST*
%ADD10C,0.127000*%
%ADD11C,0.100000*%
%ADD12C,0.200000*%
%ADD13C,0.300000*%
G04 APERTURE END LIST*
D10*
D11*
X15988208Y-5687670D02*
X15857296Y-5687517D01*
X16381247Y-5724169D02*
X15988208Y-5687670D01*
X16888638Y-5830011D02*
X16381247Y-5724169D01*
X17372990Y-6001182D02*
X16888638Y-5830011D01*
X17828717Y-6234176D02*
X17372990Y-6001182D01*
X18249595Y-6525362D02*
X17828717Y-6234176D01*
X18629630Y-6871132D02*
X18249595Y-6525362D01*
X18962827Y-7268007D02*
X18629630Y-6871132D01*
X19181115Y-7596937D02*
X18962827Y-7268007D01*
X19243421Y-7712278D02*
X19181115Y-7596937D01*
X19243421Y-7844307D02*
X19243421Y-7712278D01*
X17641570Y-7844307D02*
X19243421Y-7844307D01*
X17641570Y-10475646D02*
X17641570Y-7844307D01*
X19243421Y-10475646D02*
X17641570Y-10475646D01*
X19243421Y-11367940D02*
X19243421Y-10475646D01*
X19181420Y-11483558D02*
X19243421Y-11367940D01*
X18963665Y-11813459D02*
X19181420Y-11483558D01*
X18630875Y-12211576D02*
X18963665Y-11813459D01*
X18251094Y-12558565D02*
X18630875Y-12211576D01*
X17830368Y-12850985D02*
X18251094Y-12558565D01*
X17374514Y-13084975D02*
X17830368Y-12850985D01*
X16889730Y-13257230D02*
X17374514Y-13084975D01*
X16381908Y-13363752D02*
X16889730Y-13257230D01*
X15988360Y-13400959D02*
X16381908Y-13363752D01*
X15857296Y-13401373D02*
X15988360Y-13400959D01*
X15758617Y-13401373D02*
X15857296Y-13401373D01*
X15462885Y-13381391D02*
X15758617Y-13401373D01*
X15079955Y-13322962D02*
X15462885Y-13381391D01*
X14710207Y-13227878D02*
X15079955Y-13322962D01*
X14355922Y-13098206D02*
X14710207Y-13227878D01*
X14018715Y-12935872D02*
X14355922Y-13098206D01*
X13700803Y-12742672D02*
X14018715Y-12935872D01*
X13403836Y-12520668D02*
X13700803Y-12742672D01*
X13129880Y-12271657D02*
X13403836Y-12520668D01*
X12881005Y-11997842D02*
X13129880Y-12271657D01*
X12659007Y-11700873D02*
X12881005Y-11997842D01*
X12465804Y-11382962D02*
X12659007Y-11700873D01*
X12303333Y-11045754D02*
X12465804Y-11382962D01*
X12173661Y-10691470D02*
X12303333Y-11045754D01*
X12078576Y-10321722D02*
X12173661Y-10691470D01*
X12020147Y-9938766D02*
X12078576Y-10321722D01*
X12000304Y-9643034D02*
X12020147Y-9938766D01*
X12000304Y-9544507D02*
X12000304Y-9643034D01*
X12000304Y-9445828D02*
X12000304Y-9544507D01*
X12020147Y-9150147D02*
X12000304Y-9445828D01*
X12078576Y-8767166D02*
X12020147Y-9150147D01*
X12173661Y-8397443D02*
X12078576Y-8767166D01*
X12303333Y-8043164D02*
X12173661Y-8397443D01*
X12465804Y-7705928D02*
X12303333Y-8043164D01*
X12659007Y-7388022D02*
X12465804Y-7705928D01*
X12881005Y-7091045D02*
X12659007Y-7388022D01*
X13129880Y-6817106D02*
X12881005Y-7091045D01*
X13403836Y-6568237D02*
X13129880Y-6817106D01*
X13700803Y-6346215D02*
X13403836Y-6568237D01*
X14018715Y-6153048D02*
X13700803Y-6346215D01*
X14355922Y-5990565D02*
X14018715Y-6153048D01*
X14710207Y-5860872D02*
X14355922Y-5990565D01*
X15079955Y-5765800D02*
X14710207Y-5860872D01*
X15462885Y-5707380D02*
X15079955Y-5765800D01*
X15758617Y-5687517D02*
X15462885Y-5707380D01*
X15857296Y-5687517D02*
X15758617Y-5687517D01*
D12*
X17689000Y-7117000D02*
X17759000Y-7187000D01*
X17759000Y-7117000D02*
X17689000Y-7187000D01*
X17664000Y-7177000D02*
X17784000Y-7177000D01*
X17664000Y-7127000D02*
X17784000Y-7127000D01*
X17784000Y-7177000D02*
G75*
G03X17784000Y-7127000I0J25000D01*
G01*
X17664000Y-7127000D02*
G75*
G03X17664000Y-7177000I0J-25000D01*
G01*
D13*
X12266732Y-13872087D02*
X12266732Y-13572087D01*
X12338161Y-13572087D01*
X12381018Y-13586373D01*
X12409589Y-13614944D01*
X12423875Y-13643516D01*
X12438161Y-13700659D01*
X12438161Y-13743516D01*
X12423875Y-13800659D01*
X12409589Y-13829230D01*
X12381018Y-13857802D01*
X12338161Y-13872087D01*
X12266732Y-13872087D01*
X12566732Y-13872087D02*
X12566732Y-13672087D01*
X12566732Y-13729230D02*
X12581018Y-13700659D01*
X12595304Y-13686373D01*
X12623875Y-13672087D01*
X12652446Y-13672087D01*
X12752446Y-13872087D02*
X12752446Y-13672087D01*
X12752446Y-13572087D02*
X12738161Y-13586373D01*
X12752446Y-13600659D01*
X12766732Y-13586373D01*
X12752446Y-13572087D01*
X12752446Y-13600659D01*
X12938161Y-13872087D02*
X12909589Y-13857802D01*
X12895304Y-13829230D01*
X12895304Y-13572087D01*
X13095304Y-13872087D02*
X13066732Y-13857802D01*
X13052446Y-13829230D01*
X13052446Y-13572087D01*
X13438161Y-13872087D02*
X13438161Y-13572087D01*
X13538161Y-13786373D01*
X13638161Y-13572087D01*
X13638161Y-13872087D01*
X13909589Y-13872087D02*
X13909589Y-13714944D01*
X13895304Y-13686373D01*
X13866732Y-13672087D01*
X13809589Y-13672087D01*
X13781018Y-13686373D01*
X13909589Y-13857802D02*
X13881018Y-13872087D01*
X13809589Y-13872087D01*
X13781018Y-13857802D01*
X13766732Y-13829230D01*
X13766732Y-13800659D01*
X13781018Y-13772087D01*
X13809589Y-13757802D01*
X13881018Y-13757802D01*
X13909589Y-13743516D01*
X14052446Y-13672087D02*
X14052446Y-13972087D01*
X14052446Y-13686373D02*
X14081018Y-13672087D01*
X14138161Y-13672087D01*
X14166732Y-13686373D01*
X14181018Y-13700659D01*
X14195304Y-13729230D01*
X14195304Y-13814944D01*
X14181018Y-13843516D01*
X14166732Y-13857802D01*
X14138161Y-13872087D01*
X14081018Y-13872087D01*
X14052446Y-13857802D01*
X14323875Y-13843516D02*
X14338161Y-13857802D01*
X14323875Y-13872087D01*
X14309589Y-13857802D01*
X14323875Y-13843516D01*
X14323875Y-13872087D01*
X14323875Y-13686373D02*
X14338161Y-13700659D01*
X14323875Y-13714944D01*
X14309589Y-13700659D01*
X14323875Y-13686373D01*
X14323875Y-13714944D01*
X11925304Y-14331373D02*
X11995304Y-14401373D01*
X11995304Y-14331373D02*
X11925304Y-14401373D01*
X12323875Y-14202087D02*
X12352446Y-14202087D01*
X12381018Y-14216373D01*
X12395304Y-14230659D01*
X12409589Y-14259230D01*
X12423875Y-14316373D01*
X12423875Y-14387802D01*
X12409589Y-14444944D01*
X12395304Y-14473516D01*
X12381018Y-14487802D01*
X12352446Y-14502087D01*
X12323875Y-14502087D01*
X12295304Y-14487802D01*
X12281018Y-14473516D01*
X12266732Y-14444944D01*
X12252446Y-14387802D01*
X12252446Y-14316373D01*
X12266732Y-14259230D01*
X12281018Y-14230659D01*
X12295304Y-14216373D01*
X12323875Y-14202087D01*
X12552446Y-14473516D02*
X12566732Y-14487802D01*
X12552446Y-14502087D01*
X12538161Y-14487802D01*
X12552446Y-14473516D01*
X12552446Y-14502087D01*
X12666732Y-14202087D02*
X12866732Y-14202087D01*
X12738161Y-14502087D01*
X13038161Y-14202087D02*
X13066732Y-14202087D01*
X13095304Y-14216373D01*
X13109589Y-14230659D01*
X13123875Y-14259230D01*
X13138161Y-14316373D01*
X13138161Y-14387802D01*
X13123875Y-14444944D01*
X13109589Y-14473516D01*
X13095304Y-14487802D01*
X13066732Y-14502087D01*
X13038161Y-14502087D01*
X13009589Y-14487802D01*
X12995304Y-14473516D01*
X12981018Y-14444944D01*
X12966732Y-14387802D01*
X12966732Y-14316373D01*
X12981018Y-14259230D01*
X12995304Y-14230659D01*
X13009589Y-14216373D01*
X13038161Y-14202087D01*
X13266732Y-14502087D02*
X13266732Y-14302087D01*
X13266732Y-14330659D02*
X13281018Y-14316373D01*
X13309589Y-14302087D01*
X13352446Y-14302087D01*
X13381018Y-14316373D01*
X13395304Y-14344944D01*
X13395304Y-14502087D01*
X13395304Y-14344944D02*
X13409589Y-14316373D01*
X13438161Y-14302087D01*
X13481018Y-14302087D01*
X13509589Y-14316373D01*
X13523875Y-14344944D01*
X13523875Y-14502087D01*
X13666732Y-14502087D02*
X13666732Y-14302087D01*
X13666732Y-14330659D02*
X13681018Y-14316373D01*
X13709589Y-14302087D01*
X13752446Y-14302087D01*
X13781018Y-14316373D01*
X13795304Y-14344944D01*
X13795304Y-14502087D01*
X13795304Y-14344944D02*
X13809589Y-14316373D01*
X13838161Y-14302087D01*
X13881018Y-14302087D01*
X13909589Y-14316373D01*
X13923875Y-14344944D01*
X13923875Y-14502087D01*
X14509589Y-14187802D02*
X14252446Y-14573516D01*
X14895303Y-14202087D02*
X14923875Y-14202087D01*
X14952446Y-14216373D01*
X14966732Y-14230659D01*
X14981018Y-14259230D01*
X14995303Y-14316373D01*
X14995303Y-14387802D01*
X14981018Y-14444944D01*
X14966732Y-14473516D01*
X14952446Y-14487802D01*
X14923875Y-14502087D01*
X14895303Y-14502087D01*
X14866732Y-14487802D01*
X14852446Y-14473516D01*
X14838161Y-14444944D01*
X14823875Y-14387802D01*
X14823875Y-14316373D01*
X14838161Y-14259230D01*
X14852446Y-14230659D01*
X14866732Y-14216373D01*
X14895303Y-14202087D01*
X15123875Y-14473516D02*
X15138161Y-14487802D01*
X15123875Y-14502087D01*
X15109589Y-14487802D01*
X15123875Y-14473516D01*
X15123875Y-14502087D01*
X15323875Y-14202087D02*
X15352446Y-14202087D01*
X15381018Y-14216373D01*
X15395303Y-14230659D01*
X15409589Y-14259230D01*
X15423875Y-14316373D01*
X15423875Y-14387802D01*
X15409589Y-14444944D01*
X15395303Y-14473516D01*
X15381018Y-14487802D01*
X15352446Y-14502087D01*
X15323875Y-14502087D01*
X15295303Y-14487802D01*
X15281018Y-14473516D01*
X15266732Y-14444944D01*
X15252446Y-14387802D01*
X15252446Y-14316373D01*
X15266732Y-14259230D01*
X15281018Y-14230659D01*
X15295303Y-14216373D01*
X15323875Y-14202087D01*
X15538161Y-14230659D02*
X15552446Y-14216373D01*
X15581018Y-14202087D01*
X15652446Y-14202087D01*
X15681018Y-14216373D01*
X15695303Y-14230659D01*
X15709589Y-14259230D01*
X15709589Y-14287802D01*
X15695303Y-14330659D01*
X15523875Y-14502087D01*
X15709589Y-14502087D01*
X15881018Y-14330659D02*
X15852446Y-14316373D01*
X15838161Y-14302087D01*
X15823875Y-14273516D01*
X15823875Y-14259230D01*
X15838161Y-14230659D01*
X15852446Y-14216373D01*
X15881018Y-14202087D01*
X15938161Y-14202087D01*
X15966732Y-14216373D01*
X15981018Y-14230659D01*
X15995303Y-14259230D01*
X15995303Y-14273516D01*
X15981018Y-14302087D01*
X15966732Y-14316373D01*
X15938161Y-14330659D01*
X15881018Y-14330659D01*
X15852446Y-14344944D01*
X15838161Y-14359230D01*
X15823875Y-14387802D01*
X15823875Y-14444944D01*
X15838161Y-14473516D01*
X15852446Y-14487802D01*
X15881018Y-14502087D01*
X15938161Y-14502087D01*
X15966732Y-14487802D01*
X15981018Y-14473516D01*
X15995303Y-14444944D01*
X15995303Y-14387802D01*
X15981018Y-14359230D01*
X15966732Y-14344944D01*
X15938161Y-14330659D01*
X16109589Y-14202087D02*
X16109589Y-14259230D01*
X16223875Y-14202087D02*
X16223875Y-14259230D01*
X16666732Y-14616373D02*
X16652446Y-14602087D01*
X16623875Y-14559230D01*
X16609589Y-14530659D01*
X16595303Y-14487802D01*
X16581018Y-14416373D01*
X16581018Y-14359230D01*
X16595303Y-14287802D01*
X16609589Y-14244944D01*
X16623875Y-14216373D01*
X16652446Y-14173516D01*
X16666732Y-14159230D01*
X16938161Y-14502087D02*
X16766732Y-14502087D01*
X16852446Y-14502087D02*
X16852446Y-14202087D01*
X16823875Y-14244944D01*
X16795304Y-14273516D01*
X16766732Y-14287802D01*
X17281018Y-14487802D02*
X17309589Y-14502087D01*
X17366732Y-14502087D01*
X17395304Y-14487802D01*
X17409589Y-14459230D01*
X17409589Y-14444944D01*
X17395304Y-14416373D01*
X17366732Y-14402087D01*
X17323875Y-14402087D01*
X17295304Y-14387802D01*
X17281018Y-14359230D01*
X17281018Y-14344944D01*
X17295304Y-14316373D01*
X17323875Y-14302087D01*
X17366732Y-14302087D01*
X17395304Y-14316373D01*
X17581018Y-14502087D02*
X17552446Y-14487802D01*
X17538161Y-14459230D01*
X17538161Y-14202087D01*
X17738161Y-14502087D02*
X17709589Y-14487802D01*
X17695304Y-14473516D01*
X17681018Y-14444944D01*
X17681018Y-14359230D01*
X17695304Y-14330659D01*
X17709589Y-14316373D01*
X17738161Y-14302087D01*
X17781018Y-14302087D01*
X17809589Y-14316373D01*
X17823875Y-14330659D01*
X17838161Y-14359230D01*
X17838161Y-14444944D01*
X17823875Y-14473516D01*
X17809589Y-14487802D01*
X17781018Y-14502087D01*
X17738161Y-14502087D01*
X17923875Y-14302087D02*
X18038161Y-14302087D01*
X17966732Y-14202087D02*
X17966732Y-14459230D01*
X17981018Y-14487802D01*
X18009589Y-14502087D01*
X18038161Y-14502087D01*
X18109589Y-14616373D02*
X18123875Y-14602087D01*
X18152446Y-14559230D01*
X18166732Y-14530659D01*
X18181018Y-14487802D01*
X18195304Y-14416373D01*
X18195304Y-14359230D01*
X18181018Y-14287802D01*
X18166732Y-14244944D01*
X18152446Y-14216373D01*
X18123875Y-14173516D01*
X18109589Y-14159230D01*
X18652446Y-14616373D02*
X18638161Y-14602087D01*
X18609589Y-14559230D01*
X18595304Y-14530659D01*
X18581018Y-14487802D01*
X18566732Y-14416373D01*
X18566732Y-14359230D01*
X18581018Y-14287802D01*
X18595304Y-14244944D01*
X18609589Y-14216373D01*
X18638161Y-14173516D01*
X18652446Y-14159230D01*
X18766732Y-14302087D02*
X18766732Y-14502087D01*
X18766732Y-14330659D02*
X18781018Y-14316373D01*
X18809589Y-14302087D01*
X18852446Y-14302087D01*
X18881018Y-14316373D01*
X18895304Y-14344944D01*
X18895304Y-14502087D01*
X19081018Y-14502087D02*
X19052446Y-14487802D01*
X19038161Y-14473516D01*
X19023875Y-14444944D01*
X19023875Y-14359230D01*
X19038161Y-14330659D01*
X19052446Y-14316373D01*
X19081018Y-14302087D01*
X19123875Y-14302087D01*
X19152446Y-14316373D01*
X19166732Y-14330659D01*
X19181018Y-14359230D01*
X19181018Y-14444944D01*
X19166732Y-14473516D01*
X19152446Y-14487802D01*
X19123875Y-14502087D01*
X19081018Y-14502087D01*
X19266732Y-14302087D02*
X19381018Y-14302087D01*
X19309589Y-14202087D02*
X19309589Y-14459230D01*
X19323875Y-14487802D01*
X19352446Y-14502087D01*
X19381018Y-14502087D01*
X19709589Y-14302087D02*
X19709589Y-14602087D01*
X19709589Y-14316373D02*
X19738161Y-14302087D01*
X19795304Y-14302087D01*
X19823875Y-14316373D01*
X19838161Y-14330659D01*
X19852446Y-14359230D01*
X19852446Y-14444944D01*
X19838161Y-14473516D01*
X19823875Y-14487802D01*
X19795304Y-14502087D01*
X19738161Y-14502087D01*
X19709589Y-14487802D01*
X20023875Y-14502087D02*
X19995304Y-14487802D01*
X19981018Y-14459230D01*
X19981018Y-14202087D01*
X20266732Y-14502087D02*
X20266732Y-14344944D01*
X20252447Y-14316373D01*
X20223875Y-14302087D01*
X20166732Y-14302087D01*
X20138161Y-14316373D01*
X20266732Y-14487802D02*
X20238161Y-14502087D01*
X20166732Y-14502087D01*
X20138161Y-14487802D01*
X20123875Y-14459230D01*
X20123875Y-14430659D01*
X20138161Y-14402087D01*
X20166732Y-14387802D01*
X20238161Y-14387802D01*
X20266732Y-14373516D01*
X20366732Y-14302087D02*
X20481018Y-14302087D01*
X20409589Y-14202087D02*
X20409589Y-14459230D01*
X20423875Y-14487802D01*
X20452447Y-14502087D01*
X20481018Y-14502087D01*
X20695304Y-14487802D02*
X20666732Y-14502087D01*
X20609589Y-14502087D01*
X20581018Y-14487802D01*
X20566732Y-14459230D01*
X20566732Y-14344944D01*
X20581018Y-14316373D01*
X20609589Y-14302087D01*
X20666732Y-14302087D01*
X20695304Y-14316373D01*
X20709589Y-14344944D01*
X20709589Y-14373516D01*
X20566732Y-14402087D01*
X20966732Y-14502087D02*
X20966732Y-14202087D01*
X20966732Y-14487802D02*
X20938161Y-14502087D01*
X20881018Y-14502087D01*
X20852447Y-14487802D01*
X20838161Y-14473516D01*
X20823875Y-14444944D01*
X20823875Y-14359230D01*
X20838161Y-14330659D01*
X20852447Y-14316373D01*
X20881018Y-14302087D01*
X20938161Y-14302087D01*
X20966732Y-14316373D01*
X21081018Y-14616373D02*
X21095304Y-14602087D01*
X21123875Y-14559230D01*
X21138161Y-14530659D01*
X21152447Y-14487802D01*
X21166732Y-14416373D01*
X21166732Y-14359230D01*
X21152447Y-14287802D01*
X21138161Y-14244944D01*
X21123875Y-14216373D01*
X21095304Y-14173516D01*
X21081018Y-14159230D01*
M02*
