G04 #@! TF.FileFunction,Legend,Top*
%FSLAX46Y46*%
G04 Gerber Fmt 4.6, Leading zero omitted, Abs format (unit mm)*
G04 Created by KiCad (PCBNEW 4.0.6-e0-6349~52~ubuntu16.10.1) date Tue Jun 20 22:28:44 2017*
%MOMM*%
%LPD*%
G01*
G04 APERTURE LIST*
%ADD10C,0.100000*%
%ADD11C,0.075000*%
%ADD12C,0.300000*%
%ADD13C,0.150000*%
%ADD14C,0.381000*%
%ADD15C,0.120000*%
%ADD16C,0.203200*%
%ADD17C,0.125000*%
%ADD18C,0.152400*%
G04 APERTURE END LIST*
D10*
X123463810Y-106550954D02*
X123463810Y-106860477D01*
X123273333Y-106693811D01*
X123273333Y-106765239D01*
X123249524Y-106812858D01*
X123225714Y-106836668D01*
X123178095Y-106860477D01*
X123059048Y-106860477D01*
X123011429Y-106836668D01*
X122987619Y-106812858D01*
X122963810Y-106765239D01*
X122963810Y-106622382D01*
X122987619Y-106574763D01*
X123011429Y-106550954D01*
X123463810Y-107003334D02*
X122963810Y-107170001D01*
X123463810Y-107336667D01*
X123463810Y-107455715D02*
X123463810Y-107765238D01*
X123273333Y-107598572D01*
X123273333Y-107670000D01*
X123249524Y-107717619D01*
X123225714Y-107741429D01*
X123178095Y-107765238D01*
X123059048Y-107765238D01*
X123011429Y-107741429D01*
X122987619Y-107717619D01*
X122963810Y-107670000D01*
X122963810Y-107527143D01*
X122987619Y-107479524D01*
X123011429Y-107455715D01*
X122963810Y-104250953D02*
X123463810Y-104250953D01*
X123463810Y-104370000D01*
X123440000Y-104441429D01*
X123392381Y-104489048D01*
X123344762Y-104512857D01*
X123249524Y-104536667D01*
X123178095Y-104536667D01*
X123082857Y-104512857D01*
X123035238Y-104489048D01*
X122987619Y-104441429D01*
X122963810Y-104370000D01*
X122963810Y-104250953D01*
X123463810Y-104846191D02*
X123463810Y-104893810D01*
X123440000Y-104941429D01*
X123416190Y-104965238D01*
X123368571Y-104989048D01*
X123273333Y-105012857D01*
X123154286Y-105012857D01*
X123059048Y-104989048D01*
X123011429Y-104965238D01*
X122987619Y-104941429D01*
X122963810Y-104893810D01*
X122963810Y-104846191D01*
X122987619Y-104798572D01*
X123011429Y-104774762D01*
X123059048Y-104750953D01*
X123154286Y-104727143D01*
X123273333Y-104727143D01*
X123368571Y-104750953D01*
X123416190Y-104774762D01*
X123440000Y-104798572D01*
X123463810Y-104846191D01*
X122963810Y-101800953D02*
X123463810Y-101800953D01*
X123463810Y-101920000D01*
X123440000Y-101991429D01*
X123392381Y-102039048D01*
X123344762Y-102062857D01*
X123249524Y-102086667D01*
X123178095Y-102086667D01*
X123082857Y-102062857D01*
X123035238Y-102039048D01*
X122987619Y-101991429D01*
X122963810Y-101920000D01*
X122963810Y-101800953D01*
X122963810Y-102562857D02*
X122963810Y-102277143D01*
X122963810Y-102420000D02*
X123463810Y-102420000D01*
X123392381Y-102372381D01*
X123344762Y-102324762D01*
X123320952Y-102277143D01*
X122913810Y-99200953D02*
X123413810Y-99200953D01*
X123413810Y-99320000D01*
X123390000Y-99391429D01*
X123342381Y-99439048D01*
X123294762Y-99462857D01*
X123199524Y-99486667D01*
X123128095Y-99486667D01*
X123032857Y-99462857D01*
X122985238Y-99439048D01*
X122937619Y-99391429D01*
X122913810Y-99320000D01*
X122913810Y-99200953D01*
X123366190Y-99677143D02*
X123390000Y-99700953D01*
X123413810Y-99748572D01*
X123413810Y-99867619D01*
X123390000Y-99915238D01*
X123366190Y-99939048D01*
X123318571Y-99962857D01*
X123270952Y-99962857D01*
X123199524Y-99939048D01*
X122913810Y-99653334D01*
X122913810Y-99962857D01*
X123013810Y-96700953D02*
X123513810Y-96700953D01*
X123513810Y-96820000D01*
X123490000Y-96891429D01*
X123442381Y-96939048D01*
X123394762Y-96962857D01*
X123299524Y-96986667D01*
X123228095Y-96986667D01*
X123132857Y-96962857D01*
X123085238Y-96939048D01*
X123037619Y-96891429D01*
X123013810Y-96820000D01*
X123013810Y-96700953D01*
X123513810Y-97153334D02*
X123513810Y-97462857D01*
X123323333Y-97296191D01*
X123323333Y-97367619D01*
X123299524Y-97415238D01*
X123275714Y-97439048D01*
X123228095Y-97462857D01*
X123109048Y-97462857D01*
X123061429Y-97439048D01*
X123037619Y-97415238D01*
X123013810Y-97367619D01*
X123013810Y-97224762D01*
X123037619Y-97177143D01*
X123061429Y-97153334D01*
X122963810Y-94050953D02*
X123463810Y-94050953D01*
X123463810Y-94170000D01*
X123440000Y-94241429D01*
X123392381Y-94289048D01*
X123344762Y-94312857D01*
X123249524Y-94336667D01*
X123178095Y-94336667D01*
X123082857Y-94312857D01*
X123035238Y-94289048D01*
X122987619Y-94241429D01*
X122963810Y-94170000D01*
X122963810Y-94050953D01*
X123297143Y-94765238D02*
X122963810Y-94765238D01*
X123487619Y-94646191D02*
X123130476Y-94527143D01*
X123130476Y-94836667D01*
X122963810Y-91500953D02*
X123463810Y-91500953D01*
X123463810Y-91620000D01*
X123440000Y-91691429D01*
X123392381Y-91739048D01*
X123344762Y-91762857D01*
X123249524Y-91786667D01*
X123178095Y-91786667D01*
X123082857Y-91762857D01*
X123035238Y-91739048D01*
X122987619Y-91691429D01*
X122963810Y-91620000D01*
X122963810Y-91500953D01*
X123463810Y-92239048D02*
X123463810Y-92000953D01*
X123225714Y-91977143D01*
X123249524Y-92000953D01*
X123273333Y-92048572D01*
X123273333Y-92167619D01*
X123249524Y-92215238D01*
X123225714Y-92239048D01*
X123178095Y-92262857D01*
X123059048Y-92262857D01*
X123011429Y-92239048D01*
X122987619Y-92215238D01*
X122963810Y-92167619D01*
X122963810Y-92048572D01*
X122987619Y-92000953D01*
X123011429Y-91977143D01*
X122913810Y-89050953D02*
X123413810Y-89050953D01*
X123413810Y-89170000D01*
X123390000Y-89241429D01*
X123342381Y-89289048D01*
X123294762Y-89312857D01*
X123199524Y-89336667D01*
X123128095Y-89336667D01*
X123032857Y-89312857D01*
X122985238Y-89289048D01*
X122937619Y-89241429D01*
X122913810Y-89170000D01*
X122913810Y-89050953D01*
X123413810Y-89765238D02*
X123413810Y-89670000D01*
X123390000Y-89622381D01*
X123366190Y-89598572D01*
X123294762Y-89550953D01*
X123199524Y-89527143D01*
X123009048Y-89527143D01*
X122961429Y-89550953D01*
X122937619Y-89574762D01*
X122913810Y-89622381D01*
X122913810Y-89717619D01*
X122937619Y-89765238D01*
X122961429Y-89789048D01*
X123009048Y-89812857D01*
X123128095Y-89812857D01*
X123175714Y-89789048D01*
X123199524Y-89765238D01*
X123223333Y-89717619D01*
X123223333Y-89622381D01*
X123199524Y-89574762D01*
X123175714Y-89550953D01*
X123128095Y-89527143D01*
X122913810Y-86450953D02*
X123413810Y-86450953D01*
X123413810Y-86570000D01*
X123390000Y-86641429D01*
X123342381Y-86689048D01*
X123294762Y-86712857D01*
X123199524Y-86736667D01*
X123128095Y-86736667D01*
X123032857Y-86712857D01*
X122985238Y-86689048D01*
X122937619Y-86641429D01*
X122913810Y-86570000D01*
X122913810Y-86450953D01*
X123413810Y-86903334D02*
X123413810Y-87236667D01*
X122913810Y-87022381D01*
X123390000Y-84039047D02*
X123413810Y-83991428D01*
X123413810Y-83920000D01*
X123390000Y-83848571D01*
X123342381Y-83800952D01*
X123294762Y-83777143D01*
X123199524Y-83753333D01*
X123128095Y-83753333D01*
X123032857Y-83777143D01*
X122985238Y-83800952D01*
X122937619Y-83848571D01*
X122913810Y-83920000D01*
X122913810Y-83967619D01*
X122937619Y-84039047D01*
X122961429Y-84062857D01*
X123128095Y-84062857D01*
X123128095Y-83967619D01*
X122913810Y-84277143D02*
X123413810Y-84277143D01*
X122913810Y-84562857D01*
X123413810Y-84562857D01*
X122913810Y-84800953D02*
X123413810Y-84800953D01*
X123413810Y-84920000D01*
X123390000Y-84991429D01*
X123342381Y-85039048D01*
X123294762Y-85062857D01*
X123199524Y-85086667D01*
X123128095Y-85086667D01*
X123032857Y-85062857D01*
X122985238Y-85039048D01*
X122937619Y-84991429D01*
X122913810Y-84920000D01*
X122913810Y-84800953D01*
X128883487Y-76342086D02*
X128969201Y-76365895D01*
X128997773Y-76389705D01*
X129026344Y-76437324D01*
X129026344Y-76508752D01*
X128997773Y-76556371D01*
X128969201Y-76580181D01*
X128912059Y-76603990D01*
X128683487Y-76603990D01*
X128683487Y-76103990D01*
X128883487Y-76103990D01*
X128940630Y-76127800D01*
X128969201Y-76151610D01*
X128997773Y-76199229D01*
X128997773Y-76246848D01*
X128969201Y-76294467D01*
X128940630Y-76318276D01*
X128883487Y-76342086D01*
X128683487Y-76342086D01*
X129369201Y-76603990D02*
X129312059Y-76580181D01*
X129283487Y-76532562D01*
X129283487Y-76103990D01*
X129683487Y-76603990D02*
X129626345Y-76580181D01*
X129597773Y-76556371D01*
X129569202Y-76508752D01*
X129569202Y-76365895D01*
X129597773Y-76318276D01*
X129626345Y-76294467D01*
X129683487Y-76270657D01*
X129769202Y-76270657D01*
X129826345Y-76294467D01*
X129854916Y-76318276D01*
X129883487Y-76365895D01*
X129883487Y-76508752D01*
X129854916Y-76556371D01*
X129826345Y-76580181D01*
X129769202Y-76603990D01*
X129683487Y-76603990D01*
X130397773Y-76580181D02*
X130340630Y-76603990D01*
X130226344Y-76603990D01*
X130169202Y-76580181D01*
X130140630Y-76556371D01*
X130112059Y-76508752D01*
X130112059Y-76365895D01*
X130140630Y-76318276D01*
X130169202Y-76294467D01*
X130226344Y-76270657D01*
X130340630Y-76270657D01*
X130397773Y-76294467D01*
X130654916Y-76603990D02*
X130654916Y-76103990D01*
X130712059Y-76413514D02*
X130883488Y-76603990D01*
X130883488Y-76270657D02*
X130654916Y-76461133D01*
X131083487Y-76103990D02*
X131226344Y-76603990D01*
X131340630Y-76246848D01*
X131454916Y-76603990D01*
X131597773Y-76103990D01*
X131912058Y-76603990D02*
X131854916Y-76580181D01*
X131826344Y-76556371D01*
X131797773Y-76508752D01*
X131797773Y-76365895D01*
X131826344Y-76318276D01*
X131854916Y-76294467D01*
X131912058Y-76270657D01*
X131997773Y-76270657D01*
X132054916Y-76294467D01*
X132083487Y-76318276D01*
X132112058Y-76365895D01*
X132112058Y-76508752D01*
X132083487Y-76556371D01*
X132054916Y-76580181D01*
X131997773Y-76603990D01*
X131912058Y-76603990D01*
X132369201Y-76603990D02*
X132369201Y-76270657D01*
X132369201Y-76365895D02*
X132397773Y-76318276D01*
X132426344Y-76294467D01*
X132483487Y-76270657D01*
X132540630Y-76270657D01*
X132740630Y-76603990D02*
X132740630Y-76103990D01*
X132797773Y-76413514D02*
X132969202Y-76603990D01*
X132969202Y-76270657D02*
X132740630Y-76461133D01*
X133197773Y-76580181D02*
X133254916Y-76603990D01*
X133369201Y-76603990D01*
X133426344Y-76580181D01*
X133454916Y-76532562D01*
X133454916Y-76508752D01*
X133426344Y-76461133D01*
X133369201Y-76437324D01*
X133283487Y-76437324D01*
X133226344Y-76413514D01*
X133197773Y-76365895D01*
X133197773Y-76342086D01*
X133226344Y-76294467D01*
X133283487Y-76270657D01*
X133369201Y-76270657D01*
X133426344Y-76294467D01*
X134512058Y-76556371D02*
X134483487Y-76580181D01*
X134397773Y-76603990D01*
X134340630Y-76603990D01*
X134254915Y-76580181D01*
X134197773Y-76532562D01*
X134169201Y-76484943D01*
X134140630Y-76389705D01*
X134140630Y-76318276D01*
X134169201Y-76223038D01*
X134197773Y-76175419D01*
X134254915Y-76127800D01*
X134340630Y-76103990D01*
X134397773Y-76103990D01*
X134483487Y-76127800D01*
X134512058Y-76151610D01*
X134854915Y-76603990D02*
X134797773Y-76580181D01*
X134769201Y-76556371D01*
X134740630Y-76508752D01*
X134740630Y-76365895D01*
X134769201Y-76318276D01*
X134797773Y-76294467D01*
X134854915Y-76270657D01*
X134940630Y-76270657D01*
X134997773Y-76294467D01*
X135026344Y-76318276D01*
X135054915Y-76365895D01*
X135054915Y-76508752D01*
X135026344Y-76556371D01*
X134997773Y-76580181D01*
X134940630Y-76603990D01*
X134854915Y-76603990D01*
X135312058Y-76270657D02*
X135312058Y-76603990D01*
X135312058Y-76318276D02*
X135340630Y-76294467D01*
X135397772Y-76270657D01*
X135483487Y-76270657D01*
X135540630Y-76294467D01*
X135569201Y-76342086D01*
X135569201Y-76603990D01*
X135826344Y-76580181D02*
X135883487Y-76603990D01*
X135997772Y-76603990D01*
X136054915Y-76580181D01*
X136083487Y-76532562D01*
X136083487Y-76508752D01*
X136054915Y-76461133D01*
X135997772Y-76437324D01*
X135912058Y-76437324D01*
X135854915Y-76413514D01*
X135826344Y-76365895D01*
X135826344Y-76342086D01*
X135854915Y-76294467D01*
X135912058Y-76270657D01*
X135997772Y-76270657D01*
X136054915Y-76294467D01*
X136597772Y-76270657D02*
X136597772Y-76603990D01*
X136340629Y-76270657D02*
X136340629Y-76532562D01*
X136369201Y-76580181D01*
X136426343Y-76603990D01*
X136512058Y-76603990D01*
X136569201Y-76580181D01*
X136597772Y-76556371D01*
X136969200Y-76603990D02*
X136912058Y-76580181D01*
X136883486Y-76532562D01*
X136883486Y-76103990D01*
X137112058Y-76270657D02*
X137340629Y-76270657D01*
X137197772Y-76103990D02*
X137197772Y-76532562D01*
X137226344Y-76580181D01*
X137283486Y-76603990D01*
X137340629Y-76603990D01*
X137540629Y-76603990D02*
X137540629Y-76270657D01*
X137540629Y-76103990D02*
X137512058Y-76127800D01*
X137540629Y-76151610D01*
X137569201Y-76127800D01*
X137540629Y-76103990D01*
X137540629Y-76151610D01*
X137826343Y-76270657D02*
X137826343Y-76603990D01*
X137826343Y-76318276D02*
X137854915Y-76294467D01*
X137912057Y-76270657D01*
X137997772Y-76270657D01*
X138054915Y-76294467D01*
X138083486Y-76342086D01*
X138083486Y-76603990D01*
X138626343Y-76270657D02*
X138626343Y-76675419D01*
X138597772Y-76723038D01*
X138569200Y-76746848D01*
X138512057Y-76770657D01*
X138426343Y-76770657D01*
X138369200Y-76746848D01*
X138626343Y-76580181D02*
X138569200Y-76603990D01*
X138454914Y-76603990D01*
X138397772Y-76580181D01*
X138369200Y-76556371D01*
X138340629Y-76508752D01*
X138340629Y-76365895D01*
X138369200Y-76318276D01*
X138397772Y-76294467D01*
X138454914Y-76270657D01*
X138569200Y-76270657D01*
X138626343Y-76294467D01*
X139654914Y-76603990D02*
X139369200Y-76603990D01*
X139369200Y-76103990D01*
X139769200Y-76270657D02*
X139997771Y-76270657D01*
X139854914Y-76103990D02*
X139854914Y-76532562D01*
X139883486Y-76580181D01*
X139940628Y-76603990D01*
X139997771Y-76603990D01*
X140454914Y-76603990D02*
X140454914Y-76103990D01*
X140454914Y-76580181D02*
X140397771Y-76603990D01*
X140283485Y-76603990D01*
X140226343Y-76580181D01*
X140197771Y-76556371D01*
X140169200Y-76508752D01*
X140169200Y-76365895D01*
X140197771Y-76318276D01*
X140226343Y-76294467D01*
X140283485Y-76270657D01*
X140397771Y-76270657D01*
X140454914Y-76294467D01*
D11*
X131888174Y-77683467D02*
X131864364Y-77659657D01*
X131816745Y-77588229D01*
X131792936Y-77540610D01*
X131769126Y-77469181D01*
X131745317Y-77350133D01*
X131745317Y-77254895D01*
X131769126Y-77135848D01*
X131792936Y-77064419D01*
X131816745Y-77016800D01*
X131864364Y-76945371D01*
X131888174Y-76921562D01*
X132221507Y-76992990D02*
X132221507Y-77350133D01*
X132197697Y-77421562D01*
X132150078Y-77469181D01*
X132078650Y-77492990D01*
X132031031Y-77492990D01*
X132673887Y-77159657D02*
X132673887Y-77492990D01*
X132459602Y-77159657D02*
X132459602Y-77421562D01*
X132483411Y-77469181D01*
X132531030Y-77492990D01*
X132602459Y-77492990D01*
X132650078Y-77469181D01*
X132673887Y-77445371D01*
X132911983Y-77159657D02*
X132911983Y-77492990D01*
X132911983Y-77207276D02*
X132935792Y-77183467D01*
X132983411Y-77159657D01*
X133054840Y-77159657D01*
X133102459Y-77183467D01*
X133126268Y-77231086D01*
X133126268Y-77492990D01*
X133554840Y-77469181D02*
X133507221Y-77492990D01*
X133411983Y-77492990D01*
X133364364Y-77469181D01*
X133340554Y-77421562D01*
X133340554Y-77231086D01*
X133364364Y-77183467D01*
X133411983Y-77159657D01*
X133507221Y-77159657D01*
X133554840Y-77183467D01*
X133578649Y-77231086D01*
X133578649Y-77278705D01*
X133340554Y-77326324D01*
X134150077Y-77040610D02*
X134173887Y-77016800D01*
X134221506Y-76992990D01*
X134340553Y-76992990D01*
X134388172Y-77016800D01*
X134411982Y-77040610D01*
X134435791Y-77088229D01*
X134435791Y-77135848D01*
X134411982Y-77207276D01*
X134126268Y-77492990D01*
X134435791Y-77492990D01*
X134745315Y-76992990D02*
X134792934Y-76992990D01*
X134840553Y-77016800D01*
X134864362Y-77040610D01*
X134888172Y-77088229D01*
X134911981Y-77183467D01*
X134911981Y-77302514D01*
X134888172Y-77397752D01*
X134864362Y-77445371D01*
X134840553Y-77469181D01*
X134792934Y-77492990D01*
X134745315Y-77492990D01*
X134697696Y-77469181D01*
X134673886Y-77445371D01*
X134650077Y-77397752D01*
X134626267Y-77302514D01*
X134626267Y-77183467D01*
X134650077Y-77088229D01*
X134673886Y-77040610D01*
X134697696Y-77016800D01*
X134745315Y-76992990D01*
X135388171Y-77492990D02*
X135102457Y-77492990D01*
X135245314Y-77492990D02*
X135245314Y-76992990D01*
X135197695Y-77064419D01*
X135150076Y-77112038D01*
X135102457Y-77135848D01*
X135554838Y-76992990D02*
X135888171Y-76992990D01*
X135673885Y-77492990D01*
X136031028Y-77683467D02*
X136054837Y-77659657D01*
X136102456Y-77588229D01*
X136126266Y-77540610D01*
X136150075Y-77469181D01*
X136173885Y-77350133D01*
X136173885Y-77254895D01*
X136150075Y-77135848D01*
X136126266Y-77064419D01*
X136102456Y-77016800D01*
X136054837Y-76945371D01*
X136031028Y-76921562D01*
D12*
X129560467Y-75822895D02*
X129127134Y-75203848D01*
X128817610Y-75822895D02*
X128817610Y-74522895D01*
X129312848Y-74522895D01*
X129436657Y-74584800D01*
X129498562Y-74646705D01*
X129560467Y-74770514D01*
X129560467Y-74956229D01*
X129498562Y-75080038D01*
X129436657Y-75141943D01*
X129312848Y-75203848D01*
X128817610Y-75203848D01*
X130612848Y-75760990D02*
X130489038Y-75822895D01*
X130241419Y-75822895D01*
X130117610Y-75760990D01*
X130055705Y-75637181D01*
X130055705Y-75141943D01*
X130117610Y-75018133D01*
X130241419Y-74956229D01*
X130489038Y-74956229D01*
X130612848Y-75018133D01*
X130674753Y-75141943D01*
X130674753Y-75265752D01*
X130055705Y-75389562D01*
X131789039Y-75822895D02*
X131789039Y-75141943D01*
X131727134Y-75018133D01*
X131603324Y-74956229D01*
X131355705Y-74956229D01*
X131231896Y-75018133D01*
X131789039Y-75760990D02*
X131665229Y-75822895D01*
X131355705Y-75822895D01*
X131231896Y-75760990D01*
X131169991Y-75637181D01*
X131169991Y-75513371D01*
X131231896Y-75389562D01*
X131355705Y-75327657D01*
X131665229Y-75327657D01*
X131789039Y-75265752D01*
X132965229Y-75760990D02*
X132841419Y-75822895D01*
X132593800Y-75822895D01*
X132469991Y-75760990D01*
X132408086Y-75699086D01*
X132346181Y-75575276D01*
X132346181Y-75203848D01*
X132408086Y-75080038D01*
X132469991Y-75018133D01*
X132593800Y-74956229D01*
X132841419Y-74956229D01*
X132965229Y-75018133D01*
X133336658Y-74956229D02*
X133831896Y-74956229D01*
X133522372Y-74522895D02*
X133522372Y-75637181D01*
X133584277Y-75760990D01*
X133708086Y-75822895D01*
X133831896Y-75822895D01*
X134450943Y-75822895D02*
X134327134Y-75760990D01*
X134265229Y-75699086D01*
X134203324Y-75575276D01*
X134203324Y-75203848D01*
X134265229Y-75080038D01*
X134327134Y-75018133D01*
X134450943Y-74956229D01*
X134636657Y-74956229D01*
X134760467Y-75018133D01*
X134822372Y-75080038D01*
X134884276Y-75203848D01*
X134884276Y-75575276D01*
X134822372Y-75699086D01*
X134760467Y-75760990D01*
X134636657Y-75822895D01*
X134450943Y-75822895D01*
X135441419Y-75822895D02*
X135441419Y-74956229D01*
X135441419Y-75203848D02*
X135503324Y-75080038D01*
X135565228Y-75018133D01*
X135689038Y-74956229D01*
X135812847Y-74956229D01*
X137484276Y-74522895D02*
X137731895Y-74522895D01*
X137855704Y-74584800D01*
X137979514Y-74708610D01*
X138041419Y-74956229D01*
X138041419Y-75389562D01*
X137979514Y-75637181D01*
X137855704Y-75760990D01*
X137731895Y-75822895D01*
X137484276Y-75822895D01*
X137360466Y-75760990D01*
X137236657Y-75637181D01*
X137174752Y-75389562D01*
X137174752Y-74956229D01*
X137236657Y-74708610D01*
X137360466Y-74584800D01*
X137484276Y-74522895D01*
X138598562Y-74956229D02*
X138598562Y-75822895D01*
X138598562Y-75080038D02*
X138660467Y-75018133D01*
X138784276Y-74956229D01*
X138969990Y-74956229D01*
X139093800Y-75018133D01*
X139155705Y-75141943D01*
X139155705Y-75822895D01*
X140269990Y-75760990D02*
X140146180Y-75822895D01*
X139898561Y-75822895D01*
X139774752Y-75760990D01*
X139712847Y-75637181D01*
X139712847Y-75141943D01*
X139774752Y-75018133D01*
X139898561Y-74956229D01*
X140146180Y-74956229D01*
X140269990Y-75018133D01*
X140331895Y-75141943D01*
X140331895Y-75265752D01*
X139712847Y-75389562D01*
D13*
X171390000Y-64020000D02*
X180990000Y-64020000D01*
X180990000Y-64020000D02*
X180990000Y-71720000D01*
X171390000Y-71720000D02*
X180990000Y-71720000D01*
X171390000Y-71720000D02*
X171390000Y-64020000D01*
X176490000Y-71520000D02*
X177990000Y-71520000D01*
D14*
X149860000Y-127000000D02*
G75*
G03X148590000Y-125730000I-1270000J0D01*
G01*
X148590000Y-128270000D02*
G75*
G03X149860000Y-127000000I0J1270000D01*
G01*
X148590000Y-121920000D02*
X148590000Y-132080000D01*
X148590000Y-132080000D02*
X168910000Y-132080000D01*
X168910000Y-132080000D02*
X168910000Y-121920000D01*
X168910000Y-121920000D02*
X148590000Y-121920000D01*
D15*
X145126900Y-111151000D02*
X186266900Y-111151000D01*
X186266900Y-111151000D02*
X186266900Y-120751000D01*
X186266900Y-120751000D02*
X145126900Y-120751000D01*
X145126900Y-120751000D02*
X145126900Y-111151000D01*
X123110000Y-108660000D02*
X123110000Y-106000000D01*
X123110000Y-106000000D02*
X120370000Y-106000000D01*
X120370000Y-106000000D02*
X120370000Y-108660000D01*
X120370000Y-108660000D02*
X123110000Y-108660000D01*
X120370000Y-107710000D02*
X120370000Y-106830000D01*
X120370000Y-106830000D02*
X114370000Y-106830000D01*
X114370000Y-106830000D02*
X114370000Y-107710000D01*
X114370000Y-107710000D02*
X120370000Y-107710000D01*
X123420000Y-107710000D02*
X123110000Y-107710000D01*
X123420000Y-106830000D02*
X123110000Y-106830000D01*
X120370000Y-107590000D02*
X114370000Y-107590000D01*
X120370000Y-107470000D02*
X114370000Y-107470000D01*
X120370000Y-107350000D02*
X114370000Y-107350000D01*
X120370000Y-107230000D02*
X114370000Y-107230000D01*
X120370000Y-107110000D02*
X114370000Y-107110000D01*
X120370000Y-106990000D02*
X114370000Y-106990000D01*
X120370000Y-106870000D02*
X114370000Y-106870000D01*
X123110000Y-106000000D02*
X123110000Y-103460000D01*
X123110000Y-103460000D02*
X120370000Y-103460000D01*
X120370000Y-103460000D02*
X120370000Y-106000000D01*
X120370000Y-106000000D02*
X123110000Y-106000000D01*
X120370000Y-105170000D02*
X120370000Y-104290000D01*
X120370000Y-104290000D02*
X114370000Y-104290000D01*
X114370000Y-104290000D02*
X114370000Y-105170000D01*
X114370000Y-105170000D02*
X120370000Y-105170000D01*
X123420000Y-105170000D02*
X123110000Y-105170000D01*
X123420000Y-104290000D02*
X123110000Y-104290000D01*
X123110000Y-103460000D02*
X123110000Y-100920000D01*
X123110000Y-100920000D02*
X120370000Y-100920000D01*
X120370000Y-100920000D02*
X120370000Y-103460000D01*
X120370000Y-103460000D02*
X123110000Y-103460000D01*
X120370000Y-102630000D02*
X120370000Y-101750000D01*
X120370000Y-101750000D02*
X114370000Y-101750000D01*
X114370000Y-101750000D02*
X114370000Y-102630000D01*
X114370000Y-102630000D02*
X120370000Y-102630000D01*
X123420000Y-102630000D02*
X123110000Y-102630000D01*
X123420000Y-101750000D02*
X123110000Y-101750000D01*
X123110000Y-100920000D02*
X123110000Y-98380000D01*
X123110000Y-98380000D02*
X120370000Y-98380000D01*
X120370000Y-98380000D02*
X120370000Y-100920000D01*
X120370000Y-100920000D02*
X123110000Y-100920000D01*
X120370000Y-100090000D02*
X120370000Y-99210000D01*
X120370000Y-99210000D02*
X114370000Y-99210000D01*
X114370000Y-99210000D02*
X114370000Y-100090000D01*
X114370000Y-100090000D02*
X120370000Y-100090000D01*
X123420000Y-100090000D02*
X123110000Y-100090000D01*
X123420000Y-99210000D02*
X123110000Y-99210000D01*
X123110000Y-98380000D02*
X123110000Y-95840000D01*
X123110000Y-95840000D02*
X120370000Y-95840000D01*
X120370000Y-95840000D02*
X120370000Y-98380000D01*
X120370000Y-98380000D02*
X123110000Y-98380000D01*
X120370000Y-97550000D02*
X120370000Y-96670000D01*
X120370000Y-96670000D02*
X114370000Y-96670000D01*
X114370000Y-96670000D02*
X114370000Y-97550000D01*
X114370000Y-97550000D02*
X120370000Y-97550000D01*
X123420000Y-97550000D02*
X123110000Y-97550000D01*
X123420000Y-96670000D02*
X123110000Y-96670000D01*
X123110000Y-95840000D02*
X123110000Y-93300000D01*
X123110000Y-93300000D02*
X120370000Y-93300000D01*
X120370000Y-93300000D02*
X120370000Y-95840000D01*
X120370000Y-95840000D02*
X123110000Y-95840000D01*
X120370000Y-95010000D02*
X120370000Y-94130000D01*
X120370000Y-94130000D02*
X114370000Y-94130000D01*
X114370000Y-94130000D02*
X114370000Y-95010000D01*
X114370000Y-95010000D02*
X120370000Y-95010000D01*
X123420000Y-95010000D02*
X123110000Y-95010000D01*
X123420000Y-94130000D02*
X123110000Y-94130000D01*
X123110000Y-93300000D02*
X123110000Y-90760000D01*
X123110000Y-90760000D02*
X120370000Y-90760000D01*
X120370000Y-90760000D02*
X120370000Y-93300000D01*
X120370000Y-93300000D02*
X123110000Y-93300000D01*
X120370000Y-92470000D02*
X120370000Y-91590000D01*
X120370000Y-91590000D02*
X114370000Y-91590000D01*
X114370000Y-91590000D02*
X114370000Y-92470000D01*
X114370000Y-92470000D02*
X120370000Y-92470000D01*
X123420000Y-92470000D02*
X123110000Y-92470000D01*
X123420000Y-91590000D02*
X123110000Y-91590000D01*
X123110000Y-90760000D02*
X123110000Y-88220000D01*
X123110000Y-88220000D02*
X120370000Y-88220000D01*
X120370000Y-88220000D02*
X120370000Y-90760000D01*
X120370000Y-90760000D02*
X123110000Y-90760000D01*
X120370000Y-89930000D02*
X120370000Y-89050000D01*
X120370000Y-89050000D02*
X114370000Y-89050000D01*
X114370000Y-89050000D02*
X114370000Y-89930000D01*
X114370000Y-89930000D02*
X120370000Y-89930000D01*
X123420000Y-89930000D02*
X123110000Y-89930000D01*
X123420000Y-89050000D02*
X123110000Y-89050000D01*
X123110000Y-88220000D02*
X123110000Y-85680000D01*
X123110000Y-85680000D02*
X120370000Y-85680000D01*
X120370000Y-85680000D02*
X120370000Y-88220000D01*
X120370000Y-88220000D02*
X123110000Y-88220000D01*
X120370000Y-87390000D02*
X120370000Y-86510000D01*
X120370000Y-86510000D02*
X114370000Y-86510000D01*
X114370000Y-86510000D02*
X114370000Y-87390000D01*
X114370000Y-87390000D02*
X120370000Y-87390000D01*
X123420000Y-87390000D02*
X123110000Y-87390000D01*
X123420000Y-86510000D02*
X123110000Y-86510000D01*
X123110000Y-85680000D02*
X123110000Y-83020000D01*
X123110000Y-83020000D02*
X120370000Y-83020000D01*
X120370000Y-83020000D02*
X120370000Y-85680000D01*
X120370000Y-85680000D02*
X123110000Y-85680000D01*
X120370000Y-84850000D02*
X120370000Y-83970000D01*
X120370000Y-83970000D02*
X114370000Y-83970000D01*
X114370000Y-83970000D02*
X114370000Y-84850000D01*
X114370000Y-84850000D02*
X120370000Y-84850000D01*
X123420000Y-84850000D02*
X123110000Y-84850000D01*
X123420000Y-83970000D02*
X123110000Y-83970000D01*
X125660000Y-107270000D02*
X125660000Y-108540000D01*
X125660000Y-108540000D02*
X124390000Y-108540000D01*
X179670000Y-72580000D02*
X149070000Y-72580000D01*
X149070000Y-72580000D02*
X149070000Y-75360000D01*
X149070000Y-75360000D02*
X179670000Y-75360000D01*
X179670000Y-75360000D02*
X179670000Y-72580000D01*
X180940000Y-72580000D02*
X182330000Y-72580000D01*
X182330000Y-72580000D02*
X182330000Y-73970000D01*
X181820000Y-106050000D02*
X181820000Y-112050000D01*
X181820000Y-112050000D02*
X189640000Y-112050000D01*
X189640000Y-112050000D02*
X189640000Y-106050000D01*
X189640000Y-106050000D02*
X181820000Y-106050000D01*
X183190000Y-112050000D02*
X183190000Y-111050000D01*
X183190000Y-111050000D02*
X188270000Y-111050000D01*
X188270000Y-111050000D02*
X188270000Y-112050000D01*
X183190000Y-111050000D02*
X183440000Y-110620000D01*
X183440000Y-110620000D02*
X188020000Y-110620000D01*
X188020000Y-110620000D02*
X188270000Y-111050000D01*
X183440000Y-112050000D02*
X183440000Y-111050000D01*
X188020000Y-112050000D02*
X188020000Y-111050000D01*
X182390000Y-106050000D02*
X182390000Y-106670000D01*
X182390000Y-106670000D02*
X183990000Y-106670000D01*
X183990000Y-106670000D02*
X183990000Y-106050000D01*
X184930000Y-106050000D02*
X184930000Y-106670000D01*
X184930000Y-106670000D02*
X186530000Y-106670000D01*
X186530000Y-106670000D02*
X186530000Y-106050000D01*
X187470000Y-106050000D02*
X187470000Y-106670000D01*
X187470000Y-106670000D02*
X189070000Y-106670000D01*
X189070000Y-106670000D02*
X189070000Y-106050000D01*
X169180000Y-66080000D02*
G75*
G02X169180000Y-64080000I0J1000000D01*
G01*
X169180000Y-64080000D02*
X169180000Y-62710000D01*
X169180000Y-62710000D02*
X148620000Y-62710000D01*
X148620000Y-62710000D02*
X148620000Y-67450000D01*
X148620000Y-67450000D02*
X169180000Y-67450000D01*
X169180000Y-67450000D02*
X169180000Y-66080000D01*
X164140000Y-92410000D02*
X164140000Y-94130000D01*
X164140000Y-94130000D02*
X167860000Y-94130000D01*
X167860000Y-94130000D02*
X167860000Y-92410000D01*
X167860000Y-92410000D02*
X164140000Y-92410000D01*
X163070000Y-93270000D02*
X164140000Y-93270000D01*
X168930000Y-93270000D02*
X167860000Y-93270000D01*
X152740000Y-92410000D02*
X152740000Y-94130000D01*
X152740000Y-94130000D02*
X156460000Y-94130000D01*
X156460000Y-94130000D02*
X156460000Y-92410000D01*
X156460000Y-92410000D02*
X152740000Y-92410000D01*
X151670000Y-93270000D02*
X152740000Y-93270000D01*
X157530000Y-93270000D02*
X156460000Y-93270000D01*
X156640000Y-98730000D02*
X156640000Y-97010000D01*
X156640000Y-97010000D02*
X152920000Y-97010000D01*
X152920000Y-97010000D02*
X152920000Y-98730000D01*
X152920000Y-98730000D02*
X156640000Y-98730000D01*
X157710000Y-97870000D02*
X156640000Y-97870000D01*
X151850000Y-97870000D02*
X152920000Y-97870000D01*
D16*
X167670000Y-91740000D02*
X157510000Y-91740000D01*
X157510000Y-89200000D02*
X167670000Y-89200000D01*
X167670000Y-89200000D02*
X167670000Y-91740000D01*
X158780000Y-90470000D02*
G75*
G03X157510000Y-89200000I-1270000J0D01*
G01*
X157510000Y-91740000D02*
G75*
G03X158780000Y-90470000I0J1270000D01*
G01*
X157510000Y-89200000D02*
X157510000Y-91740000D01*
X160070000Y-91740000D02*
X149910000Y-91740000D01*
X149910000Y-89200000D02*
X160070000Y-89200000D01*
X160070000Y-89200000D02*
X160070000Y-91740000D01*
X151180000Y-90470000D02*
G75*
G03X149910000Y-89200000I-1270000J0D01*
G01*
X149910000Y-91740000D02*
G75*
G03X151180000Y-90470000I0J1270000D01*
G01*
X149910000Y-89200000D02*
X149910000Y-91740000D01*
X167470000Y-101740000D02*
X157310000Y-101740000D01*
X157310000Y-99200000D02*
X167470000Y-99200000D01*
X167470000Y-99200000D02*
X167470000Y-101740000D01*
X158580000Y-100470000D02*
G75*
G03X157310000Y-99200000I-1270000J0D01*
G01*
X157310000Y-101740000D02*
G75*
G03X158580000Y-100470000I0J1270000D01*
G01*
X157310000Y-99200000D02*
X157310000Y-101740000D01*
X159870000Y-101740000D02*
X149710000Y-101740000D01*
X149710000Y-99200000D02*
X159870000Y-99200000D01*
X159870000Y-99200000D02*
X159870000Y-101740000D01*
X150980000Y-100470000D02*
G75*
G03X149710000Y-99200000I-1270000J0D01*
G01*
X149710000Y-101740000D02*
G75*
G03X150980000Y-100470000I0J1270000D01*
G01*
X149710000Y-99200000D02*
X149710000Y-101740000D01*
D15*
X163940000Y-102010000D02*
X163940000Y-103730000D01*
X163940000Y-103730000D02*
X167660000Y-103730000D01*
X167660000Y-103730000D02*
X167660000Y-102010000D01*
X167660000Y-102010000D02*
X163940000Y-102010000D01*
X162870000Y-102870000D02*
X163940000Y-102870000D01*
X168730000Y-102870000D02*
X167660000Y-102870000D01*
X152940000Y-102410000D02*
X152940000Y-104130000D01*
X152940000Y-104130000D02*
X156660000Y-104130000D01*
X156660000Y-104130000D02*
X156660000Y-102410000D01*
X156660000Y-102410000D02*
X152940000Y-102410000D01*
X151870000Y-103270000D02*
X152940000Y-103270000D01*
X157730000Y-103270000D02*
X156660000Y-103270000D01*
X167640000Y-98730000D02*
X167640000Y-97010000D01*
X167640000Y-97010000D02*
X163920000Y-97010000D01*
X163920000Y-97010000D02*
X163920000Y-98730000D01*
X163920000Y-98730000D02*
X167640000Y-98730000D01*
X168710000Y-97870000D02*
X167640000Y-97870000D01*
X162850000Y-97870000D02*
X163920000Y-97870000D01*
X163940000Y-87010000D02*
X163940000Y-88730000D01*
X163940000Y-88730000D02*
X167660000Y-88730000D01*
X167660000Y-88730000D02*
X167660000Y-87010000D01*
X167660000Y-87010000D02*
X163940000Y-87010000D01*
X162870000Y-87870000D02*
X163940000Y-87870000D01*
X168730000Y-87870000D02*
X167660000Y-87870000D01*
X156640000Y-88730000D02*
X156640000Y-87010000D01*
X156640000Y-87010000D02*
X152920000Y-87010000D01*
X152920000Y-87010000D02*
X152920000Y-88730000D01*
X152920000Y-88730000D02*
X156640000Y-88730000D01*
X157710000Y-87870000D02*
X156640000Y-87870000D01*
X151850000Y-87870000D02*
X152920000Y-87870000D01*
D16*
X175895000Y-99568000D02*
X175895000Y-91948000D01*
X173355000Y-91948000D02*
X173355000Y-99568000D01*
X173355000Y-91948000D02*
X175895000Y-91948000D01*
X174625000Y-98298000D02*
G75*
G03X173355000Y-99568000I0J-1270000D01*
G01*
X175895000Y-99568000D02*
G75*
G03X174625000Y-98298000I-1270000J0D01*
G01*
X173355000Y-99568000D02*
X175895000Y-99568000D01*
D13*
X145602960Y-115717320D02*
X145602960Y-121315480D01*
X146100800Y-121117360D02*
X145602960Y-121117360D01*
X145602960Y-115915440D02*
X146100800Y-115915440D01*
X146100800Y-118516400D02*
X145602960Y-118516400D01*
X140301980Y-121315480D02*
X140301980Y-115717320D01*
X146100800Y-121315480D02*
X146100800Y-115717320D01*
X146100800Y-115717320D02*
X139903200Y-115717320D01*
X139903200Y-115717320D02*
X139903200Y-121315480D01*
X139903200Y-121315480D02*
X146100800Y-121315480D01*
D15*
X149374000Y-81688000D02*
X148374000Y-80688000D01*
X144474000Y-108368000D02*
X149374000Y-108368000D01*
X149374000Y-108368000D02*
X149374000Y-81688000D01*
X148374000Y-80688000D02*
X144474000Y-80688000D01*
X144474000Y-80688000D02*
X144474000Y-108368000D01*
X129054000Y-81688000D02*
X128054000Y-80688000D01*
X124154000Y-108368000D02*
X129054000Y-108368000D01*
X129054000Y-108368000D02*
X129054000Y-81688000D01*
X128054000Y-80688000D02*
X124154000Y-80688000D01*
X124154000Y-80688000D02*
X124154000Y-108368000D01*
D13*
X169109105Y-65019981D02*
X169109105Y-64019981D01*
X169490058Y-64019981D01*
X169585296Y-64067600D01*
X169632915Y-64115219D01*
X169680534Y-64210457D01*
X169680534Y-64353314D01*
X169632915Y-64448552D01*
X169585296Y-64496171D01*
X169490058Y-64543790D01*
X169109105Y-64543790D01*
X170585296Y-64019981D02*
X170109105Y-64019981D01*
X170061486Y-64496171D01*
X170109105Y-64448552D01*
X170204343Y-64400933D01*
X170442439Y-64400933D01*
X170537677Y-64448552D01*
X170585296Y-64496171D01*
X170632915Y-64591410D01*
X170632915Y-64829505D01*
X170585296Y-64924743D01*
X170537677Y-64972362D01*
X170442439Y-65019981D01*
X170204343Y-65019981D01*
X170109105Y-64972362D01*
X170061486Y-64924743D01*
D17*
X174273334Y-69396190D02*
X174440001Y-69896190D01*
X174606667Y-69396190D01*
X174940000Y-69634286D02*
X175011429Y-69658095D01*
X175035238Y-69681905D01*
X175059048Y-69729524D01*
X175059048Y-69800952D01*
X175035238Y-69848571D01*
X175011429Y-69872381D01*
X174963810Y-69896190D01*
X174773334Y-69896190D01*
X174773334Y-69396190D01*
X174940000Y-69396190D01*
X174987619Y-69420000D01*
X175011429Y-69443810D01*
X175035238Y-69491429D01*
X175035238Y-69539048D01*
X175011429Y-69586667D01*
X174987619Y-69610476D01*
X174940000Y-69634286D01*
X174773334Y-69634286D01*
X175273334Y-69396190D02*
X175273334Y-69800952D01*
X175297143Y-69848571D01*
X175320953Y-69872381D01*
X175368572Y-69896190D01*
X175463810Y-69896190D01*
X175511429Y-69872381D01*
X175535238Y-69848571D01*
X175559048Y-69800952D01*
X175559048Y-69396190D01*
X175773334Y-69872381D02*
X175844763Y-69896190D01*
X175963810Y-69896190D01*
X176011429Y-69872381D01*
X176035239Y-69848571D01*
X176059048Y-69800952D01*
X176059048Y-69753333D01*
X176035239Y-69705714D01*
X176011429Y-69681905D01*
X175963810Y-69658095D01*
X175868572Y-69634286D01*
X175820953Y-69610476D01*
X175797144Y-69586667D01*
X175773334Y-69539048D01*
X175773334Y-69491429D01*
X175797144Y-69443810D01*
X175820953Y-69420000D01*
X175868572Y-69396190D01*
X175987620Y-69396190D01*
X176059048Y-69420000D01*
X174349524Y-68896190D02*
X174349524Y-68396190D01*
X174468571Y-68396190D01*
X174540000Y-68420000D01*
X174587619Y-68467619D01*
X174611428Y-68515238D01*
X174635238Y-68610476D01*
X174635238Y-68681905D01*
X174611428Y-68777143D01*
X174587619Y-68824762D01*
X174540000Y-68872381D01*
X174468571Y-68896190D01*
X174349524Y-68896190D01*
X174849524Y-68705714D02*
X175230476Y-68705714D01*
X174349524Y-68096190D02*
X174349524Y-67596190D01*
X174468571Y-67596190D01*
X174540000Y-67620000D01*
X174587619Y-67667619D01*
X174611428Y-67715238D01*
X174635238Y-67810476D01*
X174635238Y-67881905D01*
X174611428Y-67977143D01*
X174587619Y-68024762D01*
X174540000Y-68072381D01*
X174468571Y-68096190D01*
X174349524Y-68096190D01*
X174849524Y-67905714D02*
X175230476Y-67905714D01*
X175040000Y-68096190D02*
X175040000Y-67715238D01*
X174340001Y-67296190D02*
X174340001Y-66796190D01*
X174578096Y-67296190D02*
X174578096Y-66796190D01*
X174697143Y-66796190D01*
X174768572Y-66820000D01*
X174816191Y-66867619D01*
X174840000Y-66915238D01*
X174863810Y-67010476D01*
X174863810Y-67081905D01*
X174840000Y-67177143D01*
X174816191Y-67224762D01*
X174768572Y-67272381D01*
X174697143Y-67296190D01*
X174578096Y-67296190D01*
X174409047Y-65820000D02*
X174361428Y-65796190D01*
X174290000Y-65796190D01*
X174218571Y-65820000D01*
X174170952Y-65867619D01*
X174147143Y-65915238D01*
X174123333Y-66010476D01*
X174123333Y-66081905D01*
X174147143Y-66177143D01*
X174170952Y-66224762D01*
X174218571Y-66272381D01*
X174290000Y-66296190D01*
X174337619Y-66296190D01*
X174409047Y-66272381D01*
X174432857Y-66248571D01*
X174432857Y-66081905D01*
X174337619Y-66081905D01*
X174647143Y-66296190D02*
X174647143Y-65796190D01*
X174932857Y-66296190D01*
X174932857Y-65796190D01*
X175170953Y-66296190D02*
X175170953Y-65796190D01*
X175290000Y-65796190D01*
X175361429Y-65820000D01*
X175409048Y-65867619D01*
X175432857Y-65915238D01*
X175456667Y-66010476D01*
X175456667Y-66081905D01*
X175432857Y-66177143D01*
X175409048Y-66224762D01*
X175361429Y-66272381D01*
X175290000Y-66296190D01*
X175170953Y-66296190D01*
D18*
X158169429Y-120232714D02*
X158169429Y-120849571D01*
X158205714Y-120922143D01*
X158242000Y-120958429D01*
X158314571Y-120994714D01*
X158459714Y-120994714D01*
X158532286Y-120958429D01*
X158568571Y-120922143D01*
X158604857Y-120849571D01*
X158604857Y-120232714D01*
X158895143Y-120232714D02*
X159366857Y-120232714D01*
X159112857Y-120523000D01*
X159221715Y-120523000D01*
X159294286Y-120559286D01*
X159330572Y-120595571D01*
X159366857Y-120668143D01*
X159366857Y-120849571D01*
X159330572Y-120922143D01*
X159294286Y-120958429D01*
X159221715Y-120994714D01*
X159004000Y-120994714D01*
X158931429Y-120958429D01*
X158895143Y-120922143D01*
D13*
X164958805Y-110053381D02*
X164958805Y-109053381D01*
X165339758Y-109053381D01*
X165434996Y-109101000D01*
X165482615Y-109148619D01*
X165530234Y-109243857D01*
X165530234Y-109386714D01*
X165482615Y-109481952D01*
X165434996Y-109529571D01*
X165339758Y-109577190D01*
X164958805Y-109577190D01*
X166482615Y-110053381D02*
X165911186Y-110053381D01*
X166196900Y-110053381D02*
X166196900Y-109053381D01*
X166101662Y-109196238D01*
X166006424Y-109291476D01*
X165911186Y-109339095D01*
D15*
X150762615Y-119393381D02*
X150191186Y-119393381D01*
X150476900Y-119393381D02*
X150476900Y-118393381D01*
X150381662Y-118536238D01*
X150286424Y-118631476D01*
X150191186Y-118679095D01*
D13*
X126601905Y-108322381D02*
X126601905Y-107322381D01*
X126982858Y-107322381D01*
X127078096Y-107370000D01*
X127125715Y-107417619D01*
X127173334Y-107512857D01*
X127173334Y-107655714D01*
X127125715Y-107750952D01*
X127078096Y-107798571D01*
X126982858Y-107846190D01*
X126601905Y-107846190D01*
X127554286Y-107417619D02*
X127601905Y-107370000D01*
X127697143Y-107322381D01*
X127935239Y-107322381D01*
X128030477Y-107370000D01*
X128078096Y-107417619D01*
X128125715Y-107512857D01*
X128125715Y-107608095D01*
X128078096Y-107750952D01*
X127506667Y-108322381D01*
X128125715Y-108322381D01*
X182951905Y-74522381D02*
X182951905Y-73522381D01*
X183332858Y-73522381D01*
X183428096Y-73570000D01*
X183475715Y-73617619D01*
X183523334Y-73712857D01*
X183523334Y-73855714D01*
X183475715Y-73950952D01*
X183428096Y-73998571D01*
X183332858Y-74046190D01*
X182951905Y-74046190D01*
X183856667Y-73522381D02*
X184475715Y-73522381D01*
X184142381Y-73903333D01*
X184285239Y-73903333D01*
X184380477Y-73950952D01*
X184428096Y-73998571D01*
X184475715Y-74093810D01*
X184475715Y-74331905D01*
X184428096Y-74427143D01*
X184380477Y-74474762D01*
X184285239Y-74522381D01*
X183999524Y-74522381D01*
X183904286Y-74474762D01*
X183856667Y-74427143D01*
X183451905Y-105022381D02*
X183451905Y-104022381D01*
X183832858Y-104022381D01*
X183928096Y-104070000D01*
X183975715Y-104117619D01*
X184023334Y-104212857D01*
X184023334Y-104355714D01*
X183975715Y-104450952D01*
X183928096Y-104498571D01*
X183832858Y-104546190D01*
X183451905Y-104546190D01*
X184880477Y-104022381D02*
X184690000Y-104022381D01*
X184594762Y-104070000D01*
X184547143Y-104117619D01*
X184451905Y-104260476D01*
X184404286Y-104450952D01*
X184404286Y-104831905D01*
X184451905Y-104927143D01*
X184499524Y-104974762D01*
X184594762Y-105022381D01*
X184785239Y-105022381D01*
X184880477Y-104974762D01*
X184928096Y-104927143D01*
X184975715Y-104831905D01*
X184975715Y-104593810D01*
X184928096Y-104498571D01*
X184880477Y-104450952D01*
X184785239Y-104403333D01*
X184594762Y-104403333D01*
X184499524Y-104450952D01*
X184451905Y-104498571D01*
X184404286Y-104593810D01*
X169632381Y-65841905D02*
X170441905Y-65841905D01*
X170537143Y-65794286D01*
X170584762Y-65746667D01*
X170632381Y-65651429D01*
X170632381Y-65460952D01*
X170584762Y-65365714D01*
X170537143Y-65318095D01*
X170441905Y-65270476D01*
X169632381Y-65270476D01*
X169727619Y-64841905D02*
X169680000Y-64794286D01*
X169632381Y-64699048D01*
X169632381Y-64460952D01*
X169680000Y-64365714D01*
X169727619Y-64318095D01*
X169822857Y-64270476D01*
X169918095Y-64270476D01*
X170060952Y-64318095D01*
X170632381Y-64889524D01*
X170632381Y-64270476D01*
X165833334Y-91862381D02*
X165500000Y-91386190D01*
X165261905Y-91862381D02*
X165261905Y-90862381D01*
X165642858Y-90862381D01*
X165738096Y-90910000D01*
X165785715Y-90957619D01*
X165833334Y-91052857D01*
X165833334Y-91195714D01*
X165785715Y-91290952D01*
X165738096Y-91338571D01*
X165642858Y-91386190D01*
X165261905Y-91386190D01*
X166785715Y-91862381D02*
X166214286Y-91862381D01*
X166500000Y-91862381D02*
X166500000Y-90862381D01*
X166404762Y-91005238D01*
X166309524Y-91100476D01*
X166214286Y-91148095D01*
X154433334Y-91862381D02*
X154100000Y-91386190D01*
X153861905Y-91862381D02*
X153861905Y-90862381D01*
X154242858Y-90862381D01*
X154338096Y-90910000D01*
X154385715Y-90957619D01*
X154433334Y-91052857D01*
X154433334Y-91195714D01*
X154385715Y-91290952D01*
X154338096Y-91338571D01*
X154242858Y-91386190D01*
X153861905Y-91386190D01*
X154766667Y-90862381D02*
X155385715Y-90862381D01*
X155052381Y-91243333D01*
X155195239Y-91243333D01*
X155290477Y-91290952D01*
X155338096Y-91338571D01*
X155385715Y-91433810D01*
X155385715Y-91671905D01*
X155338096Y-91767143D01*
X155290477Y-91814762D01*
X155195239Y-91862381D01*
X154909524Y-91862381D01*
X154814286Y-91814762D01*
X154766667Y-91767143D01*
X154613334Y-100182381D02*
X154280000Y-99706190D01*
X154041905Y-100182381D02*
X154041905Y-99182381D01*
X154422858Y-99182381D01*
X154518096Y-99230000D01*
X154565715Y-99277619D01*
X154613334Y-99372857D01*
X154613334Y-99515714D01*
X154565715Y-99610952D01*
X154518096Y-99658571D01*
X154422858Y-99706190D01*
X154041905Y-99706190D01*
X154946667Y-99182381D02*
X155613334Y-99182381D01*
X155184762Y-100182381D01*
D18*
X162027572Y-93354714D02*
X162027572Y-92592714D01*
X162209000Y-92592714D01*
X162317857Y-92629000D01*
X162390429Y-92701571D01*
X162426714Y-92774143D01*
X162463000Y-92919286D01*
X162463000Y-93028143D01*
X162426714Y-93173286D01*
X162390429Y-93245857D01*
X162317857Y-93318429D01*
X162209000Y-93354714D01*
X162027572Y-93354714D01*
X163188714Y-93354714D02*
X162753286Y-93354714D01*
X162971000Y-93354714D02*
X162971000Y-92592714D01*
X162898429Y-92701571D01*
X162825857Y-92774143D01*
X162753286Y-92810429D01*
X154427572Y-93354714D02*
X154427572Y-92592714D01*
X154609000Y-92592714D01*
X154717857Y-92629000D01*
X154790429Y-92701571D01*
X154826714Y-92774143D01*
X154863000Y-92919286D01*
X154863000Y-93028143D01*
X154826714Y-93173286D01*
X154790429Y-93245857D01*
X154717857Y-93318429D01*
X154609000Y-93354714D01*
X154427572Y-93354714D01*
X155153286Y-92665286D02*
X155189572Y-92629000D01*
X155262143Y-92592714D01*
X155443572Y-92592714D01*
X155516143Y-92629000D01*
X155552429Y-92665286D01*
X155588714Y-92737857D01*
X155588714Y-92810429D01*
X155552429Y-92919286D01*
X155117000Y-93354714D01*
X155588714Y-93354714D01*
X161827572Y-103354714D02*
X161827572Y-102592714D01*
X162009000Y-102592714D01*
X162117857Y-102629000D01*
X162190429Y-102701571D01*
X162226714Y-102774143D01*
X162263000Y-102919286D01*
X162263000Y-103028143D01*
X162226714Y-103173286D01*
X162190429Y-103245857D01*
X162117857Y-103318429D01*
X162009000Y-103354714D01*
X161827572Y-103354714D01*
X162517000Y-102592714D02*
X162988714Y-102592714D01*
X162734714Y-102883000D01*
X162843572Y-102883000D01*
X162916143Y-102919286D01*
X162952429Y-102955571D01*
X162988714Y-103028143D01*
X162988714Y-103209571D01*
X162952429Y-103282143D01*
X162916143Y-103318429D01*
X162843572Y-103354714D01*
X162625857Y-103354714D01*
X162553286Y-103318429D01*
X162517000Y-103282143D01*
X154227572Y-103354714D02*
X154227572Y-102592714D01*
X154409000Y-102592714D01*
X154517857Y-102629000D01*
X154590429Y-102701571D01*
X154626714Y-102774143D01*
X154663000Y-102919286D01*
X154663000Y-103028143D01*
X154626714Y-103173286D01*
X154590429Y-103245857D01*
X154517857Y-103318429D01*
X154409000Y-103354714D01*
X154227572Y-103354714D01*
X155316143Y-102846714D02*
X155316143Y-103354714D01*
X155134714Y-102556429D02*
X154953286Y-103100714D01*
X155425000Y-103100714D01*
D13*
X165633334Y-101462381D02*
X165300000Y-100986190D01*
X165061905Y-101462381D02*
X165061905Y-100462381D01*
X165442858Y-100462381D01*
X165538096Y-100510000D01*
X165585715Y-100557619D01*
X165633334Y-100652857D01*
X165633334Y-100795714D01*
X165585715Y-100890952D01*
X165538096Y-100938571D01*
X165442858Y-100986190D01*
X165061905Y-100986190D01*
X166014286Y-100557619D02*
X166061905Y-100510000D01*
X166157143Y-100462381D01*
X166395239Y-100462381D01*
X166490477Y-100510000D01*
X166538096Y-100557619D01*
X166585715Y-100652857D01*
X166585715Y-100748095D01*
X166538096Y-100890952D01*
X165966667Y-101462381D01*
X166585715Y-101462381D01*
X154633334Y-101862381D02*
X154300000Y-101386190D01*
X154061905Y-101862381D02*
X154061905Y-100862381D01*
X154442858Y-100862381D01*
X154538096Y-100910000D01*
X154585715Y-100957619D01*
X154633334Y-101052857D01*
X154633334Y-101195714D01*
X154585715Y-101290952D01*
X154538096Y-101338571D01*
X154442858Y-101386190D01*
X154061905Y-101386190D01*
X155490477Y-101195714D02*
X155490477Y-101862381D01*
X155252381Y-100814762D02*
X155014286Y-101529048D01*
X155633334Y-101529048D01*
X165613334Y-100182381D02*
X165280000Y-99706190D01*
X165041905Y-100182381D02*
X165041905Y-99182381D01*
X165422858Y-99182381D01*
X165518096Y-99230000D01*
X165565715Y-99277619D01*
X165613334Y-99372857D01*
X165613334Y-99515714D01*
X165565715Y-99610952D01*
X165518096Y-99658571D01*
X165422858Y-99706190D01*
X165041905Y-99706190D01*
X166518096Y-99182381D02*
X166041905Y-99182381D01*
X165994286Y-99658571D01*
X166041905Y-99610952D01*
X166137143Y-99563333D01*
X166375239Y-99563333D01*
X166470477Y-99610952D01*
X166518096Y-99658571D01*
X166565715Y-99753810D01*
X166565715Y-99991905D01*
X166518096Y-100087143D01*
X166470477Y-100134762D01*
X166375239Y-100182381D01*
X166137143Y-100182381D01*
X166041905Y-100134762D01*
X165994286Y-100087143D01*
X165633334Y-86462381D02*
X165300000Y-85986190D01*
X165061905Y-86462381D02*
X165061905Y-85462381D01*
X165442858Y-85462381D01*
X165538096Y-85510000D01*
X165585715Y-85557619D01*
X165633334Y-85652857D01*
X165633334Y-85795714D01*
X165585715Y-85890952D01*
X165538096Y-85938571D01*
X165442858Y-85986190D01*
X165061905Y-85986190D01*
X166490477Y-85462381D02*
X166300000Y-85462381D01*
X166204762Y-85510000D01*
X166157143Y-85557619D01*
X166061905Y-85700476D01*
X166014286Y-85890952D01*
X166014286Y-86271905D01*
X166061905Y-86367143D01*
X166109524Y-86414762D01*
X166204762Y-86462381D01*
X166395239Y-86462381D01*
X166490477Y-86414762D01*
X166538096Y-86367143D01*
X166585715Y-86271905D01*
X166585715Y-86033810D01*
X166538096Y-85938571D01*
X166490477Y-85890952D01*
X166395239Y-85843333D01*
X166204762Y-85843333D01*
X166109524Y-85890952D01*
X166061905Y-85938571D01*
X166014286Y-86033810D01*
X154613334Y-90182381D02*
X154280000Y-89706190D01*
X154041905Y-90182381D02*
X154041905Y-89182381D01*
X154422858Y-89182381D01*
X154518096Y-89230000D01*
X154565715Y-89277619D01*
X154613334Y-89372857D01*
X154613334Y-89515714D01*
X154565715Y-89610952D01*
X154518096Y-89658571D01*
X154422858Y-89706190D01*
X154041905Y-89706190D01*
X155184762Y-89610952D02*
X155089524Y-89563333D01*
X155041905Y-89515714D01*
X154994286Y-89420476D01*
X154994286Y-89372857D01*
X155041905Y-89277619D01*
X155089524Y-89230000D01*
X155184762Y-89182381D01*
X155375239Y-89182381D01*
X155470477Y-89230000D01*
X155518096Y-89277619D01*
X155565715Y-89372857D01*
X155565715Y-89420476D01*
X155518096Y-89515714D01*
X155470477Y-89563333D01*
X155375239Y-89610952D01*
X155184762Y-89610952D01*
X155089524Y-89658571D01*
X155041905Y-89706190D01*
X154994286Y-89801429D01*
X154994286Y-89991905D01*
X155041905Y-90087143D01*
X155089524Y-90134762D01*
X155184762Y-90182381D01*
X155375239Y-90182381D01*
X155470477Y-90134762D01*
X155518096Y-90087143D01*
X155565715Y-89991905D01*
X155565715Y-89801429D01*
X155518096Y-89706190D01*
X155470477Y-89658571D01*
X155375239Y-89610952D01*
D18*
X177509714Y-96320428D02*
X176747714Y-96320428D01*
X176747714Y-96030143D01*
X176784000Y-95957571D01*
X176820286Y-95921286D01*
X176892857Y-95885000D01*
X177001714Y-95885000D01*
X177074286Y-95921286D01*
X177110571Y-95957571D01*
X177146857Y-96030143D01*
X177146857Y-96320428D01*
X177001714Y-95231857D02*
X177509714Y-95231857D01*
X176711429Y-95413286D02*
X177255714Y-95594714D01*
X177255714Y-95123000D01*
D13*
X138953501Y-119254495D02*
X137953501Y-119254495D01*
X137953501Y-118873542D01*
X138001120Y-118778304D01*
X138048739Y-118730685D01*
X138143977Y-118683066D01*
X138286834Y-118683066D01*
X138382072Y-118730685D01*
X138429691Y-118778304D01*
X138477310Y-118873542D01*
X138477310Y-119254495D01*
X138382072Y-118111638D02*
X138334453Y-118206876D01*
X138286834Y-118254495D01*
X138191596Y-118302114D01*
X138143977Y-118302114D01*
X138048739Y-118254495D01*
X138001120Y-118206876D01*
X137953501Y-118111638D01*
X137953501Y-117921161D01*
X138001120Y-117825923D01*
X138048739Y-117778304D01*
X138143977Y-117730685D01*
X138191596Y-117730685D01*
X138286834Y-117778304D01*
X138334453Y-117825923D01*
X138382072Y-117921161D01*
X138382072Y-118111638D01*
X138429691Y-118206876D01*
X138477310Y-118254495D01*
X138572549Y-118302114D01*
X138763025Y-118302114D01*
X138858263Y-118254495D01*
X138905882Y-118206876D01*
X138953501Y-118111638D01*
X138953501Y-117921161D01*
X138905882Y-117825923D01*
X138858263Y-117778304D01*
X138763025Y-117730685D01*
X138572549Y-117730685D01*
X138477310Y-117778304D01*
X138429691Y-117825923D01*
X138382072Y-117921161D01*
X144216381Y-95226095D02*
X143216381Y-95226095D01*
X143216381Y-94845142D01*
X143264000Y-94749904D01*
X143311619Y-94702285D01*
X143406857Y-94654666D01*
X143549714Y-94654666D01*
X143644952Y-94702285D01*
X143692571Y-94749904D01*
X143740190Y-94845142D01*
X143740190Y-95226095D01*
X143216381Y-94321333D02*
X143216381Y-93654666D01*
X144216381Y-94083238D01*
X123896381Y-95226095D02*
X122896381Y-95226095D01*
X122896381Y-94845142D01*
X122944000Y-94749904D01*
X122991619Y-94702285D01*
X123086857Y-94654666D01*
X123229714Y-94654666D01*
X123324952Y-94702285D01*
X123372571Y-94749904D01*
X123420190Y-94845142D01*
X123420190Y-95226095D01*
X123896381Y-94178476D02*
X123896381Y-93988000D01*
X123848762Y-93892761D01*
X123801143Y-93845142D01*
X123658286Y-93749904D01*
X123467810Y-93702285D01*
X123086857Y-93702285D01*
X122991619Y-93749904D01*
X122944000Y-93797523D01*
X122896381Y-93892761D01*
X122896381Y-94083238D01*
X122944000Y-94178476D01*
X122991619Y-94226095D01*
X123086857Y-94273714D01*
X123324952Y-94273714D01*
X123420190Y-94226095D01*
X123467810Y-94178476D01*
X123515429Y-94083238D01*
X123515429Y-93892761D01*
X123467810Y-93797523D01*
X123420190Y-93749904D01*
X123324952Y-93702285D01*
X177000067Y-64816381D02*
X176666733Y-64340190D01*
X176428638Y-64816381D02*
X176428638Y-63816381D01*
X176809591Y-63816381D01*
X176904829Y-63864000D01*
X176952448Y-63911619D01*
X177000067Y-64006857D01*
X177000067Y-64149714D01*
X176952448Y-64244952D01*
X176904829Y-64292571D01*
X176809591Y-64340190D01*
X176428638Y-64340190D01*
X177428638Y-64292571D02*
X177761972Y-64292571D01*
X177904829Y-64816381D02*
X177428638Y-64816381D01*
X177428638Y-63816381D01*
X177904829Y-63816381D01*
X178666734Y-64292571D02*
X178333400Y-64292571D01*
X178333400Y-64816381D02*
X178333400Y-63816381D01*
X178809591Y-63816381D01*
X179333400Y-63816381D02*
X179333400Y-64054476D01*
X179095305Y-63959238D02*
X179333400Y-64054476D01*
X179571496Y-63959238D01*
X179190543Y-64244952D02*
X179333400Y-64054476D01*
X179476258Y-64244952D01*
X180095305Y-63816381D02*
X180095305Y-64054476D01*
X179857210Y-63959238D02*
X180095305Y-64054476D01*
X180333401Y-63959238D01*
X179952448Y-64244952D02*
X180095305Y-64054476D01*
X180238163Y-64244952D01*
X137604667Y-120213781D02*
X137271333Y-119737590D01*
X137033238Y-120213781D02*
X137033238Y-119213781D01*
X137414191Y-119213781D01*
X137509429Y-119261400D01*
X137557048Y-119309019D01*
X137604667Y-119404257D01*
X137604667Y-119547114D01*
X137557048Y-119642352D01*
X137509429Y-119689971D01*
X137414191Y-119737590D01*
X137033238Y-119737590D01*
X138033238Y-119689971D02*
X138366572Y-119689971D01*
X138509429Y-120213781D02*
X138033238Y-120213781D01*
X138033238Y-119213781D01*
X138509429Y-119213781D01*
X139271334Y-119689971D02*
X138938000Y-119689971D01*
X138938000Y-120213781D02*
X138938000Y-119213781D01*
X139414191Y-119213781D01*
X139938000Y-119213781D02*
X139938000Y-119451876D01*
X139699905Y-119356638D02*
X139938000Y-119451876D01*
X140176096Y-119356638D01*
X139795143Y-119642352D02*
X139938000Y-119451876D01*
X140080858Y-119642352D01*
X140699905Y-119213781D02*
X140699905Y-119451876D01*
X140461810Y-119356638D02*
X140699905Y-119451876D01*
X140938001Y-119356638D01*
X140557048Y-119642352D02*
X140699905Y-119451876D01*
X140842763Y-119642352D01*
X176974667Y-120188381D02*
X176641333Y-119712190D01*
X176403238Y-120188381D02*
X176403238Y-119188381D01*
X176784191Y-119188381D01*
X176879429Y-119236000D01*
X176927048Y-119283619D01*
X176974667Y-119378857D01*
X176974667Y-119521714D01*
X176927048Y-119616952D01*
X176879429Y-119664571D01*
X176784191Y-119712190D01*
X176403238Y-119712190D01*
X177403238Y-119664571D02*
X177736572Y-119664571D01*
X177879429Y-120188381D02*
X177403238Y-120188381D01*
X177403238Y-119188381D01*
X177879429Y-119188381D01*
X178641334Y-119664571D02*
X178308000Y-119664571D01*
X178308000Y-120188381D02*
X178308000Y-119188381D01*
X178784191Y-119188381D01*
X179308000Y-119188381D02*
X179308000Y-119426476D01*
X179069905Y-119331238D02*
X179308000Y-119426476D01*
X179546096Y-119331238D01*
X179165143Y-119616952D02*
X179308000Y-119426476D01*
X179450858Y-119616952D01*
X180069905Y-119188381D02*
X180069905Y-119426476D01*
X179831810Y-119331238D02*
X180069905Y-119426476D01*
X180308001Y-119331238D01*
X179927048Y-119616952D02*
X180069905Y-119426476D01*
X180212763Y-119616952D01*
M02*
