G04 #@! TF.FileFunction,Other,User*
%FSLAX46Y46*%
G04 Gerber Fmt 4.6, Leading zero omitted, Abs format (unit mm)*
G04 Created by KiCad (PCBNEW 4.0.5-e0-6337~49~ubuntu16.04.1) date Wed Jan 25 22:29:53 2017*
%MOMM*%
%LPD*%
G01*
G04 APERTURE LIST*
%ADD10C,0.100000*%
%ADD11C,0.050000*%
G04 APERTURE END LIST*
D10*
D11*
X180950000Y-123037600D02*
G75*
G03X180950000Y-123037600I-2750000J0D01*
G01*
X180950000Y-67800000D02*
G75*
G03X180950000Y-67800000I-2750000J0D01*
G01*
X144876900Y-110901000D02*
X186516900Y-110901000D01*
X186516900Y-110901000D02*
X186516900Y-121001000D01*
X186516900Y-121001000D02*
X144876900Y-121001000D01*
X144876900Y-121001000D02*
X144876900Y-110901000D01*
X141586400Y-67818000D02*
G75*
G03X141586400Y-67818000I-2750000J0D01*
G01*
X141586400Y-123000000D02*
G75*
G03X141586400Y-123000000I-2750000J0D01*
G01*
X154051200Y-122297200D02*
X154051200Y-124597200D01*
X154051200Y-124597200D02*
X163601200Y-124597200D01*
X163601200Y-124597200D02*
X163601200Y-122297200D01*
X163601200Y-122297200D02*
X154051200Y-122297200D01*
X154051200Y-124897200D02*
X154051200Y-127197200D01*
X154051200Y-127197200D02*
X163601200Y-127197200D01*
X163601200Y-127197200D02*
X163601200Y-124897200D01*
X163601200Y-124897200D02*
X154051200Y-124897200D01*
X154051200Y-129897200D02*
X154051200Y-132197200D01*
X154051200Y-132197200D02*
X163601200Y-132197200D01*
X163601200Y-132197200D02*
X163601200Y-129897200D01*
X163601200Y-129897200D02*
X154051200Y-129897200D01*
X154051200Y-127397200D02*
X154051200Y-129697200D01*
X154051200Y-129697200D02*
X163601200Y-129697200D01*
X163601200Y-129697200D02*
X163601200Y-127397200D01*
X163601200Y-127397200D02*
X154051200Y-127397200D01*
X152093200Y-87640000D02*
X152093200Y-93140000D01*
X152093200Y-93140000D02*
X157543200Y-93140000D01*
X157543200Y-93140000D02*
X157543200Y-87640000D01*
X157543200Y-87640000D02*
X152093200Y-87640000D01*
X162093200Y-87640000D02*
X162093200Y-93140000D01*
X162093200Y-93140000D02*
X167543200Y-93140000D01*
X167543200Y-93140000D02*
X167543200Y-87640000D01*
X167543200Y-87640000D02*
X162093200Y-87640000D01*
X162093200Y-97640000D02*
X162093200Y-103140000D01*
X162093200Y-103140000D02*
X167543200Y-103140000D01*
X167543200Y-103140000D02*
X167543200Y-97640000D01*
X167543200Y-97640000D02*
X162093200Y-97640000D01*
X152093200Y-97640000D02*
X152093200Y-103140000D01*
X152093200Y-103140000D02*
X157543200Y-103140000D01*
X157543200Y-103140000D02*
X157543200Y-97640000D01*
X157543200Y-97640000D02*
X152093200Y-97640000D01*
X127390000Y-108770000D02*
X127390000Y-82770000D01*
X127390000Y-82770000D02*
X115590000Y-82770000D01*
X115590000Y-82770000D02*
X115590000Y-108770000D01*
X115590000Y-108770000D02*
X127390000Y-108770000D01*
X182540000Y-72370000D02*
X148940000Y-72370000D01*
X148940000Y-72370000D02*
X148940000Y-75570000D01*
X148940000Y-75570000D02*
X182540000Y-75570000D01*
X182540000Y-75570000D02*
X182540000Y-72370000D01*
M02*
