M48
INCH,TZ
T1C0.016
T2C0.028
T3C0.030
T4C0.031
T5C0.035
T6C0.039
T7C0.040
T8C0.043
T9C0.047
%
G90
G05
T1
X51100Y-41150
X51450Y-40090
X52319Y-39594
X53460Y-45490
X53461Y-32272
X54287Y-34358
X54560Y-45070
X54563Y-37154
X54720Y-40854
X55587Y-40067
X55587Y-41130
X55783Y-32980
X56217Y-40421
X56374Y-35067
X56689Y-36209
X59091Y-32665
X61768Y-43728
X62260Y-39535
X62791Y-43020
X63657Y-42941
X64248Y-33768
X64720Y-44240
X65626Y-32429
X65626Y-42547
X65744Y-31169
X66450Y-44150
X67240Y-31524
X67950Y-43300
X69700Y-47900
T2
X59366Y-36720
X59437Y-34594
X59437Y-38531
X59445Y-40657
X62366Y-36720
X62437Y-34594
X62437Y-38531
X62445Y-40657
X63768Y-38531
X63776Y-34594
X63776Y-40500
X63854Y-36720
X66768Y-38531
X66776Y-34594
X66776Y-40500
X66854Y-36720
T3
X67791Y-26091
X67791Y-26720
X67791Y-27350
X68264Y-26406
X68264Y-27035
T4
X59059Y-24122
X59059Y-27122
X60059Y-24122
X60059Y-27122
X61059Y-24122
X61059Y-27122
X62059Y-24122
X62059Y-27122
X63059Y-24122
X63059Y-27122
X64059Y-24122
X64059Y-27122
X65059Y-24122
X65059Y-27122
X66059Y-24122
X66059Y-27122
T5
X59000Y-48500
X59000Y-51500
X59941Y-39555
X60000Y-48500
X60000Y-51500
X60020Y-35618
X60941Y-39555
X61000Y-48500
X61000Y-51500
X61020Y-35618
X61941Y-39555
X62000Y-48500
X62000Y-51500
X62020Y-35618
X62933Y-39555
X63000Y-48500
X63000Y-51500
X63012Y-35618
X63933Y-39555
X64000Y-48500
X64000Y-51500
X64012Y-35618
X64933Y-39555
X65000Y-48500
X65000Y-51500
X65012Y-35618
X66000Y-48500
X66000Y-51500
X68750Y-37200
X68750Y-38200
T6
X48972Y-33232
X48972Y-34232
X48972Y-35232
X48972Y-36232
X48972Y-37232
X48972Y-38232
X48972Y-39232
X48972Y-40232
X48972Y-41232
X48972Y-42232
X59236Y-29122
X60236Y-29122
X61236Y-29122
X62236Y-29122
X63236Y-29122
X64236Y-29122
X65236Y-29122
X66236Y-29122
X67236Y-29122
X68236Y-29122
X69236Y-29122
X70236Y-29122
X71236Y-29122
T7
X59235Y-45150
X59235Y-46150
X60235Y-45150
X60235Y-46150
X61235Y-45150
X61235Y-46150
X62235Y-45150
X62235Y-46150
X63235Y-45150
X63235Y-46150
X64235Y-45150
X64235Y-46150
X65235Y-45150
X65235Y-46150
X66235Y-45150
X66235Y-46150
X67235Y-45150
X67235Y-46150
X68235Y-45150
X68235Y-46150
X69235Y-45150
X69235Y-46150
X70235Y-45150
X70235Y-46150
X71235Y-45150
X71235Y-46150
T8
X56300Y-46160
X56300Y-47160
T9
X50100Y-32700
X50100Y-33700
X50100Y-34700
X50100Y-35700
X50100Y-36700
X50100Y-37700
X50100Y-38700
X50100Y-39700
X50100Y-40700
X50100Y-41700
X58100Y-32700
X58100Y-33700
X58100Y-34700
X58100Y-35700
X58100Y-36700
X58100Y-37700
X58100Y-38700
X58100Y-39700
X58100Y-40700
X58100Y-41700
X72122Y-42941
X73122Y-42941
X74122Y-42941
T2
X69543Y-25283G85X70016Y-25283
G05
T0
M30
