<?xml version="1.0" standalone="no"?>
 <!DOCTYPE svg PUBLIC "-//W3C//DTD SVG 1.1//EN" 
 "http://www.w3.org/Graphics/SVG/1.1/DTD/svg11.dtd"> 
<svg xmlns="http://www.w3.org/2000/svg" version="1.1" 
    width="29.7002cm" height="21.0007cm" viewBox="0 0 116930 82680 ">
<title>SVG Picture created as Reactor-Dwgs.User.svg date 2017/01/20 17:42:42 </title>
  <desc>Picture generated by PCBNEW </desc>
<g style="fill:#000000; fill-opacity:1;stroke:#000000; stroke-opacity:1;
stroke-linecap:round; stroke-linejoin:round; "
 transform="translate(0 0) scale(1 1)">
</g>
<g style="fill:#000000; fill-opacity:0.0; 
stroke:#000000; stroke-width:-0.000393701; stroke-opacity:1; 
stroke-linecap:round; stroke-linejoin:round;">
</g>
<g style="fill:#000000; fill-opacity:0.0; 
stroke:#000000; stroke-width:39.3701; stroke-opacity:1; 
stroke-linecap:round; stroke-linejoin:round;">
<path d="M53839 35810
L48327 35810
" />
<path d="M53839 41322
L53839 35810
" />
<path d="M48327 41322
L53839 41322
" />
<path d="M48327 35810
L48327 41322
" />
<path d="M53681 35810
L53839 35968
" />
<path d="M53760 35810
L53839 35889
" />
<path d="M53692.6 35673 A49.6799 49.6799 0.0 1 0 53593.2 35673 " />
<path d="M53593.2 35673 A49.6799 49.6799 0.0 0 0 53692.6 35673 " />
<circle cx="53642.9" cy="41125.7" r="55" /> 
<circle cx="53130.8" cy="41125.7" r="55" /> 
<circle cx="53386.8" cy="41125.7" r="55" /> 
<circle cx="52363.8" cy="41125.7" r="55" /> 
<circle cx="52618.8" cy="41125.7" r="55" /> 
<circle cx="51851.8" cy="41125.7" r="55" /> 
<circle cx="51083.8" cy="41125.7" r="55" /> 
<circle cx="51595.8" cy="41125.7" r="55" /> 
<circle cx="50827.9" cy="41125.7" r="55" /> 
<circle cx="50059.8" cy="41125.7" r="55" /> 
<circle cx="50315.8" cy="41125.7" r="55" /> 
<circle cx="49292.9" cy="41125.7" r="55" /> 
<circle cx="49548.8" cy="41125.7" r="55" /> 
<circle cx="48780.8" cy="41125.7" r="55" /> 
<circle cx="49036.8" cy="41125.7" r="55" /> 
<circle cx="48524.8" cy="41125.7" r="55" /> 
<circle cx="53642.9" cy="40869.7" r="55" /> 
<circle cx="53642.9" cy="40613.7" r="55" /> 
<circle cx="52874.8" cy="40869.7" r="55" /> 
<circle cx="52874.8" cy="40613.7" r="55" /> 
<circle cx="53130.8" cy="40869.7" r="55" /> 
<circle cx="53130.8" cy="40613.7" r="55" /> 
<circle cx="53386.8" cy="40869.7" r="55" /> 
<circle cx="53386.8" cy="40613.7" r="55" /> 
<circle cx="52363.8" cy="40869.7" r="55" /> 
<circle cx="52363.8" cy="40613.7" r="55" /> 
<circle cx="52618.8" cy="40869.7" r="55" /> 
<circle cx="52618.8" cy="40613.7" r="55" /> 
<circle cx="51851.8" cy="40869.7" r="55" /> 
<circle cx="51851.8" cy="40613.7" r="55" /> 
<circle cx="52107.9" cy="40869.7" r="55" /> 
<circle cx="51083.8" cy="40869.7" r="55" /> 
<circle cx="51083.8" cy="40613.7" r="55" /> 
<circle cx="51339.8" cy="40869.7" r="55" /> 
<circle cx="51595.8" cy="40869.7" r="55" /> 
<circle cx="51595.8" cy="40613.7" r="55" /> 
<circle cx="50571.8" cy="40869.7" r="55" /> 
<circle cx="50571.8" cy="40613.7" r="55" /> 
<circle cx="50827.9" cy="40869.7" r="55" /> 
<circle cx="50827.9" cy="40613.7" r="55" /> 
<circle cx="50059.8" cy="40869.7" r="55" /> 
<circle cx="50059.8" cy="40613.7" r="55" /> 
<circle cx="50315.8" cy="40869.7" r="55" /> 
<circle cx="50315.8" cy="40613.7" r="55" /> 
<circle cx="49292.9" cy="40869.7" r="55" /> 
<circle cx="49292.9" cy="40613.7" r="55" /> 
<circle cx="49548.8" cy="40869.7" r="55" /> 
<circle cx="49548.8" cy="40613.7" r="55" /> 
<circle cx="49803.8" cy="40869.7" r="55" /> 
<circle cx="48780.8" cy="40869.7" r="55" /> 
<circle cx="48780.8" cy="40613.7" r="55" /> 
<circle cx="49036.8" cy="40869.7" r="55" /> 
<circle cx="48524.8" cy="40869.7" r="55" /> 
<circle cx="48524.8" cy="40613.7" r="55" /> 
<circle cx="53642.9" cy="40101.7" r="55" /> 
<circle cx="53642.9" cy="39846.7" r="55" /> 
<circle cx="52874.8" cy="40101.7" r="55" /> 
<circle cx="53130.8" cy="40357.7" r="55" /> 
<circle cx="53130.8" cy="40101.7" r="55" /> 
<circle cx="53130.8" cy="39846.7" r="55" /> 
<circle cx="53386.8" cy="40357.7" r="55" /> 
<circle cx="53386.8" cy="40101.7" r="55" /> 
<circle cx="53386.8" cy="39846.7" r="55" /> 
<circle cx="52363.8" cy="40357.7" r="55" /> 
<circle cx="52363.8" cy="40101.7" r="55" /> 
<circle cx="52363.8" cy="39846.7" r="55" /> 
<circle cx="52618.8" cy="40357.7" r="55" /> 
<circle cx="52618.8" cy="39846.7" r="55" /> 
<circle cx="51851.8" cy="40357.7" r="55" /> 
<circle cx="51851.8" cy="40101.7" r="55" /> 
<circle cx="51851.8" cy="39846.7" r="55" /> 
<circle cx="52107.9" cy="40357.7" r="55" /> 
<circle cx="51083.8" cy="40357.7" r="55" /> 
<circle cx="51083.8" cy="40101.7" r="55" /> 
<circle cx="51083.8" cy="39846.7" r="55" /> 
<circle cx="51339.8" cy="40357.7" r="55" /> 
<circle cx="51339.8" cy="40101.7" r="55" /> 
<circle cx="51339.8" cy="39846.7" r="55" /> 
<circle cx="51595.8" cy="39846.7" r="55" /> 
<circle cx="50571.8" cy="40101.7" r="55" /> 
<circle cx="50571.8" cy="39846.7" r="55" /> 
<circle cx="50827.9" cy="39846.7" r="55" /> 
<circle cx="50059.8" cy="40357.7" r="55" /> 
<circle cx="50059.8" cy="40101.7" r="55" /> 
<circle cx="50059.8" cy="39846.7" r="55" /> 
<circle cx="50315.8" cy="40101.7" r="55" /> 
<circle cx="50315.8" cy="39846.7" r="55" /> 
<circle cx="49292.9" cy="40101.7" r="55" /> 
<circle cx="49548.8" cy="40357.7" r="55" /> 
<circle cx="49548.8" cy="39846.7" r="55" /> 
<circle cx="49803.8" cy="40357.7" r="55" /> 
<circle cx="49803.8" cy="40101.7" r="55" /> 
<circle cx="49803.8" cy="39846.7" r="55" /> 
<circle cx="48780.8" cy="40357.7" r="55" /> 
<circle cx="48780.8" cy="40101.7" r="55" /> 
<circle cx="48780.8" cy="39846.7" r="55" /> 
<circle cx="49036.8" cy="40357.7" r="55" /> 
<circle cx="49036.8" cy="40101.7" r="55" /> 
<circle cx="48524.8" cy="40357.7" r="55" /> 
<circle cx="48524.8" cy="40101.7" r="55" /> 
<circle cx="53642.9" cy="39334.7" r="55" /> 
<circle cx="52874.8" cy="39590.7" r="55" /> 
<circle cx="53130.8" cy="39590.7" r="55" /> 
<circle cx="53130.8" cy="39334.7" r="55" /> 
<circle cx="53386.8" cy="39590.7" r="55" /> 
<circle cx="53386.8" cy="39334.7" r="55" /> 
<circle cx="52363.8" cy="39334.7" r="55" /> 
<circle cx="52618.8" cy="39590.7" r="55" /> 
<circle cx="52618.8" cy="39334.7" r="55" /> 
<circle cx="51851.8" cy="39590.7" r="55" /> 
<circle cx="51851.8" cy="39334.7" r="55" /> 
<circle cx="52107.9" cy="39590.7" r="55" /> 
<circle cx="52107.9" cy="39334.7" r="55" /> 
<circle cx="51083.8" cy="39590.7" r="55" /> 
<circle cx="51083.8" cy="39334.7" r="55" /> 
<circle cx="51339.8" cy="39590.7" r="55" /> 
<circle cx="51339.8" cy="39334.7" r="55" /> 
<circle cx="51595.8" cy="39590.7" r="55" /> 
<circle cx="51595.8" cy="39334.7" r="55" /> 
<circle cx="50571.8" cy="39590.7" r="55" /> 
<circle cx="50571.8" cy="39334.7" r="55" /> 
<circle cx="50827.9" cy="39590.7" r="55" /> 
<circle cx="50827.9" cy="39334.7" r="55" /> 
<circle cx="50059.8" cy="39334.7" r="55" /> 
<circle cx="50315.8" cy="39590.7" r="55" /> 
<circle cx="50315.8" cy="39334.7" r="55" /> 
<circle cx="49292.9" cy="39590.7" r="55" /> 
<circle cx="49548.8" cy="39590.7" r="55" /> 
<circle cx="49803.8" cy="39590.7" r="55" /> 
<circle cx="49803.8" cy="39334.7" r="55" /> 
<circle cx="48780.8" cy="39590.7" r="55" /> 
<circle cx="48780.8" cy="39334.7" r="55" /> 
<circle cx="49036.8" cy="39590.7" r="55" /> 
<circle cx="48524.8" cy="39590.7" r="55" /> 
<circle cx="48524.8" cy="39334.7" r="55" /> 
<circle cx="53642.9" cy="39078.7" r="55" /> 
<circle cx="52874.8" cy="39078.7" r="55" /> 
<circle cx="53130.8" cy="39078.7" r="55" /> 
<circle cx="53130.8" cy="38822.7" r="55" /> 
<circle cx="53386.8" cy="39078.7" r="55" /> 
<circle cx="53386.8" cy="38822.7" r="55" /> 
<circle cx="52363.8" cy="39078.7" r="55" /> 
<circle cx="52618.8" cy="39078.7" r="55" /> 
<circle cx="51851.8" cy="39078.7" r="55" /> 
<circle cx="51851.8" cy="38822.7" r="55" /> 
<circle cx="52107.9" cy="39078.7" r="55" /> 
<circle cx="52107.9" cy="38822.7" r="55" /> 
<circle cx="51083.8" cy="39078.7" r="55" /> 
<circle cx="51083.8" cy="38822.7" r="55" /> 
<circle cx="51339.8" cy="39078.7" r="55" /> 
<circle cx="51339.8" cy="38822.7" r="55" /> 
<circle cx="51595.8" cy="39078.7" r="55" /> 
<circle cx="51595.8" cy="38822.7" r="55" /> 
<circle cx="50571.8" cy="39078.7" r="55" /> 
<circle cx="50571.8" cy="38822.7" r="55" /> 
<circle cx="50827.9" cy="39078.7" r="55" /> 
<circle cx="50827.9" cy="38822.7" r="55" /> 
<circle cx="50059.8" cy="39078.7" r="55" /> 
<circle cx="50059.8" cy="38822.7" r="55" /> 
<circle cx="50315.8" cy="39078.7" r="55" /> 
<circle cx="50315.8" cy="38822.7" r="55" /> 
<circle cx="49292.9" cy="39078.7" r="55" /> 
<circle cx="49292.9" cy="38822.7" r="55" /> 
<circle cx="49803.8" cy="39078.7" r="55" /> 
<circle cx="49803.8" cy="38822.7" r="55" /> 
<circle cx="48780.8" cy="39078.7" r="55" /> 
<circle cx="48780.8" cy="38822.7" r="55" /> 
<circle cx="49036.8" cy="39078.7" r="55" /> 
<circle cx="49036.8" cy="38822.7" r="55" /> 
<circle cx="48524.8" cy="38822.7" r="55" /> 
<circle cx="53642.9" cy="38566.7" r="55" /> 
<circle cx="53642.9" cy="38310.7" r="55" /> 
<circle cx="52874.8" cy="38566.7" r="55" /> 
<circle cx="52874.8" cy="38310.7" r="55" /> 
<circle cx="53130.8" cy="38566.7" r="55" /> 
<circle cx="53130.8" cy="38310.7" r="55" /> 
<circle cx="53130.8" cy="38054.7" r="55" /> 
<circle cx="53386.8" cy="38566.7" r="55" /> 
<circle cx="53386.8" cy="38310.7" r="55" /> 
<circle cx="53386.8" cy="38054.7" r="55" /> 
<circle cx="52363.8" cy="38566.7" r="55" /> 
<circle cx="52363.8" cy="38310.7" r="55" /> 
<circle cx="52618.8" cy="38566.7" r="55" /> 
<circle cx="52618.8" cy="38310.7" r="55" /> 
<circle cx="51851.8" cy="38566.7" r="55" /> 
<circle cx="51851.8" cy="38310.7" r="55" /> 
<circle cx="52107.9" cy="38566.7" r="55" /> 
<circle cx="52107.9" cy="38310.7" r="55" /> 
<circle cx="52107.9" cy="38054.7" r="55" /> 
<circle cx="51083.8" cy="38566.7" r="55" /> 
<circle cx="51083.8" cy="38310.7" r="55" /> 
<circle cx="51083.8" cy="38054.7" r="55" /> 
<circle cx="51339.8" cy="38566.7" r="55" /> 
<circle cx="51339.8" cy="38310.7" r="55" /> 
<circle cx="51339.8" cy="38054.7" r="55" /> 
<circle cx="51595.8" cy="38566.7" r="55" /> 
<circle cx="51595.8" cy="38310.7" r="55" /> 
<circle cx="51595.8" cy="38054.7" r="55" /> 
<circle cx="50571.8" cy="38566.7" r="55" /> 
<circle cx="50571.8" cy="38310.7" r="55" /> 
<circle cx="50571.8" cy="38054.7" r="55" /> 
<circle cx="50827.9" cy="38566.7" r="55" /> 
<circle cx="50827.9" cy="38310.7" r="55" /> 
<circle cx="50827.9" cy="38054.7" r="55" /> 
<circle cx="50059.8" cy="38566.7" r="55" /> 
<circle cx="50059.8" cy="38310.7" r="55" /> 
<circle cx="50059.8" cy="38054.7" r="55" /> 
<circle cx="50315.8" cy="38566.7" r="55" /> 
<circle cx="50315.8" cy="38310.7" r="55" /> 
<circle cx="50315.8" cy="38054.7" r="55" /> 
<circle cx="49292.9" cy="38566.7" r="55" /> 
<circle cx="49292.9" cy="38310.7" r="55" /> 
<circle cx="49548.8" cy="38566.7" r="55" /> 
<circle cx="49548.8" cy="38054.7" r="55" /> 
<circle cx="49803.8" cy="38566.7" r="55" /> 
<circle cx="49803.8" cy="38310.7" r="55" /> 
<circle cx="49803.8" cy="38054.7" r="55" /> 
<circle cx="48780.8" cy="38566.7" r="55" /> 
<circle cx="48780.8" cy="38310.7" r="55" /> 
<circle cx="48780.8" cy="38054.7" r="55" /> 
<circle cx="49036.8" cy="38566.7" r="55" /> 
<circle cx="49036.8" cy="38054.7" r="55" /> 
<circle cx="48524.8" cy="38566.7" r="55" /> 
<circle cx="48524.8" cy="38054.7" r="55" /> 
<circle cx="53642.9" cy="37798.7" r="55" /> 
<circle cx="53642.9" cy="37542.7" r="55" /> 
<circle cx="52874.8" cy="37798.7" r="55" /> 
<circle cx="53130.8" cy="37798.7" r="55" /> 
<circle cx="53130.8" cy="37542.7" r="55" /> 
<circle cx="53386.8" cy="37798.7" r="55" /> 
<circle cx="53386.8" cy="37542.7" r="55" /> 
<circle cx="52363.8" cy="37798.7" r="55" /> 
<circle cx="52363.8" cy="37542.7" r="55" /> 
<circle cx="52618.8" cy="37798.7" r="55" /> 
<circle cx="51851.8" cy="37798.7" r="55" /> 
<circle cx="51851.8" cy="37542.7" r="55" /> 
<circle cx="52107.9" cy="37798.7" r="55" /> 
<circle cx="52107.9" cy="37542.7" r="55" /> 
<circle cx="51083.8" cy="37798.7" r="55" /> 
<circle cx="51339.8" cy="37798.7" r="55" /> 
<circle cx="51339.8" cy="37542.7" r="55" /> 
<circle cx="51595.8" cy="37798.7" r="55" /> 
<circle cx="51595.8" cy="37542.7" r="55" /> 
<circle cx="50571.8" cy="37798.7" r="55" /> 
<circle cx="50571.8" cy="37542.7" r="55" /> 
<circle cx="50827.9" cy="37798.7" r="55" /> 
<circle cx="50827.9" cy="37542.7" r="55" /> 
<circle cx="50059.8" cy="37798.7" r="55" /> 
<circle cx="50059.8" cy="37542.7" r="55" /> 
<circle cx="50315.8" cy="37798.7" r="55" /> 
<circle cx="50315.8" cy="37542.7" r="55" /> 
<circle cx="49803.8" cy="37798.7" r="55" /> 
<circle cx="49803.8" cy="37542.7" r="55" /> 
<circle cx="48780.8" cy="37798.7" r="55" /> 
<circle cx="48780.8" cy="37542.7" r="55" /> 
<circle cx="48524.8" cy="37798.7" r="55" /> 
<circle cx="53642.9" cy="37031.7" r="55" /> 
<circle cx="53642.9" cy="36775.7" r="55" /> 
<circle cx="52874.8" cy="37286.7" r="55" /> 
<circle cx="52874.8" cy="37031.7" r="55" /> 
<circle cx="53130.8" cy="37286.7" r="55" /> 
<circle cx="53130.8" cy="37031.7" r="55" /> 
<circle cx="53386.8" cy="37286.7" r="55" /> 
<circle cx="53386.8" cy="37031.7" r="55" /> 
<circle cx="53386.8" cy="36775.7" r="55" /> 
<circle cx="52363.8" cy="37286.7" r="55" /> 
<circle cx="52363.8" cy="37031.7" r="55" /> 
<circle cx="51851.8" cy="37286.7" r="55" /> 
<circle cx="51851.8" cy="36775.7" r="55" /> 
<circle cx="52107.9" cy="37031.7" r="55" /> 
<circle cx="52107.9" cy="36775.7" r="55" /> 
<circle cx="51083.8" cy="37031.7" r="55" /> 
<circle cx="51339.8" cy="37286.7" r="55" /> 
<circle cx="51339.8" cy="36775.7" r="55" /> 
<circle cx="51595.8" cy="37286.7" r="55" /> 
<circle cx="49292.9" cy="36519.7" r="55" /> 
<circle cx="50827.9" cy="37286.7" r="55" /> 
<circle cx="50827.9" cy="37031.7" r="55" /> 
<circle cx="50827.9" cy="36775.7" r="55" /> 
<circle cx="50059.8" cy="37286.7" r="55" /> 
<circle cx="50315.8" cy="37286.7" r="55" /> 
<circle cx="49292.9" cy="37286.7" r="55" /> 
<circle cx="49292.9" cy="37031.7" r="55" /> 
<circle cx="49292.9" cy="36775.7" r="55" /> 
<circle cx="49548.8" cy="37286.7" r="55" /> 
<circle cx="49548.8" cy="36775.7" r="55" /> 
<circle cx="49803.8" cy="37286.7" r="55" /> 
<circle cx="49803.8" cy="37031.7" r="55" /> 
<circle cx="49803.8" cy="36775.7" r="55" /> 
<circle cx="48780.8" cy="36775.7" r="55" /> 
<circle cx="49036.8" cy="37286.7" r="55" /> 
<circle cx="49036.8" cy="37031.7" r="55" /> 
<circle cx="48524.8" cy="37286.7" r="55" /> 
<circle cx="48524.8" cy="37031.7" r="55" /> 
<circle cx="53642.9" cy="36519.7" r="55" /> 
<circle cx="53642.9" cy="36263.7" r="55" /> 
<circle cx="52874.8" cy="36519.7" r="55" /> 
<circle cx="52874.8" cy="36263.7" r="55" /> 
<circle cx="53130.8" cy="36519.7" r="55" /> 
<circle cx="53130.8" cy="36263.7" r="55" /> 
<circle cx="53386.8" cy="36519.7" r="55" /> 
<circle cx="53386.8" cy="36263.7" r="55" /> 
<circle cx="52363.8" cy="36519.7" r="55" /> 
<circle cx="52363.8" cy="36263.7" r="55" /> 
<circle cx="52618.8" cy="36519.7" r="55" /> 
<circle cx="52618.8" cy="36263.7" r="55" /> 
<circle cx="51851.8" cy="36519.7" r="55" /> 
<circle cx="51851.8" cy="36263.7" r="55" /> 
<circle cx="52107.9" cy="36263.7" r="55" /> 
<circle cx="51083.8" cy="36263.7" r="55" /> 
<circle cx="51339.8" cy="36519.7" r="55" /> 
<circle cx="51339.8" cy="36263.7" r="55" /> 
<circle cx="51595.8" cy="36519.7" r="55" /> 
<circle cx="51595.8" cy="36263.7" r="55" /> 
<circle cx="50571.8" cy="36519.7" r="55" /> 
<circle cx="50571.8" cy="36263.7" r="55" /> 
<circle cx="50827.9" cy="36519.7" r="55" /> 
<circle cx="50827.9" cy="36263.7" r="55" /> 
<circle cx="50059.8" cy="36263.7" r="55" /> 
<circle cx="50315.8" cy="36519.7" r="55" /> 
<circle cx="50315.8" cy="36263.7" r="55" /> 
<circle cx="49292.9" cy="36263.7" r="55" /> 
<circle cx="49548.8" cy="36519.7" r="55" /> 
<circle cx="49548.8" cy="36263.7" r="55" /> 
<circle cx="49803.8" cy="36519.7" r="55" /> 
<circle cx="49803.8" cy="36263.7" r="55" /> 
<circle cx="48780.8" cy="36519.7" r="55" /> 
<circle cx="48780.8" cy="36263.7" r="55" /> 
<circle cx="49036.8" cy="36519.7" r="55" /> 
<circle cx="49036.8" cy="36263.7" r="55" /> 
<circle cx="48524.8" cy="36519.7" r="55" /> 
<circle cx="48524.8" cy="36263.7" r="55" /> 
<circle cx="53642.9" cy="36007.7" r="55" /> 
<circle cx="52874.8" cy="36007.7" r="55" /> 
<circle cx="53130.8" cy="36007.7" r="55" /> 
<circle cx="53386.8" cy="36007.7" r="55" /> 
<circle cx="52363.8" cy="36007.7" r="55" /> 
<circle cx="52107.9" cy="36007.7" r="55" /> 
<circle cx="51339.8" cy="36007.7" r="55" /> 
<circle cx="51595.8" cy="36007.7" r="55" /> 
<circle cx="50571.8" cy="36007.7" r="55" /> 
<circle cx="50827.9" cy="36007.7" r="55" /> 
<circle cx="50059.8" cy="36007.7" r="55" /> 
<circle cx="49292.9" cy="36007.7" r="55" /> 
<circle cx="48780.8" cy="36007.7" r="55" /> 
<circle cx="49036.8" cy="36007.7" r="55" /> 
<circle cx="48524.8" cy="36007.7" r="55" /> 
<path d="M47843 46110
L47843 42567
" />
<path d="M53080 46110
L47843 46110
" />
<path d="M53080 42567
L53080 46110
" />
<path d="M47843 42567
L53080 42567
" />
<path d="M47843 42369
L47843 42567
" />
<path d="M53080 42369
L47843 42369
" />
<path d="M53080 42567
L53080 42369
" />
<path d="M47843 46309
L47843 46110
" />
<path d="M53080 46309
L47843 46309
" />
<path d="M53080 46110
L53080 46309
" />
<path d="M53414.5 42432.2 A49.1949 49.1949 0.0 1 0 53316.1 42432.2 " />
<path d="M53316.1 42432.2 A49.1949 49.1949 0.0 0 0 53414.5 42432.2 " />
<path d="M53001 42567
L53080 42646
" />
<path d="M52922 42567
L53080 42724
" />
<circle cx="48099.8" cy="45599" r="78.7402" /> 
<circle cx="48099.8" cy="45284" r="78.7402" /> 
<circle cx="48099.8" cy="44969.1" r="78.7402" /> 
<circle cx="48099.8" cy="43709.2" r="78.7402" /> 
<circle cx="48099.8" cy="43394.3" r="78.7402" /> 
<circle cx="48099.8" cy="43079.3" r="78.7402" /> 
<circle cx="48414.7" cy="45599" r="78.7402" /> 
<circle cx="48414.7" cy="45284" r="78.7402" /> 
<circle cx="48414.7" cy="44969.1" r="78.7402" /> 
<circle cx="48414.7" cy="43709.2" r="78.7402" /> 
<circle cx="48414.7" cy="43394.3" r="78.7402" /> 
<circle cx="48414.7" cy="43079.3" r="78.7402" /> 
<circle cx="48729.7" cy="45599" r="78.7398" /> 
<circle cx="48729.7" cy="45284" r="78.7398" /> 
<circle cx="48729.7" cy="44969.1" r="78.7398" /> 
<circle cx="48729.7" cy="43709.2" r="78.7398" /> 
<circle cx="48729.7" cy="43394.3" r="78.7398" /> 
<circle cx="48729.7" cy="43079.3" r="78.7398" /> 
<circle cx="49044.6" cy="45599" r="78.7402" /> 
<circle cx="49044.6" cy="45284" r="78.7402" /> 
<circle cx="49044.6" cy="44969.1" r="78.7402" /> 
<circle cx="49044.6" cy="43709.2" r="78.7402" /> 
<circle cx="49044.6" cy="43394.3" r="78.7402" /> 
<circle cx="49044.6" cy="43079.3" r="78.7402" /> 
<circle cx="49359.6" cy="45599" r="78.7398" /> 
<circle cx="49359.6" cy="45284" r="78.7398" /> 
<circle cx="49359.6" cy="44969.1" r="78.7398" /> 
<circle cx="49359.6" cy="43709.2" r="78.7398" /> 
<circle cx="49359.6" cy="43394.3" r="78.7398" /> 
<circle cx="49359.6" cy="43079.3" r="78.7398" /> 
<circle cx="49674.6" cy="45599" r="78.7402" /> 
<circle cx="49674.6" cy="45284" r="78.7402" /> 
<circle cx="49674.6" cy="44969.1" r="78.7402" /> 
<circle cx="49674.6" cy="43709.2" r="78.7402" /> 
<circle cx="49674.6" cy="43394.3" r="78.7402" /> 
<circle cx="49674.6" cy="43079.3" r="78.7402" /> 
<circle cx="49989.5" cy="45599" r="78.7402" /> 
<circle cx="49989.5" cy="45284" r="78.7402" /> 
<circle cx="49989.5" cy="44969.1" r="78.7402" /> 
<circle cx="49989.5" cy="43709.2" r="78.7402" /> 
<circle cx="49989.5" cy="43394.3" r="78.7402" /> 
<circle cx="49989.5" cy="43079.3" r="78.7402" /> 
<circle cx="50304.5" cy="45599" r="78.7398" /> 
<circle cx="50304.5" cy="45284" r="78.7398" /> 
<circle cx="50304.5" cy="44969.1" r="78.7398" /> 
<circle cx="50304.5" cy="43709.2" r="78.7398" /> 
<circle cx="50304.5" cy="43394.3" r="78.7398" /> 
<circle cx="50304.5" cy="43079.3" r="78.7398" /> 
<circle cx="50619.4" cy="45599" r="78.7402" /> 
<circle cx="50619.4" cy="45284" r="78.7402" /> 
<circle cx="50619.4" cy="44969.1" r="78.7402" /> 
<circle cx="50619.4" cy="43709.2" r="78.7402" /> 
<circle cx="50619.4" cy="43394.3" r="78.7402" /> 
<circle cx="50619.4" cy="43079.3" r="78.7402" /> 
<circle cx="50934.4" cy="45599" r="78.7398" /> 
<circle cx="50934.4" cy="45284" r="78.7398" /> 
<circle cx="50934.4" cy="44969.1" r="78.7398" /> 
<circle cx="50934.4" cy="43709.2" r="78.7398" /> 
<circle cx="50934.4" cy="43394.3" r="78.7398" /> 
<circle cx="50934.4" cy="43079.3" r="78.7398" /> 
<circle cx="51249.4" cy="45599" r="78.7402" /> 
<circle cx="51249.4" cy="45284" r="78.7402" /> 
<circle cx="51249.4" cy="44969.1" r="78.7402" /> 
<circle cx="51249.4" cy="43709.2" r="78.7402" /> 
<circle cx="51249.4" cy="43394.3" r="78.7402" /> 
<circle cx="51249.4" cy="43079.3" r="78.7402" /> 
<circle cx="51564.3" cy="45599" r="78.7402" /> 
<circle cx="51564.3" cy="45284" r="78.7402" /> 
<circle cx="51564.3" cy="44969.1" r="78.7402" /> 
<circle cx="51564.3" cy="43709.2" r="78.7402" /> 
<circle cx="51564.3" cy="43394.3" r="78.7402" /> 
<circle cx="51564.3" cy="43079.3" r="78.7402" /> 
<circle cx="51879.3" cy="45599" r="78.7398" /> 
<circle cx="51879.3" cy="45284" r="78.7398" /> 
<circle cx="51879.3" cy="44969.1" r="78.7398" /> 
<circle cx="51879.3" cy="43709.2" r="78.7398" /> 
<circle cx="51879.3" cy="43394.3" r="78.7398" /> 
<circle cx="51879.3" cy="43079.3" r="78.7398" /> 
<circle cx="52194.2" cy="45599" r="78.7402" /> 
<circle cx="52194.2" cy="45284" r="78.7402" /> 
<circle cx="52194.2" cy="44969.1" r="78.7402" /> 
<circle cx="52194.2" cy="43709.2" r="78.7402" /> 
<circle cx="52194.2" cy="43394.3" r="78.7402" /> 
<circle cx="52194.2" cy="43079.3" r="78.7402" /> 
<circle cx="52509.2" cy="45599" r="78.7398" /> 
<circle cx="52509.2" cy="45284" r="78.7398" /> 
<circle cx="52509.2" cy="44969.1" r="78.7398" /> 
<circle cx="52509.2" cy="43709.2" r="78.7398" /> 
<circle cx="52509.2" cy="43394.3" r="78.7398" /> 
<circle cx="52509.2" cy="43079.3" r="78.7398" /> 
<circle cx="52824.2" cy="45599" r="78.7402" /> 
<circle cx="52824.2" cy="45284" r="78.7402" /> 
<circle cx="52824.2" cy="44969.1" r="78.7402" /> 
<circle cx="52824.2" cy="43709.2" r="78.7402" /> 
<circle cx="52824.2" cy="43394.3" r="78.7402" /> 
<circle cx="52824.2" cy="43079.3" r="78.7402" /> 
<circle cx="47114.8" cy="41682.1" r="200" /> 
<circle cx="47114.8" cy="44832.1" r="200" /> 
<path d="M48064 35873
L47926 35735
" />
<path d="M48064 35597
L48064 35873
" />
<path d="M47926 35735
L48064 35597
" />
<path d="M45544 34751
L45544 37743
" />
<path d="M45229 37743
L45544 37743
" />
<path d="M45229 34751
L45229 37743
" />
<path d="M47592 34751
L45229 34751
" />
<path d="M47592 37743
L47592 34751
" />
<path d="M45544 37743
L47592 37743
" />
<path d="M47178 36837
L47178 36680
" />
<path d="M47847 36837
L47178 36837
" />
<path d="M47847 36680
L47847 36837
" />
<path d="M47178 36680
L47847 36680
" />
<path d="M47178 36581
L47178 36424
" />
<path d="M47847 36581
L47178 36581
" />
<path d="M47847 36424
L47847 36581
" />
<path d="M47178 36424
L47847 36424
" />
<path d="M47178 36325
L47178 36168
" />
<path d="M47847 36325
L47178 36325
" />
<path d="M47847 36168
L47847 36325
" />
<path d="M47178 36168
L47847 36168
" />
<path d="M47178 36069
L47178 35912
" />
<path d="M47847 36069
L47178 36069
" />
<path d="M47847 35912
L47847 36069
" />
<path d="M47178 35912
L47847 35912
" />
<path d="M47178 35814
L47178 35656
" />
<path d="M47847 35814
L47178 35814
" />
<path d="M47847 35656
L47847 35814
" />
<path d="M47178 35656
L47847 35656
" />
<path d="M45977 36640
L45977 35853
" />
<path d="M46765 36640
L45977 36640
" />
<path d="M46765 35853
L46765 36640
" />
<path d="M45977 35853
L46765 35853
" />
<circle cx="47446.4" cy="37201.8" r="236.22" /> 
<circle cx="47446.4" cy="35292.4" r="236.22" /> 
<path d="M46489.7 37900.6 A236.22 236.22 0.0 0 0 46489.7 37428.2 " />
<path d="M46253 37428
L46489 37428
" />
<path d="M46253.5 37428.2 A236.22 236.22 0.0 0 0 46253.5 37900.6 " />
<path d="M46489 37900
L46253 37900
" />
<path d="M46489.7 35066 A236.22 236.22 0.0 0 0 46489.7 34593.5 " />
<path d="M46253 34593
L46489 34593
" />
<path d="M46253.5 34593.5 A236.22 236.22 0.0 0 0 46253.5 35066 " />
<path d="M46489 35065
L46253 35065
" />
<path d="M53066 47321
L54256 47321
" />
<path d="M53066 47751
L53066 47321
" />
<path d="M54256 47751
L53066 47751
" />
<path d="M54256 47321
L54256 47751
" />
<path d="M53910 48248
L53910 47848
" />
<path d="M54160 48248
L53910 48248
" />
<path d="M54160 47848
L54160 48248
" />
<path d="M53910 47848
L54160 47848
" />
<path d="M53162 48248
L53162 47848
" />
<path d="M53412 48248
L53162 48248
" />
<path d="M53412 47848
L53412 48248
" />
<path d="M53162 47848
L53412 47848
" />
<path d="M53162 47224
L53162 46824
" />
<path d="M53412 47224
L53162 47224
" />
<path d="M53412 46824
L53412 47224
" />
<path d="M53162 46824
L53412 46824
" />
<path d="M53536 47224
L53536 46824
" />
<path d="M53786 47224
L53536 47224
" />
<path d="M53786 46824
L53786 47224
" />
<path d="M53536 46824
L53786 46824
" />
<path d="M53910 47224
L53910 46824
" />
<path d="M54160 47224
L53910 47224
" />
<path d="M54160 46824
L54160 47224
" />
<path d="M53910 46824
L54160 46824
" />
<path d="M49546 34231
L49546 35421
" />
<path d="M49116 34231
L49546 34231
" />
<path d="M49116 35421
L49116 34231
" />
<path d="M49546 35421
L49116 35421
" />
<path d="M48620 35075
L49020 35075
" />
<path d="M48620 35325
L48620 35075
" />
<path d="M49020 35325
L48620 35325
" />
<path d="M49020 35075
L49020 35325
" />
<path d="M48620 34327
L49020 34327
" />
<path d="M48620 34577
L48620 34327
" />
<path d="M49020 34577
L48620 34577
" />
<path d="M49020 34327
L49020 34577
" />
<path d="M49643 34327
L50043 34327
" />
<path d="M49643 34577
L49643 34327
" />
<path d="M50043 34577
L49643 34577
" />
<path d="M50043 34327
L50043 34577
" />
<path d="M49643 34701
L50043 34701
" />
<path d="M49643 34951
L49643 34701
" />
<path d="M50043 34951
L49643 34951
" />
<path d="M50043 34701
L50043 34951
" />
<path d="M49643 35075
L50043 35075
" />
<path d="M49643 35325
L49643 35075
" />
<path d="M50043 35325
L49643 35325
" />
<path d="M50043 35075
L50043 35325
" />
<path d="M48996 47011
L48996 48201
" />
<path d="M48566 47011
L48996 47011
" />
<path d="M48566 48201
L48566 47011
" />
<path d="M48996 48201
L48566 48201
" />
<path d="M48070 47855
L48470 47855
" />
<path d="M48070 48105
L48070 47855
" />
<path d="M48470 48105
L48070 48105
" />
<path d="M48470 47855
L48470 48105
" />
<path d="M48070 47107
L48470 47107
" />
<path d="M48070 47357
L48070 47107
" />
<path d="M48470 47357
L48070 47357
" />
<path d="M48470 47107
L48470 47357
" />
<path d="M49093 47107
L49493 47107
" />
<path d="M49093 47357
L49093 47107
" />
<path d="M49493 47357
L49093 47357
" />
<path d="M49493 47107
L49493 47357
" />
<path d="M49093 47481
L49493 47481
" />
<path d="M49093 47731
L49093 47481
" />
<path d="M49493 47731
L49093 47731
" />
<path d="M49493 47481
L49493 47731
" />
<path d="M49093 47855
L49493 47855
" />
<path d="M49093 48105
L49093 47855
" />
<path d="M49493 48105
L49093 48105
" />
<path d="M49493 47855
L49493 48105
" />
<path d="M55379 47030
L55379 48220
" />
<path d="M54949 47030
L55379 47030
" />
<path d="M54949 48220
L54949 47030
" />
<path d="M55379 48220
L54949 48220
" />
<path d="M54452 47874
L54852 47874
" />
<path d="M54452 48124
L54452 47874
" />
<path d="M54852 48124
L54452 48124
" />
<path d="M54852 47874
L54852 48124
" />
<path d="M54452 47126
L54852 47126
" />
<path d="M54452 47376
L54452 47126
" />
<path d="M54852 47376
L54452 47376
" />
<path d="M54852 47126
L54852 47376
" />
<path d="M55476 47126
L55876 47126
" />
<path d="M55476 47376
L55476 47126
" />
<path d="M55876 47376
L55476 47376
" />
<path d="M55876 47126
L55876 47376
" />
<path d="M55476 47500
L55876 47500
" />
<path d="M55476 47750
L55476 47500
" />
<path d="M55876 47750
L55476 47750
" />
<path d="M55876 47500
L55876 47750
" />
<path d="M55476 47874
L55876 47874
" />
<path d="M55476 48124
L55476 47874
" />
<path d="M55876 48124
L55476 48124
" />
<path d="M55876 47874
L55876 48124
" />
<path d="M55903 33532
L55903 34722
" />
<path d="M55473 33532
L55903 33532
" />
<path d="M55473 34722
L55473 33532
" />
<path d="M55903 34722
L55473 34722
" />
<path d="M54976 34376
L55376 34376
" />
<path d="M54976 34626
L54976 34376
" />
<path d="M55376 34626
L54976 34626
" />
<path d="M55376 34376
L55376 34626
" />
<path d="M54976 33628
L55376 33628
" />
<path d="M54976 33878
L54976 33628
" />
<path d="M55376 33878
L54976 33878
" />
<path d="M55376 33628
L55376 33878
" />
<path d="M56000 33628
L56400 33628
" />
<path d="M56000 33878
L56000 33628
" />
<path d="M56400 33878
L56000 33878
" />
<path d="M56400 33628
L56400 33878
" />
<path d="M56000 34002
L56400 34002
" />
<path d="M56000 34252
L56000 34002
" />
<path d="M56400 34252
L56000 34252
" />
<path d="M56400 34002
L56400 34252
" />
<path d="M56000 34376
L56400 34376
" />
<path d="M56000 34626
L56000 34376
" />
<path d="M56400 34626
L56000 34626
" />
<path d="M56400 34376
L56400 34626
" />
<path d="M54249 34680
L54449 34480
" />
<path d="M54049 34480
L54249 34680
" />
<path d="M54449 34480
L54049 34480
" />
<path d="M54480.7 33901.1 A39.3976 39.3976 0.0 0 0 54441.3 33861.7 " />
<path d="M54480 35160
L54480 33901
" />
<path d="M54441.3 35200.3 A39.3961 39.3961 0.0 0 0 54480.7 35160.9 " />
<path d="M53457 35200
L54441 35200
" />
<path d="M53417.7 35160.9 A39.3988 39.3988 0.0 0 0 53457.1 35200.3 " />
<path d="M53417 33901
L53417 35160
" />
<path d="M53457.1 33861.7 A39.3969 39.3969 0.0 0 0 53417.7 33901.1 " />
<path d="M54441 33861
L53457 33861
" />
<path d="M53323 34753
L53775 34753
" />
<path d="M53323 35304
L53323 34753
" />
<path d="M53775 35304
L53323 35304
" />
<path d="M53775 34753
L53775 35304
" />
<path d="M54122 33757
L54575 33757
" />
<path d="M54122 34308
L54122 33757
" />
<path d="M54575 34308
L54122 34308
" />
<path d="M54575 33757
L54575 34308
" />
<path d="M53323 33757
L53775 33757
" />
<path d="M53323 34308
L53323 33757
" />
<path d="M53775 34308
L53323 34308
" />
<path d="M53775 33757
L53775 34308
" />
<path d="M54122 34753
L54575 34753
" />
<path d="M54122 35304
L54122 34753
" />
<path d="M54575 35304
L54122 35304
" />
<path d="M54575 34753
L54575 35304
" />
<path d="M59897 47015
L59897 46937
" />
<path d="M59641 47567
L59346 47567
" />
<path d="M59346 46386
L59641 46386
" />
<path d="M59346 47567
L59346 47311
" />
<path d="M59346 46641
L59346 46386
" />
<path d="M59945 47606
L59788 47764
" />
<path d="M60103 47764
L59945 47606
" />
<path d="M59788 47764
L60103 47764
" />
<path d="M60335 47150
L60335 47550
" />
<path d="M59775 47150
L60335 47150
" />
<path d="M59775 47550
L59775 47150
" />
<path d="M60335 47550
L59775 47550
" />
<path d="M60335 46402
L60335 46802
" />
<path d="M59775 46402
L60335 46402
" />
<path d="M59775 46802
L59775 46402
" />
<path d="M60335 46802
L59775 46802
" />
<path d="M59468 46776
L59468 47176
" />
<path d="M58908 46776
L59468 46776
" />
<path d="M58908 47176
L58908 46776
" />
<path d="M59468 47176
L58908 47176
" />
<path d="M56697 45459
L56619 45459
" />
<path d="M57249 45716
L57249 46010
" />
<path d="M56067 46010
L56067 45716
" />
<path d="M57249 46010
L56993 46010
" />
<path d="M56323 46010
L56067 46010
" />
<path d="M57046 44940
L57204 44782
" />
<path d="M56889 44782
L57046 44940
" />
<path d="M57204 44782
L56889 44782
" />
<path d="M56832 45022
L57232 45022
" />
<path d="M56832 45582
L56832 45022
" />
<path d="M57232 45582
L56832 45582
" />
<path d="M57232 45022
L57232 45582
" />
<path d="M56084 45022
L56484 45022
" />
<path d="M56084 45582
L56084 45022
" />
<path d="M56484 45582
L56084 45582
" />
<path d="M56484 45022
L56484 45582
" />
<path d="M56458 45888
L56858 45888
" />
<path d="M56458 46448
L56458 45888
" />
<path d="M56858 46448
L56458 46448
" />
<path d="M56858 45888
L56858 46448
" />
<path d="M46401 45566
L46401 45766
" />
<path d="M46511 45666
L46311 45666
" />
<path d="M46211 46336
L45711 46336
" />
<path d="M45961 46486
L45811 46336
" />
<path d="M46111 46336
L45961 46486
" />
<path d="M46111 46486
L46111 46336
" />
<path d="M45811 46486
L46111 46486
" />
<path d="M45811 46336
L45811 46486
" />
<path d="M45661 45736
L46261 45736
" />
<path d="M45661 46936
L45661 45736
" />
<path d="M46261 46936
L45661 46936
" />
<path d="M46261 45736
L46261 46936
" />
<path d="M45711 46875
L45711 46625
" />
<path d="M46211 46875
L45711 46875
" />
<path d="M46211 46625
L46211 46875
" />
<path d="M45711 46625
L46211 46625
" />
<path d="M45711 46048
L45711 45798
" />
<path d="M46211 46048
L45711 46048
" />
<path d="M46211 45798
L46211 46048
" />
<path d="M45711 45798
L46211 45798
" />
<path d="M45521 45616
L45521 45416
" />
<path d="M45421 45516
L45621 45516
" />
<path d="M45721 45066
L46221 45066
" />
<path d="M45971 44916
L46121 45066
" />
<path d="M45821 45066
L45971 44916
" />
<path d="M45821 44916
L45821 45066
" />
<path d="M46121 44916
L45821 44916
" />
<path d="M46121 45066
L46121 44916
" />
<path d="M46271 45666
L45671 45666
" />
<path d="M46271 44466
L46271 45666
" />
<path d="M45671 44466
L46271 44466
" />
<path d="M45671 45666
L45671 44466
" />
<path d="M46221 44528
L46221 44778
" />
<path d="M45721 44528
L46221 44528
" />
<path d="M45721 44778
L45721 44528
" />
<path d="M46221 44778
L45721 44778
" />
<path d="M46221 45355
L46221 45605
" />
<path d="M45721 45355
L46221 45355
" />
<path d="M45721 45605
L45721 45355
" />
<path d="M46221 45605
L45721 45605
" />
<path d="M61931 48146
L61931 47346
" />
<path d="M63706 47346
L63706 47521
" />
<path d="M61856 47346
L63706 47346
" />
<path d="M61856 48146
L61856 47346
" />
<path d="M63706 48146
L61856 48146
" />
<path d="M63706 47946
L63706 48146
" />
<path d="M64031 47436
L63831 47436
" />
<path d="M63931 47536
L63931 47336
" />
<path d="M64031 47436
L63831 47436
" />
<path d="M63931 47536
L63931 47336
" />
<path d="M62831 47946
L62831 47596
" />
<path d="M62981 47596
L62831 47746
" />
<path d="M62981 47896
L62981 47596
" />
<path d="M62831 47746
L62981 47896
" />
<path d="M62831 47746
L62681 47746
" />
<path d="M62981 47746
L63131 47746
" />
<path d="M63426 47921
L63426 47571
" />
<path d="M63776 47921
L63426 47921
" />
<path d="M63776 47571
L63776 47921
" />
<path d="M63426 47571
L63776 47571
" />
<path d="M61986 47921
L61986 47571
" />
<path d="M62336 47921
L61986 47921
" />
<path d="M62336 47571
L62336 47921
" />
<path d="M61986 47571
L62336 47571
" />
<path d="M59916 36195
L59956 36156
" />
<path d="M59641 36195
L59916 36195
" />
<path d="M59601 36156
L59641 36195
" />
<path d="M59601 35289
L59601 36156
" />
<path d="M59956 35289
L59601 35289
" />
<path d="M59956 36156
L59956 35289
" />
<path d="M59601 36156
L59956 36156
" />
<path d="M59653 36098
L59653 35848
" />
<path d="M59903 36098
L59653 36098
" />
<path d="M59903 35848
L59903 36098
" />
<path d="M59841 35848
L59903 35848
" />
<path d="M59841 35847
L59841 35848
" />
<path d="M59778 35785
L59841 35847
" />
<path d="M59716 35847
L59778 35785
" />
<path d="M59716 35848
L59716 35847
" />
<path d="M59653 35848
L59716 35848
" />
<path d="M59903 35348
L59903 35598
" />
<path d="M59653 35348
L59903 35348
" />
<path d="M59653 35598
L59653 35348
" />
<path d="M59716 35598
L59653 35598
" />
<path d="M59716 35598
L59716 35598
" />
<path d="M59778 35660
L59716 35598
" />
<path d="M59841 35598
L59778 35660
" />
<path d="M59841 35598
L59841 35598
" />
<path d="M59903 35598
L59841 35598
" />
<path d="M59641 36237
L59601 36277
" />
<path d="M59916 36237
L59641 36237
" />
<path d="M59956 36277
L59916 36237
" />
<path d="M59956 37143
L59956 36277
" />
<path d="M59601 37143
L59956 37143
" />
<path d="M59601 36277
L59601 37143
" />
<path d="M59956 36277
L59601 36277
" />
<path d="M59903 36335
L59903 36585
" />
<path d="M59653 36335
L59903 36335
" />
<path d="M59653 36585
L59653 36335
" />
<path d="M59716 36585
L59653 36585
" />
<path d="M59716 36585
L59716 36585
" />
<path d="M59778 36648
L59716 36585
" />
<path d="M59841 36585
L59778 36648
" />
<path d="M59841 36585
L59841 36585
" />
<path d="M59903 36585
L59841 36585
" />
<path d="M59653 37085
L59653 36835
" />
<path d="M59903 37085
L59653 37085
" />
<path d="M59903 36835
L59903 37085
" />
<path d="M59841 36835
L59903 36835
" />
<path d="M59841 36835
L59841 36835
" />
<path d="M59778 36772
L59841 36835
" />
<path d="M59716 36835
L59778 36772
" />
<path d="M59716 36835
L59716 36835
" />
<path d="M59653 36835
L59716 36835
" />
<path d="M59956 34889
L59995 34849
" />
<path d="M59680 34889
L59956 34889
" />
<path d="M59641 34849
L59680 34889
" />
<path d="M59641 33983
L59641 34849
" />
<path d="M59995 33983
L59641 33983
" />
<path d="M59995 34849
L59995 33983
" />
<path d="M59641 34849
L59995 34849
" />
<path d="M59693 34791
L59693 34541
" />
<path d="M59943 34791
L59693 34791
" />
<path d="M59943 34541
L59943 34791
" />
<path d="M59881 34541
L59943 34541
" />
<path d="M59881 34541
L59881 34541
" />
<path d="M59818 34478
L59881 34541
" />
<path d="M59756 34541
L59818 34478
" />
<path d="M59756 34541
L59756 34541
" />
<path d="M59693 34541
L59756 34541
" />
<path d="M59943 34041
L59943 34291
" />
<path d="M59693 34041
L59943 34041
" />
<path d="M59693 34291
L59693 34041
" />
<path d="M59756 34291
L59693 34291
" />
<path d="M59756 34291
L59756 34291
" />
<path d="M59818 34354
L59756 34291
" />
<path d="M59881 34291
L59818 34354
" />
<path d="M59881 34291
L59881 34291
" />
<path d="M59943 34291
L59881 34291
" />
<path d="M59249 48184
L59288 48223
" />
<path d="M59249 47908
L59249 48184
" />
<path d="M59288 47869
L59249 47908
" />
<path d="M60155 47869
L59288 47869
" />
<path d="M60155 48223
L60155 47869
" />
<path d="M59288 48223
L60155 48223
" />
<path d="M59288 47869
L59288 48223
" />
<path d="M59346 47921
L59596 47921
" />
<path d="M59346 48171
L59346 47921
" />
<path d="M59596 48171
L59346 48171
" />
<path d="M59596 48109
L59596 48171
" />
<path d="M59597 48109
L59596 48109
" />
<path d="M59659 48046
L59597 48109
" />
<path d="M59597 47984
L59659 48046
" />
<path d="M59596 47984
L59597 47984
" />
<path d="M59596 47921
L59596 47984
" />
<path d="M60096 48171
L59846 48171
" />
<path d="M60096 47921
L60096 48171
" />
<path d="M59846 47921
L60096 47921
" />
<path d="M59846 47984
L59846 47921
" />
<path d="M59846 47984
L59846 47984
" />
<path d="M59784 48046
L59846 47984
" />
<path d="M59846 48109
L59784 48046
" />
<path d="M59846 48109
L59846 48109
" />
<path d="M59846 48171
L59846 48109
" />
<path d="M53674 46651
L53674 44800
" />
<path d="M55525 46651
L53674 46651
" />
<path d="M55525 44800
L55525 46651
" />
<path d="M53674 44800
L55525 44800
" />
<path d="M55485 46611
L54816 46611
" />
<path d="M55485 44840
L55485 46611
" />
<path d="M54816 44840
L55485 44840
" />
<path d="M54816 46611
L54816 44840
" />
<path d="M54383 46611
L53714 46611
" />
<path d="M54383 44840
L54383 46611
" />
<path d="M53714 44840
L54383 44840
" />
<path d="M53714 46611
L53714 44840
" />
<path d="M45696 39401
L47547 39401
" />
<path d="M45696 41251
L45696 39401
" />
<path d="M47547 41251
L45696 41251
" />
<path d="M47547 39401
L47547 41251
" />
<path d="M45736 41212
L45736 40543
" />
<path d="M47507 41212
L45736 41212
" />
<path d="M47507 40543
L47507 41212
" />
<path d="M45736 40543
L47507 40543
" />
<path d="M45736 40110
L45736 39440
" />
<path d="M47507 40110
L45736 40110
" />
<path d="M47507 39440
L47507 40110
" />
<path d="M45736 39440
L47507 39440
" />
<path d="M58819 44921
L58819 45965
" />
<path d="M58386 44921
L58819 44921
" />
<path d="M58386 45965
L58386 44921
" />
<path d="M58819 45965
L58386 45965
" />
<path d="M58416 45935
L58416 45620
" />
<path d="M58790 45935
L58416 45935
" />
<path d="M58790 45620
L58790 45935
" />
<path d="M58416 45620
L58790 45620
" />
<path d="M58416 45266
L58416 44951
" />
<path d="M58790 45266
L58416 45266
" />
<path d="M58790 44951
L58790 45266
" />
<path d="M58416 44951
L58790 44951
" />
<path d="M59289 44914
L59289 45957
" />
<path d="M58856 44914
L59289 44914
" />
<path d="M58856 45957
L58856 44914
" />
<path d="M59289 45957
L58856 45957
" />
<path d="M58886 45928
L58886 45613
" />
<path d="M59260 45928
L58886 45928
" />
<path d="M59260 45613
L59260 45928
" />
<path d="M58886 45613
L59260 45613
" />
<path d="M58886 45258
L58886 44943
" />
<path d="M59260 45258
L58886 45258
" />
<path d="M59260 44943
L59260 45258
" />
<path d="M58886 44943
L59260 44943
" />
<path d="M60424 44919
L60424 45962
" />
<path d="M59991 44919
L60424 44919
" />
<path d="M59991 45962
L59991 44919
" />
<path d="M60424 45962
L59991 45962
" />
<path d="M60021 45933
L60021 45618
" />
<path d="M60395 45933
L60021 45933
" />
<path d="M60395 45618
L60395 45933
" />
<path d="M60021 45618
L60395 45618
" />
<path d="M60021 45264
L60021 44949
" />
<path d="M60395 45264
L60021 45264
" />
<path d="M60395 44949
L60395 45264
" />
<path d="M60021 44949
L60395 44949
" />
<path d="M59959 44917
L59959 45960
" />
<path d="M59526 44917
L59959 44917
" />
<path d="M59526 45960
L59526 44917
" />
<path d="M59959 45960
L59526 45960
" />
<path d="M59556 45930
L59556 45615
" />
<path d="M59930 45930
L59556 45930
" />
<path d="M59930 45615
L59930 45930
" />
<path d="M59556 45615
L59930 45615
" />
<path d="M59556 45261
L59556 44946
" />
<path d="M59930 45261
L59556 45261
" />
<path d="M59930 44946
L59930 45261
" />
<path d="M59556 44946
L59930 44946
" />
<path d="M51062 46556.7 A180.001 180.001 0.0 0 0 50882 46376.7 " />
<path d="M50882 46376.7 A180 180 0.0 0 0 50702 46556.7 " />
<path d="M50702 46556.7 A179.999 179.999 0.0 0 0 50882 46736.7 " />
<path d="M50882 46736.7 A180 180 0.0 0 0 51062 46556.7 " />
<circle cx="50882" cy="46556.7" r="150" /> 
<path d="M55782 45956.7 A180 180 0.0 0 0 55962 45776.7 " />
<path d="M55962 45776.7 A179.999 179.999 0.0 0 0 55782 45596.7 " />
<path d="M55782 45596.7 A179.999 179.999 0.0 0 0 55602 45776.7 " />
<path d="M55602 45776.7 A180.001 180.001 0.0 0 0 55782 45956.7 " />
<circle cx="55782" cy="45776.7" r="150" /> 
<path d="M47812 40206.7 A180 180 0.0 0 0 47632 40386.7 " />
<path d="M47632 40386.7 A180 180 0.0 0 0 47812 40566.7 " />
<path d="M47812 40566.7 A180 180 0.0 0 0 47992 40386.7 " />
<path d="M47992 40386.7 A180 180 0.0 0 0 47812 40206.7 " />
<circle cx="47812" cy="40386.7" r="150" /> 
<path d="M56142 46316.7 A180 180 0.0 0 0 55962 46496.7 " />
<path d="M55962 46496.7 A180 180 0.0 0 0 56142 46676.7 " />
<path d="M56142 46676.7 A180 180 0.0 0 0 56322 46496.7 " />
<path d="M56322 46496.7 A180 180 0.0 0 0 56142 46316.7 " />
<circle cx="56142" cy="46496.7" r="150" /> 
<circle cx="46701.2" cy="33466" r="984.25" /> 
<circle cx="46701.2" cy="49257.7" r="984.25" /> 
<circle cx="63280.3" cy="49257.7" r="984.25" /> 
<circle cx="63280.3" cy="33466" r="984.25" /> 
<circle cx="61582" cy="33816.7" r="196.85" /> 
<circle cx="46342" cy="47566.7" r="196.85" /> 
<path d="M47905 48463
L47905 49250
" />
<path d="M48298 48463
L47905 48463
" />
<path d="M48298 49250
L48298 48463
" />
<path d="M47905 49250
L48298 49250
" />
<path d="M48200 48955
L48200 49151
" />
<path d="M48003 48955
L48200 48955
" />
<path d="M48003 49151
L48003 48955
" />
<path d="M48200 49151
L48003 49151
" />
<path d="M48200 48561
L48200 48758
" />
<path d="M48003 48561
L48200 48561
" />
<path d="M48003 48758
L48003 48561
" />
<path d="M48200 48758
L48003 48758
" />
<path d="M48298 50090
L48298 49303
" />
<path d="M47905 50090
L48298 50090
" />
<path d="M47905 49303
L47905 50090
" />
<path d="M48298 49303
L47905 49303
" />
<path d="M48003 49598
L48003 49401
" />
<path d="M48200 49598
L48003 49598
" />
<path d="M48200 49401
L48200 49598
" />
<path d="M48003 49401
L48200 49401
" />
<path d="M48003 49991
L48003 49795
" />
<path d="M48200 49991
L48003 49991
" />
<path d="M48200 49795
L48200 49991
" />
<path d="M48003 49795
L48200 49795
" />
<path d="M47127 43131
L46340 43131
" />
<path d="M47127 43524
L47127 43131
" />
<path d="M46340 43524
L47127 43524
" />
<path d="M46340 43131
L46340 43524
" />
<path d="M46635 43426
L46438 43426
" />
<path d="M46635 43229
L46635 43426
" />
<path d="M46438 43229
L46635 43229
" />
<path d="M46438 43426
L46438 43229
" />
<path d="M47028 43426
L46832 43426
" />
<path d="M47028 43229
L47028 43426
" />
<path d="M46832 43229
L47028 43229
" />
<path d="M46832 43426
L46832 43229
" />
<path d="M45726 42829
L45726 43617
" />
<path d="M46119 42829
L45726 42829
" />
<path d="M46119 43617
L46119 42829
" />
<path d="M45726 43617
L46119 43617
" />
<path d="M46021 43321
L46021 43518
" />
<path d="M45824 43321
L46021 43321
" />
<path d="M45824 43518
L45824 43321
" />
<path d="M46021 43518
L45824 43518
" />
<path d="M46021 42928
L46021 43125
" />
<path d="M45824 42928
L46021 42928
" />
<path d="M45824 43125
L45824 42928
" />
<path d="M46021 43125
L45824 43125
" />
<path d="M46733 45528
L46733 44741
" />
<path d="M46339 45528
L46733 45528
" />
<path d="M46339 44741
L46339 45528
" />
<path d="M46733 44741
L46339 44741
" />
<path d="M46438 45036
L46438 44839
" />
<path d="M46635 45036
L46438 45036
" />
<path d="M46635 44839
L46635 45036
" />
<path d="M46438 44839
L46635 44839
" />
<path d="M46438 45430
L46438 45233
" />
<path d="M46635 45430
L46438 45430
" />
<path d="M46635 45233
L46635 45430
" />
<path d="M46438 45233
L46635 45233
" />
<path d="M46334 45814
L46334 46602
" />
<path d="M46727 45814
L46334 45814
" />
<path d="M46727 46602
L46727 45814
" />
<path d="M46334 46602
L46727 46602
" />
<path d="M46629 46306
L46629 46503
" />
<path d="M46432 46306
L46629 46306
" />
<path d="M46432 46503
L46432 46306
" />
<path d="M46629 46503
L46432 46503
" />
<path d="M46629 45913
L46629 46110
" />
<path d="M46432 45913
L46629 45913
" />
<path d="M46432 46110
L46432 45913
" />
<path d="M46629 46110
L46432 46110
" />
<path d="M47029 47165
L47029 47952
" />
<path d="M47423 47165
L47029 47165
" />
<path d="M47423 47952
L47423 47165
" />
<path d="M47029 47952
L47423 47952
" />
<path d="M47324 47657
L47324 47854
" />
<path d="M47128 47657
L47324 47657
" />
<path d="M47128 47854
L47128 47657
" />
<path d="M47324 47854
L47128 47854
" />
<path d="M47324 47263
L47324 47460
" />
<path d="M47128 47263
L47324 47263
" />
<path d="M47128 47460
L47128 47263
" />
<path d="M47324 47460
L47128 47460
" />
<path d="M47863 48424
L47863 47637
" />
<path d="M47470 48424
L47863 48424
" />
<path d="M47470 47637
L47470 48424
" />
<path d="M47863 47637
L47470 47637
" />
<path d="M47568 47932
L47568 47735
" />
<path d="M47765 47932
L47568 47932
" />
<path d="M47765 47735
L47765 47932
" />
<path d="M47568 47735
L47765 47735
" />
<path d="M47568 48326
L47568 48129
" />
<path d="M47765 48326
L47568 48326
" />
<path d="M47765 48129
L47765 48326
" />
<path d="M47568 48129
L47765 48129
" />
<path d="M45724 43638
L45724 44425
" />
<path d="M46117 43638
L45724 43638
" />
<path d="M46117 44425
L46117 43638
" />
<path d="M45724 44425
L46117 44425
" />
<path d="M46019 44130
L46019 44327
" />
<path d="M45822 44130
L46019 44130
" />
<path d="M45822 44327
L45822 44130
" />
<path d="M46019 44327
L45822 44327
" />
<path d="M46019 43736
L46019 43933
" />
<path d="M45822 43736
L46019 43736
" />
<path d="M45822 43933
L45822 43736
" />
<path d="M46019 43933
L45822 43933
" />
<path d="M47918 42033
L48705 42033
" />
<path d="M47918 41639
L47918 42033
" />
<path d="M48705 41639
L47918 41639
" />
<path d="M48705 42033
L48705 41639
" />
<path d="M48410 41738
L48607 41738
" />
<path d="M48410 41935
L48410 41738
" />
<path d="M48607 41935
L48410 41935
" />
<path d="M48607 41738
L48607 41935
" />
<path d="M48016 41738
L48213 41738
" />
<path d="M48016 41935
L48016 41738
" />
<path d="M48213 41935
L48016 41935
" />
<path d="M48213 41738
L48213 41935
" />
<path d="M47125 44337
L47125 43550
" />
<path d="M46731 44337
L47125 44337
" />
<path d="M46731 43550
L46731 44337
" />
<path d="M47125 43550
L46731 43550
" />
<path d="M46829 43845
L46829 43648
" />
<path d="M47026 43845
L46829 43845
" />
<path d="M47026 43648
L47026 43845
" />
<path d="M46829 43648
L47026 43648
" />
<path d="M46829 44239
L46829 44042
" />
<path d="M47026 44239
L46829 44239
" />
<path d="M47026 44042
L47026 44239
" />
<path d="M46829 44042
L47026 44042
" />
<path d="M61795 47339
L61008 47339
" />
<path d="M61795 47733
L61795 47339
" />
<path d="M61008 47733
L61795 47733
" />
<path d="M61008 47339
L61008 47733
" />
<path d="M61303 47635
L61106 47635
" />
<path d="M61303 47438
L61303 47635
" />
<path d="M61106 47438
L61303 47438
" />
<path d="M61106 47635
L61106 47438
" />
<path d="M61697 47635
L61500 47635
" />
<path d="M61697 47438
L61697 47635
" />
<path d="M61500 47438
L61697 47438
" />
<path d="M61500 47635
L61500 47438
" />
<path d="M61805 47769
L61018 47769
" />
<path d="M61805 48163
L61805 47769
" />
<path d="M61018 48163
L61805 48163
" />
<path d="M61018 47769
L61018 48163
" />
<path d="M61313 48065
L61116 48065
" />
<path d="M61313 47868
L61313 48065
" />
<path d="M61116 47868
L61313 47868
" />
<path d="M61116 48065
L61116 47868
" />
<path d="M61707 48065
L61510 48065
" />
<path d="M61707 47868
L61707 48065
" />
<path d="M61510 47868
L61707 47868
" />
<path d="M61510 48065
L61510 47868
" />
<path d="M60975 47849
L60188 47849
" />
<path d="M60975 48243
L60975 47849
" />
<path d="M60188 48243
L60975 48243
" />
<path d="M60188 47849
L60188 48243
" />
<path d="M60483 48145
L60286 48145
" />
<path d="M60483 47948
L60483 48145
" />
<path d="M60286 47948
L60483 47948
" />
<path d="M60286 48145
L60286 47948
" />
<path d="M60877 48145
L60680 48145
" />
<path d="M60877 47948
L60877 48145
" />
<path d="M60680 47948
L60877 47948
" />
<path d="M60680 48145
L60680 47948
" />
<path d="M59980 37966
L59980 37178
" />
<path d="M59587 37966
L59980 37966
" />
<path d="M59587 37178
L59587 37966
" />
<path d="M59980 37178
L59587 37178
" />
<path d="M59685 37474
L59685 37277
" />
<path d="M59882 37474
L59685 37474
" />
<path d="M59882 37277
L59882 37474
" />
<path d="M59685 37277
L59882 37277
" />
<path d="M59685 37867
L59685 37670
" />
<path d="M59882 37867
L59685 37867
" />
<path d="M59882 37670
L59882 37867
" />
<path d="M59685 37670
L59882 37670
" />
<path d="M52336 34346
L52336 33558
" />
<path d="M51942 34346
L52336 34346
" />
<path d="M51942 33558
L51942 34346
" />
<path d="M52336 33558
L51942 33558
" />
<path d="M52040 33854
L52040 33657
" />
<path d="M52237 33854
L52040 33854
" />
<path d="M52237 33657
L52237 33854
" />
<path d="M52040 33657
L52237 33657
" />
<path d="M52040 34247
L52040 34050
" />
<path d="M52237 34247
L52040 34247
" />
<path d="M52237 34050
L52237 34247
" />
<path d="M52040 34050
L52237 34050
" />
<path d="M51975 35210
L52762 35210
" />
<path d="M51975 34817
L51975 35210
" />
<path d="M52762 34817
L51975 34817
" />
<path d="M52762 35210
L52762 34817
" />
<path d="M52467 34915
L52664 34915
" />
<path d="M52467 35112
L52467 34915
" />
<path d="M52664 35112
L52467 35112
" />
<path d="M52664 34915
L52664 35112
" />
<path d="M52073 34915
L52270 34915
" />
<path d="M52073 35112
L52073 34915
" />
<path d="M52270 35112
L52073 35112
" />
<path d="M52270 34915
L52270 35112
" />
<path d="M57650 38822
L56863 38822
" />
<path d="M57650 39216
L57650 38822
" />
<path d="M56863 39216
L57650 39216
" />
<path d="M56863 38822
L56863 39216
" />
<path d="M57158 39117
L56962 39117
" />
<path d="M57158 38920
L57158 39117
" />
<path d="M56962 38920
L57158 38920
" />
<path d="M56962 39117
L56962 38920
" />
<path d="M57552 39117
L57355 39117
" />
<path d="M57552 38920
L57552 39117
" />
<path d="M57355 38920
L57552 38920
" />
<path d="M57355 39117
L57355 38920
" />
<path d="M57682 39214
L58469 39214
" />
<path d="M57682 38820
L57682 39214
" />
<path d="M58469 38820
L57682 38820
" />
<path d="M58469 39214
L58469 38820
" />
<path d="M58174 38919
L58371 38919
" />
<path d="M58174 39116
L58174 38919
" />
<path d="M58371 39116
L58174 39116
" />
<path d="M58371 38919
L58371 39116
" />
<path d="M57780 38919
L57977 38919
" />
<path d="M57780 39116
L57780 38919
" />
<path d="M57977 39116
L57780 39116
" />
<path d="M57977 38919
L57977 39116
" />
<path d="M52374 33559
L52374 34346
" />
<path d="M52767 33559
L52374 33559
" />
<path d="M52767 34346
L52767 33559
" />
<path d="M52374 34346
L52767 34346
" />
<path d="M52669 34051
L52669 34248
" />
<path d="M52472 34051
L52669 34051
" />
<path d="M52472 34248
L52472 34051
" />
<path d="M52669 34248
L52472 34248
" />
<path d="M52669 33658
L52669 33854
" />
<path d="M52472 33658
L52669 33658
" />
<path d="M52472 33854
L52472 33658
" />
<path d="M52669 33854
L52472 33854
" />
<path d="M51977 34784
L52764 34784
" />
<path d="M51977 34390
L51977 34784
" />
<path d="M52764 34390
L51977 34390
" />
<path d="M52764 34784
L52764 34390
" />
<path d="M52469 34489
L52666 34489
" />
<path d="M52469 34686
L52469 34489
" />
<path d="M52666 34686
L52469 34686
" />
<path d="M52666 34489
L52666 34686
" />
<path d="M52075 34489
L52272 34489
" />
<path d="M52075 34686
L52075 34489
" />
<path d="M52272 34686
L52075 34686
" />
<path d="M52272 34489
L52272 34686
" />
<path d="M61268 46415
L60480 46415
" />
<path d="M61268 46809
L61268 46415
" />
<path d="M60480 46809
L61268 46809
" />
<path d="M60480 46415
L60480 46809
" />
<path d="M60776 46711
L60579 46711
" />
<path d="M60776 46514
L60776 46711
" />
<path d="M60579 46514
L60776 46514
" />
<path d="M60579 46711
L60579 46514
" />
<path d="M61169 46711
L60972 46711
" />
<path d="M61169 46514
L61169 46711
" />
<path d="M60972 46514
L61169 46514
" />
<path d="M60972 46711
L60972 46514
" />
<path d="M61265 46835
L60478 46835
" />
<path d="M61265 47229
L61265 46835
" />
<path d="M60478 47229
L61265 47229
" />
<path d="M60478 46835
L60478 47229
" />
<path d="M60773 47131
L60576 47131
" />
<path d="M60773 46934
L60773 47131
" />
<path d="M60576 46934
L60773 46934
" />
<path d="M60576 47131
L60576 46934
" />
<path d="M61167 47131
L60970 47131
" />
<path d="M61167 46934
L61167 47131
" />
<path d="M60970 46934
L61167 46934
" />
<path d="M60970 47131
L60970 46934
" />
<path d="M58821 47459
L58821 46869
" />
<path d="M58821.2 46869.3 A244.559 244.559 0.0 0 0 58427.6 46869.3 " />
<path d="M58427 46869
L58427 47459
" />
<path d="M58427.6 47459.9 A244.865 244.865 0.0 0 0 58821.2 47459.9 " />
<path d="M58722 47262
L58722 47459
" />
<path d="M58525 47262
L58722 47262
" />
<path d="M58525 47459
L58525 47262
" />
<path d="M58722 47459
L58525 47459
" />
<path d="M58722 46869
L58722 47066
" />
<path d="M58525 46869
L58722 46869
" />
<path d="M58525 47066
L58525 46869
" />
<path d="M58722 47066
L58525 47066
" />
<path d="M52878 47872
L52878 47281
" />
<path d="M52878.8 47281.4 A244.557 244.557 0.0 0 0 52485.2 47281.4 " />
<path d="M52485 47281
L52485 47872
" />
<path d="M52485.2 47872 A244.861 244.861 0.0 0 0 52878.8 47872 " />
<path d="M52780 47675
L52780 47871
" />
<path d="M52583 47675
L52780 47675
" />
<path d="M52583 47871
L52583 47675
" />
<path d="M52780 47871
L52583 47871
" />
<path d="M52780 47281
L52780 47478
" />
<path d="M52583 47281
L52780 47281
" />
<path d="M52583 47478
L52583 47281
" />
<path d="M52780 47478
L52583 47478
" />
<path d="M48917 33659
L48326 33659
" />
<path d="M48326.7 33659.9 A244.557 244.557 0.0 0 0 48326.7 34053.5 " />
<path d="M48326 34053
L48917 34053
" />
<path d="M48917.3 34053.5 A244.861 244.861 0.0 0 0 48917.3 33659.9 " />
<path d="M48720 33758
L48917 33758
" />
<path d="M48720 33955
L48720 33758
" />
<path d="M48917 33955
L48720 33955
" />
<path d="M48917 33758
L48917 33955
" />
<path d="M48326 33758
L48523 33758
" />
<path d="M48326 33955
L48326 33758
" />
<path d="M48523 33955
L48326 33955
" />
<path d="M48523 33758
L48523 33955
" />
<path d="M51588 48112
L51588 47521
" />
<path d="M51588.8 47521.4 A244.557 244.557 0.0 0 0 51195.2 47521.4 " />
<path d="M51195 47521
L51195 48112
" />
<path d="M51195.2 48112 A244.861 244.861 0.0 0 0 51588.8 48112 " />
<path d="M51490 47915
L51490 48111
" />
<path d="M51293 47915
L51490 47915
" />
<path d="M51293 48111
L51293 47915
" />
<path d="M51490 48111
L51293 48111
" />
<path d="M51490 47521
L51490 47718
" />
<path d="M51293 47521
L51490 47521
" />
<path d="M51293 47718
L51293 47521
" />
<path d="M51490 47718
L51293 47718
" />
<path d="M47358 45942
L47358 45351
" />
<path d="M47358.8 45351.4 A244.557 244.557 0.0 0 0 46965.2 45351.4 " />
<path d="M46965 45351
L46965 45942
" />
<path d="M46965.2 45942 A244.861 244.861 0.0 0 0 47358.8 45942 " />
<path d="M47260 45745
L47260 45941
" />
<path d="M47063 45745
L47260 45745
" />
<path d="M47063 45941
L47063 45745
" />
<path d="M47260 45941
L47063 45941
" />
<path d="M47260 45351
L47260 45548
" />
<path d="M47063 45351
L47260 45351
" />
<path d="M47063 45548
L47063 45351
" />
<path d="M47260 45548
L47063 45548
" />
<path d="M52802 33822
L52802 34412
" />
<path d="M52802.4 34412.7 A244.556 244.556 0.0 0 0 53196 34412.7 " />
<path d="M53196 34412
L53196 33822
" />
<path d="M53196 33822.2 A244.858 244.858 0.0 0 0 52802.4 33822.1 " />
<path d="M52900 34019
L52900 33822
" />
<path d="M53097 34019
L52900 34019
" />
<path d="M53097 33822
L53097 34019
" />
<path d="M52900 33822
L53097 33822
" />
<path d="M52900 34412
L52900 34215
" />
<path d="M53097 34412
L52900 34412
" />
<path d="M53097 34215
L53097 34412
" />
<path d="M52900 34215
L53097 34215
" />
<path d="M53196 35241
L53196 34650
" />
<path d="M53196 34650.7 A244.557 244.557 0.0 0 0 52802.4 34650.7 " />
<path d="M52802 34650
L52802 35241
" />
<path d="M52802.4 35241.3 A244.861 244.861 0.0 0 0 53196 35241.3 " />
<path d="M53097 35044
L53097 35241
" />
<path d="M52900 35044
L53097 35044
" />
<path d="M52900 35241
L52900 35044
" />
<path d="M53097 35241
L52900 35241
" />
<path d="M53097 34650
L53097 34847
" />
<path d="M52900 34650
L53097 34650
" />
<path d="M52900 34847
L52900 34650
" />
<path d="M53097 34847
L52900 34847
" />
<path d="M47537 44048
L47537 43457
" />
<path d="M47537.3 43457.5 A244.555 244.555 0.0 0 0 47143.7 43457.5 " />
<path d="M47143 43457
L47143 44048
" />
<path d="M47143.7 44048.1 A244.86 244.86 0.0 0 0 47537.3 44048.1 " />
<path d="M47438 43851
L47438 44048
" />
<path d="M47242 43851
L47438 43851
" />
<path d="M47242 44048
L47242 43851
" />
<path d="M47438 44048
L47242 44048
" />
<path d="M47438 43457
L47438 43654
" />
<path d="M47242 43457
L47438 43457
" />
<path d="M47242 43654
L47242 43457
" />
<path d="M47438 43654
L47242 43654
" />
<path d="M49676 42033
L50267 42033
" />
<path d="M50267.3 42033.5 A244.557 244.557 0.0 0 0 50267.3 41639.9 " />
<path d="M50267 41639
L49676 41639
" />
<path d="M49676.7 41639.9 A244.861 244.861 0.0 0 0 49676.7 42033.5 " />
<path d="M49873 41935
L49676 41935
" />
<path d="M49873 41738
L49873 41935
" />
<path d="M49676 41738
L49873 41738
" />
<path d="M49676 41935
L49676 41738
" />
<path d="M50267 41935
L50070 41935
" />
<path d="M50267 41738
L50267 41935
" />
<path d="M50070 41738
L50267 41738
" />
<path d="M50070 41935
L50070 41738
" />
<path d="M46315 43639
L46315 44230
" />
<path d="M46315.7 44230.2 A244.557 244.557 0.0 0 0 46709.3 44230.2 " />
<path d="M46709 44230
L46709 43639
" />
<path d="M46709.3 43639.6 A244.863 244.863 0.0 0 0 46315.7 43639.6 " />
<path d="M46414 43836
L46414 43639
" />
<path d="M46610 43836
L46414 43836
" />
<path d="M46610 43639
L46610 43836
" />
<path d="M46414 43639
L46610 43639
" />
<path d="M46414 44230
L46414 44033
" />
<path d="M46610 44230
L46414 44230
" />
<path d="M46610 44033
L46610 44230
" />
<path d="M46414 44033
L46610 44033
" />
<path d="M58516 48243
L59107 48243
" />
<path d="M59107.3 48243.5 A244.557 244.557 0.0 0 0 59107.3 47849.9 " />
<path d="M59107 47849
L58516 47849
" />
<path d="M58516.7 47849.9 A244.861 244.861 0.0 0 0 58516.7 48243.5 " />
<path d="M58713 48145
L58516 48145
" />
<path d="M58713 47948
L58713 48145
" />
<path d="M58516 47948
L58713 47948
" />
<path d="M58516 48145
L58516 47948
" />
<path d="M59107 48145
L58910 48145
" />
<path d="M59107 47948
L59107 48145
" />
<path d="M58910 47948
L59107 47948
" />
<path d="M58910 48145
L58910 47948
" />
<path d="M59199 34000
L59199 34591
" />
<path d="M59199.4 34591.2 A244.557 244.557 0.0 0 0 59593 34591.2 " />
<path d="M59592 34591
L59592 34000
" />
<path d="M59593 34000.6 A244.861 244.861 0.0 0 0 59199.4 34000.6 " />
<path d="M59297 34197
L59297 34000
" />
<path d="M59494 34197
L59297 34197
" />
<path d="M59494 34000
L59494 34197
" />
<path d="M59297 34000
L59494 34000
" />
<path d="M59297 34591
L59297 34394
" />
<path d="M59494 34591
L59297 34591
" />
<path d="M59494 34394
L59494 34591
" />
<path d="M59297 34394
L59494 34394
" />
<path d="M47974 41522
L47974 40932
" />
<path d="M47974.6 40932.2 A244.557 244.557 0.0 0 0 47581 40932.2 " />
<path d="M47580 40932
L47580 41522
" />
<path d="M47581 41522.8 A244.861 244.861 0.0 0 0 47974.6 41522.8 " />
<path d="M47876 41325
L47876 41522
" />
<path d="M47679 41325
L47876 41325
" />
<path d="M47679 41522
L47679 41325
" />
<path d="M47876 41522
L47679 41522
" />
<path d="M47876 40932
L47876 41129
" />
<path d="M47679 40932
L47876 40932
" />
<path d="M47679 41129
L47679 40932
" />
<path d="M47876 41129
L47679 41129
" />
<path d="M47984 39532
L47984 38942
" />
<path d="M47984.6 38942.2 A244.557 244.557 0.0 0 0 47591 38942.2 " />
<path d="M47590 38942
L47590 39532
" />
<path d="M47591 39532.8 A244.861 244.861 0.0 0 0 47984.6 39532.8 " />
<path d="M47886 39335
L47886 39532
" />
<path d="M47689 39335
L47886 39335
" />
<path d="M47689 39532
L47689 39335
" />
<path d="M47886 39532
L47689 39532
" />
<path d="M47886 38942
L47886 39139
" />
<path d="M47689 38942
L47886 38942
" />
<path d="M47689 39139
L47689 38942
" />
<path d="M47886 39139
L47689 39139
" />
<path d="M56742 35298
L56151 35298
" />
<path d="M56151.8 35298.2 A244.561 244.561 0.0 0 0 56151.8 35691.8 " />
<path d="M56151 35691
L56742 35691
" />
<path d="M56742.4 35691.8 A244.862 244.862 0.0 0 0 56742.4 35298.2 " />
<path d="M56545 35396
L56742 35396
" />
<path d="M56545 35593
L56545 35396
" />
<path d="M56742 35593
L56545 35593
" />
<path d="M56742 35396
L56742 35593
" />
<path d="M56151 35396
L56348 35396
" />
<path d="M56151 35593
L56151 35396
" />
<path d="M56348 35593
L56151 35593
" />
<path d="M56348 35396
L56348 35593
" />
<path d="M55751 35275
L56342 35275
" />
<path d="M56342.1 35275.3 A244.556 244.556 0.0 0 0 56342.1 34881.7 " />
<path d="M56342 34881
L55751 34881
" />
<path d="M55751.5 34881.7 A244.863 244.863 0.0 0 0 55751.5 35275.3 " />
<path d="M55948 35176
L55751 35176
" />
<path d="M55948 34980
L55948 35176
" />
<path d="M55751 34980
L55948 34980
" />
<path d="M55751 35176
L55751 34980
" />
<path d="M56342 35176
L56145 35176
" />
<path d="M56342 34980
L56342 35176
" />
<path d="M56145 34980
L56342 34980
" />
<path d="M56145 35176
L56145 34980
" />
<path d="M58311 36105
L57720 36105
" />
<path d="M57720.9 36105.5 A244.557 244.557 0.0 0 0 57720.9 36499.1 " />
<path d="M57720 36499
L58311 36499
" />
<path d="M58311.5 36499.1 A244.861 244.861 0.0 0 0 58311.5 36105.5 " />
<path d="M58114 36203
L58311 36203
" />
<path d="M58114 36400
L58114 36203
" />
<path d="M58311 36400
L58114 36400
" />
<path d="M58311 36203
L58311 36400
" />
<path d="M57720 36203
L57917 36203
" />
<path d="M57720 36400
L57720 36203
" />
<path d="M57917 36400
L57720 36400
" />
<path d="M57917 36203
L57917 36400
" />
<path d="M55911 35298
L55321 35298
" />
<path d="M55321.4 35298.2 A244.561 244.561 0.0 0 0 55321.4 35691.8 " />
<path d="M55321 35691
L55911 35691
" />
<path d="M55912 35691.8 A244.862 244.862 0.0 0 0 55912 35298.2 " />
<path d="M55715 35396
L55911 35396
" />
<path d="M55715 35593
L55715 35396
" />
<path d="M55911 35593
L55715 35593
" />
<path d="M55911 35396
L55911 35593
" />
<path d="M55321 35396
L55518 35396
" />
<path d="M55321 35593
L55321 35396
" />
<path d="M55518 35593
L55321 35593
" />
<path d="M55518 35396
L55518 35593
" />
<path d="M59009 36915
L59009 36324
" />
<path d="M59009.6 36324.8 A244.557 244.557 0.0 0 0 58616 36324.8 " />
<path d="M58616 36324
L58616 36915
" />
<path d="M58616 36915.4 A244.861 244.861 0.0 0 0 59009.6 36915.4 " />
<path d="M58911 36718
L58911 36915
" />
<path d="M58714 36718
L58911 36718
" />
<path d="M58714 36915
L58714 36718
" />
<path d="M58911 36915
L58714 36915
" />
<path d="M58911 36324
L58911 36521
" />
<path d="M58714 36324
L58911 36324
" />
<path d="M58714 36521
L58714 36324
" />
<path d="M58911 36521
L58714 36521
" />
<path d="M58130 36649
L57540 36649
" />
<path d="M57540.1 36649.1 A244.557 244.557 0.0 0 0 57540.1 37042.7 " />
<path d="M57540 37042
L58130 37042
" />
<path d="M58130.7 37042.7 A244.861 244.861 0.0 0 0 58130.7 36649.1 " />
<path d="M57933 36747
L58130 36747
" />
<path d="M57933 36944
L57933 36747
" />
<path d="M58130 36944
L57933 36944
" />
<path d="M58130 36747
L58130 36944
" />
<path d="M57540 36747
L57736 36747
" />
<path d="M57540 36944
L57540 36747
" />
<path d="M57736 36944
L57540 36944
" />
<path d="M57736 36747
L57736 36944
" />
<path d="M53862 42582
L53862 43012
" />
<path d="M53352 42582
L53862 42582
" />
<path d="M53352 43012
L53352 42582
" />
<path d="M53862 43682
L53862 43252
" />
<path d="M53352 43682
L53862 43682
" />
<path d="M53352 43252
L53352 43682
" />
<path d="M53427 43252
L53787 43252
" />
<path d="M53427 43612
L53427 43252
" />
<path d="M53787 43612
L53427 43612
" />
<path d="M53787 43252
L53787 43612
" />
<path d="M53427 42652
L53787 42652
" />
<path d="M53427 43012
L53427 42652
" />
<path d="M53787 43012
L53427 43012
" />
<path d="M53787 42652
L53787 43012
" />
<path d="M47043 43099
L47043 42669
" />
<path d="M47553 43099
L47043 43099
" />
<path d="M47553 42669
L47553 43099
" />
<path d="M47043 41999
L47043 42429
" />
<path d="M47553 41999
L47043 41999
" />
<path d="M47553 42429
L47553 41999
" />
<path d="M47478 42429
L47118 42429
" />
<path d="M47478 42069
L47478 42429
" />
<path d="M47118 42069
L47478 42069
" />
<path d="M47118 42429
L47118 42069
" />
<path d="M47478 43029
L47118 43029
" />
<path d="M47478 42669
L47478 43029
" />
<path d="M47118 42669
L47478 42669
" />
<path d="M47118 43029
L47118 42669
" />
<path d="M50131 34071
L49701 34071
" />
<path d="M50131 33561
L50131 34071
" />
<path d="M49701 33561
L50131 33561
" />
<path d="M49031 34071
L49461 34071
" />
<path d="M49031 33561
L49031 34071
" />
<path d="M49461 33561
L49031 33561
" />
<path d="M49461 33636
L49461 33996
" />
<path d="M49101 33636
L49461 33636
" />
<path d="M49101 33996
L49101 33636
" />
<path d="M49461 33996
L49101 33996
" />
<path d="M50061 33636
L50061 33996
" />
<path d="M49701 33636
L50061 33636
" />
<path d="M49701 33996
L49701 33636
" />
<path d="M50061 33996
L49701 33996
" />
<path d="M46821 46631
L47251 46631
" />
<path d="M46821 47141
L46821 46631
" />
<path d="M47251 47141
L46821 47141
" />
<path d="M47921 46631
L47491 46631
" />
<path d="M47921 47141
L47921 46631
" />
<path d="M47491 47141
L47921 47141
" />
<path d="M47491 47066
L47491 46706
" />
<path d="M47851 47066
L47491 47066
" />
<path d="M47851 46706
L47851 47066
" />
<path d="M47491 46706
L47851 46706
" />
<path d="M46891 47066
L46891 46706
" />
<path d="M47251 47066
L46891 47066
" />
<path d="M47251 46706
L47251 47066
" />
<path d="M46891 46706
L47251 46706
" />
<path d="M61626 49346
L61626 48916
" />
<path d="M62136 49346
L61626 49346
" />
<path d="M62136 48916
L62136 49346
" />
<path d="M61626 48246
L61626 48676
" />
<path d="M62136 48246
L61626 48246
" />
<path d="M62136 48676
L62136 48246
" />
<path d="M62061 48676
L61701 48676
" />
<path d="M62061 48316
L62061 48676
" />
<path d="M61701 48316
L62061 48316
" />
<path d="M61701 48676
L61701 48316
" />
<path d="M62061 49276
L61701 49276
" />
<path d="M62061 48916
L62061 49276
" />
<path d="M61701 48916
L62061 48916
" />
<path d="M61701 49276
L61701 48916
" />
<path d="M47011 41990
L47011 42420
" />
<path d="M46501 41990
L47011 41990
" />
<path d="M46501 42420
L46501 41990
" />
<path d="M47011 43090
L47011 42660
" />
<path d="M46501 43090
L47011 43090
" />
<path d="M46501 42660
L46501 43090
" />
<path d="M46576 42660
L46936 42660
" />
<path d="M46576 43020
L46576 42660
" />
<path d="M46936 43020
L46576 43020
" />
<path d="M46936 42660
L46936 43020
" />
<path d="M46576 42060
L46936 42060
" />
<path d="M46576 42420
L46576 42060
" />
<path d="M46936 42420
L46576 42420
" />
<path d="M46936 42060
L46936 42420
" />
<path d="M58636 38177
L58636 37747
" />
<path d="M59146 38177
L58636 38177
" />
<path d="M59146 37747
L59146 38177
" />
<path d="M58636 37077
L58636 37507
" />
<path d="M59146 37077
L58636 37077
" />
<path d="M59146 37507
L59146 37077
" />
<path d="M59071 37507
L58711 37507
" />
<path d="M59071 37147
L59071 37507
" />
<path d="M58711 37147
L59071 37147
" />
<path d="M58711 37507
L58711 37147
" />
<path d="M59071 38107
L58711 38107
" />
<path d="M59071 37747
L59071 38107
" />
<path d="M58711 37747
L59071 37747
" />
<path d="M58711 38107
L58711 37747
" />
<path d="M51618 46708
L51618 47279
" />
<path d="M52425 46708
L51618 46708
" />
<path d="M52445 46728
L52425 46708
" />
<path d="M52445 47279
L52445 46728
" />
<path d="M51618 48185
L51618 47633
" />
<path d="M52445 48185
L51618 48185
" />
<path d="M52445 47633
L52445 48185
" />
<path d="M51756 47611
L52306 47611
" />
<path d="M51756 48061
L51756 47611
" />
<path d="M52306 48061
L51756 48061
" />
<path d="M52306 47611
L52306 48061
" />
<path d="M51756 46851
L52306 46851
" />
<path d="M51756 47301
L51756 46851
" />
<path d="M52306 47301
L51756 47301
" />
<path d="M52306 46851
L52306 47301
" />
<path d="M45653 41297
L45653 41868
" />
<path d="M46460 41297
L45653 41297
" />
<path d="M46479 41317
L46460 41297
" />
<path d="M46479 41868
L46479 41317
" />
<path d="M45653 42774
L45653 42223
" />
<path d="M46479 42774
L45653 42774
" />
<path d="M46479 42223
L46479 42774
" />
<path d="M45791 42200
L46341 42200
" />
<path d="M45791 42650
L45791 42200
" />
<path d="M46341 42650
L45791 42650
" />
<path d="M46341 42200
L46341 42650
" />
<path d="M45791 41440
L46341 41440
" />
<path d="M45791 41890
L45791 41440
" />
<path d="M46341 41890
L45791 41890
" />
<path d="M46341 41440
L46341 41890
" />
<path d="M59542 36193
L59542 35622
" />
<path d="M58735 36193
L59542 36193
" />
<path d="M58715 36173
L58735 36193
" />
<path d="M58715 35622
L58715 36173
" />
<path d="M59542 34716
L59542 35267
" />
<path d="M58715 34716
L59542 34716
" />
<path d="M58715 35267
L58715 34716
" />
<path d="M59404 35290
L58854 35290
" />
<path d="M59404 34840
L59404 35290
" />
<path d="M58854 34840
L59404 34840
" />
<path d="M58854 35290
L58854 34840
" />
<path d="M59404 36050
L58854 36050
" />
<path d="M59404 35600
L59404 36050
" />
<path d="M58854 35600
L59404 35600
" />
<path d="M58854 36050
L58854 35600
" />
<path d="M58392 48244
L58392 47673
" />
<path d="M57585 48244
L58392 48244
" />
<path d="M57565 48224
L57585 48244
" />
<path d="M57565 47673
L57565 48224
" />
<path d="M58392 46767
L58392 47318
" />
<path d="M57565 46767
L58392 46767
" />
<path d="M57565 47318
L57565 46767
" />
<path d="M58253 47341
L57703 47341
" />
<path d="M58253 46891
L58253 47341
" />
<path d="M57703 46891
L58253 46891
" />
<path d="M57703 47341
L57703 46891
" />
<path d="M58253 48101
L57703 48101
" />
<path d="M58253 47651
L58253 48101
" />
<path d="M57703 47651
L58253 47651
" />
<path d="M57703 48101
L57703 47651
" />
<path d="M47521 39276
L47421 39176
" />
<path d="M47321 39276
L47521 39276
" />
<path d="M47421 39176
L47321 39276
" />
<path d="M46721 39256
L46321 39256
" />
<path d="M46821 39156
L46721 39256
" />
<path d="M46821 38056
L46821 39156
" />
<path d="M46321 38056
L46821 38056
" />
<path d="M46321 39256
L46321 38056
" />
<path d="M46261 38896
L46261 39156
" />
<path d="M45711 38896
L46261 38896
" />
<path d="M45711 39156
L45711 38896
" />
<path d="M46261 39156
L45711 39156
" />
<path d="M46261 38148
L46261 38408
" />
<path d="M45711 38148
L46261 38148
" />
<path d="M45711 38408
L45711 38148
" />
<path d="M46261 38408
L45711 38408
" />
<path d="M47431 38148
L47431 38408
" />
<path d="M46881 38148
L47431 38148
" />
<path d="M46881 38408
L46881 38148
" />
<path d="M47431 38408
L46881 38408
" />
<path d="M47431 38522
L47431 38782
" />
<path d="M46881 38522
L47431 38522
" />
<path d="M46881 38782
L46881 38522
" />
<path d="M47431 38782
L46881 38782
" />
<path d="M47431 38896
L47431 39156
" />
<path d="M46881 38896
L47431 38896
" />
<path d="M46881 39156
L46881 38896
" />
<path d="M47431 39156
L46881 39156
" />
<path d="M46261 38522
L46261 38782
" />
<path d="M45711 38522
L46261 38522
" />
<path d="M45711 38782
L45711 38522
" />
<path d="M46261 38782
L45711 38782
" />
<path d="M55302.6 39936.1 A196.854 196.854 0.0 0 0 55696.3 39936.1 " />
<path d="M55696.3 39936.1 A196.854 196.854 0.0 0 0 55302.6 39936.1 " />
<path d="M56837 39995
L56837 39621
" />
<path d="M57625 39995
L56837 39995
" />
<path d="M57625 39621
L57625 39995
" />
<path d="M55853 39621
L55853 44660
" />
<path d="M58609 39621
L55853 39621
" />
<path d="M58609 44660
L58609 39621
" />
<path d="M55853 44660
L58609 44660
" />
<path d="M58584 40518
L58584 40262
" />
<path d="M59332 40518
L58584 40518
" />
<path d="M59332 40262
L59332 40518
" />
<path d="M58584 40262
L59332 40262
" />
<path d="M58584 41018
L58584 40762
" />
<path d="M59332 41018
L58584 41018
" />
<path d="M59332 40762
L59332 41018
" />
<path d="M58584 40762
L59332 40762
" />
<path d="M58584 41518
L58584 41262
" />
<path d="M59332 41518
L58584 41518
" />
<path d="M59332 41262
L59332 41518
" />
<path d="M58584 41262
L59332 41262
" />
<path d="M58584 42018
L58584 41762
" />
<path d="M59332 42018
L58584 42018
" />
<path d="M59332 41762
L59332 42018
" />
<path d="M58584 41762
L59332 41762
" />
<path d="M58584 42518
L58584 42262
" />
<path d="M59332 42518
L58584 42518
" />
<path d="M59332 42262
L59332 42518
" />
<path d="M58584 42262
L59332 42262
" />
<path d="M58584 43018
L58584 42762
" />
<path d="M59332 43018
L58584 43018
" />
<path d="M59332 42762
L59332 43018
" />
<path d="M58584 42762
L59332 42762
" />
<path d="M58584 43518
L58584 43262
" />
<path d="M59332 43518
L58584 43518
" />
<path d="M59332 43262
L59332 43518
" />
<path d="M58584 43262
L59332 43262
" />
<path d="M58584 44018
L58584 43762
" />
<path d="M59332 44018
L58584 44018
" />
<path d="M59332 43762
L59332 44018
" />
<path d="M58584 43762
L59332 43762
" />
<path d="M55131 44018
L55131 43762
" />
<path d="M55879 44018
L55131 44018
" />
<path d="M55879 43762
L55879 44018
" />
<path d="M55131 43762
L55879 43762
" />
<path d="M55131 43518
L55131 43262
" />
<path d="M55879 43518
L55131 43518
" />
<path d="M55879 43262
L55879 43518
" />
<path d="M55131 43262
L55879 43262
" />
<path d="M55131 43018
L55131 42762
" />
<path d="M55879 43018
L55131 43018
" />
<path d="M55879 42762
L55879 43018
" />
<path d="M55131 42762
L55879 42762
" />
<path d="M55131 42518
L55131 42262
" />
<path d="M55879 42518
L55131 42518
" />
<path d="M55879 42262
L55879 42518
" />
<path d="M55131 42262
L55879 42262
" />
<path d="M55131 42018
L55131 41762
" />
<path d="M55879 42018
L55131 42018
" />
<path d="M55879 41762
L55879 42018
" />
<path d="M55131 41762
L55879 41762
" />
<path d="M55131 41518
L55131 41262
" />
<path d="M55879 41518
L55131 41518
" />
<path d="M55879 41262
L55879 41518
" />
<path d="M55131 41262
L55879 41262
" />
<path d="M55131 41018
L55131 40762
" />
<path d="M55879 41018
L55131 41018
" />
<path d="M55879 40762
L55879 41018
" />
<path d="M55131 40762
L55879 40762
" />
<path d="M55131 40518
L55131 40262
" />
<path d="M55879 40518
L55131 40518
" />
<path d="M55879 40262
L55879 40518
" />
<path d="M55131 40262
L55879 40262
" />
<path d="M65702 44718
L59502 44718
" />
<path d="M65702 38218
L65702 44718
" />
<path d="M59502 38218
L65702 38218
" />
<path d="M59502 44718
L59502 38218
" />
<path d="M60702 44468
L60702 43968
" />
<path d="M60502 44218
L60952 44218
" />
<path d="M60702 39918
L60702 39418
" />
<path d="M60502 39668
L60952 39668
" />
<circle cx="62602.3" cy="40068.3" r="300" /> 
<circle cx="61901.5" cy="40469.8" r="300" /> 
<circle cx="62602.3" cy="40871.4" r="300" /> 
<circle cx="61901.5" cy="41273" r="300" /> 
<circle cx="62602.3" cy="41674.6" r="300" /> 
<circle cx="61901.5" cy="42076.1" r="300" /> 
<circle cx="62602.3" cy="42477.7" r="300" /> 
<circle cx="61901.5" cy="42879.3" r="300" /> 
<circle cx="60002.3" cy="38768.3" r="300" /> 
<circle cx="60002.3" cy="39668.3" r="300" /> 
<circle cx="60002.3" cy="43268.3" r="300" /> 
<circle cx="60002.3" cy="44168.3" r="300" /> 
<circle cx="62252.3" cy="44668.3" r="455" /> 
<circle cx="62252.3" cy="38268.3" r="455" /> 
<circle cx="63602.3" cy="38968.3" r="650" /> 
<circle cx="63602.3" cy="43968.3" r="650" /> 
<path d="M62242 45246
L62921 45246
" />
<path d="M62242 46014
L62242 45246
" />
<path d="M62921 46014
L62242 46014
" />
<path d="M63915 46014
L63236 46014
" />
<path d="M63915 45246
L63915 46014
" />
<path d="M63236 45246
L63915 45246
" />
<path d="M62695 45974
L62282 45974
" />
<path d="M62695 45285
L62695 45974
" />
<path d="M62282 45285
L62695 45285
" />
<path d="M62282 45974
L62282 45285
" />
<path d="M63876 45974
L63463 45974
" />
<path d="M63876 45285
L63876 45974
" />
<path d="M63463 45285
L63876 45285
" />
<path d="M63463 45974
L63463 45285
" />
<path d="M62177 46026
L61498 46026
" />
<path d="M62177 45259
L62177 46026
" />
<path d="M61498 45259
L62177 45259
" />
<path d="M60504 45259
L61183 45259
" />
<path d="M60504 46026
L60504 45259
" />
<path d="M61183 46026
L60504 46026
" />
<path d="M61724 45298
L62137 45298
" />
<path d="M61724 45987
L61724 45298
" />
<path d="M62137 45987
L61724 45987
" />
<path d="M62137 45298
L62137 45987
" />
<path d="M60543 45298
L60956 45298
" />
<path d="M60543 45987
L60543 45298
" />
<path d="M60956 45987
L60543 45987
" />
<path d="M60956 45298
L60956 45987
" />
<path d="M47499 50409
L47893 50015
" />
<path d="M47499 49621
L47499 50409
" />
<path d="M47893 50015
L47499 49621
" />
<path d="M48490 50424
L48490 48424
" />
<path d="M61490 50424
L48490 50424
" />
<path d="M61490 48424
L61490 50424
" />
<path d="M48490 48424
L61490 48424
" />
<circle cx="48990.8" cy="48924.7" r="275.59" /> 
<path d="M49266 50200
L48715 50200
" />
<path d="M49266 49649
L49266 50200
" />
<path d="M48715 49649
L49266 49649
" />
<path d="M48715 50200
L48715 49649
" />
<circle cx="49990.8" cy="49924.7" r="275.59" /> 
<circle cx="49990.8" cy="48924.7" r="275.59" /> 
<circle cx="50990.8" cy="49924.7" r="275.59" /> 
<circle cx="50990.8" cy="48924.7" r="275.59" /> 
<circle cx="51990.8" cy="49924.7" r="275.59" /> 
<circle cx="51990.8" cy="48924.7" r="275.59" /> 
<circle cx="52990.8" cy="49924.7" r="275.59" /> 
<circle cx="52990.8" cy="48924.7" r="275.59" /> 
<circle cx="53990.8" cy="49924.7" r="275.59" /> 
<circle cx="53990.8" cy="48924.7" r="275.59" /> 
<circle cx="54990.8" cy="49924.7" r="275.59" /> 
<circle cx="54990.8" cy="48924.7" r="275.59" /> 
<circle cx="55990.8" cy="49924.7" r="275.59" /> 
<circle cx="55990.8" cy="48924.7" r="275.59" /> 
<circle cx="56990.8" cy="49924.7" r="275.59" /> 
<circle cx="56990.8" cy="48924.7" r="275.59" /> 
<circle cx="57990.8" cy="49924.7" r="275.59" /> 
<circle cx="57990.8" cy="48924.7" r="275.59" /> 
<circle cx="58990.8" cy="49924.7" r="275.59" /> 
<circle cx="58990.8" cy="48924.7" r="275.59" /> 
<circle cx="59990.8" cy="49924.7" r="275.59" /> 
<circle cx="59990.8" cy="48924.7" r="275.59" /> 
<circle cx="60990.8" cy="49924.7" r="275.59" /> 
<circle cx="60990.8" cy="48924.7" r="275.59" /> 
<path d="M62023 32791
L61629 33185
" />
<path d="M62023 33579
L62023 32791
" />
<path d="M61629 33185
L62023 33579
" />
<path d="M48490 33409
L48490 32409
" />
<path d="M61490 33409
L48490 33409
" />
<path d="M61490 32409
L61490 33409
" />
<path d="M48490 32409
L61490 32409
" />
<path d="M60715 32633
L61266 32633
" />
<path d="M60715 33185
L60715 32633
" />
<path d="M61266 33185
L60715 33185
" />
<path d="M61266 32633
L61266 33185
" />
<circle cx="59990.8" cy="32909.5" r="275.59" /> 
<circle cx="58990.8" cy="32909.5" r="275.59" /> 
<circle cx="57990.8" cy="32909.5" r="275.59" /> 
<circle cx="56990.8" cy="32909.5" r="275.59" /> 
<circle cx="55990.8" cy="32909.5" r="275.59" /> 
<circle cx="54990.8" cy="32909.5" r="275.59" /> 
<circle cx="53990.8" cy="32909.5" r="275.59" /> 
<circle cx="52990.8" cy="32909.5" r="275.59" /> 
<circle cx="51990.8" cy="32909.5" r="275.59" /> 
<circle cx="50990.8" cy="32909.5" r="275.59" /> 
<circle cx="49990.8" cy="32909.5" r="275.59" /> 
<circle cx="48990.8" cy="32909.5" r="275.59" /> 
<path d="M56153 48229
L56153 48189
" />
<path d="M57335 48229
L56153 48229
" />
<path d="M57335 48189
L57335 48229
" />
<path d="M57335 46811
L57335 46851
" />
<path d="M56153 46811
L57335 46811
" />
<path d="M56153 46851
L56153 46811
" />
<path d="M56823 47796
L56783 47323
" />
<path d="M56783 47244
L56823 47796
" />
<path d="M56705 47796
L56783 47244
" />
<path d="M56665 47244
L56705 47796
" />
<path d="M56881 46890
L57432 46890
" />
<path d="M56881 48150
L56881 46890
" />
<path d="M57432 48150
L56881 48150
" />
<path d="M57432 46890
L57432 48150
" />
<path d="M56055 46890
L56606 46890
" />
<path d="M56055 48150
L56055 46890
" />
<path d="M56606 48150
L56055 48150
" />
<path d="M56606 46890
L56606 48150
" />
<path d="M50390 35155
L50390 35115
" />
<path d="M51572 35155
L50390 35155
" />
<path d="M51572 35115
L51572 35155
" />
<path d="M51572 33737
L51572 33777
" />
<path d="M50390 33737
L51572 33737
" />
<path d="M50390 33777
L50390 33737
" />
<path d="M51060 34722
L51020 34249
" />
<path d="M51020 34170
L51060 34722
" />
<path d="M50942 34722
L51020 34170
" />
<path d="M50902 34170
L50942 34722
" />
<path d="M51119 33816
L51670 33816
" />
<path d="M51119 35076
L51119 33816
" />
<path d="M51670 35076
L51119 35076
" />
<path d="M51670 33816
L51670 35076
" />
<path d="M50293 33816
L50844 33816
" />
<path d="M50293 35076
L50293 33816
" />
<path d="M50844 35076
L50293 35076
" />
<path d="M50844 33816
L50844 35076
" />
<path d="M49830 48235
L49830 48195
" />
<path d="M51012 48235
L49830 48235
" />
<path d="M51012 48195
L51012 48235
" />
<path d="M51012 46817
L51012 46857
" />
<path d="M49830 46817
L51012 46817
" />
<path d="M49830 46857
L49830 46817
" />
<path d="M50500 47802
L50460 47329
" />
<path d="M50460 47250
L50500 47802
" />
<path d="M50382 47802
L50460 47250
" />
<path d="M50342 47250
L50382 47802
" />
<path d="M50559 46896
L51110 46896
" />
<path d="M50559 48156
L50559 46896
" />
<path d="M51110 48156
L50559 48156
" />
<path d="M51110 46896
L51110 48156
" />
<path d="M49733 46896
L50284 46896
" />
<path d="M49733 48156
L49733 46896
" />
<path d="M50284 48156
L49733 48156
" />
<path d="M50284 46896
L50284 48156
" />
<path d="M57603 35235
L57603 34841
" />
<path d="M58016 35235
L57603 35235
" />
<path d="M58016 34841
L58016 35235
" />
<path d="M57603 34841
L58016 34841
" />
<path d="M58193 34791
L58193 34004
" />
<path d="M58587 34791
L58193 34791
" />
<path d="M58587 34004
L58587 34791
" />
<path d="M58193 34004
L58587 34004
" />
<path d="M57032 34791
L57032 34004
" />
<path d="M57426 34791
L57032 34791
" />
<path d="M57426 34004
L57426 34791
" />
<path d="M57032 34004
L57426 34004
" />
<path d="M58092 37095
L58604 37095
" />
<path d="M58092 38217
L58092 37095
" />
<path d="M58604 38217
L58092 38217
" />
<path d="M58604 37095
L58604 38217
" />
<path d="M58161 37479
L58161 37164
" />
<path d="M58535 37479
L58161 37479
" />
<path d="M58535 37164
L58535 37479
" />
<path d="M58161 37164
L58535 37164
" />
<path d="M58161 38148
L58161 37833
" />
<path d="M58535 38148
L58161 38148
" />
<path d="M58535 37833
L58535 38148
" />
<path d="M58161 37833
L58535 37833
" />
<path d="M58020 38214
L57509 38214
" />
<path d="M58020 37092
L58020 38214
" />
<path d="M57509 37092
L58020 37092
" />
<path d="M57509 38214
L57509 37092
" />
<path d="M57952 37830
L57952 38145
" />
<path d="M57578 37830
L57952 37830
" />
<path d="M57578 38145
L57578 37830
" />
<path d="M57952 38145
L57578 38145
" />
<path d="M57952 37161
L57952 37476
" />
<path d="M57578 37161
L57952 37161
" />
<path d="M57578 37476
L57578 37161
" />
<path d="M57952 37476
L57578 37476
" />
<path d="M58390 36071
L58036 36071
" />
<path d="M58390 35362
L58390 36071
" />
<path d="M58036 35362
L58390 35362
" />
<path d="M58036 36071
L58036 35362
" />
<path d="M58339 35793
L58339 36018
" />
<path d="M58087 35793
L58339 35793
" />
<path d="M58087 36018
L58087 35793
" />
<path d="M58339 36018
L58087 36018
" />
<path d="M58339 35416
L58339 35640
" />
<path d="M58087 35416
L58339 35416
" />
<path d="M58087 35640
L58087 35416
" />
<path d="M58339 35640
L58087 35640
" />
<path d="M56802.6 35706.5 A138.022 138.022 0.0 0 0 57078.6 35706.5 " />
<path d="M57078.6 35706.5 A138.023 138.023 0.0 0 0 56802.6 35706.5 " />
<path d="M54954 38131
L54954 37934
" />
<path d="M55150 38131
L54954 38131
" />
<path d="M57087 35879
L56988 35879
" />
<path d="M57185 35977
L57087 35879
" />
<path d="M57185 36076
L57185 35977
" />
<path d="M56731 35862
L56809 35862
" />
<path d="M56731 36218
L56731 35862
" />
<path d="M56809 36218
L56731 36218
" />
<path d="M56809 35862
L56809 36218
" />
<path d="M56573 35862
L56652 35862
" />
<path d="M56573 36218
L56573 35862
" />
<path d="M56652 36218
L56573 36218
" />
<path d="M56652 35862
L56652 36218
" />
<path d="M56416 35862
L56494 35862
" />
<path d="M56416 36218
L56416 35862
" />
<path d="M56494 36218
L56416 36218
" />
<path d="M56494 35862
L56494 36218
" />
<path d="M56258 35862
L56337 35862
" />
<path d="M56258 36218
L56258 35862
" />
<path d="M56337 36218
L56258 36218
" />
<path d="M56337 35862
L56337 36218
" />
<path d="M56101 35862
L56180 35862
" />
<path d="M56101 36218
L56101 35862
" />
<path d="M56180 36218
L56101 36218
" />
<path d="M56180 35862
L56180 36218
" />
<path d="M55943 35862
L56022 35862
" />
<path d="M55943 36218
L55943 35862
" />
<path d="M56022 36218
L55943 36218
" />
<path d="M56022 35862
L56022 36218
" />
<path d="M55786 35862
L55865 35862
" />
<path d="M55786 36218
L55786 35862
" />
<path d="M55865 36218
L55786 36218
" />
<path d="M55865 35862
L55865 36218
" />
<path d="M55628 35862
L55707 35862
" />
<path d="M55628 36218
L55628 35862
" />
<path d="M55707 36218
L55628 36218
" />
<path d="M55707 35862
L55707 36218
" />
<path d="M55471 35862
L55550 35862
" />
<path d="M55471 36218
L55471 35862
" />
<path d="M55550 36218
L55471 36218
" />
<path d="M55550 35862
L55550 36218
" />
<path d="M55313 35862
L55392 35862
" />
<path d="M55313 36218
L55313 35862
" />
<path d="M55392 36218
L55313 36218
" />
<path d="M55392 35862
L55392 36218
" />
<path d="M54908 36346
L54908 36268
" />
<path d="M55264 36346
L54908 36346
" />
<path d="M55264 36268
L55264 36346
" />
<path d="M54908 36268
L55264 36268
" />
<path d="M54908 36504
L54908 36425
" />
<path d="M55264 36504
L54908 36504
" />
<path d="M55264 36425
L55264 36504
" />
<path d="M54908 36425
L55264 36425
" />
<path d="M54908 36661
L54908 36582
" />
<path d="M55264 36661
L54908 36661
" />
<path d="M55264 36582
L55264 36661
" />
<path d="M54908 36582
L55264 36582
" />
<path d="M54908 36819
L54908 36740
" />
<path d="M55264 36819
L54908 36819
" />
<path d="M55264 36740
L55264 36819
" />
<path d="M54908 36740
L55264 36740
" />
<path d="M54908 36976
L54908 36897
" />
<path d="M55264 36976
L54908 36976
" />
<path d="M55264 36897
L55264 36976
" />
<path d="M54908 36897
L55264 36897
" />
<path d="M54908 37134
L54908 37055
" />
<path d="M55264 37134
L54908 37134
" />
<path d="M55264 37055
L55264 37134
" />
<path d="M54908 37055
L55264 37055
" />
<path d="M54908 37291
L54908 37212
" />
<path d="M55264 37291
L54908 37291
" />
<path d="M55264 37212
L55264 37291
" />
<path d="M54908 37212
L55264 37212
" />
<path d="M54908 37449
L54908 37370
" />
<path d="M55264 37449
L54908 37449
" />
<path d="M55264 37370
L55264 37449
" />
<path d="M54908 37370
L55264 37370
" />
<path d="M54908 37606
L54908 37527
" />
<path d="M55264 37606
L54908 37606
" />
<path d="M55264 37527
L55264 37606
" />
<path d="M54908 37527
L55264 37527
" />
<path d="M54908 37764
L54908 37685
" />
<path d="M55264 37764
L54908 37764
" />
<path d="M55264 37685
L55264 37764
" />
<path d="M54908 37685
L55264 37685
" />
<path d="M55392 38169
L55313 38169
" />
<path d="M55392 37813
L55392 38169
" />
<path d="M55313 37813
L55392 37813
" />
<path d="M55313 38169
L55313 37813
" />
<path d="M55550 38169
L55471 38169
" />
<path d="M55550 37813
L55550 38169
" />
<path d="M55471 37813
L55550 37813
" />
<path d="M55471 38169
L55471 37813
" />
<path d="M55707 38169
L55628 38169
" />
<path d="M55707 37813
L55707 38169
" />
<path d="M55628 37813
L55707 37813
" />
<path d="M55628 38169
L55628 37813
" />
<path d="M55865 38169
L55786 38169
" />
<path d="M55865 37813
L55865 38169
" />
<path d="M55786 37813
L55865 37813
" />
<path d="M55786 38169
L55786 37813
" />
<path d="M56022 38169
L55943 38169
" />
<path d="M56022 37813
L56022 38169
" />
<path d="M55943 37813
L56022 37813
" />
<path d="M55943 38169
L55943 37813
" />
<path d="M56180 38169
L56101 38169
" />
<path d="M56180 37813
L56180 38169
" />
<path d="M56101 37813
L56180 37813
" />
<path d="M56101 38169
L56101 37813
" />
<path d="M56337 38169
L56258 38169
" />
<path d="M56337 37813
L56337 38169
" />
<path d="M56258 37813
L56337 37813
" />
<path d="M56258 38169
L56258 37813
" />
<path d="M56494 38169
L56416 38169
" />
<path d="M56494 37813
L56494 38169
" />
<path d="M56416 37813
L56494 37813
" />
<path d="M56416 38169
L56416 37813
" />
<path d="M56652 38169
L56573 38169
" />
<path d="M56652 37813
L56652 38169
" />
<path d="M56573 37813
L56652 37813
" />
<path d="M56573 38169
L56573 37813
" />
<path d="M56809 38169
L56731 38169
" />
<path d="M56809 37813
L56809 38169
" />
<path d="M56731 37813
L56809 37813
" />
<path d="M56731 38169
L56731 37813
" />
<path d="M57215 37685
L57215 37764
" />
<path d="M56859 37685
L57215 37685
" />
<path d="M56859 37764
L56859 37685
" />
<path d="M57215 37764
L56859 37764
" />
<path d="M57215 37527
L57215 37606
" />
<path d="M56859 37527
L57215 37527
" />
<path d="M56859 37606
L56859 37527
" />
<path d="M57215 37606
L56859 37606
" />
<path d="M57215 37370
L57215 37449
" />
<path d="M56859 37370
L57215 37370
" />
<path d="M56859 37449
L56859 37370
" />
<path d="M57215 37449
L56859 37449
" />
<path d="M57215 37212
L57215 37291
" />
<path d="M56859 37212
L57215 37212
" />
<path d="M56859 37291
L56859 37212
" />
<path d="M57215 37291
L56859 37291
" />
<path d="M57215 37055
L57215 37134
" />
<path d="M56859 37055
L57215 37055
" />
<path d="M56859 37134
L56859 37055
" />
<path d="M57215 37134
L56859 37134
" />
<path d="M57215 36897
L57215 36976
" />
<path d="M56859 36897
L57215 36897
" />
<path d="M56859 36976
L56859 36897
" />
<path d="M57215 36976
L56859 36976
" />
<path d="M57215 36740
L57215 36819
" />
<path d="M56859 36740
L57215 36740
" />
<path d="M56859 36819
L56859 36740
" />
<path d="M57215 36819
L56859 36819
" />
<path d="M57215 36582
L57215 36661
" />
<path d="M56859 36582
L57215 36582
" />
<path d="M56859 36661
L56859 36582
" />
<path d="M57215 36661
L56859 36661
" />
<path d="M57215 36425
L57215 36504
" />
<path d="M56859 36425
L57215 36425
" />
<path d="M56859 36504
L56859 36425
" />
<path d="M57215 36504
L56859 36504
" />
<path d="M57215 36268
L57215 36346
" />
<path d="M56859 36268
L57215 36268
" />
<path d="M56859 36346
L56859 36268
" />
<path d="M57215 36346
L56859 36346
" />
<path d="M55412 36366
L56711 36366
" />
<path d="M55412 37665
L55412 36366
" />
<path d="M56711 37665
L55412 37665
" />
<path d="M56711 36366
L56711 37665
" />
<path d="M60190 37195
L60190 34884
" />
<path d="M65702 37195
L60190 37195
" />
<path d="M65702 34884
L65702 37195
" />
<path d="M60190 34884
L65702 34884
" />
<path d="M64265.3 35843.3 A492.125 492.125 0.0 0 0 63281 35843.3 " />
<path d="M63281 36236
L63281 35843
" />
<path d="M63281 36237 A492.125 492.125 0.0 0 0 64265.3 36237 " />
<path d="M64265 35843
L64265 36236
" />
<path d="M61621.2 35357.4 A400 400 0.0 0 0 61621.2 34557.4 " />
<path d="M61476 34557
L61621 34557
" />
<path d="M61476.3 34557.4 A400 400 0.0 0 0 61476.3 35357.4 " />
<path d="M61621 35357
L61476 35357
" />
<path d="M61621.2 37522.8 A400 400 0.0 0 0 61621.2 36722.8 " />
<path d="M61476 36722
L61621 36722
" />
<path d="M61476.3 36722.8 A400 400 0.0 0 0 61476.3 37522.8 " />
<path d="M61621 37522
L61476 37522
" />
<circle cx="60761.4" cy="35213.4" r="230" /> 
<circle cx="60761.4" cy="35764.5" r="230" /> 
<circle cx="60761.4" cy="36315.7" r="230" /> 
<circle cx="60761.4" cy="36866.9" r="230" /> 
<path d="M64429 46216
L64429 47216
" />
<path d="M61429 46216
L64429 46216
" />
<path d="M61429 47216
L61429 46216
" />
<path d="M64429 47216
L61429 47216
" />
<path d="M63653 46441
L64204 46441
" />
<path d="M63653 46992
L63653 46441
" />
<path d="M64204 46992
L63653 46992
" />
<path d="M64204 46441
L64204 46992
" />
<circle cx="62929.4" cy="46716.7" r="275.59" /> 
<circle cx="61929.4" cy="46716.7" r="275.59" /> 
<path d="M58465 41536
L58268 41340
" />
<path d="M58661 41340
L58465 41536
" />
<path d="M58465 41143
L58661 41340
" />
<path d="M58268 41340
L58465 41143
" />
<path d="M58465 41143
L58465 41536
" />
<path d="M58268 41340
L58661 41340
" />
<path d="M58661 41536
L58268 41536
" />
<path d="M58465 41143
L58661 41536
" />
<path d="M58268 41536
L58465 41143
" />
<path d="M58301 41487
L58268 41389
" />
<path d="M58366 41536
L58301 41487
" />
<path d="M58563 41536
L58366 41536
" />
<path d="M58628 41487
L58563 41536
" />
<path d="M58661 41389
L58628 41487
" />
<path d="M58661 41290
L58661 41389
" />
<path d="M58628 41192
L58661 41290
" />
<path d="M58563 41143
L58628 41192
" />
<path d="M58366 41143
L58563 41143
" />
<path d="M58301 41192
L58366 41143
" />
<path d="M58268 41290
L58301 41192
" />
<path d="M58268 41389
L58268 41290
" />
<path d="M58383 41536
L58268 41421
" />
<path d="M58546 41536
L58383 41536
" />
<path d="M58661 41421
L58546 41536
" />
<path d="M58661 41258
L58661 41421
" />
<path d="M58546 41143
L58661 41258
" />
<path d="M58383 41143
L58546 41143
" />
<path d="M58268 41258
L58383 41143
" />
<path d="M58268 41421
L58268 41258
" />
<path d="M58366 41536
L58268 41340
" />
<path d="M58563 41536
L58366 41536
" />
<path d="M58661 41340
L58563 41536
" />
<path d="M58563 41143
L58661 41340
" />
<path d="M58366 41143
L58563 41143
" />
<path d="M58268 41340
L58366 41143
" />
<path d="M58661 41536
L58268 41536
" />
<path d="M58661 41143
L58661 41536
" />
<path d="M58268 41143
L58661 41143
" />
<path d="M58268 41536
L58268 41143
" />
<circle cx="58465" cy="41340" r="196.85" /> 
<path d="M63280 33219
L63280 29036
" />
<path d="M46701 33219
L46701 29036
" />
<path d="M53078 28579
L53078 29236
" />
<path d="M52891 28204
L52703 28907
L53190 28907
" />
<path d="M53453 28345
L53490 28298
L53565 28251
L53753 28251
L53828 28298
L53865 28345
L53903 28439
L53903 28533
L53865 28673
L53415 29236
L53903 29236
" />
<path d="M54240 29142
L54278 29189
L54240 29236
L54203 29189
L54240 29142
L54240 29236
" />
<path d="M55028 29236
L54578 29236
" />
<path d="M54803 29236
L54803 28251
L54728 28392
L54653 28486
L54578 28533
" />
<path d="M55778 29236
L55328 29236
" />
<path d="M55553 29236
L55553 28251
L55478 28392
L55403 28486
L55328 28533
" />
<path d="M56265 28251
L56340 28251
L56415 28298
L56453 28345
L56490 28439
L56528 28626
L56528 28861
L56490 29048
L56453 29142
L56415 29189
L56340 29236
L56265 29236
L56190 29189
L56153 29142
L56115 29048
L56078 28861
L56078 28626
L56115 28439
L56153 28345
L56190 28298
L56265 28251
" />
<path d="M56903 29236
L57053 29236
L57128 29189
L57165 29142
L57240 29001
L57277 28814
L57277 28439
L57240 28345
L57202 28298
L57128 28251
L56978 28251
L56903 28298
L56865 28345
L56828 28439
L56828 28673
L56865 28767
L56903 28814
L56978 28861
L57128 28861
L57202 28814
L57240 28767
L57277 28673
" />
<path d="M46701 29528
L63280 29528
" />
<path d="M46455 49257
L42224 49257
" />
<path d="M46407 33465
L42224 33465
" />
<path d="M41767 43274
L42424 43274
" />
<path d="M41392 43461
L42095 43649
L42095 43161
" />
<path d="M41439 42711
L41439 42636
L41486 42561
L41533 42524
L41627 42486
L41814 42449
L42049 42449
L42236 42486
L42330 42524
L42377 42561
L42424 42636
L42424 42711
L42377 42786
L42330 42824
L42236 42861
L42049 42899
L41814 42899
L41627 42861
L41533 42824
L41486 42786
L41439 42711
" />
<path d="M42330 42111
L42377 42074
L42424 42111
L42377 42149
L42330 42111
L42424 42111
" />
<path d="M42424 41324
L42424 41774
" />
<path d="M42424 41549
L41439 41549
L41580 41624
L41674 41699
L41720 41774
" />
<path d="M42424 40574
L42424 41024
" />
<path d="M42424 40799
L41439 40799
L41580 40874
L41674 40949
L41720 41024
" />
<path d="M41439 40086
L41439 40012
L41486 39937
L41533 39899
L41627 39862
L41814 39824
L42049 39824
L42236 39862
L42330 39899
L42377 39937
L42424 40012
L42424 40086
L42377 40161
L42330 40199
L42236 40236
L42049 40274
L41814 40274
L41627 40236
L41533 40199
L41486 40161
L41439 40086
" />
<path d="M42424 39449
L42424 39299
L42377 39224
L42330 39187
L42189 39112
L42002 39074
L41627 39074
L41533 39112
L41486 39149
L41439 39224
L41439 39374
L41486 39449
L41533 39487
L41627 39524
L41861 39524
L41955 39487
L42002 39449
L42049 39374
L42049 39224
L42002 39149
L41955 39112
L41861 39074
" />
<path d="M42716 33465
L42716 49257
" />
</g> 
</svg>
