G04 #@! TF.FileFunction,Copper,L1,Top,Signal*
%FSLAX46Y46*%
G04 Gerber Fmt 4.6, Leading zero omitted, Abs format (unit mm)*
G04 Created by KiCad (PCBNEW 4.0.5-e0-6337~49~ubuntu16.04.1) date Wed Jan 25 22:03:33 2017*
%MOMM*%
%LPD*%
G01*
G04 APERTURE LIST*
%ADD10C,0.100000*%
%ADD11R,1.727200X1.727200*%
%ADD12O,1.727200X1.727200*%
%ADD13R,1.800000X1.800000*%
%ADD14C,1.800000*%
%ADD15C,1.400000*%
%ADD16O,1.400000X1.400000*%
%ADD17R,2.200000X1.000000*%
%ADD18C,1.000000*%
%ADD19R,1.700000X1.700000*%
%ADD20O,1.700000X1.700000*%
%ADD21C,0.600000*%
%ADD22C,0.250000*%
G04 APERTURE END LIST*
D10*
D11*
X150456900Y-117221000D03*
D12*
X150456900Y-114681000D03*
X152996900Y-117221000D03*
X152996900Y-114681000D03*
X155536900Y-117221000D03*
X155536900Y-114681000D03*
X158076900Y-117221000D03*
X158076900Y-114681000D03*
X160616900Y-117221000D03*
X160616900Y-114681000D03*
X163156900Y-117221000D03*
X163156900Y-114681000D03*
X165696900Y-117221000D03*
X165696900Y-114681000D03*
X168236900Y-117221000D03*
X168236900Y-114681000D03*
X170776900Y-117221000D03*
X170776900Y-114681000D03*
X173316900Y-117221000D03*
X173316900Y-114681000D03*
X175856900Y-117221000D03*
X175856900Y-114681000D03*
X178396900Y-117221000D03*
X178396900Y-114681000D03*
X180936900Y-117221000D03*
X180936900Y-114681000D03*
D13*
X132300000Y-98880000D03*
D14*
X134840000Y-98880000D03*
X139920000Y-98880000D03*
X142460000Y-98880000D03*
X145000000Y-98880000D03*
X147540000Y-98880000D03*
X150080000Y-98880000D03*
X150080000Y-91260000D03*
X147540000Y-91260000D03*
X145000000Y-91260000D03*
X142460000Y-91260000D03*
X139920000Y-91260000D03*
X137380000Y-91260000D03*
X134840000Y-91260000D03*
X132300000Y-91260000D03*
X137380000Y-98880000D03*
D15*
X155001200Y-123447200D03*
D16*
X162621200Y-123447200D03*
D15*
X155001200Y-126047200D03*
D16*
X162621200Y-126047200D03*
D15*
X155001200Y-131047200D03*
D16*
X162621200Y-131047200D03*
D15*
X155001200Y-128547200D03*
D16*
X162621200Y-128547200D03*
D17*
X190082800Y-113022400D03*
D18*
X185032800Y-107772400D03*
X186232800Y-108572400D03*
X185032800Y-109372400D03*
X186232800Y-110172400D03*
X185032800Y-110972400D03*
D17*
X190082800Y-105722400D03*
D13*
X153543200Y-90390000D03*
D14*
X156083200Y-90390000D03*
D13*
X163543200Y-90390000D03*
D14*
X166083200Y-90390000D03*
D13*
X163543200Y-100390000D03*
D14*
X166083200Y-100390000D03*
D13*
X153543200Y-100390000D03*
D14*
X156083200Y-100390000D03*
D19*
X125790000Y-107170000D03*
D20*
X125790000Y-104630000D03*
X125790000Y-102090000D03*
X125790000Y-99550000D03*
X125790000Y-97010000D03*
X125790000Y-94470000D03*
X125790000Y-91930000D03*
X125790000Y-89390000D03*
X125790000Y-86850000D03*
X125790000Y-84310000D03*
D19*
X180940000Y-73970000D03*
D20*
X178400000Y-73970000D03*
X175860000Y-73970000D03*
X173320000Y-73970000D03*
X170780000Y-73970000D03*
X168240000Y-73970000D03*
X165700000Y-73970000D03*
X163160000Y-73970000D03*
X160620000Y-73970000D03*
X158080000Y-73970000D03*
X155540000Y-73970000D03*
X153000000Y-73970000D03*
X150460000Y-73970000D03*
D21*
X167990000Y-119220000D03*
X153490000Y-106070000D03*
X144240000Y-95920000D03*
X145340000Y-94670000D03*
X154540000Y-106070000D03*
X164490000Y-105770000D03*
X160840000Y-103570000D03*
X154390000Y-120170000D03*
X161890000Y-110320000D03*
X158240000Y-106620000D03*
X158190000Y-103270000D03*
X158140000Y-100420000D03*
X164490000Y-110170000D03*
X157290000Y-105920000D03*
X157140000Y-103720000D03*
D22*
X163543200Y-90390000D02*
X163543200Y-100390000D01*
X132300000Y-91260000D02*
X132300000Y-91860000D01*
X132300000Y-91860000D02*
X128390000Y-95770000D01*
X128390000Y-95770000D02*
X124590000Y-95770000D01*
X124590000Y-95770000D02*
X123386002Y-96973998D01*
X123386002Y-96973998D02*
X123386002Y-104766002D01*
X123386002Y-104766002D02*
X125790000Y-107170000D01*
X125924400Y-99415600D02*
X127344400Y-99415600D01*
X127344400Y-99415600D02*
X132490000Y-94270000D01*
X132490000Y-94270000D02*
X136910000Y-94270000D01*
X136910000Y-94270000D02*
X139920000Y-91260000D01*
X125924400Y-99415600D02*
X125790000Y-99550000D01*
X158076900Y-117221000D02*
X158076900Y-117030500D01*
X129340000Y-104495600D02*
X144515600Y-104495600D01*
X165590000Y-119220000D02*
X167990000Y-119220000D01*
X164440000Y-118070000D02*
X165590000Y-119220000D01*
X164440000Y-116820000D02*
X164440000Y-118070000D01*
X163590000Y-115970000D02*
X164440000Y-116820000D01*
X159790000Y-115970000D02*
X163590000Y-115970000D01*
X159340000Y-115520000D02*
X159790000Y-115970000D01*
X159340000Y-113720000D02*
X159340000Y-115520000D01*
X151240000Y-105620000D02*
X159340000Y-113720000D01*
X145640000Y-105620000D02*
X151240000Y-105620000D01*
X144515600Y-104495600D02*
X145640000Y-105620000D01*
X126288800Y-104495600D02*
X129340000Y-104495600D01*
X129340000Y-104495600D02*
X129464400Y-104495600D01*
X140790000Y-95470000D02*
X145000000Y-91260000D01*
X134790000Y-95470000D02*
X140790000Y-95470000D01*
X133590000Y-96670000D02*
X134790000Y-95470000D01*
X133590000Y-100370000D02*
X133590000Y-96670000D01*
X129464400Y-104495600D02*
X133590000Y-100370000D01*
X163156900Y-114681000D02*
X163156900Y-114436900D01*
X163156900Y-114436900D02*
X160790000Y-112070000D01*
X160790000Y-112070000D02*
X159490000Y-112070000D01*
X159490000Y-112070000D02*
X153490000Y-106070000D01*
X144240000Y-95920000D02*
X145340000Y-94820000D01*
X145340000Y-94820000D02*
X145340000Y-94670000D01*
X138750000Y-94970000D02*
X142460000Y-91260000D01*
X126288800Y-101955600D02*
X126288800Y-101771200D01*
X126288800Y-101771200D02*
X133090000Y-94970000D01*
X133090000Y-94970000D02*
X138750000Y-94970000D01*
X164440000Y-115964100D02*
X165696900Y-117221000D01*
X164440000Y-113770000D02*
X164440000Y-115964100D01*
X162240000Y-111570000D02*
X164440000Y-113770000D01*
X160040000Y-111570000D02*
X162240000Y-111570000D01*
X154540000Y-106070000D02*
X160040000Y-111570000D01*
X135270000Y-93370000D02*
X137380000Y-91260000D01*
X132290000Y-93370000D02*
X135270000Y-93370000D01*
X126288800Y-96875600D02*
X128784400Y-96875600D01*
X128784400Y-96875600D02*
X132290000Y-93370000D01*
X126288800Y-86715600D02*
X124155200Y-86715600D01*
X124155200Y-86715600D02*
X122936000Y-87934800D01*
X122936000Y-87934800D02*
X122936000Y-107391200D01*
X125933200Y-110388400D02*
X125933200Y-111658400D01*
X122936000Y-107391200D02*
X125933200Y-110388400D01*
X125933200Y-111658400D02*
X132689600Y-118414800D01*
X132689600Y-118414800D02*
X146710400Y-118414800D01*
X146710400Y-118414800D02*
X150114000Y-121818400D01*
X150114000Y-121818400D02*
X158559500Y-121818400D01*
X158559500Y-121818400D02*
X163156900Y-117221000D01*
X177190000Y-114070000D02*
X167590000Y-104470000D01*
X177190000Y-114070000D02*
X177190000Y-118070000D01*
X177190000Y-118070000D02*
X176390000Y-118870000D01*
X176390000Y-118870000D02*
X169885900Y-118870000D01*
X168236900Y-117221000D02*
X169885900Y-118870000D01*
X148050000Y-104470000D02*
X142460000Y-98880000D01*
X167590000Y-104470000D02*
X148050000Y-104470000D01*
X142460000Y-98880000D02*
X142500000Y-98880000D01*
X167245900Y-106070000D02*
X167245900Y-106025902D01*
X175856900Y-114681000D02*
X167245900Y-106070000D01*
X146010000Y-104970000D02*
X139920000Y-98880000D01*
X166189998Y-104970000D02*
X146010000Y-104970000D01*
X167245900Y-106025902D02*
X166189998Y-104970000D01*
X139920000Y-98880000D02*
X139920000Y-99100000D01*
X175856900Y-117221000D02*
X175691000Y-117221000D01*
X175691000Y-117221000D02*
X174340000Y-115870000D01*
X174340000Y-115870000D02*
X172690000Y-115870000D01*
X172690000Y-115870000D02*
X172090000Y-115270000D01*
X172090000Y-115270000D02*
X172090000Y-113370000D01*
X172090000Y-113370000D02*
X164490000Y-105770000D01*
X160840000Y-103570000D02*
X158940000Y-101670000D01*
X158940000Y-101670000D02*
X158940000Y-97720000D01*
X158940000Y-97720000D02*
X156590000Y-95370000D01*
X156590000Y-95370000D02*
X154190000Y-95370000D01*
X154190000Y-95370000D02*
X150080000Y-91260000D01*
X158076900Y-114681000D02*
X158076900Y-115183100D01*
X158076900Y-115183100D02*
X156840000Y-116420000D01*
X156840000Y-116420000D02*
X156840000Y-117720000D01*
X156840000Y-117720000D02*
X154390000Y-120170000D01*
X156083200Y-90390000D02*
X156083200Y-93963200D01*
X166117200Y-123447200D02*
X162621200Y-123447200D01*
X168890000Y-126220000D02*
X166117200Y-123447200D01*
X178539998Y-126220000D02*
X168890000Y-126220000D01*
X178740000Y-126019998D02*
X178539998Y-126220000D01*
X179940002Y-126019998D02*
X178740000Y-126019998D01*
X186840000Y-119120000D02*
X179940002Y-126019998D01*
X186840000Y-117720000D02*
X186840000Y-119120000D01*
X172940000Y-103820000D02*
X186840000Y-117720000D01*
X162490000Y-103820000D02*
X172940000Y-103820000D01*
X159590000Y-100920000D02*
X162490000Y-103820000D01*
X159590000Y-97470000D02*
X159590000Y-100920000D01*
X156083200Y-93963200D02*
X159590000Y-97470000D01*
X166083200Y-90390000D02*
X166083200Y-91313200D01*
X166817200Y-126047200D02*
X162621200Y-126047200D01*
X169190000Y-128420000D02*
X166817200Y-126047200D01*
X177040000Y-128420000D02*
X169190000Y-128420000D01*
X178990000Y-126470000D02*
X177040000Y-128420000D01*
X180240000Y-126470000D02*
X178990000Y-126470000D01*
X187940000Y-118770000D02*
X180240000Y-126470000D01*
X187940000Y-117620000D02*
X187940000Y-118770000D01*
X176340000Y-106020000D02*
X187940000Y-117620000D01*
X176340000Y-105820000D02*
X176340000Y-106020000D01*
X175640000Y-105120000D02*
X176340000Y-105820000D01*
X175640000Y-100870000D02*
X175640000Y-105120000D01*
X166083200Y-91313200D02*
X175640000Y-100870000D01*
X161890000Y-110320000D02*
X158240000Y-106670000D01*
X158240000Y-106670000D02*
X158240000Y-106620000D01*
X158190000Y-103270000D02*
X158140000Y-103220000D01*
X158140000Y-103220000D02*
X158140000Y-100420000D01*
X164490000Y-110170000D02*
X160240000Y-105920000D01*
X160240000Y-105920000D02*
X157290000Y-105920000D01*
X157140000Y-103720000D02*
X156083200Y-102663200D01*
X156083200Y-102663200D02*
X156083200Y-100390000D01*
M02*
