  0
SECTION
  2
HEADER
  9
$ACADVER
  1
AC1009
  9
$EXTMIN
 10
0.0
 20
0.0
 30
0.0
  9
$EXTMAX
 10
1000.0
 20
1000.0
 30
0.0
  9
$FILLMODE
 70
 0
  9
$SPLFRAME
 70
 1
  0
ENDSEC
  0
SECTION
  2
TABLES
  0
TABLE
  2
LAYER
 70
1
  0
LAYER
  2
0
 70
     0
 62
     7
  6
CONTINUOUS
  0
ENDTAB
  0
ENDSEC
  0
SECTION
  2
ENTITIES
  0
LINE
  8
0
 62
     0
 10
107.317
 20
197.321
 30
0.0
 11
106.008
 21
197.323
 31
0.0
  0
LINE
  8
0
 62
     0
 10
111.248
 20
196.956
 30
0.0
 11
107.317
 21
197.321
 31
0.0
  0
LINE
  8
0
 62
     0
 10
116.321
 20
195.898
 30
0.0
 11
111.248
 21
196.956
 31
0.0
  0
LINE
  8
0
 62
     0
 10
121.165
 20
194.186
 30
0.0
 11
116.321
 21
195.898
 31
0.0
  0
LINE
  8
0
 62
     0
 10
125.723
 20
191.856
 30
0.0
 11
121.165
 21
194.186
 31
0.0
  0
LINE
  8
0
 62
     0
 10
129.931
 20
188.944
 30
0.0
 11
125.723
 21
191.856
 31
0.0
  0
LINE
  8
0
 62
     0
 10
133.732
 20
185.487
 30
0.0
 11
129.931
 21
188.944
 31
0.0
  0
LINE
  8
0
 62
     0
 10
137.064
 20
181.518
 30
0.0
 11
133.732
 21
185.487
 31
0.0
  0
LINE
  8
0
 62
     0
 10
139.247
 20
178.229
 30
0.0
 11
137.064
 21
181.518
 31
0.0
  0
LINE
  8
0
 62
     0
 10
139.869
 20
177.075
 30
0.0
 11
139.247
 21
178.229
 31
0.0
  0
LINE
  8
0
 62
     0
 10
139.869
 20
175.755
 30
0.0
 11
139.869
 21
177.075
 31
0.0
  0
LINE
  8
0
 62
     0
 10
123.851
 20
175.755
 30
0.0
 11
139.869
 21
175.755
 31
0.0
  0
LINE
  8
0
 62
     0
 10
123.851
 20
149.441
 30
0.0
 11
123.851
 21
175.755
 31
0.0
  0
LINE
  8
0
 62
     0
 10
139.869
 20
149.441
 30
0.0
 11
123.851
 21
149.441
 31
0.0
  0
LINE
  8
0
 62
     0
 10
139.869
 20
140.518
 30
0.0
 11
139.869
 21
149.441
 31
0.0
  0
LINE
  8
0
 62
     0
 10
139.25
 20
139.362
 30
0.0
 11
139.869
 21
140.518
 31
0.0
  0
LINE
  8
0
 62
     0
 10
137.072
 20
136.063
 30
0.0
 11
139.25
 21
139.362
 31
0.0
  0
LINE
  8
0
 62
     0
 10
133.744
 20
132.082
 30
0.0
 11
137.072
 21
136.063
 31
0.0
  0
LINE
  8
0
 62
     0
 10
129.946
 20
128.612
 30
0.0
 11
133.744
 21
132.082
 31
0.0
  0
LINE
  8
0
 62
     0
 10
125.739
 20
125.688
 30
0.0
 11
129.946
 21
128.612
 31
0.0
  0
LINE
  8
0
 62
     0
 10
121.181
 20
123.348
 30
0.0
 11
125.739
 21
125.688
 31
0.0
  0
LINE
  8
0
 62
     0
 10
116.333
 20
121.626
 30
0.0
 11
121.181
 21
123.348
 31
0.0
  0
LINE
  8
0
 62
     0
 10
111.254
 20
120.56
 30
0.0
 11
116.333
 21
121.626
 31
0.0
  0
LINE
  8
0
 62
     0
 10
107.319
 20
120.188
 30
0.0
 11
111.254
 21
120.56
 31
0.0
  0
LINE
  8
0
 62
     0
 10
106.008
 20
120.184
 30
0.0
 11
107.319
 21
120.188
 31
0.0
  0
LINE
  8
0
 62
     0
 10
105.022
 20
120.184
 30
0.0
 11
106.008
 21
120.184
 31
0.0
  0
LINE
  8
0
 62
     0
 10
102.064
 20
120.384
 30
0.0
 11
105.022
 21
120.184
 31
0.0
  0
LINE
  8
0
 62
     0
 10
98.2349
 20
120.968
 30
0.0
 11
102.064
 21
120.384
 31
0.0
  0
LINE
  8
0
 62
     0
 10
94.5374
 20
121.919
 30
0.0
 11
98.2349
 21
120.968
 31
0.0
  0
LINE
  8
0
 62
     0
 10
90.9948
 20
123.216
 30
0.0
 11
94.5374
 21
121.919
 31
0.0
  0
LINE
  8
0
 62
     0
 10
87.6226
 20
124.839
 30
0.0
 11
90.9948
 21
123.216
 31
0.0
  0
LINE
  8
0
 62
     0
 10
84.4434
 20
126.771
 30
0.0
 11
87.6226
 21
124.839
 31
0.0
  0
LINE
  8
0
 62
     0
 10
81.4737
 20
128.991
 30
0.0
 11
84.4434
 21
126.771
 31
0.0
  0
LINE
  8
0
 62
     0
 10
78.7344
 20
131.481
 30
0.0
 11
81.4737
 21
128.991
 31
0.0
  0
LINE
  8
0
 62
     0
 10
76.2455
 20
134.22
 30
0.0
 11
78.7344
 21
131.481
 31
0.0
  0
LINE
  8
0
 62
     0
 10
74.0255
 20
137.189
 30
0.0
 11
76.2455
 21
134.22
 31
0.0
  0
LINE
  8
0
 62
     0
 10
72.0933
 20
140.369
 30
0.0
 11
74.0255
 21
137.189
 31
0.0
  0
LINE
  8
0
 62
     0
 10
70.4688
 20
143.74
 30
0.0
 11
72.0933
 21
140.369
 31
0.0
  0
LINE
  8
0
 62
     0
 10
69.172
 20
147.283
 30
0.0
 11
70.4688
 21
143.74
 31
0.0
  0
LINE
  8
0
 62
     0
 10
68.2212
 20
150.981
 30
0.0
 11
69.172
 21
147.283
 31
0.0
  0
LINE
  8
0
 62
     0
 10
67.637
 20
154.81
 30
0.0
 11
68.2212
 21
150.981
 31
0.0
  0
LINE
  8
0
 62
     0
 10
67.4384
 20
157.768
 30
0.0
 11
67.637
 21
154.81
 31
0.0
  0
LINE
  8
0
 62
     0
 10
67.4384
 20
158.753
 30
0.0
 11
67.4384
 21
157.768
 31
0.0
  0
LINE
  8
0
 62
     0
 10
67.4384
 20
159.74
 30
0.0
 11
67.4384
 21
158.753
 31
0.0
  0
LINE
  8
0
 62
     0
 10
67.637
 20
162.697
 30
0.0
 11
67.4384
 21
159.74
 31
0.0
  0
LINE
  8
0
 62
     0
 10
68.2212
 20
166.526
 30
0.0
 11
67.637
 21
162.697
 31
0.0
  0
LINE
  8
0
 62
     0
 10
69.172
 20
170.223
 30
0.0
 11
68.2212
 21
166.526
 31
0.0
  0
LINE
  8
0
 62
     0
 10
70.4688
 20
173.766
 30
0.0
 11
69.172
 21
170.223
 31
0.0
  0
LINE
  8
0
 62
     0
 10
72.0933
 20
177.139
 30
0.0
 11
70.4688
 21
173.766
 31
0.0
  0
LINE
  8
0
 62
     0
 10
74.0255
 20
180.318
 30
0.0
 11
72.0933
 21
177.139
 31
0.0
  0
LINE
  8
0
 62
     0
 10
76.2455
 20
183.287
 30
0.0
 11
74.0255
 21
180.318
 31
0.0
  0
LINE
  8
0
 62
     0
 10
78.7344
 20
186.027
 30
0.0
 11
76.2455
 21
183.287
 31
0.0
  0
LINE
  8
0
 62
     0
 10
81.4737
 20
188.516
 30
0.0
 11
78.7344
 21
186.027
 31
0.0
  0
LINE
  8
0
 62
     0
 10
84.4434
 20
190.736
 30
0.0
 11
81.4737
 21
188.516
 31
0.0
  0
LINE
  8
0
 62
     0
 10
87.6226
 20
192.668
 30
0.0
 11
84.4434
 21
190.736
 31
0.0
  0
LINE
  8
0
 62
     0
 10
90.9948
 20
194.292
 30
0.0
 11
87.6226
 21
192.668
 31
0.0
  0
LINE
  8
0
 62
     0
 10
94.5374
 20
195.589
 30
0.0
 11
90.9948
 21
194.292
 31
0.0
  0
LINE
  8
0
 62
     0
 10
98.2349
 20
196.54
 30
0.0
 11
94.5374
 21
195.589
 31
0.0
  0
LINE
  8
0
 62
     0
 10
102.064
 20
197.124
 30
0.0
 11
98.2349
 21
196.54
 31
0.0
  0
LINE
  8
0
 62
     0
 10
105.022
 20
197.323
 30
0.0
 11
102.064
 21
197.124
 31
0.0
  0
LINE
  8
0
 62
     0
 10
106.008
 20
197.323
 30
0.0
 11
105.022
 21
197.323
 31
0.0
  0
LINE
  8
0
 62
     0
 10
128.385
 20
131.16
 30
0.0
 11
128.385
 21
131.429
 31
0.0
  0
LINE
  8
0
 62
     0
 10
128.385
 20
131.429
 30
0.0
 11
128.169
 21
132.231
 31
0.0
  0
LINE
  8
0
 62
     0
 10
128.169
 20
132.231
 30
0.0
 11
127.579
 21
133.106
 31
0.0
  0
LINE
  8
0
 62
     0
 10
127.579
 20
133.106
 30
0.0
 11
126.705
 21
133.696
 31
0.0
  0
LINE
  8
0
 62
     0
 10
126.705
 20
133.696
 30
0.0
 11
125.903
 21
133.911
 31
0.0
  0
LINE
  8
0
 62
     0
 10
125.903
 20
133.911
 30
0.0
 11
125.636
 21
133.911
 31
0.0
  0
LINE
  8
0
 62
     0
 10
125.636
 20
133.911
 30
0.0
 11
125.367
 21
133.911
 31
0.0
  0
LINE
  8
0
 62
     0
 10
125.367
 20
133.911
 30
0.0
 11
124.565
 21
133.696
 31
0.0
  0
LINE
  8
0
 62
     0
 10
124.565
 20
133.696
 30
0.0
 11
123.69
 21
133.106
 31
0.0
  0
LINE
  8
0
 62
     0
 10
123.69
 20
133.106
 30
0.0
 11
123.1
 21
132.231
 31
0.0
  0
LINE
  8
0
 62
     0
 10
123.1
 20
132.231
 30
0.0
 11
122.885
 21
131.429
 31
0.0
  0
LINE
  8
0
 62
     0
 10
122.885
 20
131.429
 30
0.0
 11
122.885
 21
131.16
 31
0.0
  0
LINE
  8
0
 62
     0
 10
122.885
 20
131.16
 30
0.0
 11
122.885
 21
130.893
 31
0.0
  0
LINE
  8
0
 62
     0
 10
122.885
 20
130.893
 30
0.0
 11
123.1
 21
130.091
 31
0.0
  0
LINE
  8
0
 62
     0
 10
123.1
 20
130.091
 30
0.0
 11
123.69
 21
129.217
 31
0.0
  0
LINE
  8
0
 62
     0
 10
123.69
 20
129.217
 30
0.0
 11
124.565
 21
128.627
 31
0.0
  0
LINE
  8
0
 62
     0
 10
124.565
 20
128.627
 30
0.0
 11
125.367
 21
128.411
 31
0.0
  0
LINE
  8
0
 62
     0
 10
125.367
 20
128.411
 30
0.0
 11
125.636
 21
128.411
 31
0.0
  0
LINE
  8
0
 62
     0
 10
125.636
 20
128.411
 30
0.0
 11
125.903
 21
128.411
 31
0.0
  0
LINE
  8
0
 62
     0
 10
125.903
 20
128.411
 30
0.0
 11
126.705
 21
128.627
 31
0.0
  0
LINE
  8
0
 62
     0
 10
126.705
 20
128.627
 30
0.0
 11
127.579
 21
129.217
 31
0.0
  0
LINE
  8
0
 62
     0
 10
127.579
 20
129.217
 30
0.0
 11
128.169
 21
130.091
 31
0.0
  0
LINE
  8
0
 62
     0
 10
128.169
 20
130.091
 30
0.0
 11
128.385
 21
130.893
 31
0.0
  0
LINE
  8
0
 62
     0
 10
128.385
 20
130.893
 30
0.0
 11
128.385
 21
131.16
 31
0.0
  0
LINE
  8
0
 62
     0
 10
128.385
 20
186.398
 30
0.0
 11
128.385
 21
186.666
 31
0.0
  0
LINE
  8
0
 62
     0
 10
128.385
 20
186.666
 30
0.0
 11
128.169
 21
187.468
 31
0.0
  0
LINE
  8
0
 62
     0
 10
128.169
 20
187.468
 30
0.0
 11
127.579
 21
188.343
 31
0.0
  0
LINE
  8
0
 62
     0
 10
127.579
 20
188.343
 30
0.0
 11
126.705
 21
188.933
 31
0.0
  0
LINE
  8
0
 62
     0
 10
126.705
 20
188.933
 30
0.0
 11
125.903
 21
189.148
 31
0.0
  0
LINE
  8
0
 62
     0
 10
125.903
 20
189.148
 30
0.0
 11
125.636
 21
189.148
 31
0.0
  0
LINE
  8
0
 62
     0
 10
125.636
 20
189.148
 30
0.0
 11
125.367
 21
189.148
 31
0.0
  0
LINE
  8
0
 62
     0
 10
125.367
 20
189.148
 30
0.0
 11
124.565
 21
188.933
 31
0.0
  0
LINE
  8
0
 62
     0
 10
124.565
 20
188.933
 30
0.0
 11
123.69
 21
188.343
 31
0.0
  0
LINE
  8
0
 62
     0
 10
123.69
 20
188.343
 30
0.0
 11
123.1
 21
187.468
 31
0.0
  0
LINE
  8
0
 62
     0
 10
123.1
 20
187.468
 30
0.0
 11
122.885
 21
186.666
 31
0.0
  0
LINE
  8
0
 62
     0
 10
122.885
 20
186.666
 30
0.0
 11
122.885
 21
186.398
 31
0.0
  0
LINE
  8
0
 62
     0
 10
122.885
 20
186.398
 30
0.0
 11
122.885
 21
186.13
 31
0.0
  0
LINE
  8
0
 62
     0
 10
122.885
 20
186.13
 30
0.0
 11
123.1
 21
185.328
 31
0.0
  0
LINE
  8
0
 62
     0
 10
123.1
 20
185.328
 30
0.0
 11
123.69
 21
184.454
 31
0.0
  0
LINE
  8
0
 62
     0
 10
123.69
 20
184.454
 30
0.0
 11
124.565
 21
183.865
 31
0.0
  0
LINE
  8
0
 62
     0
 10
124.565
 20
183.865
 30
0.0
 11
125.367
 21
183.648
 31
0.0
  0
LINE
  8
0
 62
     0
 10
125.367
 20
183.648
 30
0.0
 11
125.636
 21
183.648
 31
0.0
  0
LINE
  8
0
 62
     0
 10
125.636
 20
183.648
 30
0.0
 11
125.903
 21
183.648
 31
0.0
  0
LINE
  8
0
 62
     0
 10
125.903
 20
183.648
 30
0.0
 11
126.705
 21
183.865
 31
0.0
  0
LINE
  8
0
 62
     0
 10
126.705
 20
183.865
 30
0.0
 11
127.579
 21
184.454
 31
0.0
  0
LINE
  8
0
 62
     0
 10
127.579
 20
184.454
 30
0.0
 11
128.169
 21
185.328
 31
0.0
  0
LINE
  8
0
 62
     0
 10
128.169
 20
185.328
 30
0.0
 11
128.385
 21
186.13
 31
0.0
  0
LINE
  8
0
 62
     0
 10
128.385
 20
186.13
 30
0.0
 11
128.385
 21
186.398
 31
0.0
  0
LINE
  8
0
 62
     0
 10
89.0214
 20
186.38
 30
0.0
 11
89.0214
 21
186.648
 31
0.0
  0
LINE
  8
0
 62
     0
 10
89.0214
 20
186.648
 30
0.0
 11
88.8047
 21
187.45
 31
0.0
  0
LINE
  8
0
 62
     0
 10
88.8047
 20
187.45
 30
0.0
 11
88.2153
 21
188.325
 31
0.0
  0
LINE
  8
0
 62
     0
 10
88.2153
 20
188.325
 30
0.0
 11
87.3414
 21
188.915
 31
0.0
  0
LINE
  8
0
 62
     0
 10
87.3414
 20
188.915
 30
0.0
 11
86.5396
 21
189.13
 31
0.0
  0
LINE
  8
0
 62
     0
 10
86.5396
 20
189.13
 30
0.0
 11
86.2722
 21
189.13
 31
0.0
  0
LINE
  8
0
 62
     0
 10
86.2722
 20
189.13
 30
0.0
 11
86.0033
 21
189.13
 31
0.0
  0
LINE
  8
0
 62
     0
 10
86.0033
 20
189.13
 30
0.0
 11
85.2015
 21
188.915
 31
0.0
  0
LINE
  8
0
 62
     0
 10
85.2015
 20
188.915
 30
0.0
 11
84.3262
 21
188.325
 31
0.0
  0
LINE
  8
0
 62
     0
 10
84.3262
 20
188.325
 30
0.0
 11
83.7364
 21
187.45
 31
0.0
  0
LINE
  8
0
 62
     0
 10
83.7364
 20
187.45
 30
0.0
 11
83.5215
 21
186.648
 31
0.0
  0
LINE
  8
0
 62
     0
 10
83.5215
 20
186.648
 30
0.0
 11
83.5215
 21
186.38
 31
0.0
  0
LINE
  8
0
 62
     0
 10
83.5215
 20
186.38
 30
0.0
 11
83.5215
 21
186.112
 31
0.0
  0
LINE
  8
0
 62
     0
 10
83.5215
 20
186.112
 30
0.0
 11
83.7364
 21
185.31
 31
0.0
  0
LINE
  8
0
 62
     0
 10
83.7364
 20
185.31
 30
0.0
 11
84.3262
 21
184.437
 31
0.0
  0
LINE
  8
0
 62
     0
 10
84.3262
 20
184.437
 30
0.0
 11
85.2015
 21
183.847
 31
0.0
  0
LINE
  8
0
 62
     0
 10
85.2015
 20
183.847
 30
0.0
 11
86.0033
 21
183.63
 31
0.0
  0
LINE
  8
0
 62
     0
 10
86.0033
 20
183.63
 30
0.0
 11
86.2722
 21
183.63
 31
0.0
  0
LINE
  8
0
 62
     0
 10
86.2722
 20
183.63
 30
0.0
 11
86.5396
 21
183.63
 31
0.0
  0
LINE
  8
0
 62
     0
 10
86.5396
 20
183.63
 30
0.0
 11
87.3414
 21
183.847
 31
0.0
  0
LINE
  8
0
 62
     0
 10
87.3414
 20
183.847
 30
0.0
 11
88.2153
 21
184.437
 31
0.0
  0
LINE
  8
0
 62
     0
 10
88.2153
 20
184.437
 30
0.0
 11
88.8047
 21
185.31
 31
0.0
  0
LINE
  8
0
 62
     0
 10
88.8047
 20
185.31
 30
0.0
 11
89.0214
 21
186.112
 31
0.0
  0
LINE
  8
0
 62
     0
 10
89.0214
 20
186.112
 30
0.0
 11
89.0214
 21
186.38
 31
0.0
  0
LINE
  8
0
 62
     0
 10
89.0214
 20
131.199
 30
0.0
 11
89.0214
 21
131.468
 31
0.0
  0
LINE
  8
0
 62
     0
 10
89.0214
 20
131.468
 30
0.0
 11
88.8047
 21
132.27
 31
0.0
  0
LINE
  8
0
 62
     0
 10
88.8047
 20
132.27
 30
0.0
 11
88.2153
 21
133.143
 31
0.0
  0
LINE
  8
0
 62
     0
 10
88.2153
 20
133.143
 30
0.0
 11
87.3414
 21
133.733
 31
0.0
  0
LINE
  8
0
 62
     0
 10
87.3414
 20
133.733
 30
0.0
 11
86.5396
 21
133.948
 31
0.0
  0
LINE
  8
0
 62
     0
 10
86.5396
 20
133.948
 30
0.0
 11
86.2722
 21
133.948
 31
0.0
  0
LINE
  8
0
 62
     0
 10
86.2722
 20
133.948
 30
0.0
 11
86.0033
 21
133.948
 31
0.0
  0
LINE
  8
0
 62
     0
 10
86.0033
 20
133.948
 30
0.0
 11
85.2015
 21
133.733
 31
0.0
  0
LINE
  8
0
 62
     0
 10
85.2015
 20
133.733
 30
0.0
 11
84.3262
 21
133.143
 31
0.0
  0
LINE
  8
0
 62
     0
 10
84.3262
 20
133.143
 30
0.0
 11
83.7364
 21
132.27
 31
0.0
  0
LINE
  8
0
 62
     0
 10
83.7364
 20
132.27
 30
0.0
 11
83.5215
 21
131.468
 31
0.0
  0
LINE
  8
0
 62
     0
 10
83.5215
 20
131.468
 30
0.0
 11
83.5215
 21
131.199
 31
0.0
  0
LINE
  8
0
 62
     0
 10
83.5215
 20
131.199
 30
0.0
 11
83.5215
 21
130.932
 31
0.0
  0
LINE
  8
0
 62
     0
 10
83.5215
 20
130.932
 30
0.0
 11
83.7364
 21
130.128
 31
0.0
  0
LINE
  8
0
 62
     0
 10
83.7364
 20
130.128
 30
0.0
 11
84.3262
 21
129.255
 31
0.0
  0
LINE
  8
0
 62
     0
 10
84.3262
 20
129.255
 30
0.0
 11
85.2015
 21
128.665
 31
0.0
  0
LINE
  8
0
 62
     0
 10
85.2015
 20
128.665
 30
0.0
 11
86.0033
 21
128.448
 31
0.0
  0
LINE
  8
0
 62
     0
 10
86.0033
 20
128.448
 30
0.0
 11
86.2722
 21
128.448
 31
0.0
  0
LINE
  8
0
 62
     0
 10
86.2722
 20
128.448
 30
0.0
 11
86.5396
 21
128.448
 31
0.0
  0
LINE
  8
0
 62
     0
 10
86.5396
 20
128.448
 30
0.0
 11
87.3414
 21
128.665
 31
0.0
  0
LINE
  8
0
 62
     0
 10
87.3414
 20
128.665
 30
0.0
 11
88.2153
 21
129.255
 31
0.0
  0
LINE
  8
0
 62
     0
 10
88.2153
 20
129.255
 30
0.0
 11
88.8047
 21
130.128
 31
0.0
  0
LINE
  8
0
 62
     0
 10
88.8047
 20
130.128
 30
0.0
 11
89.0214
 21
130.932
 31
0.0
  0
LINE
  8
0
 62
     0
 10
89.0214
 20
130.932
 30
0.0
 11
89.0214
 21
131.199
 31
0.0
  0
LINE
  8
0
 62
     0
 10
99.5288
 20
166.558
 30
0.0
 11
99.5288
 21
161.058
 31
0.0
  0
LINE
  8
0
 62
     0
 10
99.5288
 20
161.058
 30
0.0
 11
104.979
 21
161.058
 31
0.0
  0
LINE
  8
0
 62
     0
 10
104.979
 20
161.058
 30
0.0
 11
104.979
 21
166.558
 31
0.0
  0
LINE
  8
0
 62
     0
 10
104.979
 20
166.558
 30
0.0
 11
99.5288
 21
166.558
 31
0.0
  0
LINE
  8
0
 62
     0
 10
109.529
 20
166.558
 30
0.0
 11
109.529
 21
161.058
 31
0.0
  0
LINE
  8
0
 62
     0
 10
109.529
 20
161.058
 30
0.0
 11
114.979
 21
161.058
 31
0.0
  0
LINE
  8
0
 62
     0
 10
114.979
 20
161.058
 30
0.0
 11
114.979
 21
166.558
 31
0.0
  0
LINE
  8
0
 62
     0
 10
114.979
 20
166.558
 30
0.0
 11
109.529
 21
166.558
 31
0.0
  0
LINE
  8
0
 62
     0
 10
109.529
 20
156.557
 30
0.0
 11
109.529
 21
151.058
 31
0.0
  0
LINE
  8
0
 62
     0
 10
109.529
 20
151.058
 30
0.0
 11
114.979
 21
151.058
 31
0.0
  0
LINE
  8
0
 62
     0
 10
114.979
 20
151.058
 30
0.0
 11
114.979
 21
156.557
 31
0.0
  0
LINE
  8
0
 62
     0
 10
114.979
 20
156.557
 30
0.0
 11
109.529
 21
156.557
 31
0.0
  0
LINE
  8
0
 62
     0
 10
99.5288
 20
156.557
 30
0.0
 11
99.5288
 21
151.058
 31
0.0
  0
LINE
  8
0
 62
     0
 10
99.5288
 20
151.058
 30
0.0
 11
104.979
 21
151.058
 31
0.0
  0
LINE
  8
0
 62
     0
 10
104.979
 20
151.058
 30
0.0
 11
104.979
 21
156.557
 31
0.0
  0
LINE
  8
0
 62
     0
 10
104.979
 20
156.557
 30
0.0
 11
99.5288
 21
156.557
 31
0.0
  0
LINE
  8
0
 62
     0
 10
74.8249
 20
145.428
 30
0.0
 11
74.8249
 21
171.428
 31
0.0
  0
LINE
  8
0
 62
     0
 10
74.8249
 20
171.428
 30
0.0
 11
63.0259
 21
171.428
 31
0.0
  0
LINE
  8
0
 62
     0
 10
63.0259
 20
171.428
 30
0.0
 11
63.0259
 21
145.428
 31
0.0
  0
LINE
  8
0
 62
     0
 10
63.0259
 20
145.428
 30
0.0
 11
74.8249
 21
145.428
 31
0.0
  0
ENDSEC
  0
EOF
