<?xml version="1.0" standalone="no"?>
 <!DOCTYPE svg PUBLIC "-//W3C//DTD SVG 1.1//EN" 
 "http://www.w3.org/Graphics/SVG/1.1/DTD/svg11.dtd"> 
<svg xmlns="http://www.w3.org/2000/svg" version="1.1" 
    width="29.7002cm" height="21.0007cm" viewBox="0 0 116930 82680 ">
<title>SVG Picture created as Reactor-B.SilkS.svg date 2017/01/20 17:42:42 </title>
  <desc>Picture generated by PCBNEW </desc>
<g style="fill:#000000; fill-opacity:1;stroke:#000000; stroke-opacity:1;
stroke-linecap:round; stroke-linejoin:round; "
 transform="translate(0 0) scale(1 1)">
</g>
<g style="fill:#000000; fill-opacity:0.0; 
stroke:#000000; stroke-width:-0.000393701; stroke-opacity:1; 
stroke-linecap:round; stroke-linejoin:round;">
</g>
<g style="fill:#000000; fill-opacity:0.0; 
stroke:#000000; stroke-width:47.2441; stroke-opacity:1; 
stroke-linecap:round; stroke-linejoin:round;">
<path d="M61468 30811
L64933 30811
" />
<path d="M64933 30811
L64933 27188
" />
<path d="M59145 29748
L59145 30811
" />
<path d="M59145 30811
L59893 30811
" />
<path d="M64933 27188
L59145 27188
" />
<path d="M59145 27188
L59145 28212
" />
</g>
<g style="fill:#000000; fill-opacity:0.0; 
stroke:#000000; stroke-width:59.0551; stroke-opacity:1; 
stroke-linecap:round; stroke-linejoin:round;">
<path d="M64748 31235
L64692 31254
L64673 31273
L64654 31310
L64654 31366
L64673 31404
L64692 31423
L64729 31441
L64879 31441
L64879 31048
L64748 31048
L64710 31066
L64692 31085
L64673 31123
L64673 31160
L64692 31198
L64710 31216
L64748 31235
L64879 31235
" />
<path d="M64504 31329
L64317 31329
" />
<path d="M64542 31441
L64410 31048
L64279 31441
" />
<path d="M63923 31441
L64054 31254
" />
<path d="M64148 31441
L64148 31048
L63998 31048
L63961 31066
L63942 31085
L63923 31123
L63923 31179
L63942 31216
L63961 31235
L63998 31254
L64148 31254
" />
<path d="M63529 31441
L63661 31254
" />
<path d="M63754 31441
L63754 31048
L63604 31048
L63567 31066
L63548 31085
L63529 31123
L63529 31179
L63548 31216
L63567 31235
L63604 31254
L63754 31254
" />
<path d="M63361 31235
L63229 31235
" />
<path d="M63173 31441
L63361 31441
L63361 31048
L63173 31048
" />
<path d="M62817 31441
L63004 31441
L63004 31048
" />
<path d="M62779 31479
L62479 31479
" />
<path d="M62273 31048
L62273 31329
L62292 31385
L62329 31423
L62386 31441
L62423 31441
" />
<path d="M62104 31329
L61917 31329
" />
<path d="M62142 31441
L62011 31048
L61880 31441
" />
<path d="M61523 31404
L61542 31423
L61598 31441
L61636 31441
L61692 31423
L61730 31385
L61748 31348
L61767 31273
L61767 31216
L61748 31141
L61730 31104
L61692 31066
L61636 31048
L61598 31048
L61542 31066
L61523 31085
" />
<path d="M61355 31441
L61355 31048
" />
<path d="M61130 31441
L61298 31216
" />
<path d="M61130 31048
L61355 31273
" />
<path d="M60755 31441
L60980 31441
" />
<path d="M60867 31441
L60867 31048
L60905 31104
L60942 31141
L60980 31160
" />
</g> 
</svg>
