<?xml version="1.0" standalone="no"?>
 <!DOCTYPE svg PUBLIC "-//W3C//DTD SVG 1.1//EN" 
 "http://www.w3.org/Graphics/SVG/1.1/DTD/svg11.dtd"> 
<svg xmlns="http://www.w3.org/2000/svg" version="1.1" 
    width="29.7002cm" height="21.0007cm" viewBox="0 0 116930 82680 ">
<title>SVG Picture created as Reactor-B.Cu.svg date 2017/01/20 17:42:42 </title>
  <desc>Picture generated by PCBNEW </desc>
<g style="fill:#000000; fill-opacity:1;stroke:#000000; stroke-opacity:1;
stroke-linecap:round; stroke-linejoin:round; "
 transform="translate(0 0) scale(1 1)">
</g>
<g style="fill:#000000; fill-opacity:0.0; 
stroke:#000000; stroke-width:-0.000393701; stroke-opacity:1; 
stroke-linecap:round; stroke-linejoin:round;">
</g>
<g style="fill:#000000; fill-opacity:0.0; 
stroke:#000000; stroke-width:0; stroke-opacity:1; 
stroke-linecap:round; stroke-linejoin:round;">
</g>
<g style="fill:#000000; fill-opacity:1.0; 
stroke:#000000; stroke-width:0; stroke-opacity:1; 
stroke-linecap:round; stroke-linejoin:round;">
<polyline style="fill-rule:evenodd;"
points="48655,50270
48655,49590
49335,49590
49335,50270
48655,50270
" /> 
</g>
<g style="fill:#000000; fill-opacity:1.0; 
stroke:#000000; stroke-width:680; stroke-opacity:1; 
stroke-linecap:round; stroke-linejoin:round;">
</g>
<g style="fill:#000000; fill-opacity:0.0; 
stroke:#000000; stroke-width:680; stroke-opacity:1; 
stroke-linecap:round; stroke-linejoin:round;">
<path d="M48995 48930
L48995 48930
" />
<path d="M49995 49930
L49995 49930
" />
<path d="M49995 48930
L49995 48930
" />
<path d="M50995 49930
L50995 49930
" />
<path d="M50995 48930
L50995 48930
" />
<path d="M51995 49930
L51995 49930
" />
<path d="M51995 48930
L51995 48930
" />
<path d="M52995 49930
L52995 49930
" />
<path d="M52995 48930
L52995 48930
" />
<path d="M53995 49930
L53995 49930
" />
<path d="M53995 48930
L53995 48930
" />
<path d="M54995 49930
L54995 49930
" />
<path d="M54995 48930
L54995 48930
" />
<path d="M55995 49930
L55995 49930
" />
<path d="M55995 48930
L55995 48930
" />
<path d="M56995 49930
L56995 49930
" />
<path d="M56995 48930
L56995 48930
" />
<path d="M57995 49930
L57995 49930
" />
<path d="M57995 48930
L57995 48930
" />
<path d="M58995 49930
L58995 49930
" />
<path d="M58995 48930
L58995 48930
" />
<path d="M59995 49930
L59995 49930
" />
<path d="M59995 48930
L59995 48930
" />
<path d="M60995 49930
L60995 49930
" />
<path d="M60995 48930
L60995 48930
" />
</g>
<g style="fill:#000000; fill-opacity:0.0; 
stroke:#000000; stroke-width:0; stroke-opacity:1; 
stroke-linecap:round; stroke-linejoin:round;">
</g>
<g style="fill:#000000; fill-opacity:1.0; 
stroke:#000000; stroke-width:0; stroke-opacity:1; 
stroke-linecap:round; stroke-linejoin:round;">
<polyline style="fill-rule:evenodd;"
points="51145,37145
51854,37145
51854,37854
51145,37854
51145,37145
" /> 
<circle cx="51500" cy="38500" r="354.331" /> 
</g>
<g style="fill:#000000; fill-opacity:1.0; 
stroke:#000000; stroke-width:39.3701; stroke-opacity:1; 
stroke-linecap:round; stroke-linejoin:round;">
</g>
<g style="fill:#000000; fill-opacity:1.0; 
stroke:#000000; stroke-width:0; stroke-opacity:1; 
stroke-linecap:round; stroke-linejoin:round;">
<circle cx="51500" cy="40500" r="354.331" /> 
</g>
<g style="fill:#000000; fill-opacity:1.0; 
stroke:#000000; stroke-width:39.3701; stroke-opacity:1; 
stroke-linecap:round; stroke-linejoin:round;">
</g>
<g style="fill:#000000; fill-opacity:1.0; 
stroke:#000000; stroke-width:0; stroke-opacity:1; 
stroke-linecap:round; stroke-linejoin:round;">
<circle cx="51500" cy="41500" r="354.331" /> 
</g>
<g style="fill:#000000; fill-opacity:1.0; 
stroke:#000000; stroke-width:39.3701; stroke-opacity:1; 
stroke-linecap:round; stroke-linejoin:round;">
</g>
<g style="fill:#000000; fill-opacity:1.0; 
stroke:#000000; stroke-width:0; stroke-opacity:1; 
stroke-linecap:round; stroke-linejoin:round;">
<circle cx="51500" cy="42500" r="354.331" /> 
</g>
<g style="fill:#000000; fill-opacity:1.0; 
stroke:#000000; stroke-width:39.3701; stroke-opacity:1; 
stroke-linecap:round; stroke-linejoin:round;">
</g>
<g style="fill:#000000; fill-opacity:1.0; 
stroke:#000000; stroke-width:0; stroke-opacity:1; 
stroke-linecap:round; stroke-linejoin:round;">
<circle cx="51500" cy="43500" r="354.331" /> 
</g>
<g style="fill:#000000; fill-opacity:1.0; 
stroke:#000000; stroke-width:39.3701; stroke-opacity:1; 
stroke-linecap:round; stroke-linejoin:round;">
</g>
<g style="fill:#000000; fill-opacity:1.0; 
stroke:#000000; stroke-width:0; stroke-opacity:1; 
stroke-linecap:round; stroke-linejoin:round;">
<circle cx="51500" cy="44500" r="354.331" /> 
</g>
<g style="fill:#000000; fill-opacity:1.0; 
stroke:#000000; stroke-width:39.3701; stroke-opacity:1; 
stroke-linecap:round; stroke-linejoin:round;">
</g>
<g style="fill:#000000; fill-opacity:1.0; 
stroke:#000000; stroke-width:0; stroke-opacity:1; 
stroke-linecap:round; stroke-linejoin:round;">
<circle cx="54500" cy="44500" r="354.331" /> 
</g>
<g style="fill:#000000; fill-opacity:1.0; 
stroke:#000000; stroke-width:39.3701; stroke-opacity:1; 
stroke-linecap:round; stroke-linejoin:round;">
</g>
<g style="fill:#000000; fill-opacity:1.0; 
stroke:#000000; stroke-width:0; stroke-opacity:1; 
stroke-linecap:round; stroke-linejoin:round;">
<circle cx="54500" cy="43500" r="354.331" /> 
</g>
<g style="fill:#000000; fill-opacity:1.0; 
stroke:#000000; stroke-width:39.3701; stroke-opacity:1; 
stroke-linecap:round; stroke-linejoin:round;">
</g>
<g style="fill:#000000; fill-opacity:1.0; 
stroke:#000000; stroke-width:0; stroke-opacity:1; 
stroke-linecap:round; stroke-linejoin:round;">
<circle cx="54500" cy="42500" r="354.331" /> 
</g>
<g style="fill:#000000; fill-opacity:1.0; 
stroke:#000000; stroke-width:39.3701; stroke-opacity:1; 
stroke-linecap:round; stroke-linejoin:round;">
</g>
<g style="fill:#000000; fill-opacity:1.0; 
stroke:#000000; stroke-width:0; stroke-opacity:1; 
stroke-linecap:round; stroke-linejoin:round;">
<circle cx="54500" cy="41500" r="354.331" /> 
</g>
<g style="fill:#000000; fill-opacity:1.0; 
stroke:#000000; stroke-width:39.3701; stroke-opacity:1; 
stroke-linecap:round; stroke-linejoin:round;">
</g>
<g style="fill:#000000; fill-opacity:1.0; 
stroke:#000000; stroke-width:0; stroke-opacity:1; 
stroke-linecap:round; stroke-linejoin:round;">
<circle cx="54500" cy="40500" r="354.331" /> 
</g>
<g style="fill:#000000; fill-opacity:1.0; 
stroke:#000000; stroke-width:39.3701; stroke-opacity:1; 
stroke-linecap:round; stroke-linejoin:round;">
</g>
<g style="fill:#000000; fill-opacity:1.0; 
stroke:#000000; stroke-width:0; stroke-opacity:1; 
stroke-linecap:round; stroke-linejoin:round;">
<circle cx="54500" cy="39500" r="354.331" /> 
</g>
<g style="fill:#000000; fill-opacity:1.0; 
stroke:#000000; stroke-width:39.3701; stroke-opacity:1; 
stroke-linecap:round; stroke-linejoin:round;">
</g>
<g style="fill:#000000; fill-opacity:1.0; 
stroke:#000000; stroke-width:0; stroke-opacity:1; 
stroke-linecap:round; stroke-linejoin:round;">
<circle cx="54500" cy="38500" r="354.331" /> 
</g>
<g style="fill:#000000; fill-opacity:1.0; 
stroke:#000000; stroke-width:39.3701; stroke-opacity:1; 
stroke-linecap:round; stroke-linejoin:round;">
</g>
<g style="fill:#000000; fill-opacity:1.0; 
stroke:#000000; stroke-width:0; stroke-opacity:1; 
stroke-linecap:round; stroke-linejoin:round;">
<circle cx="54500" cy="37500" r="354.331" /> 
</g>
<g style="fill:#000000; fill-opacity:1.0; 
stroke:#000000; stroke-width:39.3701; stroke-opacity:1; 
stroke-linecap:round; stroke-linejoin:round;">
</g>
<g style="fill:#000000; fill-opacity:1.0; 
stroke:#000000; stroke-width:0; stroke-opacity:1; 
stroke-linecap:round; stroke-linejoin:round;">
<circle cx="51500" cy="39500" r="354.331" /> 
</g>
<g style="fill:#000000; fill-opacity:1.0; 
stroke:#000000; stroke-width:39.3701; stroke-opacity:1; 
stroke-linecap:round; stroke-linejoin:round;">
</g>
<g style="fill:#000000; fill-opacity:1.0; 
stroke:#000000; stroke-width:0; stroke-opacity:1; 
stroke-linecap:round; stroke-linejoin:round;">
<polyline style="fill-rule:evenodd;"
points="41807,44358
40783,44358
40783,43570
41807,43570
41807,44358
" /> 
</g>
<g style="fill:#000000; fill-opacity:1.0; 
stroke:#000000; stroke-width:787.402; stroke-opacity:1; 
stroke-linecap:round; stroke-linejoin:round;">
</g>
<g style="fill:#000000; fill-opacity:0.0; 
stroke:#000000; stroke-width:787.402; stroke-opacity:1; 
stroke-linecap:round; stroke-linejoin:round;">
<path d="M41177 42964
L41413 42964
" />
<path d="M41177 41964
L41413 41964
" />
<path d="M41177 40964
L41413 40964
" />
<path d="M41177 39964
L41413 39964
" />
<path d="M41177 38964
L41413 38964
" />
<path d="M41177 37964
L41413 37964
" />
<path d="M41177 36964
L41413 36964
" />
<path d="M41177 35964
L41413 35964
" />
<path d="M41177 34964
L41413 34964
" />
</g>
<g style="fill:#000000; fill-opacity:1.0; 
stroke:#000000; stroke-width:0; stroke-opacity:1; 
stroke-linecap:round; stroke-linejoin:round;">
<circle cx="63290" cy="33480" r="984.252" /> 
</g>
<g style="fill:#000000; fill-opacity:1.0; 
stroke:#000000; stroke-width:39.3701; stroke-opacity:1; 
stroke-linecap:round; stroke-linejoin:round;">
</g>
<g style="fill:#000000; fill-opacity:1.0; 
stroke:#000000; stroke-width:0; stroke-opacity:1; 
stroke-linecap:round; stroke-linejoin:round;">
<circle cx="63265" cy="49255" r="984.252" /> 
</g>
<g style="fill:#000000; fill-opacity:1.0; 
stroke:#000000; stroke-width:39.3701; stroke-opacity:1; 
stroke-linecap:round; stroke-linejoin:round;">
</g>
<g style="fill:#000000; fill-opacity:1.0; 
stroke:#000000; stroke-width:0; stroke-opacity:1; 
stroke-linecap:round; stroke-linejoin:round;">
<circle cx="46705" cy="49280" r="984.252" /> 
</g>
<g style="fill:#000000; fill-opacity:1.0; 
stroke:#000000; stroke-width:39.3701; stroke-opacity:1; 
stroke-linecap:round; stroke-linejoin:round;">
</g>
<g style="fill:#000000; fill-opacity:1.0; 
stroke:#000000; stroke-width:0; stroke-opacity:1; 
stroke-linecap:round; stroke-linejoin:round;">
<circle cx="46710" cy="33475" r="984.252" /> 
</g>
<g style="fill:#000000; fill-opacity:1.0; 
stroke:#000000; stroke-width:39.3701; stroke-opacity:1; 
stroke-linecap:round; stroke-linejoin:round;">
</g>
<g style="fill:#000000; fill-opacity:1.0; 
stroke:#000000; stroke-width:0; stroke-opacity:1; 
stroke-linecap:round; stroke-linejoin:round;">
<polyline style="fill-rule:evenodd;"
points="61388,32423
61388,33446
60601,33446
60601,32423
61388,32423
" /> 
</g>
<g style="fill:#000000; fill-opacity:1.0; 
stroke:#000000; stroke-width:787.402; stroke-opacity:1; 
stroke-linecap:round; stroke-linejoin:round;">
</g>
<g style="fill:#000000; fill-opacity:0.0; 
stroke:#000000; stroke-width:787.402; stroke-opacity:1; 
stroke-linecap:round; stroke-linejoin:round;">
<path d="M59995 33053
L59995 32816
" />
<path d="M58995 33053
L58995 32816
" />
<path d="M57995 33053
L57995 32816
" />
<path d="M56995 33053
L56995 32816
" />
<path d="M55995 33053
L55995 32816
" />
<path d="M54995 33053
L54995 32816
" />
<path d="M53995 33053
L53995 32816
" />
<path d="M52995 33053
L52995 32816
" />
<path d="M51995 33053
L51995 32816
" />
<path d="M50995 33053
L50995 32816
" />
<path d="M49995 33053
L49995 32816
" />
<path d="M48995 33053
L48995 32816
" />
</g>
<g style="fill:#000000; fill-opacity:1.0; 
stroke:#000000; stroke-width:0; stroke-opacity:1; 
stroke-linecap:round; stroke-linejoin:round;">
<circle cx="52476.4" cy="27626" r="275.591" /> 
</g>
<g style="fill:#000000; fill-opacity:1.0; 
stroke:#000000; stroke-width:39.3701; stroke-opacity:1; 
stroke-linecap:round; stroke-linejoin:round;">
</g>
<g style="fill:#000000; fill-opacity:1.0; 
stroke:#000000; stroke-width:551.181; stroke-opacity:1; 
stroke-linecap:round; stroke-linejoin:round;">
</g>
<g style="fill:#000000; fill-opacity:0.0; 
stroke:#000000; stroke-width:551.181; stroke-opacity:1; 
stroke-linecap:round; stroke-linejoin:round;">
<path d="M49476 27625
L49476 27625
" />
</g>
<g style="fill:#000000; fill-opacity:1.0; 
stroke:#000000; stroke-width:0; stroke-opacity:1; 
stroke-linecap:round; stroke-linejoin:round;">
<circle cx="52476.4" cy="28649.6" r="275.591" /> 
</g>
<g style="fill:#000000; fill-opacity:1.0; 
stroke:#000000; stroke-width:39.3701; stroke-opacity:1; 
stroke-linecap:round; stroke-linejoin:round;">
</g>
<g style="fill:#000000; fill-opacity:1.0; 
stroke:#000000; stroke-width:551.181; stroke-opacity:1; 
stroke-linecap:round; stroke-linejoin:round;">
</g>
<g style="fill:#000000; fill-opacity:0.0; 
stroke:#000000; stroke-width:551.181; stroke-opacity:1; 
stroke-linecap:round; stroke-linejoin:round;">
<path d="M49476 28649
L49476 28649
" />
</g>
<g style="fill:#000000; fill-opacity:1.0; 
stroke:#000000; stroke-width:0; stroke-opacity:1; 
stroke-linecap:round; stroke-linejoin:round;">
<circle cx="52476.4" cy="30618.1" r="275.591" /> 
</g>
<g style="fill:#000000; fill-opacity:1.0; 
stroke:#000000; stroke-width:39.3701; stroke-opacity:1; 
stroke-linecap:round; stroke-linejoin:round;">
</g>
<g style="fill:#000000; fill-opacity:1.0; 
stroke:#000000; stroke-width:551.181; stroke-opacity:1; 
stroke-linecap:round; stroke-linejoin:round;">
</g>
<g style="fill:#000000; fill-opacity:0.0; 
stroke:#000000; stroke-width:551.181; stroke-opacity:1; 
stroke-linecap:round; stroke-linejoin:round;">
<path d="M49476 30618
L49476 30618
" />
</g>
<g style="fill:#000000; fill-opacity:1.0; 
stroke:#000000; stroke-width:0; stroke-opacity:1; 
stroke-linecap:round; stroke-linejoin:round;">
<circle cx="52476.4" cy="29633.9" r="275.591" /> 
</g>
<g style="fill:#000000; fill-opacity:1.0; 
stroke:#000000; stroke-width:39.3701; stroke-opacity:1; 
stroke-linecap:round; stroke-linejoin:round;">
</g>
<g style="fill:#000000; fill-opacity:1.0; 
stroke:#000000; stroke-width:551.181; stroke-opacity:1; 
stroke-linecap:round; stroke-linejoin:round;">
</g>
<g style="fill:#000000; fill-opacity:0.0; 
stroke:#000000; stroke-width:551.181; stroke-opacity:1; 
stroke-linecap:round; stroke-linejoin:round;">
<path d="M49476 29633
L49476 29633
" />
</g>
<g style="fill:#000000; fill-opacity:0.0; 
stroke:#000000; stroke-width:0; stroke-opacity:1; 
stroke-linecap:round; stroke-linejoin:round;">
</g>
<g style="fill:#000000; fill-opacity:1.0; 
stroke:#000000; stroke-width:0; stroke-opacity:1; 
stroke-linecap:round; stroke-linejoin:round;">
<polyline style="fill-rule:evenodd;"
points="48401,30283
48401,30952
47732,30952
47732,30283
48401,30283
" /> 
</g>
<g style="fill:#000000; fill-opacity:1.0; 
stroke:#000000; stroke-width:669.291; stroke-opacity:1; 
stroke-linecap:round; stroke-linejoin:round;">
</g>
<g style="fill:#000000; fill-opacity:0.0; 
stroke:#000000; stroke-width:669.291; stroke-opacity:1; 
stroke-linecap:round; stroke-linejoin:round;">
<path d="M47066 30618
L47066 30618
" />
<path d="M48066 29618
L48066 29618
" />
<path d="M47066 29618
L47066 29618
" />
<path d="M48066 28618
L48066 28618
" />
<path d="M47066 28618
L47066 28618
" />
<path d="M48066 27618
L48066 27618
" />
<path d="M47066 27618
L47066 27618
" />
</g>
<g style="fill:#000000; fill-opacity:0.0; 
stroke:#000000; stroke-width:0; stroke-opacity:1; 
stroke-linecap:round; stroke-linejoin:round;">
</g>
<g style="fill:#000000; fill-opacity:1.0; 
stroke:#000000; stroke-width:0; stroke-opacity:1; 
stroke-linecap:round; stroke-linejoin:round;">
<polyline style="fill-rule:evenodd;"
points="60188,28311
60188,29688
58811,29688
58811,28311
60188,28311
" /> 
<polyline style="fill-rule:evenodd;"
points="62551,28311
62551,29688
61173,29688
61173,28311
62551,28311
" /> 
<polyline style="fill-rule:evenodd;"
points="61370,30161
61370,31539
59992,31539
59992,30161
61370,30161
" /> 
<circle cx="56885.8" cy="38500" r="118.11" /> 
</g>
<g style="fill:#000000; fill-opacity:1.0; 
stroke:#000000; stroke-width:39.3701; stroke-opacity:1; 
stroke-linecap:round; stroke-linejoin:round;">
</g>
<g style="fill:#000000; fill-opacity:1.0; 
stroke:#000000; stroke-width:0; stroke-opacity:1; 
stroke-linecap:round; stroke-linejoin:round;">
<circle cx="55862.2" cy="43492.1" r="118.11" /> 
</g>
<g style="fill:#000000; fill-opacity:1.0; 
stroke:#000000; stroke-width:39.3701; stroke-opacity:1; 
stroke-linecap:round; stroke-linejoin:round;">
</g>
<g style="fill:#000000; fill-opacity:1.0; 
stroke:#000000; stroke-width:0; stroke-opacity:1; 
stroke-linecap:round; stroke-linejoin:round;">
<circle cx="45300" cy="39000" r="118.11" /> 
</g>
<g style="fill:#000000; fill-opacity:1.0; 
stroke:#000000; stroke-width:39.3701; stroke-opacity:1; 
stroke-linecap:round; stroke-linejoin:round;">
</g>
<g style="fill:#000000; fill-opacity:1.0; 
stroke:#000000; stroke-width:0; stroke-opacity:1; 
stroke-linecap:round; stroke-linejoin:round;">
<circle cx="47023.6" cy="40480.3" r="118.11" /> 
</g>
<g style="fill:#000000; fill-opacity:1.0; 
stroke:#000000; stroke-width:39.3701; stroke-opacity:1; 
stroke-linecap:round; stroke-linejoin:round;">
</g>
<g style="fill:#000000; fill-opacity:1.0; 
stroke:#000000; stroke-width:0; stroke-opacity:1; 
stroke-linecap:round; stroke-linejoin:round;">
<circle cx="57515.7" cy="48059.1" r="118.11" /> 
</g>
<g style="fill:#000000; fill-opacity:1.0; 
stroke:#000000; stroke-width:39.3701; stroke-opacity:1; 
stroke-linecap:round; stroke-linejoin:round;">
</g>
<g style="fill:#000000; fill-opacity:1.0; 
stroke:#000000; stroke-width:0; stroke-opacity:1; 
stroke-linecap:round; stroke-linejoin:round;">
<circle cx="52669.3" cy="41500" r="118.11" /> 
</g>
<g style="fill:#000000; fill-opacity:1.0; 
stroke:#000000; stroke-width:39.3701; stroke-opacity:1; 
stroke-linecap:round; stroke-linejoin:round;">
</g>
<g style="fill:#000000; fill-opacity:1.0; 
stroke:#000000; stroke-width:0; stroke-opacity:1; 
stroke-linecap:round; stroke-linejoin:round;">
<circle cx="52338.6" cy="40480.3" r="118.11" /> 
</g>
<g style="fill:#000000; fill-opacity:1.0; 
stroke:#000000; stroke-width:39.3701; stroke-opacity:1; 
stroke-linecap:round; stroke-linejoin:round;">
</g>
<g style="fill:#000000; fill-opacity:1.0; 
stroke:#000000; stroke-width:0; stroke-opacity:1; 
stroke-linecap:round; stroke-linejoin:round;">
<circle cx="48500" cy="40893.7" r="118.11" /> 
</g>
<g style="fill:#000000; fill-opacity:1.0; 
stroke:#000000; stroke-width:39.3701; stroke-opacity:1; 
stroke-linecap:round; stroke-linejoin:round;">
</g>
<g style="fill:#000000; fill-opacity:1.0; 
stroke:#000000; stroke-width:0; stroke-opacity:1; 
stroke-linecap:round; stroke-linejoin:round;">
<circle cx="49326.8" cy="42783.5" r="118.11" /> 
</g>
<g style="fill:#000000; fill-opacity:1.0; 
stroke:#000000; stroke-width:39.3701; stroke-opacity:1; 
stroke-linecap:round; stroke-linejoin:round;">
</g>
<g style="fill:#000000; fill-opacity:1.0; 
stroke:#000000; stroke-width:0; stroke-opacity:1; 
stroke-linecap:round; stroke-linejoin:round;">
<circle cx="49051.2" cy="40893.7" r="118.11" /> 
</g>
<g style="fill:#000000; fill-opacity:1.0; 
stroke:#000000; stroke-width:39.3701; stroke-opacity:1; 
stroke-linecap:round; stroke-linejoin:round;">
</g>
<g style="fill:#000000; fill-opacity:1.0; 
stroke:#000000; stroke-width:0; stroke-opacity:1; 
stroke-linecap:round; stroke-linejoin:round;">
<circle cx="49720.5" cy="42783.5" r="118.11" /> 
</g>
<g style="fill:#000000; fill-opacity:1.0; 
stroke:#000000; stroke-width:39.3701; stroke-opacity:1; 
stroke-linecap:round; stroke-linejoin:round;">
</g>
<g style="fill:#000000; fill-opacity:1.0; 
stroke:#000000; stroke-width:0; stroke-opacity:1; 
stroke-linecap:round; stroke-linejoin:round;">
<circle cx="44129.9" cy="45815" r="118.11" /> 
</g>
<g style="fill:#000000; fill-opacity:1.0; 
stroke:#000000; stroke-width:39.3701; stroke-opacity:1; 
stroke-linecap:round; stroke-linejoin:round;">
</g>
<g style="fill:#000000; fill-opacity:1.0; 
stroke:#000000; stroke-width:0; stroke-opacity:1; 
stroke-linecap:round; stroke-linejoin:round;">
<circle cx="43933.1" cy="46129.9" r="118.11" /> 
</g>
<g style="fill:#000000; fill-opacity:1.0; 
stroke:#000000; stroke-width:39.3701; stroke-opacity:1; 
stroke-linecap:round; stroke-linejoin:round;">
</g>
<g style="fill:#000000; fill-opacity:1.0; 
stroke:#000000; stroke-width:0; stroke-opacity:1; 
stroke-linecap:round; stroke-linejoin:round;">
<circle cx="46885.8" cy="45460.6" r="118.11" /> 
</g>
<g style="fill:#000000; fill-opacity:1.0; 
stroke:#000000; stroke-width:39.3701; stroke-opacity:1; 
stroke-linecap:round; stroke-linejoin:round;">
</g>
<g style="fill:#000000; fill-opacity:1.0; 
stroke:#000000; stroke-width:0; stroke-opacity:1; 
stroke-linecap:round; stroke-linejoin:round;">
<circle cx="44287.4" cy="45460.6" r="118.11" /> 
</g>
<g style="fill:#000000; fill-opacity:1.0; 
stroke:#000000; stroke-width:39.3701; stroke-opacity:1; 
stroke-linecap:round; stroke-linejoin:round;">
</g>
<g style="fill:#000000; fill-opacity:1.0; 
stroke:#000000; stroke-width:0; stroke-opacity:1; 
stroke-linecap:round; stroke-linejoin:round;">
<circle cx="45980.3" cy="45185" r="118.11" /> 
</g>
<g style="fill:#000000; fill-opacity:1.0; 
stroke:#000000; stroke-width:39.3701; stroke-opacity:1; 
stroke-linecap:round; stroke-linejoin:round;">
</g>
<g style="fill:#000000; fill-opacity:1.0; 
stroke:#000000; stroke-width:0; stroke-opacity:1; 
stroke-linecap:round; stroke-linejoin:round;">
<circle cx="44681.1" cy="45185" r="118.11" /> 
</g>
<g style="fill:#000000; fill-opacity:1.0; 
stroke:#000000; stroke-width:39.3701; stroke-opacity:1; 
stroke-linecap:round; stroke-linejoin:round;">
</g>
<g style="fill:#000000; fill-opacity:1.0; 
stroke:#000000; stroke-width:0; stroke-opacity:1; 
stroke-linecap:round; stroke-linejoin:round;">
<circle cx="43696.9" cy="46444.9" r="118.11" /> 
</g>
<g style="fill:#000000; fill-opacity:1.0; 
stroke:#000000; stroke-width:39.3701; stroke-opacity:1; 
stroke-linecap:round; stroke-linejoin:round;">
</g>
<g style="fill:#000000; fill-opacity:1.0; 
stroke:#000000; stroke-width:98.4252; stroke-opacity:1; 
stroke-linecap:round; stroke-linejoin:round;">
</g>
<g style="fill:#000000; fill-opacity:0.0; 
stroke:#000000; stroke-width:98.4252; stroke-opacity:1; 
stroke-linecap:round; stroke-linejoin:round;">
<path d="M45074 34500
L44933 34500
" />
<path d="M44468 34964
L41295 34964
" />
<path d="M44933 34500
L44468 34964
" />
<path d="M47066 30618
L46059 30618
" />
<path d="M45000 31677
L45000 34500
" />
<path d="M46059 30618
L45000 31677
" />
<path d="M60425 50500
L60995 49930
" />
<path d="M58618 50500
L60425 50500
" />
<path d="M58500 50381
L58618 50500
" />
<path d="M58500 49673
L58500 50381
" />
<path d="M58263 49437
L58500 49673
" />
<path d="M52712 49437
L58263 49437
" />
<path d="M52515 49240
L52712 49437
" />
<path d="M52515 46641
L52515 49240
" />
<path d="M55862 43492
L55862 43500
" />
<path d="M55862 43500
L55862 43492
" />
<path d="M55862 43492
L55862 43500
" />
<path d="M60995 49930
L61195 49930
" />
<path d="M61195 49930
L61590 49535
" />
<path d="M61590 49535
L61590 48748
" />
<path d="M61590 48748
L56342 43500
" />
<path d="M56342 43500
L55862 43500
" />
<path d="M55862 43500
L54500 43500
" />
<path d="M45000 34500
L45074 34500
" />
<path d="M45074 34500
L45866 34500
" />
<path d="M45866 34500
L46236 34870
" />
<path d="M46236 34870
L58440 34870
" />
<path d="M59995 32935
L59995 33316
" />
<path d="M59995 33316
L58440 34870
" />
<path d="M58429 38500
L56885 38500
" />
<path d="M58440 34870
L58440 38511
" />
<path d="M58440 38511
L58429 38500
" />
<path d="M56885 38500
L54500 38500
" />
<path d="M51500 45625
L52515 46641
" />
<path d="M51500 44500
L51500 45625
" />
<path d="M41295 43964
L44135 43964
" />
<path d="M45300 42800
L45300 39000
" />
<path d="M44135 43964
L45300 42800
" />
<path d="M51995 49930
L51867 49930
" />
<path d="M51867 49930
L51492 49555
" />
<path d="M51492 49555
L51492 46523
" />
<path d="M51492 46523
L50173 45204
" />
<path d="M49287 40480
L47023 40480
" />
<path d="M50173 41366
L49287 40480
" />
<path d="M50173 45204
L50173 41366
" />
<path d="M57515 48059
L57515 47035
" />
<path d="M57515 47035
L55704 45224
" />
<path d="M55704 45224
L54248 45224
" />
<path d="M54248 45224
L53933 44909
" />
<path d="M53933 44909
L53933 43066
" />
<path d="M53933 43066
L54500 42500
" />
<path d="M55881 40881
L54500 39500
" />
<path d="M55881 42744
L55881 40881
" />
<path d="M61787 48649
L55881 42744
" />
<path d="M61787 50224
L61787 48649
" />
<path d="M61295 50716
L61787 50224
" />
<path d="M55685 50716
L61295 50716
" />
<path d="M54995 49930
L54995 50026
" />
<path d="M54995 50026
L55685 50716
" />
<path d="M45000 35500
L43381 35500
" />
<path d="M45000 35500
L52870 35500
" />
<path d="M42917 35964
L41295 35964
" />
<path d="M43381 35500
L42917 35964
" />
<path d="M52881 42500
L51500 42500
" />
<path d="M52870 35500
L52929 35559
" />
<path d="M52929 35559
L52929 42547
" />
<path d="M52881 42500
L52929 42547
" />
<path d="M45000 36500
L43366 36500
" />
<path d="M52590 36500
L52732 36641
" />
<path d="M45000 36500
L52590 36500
" />
<path d="M42901 36964
L41295 36964
" />
<path d="M43366 36500
L42901 36964
" />
<path d="M52732 36641
L52732 41562
" />
<path d="M52669 41500
L52732 41562
" />
<path d="M52669 41500
L51500 41500
" />
<path d="M52555 37153
L52555 40263
" />
<path d="M52318 40500
L52555 40263
" />
<path d="M52338 40480
L52318 40500
" />
<path d="M52318 40500
L51500 40500
" />
<path d="M50763 36740
L52141 36740
" />
<path d="M52141 36740
L52555 37153
" />
<path d="M45000 37500
L43507 37500
" />
<path d="M50003 37500
L50763 36740
" />
<path d="M45000 37500
L50003 37500
" />
<path d="M43043 37964
L41295 37964
" />
<path d="M43507 37500
L43043 37964
" />
<path d="M45000 38500
L43767 38500
" />
<path d="M51500 39500
L50500 38500
" />
<path d="M45000 38500
L50500 38500
" />
<path d="M43303 38964
L41295 38964
" />
<path d="M43767 38500
L43303 38964
" />
<path d="M54500 44500
L55669 44500
" />
<path d="M55669 44500
L59523 48354
" />
<path d="M59523 48354
L59523 49401
" />
<path d="M59523 49401
L58995 49930
" />
<path d="M48500 41326
L48500 40893
" />
<path d="M49326 42153
L48500 41326
" />
<path d="M49326 42783
L49326 42153
" />
<path d="M49720 42114
L49051 41444
" />
<path d="M49051 41444
L49051 40893
" />
<path d="M49720 42783
L49720 42114
" />
<path d="M60995 32935
L60995 32495
" />
<path d="M60995 32495
L60500 32000
" />
<path d="M60500 32000
L59500 32000
" />
<path d="M59500 32000
L59500 29000
" />
<path d="M43893 45578
L40153 45578
" />
<path d="M43893 45578
L44129 45814
" />
<path d="M49366 45814
L44129 45814
" />
<path d="M50507 46956
L49366 45814
" />
<path d="M50507 49476
L50507 46956
" />
<path d="M50961 49930
L50507 49476
" />
<path d="M44090 26956
L46255 26956
" />
<path d="M41649 29397
L44090 26956
" />
<path d="M40153 29397
L41649 29397
" />
<path d="M39956 29594
L40153 29397
" />
<path d="M39956 45381
L39956 29594
" />
<path d="M40153 45578
L39956 45381
" />
<path d="M50995 49930
L50961 49930
" />
<path d="M52476 29633
L52476 29476
" />
<path d="M52476 29476
L51728 28728
" />
<path d="M51413 26956
L46255 26956
" />
<path d="M51728 27271
L51413 26956
" />
<path d="M51728 28728
L51728 27271
" />
<path d="M43677 45874
L39937 45874
" />
<path d="M52515 49633
L52515 50696
" />
<path d="M52515 50696
L52122 51090
" />
<path d="M52122 51090
L48696 51090
" />
<path d="M48696 51090
L47948 50342
" />
<path d="M47948 50342
L47948 47271
" />
<path d="M47948 47271
L46807 46129
" />
<path d="M46807 46129
L43933 46129
" />
<path d="M52476 28610
L51925 28059
" />
<path d="M51925 28059
L51925 27128
" />
<path d="M51925 27128
L51497 26700
" />
<path d="M51497 26700
L43972 26700
" />
<path d="M43972 26700
L43677 26996
" />
<path d="M43677 45874
L43933 46129
" />
<path d="M52515 49633
L51995 49113
" />
<path d="M41511 29161
L43677 26996
" />
<path d="M39956 29161
L41511 29161
" />
<path d="M39779 29338
L39956 29161
" />
<path d="M39779 45716
L39779 29338
" />
<path d="M39937 45874
L39779 45716
" />
<path d="M51995 48930
L51995 49113
" />
<path d="M52476 28649
L52476 28610
" />
<path d="M44169 45342
L40448 45342
" />
<path d="M44169 45342
L44287 45460
" />
<path d="M44287 45460
L46885 45460
" />
<path d="M44248 27153
L46393 27153
" />
<path d="M41767 29633
L44248 27153
" />
<path d="M40291 29633
L41767 29633
" />
<path d="M40133 29791
L40291 29633
" />
<path d="M40133 45027
L40133 29791
" />
<path d="M40448 45342
L40133 45027
" />
<path d="M51295 27153
L46393 27153
" />
<path d="M51551 27409
L51295 27153
" />
<path d="M51551 29496
L51551 27409
" />
<path d="M52476 30421
L51551 29496
" />
<path d="M52476 30618
L52476 30421
" />
<path d="M43500 26917
L41452 28964
" />
<path d="M45980 45185
L44681 45185
" />
<path d="M52476 27429
L51570 26523
" />
<path d="M51570 26523
L43893 26523
" />
<path d="M43893 26523
L43500 26917
" />
<path d="M43500 46248
L43696 46444
" />
<path d="M39877 46248
L43500 46248
" />
<path d="M39602 45972
L39877 46248
" />
<path d="M39602 29043
L39602 45972
" />
<path d="M39681 28964
L39602 29043
" />
<path d="M41452 28964
L39681 28964
" />
<path d="M52476 27625
L52476 27429
" />
</g> 
</svg>
