M48
;DRILL file {KiCad 4.0.5-e0-6337~49~ubuntu16.04.1} date Sun Jan 15 23:05:17 2017
;FORMAT={-:-/ absolute / inch / decimal}
FMAT,2
INCH,TZ
T1C0.016
T2C0.035
T3C0.039
T4C0.040
T5C0.047
T6C0.098
%
G90
G05
M72
T1
X4.7024Y-4.048
X4.85Y-4.0894
X4.9051Y-4.0894
X4.9327Y-4.2783
X4.972Y-4.2783
X5.2339Y-4.048
X5.2669Y-4.15
X5.5862Y-4.3492
X5.6886Y-3.85
T2
X5.15Y-3.75
X5.15Y-3.85
X5.15Y-3.95
X5.15Y-4.05
X5.15Y-4.15
X5.15Y-4.25
X5.15Y-4.35
X5.15Y-4.45
X5.45Y-3.75
X5.45Y-3.85
X5.45Y-3.95
X5.45Y-4.05
X5.45Y-4.15
X5.45Y-4.25
X5.45Y-4.35
X5.45Y-4.45
T4
X4.8995Y-4.893
X4.8995Y-4.993
X4.9995Y-4.893
X4.9995Y-4.993
X5.0995Y-4.893
X5.0995Y-4.993
X5.1995Y-4.893
X5.1995Y-4.993
X5.2995Y-4.893
X5.2995Y-4.993
X5.3995Y-4.893
X5.3995Y-4.993
X5.4995Y-4.893
X5.4995Y-4.993
X5.5995Y-4.893
X5.5995Y-4.993
X5.6995Y-4.893
X5.6995Y-4.993
X5.7995Y-4.893
X5.7995Y-4.993
X5.8995Y-4.893
X5.8995Y-4.993
X5.9995Y-4.893
X5.9995Y-4.993
X6.0995Y-4.893
X6.0995Y-4.993
T5
X4.5Y-3.45
X4.5Y-3.55
X4.5Y-3.65
X4.5Y-3.75
X4.5Y-3.85
X4.5Y-3.95
X4.5Y-4.05
X4.5Y-4.15
X4.5Y-4.25
X4.5Y-4.35
X4.8995Y-3.2935
X4.9995Y-3.2935
X5.0995Y-3.2935
X5.1995Y-3.2935
X5.2995Y-3.2935
X5.3995Y-3.2935
X5.4995Y-3.2935
X5.5995Y-3.2935
X5.6995Y-3.2935
X5.7995Y-3.2935
X5.8995Y-3.2935
X5.9995Y-3.2935
X6.0995Y-3.2935
T6
X4.6705Y-4.928
X4.671Y-3.3475
X6.3265Y-4.9255
X6.329Y-3.348
T3
X6.05Y-2.9894G85X6.05Y-2.9106
G05
X6.2075Y-2.765G85X6.1287Y-2.765
G05
X6.2862Y-2.9894G85X6.2862Y-2.9106
G05
T0
M30
