  0
SECTION
  2
HEADER
  9
$ANGBASE
  50
0.0
  9
$ANGDIR
  70
  1
  9
$MEASUREMENT
  70
0
  0
ENDSEC
  0
SECTION
  2
TABLES
  0
TABLE
  2
LTYPE
  70
1
  0
LTYPE
  2
CONTINUOUS
  70
0
  3
Solid line
  72
65
  73
0
  40
0.0
  0
ENDTAB
  0
TABLE
  2
STYLE
  70
4
  0
STYLE
  2
KICAD
  70
0
  40
0
  41
1
  42
1
  50
0
  71
0
  3
isocp.shx
  0
STYLE
  2
KICADB
  70
0
  40
0
  41
1
  42
1
  50
0
  71
0
  3
isocp.shx
  0
STYLE
  2
KICADI
  70
0
  40
0
  41
1
  42
1
  50
15
  71
0
  3
isocp.shx
  0
STYLE
  2
KICADBI
  70
0
  40
0
  41
1
  42
1
  50
15
  71
0
  3
isocp.shx
  0
ENDTAB
  0
TABLE
  2
LAYER
  70
30
  0
LAYER
  2
BLACK
  70
0
  62
7
  6
CONTINUOUS
  0
LAYER
  2
GRAY1
  70
0
  62
251
  6
CONTINUOUS
  0
LAYER
  2
GRAY2
  70
0
  62
8
  6
CONTINUOUS
  0
LAYER
  2
GRAY3
  70
0
  62
9
  6
CONTINUOUS
  0
LAYER
  2
WHITE
  70
0
  62
7
  6
CONTINUOUS
  0
LAYER
  2
LYELLOW
  70
0
  62
51
  6
CONTINUOUS
  0
LAYER
  2
BLUE1
  70
0
  62
178
  6
CONTINUOUS
  0
LAYER
  2
GREEN1
  70
0
  62
98
  6
CONTINUOUS
  0
LAYER
  2
CYAN1
  70
0
  62
138
  6
CONTINUOUS
  0
LAYER
  2
RED1
  70
0
  62
18
  6
CONTINUOUS
  0
LAYER
  2
MAGENTA1
  70
0
  62
228
  6
CONTINUOUS
  0
LAYER
  2
BROWN1
  70
0
  62
58
  6
CONTINUOUS
  0
LAYER
  2
BLUE2
  70
0
  62
5
  6
CONTINUOUS
  0
LAYER
  2
GREEN2
  70
0
  62
3
  6
CONTINUOUS
  0
LAYER
  2
CYAN2
  70
0
  62
4
  6
CONTINUOUS
  0
LAYER
  2
RED2
  70
0
  62
1
  6
CONTINUOUS
  0
LAYER
  2
MAGENTA2
  70
0
  62
6
  6
CONTINUOUS
  0
LAYER
  2
BROWN2
  70
0
  62
54
  6
CONTINUOUS
  0
LAYER
  2
BLUE3
  70
0
  62
171
  6
CONTINUOUS
  0
LAYER
  2
GREEN3
  70
0
  62
91
  6
CONTINUOUS
  0
LAYER
  2
CYAN3
  70
0
  62
131
  6
CONTINUOUS
  0
LAYER
  2
RED3
  70
0
  62
11
  6
CONTINUOUS
  0
LAYER
  2
MAGENTA3
  70
0
  62
221
  6
CONTINUOUS
  0
LAYER
  2
YELLOW3
  70
0
  62
2
  6
CONTINUOUS
  0
LAYER
  2
BLUE4
  70
0
  62
5
  6
CONTINUOUS
  0
LAYER
  2
GREEN4
  70
0
  62
3
  6
CONTINUOUS
  0
LAYER
  2
CYAN4
  70
0
  62
4
  6
CONTINUOUS
  0
LAYER
  2
RED4
  70
0
  62
1
  6
CONTINUOUS
  0
LAYER
  2
MAGENTA4
  70
0
  62
6
  6
CONTINUOUS
  0
LAYER
  2
YELLOW4
  70
0
  62
2
  6
CONTINUOUS
  0
ENDTAB
  0
ENDSEC
  0
SECTION
  2
ENTITIES
0
LINE
8
Black
10
161.118
20
-80.059
11
161.141
21
-80.0721
0
LINE
8
Black
10
161.141
20
-80.0721
11
161.157
21
-80.092
0
LINE
8
Black
10
161.157
20
-80.092
11
161.166
21
-80.1165
0
LINE
8
Black
10
161.166
20
-80.1165
11
161.166
21
-80.1425
0
LINE
8
Black
10
161.166
20
-80.1425
11
161.157
21
-80.167
0
LINE
8
Black
10
161.157
20
-80.167
11
161.141
21
-80.187
0
LINE
8
Black
10
161.141
20
-80.187
11
161.118
21
-80.2
0
LINE
8
Black
10
161.118
20
-80.2
11
161.092
21
-80.2045
0
LINE
8
Black
10
161.092
20
-80.2045
11
160.691
21
-80.2045
0
LINE
8
Black
10
160.691
20
-80.2045
11
160.691
21
-80.3286
0
LINE
8
Black
10
160.691
20
-80.3286
11
161.135
21
-80.6395
0
LINE
8
Black
10
161.135
20
-80.6395
11
161.154
21
-80.6579
0
LINE
8
Black
10
161.154
20
-80.6579
11
161.165
21
-80.6815
0
LINE
8
Black
10
161.165
20
-80.6815
11
161.167
21
-80.7075
0
LINE
8
Black
10
161.167
20
-80.7075
11
161.16
21
-80.7326
0
LINE
8
Black
10
161.16
20
-80.7326
11
161.145
21
-80.754
0
LINE
8
Black
10
161.145
20
-80.754
11
161.124
21
-80.7689
0
LINE
8
Black
10
161.124
20
-80.7689
11
161.099
21
-80.7757
0
LINE
8
Black
10
161.099
20
-80.7757
11
161.073
21
-80.7734
0
LINE
8
Black
10
161.073
20
-80.7734
11
161.049
21
-80.7624
0
LINE
8
Black
10
161.049
20
-80.7624
11
160.691
21
-80.5115
0
LINE
8
Black
10
160.691
20
-80.5115
11
160.69
21
-80.5147
0
LINE
8
Black
10
160.69
20
-80.5147
11
160.691
21
-80.5191
0
LINE
8
Black
10
160.691
20
-80.5191
11
160.688
21
-80.5275
0
LINE
8
Black
10
160.688
20
-80.5275
11
160.687
21
-80.5361
0
LINE
8
Black
10
160.687
20
-80.5361
11
160.685
21
-80.5399
0
LINE
8
Black
10
160.685
20
-80.5399
11
160.683
21
-80.544
0
LINE
8
Black
10
160.683
20
-80.544
11
160.636
21
-80.6393
0
LINE
8
Black
10
160.636
20
-80.6393
11
160.628
21
-80.6489
0
LINE
8
Black
10
160.628
20
-80.6489
11
160.622
21
-80.6587
0
LINE
8
Black
10
160.622
20
-80.6587
11
160.574
21
-80.7064
0
LINE
8
Black
10
160.574
20
-80.7064
11
160.564
21
-80.7133
0
LINE
8
Black
10
160.564
20
-80.7133
11
160.554
21
-80.7204
0
LINE
8
Black
10
160.554
20
-80.7204
11
160.459
21
-80.768
0
LINE
8
Black
10
160.459
20
-80.768
11
160.455
21
-80.7693
0
LINE
8
Black
10
160.455
20
-80.7693
11
160.451
21
-80.7714
0
LINE
8
Black
10
160.451
20
-80.7714
11
160.443
21
-80.773
0
LINE
8
Black
10
160.443
20
-80.773
11
160.434
21
-80.7755
0
LINE
8
Black
10
160.434
20
-80.7755
11
160.43
21
-80.7752
0
LINE
8
Black
10
160.43
20
-80.7752
11
160.426
21
-80.776
0
LINE
8
Black
10
160.426
20
-80.776
11
160.283
21
-80.776
0
LINE
8
Black
10
160.283
20
-80.776
11
160.279
21
-80.7752
0
LINE
8
Black
10
160.279
20
-80.7752
11
160.274
21
-80.7755
0
LINE
8
Black
10
160.274
20
-80.7755
11
160.266
21
-80.773
0
LINE
8
Black
10
160.266
20
-80.773
11
160.257
21
-80.7714
0
LINE
8
Black
10
160.257
20
-80.7714
11
160.253
21
-80.7693
0
LINE
8
Black
10
160.253
20
-80.7693
11
160.249
21
-80.768
0
LINE
8
Black
10
160.249
20
-80.768
11
160.154
21
-80.7204
0
LINE
8
Black
10
160.154
20
-80.7204
11
160.144
21
-80.7133
0
LINE
8
Black
10
160.144
20
-80.7133
11
160.135
21
-80.7064
0
LINE
8
Black
10
160.135
20
-80.7064
11
160.087
21
-80.6587
0
LINE
8
Black
10
160.087
20
-80.6587
11
160.08
21
-80.6489
0
LINE
8
Black
10
160.08
20
-80.6489
11
160.073
21
-80.6393
0
LINE
8
Black
10
160.073
20
-80.6393
11
160.025
21
-80.544
0
LINE
8
Black
10
160.025
20
-80.544
11
160.024
21
-80.5399
0
LINE
8
Black
10
160.024
20
-80.5399
11
160.022
21
-80.5361
0
LINE
8
Black
10
160.022
20
-80.5361
11
160.02
21
-80.5275
0
LINE
8
Black
10
160.02
20
-80.5275
11
160.018
21
-80.5191
0
LINE
8
Black
10
160.018
20
-80.5191
11
160.018
21
-80.5147
0
LINE
8
Black
10
160.018
20
-80.5147
11
160.017
21
-80.5105
0
LINE
8
Black
10
160.017
20
-80.5105
11
160.017
21
-80.1295
0
LINE
8
Black
10
160.017
20
-80.1295
11
160.019
21
-80.1231
0
LINE
8
Black
10
160.019
20
-80.1231
11
160.019
21
-80.1165
0
LINE
8
Black
10
160.019
20
-80.1165
11
160.021
21
-80.1103
0
LINE
8
Black
10
160.021
20
-80.1103
11
160.022
21
-80.1039
0
LINE
8
Black
10
160.022
20
-80.1039
11
160.025
21
-80.0982
0
LINE
8
Black
10
160.025
20
-80.0982
11
160.027
21
-80.092
0
LINE
8
Black
10
160.027
20
-80.092
11
160.032
21
-80.087
0
LINE
8
Black
10
160.032
20
-80.087
11
160.035
21
-80.0813
0
LINE
8
Black
10
160.035
20
-80.0813
11
160.04
21
-80.0771
0
LINE
8
Black
10
160.04
20
-80.0771
11
160.044
21
-80.0721
0
LINE
8
Black
10
160.044
20
-80.0721
11
160.05
21
-80.0688
0
LINE
8
Black
10
160.05
20
-80.0688
11
160.055
21
-80.0646
0
LINE
8
Black
10
160.055
20
-80.0646
11
160.061
21
-80.0623
0
LINE
8
Black
10
160.061
20
-80.0623
11
160.067
21
-80.059
0
LINE
8
Black
10
160.067
20
-80.059
11
160.073
21
-80.0579
0
LINE
8
Black
10
160.073
20
-80.0579
11
160.079
21
-80.0557
0
LINE
8
Black
10
160.079
20
-80.0557
11
160.086
21
-80.0557
0
LINE
8
Black
10
160.086
20
-80.0557
11
160.092
21
-80.0545
0
LINE
8
Black
10
160.092
20
-80.0545
11
161.092
21
-80.0545
0
LINE
8
Black
10
161.092
20
-80.0545
11
161.118
21
-80.059
0
LINE
8
Black
10
160.167
20
-80.2045
11
160.167
21
-80.4928
0
LINE
8
Black
10
160.167
20
-80.4928
11
160.202
21
-80.5613
0
LINE
8
Black
10
160.202
20
-80.5613
11
160.232
21
-80.5917
0
LINE
8
Black
10
160.232
20
-80.5917
11
160.301
21
-80.626
0
LINE
8
Black
10
160.301
20
-80.626
11
160.408
21
-80.626
0
LINE
8
Black
10
160.408
20
-80.626
11
160.477
21
-80.5917
0
LINE
8
Black
10
160.477
20
-80.5917
11
160.507
21
-80.5613
0
LINE
8
Black
10
160.507
20
-80.5613
11
160.541
21
-80.4928
0
LINE
8
Black
10
160.541
20
-80.4928
11
160.541
21
-80.2045
0
LINE
8
Black
10
160.541
20
-80.2045
11
160.167
21
-80.2045
0
LINE
8
Black
10
160.11
20
-78.8185
11
161.11
21
-79.0566
0
LINE
8
Black
10
161.11
20
-79.0566
11
161.117
21
-79.0596
0
LINE
8
Black
10
161.117
20
-79.0596
11
161.124
21
-79.0616
0
LINE
8
Black
10
161.124
20
-79.0616
11
161.129
21
-79.0647
0
LINE
8
Black
10
161.129
20
-79.0647
11
161.134
21
-79.0669
0
LINE
8
Black
10
161.134
20
-79.0669
11
161.139
21
-79.0722
0
LINE
8
Black
10
161.139
20
-79.0722
11
161.145
21
-79.0766
0
LINE
8
Black
10
161.145
20
-79.0766
11
161.149
21
-79.081
0
LINE
8
Black
10
161.149
20
-79.081
11
161.153
21
-79.0848
0
LINE
8
Black
10
161.153
20
-79.0848
11
161.156
21
-79.0916
0
LINE
8
Black
10
161.156
20
-79.0916
11
161.16
21
-79.0979
0
LINE
8
Black
10
161.16
20
-79.0979
11
161.162
21
-79.1032
0
LINE
8
Black
10
161.162
20
-79.1032
11
161.164
21
-79.1081
0
LINE
8
Black
10
161.164
20
-79.1081
11
161.165
21
-79.1157
0
LINE
8
Black
10
161.165
20
-79.1157
11
161.167
21
-79.1231
0
LINE
8
Black
10
161.167
20
-79.1231
11
161.167
21
-79.1285
0
LINE
8
Black
10
161.167
20
-79.1285
11
161.167
21
-79.134
0
LINE
8
Black
10
161.167
20
-79.134
11
161.165
21
-79.1414
0
LINE
8
Black
10
161.165
20
-79.1414
11
161.165
21
-79.149
0
LINE
8
Black
10
161.165
20
-79.149
11
161.162
21
-79.154
0
LINE
8
Black
10
161.162
20
-79.154
11
161.161
21
-79.1593
0
LINE
8
Black
10
161.161
20
-79.1593
11
161.157
21
-79.1657
0
LINE
8
Black
10
161.157
20
-79.1657
11
161.154
21
-79.1726
0
LINE
8
Black
10
161.154
20
-79.1726
11
161.15
21
-79.1765
0
LINE
8
Black
10
161.15
20
-79.1765
11
161.147
21
-79.181
0
LINE
8
Black
10
161.147
20
-79.181
11
161.141
21
-79.1856
0
LINE
8
Black
10
161.141
20
-79.1856
11
161.135
21
-79.191
0
LINE
8
Black
10
161.135
20
-79.191
11
161.13
21
-79.1933
0
LINE
8
Black
10
161.13
20
-79.1933
11
161.126
21
-79.1966
0
LINE
8
Black
10
161.126
20
-79.1966
11
161.119
21
-79.1988
0
LINE
8
Black
10
161.119
20
-79.1988
11
161.112
21
-79.202
0
LINE
8
Black
10
161.112
20
-79.202
11
160.669
21
-79.32
0
LINE
8
Black
10
160.669
20
-79.32
11
161.112
21
-79.438
0
LINE
8
Black
10
161.112
20
-79.438
11
161.119
21
-79.4412
0
LINE
8
Black
10
161.119
20
-79.4412
11
161.126
21
-79.4434
0
LINE
8
Black
10
161.126
20
-79.4434
11
161.13
21
-79.4467
0
LINE
8
Black
10
161.13
20
-79.4467
11
161.135
21
-79.449
0
LINE
8
Black
10
161.135
20
-79.449
11
161.141
21
-79.4544
0
LINE
8
Black
10
161.141
20
-79.4544
11
161.147
21
-79.459
0
LINE
8
Black
10
161.147
20
-79.459
11
161.15
21
-79.4635
0
LINE
8
Black
10
161.15
20
-79.4635
11
161.154
21
-79.4674
0
LINE
8
Black
10
161.154
20
-79.4674
11
161.157
21
-79.4743
0
LINE
8
Black
10
161.157
20
-79.4743
11
161.161
21
-79.4807
0
LINE
8
Black
10
161.161
20
-79.4807
11
161.162
21
-79.486
0
LINE
8
Black
10
161.162
20
-79.486
11
161.165
21
-79.491
0
LINE
8
Black
10
161.165
20
-79.491
11
161.165
21
-79.4986
0
LINE
8
Black
10
161.165
20
-79.4986
11
161.167
21
-79.506
0
LINE
8
Black
10
161.167
20
-79.506
11
161.167
21
-79.5115
0
LINE
8
Black
10
161.167
20
-79.5115
11
161.167
21
-79.5169
0
LINE
8
Black
10
161.167
20
-79.5169
11
161.165
21
-79.5243
0
LINE
8
Black
10
161.165
20
-79.5243
11
161.164
21
-79.5319
0
LINE
8
Black
10
161.164
20
-79.5319
11
161.162
21
-79.5368
0
LINE
8
Black
10
161.162
20
-79.5368
11
161.16
21
-79.5421
0
LINE
8
Black
10
161.16
20
-79.5421
11
161.156
21
-79.5484
0
LINE
8
Black
10
161.156
20
-79.5484
11
161.153
21
-79.5552
0
LINE
8
Black
10
161.153
20
-79.5552
11
161.149
21
-79.559
0
LINE
8
Black
10
161.149
20
-79.559
11
161.145
21
-79.5634
0
LINE
8
Black
10
161.145
20
-79.5634
11
161.139
21
-79.5678
0
LINE
8
Black
10
161.139
20
-79.5678
11
161.134
21
-79.5731
0
LINE
8
Black
10
161.134
20
-79.5731
11
161.129
21
-79.5753
0
LINE
8
Black
10
161.129
20
-79.5753
11
161.124
21
-79.5784
0
LINE
8
Black
10
161.124
20
-79.5784
11
161.117
21
-79.5804
0
LINE
8
Black
10
161.117
20
-79.5804
11
161.11
21
-79.5834
0
LINE
8
Black
10
161.11
20
-79.5834
11
160.11
21
-79.8215
0
LINE
8
Black
10
160.11
20
-79.8215
11
160.084
21
-79.8231
0
LINE
8
Black
10
160.084
20
-79.8231
11
160.059
21
-79.8156
0
LINE
8
Black
10
160.059
20
-79.8156
11
160.038
21
-79.8001
0
LINE
8
Black
10
160.038
20
-79.8001
11
160.024
21
-79.7784
0
LINE
8
Black
10
160.024
20
-79.7784
11
160.018
21
-79.753
0
LINE
8
Black
10
160.018
20
-79.753
11
160.021
21
-79.7271
0
LINE
8
Black
10
160.021
20
-79.7271
11
160.032
21
-79.7038
0
LINE
8
Black
10
160.032
20
-79.7038
11
160.051
21
-79.686
0
LINE
8
Black
10
160.051
20
-79.686
11
160.075
21
-79.6756
0
LINE
8
Black
10
160.075
20
-79.6756
11
160.786
21
-79.5064
0
LINE
8
Black
10
160.786
20
-79.5064
11
160.359
21
-79.3925
0
LINE
8
Black
10
160.359
20
-79.3925
11
160.353
21
-79.3897
0
LINE
8
Black
10
160.353
20
-79.3897
11
160.346
21
-79.3879
0
LINE
8
Black
10
160.346
20
-79.3879
11
160.341
21
-79.3842
0
LINE
8
Black
10
160.341
20
-79.3842
11
160.335
21
-79.3815
0
LINE
8
Black
10
160.335
20
-79.3815
11
160.33
21
-79.3768
0
LINE
8
Black
10
160.33
20
-79.3768
11
160.325
21
-79.373
0
LINE
8
Black
10
160.325
20
-79.373
11
160.321
21
-79.3677
0
LINE
8
Black
10
160.321
20
-79.3677
11
160.317
21
-79.3631
0
LINE
8
Black
10
160.317
20
-79.3631
11
160.314
21
-79.3571
0
LINE
8
Black
10
160.314
20
-79.3571
11
160.31
21
-79.3516
0
LINE
8
Black
10
160.31
20
-79.3516
11
160.308
21
-79.3454
0
LINE
8
Black
10
160.308
20
-79.3454
11
160.306
21
-79.3395
0
LINE
8
Black
10
160.306
20
-79.3395
11
160.305
21
-79.3329
0
LINE
8
Black
10
160.305
20
-79.3329
11
160.303
21
-79.3264
0
LINE
8
Black
10
160.303
20
-79.3264
11
160.304
21
-79.32
0
LINE
8
Black
10
160.304
20
-79.32
11
160.303
21
-79.3136
0
LINE
8
Black
10
160.303
20
-79.3136
11
160.305
21
-79.3071
0
LINE
8
Black
10
160.305
20
-79.3071
11
160.306
21
-79.3005
0
LINE
8
Black
10
160.306
20
-79.3005
11
160.308
21
-79.2946
0
LINE
8
Black
10
160.308
20
-79.2946
11
160.31
21
-79.2884
0
LINE
8
Black
10
160.31
20
-79.2884
11
160.314
21
-79.2829
0
LINE
8
Black
10
160.314
20
-79.2829
11
160.317
21
-79.2769
0
LINE
8
Black
10
160.317
20
-79.2769
11
160.321
21
-79.2723
0
LINE
8
Black
10
160.321
20
-79.2723
11
160.325
21
-79.267
0
LINE
8
Black
10
160.325
20
-79.267
11
160.33
21
-79.2632
0
LINE
8
Black
10
160.33
20
-79.2632
11
160.335
21
-79.2585
0
LINE
8
Black
10
160.335
20
-79.2585
11
160.341
21
-79.2558
0
LINE
8
Black
10
160.341
20
-79.2558
11
160.346
21
-79.2521
0
LINE
8
Black
10
160.346
20
-79.2521
11
160.353
21
-79.2503
0
LINE
8
Black
10
160.353
20
-79.2503
11
160.359
21
-79.2475
0
LINE
8
Black
10
160.359
20
-79.2475
11
160.786
21
-79.1336
0
LINE
8
Black
10
160.786
20
-79.1336
11
160.075
21
-78.9644
0
LINE
8
Black
10
160.075
20
-78.9644
11
160.051
21
-78.954
0
LINE
8
Black
10
160.051
20
-78.954
11
160.032
21
-78.9362
0
LINE
8
Black
10
160.032
20
-78.9362
11
160.021
21
-78.9129
0
LINE
8
Black
10
160.021
20
-78.9129
11
160.018
21
-78.887
0
LINE
8
Black
10
160.018
20
-78.887
11
160.024
21
-78.8617
0
LINE
8
Black
10
160.024
20
-78.8617
11
160.038
21
-78.8399
0
LINE
8
Black
10
160.038
20
-78.8399
11
160.059
21
-78.8244
0
LINE
8
Black
10
160.059
20
-78.8244
11
160.084
21
-78.8169
0
LINE
8
Black
10
160.084
20
-78.8169
11
160.11
21
-78.8185
0
LINE
8
Black
10
161.118
20
-77.9162
11
161.141
21
-77.9292
0
LINE
8
Black
10
161.141
20
-77.9292
11
161.157
21
-77.9492
0
LINE
8
Black
10
161.157
20
-77.9492
11
161.166
21
-77.9736
0
LINE
8
Black
10
161.166
20
-77.9736
11
161.166
21
-77.9997
0
LINE
8
Black
10
161.166
20
-77.9997
11
161.157
21
-78.0242
0
LINE
8
Black
10
161.157
20
-78.0242
11
161.141
21
-78.0441
0
LINE
8
Black
10
161.141
20
-78.0441
11
161.118
21
-78.0571
0
LINE
8
Black
10
161.118
20
-78.0571
11
161.092
21
-78.0617
0
LINE
8
Black
10
161.092
20
-78.0617
11
160.691
21
-78.0617
0
LINE
8
Black
10
160.691
20
-78.0617
11
160.691
21
-78.3676
0
LINE
8
Black
10
160.691
20
-78.3676
11
160.69
21
-78.3719
0
LINE
8
Black
10
160.69
20
-78.3719
11
160.691
21
-78.3762
0
LINE
8
Black
10
160.691
20
-78.3762
11
160.688
21
-78.3846
0
LINE
8
Black
10
160.688
20
-78.3846
11
160.687
21
-78.3933
0
LINE
8
Black
10
160.687
20
-78.3933
11
160.685
21
-78.397
0
LINE
8
Black
10
160.685
20
-78.397
11
160.683
21
-78.4012
0
LINE
8
Black
10
160.683
20
-78.4012
11
160.636
21
-78.4964
0
LINE
8
Black
10
160.636
20
-78.4964
11
160.628
21
-78.5061
0
LINE
8
Black
10
160.628
20
-78.5061
11
160.622
21
-78.5159
0
LINE
8
Black
10
160.622
20
-78.5159
11
160.574
21
-78.5635
0
LINE
8
Black
10
160.574
20
-78.5635
11
160.564
21
-78.5704
0
LINE
8
Black
10
160.564
20
-78.5704
11
160.554
21
-78.5776
0
LINE
8
Black
10
160.554
20
-78.5776
11
160.459
21
-78.6252
0
LINE
8
Black
10
160.459
20
-78.6252
11
160.455
21
-78.6264
0
LINE
8
Black
10
160.455
20
-78.6264
11
160.451
21
-78.6286
0
LINE
8
Black
10
160.451
20
-78.6286
11
160.443
21
-78.6301
0
LINE
8
Black
10
160.443
20
-78.6301
11
160.434
21
-78.6326
0
LINE
8
Black
10
160.434
20
-78.6326
11
160.43
21
-78.6323
0
LINE
8
Black
10
160.43
20
-78.6323
11
160.426
21
-78.6331
0
LINE
8
Black
10
160.426
20
-78.6331
11
160.283
21
-78.6331
0
LINE
8
Black
10
160.283
20
-78.6331
11
160.279
21
-78.6323
0
LINE
8
Black
10
160.279
20
-78.6323
11
160.274
21
-78.6326
0
LINE
8
Black
10
160.274
20
-78.6326
11
160.266
21
-78.6301
0
LINE
8
Black
10
160.266
20
-78.6301
11
160.257
21
-78.6286
0
LINE
8
Black
10
160.257
20
-78.6286
11
160.253
21
-78.6264
0
LINE
8
Black
10
160.253
20
-78.6264
11
160.249
21
-78.6252
0
LINE
8
Black
10
160.249
20
-78.6252
11
160.154
21
-78.5776
0
LINE
8
Black
10
160.154
20
-78.5776
11
160.144
21
-78.5704
0
LINE
8
Black
10
160.144
20
-78.5704
11
160.135
21
-78.5635
0
LINE
8
Black
10
160.135
20
-78.5635
11
160.087
21
-78.5159
0
LINE
8
Black
10
160.087
20
-78.5159
11
160.08
21
-78.5061
0
LINE
8
Black
10
160.08
20
-78.5061
11
160.073
21
-78.4964
0
LINE
8
Black
10
160.073
20
-78.4964
11
160.025
21
-78.4012
0
LINE
8
Black
10
160.025
20
-78.4012
11
160.024
21
-78.397
0
LINE
8
Black
10
160.024
20
-78.397
11
160.022
21
-78.3933
0
LINE
8
Black
10
160.022
20
-78.3933
11
160.02
21
-78.3846
0
LINE
8
Black
10
160.02
20
-78.3846
11
160.018
21
-78.3762
0
LINE
8
Black
10
160.018
20
-78.3762
11
160.018
21
-78.3719
0
LINE
8
Black
10
160.018
20
-78.3719
11
160.017
21
-78.3676
0
LINE
8
Black
10
160.017
20
-78.3676
11
160.017
21
-77.9867
0
LINE
8
Black
10
160.017
20
-77.9867
11
160.019
21
-77.9802
0
LINE
8
Black
10
160.019
20
-77.9802
11
160.019
21
-77.9736
0
LINE
8
Black
10
160.019
20
-77.9736
11
160.021
21
-77.9675
0
LINE
8
Black
10
160.021
20
-77.9675
11
160.022
21
-77.961
0
LINE
8
Black
10
160.022
20
-77.961
11
160.025
21
-77.9553
0
LINE
8
Black
10
160.025
20
-77.9553
11
160.027
21
-77.9492
0
LINE
8
Black
10
160.027
20
-77.9492
11
160.032
21
-77.9441
0
LINE
8
Black
10
160.032
20
-77.9441
11
160.035
21
-77.9385
0
LINE
8
Black
10
160.035
20
-77.9385
11
160.04
21
-77.9342
0
LINE
8
Black
10
160.04
20
-77.9342
11
160.044
21
-77.9292
0
LINE
8
Black
10
160.044
20
-77.9292
11
160.05
21
-77.9259
0
LINE
8
Black
10
160.05
20
-77.9259
11
160.055
21
-77.9217
0
LINE
8
Black
10
160.055
20
-77.9217
11
160.061
21
-77.9195
0
LINE
8
Black
10
160.061
20
-77.9195
11
160.067
21
-77.9162
0
LINE
8
Black
10
160.067
20
-77.9162
11
160.073
21
-77.9151
0
LINE
8
Black
10
160.073
20
-77.9151
11
160.079
21
-77.9128
0
LINE
8
Black
10
160.079
20
-77.9128
11
160.086
21
-77.9128
0
LINE
8
Black
10
160.086
20
-77.9128
11
160.092
21
-77.9117
0
LINE
8
Black
10
160.092
20
-77.9117
11
161.092
21
-77.9117
0
LINE
8
Black
10
161.092
20
-77.9117
11
161.118
21
-77.9162
0
LINE
8
Black
10
160.167
20
-78.0617
11
160.167
21
-78.3499
0
LINE
8
Black
10
160.167
20
-78.3499
11
160.202
21
-78.4184
0
LINE
8
Black
10
160.202
20
-78.4184
11
160.232
21
-78.4488
0
LINE
8
Black
10
160.232
20
-78.4488
11
160.301
21
-78.4831
0
LINE
8
Black
10
160.301
20
-78.4831
11
160.408
21
-78.4831
0
LINE
8
Black
10
160.408
20
-78.4831
11
160.477
21
-78.4488
0
LINE
8
Black
10
160.477
20
-78.4488
11
160.507
21
-78.4184
0
LINE
8
Black
10
160.507
20
-78.4184
11
160.541
21
-78.3499
0
LINE
8
Black
10
160.541
20
-78.3499
11
160.541
21
-78.0617
0
LINE
8
Black
10
160.541
20
-78.0617
11
160.167
21
-78.0617
0
LINE
8
Black
10
165.995
20
-67.9109
11
166
21
-67.9109
0
LINE
8
Black
10
166
20
-67.9109
11
166.005
21
-67.9127
0
LINE
8
Black
10
166.005
20
-67.9127
11
166.011
21
-67.9136
0
LINE
8
Black
10
166.011
20
-67.9136
11
166.015
21
-67.9162
0
LINE
8
Black
10
166.015
20
-67.9162
11
166.02
21
-67.918
0
LINE
8
Black
10
166.02
20
-67.918
11
166.024
21
-67.9214
0
LINE
8
Black
10
166.024
20
-67.9214
11
166.029
21
-67.924
0
LINE
8
Black
10
166.029
20
-67.924
11
166.032
21
-67.9281
0
LINE
8
Black
10
166.032
20
-67.9281
11
166.036
21
-67.9314
0
LINE
8
Black
10
166.036
20
-67.9314
11
166.039
21
-67.936
0
LINE
8
Black
10
166.039
20
-67.936
11
166.042
21
-67.94
0
LINE
8
Black
10
166.042
20
-67.94
11
166.044
21
-67.9449
0
LINE
8
Black
10
166.044
20
-67.9449
11
166.046
21
-67.9495
0
LINE
8
Black
10
166.046
20
-67.9495
11
166.047
21
-67.9547
0
LINE
8
Black
10
166.047
20
-67.9547
11
166.049
21
-67.9596
0
LINE
8
Black
10
166.049
20
-67.9596
11
166.049
21
-67.9648
0
LINE
8
Black
10
166.049
20
-67.9648
11
166.05
21
-67.97
0
LINE
8
Black
10
166.05
20
-67.97
11
166.05
21
-77.17
0
LINE
8
Black
10
166.05
20
-77.17
11
166.049
21
-77.1752
0
LINE
8
Black
10
166.049
20
-77.1752
11
166.049
21
-77.1804
0
LINE
8
Black
10
166.049
20
-77.1804
11
166.047
21
-77.1853
0
LINE
8
Black
10
166.047
20
-77.1853
11
166.046
21
-77.1905
0
LINE
8
Black
10
166.046
20
-77.1905
11
166.044
21
-77.1951
0
LINE
8
Black
10
166.044
20
-77.1951
11
166.042
21
-77.2
0
LINE
8
Black
10
166.042
20
-77.2
11
166.039
21
-77.204
0
LINE
8
Black
10
166.039
20
-77.204
11
166.036
21
-77.2086
0
LINE
8
Black
10
166.036
20
-77.2086
11
166.032
21
-77.2119
0
LINE
8
Black
10
166.032
20
-77.2119
11
166.029
21
-77.216
0
LINE
8
Black
10
166.029
20
-77.216
11
166.024
21
-77.2186
0
LINE
8
Black
10
166.024
20
-77.2186
11
166.02
21
-77.222
0
LINE
8
Black
10
166.02
20
-77.222
11
166.015
21
-77.2238
0
LINE
8
Black
10
166.015
20
-77.2238
11
166.011
21
-77.2264
0
LINE
8
Black
10
166.011
20
-77.2264
11
166.005
21
-77.2273
0
LINE
8
Black
10
166.005
20
-77.2273
11
166
21
-77.2291
0
LINE
8
Black
10
166
20
-77.2291
11
165.995
21
-77.2291
0
LINE
8
Black
10
165.995
20
-77.2291
11
165.99
21
-77.23
0
LINE
8
Black
10
165.99
20
-77.23
11
161.157
21
-77.23
0
LINE
8
Black
10
161.157
20
-77.23
11
161.164
21
-77.2487
0
LINE
8
Black
10
161.164
20
-77.2487
11
161.165
21
-77.2605
0
LINE
8
Black
10
161.165
20
-77.2605
11
161.167
21
-77.2724
0
LINE
8
Black
10
161.167
20
-77.2724
11
161.167
21
-77.3676
0
LINE
8
Black
10
161.167
20
-77.3676
11
161.165
21
-77.3795
0
LINE
8
Black
10
161.165
20
-77.3795
11
161.164
21
-77.3913
0
LINE
8
Black
10
161.164
20
-77.3913
11
161.116
21
-77.5342
0
LINE
8
Black
10
161.116
20
-77.5342
11
161.114
21
-77.538
0
LINE
8
Black
10
161.114
20
-77.538
11
161.113
21
-77.5422
0
LINE
8
Black
10
161.113
20
-77.5422
11
161.108
21
-77.5494
0
LINE
8
Black
10
161.108
20
-77.5494
11
161.104
21
-77.5571
0
LINE
8
Black
10
161.104
20
-77.5571
11
161.1
21
-77.56
0
LINE
8
Black
10
161.1
20
-77.56
11
161.098
21
-77.5635
0
LINE
8
Black
10
161.098
20
-77.5635
11
161.05
21
-77.6111
0
LINE
8
Black
10
161.05
20
-77.6111
11
161.029
21
-77.6261
0
LINE
8
Black
10
161.029
20
-77.6261
11
161.004
21
-77.6328
0
LINE
8
Black
10
161.004
20
-77.6328
11
160.978
21
-77.6305
0
LINE
8
Black
10
160.978
20
-77.6305
11
160.954
21
-77.6195
0
LINE
8
Black
10
160.954
20
-77.6195
11
160.936
21
-77.6011
0
LINE
8
Black
10
160.936
20
-77.6011
11
160.925
21
-77.5775
0
LINE
8
Black
10
160.925
20
-77.5775
11
160.922
21
-77.5516
0
LINE
8
Black
10
160.922
20
-77.5516
11
160.929
21
-77.5264
0
LINE
8
Black
10
160.929
20
-77.5264
11
160.944
21
-77.5051
0
LINE
8
Black
10
160.944
20
-77.5051
11
160.979
21
-77.47
0
LINE
8
Black
10
160.979
20
-77.47
11
161.017
21
-77.3554
0
LINE
8
Black
10
161.017
20
-77.3554
11
161.017
21
-77.2846
0
LINE
8
Black
10
161.017
20
-77.2846
11
160.999
21
-77.23
0
LINE
8
Black
10
160.999
20
-77.23
11
160.186
21
-77.23
0
LINE
8
Black
10
160.186
20
-77.23
11
160.167
21
-77.2846
0
LINE
8
Black
10
160.167
20
-77.2846
11
160.167
21
-77.3554
0
LINE
8
Black
10
160.167
20
-77.3554
11
160.206
21
-77.47
0
LINE
8
Black
10
160.206
20
-77.47
11
160.241
21
-77.5051
0
LINE
8
Black
10
160.241
20
-77.5051
11
160.256
21
-77.5264
0
LINE
8
Black
10
160.256
20
-77.5264
11
160.262
21
-77.5516
0
LINE
8
Black
10
160.262
20
-77.5516
11
160.26
21
-77.5775
0
LINE
8
Black
10
160.26
20
-77.5775
11
160.249
21
-77.6011
0
LINE
8
Black
10
160.249
20
-77.6011
11
160.231
21
-77.6195
0
LINE
8
Black
10
160.231
20
-77.6195
11
160.207
21
-77.6305
0
LINE
8
Black
10
160.207
20
-77.6305
11
160.181
21
-77.6328
0
LINE
8
Black
10
160.181
20
-77.6328
11
160.156
21
-77.6261
0
LINE
8
Black
10
160.156
20
-77.6261
11
160.135
21
-77.6111
0
LINE
8
Black
10
160.135
20
-77.6111
11
160.087
21
-77.5635
0
LINE
8
Black
10
160.087
20
-77.5635
11
160.084
21
-77.56
0
LINE
8
Black
10
160.084
20
-77.56
11
160.081
21
-77.5571
0
LINE
8
Black
10
160.081
20
-77.5571
11
160.077
21
-77.5494
0
LINE
8
Black
10
160.077
20
-77.5494
11
160.072
21
-77.5422
0
LINE
8
Black
10
160.072
20
-77.5422
11
160.071
21
-77.538
0
LINE
8
Black
10
160.071
20
-77.538
11
160.069
21
-77.5342
0
LINE
8
Black
10
160.069
20
-77.5342
11
160.021
21
-77.3913
0
LINE
8
Black
10
160.021
20
-77.3913
11
160.019
21
-77.3795
0
LINE
8
Black
10
160.019
20
-77.3795
11
160.017
21
-77.3676
0
LINE
8
Black
10
160.017
20
-77.3676
11
160.017
21
-77.2724
0
LINE
8
Black
10
160.017
20
-77.2724
11
160.019
21
-77.2605
0
LINE
8
Black
10
160.019
20
-77.2605
11
160.021
21
-77.2487
0
LINE
8
Black
10
160.021
20
-77.2487
11
160.027
21
-77.23
0
LINE
8
Black
10
160.027
20
-77.23
11
157.19
21
-77.23
0
LINE
8
Black
10
157.19
20
-77.23
11
157.169
21
-77.2264
0
LINE
8
Black
10
157.169
20
-77.2264
11
157.151
21
-77.216
0
LINE
8
Black
10
157.151
20
-77.216
11
157.138
21
-77.2
0
LINE
8
Black
10
157.138
20
-77.2
11
157.131
21
-77.1804
0
LINE
8
Black
10
157.131
20
-77.1804
11
157.131
21
-77.1596
0
LINE
8
Black
10
157.131
20
-77.1596
11
157.138
21
-77.14
0
LINE
8
Black
10
157.138
20
-77.14
11
157.151
21
-77.124
0
LINE
8
Black
10
157.151
20
-77.124
11
157.169
21
-77.1136
0
LINE
8
Black
10
157.169
20
-77.1136
11
157.19
21
-77.11
0
LINE
8
Black
10
157.19
20
-77.11
11
160.067
21
-77.11
0
LINE
8
Black
10
160.067
20
-77.11
11
160.069
21
-77.1058
0
LINE
8
Black
10
160.069
20
-77.1058
11
160.071
21
-77.102
0
LINE
8
Black
10
160.071
20
-77.102
11
160.072
21
-77.0978
0
LINE
8
Black
10
160.072
20
-77.0978
11
160.077
21
-77.0906
0
LINE
8
Black
10
160.077
20
-77.0906
11
160.081
21
-77.0829
0
LINE
8
Black
10
160.081
20
-77.0829
11
160.084
21
-77.08
0
LINE
8
Black
10
160.084
20
-77.08
11
160.087
21
-77.0765
0
LINE
8
Black
10
160.087
20
-77.0765
11
160.182
21
-76.9813
0
LINE
8
Black
10
160.182
20
-76.9813
11
160.192
21
-76.9744
0
LINE
8
Black
10
160.192
20
-76.9744
11
160.202
21
-76.9672
0
LINE
8
Black
10
160.202
20
-76.9672
11
160.297
21
-76.9196
0
LINE
8
Black
10
160.297
20
-76.9196
11
160.305
21
-76.9172
0
LINE
8
Black
10
160.305
20
-76.9172
11
160.312
21
-76.9139
0
LINE
8
Black
10
160.312
20
-76.9139
11
160.503
21
-76.8663
0
LINE
8
Black
10
160.503
20
-76.8663
11
160.512
21
-76.8656
0
LINE
8
Black
10
160.512
20
-76.8656
11
160.521
21
-76.864
0
LINE
8
Black
10
160.521
20
-76.864
11
160.664
21
-76.864
0
LINE
8
Black
10
160.664
20
-76.864
11
160.673
21
-76.8656
0
LINE
8
Black
10
160.673
20
-76.8656
11
160.682
21
-76.8663
0
LINE
8
Black
10
160.682
20
-76.8663
11
160.872
21
-76.9139
0
LINE
8
Black
10
160.872
20
-76.9139
11
160.88
21
-76.9172
0
LINE
8
Black
10
160.88
20
-76.9172
11
160.888
21
-76.9196
0
LINE
8
Black
10
160.888
20
-76.9196
11
160.983
21
-76.9672
0
LINE
8
Black
10
160.983
20
-76.9672
11
160.993
21
-76.9744
0
LINE
8
Black
10
160.993
20
-76.9744
11
161.003
21
-76.9813
0
LINE
8
Black
10
161.003
20
-76.9813
11
161.098
21
-77.0765
0
LINE
8
Black
10
161.098
20
-77.0765
11
161.1
21
-77.08
0
LINE
8
Black
10
161.1
20
-77.08
11
161.104
21
-77.0829
0
LINE
8
Black
10
161.104
20
-77.0829
11
161.108
21
-77.0906
0
LINE
8
Black
10
161.108
20
-77.0906
11
161.113
21
-77.0978
0
LINE
8
Black
10
161.113
20
-77.0978
11
161.114
21
-77.102
0
LINE
8
Black
10
161.114
20
-77.102
11
161.116
21
-77.1058
0
LINE
8
Black
10
161.116
20
-77.1058
11
161.117
21
-77.11
0
LINE
8
Black
10
161.117
20
-77.11
11
165.93
21
-77.11
0
LINE
8
Black
10
165.93
20
-77.11
11
165.93
21
-68.03
0
LINE
8
Black
10
165.93
20
-68.03
11
151.35
21
-68.03
0
LINE
8
Black
10
151.35
20
-68.03
11
151.35
21
-70.57
0
LINE
8
Black
10
151.35
20
-70.57
11
151.346
21
-70.5905
0
LINE
8
Black
10
151.346
20
-70.5905
11
151.336
21
-70.6086
0
LINE
8
Black
10
151.336
20
-70.6086
11
151.32
21
-70.622
0
LINE
8
Black
10
151.32
20
-70.622
11
151.3
21
-70.6291
0
LINE
8
Black
10
151.3
20
-70.6291
11
151.28
21
-70.6291
0
LINE
8
Black
10
151.28
20
-70.6291
11
151.26
21
-70.622
0
LINE
8
Black
10
151.26
20
-70.622
11
151.244
21
-70.6086
0
LINE
8
Black
10
151.244
20
-70.6086
11
151.234
21
-70.5905
0
LINE
8
Black
10
151.234
20
-70.5905
11
151.23
21
-70.57
0
LINE
8
Black
10
151.23
20
-70.57
11
151.23
21
-67.97
0
LINE
8
Black
10
151.23
20
-67.97
11
151.231
21
-67.9648
0
LINE
8
Black
10
151.231
20
-67.9648
11
151.231
21
-67.9596
0
LINE
8
Black
10
151.231
20
-67.9596
11
151.233
21
-67.9547
0
LINE
8
Black
10
151.233
20
-67.9547
11
151.234
21
-67.9495
0
LINE
8
Black
10
151.234
20
-67.9495
11
151.236
21
-67.9449
0
LINE
8
Black
10
151.236
20
-67.9449
11
151.238
21
-67.94
0
LINE
8
Black
10
151.238
20
-67.94
11
151.241
21
-67.936
0
LINE
8
Black
10
151.241
20
-67.936
11
151.244
21
-67.9314
0
LINE
8
Black
10
151.244
20
-67.9314
11
151.248
21
-67.9281
0
LINE
8
Black
10
151.248
20
-67.9281
11
151.251
21
-67.924
0
LINE
8
Black
10
151.251
20
-67.924
11
151.256
21
-67.9214
0
LINE
8
Black
10
151.256
20
-67.9214
11
151.26
21
-67.918
0
LINE
8
Black
10
151.26
20
-67.918
11
151.265
21
-67.9162
0
LINE
8
Black
10
151.265
20
-67.9162
11
151.269
21
-67.9136
0
LINE
8
Black
10
151.269
20
-67.9136
11
151.275
21
-67.9127
0
LINE
8
Black
10
151.275
20
-67.9127
11
151.28
21
-67.9109
0
LINE
8
Black
10
151.28
20
-67.9109
11
151.285
21
-67.9109
0
LINE
8
Black
10
151.285
20
-67.9109
11
151.29
21
-67.91
0
LINE
8
Black
10
151.29
20
-67.91
11
165.99
21
-67.91
0
LINE
8
Black
10
165.99
20
-67.91
11
165.995
21
-67.9109
0
LINE
8
Black
10
160.53
20
-77.014
11
160.357
21
-77.0574
0
LINE
8
Black
10
160.357
20
-77.0574
11
160.28
21
-77.0959
0
LINE
8
Black
10
160.28
20
-77.0959
11
160.266
21
-77.11
0
LINE
8
Black
10
160.266
20
-77.11
11
160.919
21
-77.11
0
LINE
8
Black
10
160.919
20
-77.11
11
160.905
21
-77.0959
0
LINE
8
Black
10
160.905
20
-77.0959
11
160.828
21
-77.0574
0
LINE
8
Black
10
160.828
20
-77.0574
11
160.655
21
-77.014
0
LINE
8
Black
10
160.655
20
-77.014
11
160.53
21
-77.014
0
LINE
8
Black
10
151.32
20
-74.418
11
151.336
21
-74.4314
0
LINE
8
Black
10
151.336
20
-74.4314
11
151.346
21
-74.4495
0
LINE
8
Black
10
151.346
20
-74.4495
11
151.35
21
-74.47
0
LINE
8
Black
10
151.35
20
-74.47
11
151.35
21
-77.11
0
LINE
8
Black
10
151.35
20
-77.11
11
153.19
21
-77.11
0
LINE
8
Black
10
153.19
20
-77.11
11
153.211
21
-77.1136
0
LINE
8
Black
10
153.211
20
-77.1136
11
153.229
21
-77.124
0
LINE
8
Black
10
153.229
20
-77.124
11
153.242
21
-77.14
0
LINE
8
Black
10
153.242
20
-77.14
11
153.249
21
-77.1596
0
LINE
8
Black
10
153.249
20
-77.1596
11
153.249
21
-77.1804
0
LINE
8
Black
10
153.249
20
-77.1804
11
153.242
21
-77.2
0
LINE
8
Black
10
153.242
20
-77.2
11
153.229
21
-77.216
0
LINE
8
Black
10
153.229
20
-77.216
11
153.211
21
-77.2264
0
LINE
8
Black
10
153.211
20
-77.2264
11
153.19
21
-77.23
0
LINE
8
Black
10
153.19
20
-77.23
11
151.29
21
-77.23
0
LINE
8
Black
10
151.29
20
-77.23
11
151.285
21
-77.2291
0
LINE
8
Black
10
151.285
20
-77.2291
11
151.28
21
-77.2291
0
LINE
8
Black
10
151.28
20
-77.2291
11
151.275
21
-77.2273
0
LINE
8
Black
10
151.275
20
-77.2273
11
151.269
21
-77.2264
0
LINE
8
Black
10
151.269
20
-77.2264
11
151.265
21
-77.2238
0
LINE
8
Black
10
151.265
20
-77.2238
11
151.26
21
-77.222
0
LINE
8
Black
10
151.26
20
-77.222
11
151.256
21
-77.2186
0
LINE
8
Black
10
151.256
20
-77.2186
11
151.251
21
-77.216
0
LINE
8
Black
10
151.251
20
-77.216
11
151.248
21
-77.2119
0
LINE
8
Black
10
151.248
20
-77.2119
11
151.244
21
-77.2086
0
LINE
8
Black
10
151.244
20
-77.2086
11
151.241
21
-77.204
0
LINE
8
Black
10
151.241
20
-77.204
11
151.238
21
-77.2
0
LINE
8
Black
10
151.238
20
-77.2
11
151.236
21
-77.1951
0
LINE
8
Black
10
151.236
20
-77.1951
11
151.234
21
-77.1905
0
LINE
8
Black
10
151.234
20
-77.1905
11
151.233
21
-77.1853
0
LINE
8
Black
10
151.233
20
-77.1853
11
151.231
21
-77.1804
0
LINE
8
Black
10
151.231
20
-77.1804
11
151.231
21
-77.1752
0
LINE
8
Black
10
151.231
20
-77.1752
11
151.23
21
-77.17
0
LINE
8
Black
10
151.23
20
-77.17
11
151.23
21
-74.47
0
LINE
8
Black
10
151.23
20
-74.47
11
151.234
21
-74.4495
0
LINE
8
Black
10
151.234
20
-74.4495
11
151.244
21
-74.4314
0
LINE
8
Black
10
151.244
20
-74.4314
11
151.26
21
-74.418
0
LINE
8
Black
10
151.26
20
-74.418
11
151.28
21
-74.4109
0
LINE
8
Black
10
151.28
20
-74.4109
11
151.3
21
-74.4109
0
LINE
8
Black
10
151.3
20
-74.4109
11
151.32
21
-74.418
0
LINE
8
Black
10
161.099
20
-75.9128
11
161.105
21
-75.9128
0
LINE
8
Black
10
161.105
20
-75.9128
11
161.112
21
-75.9151
0
LINE
8
Black
10
161.112
20
-75.9151
11
161.118
21
-75.9162
0
LINE
8
Black
10
161.118
20
-75.9162
11
161.124
21
-75.9195
0
LINE
8
Black
10
161.124
20
-75.9195
11
161.13
21
-75.9217
0
LINE
8
Black
10
161.13
20
-75.9217
11
161.135
21
-75.9259
0
LINE
8
Black
10
161.135
20
-75.9259
11
161.141
21
-75.9292
0
LINE
8
Black
10
161.141
20
-75.9292
11
161.145
21
-75.9342
0
LINE
8
Black
10
161.145
20
-75.9342
11
161.15
21
-75.9385
0
LINE
8
Black
10
161.15
20
-75.9385
11
161.153
21
-75.9441
0
LINE
8
Black
10
161.153
20
-75.9441
11
161.157
21
-75.9492
0
LINE
8
Black
10
161.157
20
-75.9492
11
161.16
21
-75.9553
0
LINE
8
Black
10
161.16
20
-75.9553
11
161.163
21
-75.961
0
LINE
8
Black
10
161.163
20
-75.961
11
161.164
21
-75.9675
0
LINE
8
Black
10
161.164
20
-75.9675
11
161.166
21
-75.9736
0
LINE
8
Black
10
161.166
20
-75.9736
11
161.166
21
-75.9802
0
LINE
8
Black
10
161.166
20
-75.9802
11
161.167
21
-75.9867
0
LINE
8
Black
10
161.167
20
-75.9867
11
161.167
21
-76.2248
0
LINE
8
Black
10
161.167
20
-76.2248
11
161.165
21
-76.2366
0
LINE
8
Black
10
161.165
20
-76.2366
11
161.164
21
-76.2485
0
LINE
8
Black
10
161.164
20
-76.2485
11
161.116
21
-76.3913
0
LINE
8
Black
10
161.116
20
-76.3913
11
161.114
21
-76.3951
0
LINE
8
Black
10
161.114
20
-76.3951
11
161.113
21
-76.3993
0
LINE
8
Black
10
161.113
20
-76.3993
11
161.108
21
-76.4065
0
LINE
8
Black
10
161.108
20
-76.4065
11
161.104
21
-76.4142
0
LINE
8
Black
10
161.104
20
-76.4142
11
161.1
21
-76.4171
0
LINE
8
Black
10
161.1
20
-76.4171
11
161.098
21
-76.4207
0
LINE
8
Black
10
161.098
20
-76.4207
11
161.003
21
-76.5159
0
LINE
8
Black
10
161.003
20
-76.5159
11
160.993
21
-76.5228
0
LINE
8
Black
10
160.993
20
-76.5228
11
160.983
21
-76.5299
0
LINE
8
Black
10
160.983
20
-76.5299
11
160.888
21
-76.5776
0
LINE
8
Black
10
160.888
20
-76.5776
11
160.88
21
-76.5799
0
LINE
8
Black
10
160.88
20
-76.5799
11
160.872
21
-76.5832
0
LINE
8
Black
10
160.872
20
-76.5832
11
160.682
21
-76.6309
0
LINE
8
Black
10
160.682
20
-76.6309
11
160.673
21
-76.6315
0
LINE
8
Black
10
160.673
20
-76.6315
11
160.664
21
-76.6331
0
LINE
8
Black
10
160.664
20
-76.6331
11
160.521
21
-76.6331
0
LINE
8
Black
10
160.521
20
-76.6331
11
160.512
21
-76.6315
0
LINE
8
Black
10
160.512
20
-76.6315
11
160.503
21
-76.6309
0
LINE
8
Black
10
160.503
20
-76.6309
11
160.312
21
-76.5832
0
LINE
8
Black
10
160.312
20
-76.5832
11
160.305
21
-76.5799
0
LINE
8
Black
10
160.305
20
-76.5799
11
160.297
21
-76.5776
0
LINE
8
Black
10
160.297
20
-76.5776
11
160.202
21
-76.5299
0
LINE
8
Black
10
160.202
20
-76.5299
11
160.192
21
-76.5228
0
LINE
8
Black
10
160.192
20
-76.5228
11
160.182
21
-76.5159
0
LINE
8
Black
10
160.182
20
-76.5159
11
160.087
21
-76.4207
0
LINE
8
Black
10
160.087
20
-76.4207
11
160.084
21
-76.4171
0
LINE
8
Black
10
160.084
20
-76.4171
11
160.081
21
-76.4142
0
LINE
8
Black
10
160.081
20
-76.4142
11
160.077
21
-76.4065
0
LINE
8
Black
10
160.077
20
-76.4065
11
160.072
21
-76.3993
0
LINE
8
Black
10
160.072
20
-76.3993
11
160.071
21
-76.3951
0
LINE
8
Black
10
160.071
20
-76.3951
11
160.069
21
-76.3913
0
LINE
8
Black
10
160.069
20
-76.3913
11
160.021
21
-76.2485
0
LINE
8
Black
10
160.021
20
-76.2485
11
160.019
21
-76.2366
0
LINE
8
Black
10
160.019
20
-76.2366
11
160.017
21
-76.2248
0
LINE
8
Black
10
160.017
20
-76.2248
11
160.017
21
-75.9867
0
LINE
8
Black
10
160.017
20
-75.9867
11
160.019
21
-75.9802
0
LINE
8
Black
10
160.019
20
-75.9802
11
160.019
21
-75.9736
0
LINE
8
Black
10
160.019
20
-75.9736
11
160.021
21
-75.9675
0
LINE
8
Black
10
160.021
20
-75.9675
11
160.022
21
-75.961
0
LINE
8
Black
10
160.022
20
-75.961
11
160.025
21
-75.9553
0
LINE
8
Black
10
160.025
20
-75.9553
11
160.027
21
-75.9492
0
LINE
8
Black
10
160.027
20
-75.9492
11
160.032
21
-75.9441
0
LINE
8
Black
10
160.032
20
-75.9441
11
160.035
21
-75.9385
0
LINE
8
Black
10
160.035
20
-75.9385
11
160.04
21
-75.9342
0
LINE
8
Black
10
160.04
20
-75.9342
11
160.044
21
-75.9292
0
LINE
8
Black
10
160.044
20
-75.9292
11
160.05
21
-75.9259
0
LINE
8
Black
10
160.05
20
-75.9259
11
160.055
21
-75.9217
0
LINE
8
Black
10
160.055
20
-75.9217
11
160.061
21
-75.9195
0
LINE
8
Black
10
160.061
20
-75.9195
11
160.067
21
-75.9162
0
LINE
8
Black
10
160.067
20
-75.9162
11
160.073
21
-75.9151
0
LINE
8
Black
10
160.073
20
-75.9151
11
160.079
21
-75.9128
0
LINE
8
Black
10
160.079
20
-75.9128
11
160.086
21
-75.9128
0
LINE
8
Black
10
160.086
20
-75.9128
11
160.092
21
-75.9117
0
LINE
8
Black
10
160.092
20
-75.9117
11
161.092
21
-75.9117
0
LINE
8
Black
10
161.092
20
-75.9117
11
161.099
21
-75.9128
0
LINE
8
Black
10
160.167
20
-76.0617
11
160.167
21
-76.2126
0
LINE
8
Black
10
160.167
20
-76.2126
11
160.206
21
-76.3271
0
LINE
8
Black
10
160.206
20
-76.3271
11
160.28
21
-76.4012
0
LINE
8
Black
10
160.28
20
-76.4012
11
160.357
21
-76.4397
0
LINE
8
Black
10
160.357
20
-76.4397
11
160.53
21
-76.4831
0
LINE
8
Black
10
160.53
20
-76.4831
11
160.655
21
-76.4831
0
LINE
8
Black
10
160.655
20
-76.4831
11
160.828
21
-76.4397
0
LINE
8
Black
10
160.828
20
-76.4397
11
160.905
21
-76.4012
0
LINE
8
Black
10
160.905
20
-76.4012
11
160.979
21
-76.3271
0
LINE
8
Black
10
160.979
20
-76.3271
11
161.017
21
-76.2126
0
LINE
8
Black
10
161.017
20
-76.2126
11
161.017
21
-76.0617
0
LINE
8
Black
10
161.017
20
-76.0617
11
160.167
21
-76.0617
  0
ENDSEC
  0
EOF
