<?xml version="1.0" standalone="no"?>
 <!DOCTYPE svg PUBLIC "-//W3C//DTD SVG 1.1//EN" 
 "http://www.w3.org/Graphics/SVG/1.1/DTD/svg11.dtd"> 
<svg xmlns="http://www.w3.org/2000/svg" version="1.1" 
    width="29.7002cm" height="21.0007cm" viewBox="0 0 116930 82680 ">
<title>SVG Picture created as Reactor-F.Cu.svg date 2017/01/20 17:42:42 </title>
  <desc>Picture generated by PCBNEW </desc>
<g style="fill:#000000; fill-opacity:1;stroke:#000000; stroke-opacity:1;
stroke-linecap:round; stroke-linejoin:round; "
 transform="translate(0 0) scale(1 1)">
</g>
<g style="fill:#000000; fill-opacity:0.0; 
stroke:#000000; stroke-width:-0.000393701; stroke-opacity:1; 
stroke-linecap:round; stroke-linejoin:round;">
</g>
<g style="fill:#000000; fill-opacity:0.0; 
stroke:#000000; stroke-width:0; stroke-opacity:1; 
stroke-linecap:round; stroke-linejoin:round;">
</g>
<g style="fill:#000000; fill-opacity:1.0; 
stroke:#000000; stroke-width:0; stroke-opacity:1; 
stroke-linecap:round; stroke-linejoin:round;">
<polyline style="fill-rule:evenodd;"
points="48655,50270
48655,49590
49335,49590
49335,50270
48655,50270
" /> 
</g>
<g style="fill:#000000; fill-opacity:1.0; 
stroke:#000000; stroke-width:680; stroke-opacity:1; 
stroke-linecap:round; stroke-linejoin:round;">
</g>
<g style="fill:#000000; fill-opacity:0.0; 
stroke:#000000; stroke-width:680; stroke-opacity:1; 
stroke-linecap:round; stroke-linejoin:round;">
<path d="M48995 48930
L48995 48930
" />
<path d="M49995 49930
L49995 49930
" />
<path d="M49995 48930
L49995 48930
" />
<path d="M50995 49930
L50995 49930
" />
<path d="M50995 48930
L50995 48930
" />
<path d="M51995 49930
L51995 49930
" />
<path d="M51995 48930
L51995 48930
" />
<path d="M52995 49930
L52995 49930
" />
<path d="M52995 48930
L52995 48930
" />
<path d="M53995 49930
L53995 49930
" />
<path d="M53995 48930
L53995 48930
" />
<path d="M54995 49930
L54995 49930
" />
<path d="M54995 48930
L54995 48930
" />
<path d="M55995 49930
L55995 49930
" />
<path d="M55995 48930
L55995 48930
" />
<path d="M56995 49930
L56995 49930
" />
<path d="M56995 48930
L56995 48930
" />
<path d="M57995 49930
L57995 49930
" />
<path d="M57995 48930
L57995 48930
" />
<path d="M58995 49930
L58995 49930
" />
<path d="M58995 48930
L58995 48930
" />
<path d="M59995 49930
L59995 49930
" />
<path d="M59995 48930
L59995 48930
" />
<path d="M60995 49930
L60995 49930
" />
<path d="M60995 48930
L60995 48930
" />
</g>
<g style="fill:#000000; fill-opacity:0.0; 
stroke:#000000; stroke-width:0; stroke-opacity:1; 
stroke-linecap:round; stroke-linejoin:round;">
</g>
<g style="fill:#000000; fill-opacity:1.0; 
stroke:#000000; stroke-width:0; stroke-opacity:1; 
stroke-linecap:round; stroke-linejoin:round;">
<polyline style="fill-rule:evenodd;"
points="51145,37145
51854,37145
51854,37854
51145,37854
51145,37145
" /> 
<circle cx="51500" cy="38500" r="354.331" /> 
</g>
<g style="fill:#000000; fill-opacity:1.0; 
stroke:#000000; stroke-width:39.3701; stroke-opacity:1; 
stroke-linecap:round; stroke-linejoin:round;">
</g>
<g style="fill:#000000; fill-opacity:1.0; 
stroke:#000000; stroke-width:0; stroke-opacity:1; 
stroke-linecap:round; stroke-linejoin:round;">
<circle cx="51500" cy="40500" r="354.331" /> 
</g>
<g style="fill:#000000; fill-opacity:1.0; 
stroke:#000000; stroke-width:39.3701; stroke-opacity:1; 
stroke-linecap:round; stroke-linejoin:round;">
</g>
<g style="fill:#000000; fill-opacity:1.0; 
stroke:#000000; stroke-width:0; stroke-opacity:1; 
stroke-linecap:round; stroke-linejoin:round;">
<circle cx="51500" cy="41500" r="354.331" /> 
</g>
<g style="fill:#000000; fill-opacity:1.0; 
stroke:#000000; stroke-width:39.3701; stroke-opacity:1; 
stroke-linecap:round; stroke-linejoin:round;">
</g>
<g style="fill:#000000; fill-opacity:1.0; 
stroke:#000000; stroke-width:0; stroke-opacity:1; 
stroke-linecap:round; stroke-linejoin:round;">
<circle cx="51500" cy="42500" r="354.331" /> 
</g>
<g style="fill:#000000; fill-opacity:1.0; 
stroke:#000000; stroke-width:39.3701; stroke-opacity:1; 
stroke-linecap:round; stroke-linejoin:round;">
</g>
<g style="fill:#000000; fill-opacity:1.0; 
stroke:#000000; stroke-width:0; stroke-opacity:1; 
stroke-linecap:round; stroke-linejoin:round;">
<circle cx="51500" cy="43500" r="354.331" /> 
</g>
<g style="fill:#000000; fill-opacity:1.0; 
stroke:#000000; stroke-width:39.3701; stroke-opacity:1; 
stroke-linecap:round; stroke-linejoin:round;">
</g>
<g style="fill:#000000; fill-opacity:1.0; 
stroke:#000000; stroke-width:0; stroke-opacity:1; 
stroke-linecap:round; stroke-linejoin:round;">
<circle cx="51500" cy="44500" r="354.331" /> 
</g>
<g style="fill:#000000; fill-opacity:1.0; 
stroke:#000000; stroke-width:39.3701; stroke-opacity:1; 
stroke-linecap:round; stroke-linejoin:round;">
</g>
<g style="fill:#000000; fill-opacity:1.0; 
stroke:#000000; stroke-width:0; stroke-opacity:1; 
stroke-linecap:round; stroke-linejoin:round;">
<circle cx="54500" cy="44500" r="354.331" /> 
</g>
<g style="fill:#000000; fill-opacity:1.0; 
stroke:#000000; stroke-width:39.3701; stroke-opacity:1; 
stroke-linecap:round; stroke-linejoin:round;">
</g>
<g style="fill:#000000; fill-opacity:1.0; 
stroke:#000000; stroke-width:0; stroke-opacity:1; 
stroke-linecap:round; stroke-linejoin:round;">
<circle cx="54500" cy="43500" r="354.331" /> 
</g>
<g style="fill:#000000; fill-opacity:1.0; 
stroke:#000000; stroke-width:39.3701; stroke-opacity:1; 
stroke-linecap:round; stroke-linejoin:round;">
</g>
<g style="fill:#000000; fill-opacity:1.0; 
stroke:#000000; stroke-width:0; stroke-opacity:1; 
stroke-linecap:round; stroke-linejoin:round;">
<circle cx="54500" cy="42500" r="354.331" /> 
</g>
<g style="fill:#000000; fill-opacity:1.0; 
stroke:#000000; stroke-width:39.3701; stroke-opacity:1; 
stroke-linecap:round; stroke-linejoin:round;">
</g>
<g style="fill:#000000; fill-opacity:1.0; 
stroke:#000000; stroke-width:0; stroke-opacity:1; 
stroke-linecap:round; stroke-linejoin:round;">
<circle cx="54500" cy="41500" r="354.331" /> 
</g>
<g style="fill:#000000; fill-opacity:1.0; 
stroke:#000000; stroke-width:39.3701; stroke-opacity:1; 
stroke-linecap:round; stroke-linejoin:round;">
</g>
<g style="fill:#000000; fill-opacity:1.0; 
stroke:#000000; stroke-width:0; stroke-opacity:1; 
stroke-linecap:round; stroke-linejoin:round;">
<circle cx="54500" cy="40500" r="354.331" /> 
</g>
<g style="fill:#000000; fill-opacity:1.0; 
stroke:#000000; stroke-width:39.3701; stroke-opacity:1; 
stroke-linecap:round; stroke-linejoin:round;">
</g>
<g style="fill:#000000; fill-opacity:1.0; 
stroke:#000000; stroke-width:0; stroke-opacity:1; 
stroke-linecap:round; stroke-linejoin:round;">
<circle cx="54500" cy="39500" r="354.331" /> 
</g>
<g style="fill:#000000; fill-opacity:1.0; 
stroke:#000000; stroke-width:39.3701; stroke-opacity:1; 
stroke-linecap:round; stroke-linejoin:round;">
</g>
<g style="fill:#000000; fill-opacity:1.0; 
stroke:#000000; stroke-width:0; stroke-opacity:1; 
stroke-linecap:round; stroke-linejoin:round;">
<circle cx="54500" cy="38500" r="354.331" /> 
</g>
<g style="fill:#000000; fill-opacity:1.0; 
stroke:#000000; stroke-width:39.3701; stroke-opacity:1; 
stroke-linecap:round; stroke-linejoin:round;">
</g>
<g style="fill:#000000; fill-opacity:1.0; 
stroke:#000000; stroke-width:0; stroke-opacity:1; 
stroke-linecap:round; stroke-linejoin:round;">
<circle cx="54500" cy="37500" r="354.331" /> 
</g>
<g style="fill:#000000; fill-opacity:1.0; 
stroke:#000000; stroke-width:39.3701; stroke-opacity:1; 
stroke-linecap:round; stroke-linejoin:round;">
</g>
<g style="fill:#000000; fill-opacity:1.0; 
stroke:#000000; stroke-width:0; stroke-opacity:1; 
stroke-linecap:round; stroke-linejoin:round;">
<circle cx="51500" cy="39500" r="354.331" /> 
</g>
<g style="fill:#000000; fill-opacity:1.0; 
stroke:#000000; stroke-width:39.3701; stroke-opacity:1; 
stroke-linecap:round; stroke-linejoin:round;">
</g>
<g style="fill:#000000; fill-opacity:1.0; 
stroke:#000000; stroke-width:0; stroke-opacity:1; 
stroke-linecap:round; stroke-linejoin:round;">
<polyline style="fill-rule:evenodd;"
points="41807,44358
40783,44358
40783,43570
41807,43570
41807,44358
" /> 
</g>
<g style="fill:#000000; fill-opacity:1.0; 
stroke:#000000; stroke-width:787.402; stroke-opacity:1; 
stroke-linecap:round; stroke-linejoin:round;">
</g>
<g style="fill:#000000; fill-opacity:0.0; 
stroke:#000000; stroke-width:787.402; stroke-opacity:1; 
stroke-linecap:round; stroke-linejoin:round;">
<path d="M41177 42964
L41413 42964
" />
<path d="M41177 41964
L41413 41964
" />
<path d="M41177 40964
L41413 40964
" />
<path d="M41177 39964
L41413 39964
" />
<path d="M41177 38964
L41413 38964
" />
<path d="M41177 37964
L41413 37964
" />
<path d="M41177 36964
L41413 36964
" />
<path d="M41177 35964
L41413 35964
" />
<path d="M41177 34964
L41413 34964
" />
</g>
<g style="fill:#000000; fill-opacity:1.0; 
stroke:#000000; stroke-width:0; stroke-opacity:1; 
stroke-linecap:round; stroke-linejoin:round;">
<circle cx="63290" cy="33480" r="984.252" /> 
</g>
<g style="fill:#000000; fill-opacity:1.0; 
stroke:#000000; stroke-width:39.3701; stroke-opacity:1; 
stroke-linecap:round; stroke-linejoin:round;">
</g>
<g style="fill:#000000; fill-opacity:1.0; 
stroke:#000000; stroke-width:0; stroke-opacity:1; 
stroke-linecap:round; stroke-linejoin:round;">
<circle cx="63265" cy="49255" r="984.252" /> 
</g>
<g style="fill:#000000; fill-opacity:1.0; 
stroke:#000000; stroke-width:39.3701; stroke-opacity:1; 
stroke-linecap:round; stroke-linejoin:round;">
</g>
<g style="fill:#000000; fill-opacity:1.0; 
stroke:#000000; stroke-width:0; stroke-opacity:1; 
stroke-linecap:round; stroke-linejoin:round;">
<circle cx="46705" cy="49280" r="984.252" /> 
</g>
<g style="fill:#000000; fill-opacity:1.0; 
stroke:#000000; stroke-width:39.3701; stroke-opacity:1; 
stroke-linecap:round; stroke-linejoin:round;">
</g>
<g style="fill:#000000; fill-opacity:1.0; 
stroke:#000000; stroke-width:0; stroke-opacity:1; 
stroke-linecap:round; stroke-linejoin:round;">
<circle cx="46710" cy="33475" r="984.252" /> 
</g>
<g style="fill:#000000; fill-opacity:1.0; 
stroke:#000000; stroke-width:39.3701; stroke-opacity:1; 
stroke-linecap:round; stroke-linejoin:round;">
</g>
<g style="fill:#000000; fill-opacity:1.0; 
stroke:#000000; stroke-width:0; stroke-opacity:1; 
stroke-linecap:round; stroke-linejoin:round;">
<polyline style="fill-rule:evenodd;"
points="61388,32423
61388,33446
60601,33446
60601,32423
61388,32423
" /> 
</g>
<g style="fill:#000000; fill-opacity:1.0; 
stroke:#000000; stroke-width:787.402; stroke-opacity:1; 
stroke-linecap:round; stroke-linejoin:round;">
</g>
<g style="fill:#000000; fill-opacity:0.0; 
stroke:#000000; stroke-width:787.402; stroke-opacity:1; 
stroke-linecap:round; stroke-linejoin:round;">
<path d="M59995 33053
L59995 32816
" />
<path d="M58995 33053
L58995 32816
" />
<path d="M57995 33053
L57995 32816
" />
<path d="M56995 33053
L56995 32816
" />
<path d="M55995 33053
L55995 32816
" />
<path d="M54995 33053
L54995 32816
" />
<path d="M53995 33053
L53995 32816
" />
<path d="M52995 33053
L52995 32816
" />
<path d="M51995 33053
L51995 32816
" />
<path d="M50995 33053
L50995 32816
" />
<path d="M49995 33053
L49995 32816
" />
<path d="M48995 33053
L48995 32816
" />
</g>
<g style="fill:#000000; fill-opacity:1.0; 
stroke:#000000; stroke-width:0; stroke-opacity:1; 
stroke-linecap:round; stroke-linejoin:round;">
<circle cx="52476.4" cy="27626" r="275.591" /> 
</g>
<g style="fill:#000000; fill-opacity:1.0; 
stroke:#000000; stroke-width:39.3701; stroke-opacity:1; 
stroke-linecap:round; stroke-linejoin:round;">
</g>
<g style="fill:#000000; fill-opacity:1.0; 
stroke:#000000; stroke-width:551.181; stroke-opacity:1; 
stroke-linecap:round; stroke-linejoin:round;">
</g>
<g style="fill:#000000; fill-opacity:0.0; 
stroke:#000000; stroke-width:551.181; stroke-opacity:1; 
stroke-linecap:round; stroke-linejoin:round;">
<path d="M49476 27625
L49476 27625
" />
</g>
<g style="fill:#000000; fill-opacity:1.0; 
stroke:#000000; stroke-width:0; stroke-opacity:1; 
stroke-linecap:round; stroke-linejoin:round;">
<circle cx="52476.4" cy="28649.6" r="275.591" /> 
</g>
<g style="fill:#000000; fill-opacity:1.0; 
stroke:#000000; stroke-width:39.3701; stroke-opacity:1; 
stroke-linecap:round; stroke-linejoin:round;">
</g>
<g style="fill:#000000; fill-opacity:1.0; 
stroke:#000000; stroke-width:551.181; stroke-opacity:1; 
stroke-linecap:round; stroke-linejoin:round;">
</g>
<g style="fill:#000000; fill-opacity:0.0; 
stroke:#000000; stroke-width:551.181; stroke-opacity:1; 
stroke-linecap:round; stroke-linejoin:round;">
<path d="M49476 28649
L49476 28649
" />
</g>
<g style="fill:#000000; fill-opacity:1.0; 
stroke:#000000; stroke-width:0; stroke-opacity:1; 
stroke-linecap:round; stroke-linejoin:round;">
<circle cx="52476.4" cy="30618.1" r="275.591" /> 
</g>
<g style="fill:#000000; fill-opacity:1.0; 
stroke:#000000; stroke-width:39.3701; stroke-opacity:1; 
stroke-linecap:round; stroke-linejoin:round;">
</g>
<g style="fill:#000000; fill-opacity:1.0; 
stroke:#000000; stroke-width:551.181; stroke-opacity:1; 
stroke-linecap:round; stroke-linejoin:round;">
</g>
<g style="fill:#000000; fill-opacity:0.0; 
stroke:#000000; stroke-width:551.181; stroke-opacity:1; 
stroke-linecap:round; stroke-linejoin:round;">
<path d="M49476 30618
L49476 30618
" />
</g>
<g style="fill:#000000; fill-opacity:1.0; 
stroke:#000000; stroke-width:0; stroke-opacity:1; 
stroke-linecap:round; stroke-linejoin:round;">
<circle cx="52476.4" cy="29633.9" r="275.591" /> 
</g>
<g style="fill:#000000; fill-opacity:1.0; 
stroke:#000000; stroke-width:39.3701; stroke-opacity:1; 
stroke-linecap:round; stroke-linejoin:round;">
</g>
<g style="fill:#000000; fill-opacity:1.0; 
stroke:#000000; stroke-width:551.181; stroke-opacity:1; 
stroke-linecap:round; stroke-linejoin:round;">
</g>
<g style="fill:#000000; fill-opacity:0.0; 
stroke:#000000; stroke-width:551.181; stroke-opacity:1; 
stroke-linecap:round; stroke-linejoin:round;">
<path d="M49476 29633
L49476 29633
" />
</g>
<g style="fill:#000000; fill-opacity:0.0; 
stroke:#000000; stroke-width:0; stroke-opacity:1; 
stroke-linecap:round; stroke-linejoin:round;">
</g>
<g style="fill:#000000; fill-opacity:1.0; 
stroke:#000000; stroke-width:0; stroke-opacity:1; 
stroke-linecap:round; stroke-linejoin:round;">
<polyline style="fill-rule:evenodd;"
points="48401,30283
48401,30952
47732,30952
47732,30283
48401,30283
" /> 
</g>
<g style="fill:#000000; fill-opacity:1.0; 
stroke:#000000; stroke-width:669.291; stroke-opacity:1; 
stroke-linecap:round; stroke-linejoin:round;">
</g>
<g style="fill:#000000; fill-opacity:0.0; 
stroke:#000000; stroke-width:669.291; stroke-opacity:1; 
stroke-linecap:round; stroke-linejoin:round;">
<path d="M47066 30618
L47066 30618
" />
<path d="M48066 29618
L48066 29618
" />
<path d="M47066 29618
L47066 29618
" />
<path d="M48066 28618
L48066 28618
" />
<path d="M47066 28618
L47066 28618
" />
<path d="M48066 27618
L48066 27618
" />
<path d="M47066 27618
L47066 27618
" />
</g>
<g style="fill:#000000; fill-opacity:0.0; 
stroke:#000000; stroke-width:0; stroke-opacity:1; 
stroke-linecap:round; stroke-linejoin:round;">
</g>
<g style="fill:#000000; fill-opacity:1.0; 
stroke:#000000; stroke-width:0; stroke-opacity:1; 
stroke-linecap:round; stroke-linejoin:round;">
<polyline style="fill-rule:evenodd;"
points="60188,28311
60188,29688
58811,29688
58811,28311
60188,28311
" /> 
<polyline style="fill-rule:evenodd;"
points="62551,28311
62551,29688
61173,29688
61173,28311
62551,28311
" /> 
<polyline style="fill-rule:evenodd;"
points="61370,30161
61370,31539
59992,31539
59992,30161
61370,30161
" /> 
<circle cx="56885.8" cy="38500" r="118.11" /> 
</g>
<g style="fill:#000000; fill-opacity:1.0; 
stroke:#000000; stroke-width:39.3701; stroke-opacity:1; 
stroke-linecap:round; stroke-linejoin:round;">
</g>
<g style="fill:#000000; fill-opacity:1.0; 
stroke:#000000; stroke-width:0; stroke-opacity:1; 
stroke-linecap:round; stroke-linejoin:round;">
<circle cx="55862.2" cy="43492.1" r="118.11" /> 
</g>
<g style="fill:#000000; fill-opacity:1.0; 
stroke:#000000; stroke-width:39.3701; stroke-opacity:1; 
stroke-linecap:round; stroke-linejoin:round;">
</g>
<g style="fill:#000000; fill-opacity:1.0; 
stroke:#000000; stroke-width:0; stroke-opacity:1; 
stroke-linecap:round; stroke-linejoin:round;">
<circle cx="45300" cy="39000" r="118.11" /> 
</g>
<g style="fill:#000000; fill-opacity:1.0; 
stroke:#000000; stroke-width:39.3701; stroke-opacity:1; 
stroke-linecap:round; stroke-linejoin:round;">
</g>
<g style="fill:#000000; fill-opacity:1.0; 
stroke:#000000; stroke-width:0; stroke-opacity:1; 
stroke-linecap:round; stroke-linejoin:round;">
<circle cx="47023.6" cy="40480.3" r="118.11" /> 
</g>
<g style="fill:#000000; fill-opacity:1.0; 
stroke:#000000; stroke-width:39.3701; stroke-opacity:1; 
stroke-linecap:round; stroke-linejoin:round;">
</g>
<g style="fill:#000000; fill-opacity:1.0; 
stroke:#000000; stroke-width:0; stroke-opacity:1; 
stroke-linecap:round; stroke-linejoin:round;">
<circle cx="57515.7" cy="48059.1" r="118.11" /> 
</g>
<g style="fill:#000000; fill-opacity:1.0; 
stroke:#000000; stroke-width:39.3701; stroke-opacity:1; 
stroke-linecap:round; stroke-linejoin:round;">
</g>
<g style="fill:#000000; fill-opacity:1.0; 
stroke:#000000; stroke-width:0; stroke-opacity:1; 
stroke-linecap:round; stroke-linejoin:round;">
<circle cx="52669.3" cy="41500" r="118.11" /> 
</g>
<g style="fill:#000000; fill-opacity:1.0; 
stroke:#000000; stroke-width:39.3701; stroke-opacity:1; 
stroke-linecap:round; stroke-linejoin:round;">
</g>
<g style="fill:#000000; fill-opacity:1.0; 
stroke:#000000; stroke-width:0; stroke-opacity:1; 
stroke-linecap:round; stroke-linejoin:round;">
<circle cx="52338.6" cy="40480.3" r="118.11" /> 
</g>
<g style="fill:#000000; fill-opacity:1.0; 
stroke:#000000; stroke-width:39.3701; stroke-opacity:1; 
stroke-linecap:round; stroke-linejoin:round;">
</g>
<g style="fill:#000000; fill-opacity:1.0; 
stroke:#000000; stroke-width:0; stroke-opacity:1; 
stroke-linecap:round; stroke-linejoin:round;">
<circle cx="48500" cy="40893.7" r="118.11" /> 
</g>
<g style="fill:#000000; fill-opacity:1.0; 
stroke:#000000; stroke-width:39.3701; stroke-opacity:1; 
stroke-linecap:round; stroke-linejoin:round;">
</g>
<g style="fill:#000000; fill-opacity:1.0; 
stroke:#000000; stroke-width:0; stroke-opacity:1; 
stroke-linecap:round; stroke-linejoin:round;">
<circle cx="49326.8" cy="42783.5" r="118.11" /> 
</g>
<g style="fill:#000000; fill-opacity:1.0; 
stroke:#000000; stroke-width:39.3701; stroke-opacity:1; 
stroke-linecap:round; stroke-linejoin:round;">
</g>
<g style="fill:#000000; fill-opacity:1.0; 
stroke:#000000; stroke-width:0; stroke-opacity:1; 
stroke-linecap:round; stroke-linejoin:round;">
<circle cx="49051.2" cy="40893.7" r="118.11" /> 
</g>
<g style="fill:#000000; fill-opacity:1.0; 
stroke:#000000; stroke-width:39.3701; stroke-opacity:1; 
stroke-linecap:round; stroke-linejoin:round;">
</g>
<g style="fill:#000000; fill-opacity:1.0; 
stroke:#000000; stroke-width:0; stroke-opacity:1; 
stroke-linecap:round; stroke-linejoin:round;">
<circle cx="49720.5" cy="42783.5" r="118.11" /> 
</g>
<g style="fill:#000000; fill-opacity:1.0; 
stroke:#000000; stroke-width:39.3701; stroke-opacity:1; 
stroke-linecap:round; stroke-linejoin:round;">
</g>
<g style="fill:#000000; fill-opacity:1.0; 
stroke:#000000; stroke-width:0; stroke-opacity:1; 
stroke-linecap:round; stroke-linejoin:round;">
<circle cx="44129.9" cy="45815" r="118.11" /> 
</g>
<g style="fill:#000000; fill-opacity:1.0; 
stroke:#000000; stroke-width:39.3701; stroke-opacity:1; 
stroke-linecap:round; stroke-linejoin:round;">
</g>
<g style="fill:#000000; fill-opacity:1.0; 
stroke:#000000; stroke-width:0; stroke-opacity:1; 
stroke-linecap:round; stroke-linejoin:round;">
<circle cx="43933.1" cy="46129.9" r="118.11" /> 
</g>
<g style="fill:#000000; fill-opacity:1.0; 
stroke:#000000; stroke-width:39.3701; stroke-opacity:1; 
stroke-linecap:round; stroke-linejoin:round;">
</g>
<g style="fill:#000000; fill-opacity:1.0; 
stroke:#000000; stroke-width:0; stroke-opacity:1; 
stroke-linecap:round; stroke-linejoin:round;">
<circle cx="46885.8" cy="45460.6" r="118.11" /> 
</g>
<g style="fill:#000000; fill-opacity:1.0; 
stroke:#000000; stroke-width:39.3701; stroke-opacity:1; 
stroke-linecap:round; stroke-linejoin:round;">
</g>
<g style="fill:#000000; fill-opacity:1.0; 
stroke:#000000; stroke-width:0; stroke-opacity:1; 
stroke-linecap:round; stroke-linejoin:round;">
<circle cx="44287.4" cy="45460.6" r="118.11" /> 
</g>
<g style="fill:#000000; fill-opacity:1.0; 
stroke:#000000; stroke-width:39.3701; stroke-opacity:1; 
stroke-linecap:round; stroke-linejoin:round;">
</g>
<g style="fill:#000000; fill-opacity:1.0; 
stroke:#000000; stroke-width:0; stroke-opacity:1; 
stroke-linecap:round; stroke-linejoin:round;">
<circle cx="45980.3" cy="45185" r="118.11" /> 
</g>
<g style="fill:#000000; fill-opacity:1.0; 
stroke:#000000; stroke-width:39.3701; stroke-opacity:1; 
stroke-linecap:round; stroke-linejoin:round;">
</g>
<g style="fill:#000000; fill-opacity:1.0; 
stroke:#000000; stroke-width:0; stroke-opacity:1; 
stroke-linecap:round; stroke-linejoin:round;">
<circle cx="44681.1" cy="45185" r="118.11" /> 
</g>
<g style="fill:#000000; fill-opacity:1.0; 
stroke:#000000; stroke-width:39.3701; stroke-opacity:1; 
stroke-linecap:round; stroke-linejoin:round;">
</g>
<g style="fill:#000000; fill-opacity:1.0; 
stroke:#000000; stroke-width:0; stroke-opacity:1; 
stroke-linecap:round; stroke-linejoin:round;">
<circle cx="43696.9" cy="46444.9" r="118.11" /> 
</g>
<g style="fill:#000000; fill-opacity:1.0; 
stroke:#000000; stroke-width:39.3701; stroke-opacity:1; 
stroke-linecap:round; stroke-linejoin:round;">
</g>
<g style="fill:#000000; fill-opacity:1.0; 
stroke:#000000; stroke-width:98.4252; stroke-opacity:1; 
stroke-linecap:round; stroke-linejoin:round;">
</g>
<g style="fill:#000000; fill-opacity:0.0; 
stroke:#000000; stroke-width:98.4252; stroke-opacity:1; 
stroke-linecap:round; stroke-linejoin:round;">
<path d="M60681 30850
L60681 30181
" />
<path d="M60681 30181
L61862 29000
" />
<path d="M59995 32935
L59995 31536
" />
<path d="M59995 31536
L60681 30850
" />
<path d="M47066 29618
L47066 30618
" />
<path d="M47066 28618
L47066 29618
" />
<path d="M47066 27618
L47066 28618
" />
<path d="M55862 43492
L56610 42744
" />
<path d="M56610 38775
L56610 42744
" />
<path d="M56610 38775
L56885 38500
" />
<path d="M54500 36600
L54500 37500
" />
<path d="M53700 35800
L54500 36600
" />
<path d="M46000 35800
L53700 35800
" />
<path d="M45500 36300
L46000 35800
" />
<path d="M45500 38800
L45500 36300
" />
<path d="M45300 39000
L45500 38800
" />
<path d="M45744 47960
L42456 47960
" />
<path d="M45744 47960
L47515 47960
" />
<path d="M47515 47960
L48204 48649
" />
<path d="M48204 48649
L48204 49139
" />
<path d="M48995 49930
L48204 49139
" />
<path d="M41295 46799
L41295 43964
" />
<path d="M42456 47960
L41295 46799
" />
<path d="M45000 40500
L43775 40500
" />
<path d="M43311 40964
L41295 40964
" />
<path d="M43775 40500
L43311 40964
" />
<path d="M47003 40500
L45000 40500
" />
<path d="M47023 40480
L47003 40500
" />
<path d="M47003 40500
L51157 36346
" />
<path d="M51157 36346
L52732 36346
" />
<path d="M52732 36346
L53027 36641
" />
<path d="M53027 36641
L53027 40086
" />
<path d="M53027 40086
L53440 40500
" />
<path d="M53440 40500
L54500 40500
" />
<path d="M40137 42964
L41295 42964
" />
<path d="M39681 42507
L40137 42964
" />
<path d="M39681 34318
L39681 42507
" />
<path d="M39818 34181
L39681 34318
" />
<path d="M57515 49240
L57515 48059
" />
<path d="M57995 49719
L57515 49240
" />
<path d="M57995 49930
L57995 49719
" />
<path d="M43874 34181
L39818 34181
" />
<path d="M43874 34181
L45842 32212
" />
<path d="M45842 32212
L47417 32212
" />
<path d="M47417 32212
L48007 32803
" />
<path d="M48007 32803
L48007 34574
" />
<path d="M48007 34574
L55685 34574
" />
<path d="M55685 34574
L56275 35165
" />
<path d="M56275 35165
L56275 41759
" />
<path d="M56275 41759
L55535 42500
" />
<path d="M54500 42500
L55535 42500
" />
<path d="M50960 45598
L50960 45660
" />
<path d="M44799 41500
L45000 41500
" />
<path d="M50503 41500
L50763 41759
" />
<path d="M50763 41759
L50763 45401
" />
<path d="M50763 45401
L50960 45598
" />
<path d="M45000 41500
L50503 41500
" />
<path d="M52000 46700
L52652 46700
" />
<path d="M50960 45660
L52000 46700
" />
<path d="M46728 35263
L54208 35263
" />
<path d="M54208 35263
L55291 36346
" />
<path d="M55291 36346
L55291 41562
" />
<path d="M55291 41562
L55228 41500
" />
<path d="M54500 41500
L55228 41500
" />
<path d="M44858 33590
L45055 33590
" />
<path d="M45055 33590
L46728 35263
" />
<path d="M44169 34279
L44051 34397
" />
<path d="M44169 34279
L44858 33590
" />
<path d="M44051 34397
L40074 34397
" />
<path d="M40074 34397
L39858 34614
" />
<path d="M44799 41500
L43996 41500
" />
<path d="M43531 41964
L41295 41964
" />
<path d="M43996 41500
L43531 41964
" />
<path d="M39858 34614
L39858 41779
" />
<path d="M39858 41779
L40043 41964
" />
<path d="M40043 41964
L41295 41964
" />
<path d="M53995 47057
L53995 48930
" />
<path d="M52652 46700
L52929 46976
" />
<path d="M52929 46976
L53913 46976
" />
<path d="M53913 46976
L53995 47057
" />
<path d="M52633 46681
L52652 46700
" />
<path d="M44799 41500
L44795 41500
" />
<path d="M53224 36248
L53224 39397
" />
<path d="M53224 39397
L53326 39500
" />
<path d="M54500 39500
L53326 39500
" />
<path d="M51059 36051
L53027 36051
" />
<path d="M53027 36051
L53224 36248
" />
<path d="M45000 39500
L43633 39500
" />
<path d="M47610 39500
L51059 36051
" />
<path d="M45000 39500
L47610 39500
" />
<path d="M43169 39964
L41295 39964
" />
<path d="M43633 39500
L43169 39964
" />
<path d="M51500 42500
L51600 42500
" />
<path d="M51600 42500
L52200 43100
" />
<path d="M54500 49425
L53995 49930
" />
<path d="M54500 47200
L54500 49425
" />
<path d="M54000 46700
L54500 47200
" />
<path d="M53000 46700
L54000 46700
" />
<path d="M52200 45900
L53000 46700
" />
<path d="M52200 43100
L52200 45900
" />
<path d="M51500 42500
L51800 42500
" />
<path d="M51500 41500
L51700 41500
" />
<path d="M51700 41500
L52800 42600
" />
<path d="M55500 49435
L55995 49930
" />
<path d="M55500 47600
L55500 49435
" />
<path d="M54300 46400
L55500 47600
" />
<path d="M53500 46400
L54300 46400
" />
<path d="M52800 45700
L53500 46400
" />
<path d="M52800 42600
L52800 45700
" />
<path d="M52673 41496
L52673 41484
" />
<path d="M52669 41500
L52673 41496
" />
<path d="M53322 41464
L52338 40480
" />
<path d="M53322 45598
L53322 41464
" />
<path d="M53519 45795
L53322 45598
" />
<path d="M55980 45795
L53519 45795
" />
<path d="M58995 48930
L58995 48809
" />
<path d="M58995 48809
L55980 45795
" />
<path d="M51500 39500
L51948 39500
" />
<path d="M51948 39500
L53618 41169
" />
<path d="M53618 41169
L53618 45204
" />
<path d="M53618 45204
L53913 45500
" />
<path d="M53913 45500
L57565 45500
" />
<path d="M57565 45500
L60995 48930
" />
<path d="M48500 40893
L48500 40027
" />
<path d="M50027 38500
L51500 38500
" />
<path d="M48500 40027
L50027 38500
" />
<path d="M59995 50776
L59799 50972
" />
<path d="M59799 50972
L51295 50972
" />
<path d="M51295 50972
L50507 50185
" />
<path d="M50507 50185
L50507 46602
" />
<path d="M50507 46602
L49326 45421
" />
<path d="M49326 45421
L49326 42783
" />
<path d="M59995 49930
L59995 50776
" />
<path d="M49051 40893
L49051 40578
" />
<path d="M49720 45303
L49720 42783
" />
<path d="M51374 46956
L49720 45303
" />
<path d="M51374 48452
L51374 46956
" />
<path d="M51492 48570
L51374 48452
" />
<path d="M52200 38200
L51500 37500
" />
<path d="M52200 38610
L52200 38200
" />
<path d="M51807 39003
L52200 38610
" />
<path d="M50625 39003
L51807 39003
" />
<path d="M49051 40578
L50625 39003
" />
<path d="M59995 49201
L59484 49712
" />
<path d="M51492 50224
L51492 48570
" />
<path d="M51767 50500
L51492 50224
" />
<path d="M59326 50500
L51767 50500
" />
<path d="M59484 50657
L59326 50500
" />
<path d="M59484 49712
L59484 50657
" />
<path d="M59995 48930
L59995 49201
" />
<path d="M49476 30618
L48066 30618
" />
<path d="M49476 29633
L48082 29633
" />
<path d="M48082 29633
L48066 29618
" />
<path d="M49476 27625
L48074 27625
" />
<path d="M48074 27625
L48066 27618
" />
<path d="M49476 28649
L48098 28649
" />
<path d="M48098 28649
L48066 28618
" />
<path d="M46885 45460
L49484 48059
" />
<path d="M49484 48059
L49484 49419
" />
<path d="M49995 49930
L49484 49419
" />
<path d="M51688 47625
L51688 46917
" />
<path d="M51688 46917
L49996 45224
" />
<path d="M49996 45224
L49996 42429
" />
<path d="M49996 42429
L49956 42468
" />
<path d="M49956 42468
L48696 42468
" />
<path d="M48696 42468
L45980 45185
" />
<path d="M44681 45185
L44720 45224
" />
<path d="M44720 45224
L44720 46326
" />
<path d="M44720 46326
L44602 46444
" />
<path d="M44602 46444
L43696 46444
" />
<path d="M51688 47625
L52995 48932
" />
<path d="M52995 48930
L52995 48932
" />
</g> 
</svg>
